%TF.GenerationSoftware,KiCad,Pcbnew,(6.0.7)*%
%TF.CreationDate,2023-03-07T14:44:30-08:00*%
%TF.ProjectId,Foot Pedal PCB,466f6f74-2050-4656-9461-6c205043422e,A1*%
%TF.SameCoordinates,PX8917370PY68e7780*%
%TF.FileFunction,Copper,L2,Bot*%
%TF.FilePolarity,Positive*%
%FSLAX46Y46*%
G04 Gerber Fmt 4.6, Leading zero omitted, Abs format (unit mm)*
G04 Created by KiCad (PCBNEW (6.0.7)) date 2023-03-07 14:44:30*
%MOMM*%
%LPD*%
G01*
G04 APERTURE LIST*
G04 Aperture macros list*
%AMRoundRect*
0 Rectangle with rounded corners*
0 $1 Rounding radius*
0 $2 $3 $4 $5 $6 $7 $8 $9 X,Y pos of 4 corners*
0 Add a 4 corners polygon primitive as box body*
4,1,4,$2,$3,$4,$5,$6,$7,$8,$9,$2,$3,0*
0 Add four circle primitives for the rounded corners*
1,1,$1+$1,$2,$3*
1,1,$1+$1,$4,$5*
1,1,$1+$1,$6,$7*
1,1,$1+$1,$8,$9*
0 Add four rect primitives between the rounded corners*
20,1,$1+$1,$2,$3,$4,$5,0*
20,1,$1+$1,$4,$5,$6,$7,0*
20,1,$1+$1,$6,$7,$8,$9,0*
20,1,$1+$1,$8,$9,$2,$3,0*%
G04 Aperture macros list end*
%TA.AperFunction,Profile*%
%ADD10C,0.200000*%
%TD*%
%TA.AperFunction,ComponentPad*%
%ADD11R,1.350000X1.350000*%
%TD*%
%TA.AperFunction,ComponentPad*%
%ADD12O,1.350000X1.350000*%
%TD*%
%TA.AperFunction,ComponentPad*%
%ADD13R,1.800000X1.800000*%
%TD*%
%TA.AperFunction,ComponentPad*%
%ADD14C,1.800000*%
%TD*%
%TA.AperFunction,ComponentPad*%
%ADD15C,2.000000*%
%TD*%
%TA.AperFunction,ComponentPad*%
%ADD16R,1.600000X1.600000*%
%TD*%
%TA.AperFunction,ComponentPad*%
%ADD17C,1.600000*%
%TD*%
%TA.AperFunction,SMDPad,CuDef*%
%ADD18RoundRect,0.250000X-0.450000X0.262500X-0.450000X-0.262500X0.450000X-0.262500X0.450000X0.262500X0*%
%TD*%
%TA.AperFunction,SMDPad,CuDef*%
%ADD19RoundRect,0.250000X-0.262500X-0.450000X0.262500X-0.450000X0.262500X0.450000X-0.262500X0.450000X0*%
%TD*%
%TA.AperFunction,SMDPad,CuDef*%
%ADD20RoundRect,0.250000X0.512652X0.159099X0.159099X0.512652X-0.512652X-0.159099X-0.159099X-0.512652X0*%
%TD*%
%TA.AperFunction,Conductor*%
%ADD21C,1.270000*%
%TD*%
%TA.AperFunction,Conductor*%
%ADD22C,0.762000*%
%TD*%
%TA.AperFunction,Conductor*%
%ADD23C,0.508000*%
%TD*%
G04 APERTURE END LIST*
D10*
X-43000000Y12000000D02*
X-43000000Y9000000D01*
X43000000Y-9000000D02*
X43000000Y-12000000D01*
X40000000Y15000000D02*
X-40000000Y15000000D01*
X43000000Y12000000D02*
G75*
G03*
X40000000Y15000000I-3000000J0D01*
G01*
X-43000000Y-12000000D02*
G75*
G03*
X-40000000Y-15000000I3000000J0D01*
G01*
X43000000Y9000000D02*
X43000000Y-9000000D01*
X43000000Y9000000D02*
X43000000Y12000000D01*
X40000000Y-15000000D02*
X-40000000Y-15000000D01*
X-43000000Y-12000000D02*
X-43000000Y-9000000D01*
X-40000000Y15000000D02*
G75*
G03*
X-43000000Y12000000I0J-3000000D01*
G01*
X-43000000Y-9000000D02*
X-43000000Y9000000D01*
X40000000Y-15000000D02*
G75*
G03*
X43000000Y-12000000I0J3000000D01*
G01*
D11*
%TO.P,J1,1,Pin_1*%
%TO.N,unconnected-(J1-Pad1)*%
X25000000Y2000000D03*
D12*
%TO.P,J1,2,Pin_2*%
%TO.N,/ROW0*%
X25000000Y0D03*
%TO.P,J1,3,Pin_3*%
%TO.N,/COL2*%
X25000000Y-2000000D03*
%TD*%
D13*
%TO.P,D1,1,K*%
%TO.N,/LED1*%
X-1275000Y7500000D03*
D14*
%TO.P,D1,2,A*%
%TO.N,Net-(D1-Pad2)*%
X1265000Y7500000D03*
%TD*%
D13*
%TO.P,D2,1,K*%
%TO.N,/LED2*%
X13725000Y7500000D03*
D14*
%TO.P,D2,2,A*%
%TO.N,Net-(D2-Pad2)*%
X16265000Y7500000D03*
%TD*%
D15*
%TO.P,SW2,1,1*%
%TO.N,/COL0*%
X-3250000Y2250000D03*
X3250000Y2250000D03*
%TO.P,SW2,2,2*%
%TO.N,/ROW0*%
X-3250000Y-2250000D03*
X3250000Y-2250000D03*
%TD*%
D16*
%TO.P,U1,1,TX*%
%TO.N,unconnected-(U1-Pad1)*%
X-39270000Y-7620000D03*
D17*
%TO.P,U1,2,RX*%
%TO.N,unconnected-(U1-Pad2)*%
X-36730000Y-7620000D03*
%TO.P,U1,3,GND*%
%TO.N,GND*%
X-34190000Y-7620000D03*
%TO.P,U1,4,GND*%
X-31650000Y-7620000D03*
%TO.P,U1,5,SDA*%
%TO.N,unconnected-(U1-Pad5)*%
X-29110000Y-7620000D03*
%TO.P,U1,6,SCL*%
%TO.N,unconnected-(U1-Pad6)*%
X-26570000Y-7620000D03*
%TO.P,U1,7,D4*%
%TO.N,unconnected-(U1-Pad7)*%
X-24030000Y-7620000D03*
%TO.P,U1,8,C6*%
%TO.N,unconnected-(U1-Pad8)*%
X-21490000Y-7620000D03*
%TO.P,U1,9,D7*%
%TO.N,unconnected-(U1-Pad9)*%
X-18950000Y-7620000D03*
%TO.P,U1,10,E6*%
%TO.N,unconnected-(U1-Pad10)*%
X-16410000Y-7620000D03*
%TO.P,U1,11,B4*%
%TO.N,unconnected-(U1-Pad11)*%
X-13870000Y-7620000D03*
%TO.P,U1,12,B5*%
%TO.N,/ROW0*%
X-11330000Y-7620000D03*
%TO.P,U1,13,B6*%
%TO.N,/COL2*%
X-11330000Y7620000D03*
%TO.P,U1,14,B2*%
%TO.N,/COL1*%
X-13870000Y7620000D03*
%TO.P,U1,15,B3*%
%TO.N,/COL0*%
X-16410000Y7620000D03*
%TO.P,U1,16,B1*%
%TO.N,unconnected-(U1-Pad16)*%
X-18950000Y7620000D03*
%TO.P,U1,17,F7*%
%TO.N,unconnected-(U1-Pad17)*%
X-21490000Y7620000D03*
%TO.P,U1,18,F6*%
%TO.N,unconnected-(U1-Pad18)*%
X-24030000Y7620000D03*
%TO.P,U1,19,F5*%
%TO.N,/LED2*%
X-26570000Y7620000D03*
%TO.P,U1,20,F4*%
%TO.N,/LED1*%
X-29110000Y7620000D03*
%TO.P,U1,21,VCC*%
%TO.N,VCC*%
X-31650000Y7620000D03*
%TO.P,U1,22,RST*%
%TO.N,Net-(SW1-Pad2)*%
X-34190000Y7620000D03*
%TO.P,U1,23,GND*%
%TO.N,GND*%
X-36730000Y7620000D03*
%TO.P,U1,24,RAW*%
%TO.N,unconnected-(U1-Pad24)*%
X-39270000Y7620000D03*
%TD*%
D15*
%TO.P,SW3,1,1*%
%TO.N,/COL1*%
X11750000Y2250000D03*
X18250000Y2250000D03*
%TO.P,SW3,2,2*%
%TO.N,/ROW0*%
X18250000Y-2250000D03*
X11750000Y-2250000D03*
%TD*%
%TO.P,SW1,1,1*%
%TO.N,GND*%
X-40250000Y-3250000D03*
X-40250000Y3250000D03*
%TO.P,SW1,2,2*%
%TO.N,Net-(SW1-Pad2)*%
X-35750000Y3250000D03*
X-35750000Y-3250000D03*
%TD*%
D18*
%TO.P,R1,1*%
%TO.N,VCC*%
X4000000Y12912500D03*
%TO.P,R1,2*%
%TO.N,Net-(D1-Pad2)*%
X4000000Y11087500D03*
%TD*%
D19*
%TO.P,R2,1*%
%TO.N,VCC*%
X13087500Y13000000D03*
%TO.P,R2,2*%
%TO.N,Net-(D2-Pad2)*%
X14912500Y13000000D03*
%TD*%
D20*
%TO.P,C1,1*%
%TO.N,GND*%
X-4578249Y-6921751D03*
%TO.P,C1,2*%
%TO.N,/ROW0*%
X-5921751Y-5578249D03*
%TD*%
D21*
%TO.N,/ROW0*%
X19750000Y-2250000D02*
X22000000Y0D01*
X22000000Y0D02*
X25000000Y0D01*
X-11330000Y-7620000D02*
X-8620000Y-7620000D01*
X-3250000Y-2250000D02*
X3250000Y-2250000D01*
X-8620000Y-7620000D02*
X-3250000Y-2250000D01*
X18250000Y-2250000D02*
X19750000Y-2250000D01*
X3250000Y-2250000D02*
X11750000Y-2250000D01*
D22*
%TO.N,/LED1*%
X-4000000Y7500000D02*
X-8000000Y11500000D01*
X-26086943Y11500000D02*
X-29110000Y8476943D01*
X-8000000Y11500000D02*
X-26086943Y11500000D01*
X-29110000Y8476943D02*
X-29110000Y7620000D01*
X-1275000Y7500000D02*
X-4000000Y7500000D01*
%TO.N,/LED2*%
X13725000Y7500000D02*
X6000000Y7500000D01*
D23*
X-9000000Y10000000D02*
X-4800000Y5800000D01*
X-4800000Y5800000D02*
X4300000Y5800000D01*
D22*
X-9000000Y10000000D02*
X-25500000Y10000000D01*
X-25500000Y10000000D02*
X-26570000Y8930000D01*
D23*
X4300000Y5800000D02*
X6000000Y7500000D01*
D22*
X-26570000Y8930000D02*
X-26570000Y7620000D01*
D21*
%TO.N,Net-(SW1-Pad2)*%
X-34190000Y4810000D02*
X-34190000Y7620000D01*
X-35750000Y3250000D02*
X-34190000Y4810000D01*
%TO.N,/COL2*%
X25000000Y-2000000D02*
X22000000Y-5000000D01*
D22*
X12000000Y5000000D02*
X15000000Y2000000D01*
D23*
X-7100000Y4900000D02*
X11900000Y4900000D01*
X-9820000Y7620000D02*
X-7100000Y4900000D01*
D21*
X22000000Y-5000000D02*
X16000000Y-5000000D01*
X16000000Y-5000000D02*
X15000000Y-4000000D01*
D23*
X11900000Y4900000D02*
X12000000Y5000000D01*
D22*
X15000000Y2000000D02*
X15000000Y-4000000D01*
D23*
X-11330000Y7620000D02*
X-9820000Y7620000D01*
D22*
%TO.N,VCC*%
X4000000Y12912500D02*
X13000000Y12912500D01*
X13000000Y12912500D02*
X13087500Y13000000D01*
X4175000Y12825000D02*
X4000000Y13000000D01*
X-31650000Y8262500D02*
X-26912500Y13000000D01*
X4000000Y13000000D02*
X-26912500Y13000000D01*
X-31650000Y7620000D02*
X-31650000Y8262500D01*
%TO.N,/COL0*%
X-3250000Y2250000D02*
X-11040000Y2250000D01*
X-11040000Y2250000D02*
X-16410000Y7620000D01*
D21*
%TO.N,GND*%
X-36730000Y6270000D02*
X-36730000Y7620000D01*
X-38500000Y5000000D02*
X-38000000Y5000000D01*
X-40250000Y3250000D02*
X-38500000Y5000000D01*
X-38000000Y5000000D02*
X-36730000Y6270000D01*
D22*
%TO.N,Net-(D1-Pad2)*%
X4000000Y10235000D02*
X1265000Y7500000D01*
X4000000Y11087500D02*
X4000000Y10235000D01*
D23*
%TO.N,/COL1*%
X-13870000Y7620000D02*
X-10250000Y4000000D01*
X10000000Y4000000D02*
X11750000Y2250000D01*
X-10250000Y4000000D02*
X10000000Y4000000D01*
D22*
%TO.N,Net-(D2-Pad2)*%
X16265000Y7500000D02*
X16265000Y11647500D01*
X16265000Y11647500D02*
X14912500Y13000000D01*
%TD*%
%TA.AperFunction,Conductor*%
%TO.N,GND*%
G36*
X-36250977Y14217498D02*
G01*
X-36204484Y14163842D01*
X-36194380Y14093568D01*
X-36223874Y14028988D01*
X-36249096Y14006735D01*
X-36441285Y13878319D01*
X-36444379Y13875605D01*
X-36444385Y13875601D01*
X-36584016Y13753147D01*
X-36674124Y13674124D01*
X-36676833Y13671035D01*
X-36875601Y13444385D01*
X-36875605Y13444379D01*
X-36878319Y13441285D01*
X-36880608Y13437859D01*
X-36880612Y13437854D01*
X-36978297Y13291658D01*
X-37050375Y13183785D01*
X-37052199Y13180086D01*
X-37052202Y13180081D01*
X-37056378Y13171613D01*
X-37187349Y12906029D01*
X-37188674Y12902124D01*
X-37188675Y12902123D01*
X-37196029Y12880457D01*
X-37286896Y12612772D01*
X-37287699Y12608733D01*
X-37287701Y12608727D01*
X-37326971Y12411301D01*
X-37347314Y12309030D01*
X-37347583Y12304919D01*
X-37347584Y12304915D01*
X-37363699Y12059049D01*
X-37367569Y12000000D01*
X-37367299Y11995881D01*
X-37348149Y11703717D01*
X-37347314Y11690970D01*
X-37346510Y11686930D01*
X-37346510Y11686927D01*
X-37298413Y11445130D01*
X-37286896Y11387228D01*
X-37285571Y11383324D01*
X-37285570Y11383321D01*
X-37227853Y11213291D01*
X-37187349Y11093971D01*
X-37185526Y11090275D01*
X-37185523Y11090267D01*
X-37074356Y10864844D01*
X-37050375Y10816216D01*
X-37048081Y10812783D01*
X-37048080Y10812782D01*
X-36878319Y10558715D01*
X-36875605Y10555621D01*
X-36875601Y10555615D01*
X-36685725Y10339104D01*
X-36674124Y10325876D01*
X-36671035Y10323167D01*
X-36444385Y10124399D01*
X-36444379Y10124395D01*
X-36441285Y10121681D01*
X-36262118Y10001966D01*
X-36201481Y9961450D01*
X-36183784Y9949625D01*
X-36180081Y9947799D01*
X-35909733Y9814477D01*
X-35909725Y9814474D01*
X-35906029Y9812651D01*
X-35902115Y9811322D01*
X-35902114Y9811322D01*
X-35616679Y9714430D01*
X-35616676Y9714429D01*
X-35612772Y9713104D01*
X-35608733Y9712301D01*
X-35608727Y9712299D01*
X-35313073Y9653490D01*
X-35313070Y9653490D01*
X-35309030Y9652686D01*
X-35304919Y9652417D01*
X-35304915Y9652416D01*
X-35079387Y9637634D01*
X-35079378Y9637634D01*
X-35077338Y9637500D01*
X-34922662Y9637500D01*
X-34920622Y9637634D01*
X-34920613Y9637634D01*
X-34695085Y9652416D01*
X-34695081Y9652417D01*
X-34690970Y9652686D01*
X-34686930Y9653490D01*
X-34686927Y9653490D01*
X-34391273Y9712299D01*
X-34391267Y9712301D01*
X-34387228Y9713104D01*
X-34383324Y9714429D01*
X-34383321Y9714430D01*
X-34097886Y9811322D01*
X-34097885Y9811322D01*
X-34093971Y9812651D01*
X-34090275Y9814474D01*
X-34090267Y9814477D01*
X-33819919Y9947799D01*
X-33816216Y9949625D01*
X-33798518Y9961450D01*
X-33737882Y10001966D01*
X-33558715Y10121681D01*
X-33555621Y10124395D01*
X-33555615Y10124399D01*
X-33328965Y10323167D01*
X-33325876Y10325876D01*
X-33314275Y10339104D01*
X-33124399Y10555615D01*
X-33124395Y10555621D01*
X-33121681Y10558715D01*
X-32949625Y10816215D01*
X-32812651Y11093971D01*
X-32772147Y11213291D01*
X-32714430Y11383321D01*
X-32714429Y11383324D01*
X-32713104Y11387228D01*
X-32701586Y11445130D01*
X-32653490Y11686927D01*
X-32653490Y11686930D01*
X-32652686Y11690970D01*
X-32651850Y11703717D01*
X-32632701Y11995881D01*
X-32632431Y12000000D01*
X-32636301Y12059049D01*
X-32652416Y12304915D01*
X-32652417Y12304919D01*
X-32652686Y12309030D01*
X-32673029Y12411301D01*
X-32712299Y12608727D01*
X-32712301Y12608733D01*
X-32713104Y12612772D01*
X-32803970Y12880457D01*
X-32811322Y12902114D01*
X-32811322Y12902115D01*
X-32812651Y12906029D01*
X-32814475Y12909727D01*
X-32814477Y12909733D01*
X-32947799Y13180081D01*
X-32949625Y13183784D01*
X-32951919Y13187217D01*
X-32951920Y13187219D01*
X-33064494Y13355698D01*
X-33121681Y13441285D01*
X-33124395Y13444379D01*
X-33124399Y13444385D01*
X-33323167Y13671035D01*
X-33325876Y13674124D01*
X-33415984Y13753147D01*
X-33555615Y13875601D01*
X-33555621Y13875605D01*
X-33558715Y13878319D01*
X-33750904Y14006735D01*
X-33796432Y14061212D01*
X-33805280Y14131655D01*
X-33774639Y14195699D01*
X-33714237Y14233010D01*
X-33680902Y14237500D01*
X-27529083Y14237500D01*
X-27460962Y14217498D01*
X-27414469Y14163842D01*
X-27404365Y14093568D01*
X-27433859Y14028988D01*
X-27473353Y13998494D01*
X-27512537Y13979171D01*
X-27517168Y13975713D01*
X-27520371Y13973750D01*
X-27529758Y13967827D01*
X-27532851Y13965818D01*
X-27537963Y13963129D01*
X-27607456Y13908344D01*
X-27610026Y13906373D01*
X-27676301Y13856884D01*
X-27676308Y13856877D01*
X-27680929Y13853427D01*
X-27684843Y13849193D01*
X-27684845Y13849191D01*
X-27736762Y13793027D01*
X-27740192Y13789461D01*
X-31379320Y10150333D01*
X-31389900Y10140881D01*
X-31418802Y10117854D01*
X-31421382Y10115254D01*
X-31421384Y10115253D01*
X-31438832Y10097675D01*
X-31598537Y9936784D01*
X-31602988Y9932262D01*
X-31759677Y9771777D01*
X-31760171Y9771170D01*
X-31764196Y9767067D01*
X-31764388Y9766909D01*
X-31766027Y9765200D01*
X-31766069Y9765158D01*
X-31802463Y9727228D01*
X-31804285Y9725368D01*
X-32428304Y9101349D01*
X-32434322Y9095712D01*
X-32483019Y9053006D01*
X-32486594Y9048471D01*
X-32486595Y9048470D01*
X-32537798Y8983518D01*
X-32539876Y8980953D01*
X-32592734Y8917400D01*
X-32592738Y8917395D01*
X-32596426Y8912960D01*
X-32599245Y8907926D01*
X-32601314Y8904916D01*
X-32607517Y8895633D01*
X-32609552Y8892499D01*
X-32613128Y8887963D01*
X-32618974Y8876850D01*
X-32619040Y8876725D01*
X-32641090Y8846662D01*
X-32752016Y8734825D01*
X-32752020Y8734820D01*
X-32754630Y8732189D01*
X-32756526Y8729766D01*
X-32756544Y8729746D01*
X-32758271Y8728271D01*
X-32761479Y8724515D01*
X-32761484Y8724510D01*
X-32824189Y8651092D01*
X-32883639Y8612282D01*
X-32954634Y8611776D01*
X-33015811Y8651092D01*
X-33078516Y8724510D01*
X-33078521Y8724515D01*
X-33081729Y8728271D01*
X-33268745Y8887998D01*
X-33478446Y9016503D01*
X-33483016Y9018396D01*
X-33483020Y9018398D01*
X-33701099Y9108729D01*
X-33701105Y9108731D01*
X-33705668Y9110621D01*
X-33710468Y9111773D01*
X-33710473Y9111775D01*
X-33857895Y9147168D01*
X-33944815Y9168036D01*
X-34190000Y9187332D01*
X-34435185Y9168036D01*
X-34522105Y9147168D01*
X-34669527Y9111775D01*
X-34669532Y9111773D01*
X-34674332Y9110621D01*
X-34678895Y9108731D01*
X-34678901Y9108729D01*
X-34896980Y9018398D01*
X-34896984Y9018396D01*
X-34901554Y9016503D01*
X-35111255Y8887998D01*
X-35298271Y8728271D01*
X-35457998Y8541255D01*
X-35506084Y8462786D01*
X-35541945Y8404266D01*
X-35594593Y8356635D01*
X-35623765Y8351527D01*
X-35656435Y8334355D01*
X-36357978Y7632812D01*
X-36365592Y7618868D01*
X-36365461Y7617035D01*
X-36361210Y7610420D01*
X-35642901Y6892111D01*
X-35644588Y6890424D01*
X-35612941Y6858776D01*
X-35599275Y6819286D01*
X-35589707Y6762371D01*
X-35588584Y6753971D01*
X-35588120Y6749312D01*
X-35587500Y6736825D01*
X-35587500Y5925750D01*
X-35587537Y5922688D01*
X-35589945Y5823664D01*
X-35590140Y5812012D01*
X-35592360Y5568813D01*
X-35589543Y5530388D01*
X-35587837Y5507117D01*
X-35587500Y5497905D01*
X-35587500Y5441054D01*
X-35607502Y5372933D01*
X-35624405Y5351959D01*
X-35885540Y5090824D01*
X-35938626Y5059174D01*
X-35957970Y5053405D01*
X-36019984Y5034911D01*
X-36020179Y5034851D01*
X-36034397Y5030455D01*
X-36034432Y5030444D01*
X-36034681Y5030367D01*
X-36035112Y5030229D01*
X-36035378Y5030141D01*
X-36035457Y5030115D01*
X-36050246Y5025206D01*
X-36050574Y5025097D01*
X-36248845Y4956941D01*
X-36249434Y4956725D01*
X-36249450Y4956719D01*
X-36256928Y4953972D01*
X-36278932Y4945891D01*
X-36279837Y4945537D01*
X-36309109Y4933384D01*
X-36502213Y4848498D01*
X-36505266Y4846723D01*
X-36505279Y4846717D01*
X-36533752Y4830169D01*
X-36544311Y4824681D01*
X-36606873Y4795840D01*
X-36610782Y4793277D01*
X-36822038Y4654772D01*
X-36822043Y4654768D01*
X-36825951Y4652206D01*
X-37021391Y4477768D01*
X-37188902Y4276359D01*
X-37324802Y4052402D01*
X-37326611Y4048088D01*
X-37326612Y4048086D01*
X-37417145Y3832189D01*
X-37426107Y3810818D01*
X-37427258Y3806286D01*
X-37427259Y3806283D01*
X-37474055Y3622022D01*
X-37490591Y3556913D01*
X-37516836Y3296266D01*
X-37516612Y3291599D01*
X-37516612Y3291594D01*
X-37513859Y3234284D01*
X-37504268Y3034603D01*
X-37495891Y2992491D01*
X-37460612Y2815133D01*
X-37453161Y2777672D01*
X-37451582Y2773274D01*
X-37451580Y2773267D01*
X-37375530Y2561450D01*
X-37364639Y2531117D01*
X-37240645Y2300354D01*
X-37237850Y2296611D01*
X-37237848Y2296608D01*
X-37086697Y2094192D01*
X-37086692Y2094186D01*
X-37083905Y2090454D01*
X-37080596Y2087174D01*
X-37080591Y2087168D01*
X-36901179Y1909315D01*
X-36897862Y1906027D01*
X-36894100Y1903269D01*
X-36894097Y1903266D01*
X-36737076Y1788133D01*
X-36686602Y1751124D01*
X-36682471Y1748950D01*
X-36682470Y1748950D01*
X-36458901Y1631325D01*
X-36458895Y1631323D01*
X-36454766Y1629150D01*
X-36450358Y1627611D01*
X-36450352Y1627608D01*
X-36266065Y1563252D01*
X-36207448Y1542782D01*
X-35950080Y1493919D01*
X-35825825Y1489037D01*
X-35692985Y1483818D01*
X-35692980Y1483818D01*
X-35688317Y1483635D01*
X-35586460Y1494790D01*
X-35432562Y1511644D01*
X-35432556Y1511645D01*
X-35427909Y1512154D01*
X-35368417Y1527817D01*
X-35179100Y1577660D01*
X-35179098Y1577661D01*
X-35174577Y1578851D01*
X-35170280Y1580697D01*
X-34938180Y1680415D01*
X-34938178Y1680416D01*
X-34933886Y1682260D01*
X-34711124Y1820109D01*
X-34511184Y1989371D01*
X-34475500Y2030061D01*
X-34341540Y2182812D01*
X-34341536Y2182817D01*
X-34338458Y2186327D01*
X-34321651Y2212456D01*
X-34199270Y2402719D01*
X-34199267Y2402724D01*
X-34196742Y2406650D01*
X-34089148Y2645499D01*
X-34018040Y2897629D01*
X-34007739Y2978601D01*
X-33979300Y3043653D01*
X-33971841Y3051795D01*
X-33240222Y3783414D01*
X-33233708Y3789484D01*
X-33188528Y3828689D01*
X-33188526Y3828691D01*
X-33184495Y3832189D01*
X-33181112Y3836315D01*
X-33181108Y3836319D01*
X-33125980Y3903553D01*
X-33116017Y3915703D01*
X-33114976Y3916955D01*
X-33081464Y3956682D01*
X-33048759Y3995451D01*
X-33048755Y3995457D01*
X-33045324Y3999524D01*
X-33042627Y4004112D01*
X-33040070Y4007723D01*
X-33037505Y4011456D01*
X-33034119Y4015585D01*
X-32980692Y4109444D01*
X-32979878Y4110852D01*
X-32925132Y4203977D01*
X-32923241Y4208970D01*
X-32921303Y4213014D01*
X-32919433Y4217060D01*
X-32916794Y4221696D01*
X-32879960Y4323172D01*
X-32879348Y4324822D01*
X-32842997Y4420769D01*
X-32841107Y4425757D01*
X-32840084Y4430998D01*
X-32838850Y4435329D01*
X-32837694Y4439612D01*
X-32835873Y4444629D01*
X-32834924Y4449878D01*
X-32834922Y4449885D01*
X-32816667Y4550846D01*
X-32816345Y4552561D01*
X-32795651Y4658525D01*
X-32795526Y4663858D01*
X-32794949Y4669166D01*
X-32794203Y4669085D01*
X-32794134Y4669713D01*
X-32794880Y4669798D01*
X-32794413Y4673910D01*
X-32793672Y4678008D01*
X-32792500Y4702859D01*
X-32792500Y4790737D01*
X-32792465Y4793706D01*
X-32790189Y4890285D01*
X-32790063Y4895623D01*
X-32791164Y4903126D01*
X-32792500Y4921421D01*
X-32792500Y5114073D01*
X-32792081Y5124335D01*
X-32790158Y5147864D01*
X-32790158Y5147867D01*
X-32790045Y5149250D01*
X-32789976Y5150521D01*
X-32792324Y5194875D01*
X-32792500Y5201535D01*
X-32792500Y5516903D01*
X-32791776Y5530388D01*
X-32788032Y5565166D01*
X-32788032Y5565172D01*
X-32787640Y5568811D01*
X-32787772Y5583360D01*
X-32789608Y5784416D01*
X-32789858Y5811833D01*
X-32790053Y5823483D01*
X-32792463Y5922613D01*
X-32792500Y5925675D01*
X-32792500Y6267648D01*
X-32772498Y6335769D01*
X-32718842Y6382262D01*
X-32648568Y6392366D01*
X-32584668Y6363458D01*
X-32571255Y6352002D01*
X-32361554Y6223497D01*
X-32356984Y6221604D01*
X-32356980Y6221602D01*
X-32138901Y6131271D01*
X-32138895Y6131269D01*
X-32134332Y6129379D01*
X-32129532Y6128227D01*
X-32129527Y6128225D01*
X-32020134Y6101962D01*
X-31895185Y6071964D01*
X-31650000Y6052668D01*
X-31404815Y6071964D01*
X-31279866Y6101962D01*
X-31170473Y6128225D01*
X-31170468Y6128227D01*
X-31165668Y6129379D01*
X-31161105Y6131269D01*
X-31161099Y6131271D01*
X-30943020Y6221602D01*
X-30943016Y6221604D01*
X-30938446Y6223497D01*
X-30728745Y6352002D01*
X-30541729Y6511729D01*
X-30538521Y6515485D01*
X-30538516Y6515490D01*
X-30475811Y6588908D01*
X-30416361Y6627718D01*
X-30345366Y6628224D01*
X-30284189Y6588908D01*
X-30221484Y6515490D01*
X-30221479Y6515485D01*
X-30218271Y6511729D01*
X-30031255Y6352002D01*
X-29821554Y6223497D01*
X-29816984Y6221604D01*
X-29816980Y6221602D01*
X-29598901Y6131271D01*
X-29598895Y6131269D01*
X-29594332Y6129379D01*
X-29589532Y6128227D01*
X-29589527Y6128225D01*
X-29480134Y6101962D01*
X-29355185Y6071964D01*
X-29110000Y6052668D01*
X-28864815Y6071964D01*
X-28739866Y6101962D01*
X-28630473Y6128225D01*
X-28630468Y6128227D01*
X-28625668Y6129379D01*
X-28621105Y6131269D01*
X-28621099Y6131271D01*
X-28403020Y6221602D01*
X-28403016Y6221604D01*
X-28398446Y6223497D01*
X-28188745Y6352002D01*
X-28001729Y6511729D01*
X-27998521Y6515485D01*
X-27998516Y6515490D01*
X-27935811Y6588908D01*
X-27876361Y6627718D01*
X-27805366Y6628224D01*
X-27744189Y6588908D01*
X-27681484Y6515490D01*
X-27681479Y6515485D01*
X-27678271Y6511729D01*
X-27491255Y6352002D01*
X-27281554Y6223497D01*
X-27276984Y6221604D01*
X-27276980Y6221602D01*
X-27058901Y6131271D01*
X-27058895Y6131269D01*
X-27054332Y6129379D01*
X-27049532Y6128227D01*
X-27049527Y6128225D01*
X-26940134Y6101962D01*
X-26815185Y6071964D01*
X-26570000Y6052668D01*
X-26324815Y6071964D01*
X-26199866Y6101962D01*
X-26090473Y6128225D01*
X-26090468Y6128227D01*
X-26085668Y6129379D01*
X-26081105Y6131269D01*
X-26081099Y6131271D01*
X-25863020Y6221602D01*
X-25863016Y6221604D01*
X-25858446Y6223497D01*
X-25648745Y6352002D01*
X-25461729Y6511729D01*
X-25458521Y6515485D01*
X-25458516Y6515490D01*
X-25395811Y6588908D01*
X-25336361Y6627718D01*
X-25265366Y6628224D01*
X-25204189Y6588908D01*
X-25141484Y6515490D01*
X-25141479Y6515485D01*
X-25138271Y6511729D01*
X-24951255Y6352002D01*
X-24741554Y6223497D01*
X-24736984Y6221604D01*
X-24736980Y6221602D01*
X-24518901Y6131271D01*
X-24518895Y6131269D01*
X-24514332Y6129379D01*
X-24509532Y6128227D01*
X-24509527Y6128225D01*
X-24400134Y6101962D01*
X-24275185Y6071964D01*
X-24030000Y6052668D01*
X-23784815Y6071964D01*
X-23659866Y6101962D01*
X-23550473Y6128225D01*
X-23550468Y6128227D01*
X-23545668Y6129379D01*
X-23541105Y6131269D01*
X-23541099Y6131271D01*
X-23323020Y6221602D01*
X-23323016Y6221604D01*
X-23318446Y6223497D01*
X-23108745Y6352002D01*
X-22921729Y6511729D01*
X-22918521Y6515485D01*
X-22918516Y6515490D01*
X-22855811Y6588908D01*
X-22796361Y6627718D01*
X-22725366Y6628224D01*
X-22664189Y6588908D01*
X-22601484Y6515490D01*
X-22601479Y6515485D01*
X-22598271Y6511729D01*
X-22411255Y6352002D01*
X-22201554Y6223497D01*
X-22196984Y6221604D01*
X-22196980Y6221602D01*
X-21978901Y6131271D01*
X-21978895Y6131269D01*
X-21974332Y6129379D01*
X-21969532Y6128227D01*
X-21969527Y6128225D01*
X-21860134Y6101962D01*
X-21735185Y6071964D01*
X-21490000Y6052668D01*
X-21244815Y6071964D01*
X-21119866Y6101962D01*
X-21010473Y6128225D01*
X-21010468Y6128227D01*
X-21005668Y6129379D01*
X-21001105Y6131269D01*
X-21001099Y6131271D01*
X-20783020Y6221602D01*
X-20783016Y6221604D01*
X-20778446Y6223497D01*
X-20568745Y6352002D01*
X-20381729Y6511729D01*
X-20378521Y6515485D01*
X-20378516Y6515490D01*
X-20315811Y6588908D01*
X-20256361Y6627718D01*
X-20185366Y6628224D01*
X-20124189Y6588908D01*
X-20061484Y6515490D01*
X-20061479Y6515485D01*
X-20058271Y6511729D01*
X-19871255Y6352002D01*
X-19661554Y6223497D01*
X-19656984Y6221604D01*
X-19656980Y6221602D01*
X-19438901Y6131271D01*
X-19438895Y6131269D01*
X-19434332Y6129379D01*
X-19429532Y6128227D01*
X-19429527Y6128225D01*
X-19320134Y6101962D01*
X-19195185Y6071964D01*
X-18950000Y6052668D01*
X-18704815Y6071964D01*
X-18579866Y6101962D01*
X-18470473Y6128225D01*
X-18470468Y6128227D01*
X-18465668Y6129379D01*
X-18461105Y6131269D01*
X-18461099Y6131271D01*
X-18243020Y6221602D01*
X-18243016Y6221604D01*
X-18238446Y6223497D01*
X-18028745Y6352002D01*
X-17841729Y6511729D01*
X-17838521Y6515485D01*
X-17838516Y6515490D01*
X-17775811Y6588908D01*
X-17716361Y6627718D01*
X-17645366Y6628224D01*
X-17584189Y6588908D01*
X-17521484Y6515490D01*
X-17521479Y6515485D01*
X-17518271Y6511729D01*
X-17331255Y6352002D01*
X-17121554Y6223497D01*
X-17116979Y6221602D01*
X-17112573Y6219357D01*
X-17112644Y6219218D01*
X-17106670Y6216294D01*
X-17103849Y6214463D01*
X-16902794Y6115051D01*
X-16894127Y6110833D01*
X-16662563Y5999933D01*
X-16567144Y5954235D01*
X-16565041Y5953204D01*
X-16448803Y5894855D01*
X-16444335Y5892498D01*
X-16352318Y5841591D01*
X-16346082Y5837903D01*
X-16264723Y5786574D01*
X-16258014Y5782034D01*
X-16171670Y5719458D01*
X-16165708Y5714859D01*
X-16061293Y5629215D01*
X-16056691Y5625249D01*
X-15925644Y5506651D01*
X-15922364Y5503573D01*
X-15759134Y5344787D01*
X-15757288Y5343248D01*
X-15720210Y5312331D01*
X-15711807Y5304654D01*
X-11878849Y1471696D01*
X-11873212Y1465678D01*
X-11830506Y1416981D01*
X-11825971Y1413406D01*
X-11825970Y1413405D01*
X-11761018Y1362202D01*
X-11758453Y1360124D01*
X-11694900Y1307266D01*
X-11694895Y1307262D01*
X-11690460Y1303574D01*
X-11685426Y1300755D01*
X-11682416Y1298686D01*
X-11673146Y1292492D01*
X-11670001Y1290449D01*
X-11665463Y1286872D01*
X-11660355Y1284184D01*
X-11660351Y1284182D01*
X-11587184Y1245688D01*
X-11584294Y1244118D01*
X-11507096Y1200885D01*
X-11501624Y1199028D01*
X-11498224Y1197514D01*
X-11488013Y1193127D01*
X-11484579Y1191705D01*
X-11479473Y1189018D01*
X-11473959Y1187306D01*
X-11473957Y1187305D01*
X-11395001Y1162788D01*
X-11391865Y1161769D01*
X-11367039Y1153342D01*
X-11308088Y1133331D01*
X-11302375Y1132502D01*
X-11298862Y1131659D01*
X-11287849Y1129167D01*
X-11284282Y1128409D01*
X-11278766Y1126696D01*
X-11273038Y1126018D01*
X-11273033Y1126017D01*
X-11220633Y1119816D01*
X-11190882Y1116294D01*
X-11187660Y1115870D01*
X-11100103Y1103175D01*
X-11017946Y1106403D01*
X-11012999Y1106500D01*
X-5890157Y1106500D01*
X-5872872Y1105309D01*
X-5848489Y1101932D01*
X-5848486Y1101932D01*
X-5844870Y1101431D01*
X-5841226Y1101354D01*
X-5841220Y1101353D01*
X-5591524Y1096043D01*
X-5558748Y1095346D01*
X-5552050Y1095024D01*
X-5337943Y1079043D01*
X-5329507Y1078127D01*
X-5253704Y1067294D01*
X-5166788Y1054874D01*
X-5157226Y1053129D01*
X-5026043Y1023918D01*
X-5016859Y1021506D01*
X-4893034Y983951D01*
X-4886068Y981615D01*
X-4746782Y930330D01*
X-4743185Y928942D01*
X-4632505Y884299D01*
X-4572563Y860121D01*
X-4368788Y777429D01*
X-4362303Y774832D01*
X-4362093Y774749D01*
X-4354794Y771907D01*
X-4118438Y681268D01*
X-4108659Y677594D01*
X-4108322Y677470D01*
X-4108009Y677358D01*
X-4107932Y677330D01*
X-4095692Y672950D01*
X-4095663Y672940D01*
X-4095440Y672860D01*
X-3821942Y577726D01*
X-3818772Y576979D01*
X-3818766Y576977D01*
X-3783952Y568771D01*
X-3771332Y565091D01*
X-3707448Y542782D01*
X-3450080Y493919D01*
X-3325825Y489037D01*
X-3192985Y483818D01*
X-3192980Y483818D01*
X-3188317Y483635D01*
X-3086460Y494790D01*
X-2932562Y511644D01*
X-2932556Y511645D01*
X-2927909Y512154D01*
X-2726856Y565087D01*
X-2679100Y577660D01*
X-2679098Y577661D01*
X-2674577Y578851D01*
X-2455765Y672860D01*
X-2438180Y680415D01*
X-2438178Y680416D01*
X-2433886Y682260D01*
X-2211124Y820109D01*
X-2011184Y989371D01*
X-1933348Y1078126D01*
X-1841540Y1182812D01*
X-1841536Y1182817D01*
X-1838458Y1186327D01*
X-1829094Y1200885D01*
X-1699270Y1402719D01*
X-1699267Y1402724D01*
X-1696742Y1406650D01*
X-1589148Y1645499D01*
X-1518040Y1897629D01*
X-1501192Y2030061D01*
X-1485378Y2154369D01*
X-1485378Y2154373D01*
X-1484980Y2157499D01*
X-1482558Y2250000D01*
X-1492805Y2387887D01*
X-1501626Y2506593D01*
X-1501627Y2506597D01*
X-1501972Y2511245D01*
X-1559787Y2766750D01*
X-1577319Y2811834D01*
X-1583367Y2882571D01*
X-1550210Y2945350D01*
X-1488376Y2980237D01*
X-1459886Y2983500D01*
X1457012Y2983500D01*
X1525133Y2963498D01*
X1571626Y2909842D01*
X1581730Y2839568D01*
X1576501Y2817520D01*
X1575702Y2815133D01*
X1573893Y2810818D01*
X1572742Y2806286D01*
X1572741Y2806283D01*
X1512795Y2570244D01*
X1509409Y2556913D01*
X1508940Y2552257D01*
X1508940Y2552256D01*
X1506812Y2531117D01*
X1483164Y2296266D01*
X1483388Y2291599D01*
X1483388Y2291594D01*
X1488613Y2182812D01*
X1495732Y2034603D01*
X1520221Y1911487D01*
X1544488Y1789492D01*
X1546839Y1777672D01*
X1548418Y1773274D01*
X1548420Y1773267D01*
X1611550Y1597435D01*
X1635361Y1531117D01*
X1759355Y1300354D01*
X1762150Y1296611D01*
X1762152Y1296608D01*
X1913303Y1094192D01*
X1913308Y1094186D01*
X1916095Y1090454D01*
X1919404Y1087174D01*
X1919409Y1087168D01*
X2098821Y909315D01*
X2102138Y906027D01*
X2105900Y903269D01*
X2105903Y903266D01*
X2281178Y774749D01*
X2313398Y751124D01*
X2317529Y748950D01*
X2317530Y748950D01*
X2541099Y631325D01*
X2541105Y631323D01*
X2545234Y629150D01*
X2549642Y627611D01*
X2549648Y627608D01*
X2788136Y544324D01*
X2792552Y542782D01*
X3049920Y493919D01*
X3174175Y489037D01*
X3307015Y483818D01*
X3307020Y483818D01*
X3311683Y483635D01*
X3413540Y494790D01*
X3567438Y511644D01*
X3567444Y511645D01*
X3572091Y512154D01*
X3773144Y565087D01*
X3820900Y577660D01*
X3820902Y577661D01*
X3825423Y578851D01*
X4044235Y672860D01*
X4061820Y680415D01*
X4061822Y680416D01*
X4066114Y682260D01*
X4288876Y820109D01*
X4488816Y989371D01*
X4566652Y1078126D01*
X4658460Y1182812D01*
X4658464Y1182817D01*
X4661542Y1186327D01*
X4670906Y1200885D01*
X4800730Y1402719D01*
X4800733Y1402724D01*
X4803258Y1406650D01*
X4910852Y1645499D01*
X4981960Y1897629D01*
X4998808Y2030061D01*
X5014622Y2154369D01*
X5014622Y2154373D01*
X5015020Y2157499D01*
X5017442Y2250000D01*
X5007195Y2387887D01*
X4998374Y2506593D01*
X4998373Y2506597D01*
X4998028Y2511245D01*
X4940213Y2766750D01*
X4922681Y2811834D01*
X4916633Y2882571D01*
X4949790Y2945350D01*
X5011624Y2980237D01*
X5040114Y2983500D01*
X9526762Y2983500D01*
X9594883Y2963498D01*
X9615857Y2946595D01*
X9840346Y2722106D01*
X9874372Y2659794D01*
X9876809Y2643555D01*
X9879449Y2612116D01*
X9884157Y2556056D01*
X9885772Y2539092D01*
X9885827Y2538575D01*
X9885864Y2538257D01*
X9885867Y2538234D01*
X9887190Y2526991D01*
X9887822Y2521616D01*
X9922505Y2252634D01*
X9922631Y2251820D01*
X9927778Y2218541D01*
X9928416Y2214413D01*
X9928624Y2213261D01*
X9928789Y2212462D01*
X9928790Y2212456D01*
X9934198Y2186243D01*
X9936323Y2175942D01*
X10000113Y1901380D01*
X10000421Y1900250D01*
X10000426Y1900229D01*
X10007391Y1874653D01*
X10015262Y1845747D01*
X10015788Y1844067D01*
X10035165Y1789492D01*
X10110036Y1601441D01*
X10111530Y1597494D01*
X10135361Y1531117D01*
X10259355Y1300354D01*
X10262150Y1296611D01*
X10262152Y1296608D01*
X10413303Y1094192D01*
X10413308Y1094186D01*
X10416095Y1090454D01*
X10419404Y1087174D01*
X10419409Y1087168D01*
X10598821Y909315D01*
X10602138Y906027D01*
X10605900Y903269D01*
X10605903Y903266D01*
X10781178Y774749D01*
X10813398Y751124D01*
X10817529Y748950D01*
X10817530Y748950D01*
X11041099Y631325D01*
X11041105Y631323D01*
X11045234Y629150D01*
X11049642Y627611D01*
X11049648Y627608D01*
X11288136Y544324D01*
X11292552Y542782D01*
X11549920Y493919D01*
X11674175Y489037D01*
X11807015Y483818D01*
X11807020Y483818D01*
X11811683Y483635D01*
X11913540Y494790D01*
X12067438Y511644D01*
X12067444Y511645D01*
X12072091Y512154D01*
X12273144Y565087D01*
X12320900Y577660D01*
X12320902Y577661D01*
X12325423Y578851D01*
X12544235Y672860D01*
X12561820Y680415D01*
X12561822Y680416D01*
X12566114Y682260D01*
X12788876Y820109D01*
X12988816Y989371D01*
X13066652Y1078126D01*
X13158460Y1182812D01*
X13158464Y1182817D01*
X13161542Y1186327D01*
X13170906Y1200885D01*
X13300730Y1402719D01*
X13300733Y1402724D01*
X13303258Y1406650D01*
X13410852Y1645499D01*
X13424324Y1693267D01*
X13462067Y1753400D01*
X13526328Y1783583D01*
X13596706Y1774231D01*
X13634688Y1748159D01*
X13819595Y1563252D01*
X13853621Y1500940D01*
X13856500Y1474157D01*
X13856500Y-2751773D01*
X13853225Y-2780314D01*
X13826845Y-2893747D01*
X13681156Y-3520211D01*
X13679561Y-3527068D01*
X13674414Y-3542656D01*
X13674529Y-3542695D01*
X13672829Y-3547745D01*
X13670705Y-3552643D01*
X13669437Y-3557826D01*
X13669436Y-3557828D01*
X13658505Y-3602500D01*
X13614334Y-3783010D01*
X13613957Y-3788333D01*
X13613957Y-3788334D01*
X13598602Y-4005210D01*
X13597584Y-4019583D01*
X13620932Y-4255595D01*
X13683714Y-4484299D01*
X13685973Y-4489132D01*
X13685975Y-4489138D01*
X13758424Y-4644152D01*
X13784131Y-4699156D01*
X13787171Y-4703538D01*
X13787175Y-4703545D01*
X13864688Y-4815278D01*
X13919315Y-4894021D01*
X13922109Y-4897091D01*
X13922110Y-4897093D01*
X13935052Y-4911317D01*
X13935064Y-4911330D01*
X13936058Y-4912422D01*
X13937125Y-4913489D01*
X14973407Y-5949770D01*
X14979477Y-5956285D01*
X15017200Y-5999756D01*
X15022189Y-6005505D01*
X15026315Y-6008888D01*
X15026319Y-6008892D01*
X15066298Y-6041672D01*
X15105725Y-6074001D01*
X15106977Y-6075042D01*
X15189524Y-6144676D01*
X15194114Y-6147374D01*
X15197723Y-6149930D01*
X15201457Y-6152496D01*
X15205585Y-6155881D01*
X15288778Y-6203237D01*
X15299385Y-6209275D01*
X15300823Y-6210106D01*
X15393977Y-6264869D01*
X15398972Y-6266761D01*
X15402995Y-6268689D01*
X15407060Y-6270567D01*
X15411696Y-6273206D01*
X15506129Y-6307483D01*
X15513157Y-6310034D01*
X15514784Y-6310637D01*
X15615758Y-6348893D01*
X15621000Y-6349917D01*
X15625385Y-6351166D01*
X15629618Y-6352308D01*
X15634629Y-6354127D01*
X15639874Y-6355075D01*
X15639876Y-6355076D01*
X15740828Y-6373331D01*
X15742557Y-6373656D01*
X15843286Y-6393327D01*
X15843287Y-6393327D01*
X15848525Y-6394350D01*
X15853861Y-6394476D01*
X15859162Y-6395052D01*
X15859140Y-6395256D01*
X15859778Y-6395316D01*
X15859800Y-6395122D01*
X15863927Y-6395590D01*
X15868008Y-6396328D01*
X15883379Y-6397053D01*
X15891371Y-6397430D01*
X15891378Y-6397430D01*
X15892859Y-6397500D01*
X15980721Y-6397500D01*
X15983690Y-6397535D01*
X16085624Y-6399937D01*
X16090903Y-6399162D01*
X16090906Y-6399162D01*
X16092106Y-6398986D01*
X16093127Y-6398836D01*
X16111422Y-6397500D01*
X21945701Y-6397500D01*
X21954600Y-6397815D01*
X22014255Y-6402039D01*
X22014258Y-6402039D01*
X22019583Y-6402416D01*
X22127094Y-6391780D01*
X22128732Y-6391630D01*
X22236315Y-6382501D01*
X22241486Y-6381159D01*
X22245998Y-6380388D01*
X22250283Y-6379594D01*
X22255595Y-6379068D01*
X22359707Y-6350489D01*
X22361394Y-6350038D01*
X22460704Y-6324262D01*
X22460705Y-6324262D01*
X22465874Y-6322920D01*
X22470740Y-6320728D01*
X22474920Y-6319256D01*
X22479154Y-6317698D01*
X22484299Y-6316286D01*
X22489131Y-6314028D01*
X22489141Y-6314024D01*
X22582107Y-6270575D01*
X22583704Y-6269842D01*
X22677246Y-6227704D01*
X22677250Y-6227702D01*
X22682111Y-6225512D01*
X22686538Y-6222532D01*
X22690474Y-6220341D01*
X22694318Y-6218130D01*
X22699156Y-6215869D01*
X22787869Y-6154326D01*
X22789304Y-6153345D01*
X22794790Y-6149652D01*
X22878845Y-6093063D01*
X22882708Y-6089378D01*
X22886868Y-6086033D01*
X22886966Y-6086154D01*
X22887451Y-6085748D01*
X22887362Y-6085637D01*
X22890613Y-6083049D01*
X22894021Y-6080685D01*
X22897084Y-6077898D01*
X22897089Y-6077894D01*
X22911317Y-6064948D01*
X22911330Y-6064936D01*
X22912422Y-6063942D01*
X22974533Y-6001831D01*
X22976656Y-5999756D01*
X23046593Y-5933039D01*
X23050450Y-5929360D01*
X23053631Y-5925085D01*
X23053636Y-5925079D01*
X23054977Y-5923276D01*
X23066972Y-5909392D01*
X24725084Y-4251280D01*
X24735656Y-4241836D01*
X24764558Y-4218808D01*
X24779861Y-4203392D01*
X24916227Y-4066013D01*
X24916234Y-4066020D01*
X24919547Y-4062693D01*
X24919524Y-4062671D01*
X25071825Y-3907378D01*
X25073888Y-3905267D01*
X25174791Y-3801587D01*
X25175993Y-3800370D01*
X25575794Y-3400569D01*
X25638106Y-3366543D01*
X25708921Y-3371608D01*
X25765757Y-3414155D01*
X25790568Y-3480675D01*
X25788898Y-3511973D01*
X25746568Y-3747237D01*
X25746379Y-3751404D01*
X25746378Y-3751411D01*
X25734346Y-4016365D01*
X25732933Y-4047488D01*
X25733296Y-4051636D01*
X25733296Y-4051640D01*
X25745885Y-4195525D01*
X25759129Y-4346905D01*
X25760039Y-4350977D01*
X25760040Y-4350982D01*
X25798367Y-4522448D01*
X25824694Y-4640227D01*
X25826138Y-4644150D01*
X25826138Y-4644152D01*
X25840192Y-4682349D01*
X25928477Y-4922301D01*
X26068655Y-5188172D01*
X26242764Y-5433167D01*
X26245613Y-5436222D01*
X26419838Y-5623055D01*
X26447746Y-5652983D01*
X26679999Y-5843758D01*
X26683556Y-5845964D01*
X26683561Y-5845967D01*
X26829639Y-5936539D01*
X26935443Y-6002140D01*
X27209591Y-6125347D01*
X27370804Y-6173407D01*
X27493626Y-6210022D01*
X27493628Y-6210023D01*
X27497625Y-6211214D01*
X27501745Y-6211867D01*
X27501747Y-6211867D01*
X27791004Y-6257681D01*
X27791010Y-6257682D01*
X27794485Y-6258232D01*
X27819546Y-6259370D01*
X27887058Y-6262436D01*
X27887079Y-6262436D01*
X27888478Y-6262500D01*
X28076243Y-6262500D01*
X28078335Y-6262361D01*
X28078337Y-6262361D01*
X28295729Y-6247922D01*
X28299900Y-6247645D01*
X28303994Y-6246820D01*
X28303998Y-6246819D01*
X28477339Y-6211867D01*
X28594531Y-6188237D01*
X28878716Y-6090384D01*
X28882449Y-6088515D01*
X28882453Y-6088513D01*
X29143720Y-5957680D01*
X29143722Y-5957679D01*
X29147464Y-5955805D01*
X29309086Y-5845967D01*
X29392593Y-5789216D01*
X29392596Y-5789214D01*
X29396052Y-5786865D01*
X29620113Y-5586531D01*
X29622831Y-5583360D01*
X29812990Y-5361498D01*
X29812993Y-5361494D01*
X29815710Y-5358324D01*
X29817984Y-5354822D01*
X29817988Y-5354817D01*
X29977128Y-5109763D01*
X29977131Y-5109758D01*
X29979407Y-5106253D01*
X30108328Y-4834746D01*
X30113788Y-4817740D01*
X30198928Y-4552561D01*
X30198929Y-4552555D01*
X30200208Y-4548573D01*
X30235760Y-4350982D01*
X30252693Y-4256872D01*
X30252694Y-4256867D01*
X30253432Y-4252763D01*
X30254779Y-4223117D01*
X30262754Y-4047488D01*
X33232933Y-4047488D01*
X33233296Y-4051636D01*
X33233296Y-4051640D01*
X33245885Y-4195525D01*
X33259129Y-4346905D01*
X33260039Y-4350977D01*
X33260040Y-4350982D01*
X33298367Y-4522448D01*
X33324694Y-4640227D01*
X33326138Y-4644150D01*
X33326138Y-4644152D01*
X33340192Y-4682349D01*
X33428477Y-4922301D01*
X33568655Y-5188172D01*
X33742764Y-5433167D01*
X33745613Y-5436222D01*
X33919838Y-5623055D01*
X33947746Y-5652983D01*
X34179999Y-5843758D01*
X34183556Y-5845964D01*
X34183561Y-5845967D01*
X34329639Y-5936539D01*
X34435443Y-6002140D01*
X34709591Y-6125347D01*
X34870804Y-6173407D01*
X34993626Y-6210022D01*
X34993628Y-6210023D01*
X34997625Y-6211214D01*
X35001745Y-6211867D01*
X35001747Y-6211867D01*
X35291004Y-6257681D01*
X35291010Y-6257682D01*
X35294485Y-6258232D01*
X35319546Y-6259370D01*
X35387058Y-6262436D01*
X35387079Y-6262436D01*
X35388478Y-6262500D01*
X35576243Y-6262500D01*
X35578335Y-6262361D01*
X35578337Y-6262361D01*
X35795729Y-6247922D01*
X35799900Y-6247645D01*
X35803994Y-6246820D01*
X35803998Y-6246819D01*
X35977339Y-6211867D01*
X36094531Y-6188237D01*
X36378716Y-6090384D01*
X36382449Y-6088515D01*
X36382453Y-6088513D01*
X36643720Y-5957680D01*
X36643722Y-5957679D01*
X36647464Y-5955805D01*
X36809086Y-5845967D01*
X36892593Y-5789216D01*
X36892596Y-5789214D01*
X36896052Y-5786865D01*
X37120113Y-5586531D01*
X37122831Y-5583360D01*
X37312990Y-5361498D01*
X37312993Y-5361494D01*
X37315710Y-5358324D01*
X37317984Y-5354822D01*
X37317988Y-5354817D01*
X37477128Y-5109763D01*
X37477131Y-5109758D01*
X37479407Y-5106253D01*
X37608328Y-4834746D01*
X37613788Y-4817740D01*
X37698928Y-4552561D01*
X37698929Y-4552555D01*
X37700208Y-4548573D01*
X37735760Y-4350982D01*
X37752693Y-4256872D01*
X37752694Y-4256867D01*
X37753432Y-4252763D01*
X37754779Y-4223117D01*
X37766878Y-3956682D01*
X37766878Y-3956676D01*
X37767067Y-3952512D01*
X37766662Y-3947876D01*
X37742534Y-3672102D01*
X37740871Y-3653095D01*
X37739621Y-3647500D01*
X37676218Y-3363852D01*
X37676217Y-3363849D01*
X37675306Y-3359773D01*
X37658444Y-3313942D01*
X37634501Y-3248868D01*
X37571523Y-3077699D01*
X37431345Y-2811828D01*
X37257236Y-2566833D01*
X37145130Y-2446614D01*
X37055104Y-2350073D01*
X37055102Y-2350071D01*
X37052254Y-2347017D01*
X36820001Y-2156242D01*
X36816444Y-2154036D01*
X36816439Y-2154033D01*
X36639288Y-2044195D01*
X36564557Y-1997860D01*
X36290409Y-1874653D01*
X36079450Y-1811763D01*
X36006374Y-1789978D01*
X36006372Y-1789977D01*
X36002375Y-1788786D01*
X35998255Y-1788133D01*
X35998253Y-1788133D01*
X35708996Y-1742319D01*
X35708990Y-1742318D01*
X35705515Y-1741768D01*
X35680454Y-1740630D01*
X35612942Y-1737564D01*
X35612921Y-1737564D01*
X35611522Y-1737500D01*
X35423757Y-1737500D01*
X35421665Y-1737639D01*
X35421663Y-1737639D01*
X35266366Y-1747954D01*
X35200100Y-1752355D01*
X35196006Y-1753180D01*
X35196002Y-1753181D01*
X35114698Y-1769575D01*
X34905469Y-1811763D01*
X34621284Y-1909616D01*
X34617551Y-1911485D01*
X34617547Y-1911487D01*
X34387047Y-2026913D01*
X34352536Y-2044195D01*
X34294319Y-2083759D01*
X34110907Y-2208406D01*
X34103948Y-2213135D01*
X33879887Y-2413469D01*
X33877170Y-2416639D01*
X33877169Y-2416640D01*
X33721948Y-2597740D01*
X33684290Y-2641676D01*
X33682016Y-2645178D01*
X33682012Y-2645183D01*
X33522872Y-2890237D01*
X33520593Y-2893747D01*
X33391672Y-3165254D01*
X33390393Y-3169237D01*
X33390392Y-3169240D01*
X33311759Y-3414155D01*
X33299792Y-3451427D01*
X33294530Y-3480675D01*
X33247341Y-3742942D01*
X33246568Y-3747237D01*
X33246379Y-3751404D01*
X33246378Y-3751411D01*
X33234346Y-4016365D01*
X33232933Y-4047488D01*
X30262754Y-4047488D01*
X30266878Y-3956682D01*
X30266878Y-3956676D01*
X30267067Y-3952512D01*
X30266662Y-3947876D01*
X30242534Y-3672102D01*
X30240871Y-3653095D01*
X30239621Y-3647500D01*
X30176218Y-3363852D01*
X30176217Y-3363849D01*
X30175306Y-3359773D01*
X30158444Y-3313942D01*
X30134501Y-3248868D01*
X30071523Y-3077699D01*
X29931345Y-2811828D01*
X29757236Y-2566833D01*
X29645130Y-2446614D01*
X29555104Y-2350073D01*
X29555102Y-2350071D01*
X29552254Y-2347017D01*
X29320001Y-2156242D01*
X29316444Y-2154036D01*
X29316439Y-2154033D01*
X29139288Y-2044195D01*
X29064557Y-1997860D01*
X28790409Y-1874653D01*
X28579450Y-1811763D01*
X28506374Y-1789978D01*
X28506372Y-1789977D01*
X28502375Y-1788786D01*
X28498255Y-1788133D01*
X28498253Y-1788133D01*
X28208996Y-1742319D01*
X28208990Y-1742318D01*
X28205515Y-1741768D01*
X28180454Y-1740630D01*
X28112942Y-1737564D01*
X28112921Y-1737564D01*
X28111522Y-1737500D01*
X27923757Y-1737500D01*
X27921665Y-1737639D01*
X27921663Y-1737639D01*
X27766366Y-1747954D01*
X27700100Y-1752355D01*
X27696006Y-1753180D01*
X27696002Y-1753181D01*
X27614698Y-1769575D01*
X27405469Y-1811763D01*
X27121284Y-1909616D01*
X27117551Y-1911485D01*
X27117547Y-1911487D01*
X26887047Y-2026913D01*
X26852536Y-2044195D01*
X26794319Y-2083759D01*
X26636455Y-2191043D01*
X26568871Y-2212789D01*
X26500259Y-2194545D01*
X26452402Y-2142102D01*
X26440013Y-2077058D01*
X26440268Y-2073782D01*
X26440705Y-2070462D01*
X26440787Y-2067110D01*
X26442345Y-2003365D01*
X26442345Y-2003361D01*
X26442427Y-2000000D01*
X26423058Y-1764414D01*
X26365472Y-1535155D01*
X26271216Y-1318380D01*
X26142820Y-1119910D01*
X26139346Y-1116092D01*
X26139339Y-1116083D01*
X26112410Y-1086489D01*
X26081358Y-1022643D01*
X26089752Y-952145D01*
X26103280Y-928163D01*
X26233383Y-747105D01*
X26236401Y-742905D01*
X26242886Y-729785D01*
X26338841Y-535635D01*
X26338842Y-535633D01*
X26341135Y-530993D01*
X26409851Y-304821D01*
X26440705Y-70462D01*
X26442427Y0D01*
X26423058Y235586D01*
X26365472Y464845D01*
X26294701Y627608D01*
X26273276Y676883D01*
X26273274Y676886D01*
X26271216Y681620D01*
X26262947Y694402D01*
X26242740Y762462D01*
X26262536Y830643D01*
X26269855Y840932D01*
X26272292Y844018D01*
X26277466Y849201D01*
X26370764Y1000560D01*
X26388780Y1054874D01*
X26424575Y1162791D01*
X26424576Y1162793D01*
X26426741Y1169322D01*
X26437500Y1274334D01*
X26437500Y2088878D01*
X26457502Y2156999D01*
X26511158Y2203492D01*
X26581432Y2213596D01*
X26643474Y2186244D01*
X26679999Y2156242D01*
X26683556Y2154036D01*
X26683561Y2154033D01*
X26780075Y2094192D01*
X26935443Y1997860D01*
X27209591Y1874653D01*
X27382431Y1823127D01*
X27493626Y1789978D01*
X27493628Y1789977D01*
X27497625Y1788786D01*
X27501745Y1788133D01*
X27501747Y1788133D01*
X27791004Y1742319D01*
X27791010Y1742318D01*
X27794485Y1741768D01*
X27819546Y1740630D01*
X27887058Y1737564D01*
X27887079Y1737564D01*
X27888478Y1737500D01*
X28076243Y1737500D01*
X28078335Y1737639D01*
X28078337Y1737639D01*
X28295729Y1752078D01*
X28299900Y1752355D01*
X28303994Y1753180D01*
X28303998Y1753181D01*
X28478604Y1788388D01*
X28594531Y1811763D01*
X28878716Y1909616D01*
X28882449Y1911485D01*
X28882453Y1911487D01*
X29143720Y2042320D01*
X29143722Y2042321D01*
X29147464Y2044195D01*
X29309086Y2154033D01*
X29392593Y2210784D01*
X29392596Y2210786D01*
X29396052Y2213135D01*
X29620113Y2413469D01*
X29703917Y2511245D01*
X29812990Y2638502D01*
X29812993Y2638506D01*
X29815710Y2641676D01*
X29817984Y2645178D01*
X29817988Y2645183D01*
X29977128Y2890237D01*
X29977131Y2890242D01*
X29979407Y2893747D01*
X29987050Y2909842D01*
X30050588Y3043653D01*
X30108328Y3165254D01*
X30130491Y3234284D01*
X30198928Y3447439D01*
X30198929Y3447445D01*
X30200208Y3451427D01*
X30230321Y3618790D01*
X30252693Y3743128D01*
X30252694Y3743133D01*
X30253432Y3747237D01*
X30254476Y3770215D01*
X30262754Y3952512D01*
X33232933Y3952512D01*
X33233296Y3948364D01*
X33233296Y3948360D01*
X33238512Y3888744D01*
X33259129Y3653095D01*
X33260039Y3649023D01*
X33260040Y3649018D01*
X33303286Y3455546D01*
X33324694Y3359773D01*
X33428477Y3077699D01*
X33430424Y3074006D01*
X33430425Y3074004D01*
X33479863Y2980237D01*
X33568655Y2811828D01*
X33742764Y2566833D01*
X33745613Y2563778D01*
X33914975Y2382160D01*
X33947746Y2347017D01*
X34179999Y2156242D01*
X34183556Y2154036D01*
X34183561Y2154033D01*
X34280075Y2094192D01*
X34435443Y1997860D01*
X34709591Y1874653D01*
X34882431Y1823127D01*
X34993626Y1789978D01*
X34993628Y1789977D01*
X34997625Y1788786D01*
X35001745Y1788133D01*
X35001747Y1788133D01*
X35291004Y1742319D01*
X35291010Y1742318D01*
X35294485Y1741768D01*
X35319546Y1740630D01*
X35387058Y1737564D01*
X35387079Y1737564D01*
X35388478Y1737500D01*
X35576243Y1737500D01*
X35578335Y1737639D01*
X35578337Y1737639D01*
X35795729Y1752078D01*
X35799900Y1752355D01*
X35803994Y1753180D01*
X35803998Y1753181D01*
X35978604Y1788388D01*
X36094531Y1811763D01*
X36378716Y1909616D01*
X36382449Y1911485D01*
X36382453Y1911487D01*
X36643720Y2042320D01*
X36643722Y2042321D01*
X36647464Y2044195D01*
X36809086Y2154033D01*
X36892593Y2210784D01*
X36892596Y2210786D01*
X36896052Y2213135D01*
X37120113Y2413469D01*
X37203917Y2511245D01*
X37312990Y2638502D01*
X37312993Y2638506D01*
X37315710Y2641676D01*
X37317984Y2645178D01*
X37317988Y2645183D01*
X37477128Y2890237D01*
X37477131Y2890242D01*
X37479407Y2893747D01*
X37487050Y2909842D01*
X37550588Y3043653D01*
X37608328Y3165254D01*
X37630491Y3234284D01*
X37698928Y3447439D01*
X37698929Y3447445D01*
X37700208Y3451427D01*
X37730321Y3618790D01*
X37752693Y3743128D01*
X37752694Y3743133D01*
X37753432Y3747237D01*
X37754476Y3770215D01*
X37766878Y4043318D01*
X37766878Y4043324D01*
X37767067Y4047488D01*
X37761504Y4111080D01*
X37741235Y4342743D01*
X37740871Y4346905D01*
X37724361Y4420769D01*
X37676218Y4636148D01*
X37676217Y4636151D01*
X37675306Y4640227D01*
X37672046Y4649089D01*
X37637535Y4742885D01*
X37571523Y4922301D01*
X37559086Y4945891D01*
X37433292Y5184479D01*
X37431345Y5188172D01*
X37257236Y5433167D01*
X37111625Y5589316D01*
X37055104Y5649927D01*
X37055102Y5649929D01*
X37052254Y5652983D01*
X36820001Y5843758D01*
X36816444Y5845964D01*
X36816439Y5845967D01*
X36643086Y5953450D01*
X36564557Y6002140D01*
X36290409Y6125347D01*
X36079450Y6188237D01*
X36006374Y6210022D01*
X36006372Y6210023D01*
X36002375Y6211214D01*
X35998255Y6211867D01*
X35998253Y6211867D01*
X35708996Y6257681D01*
X35708990Y6257682D01*
X35705515Y6258232D01*
X35680454Y6259370D01*
X35612942Y6262436D01*
X35612921Y6262436D01*
X35611522Y6262500D01*
X35423757Y6262500D01*
X35421665Y6262361D01*
X35421663Y6262361D01*
X35266366Y6252046D01*
X35200100Y6247645D01*
X35196006Y6246820D01*
X35196002Y6246819D01*
X35094865Y6226426D01*
X34905469Y6188237D01*
X34621284Y6090384D01*
X34617551Y6088515D01*
X34617547Y6088513D01*
X34356280Y5957680D01*
X34352536Y5955805D01*
X34302520Y5921814D01*
X34140951Y5812012D01*
X34103948Y5786865D01*
X33879887Y5586531D01*
X33877170Y5583361D01*
X33877169Y5583360D01*
X33745515Y5429756D01*
X33684290Y5358324D01*
X33682016Y5354822D01*
X33682012Y5354817D01*
X33529005Y5119207D01*
X33520593Y5106253D01*
X33518799Y5102474D01*
X33518798Y5102473D01*
X33498238Y5059174D01*
X33391672Y4834746D01*
X33390393Y4830763D01*
X33390392Y4830760D01*
X33301078Y4552578D01*
X33299792Y4548573D01*
X33299051Y4544454D01*
X33250814Y4276359D01*
X33246568Y4252763D01*
X33246379Y4248596D01*
X33246378Y4248589D01*
X33234068Y3977511D01*
X33232933Y3952512D01*
X30262754Y3952512D01*
X30266878Y4043318D01*
X30266878Y4043324D01*
X30267067Y4047488D01*
X30261504Y4111080D01*
X30241235Y4342743D01*
X30240871Y4346905D01*
X30224361Y4420769D01*
X30176218Y4636148D01*
X30176217Y4636151D01*
X30175306Y4640227D01*
X30172046Y4649089D01*
X30137535Y4742885D01*
X30071523Y4922301D01*
X30059086Y4945891D01*
X29933292Y5184479D01*
X29931345Y5188172D01*
X29757236Y5433167D01*
X29611625Y5589316D01*
X29555104Y5649927D01*
X29555102Y5649929D01*
X29552254Y5652983D01*
X29320001Y5843758D01*
X29316444Y5845964D01*
X29316439Y5845967D01*
X29143086Y5953450D01*
X29064557Y6002140D01*
X28790409Y6125347D01*
X28579450Y6188237D01*
X28506374Y6210022D01*
X28506372Y6210023D01*
X28502375Y6211214D01*
X28498255Y6211867D01*
X28498253Y6211867D01*
X28208996Y6257681D01*
X28208990Y6257682D01*
X28205515Y6258232D01*
X28180454Y6259370D01*
X28112942Y6262436D01*
X28112921Y6262436D01*
X28111522Y6262500D01*
X27923757Y6262500D01*
X27921665Y6262361D01*
X27921663Y6262361D01*
X27766366Y6252046D01*
X27700100Y6247645D01*
X27696006Y6246820D01*
X27696002Y6246819D01*
X27594865Y6226426D01*
X27405469Y6188237D01*
X27121284Y6090384D01*
X27117551Y6088515D01*
X27117547Y6088513D01*
X26856280Y5957680D01*
X26852536Y5955805D01*
X26802520Y5921814D01*
X26640951Y5812012D01*
X26603948Y5786865D01*
X26379887Y5586531D01*
X26377170Y5583361D01*
X26377169Y5583360D01*
X26245515Y5429756D01*
X26184290Y5358324D01*
X26182016Y5354822D01*
X26182012Y5354817D01*
X26029005Y5119207D01*
X26020593Y5106253D01*
X26018799Y5102474D01*
X26018798Y5102473D01*
X25998238Y5059174D01*
X25891672Y4834746D01*
X25890393Y4830763D01*
X25890392Y4830760D01*
X25801078Y4552578D01*
X25799792Y4548573D01*
X25799051Y4544454D01*
X25750814Y4276359D01*
X25746568Y4252763D01*
X25746379Y4248596D01*
X25746378Y4248589D01*
X25734068Y3977511D01*
X25732933Y3952512D01*
X25733296Y3948364D01*
X25733296Y3948360D01*
X25738512Y3888744D01*
X25759129Y3653095D01*
X25760039Y3649023D01*
X25760040Y3649018D01*
X25773012Y3590986D01*
X25768351Y3520143D01*
X25726130Y3463065D01*
X25659752Y3437874D01*
X25650046Y3437500D01*
X24274334Y3437500D01*
X24271088Y3437163D01*
X24271084Y3437163D01*
X24174868Y3427180D01*
X24174864Y3427179D01*
X24168010Y3426468D01*
X24161474Y3424287D01*
X24161472Y3424287D01*
X24029723Y3380332D01*
X23999346Y3370197D01*
X23848150Y3276634D01*
X23722534Y3150799D01*
X23629236Y2999440D01*
X23626931Y2992492D01*
X23626931Y2992491D01*
X23576208Y2839568D01*
X23573259Y2830678D01*
X23562500Y2725666D01*
X23562500Y1527817D01*
X23542498Y1459696D01*
X23488842Y1413203D01*
X23436035Y1401818D01*
X23371728Y1402056D01*
X23267138Y1402443D01*
X23267127Y1402443D01*
X23264579Y1402452D01*
X23262039Y1402255D01*
X23262029Y1402255D01*
X23205473Y1397876D01*
X23195747Y1397500D01*
X22054314Y1397500D01*
X22045415Y1397815D01*
X21985746Y1402040D01*
X21985743Y1402040D01*
X21980418Y1402417D01*
X21930718Y1397500D01*
X21872928Y1391783D01*
X21871176Y1391622D01*
X21825370Y1387735D01*
X21763685Y1382501D01*
X21758514Y1381159D01*
X21754002Y1380388D01*
X21749717Y1379594D01*
X21744405Y1379068D01*
X21640202Y1350464D01*
X21638615Y1350040D01*
X21572373Y1332847D01*
X21539288Y1324260D01*
X21539286Y1324259D01*
X21534126Y1322920D01*
X21529267Y1320731D01*
X21525022Y1319236D01*
X21520844Y1317698D01*
X21515701Y1316287D01*
X21417819Y1270540D01*
X21416319Y1269851D01*
X21317889Y1225512D01*
X21313463Y1222532D01*
X21309485Y1220318D01*
X21305674Y1218127D01*
X21300844Y1215869D01*
X21259669Y1187305D01*
X21212141Y1154334D01*
X21210690Y1153342D01*
X21121155Y1093063D01*
X21117292Y1089378D01*
X21113132Y1086033D01*
X21112549Y1086758D01*
X21112053Y1086370D01*
X21112637Y1085636D01*
X21109393Y1083054D01*
X21105980Y1080686D01*
X21087579Y1063942D01*
X21025493Y1001856D01*
X21023370Y999781D01*
X21004327Y981615D01*
X20949550Y929360D01*
X20946369Y925084D01*
X20945020Y923271D01*
X20933025Y909388D01*
X19581941Y-441696D01*
X19567016Y-454458D01*
X19549773Y-467014D01*
X19432571Y-575274D01*
X19423054Y-583233D01*
X19373621Y-620588D01*
X19355100Y-634584D01*
X19341745Y-643402D01*
X19318029Y-656981D01*
X19308483Y-662447D01*
X19291059Y-670722D01*
X19288992Y-671516D01*
X19248636Y-679803D01*
X19243777Y-679989D01*
X19226605Y-679474D01*
X19224568Y-679273D01*
X19186223Y-675496D01*
X19173515Y-673584D01*
X19105282Y-659724D01*
X19092866Y-657202D01*
X19084541Y-655214D01*
X18963616Y-621961D01*
X18958984Y-620592D01*
X18872440Y-593175D01*
X18804314Y-571593D01*
X18804310Y-571592D01*
X18801425Y-570678D01*
X18798462Y-570045D01*
X18798455Y-570043D01*
X18766964Y-563314D01*
X18759121Y-561638D01*
X18747056Y-558427D01*
X18662601Y-531393D01*
X18404043Y-489284D01*
X18276858Y-487619D01*
X18146777Y-485916D01*
X18146774Y-485916D01*
X18142100Y-485855D01*
X17882528Y-521181D01*
X17878042Y-522489D01*
X17878040Y-522489D01*
X17832938Y-535635D01*
X17631029Y-594486D01*
X17393127Y-704160D01*
X17358107Y-727120D01*
X17177962Y-845228D01*
X17177957Y-845232D01*
X17174049Y-847794D01*
X16978609Y-1022232D01*
X16811098Y-1223641D01*
X16675198Y-1447598D01*
X16673389Y-1451912D01*
X16673388Y-1451914D01*
X16575817Y-1684594D01*
X16573893Y-1689182D01*
X16572742Y-1693714D01*
X16572741Y-1693717D01*
X16517910Y-1909616D01*
X16509409Y-1943087D01*
X16483164Y-2203734D01*
X16483388Y-2208401D01*
X16483388Y-2208406D01*
X16486713Y-2277628D01*
X16495732Y-2465397D01*
X16521285Y-2593862D01*
X16539388Y-2684867D01*
X16546839Y-2722328D01*
X16548418Y-2726726D01*
X16548420Y-2726733D01*
X16624470Y-2938550D01*
X16635361Y-2968883D01*
X16759355Y-3199646D01*
X16762150Y-3203389D01*
X16762152Y-3203392D01*
X16909796Y-3401111D01*
X16934528Y-3467661D01*
X16919354Y-3537017D01*
X16869092Y-3587159D01*
X16808838Y-3602500D01*
X16631054Y-3602500D01*
X16562933Y-3582498D01*
X16541958Y-3565595D01*
X16180404Y-3204040D01*
X16146379Y-3141728D01*
X16143500Y-3114945D01*
X16143500Y1957195D01*
X16143770Y1965436D01*
X16146670Y2009680D01*
X16148006Y2030061D01*
X16137602Y2117959D01*
X16137259Y2121234D01*
X16133927Y2157499D01*
X16129169Y2209279D01*
X16127599Y2214845D01*
X16126914Y2218541D01*
X16124756Y2229390D01*
X16123983Y2233026D01*
X16123304Y2238765D01*
X16105450Y2296266D01*
X16483164Y2296266D01*
X16483388Y2291599D01*
X16483388Y2291594D01*
X16488613Y2182812D01*
X16495732Y2034603D01*
X16520221Y1911487D01*
X16544488Y1789492D01*
X16546839Y1777672D01*
X16548418Y1773274D01*
X16548420Y1773267D01*
X16611550Y1597435D01*
X16635361Y1531117D01*
X16759355Y1300354D01*
X16762150Y1296611D01*
X16762152Y1296608D01*
X16913303Y1094192D01*
X16913308Y1094186D01*
X16916095Y1090454D01*
X16919404Y1087174D01*
X16919409Y1087168D01*
X17098821Y909315D01*
X17102138Y906027D01*
X17105900Y903269D01*
X17105903Y903266D01*
X17281178Y774749D01*
X17313398Y751124D01*
X17317529Y748950D01*
X17317530Y748950D01*
X17541099Y631325D01*
X17541105Y631323D01*
X17545234Y629150D01*
X17549642Y627611D01*
X17549648Y627608D01*
X17788136Y544324D01*
X17792552Y542782D01*
X18049920Y493919D01*
X18174175Y489037D01*
X18307015Y483818D01*
X18307020Y483818D01*
X18311683Y483635D01*
X18413540Y494790D01*
X18567438Y511644D01*
X18567444Y511645D01*
X18572091Y512154D01*
X18773144Y565087D01*
X18820900Y577660D01*
X18820902Y577661D01*
X18825423Y578851D01*
X19044235Y672860D01*
X19061820Y680415D01*
X19061822Y680416D01*
X19066114Y682260D01*
X19288876Y820109D01*
X19488816Y989371D01*
X19566652Y1078126D01*
X19658460Y1182812D01*
X19658464Y1182817D01*
X19661542Y1186327D01*
X19670906Y1200885D01*
X19800730Y1402719D01*
X19800733Y1402724D01*
X19803258Y1406650D01*
X19910852Y1645499D01*
X19981960Y1897629D01*
X19998808Y2030061D01*
X20014622Y2154369D01*
X20014622Y2154373D01*
X20015020Y2157499D01*
X20017442Y2250000D01*
X20007195Y2387887D01*
X19998374Y2506593D01*
X19998373Y2506597D01*
X19998028Y2511245D01*
X19940213Y2766750D01*
X19935843Y2777988D01*
X19846960Y3006550D01*
X19846959Y3006552D01*
X19845267Y3010903D01*
X19834344Y3030015D01*
X19717595Y3234284D01*
X19717593Y3234286D01*
X19715276Y3238341D01*
X19553095Y3444067D01*
X19362287Y3623560D01*
X19325590Y3649018D01*
X19150887Y3770215D01*
X19150884Y3770217D01*
X19147045Y3772880D01*
X19142855Y3774946D01*
X19142852Y3774948D01*
X18916283Y3886679D01*
X18916280Y3886680D01*
X18912095Y3888744D01*
X18865832Y3903553D01*
X18712882Y3952512D01*
X18662601Y3968607D01*
X18657994Y3969357D01*
X18657991Y3969358D01*
X18455001Y4002417D01*
X18404043Y4010716D01*
X18276858Y4012381D01*
X18146777Y4014084D01*
X18146774Y4014084D01*
X18142100Y4014145D01*
X17882528Y3978819D01*
X17878042Y3977511D01*
X17878040Y3977511D01*
X17847492Y3968607D01*
X17631029Y3905514D01*
X17393127Y3795840D01*
X17358107Y3772880D01*
X17177962Y3654772D01*
X17177957Y3654768D01*
X17174049Y3652206D01*
X16978609Y3477768D01*
X16811098Y3276359D01*
X16675198Y3052402D01*
X16673389Y3048088D01*
X16673388Y3048086D01*
X16579351Y2823833D01*
X16573893Y2810818D01*
X16572742Y2806286D01*
X16572741Y2806283D01*
X16512795Y2570244D01*
X16509409Y2556913D01*
X16508940Y2552257D01*
X16508940Y2552256D01*
X16506812Y2531117D01*
X16483164Y2296266D01*
X16105450Y2296266D01*
X16097069Y2323256D01*
X16096140Y2326392D01*
X16073693Y2405982D01*
X16072123Y2411549D01*
X16069565Y2416737D01*
X16068240Y2420188D01*
X16064099Y2430566D01*
X16062696Y2433953D01*
X16060982Y2439473D01*
X16019801Y2517746D01*
X16018305Y2520682D01*
X16002734Y2552256D01*
X15979171Y2600037D01*
X15975713Y2604668D01*
X15973750Y2607871D01*
X15967827Y2617258D01*
X15965818Y2620351D01*
X15963129Y2625463D01*
X15908344Y2694956D01*
X15906373Y2697526D01*
X15856884Y2763801D01*
X15856877Y2763808D01*
X15853427Y2768429D01*
X15848194Y2773267D01*
X15793027Y2824262D01*
X15789461Y2827692D01*
X12994748Y5622405D01*
X12960722Y5684717D01*
X12965787Y5755532D01*
X13008334Y5812368D01*
X13074854Y5837179D01*
X13083843Y5837500D01*
X14675666Y5837500D01*
X14678912Y5837837D01*
X14678916Y5837837D01*
X14775132Y5847820D01*
X14775136Y5847821D01*
X14781990Y5848532D01*
X14788526Y5850713D01*
X14788528Y5850713D01*
X14943706Y5902485D01*
X14950654Y5904803D01*
X15101850Y5998366D01*
X15130190Y6026755D01*
X15195488Y6092167D01*
X15257771Y6126246D01*
X15328591Y6121243D01*
X15350496Y6110582D01*
X15445004Y6052668D01*
X15507907Y6014121D01*
X15512477Y6012228D01*
X15512481Y6012226D01*
X15745098Y5915873D01*
X15749671Y5913979D01*
X15797547Y5902485D01*
X15999310Y5854045D01*
X15999316Y5854044D01*
X16004123Y5852890D01*
X16265000Y5832359D01*
X16525877Y5852890D01*
X16530684Y5854044D01*
X16530690Y5854045D01*
X16732453Y5902485D01*
X16780329Y5913979D01*
X16784902Y5915873D01*
X17017519Y6012226D01*
X17017523Y6012228D01*
X17022093Y6014121D01*
X17245215Y6150850D01*
X17444200Y6320800D01*
X17454880Y6333304D01*
X17474691Y6356500D01*
X17614150Y6519785D01*
X17750879Y6742907D01*
X17758942Y6762371D01*
X17849127Y6980098D01*
X17849128Y6980100D01*
X17851021Y6984671D01*
X17886176Y7131099D01*
X17910955Y7234310D01*
X17910956Y7234316D01*
X17912110Y7239123D01*
X17932641Y7500000D01*
X17912110Y7760877D01*
X17910956Y7765684D01*
X17910955Y7765690D01*
X17859415Y7980366D01*
X17851021Y8015329D01*
X17849129Y8019897D01*
X17849123Y8019915D01*
X17848819Y8020648D01*
X17843977Y8034658D01*
X17843255Y8037970D01*
X17759742Y8281001D01*
X17756752Y8289538D01*
X17756661Y8289793D01*
X17753689Y8297974D01*
X17675475Y8509534D01*
X17672555Y8517304D01*
X17603807Y8697250D01*
X17603404Y8698321D01*
X17593550Y8724862D01*
X17548531Y8846108D01*
X17547074Y8850252D01*
X17533680Y8890580D01*
X17507101Y8970611D01*
X17505002Y8977606D01*
X17504103Y8980953D01*
X17475862Y9086023D01*
X17473859Y9094681D01*
X17465725Y9136518D01*
X17451025Y9212127D01*
X17449655Y9220765D01*
X17431477Y9368345D01*
X17430786Y9375749D01*
X17418420Y9570146D01*
X17418186Y9575883D01*
X17414632Y9773801D01*
X17413582Y9832287D01*
X17413241Y9835931D01*
X17409050Y9880636D01*
X17408500Y9892395D01*
X17408500Y11604695D01*
X17408770Y11612936D01*
X17411420Y11653363D01*
X17413006Y11677561D01*
X17402602Y11765459D01*
X17402259Y11768734D01*
X17400963Y11782842D01*
X17394169Y11856779D01*
X17392599Y11862345D01*
X17391914Y11866041D01*
X17389756Y11876890D01*
X17388983Y11880526D01*
X17388304Y11886265D01*
X17362069Y11970756D01*
X17361140Y11973892D01*
X17338693Y12053482D01*
X17337123Y12059049D01*
X17334565Y12064237D01*
X17333240Y12067688D01*
X17329099Y12078066D01*
X17327696Y12081453D01*
X17325982Y12086973D01*
X17284801Y12165246D01*
X17283305Y12168182D01*
X17244171Y12247537D01*
X17240713Y12252168D01*
X17238750Y12255371D01*
X17232838Y12264741D01*
X17230819Y12267851D01*
X17228129Y12272963D01*
X17173339Y12342463D01*
X17171343Y12345066D01*
X17121884Y12411301D01*
X17121877Y12411308D01*
X17118427Y12415929D01*
X17058026Y12471763D01*
X17054461Y12475192D01*
X16686141Y12843512D01*
X16676891Y12853840D01*
X16655573Y12880457D01*
X16655572Y12880459D01*
X16653279Y12883321D01*
X16650671Y12885896D01*
X16650667Y12885901D01*
X16545597Y12989663D01*
X16545417Y12989841D01*
X16540581Y12994573D01*
X16439474Y13092649D01*
X16439440Y13092682D01*
X16358060Y13171613D01*
X16356689Y13172964D01*
X16284718Y13244935D01*
X16282255Y13247467D01*
X16242506Y13289510D01*
X16238539Y13293909D01*
X16217974Y13317818D01*
X16188717Y13382506D01*
X16187499Y13399982D01*
X16187499Y13546714D01*
X16187191Y13552815D01*
X16147944Y13747459D01*
X16071637Y13930773D01*
X16068210Y13935892D01*
X16068208Y13935896D01*
X15997574Y14041407D01*
X15976300Y14109141D01*
X15995023Y14177624D01*
X16047799Y14225114D01*
X16102278Y14237500D01*
X33680902Y14237500D01*
X33749023Y14217498D01*
X33795516Y14163842D01*
X33805620Y14093568D01*
X33776126Y14028988D01*
X33750904Y14006735D01*
X33558715Y13878319D01*
X33555621Y13875605D01*
X33555615Y13875601D01*
X33415984Y13753147D01*
X33325876Y13674124D01*
X33323167Y13671035D01*
X33124399Y13444385D01*
X33124395Y13444379D01*
X33121681Y13441285D01*
X33119392Y13437859D01*
X33119388Y13437854D01*
X33021703Y13291658D01*
X32949625Y13183785D01*
X32947801Y13180086D01*
X32947798Y13180081D01*
X32943622Y13171613D01*
X32812651Y12906029D01*
X32811326Y12902124D01*
X32811325Y12902123D01*
X32803971Y12880457D01*
X32713104Y12612772D01*
X32712301Y12608733D01*
X32712299Y12608727D01*
X32673029Y12411301D01*
X32652686Y12309030D01*
X32652417Y12304919D01*
X32652416Y12304915D01*
X32636301Y12059049D01*
X32632431Y12000000D01*
X32632701Y11995881D01*
X32651851Y11703717D01*
X32652686Y11690970D01*
X32653490Y11686930D01*
X32653490Y11686927D01*
X32701587Y11445130D01*
X32713104Y11387228D01*
X32714429Y11383324D01*
X32714430Y11383321D01*
X32772147Y11213291D01*
X32812651Y11093971D01*
X32814474Y11090275D01*
X32814477Y11090267D01*
X32925644Y10864844D01*
X32949625Y10816216D01*
X32951919Y10812783D01*
X32951920Y10812782D01*
X33121681Y10558715D01*
X33124395Y10555621D01*
X33124399Y10555615D01*
X33314275Y10339104D01*
X33325876Y10325876D01*
X33328965Y10323167D01*
X33555615Y10124399D01*
X33555621Y10124395D01*
X33558715Y10121681D01*
X33737882Y10001966D01*
X33798519Y9961450D01*
X33816216Y9949625D01*
X33819919Y9947799D01*
X34090267Y9814477D01*
X34090275Y9814474D01*
X34093971Y9812651D01*
X34097885Y9811322D01*
X34097886Y9811322D01*
X34383321Y9714430D01*
X34383324Y9714429D01*
X34387228Y9713104D01*
X34391267Y9712301D01*
X34391273Y9712299D01*
X34686927Y9653490D01*
X34686930Y9653490D01*
X34690970Y9652686D01*
X34695081Y9652417D01*
X34695085Y9652416D01*
X34920613Y9637634D01*
X34920622Y9637634D01*
X34922662Y9637500D01*
X35077338Y9637500D01*
X35079378Y9637634D01*
X35079387Y9637634D01*
X35304915Y9652416D01*
X35304919Y9652417D01*
X35309030Y9652686D01*
X35313070Y9653490D01*
X35313073Y9653490D01*
X35608727Y9712299D01*
X35608733Y9712301D01*
X35612772Y9713104D01*
X35616676Y9714429D01*
X35616679Y9714430D01*
X35902114Y9811322D01*
X35902115Y9811322D01*
X35906029Y9812651D01*
X35909725Y9814474D01*
X35909733Y9814477D01*
X36180081Y9947799D01*
X36183784Y9949625D01*
X36201482Y9961450D01*
X36262118Y10001966D01*
X36441285Y10121681D01*
X36444379Y10124395D01*
X36444385Y10124399D01*
X36671035Y10323167D01*
X36674124Y10325876D01*
X36685725Y10339104D01*
X36875601Y10555615D01*
X36875605Y10555621D01*
X36878319Y10558715D01*
X37050375Y10816215D01*
X37187349Y11093971D01*
X37227853Y11213291D01*
X37285570Y11383321D01*
X37285571Y11383324D01*
X37286896Y11387228D01*
X37298414Y11445130D01*
X37346510Y11686927D01*
X37346510Y11686930D01*
X37347314Y11690970D01*
X37348150Y11703717D01*
X37367299Y11995881D01*
X37367569Y12000000D01*
X37363699Y12059049D01*
X37347584Y12304915D01*
X37347583Y12304919D01*
X37347314Y12309030D01*
X37326971Y12411301D01*
X37287701Y12608727D01*
X37287699Y12608733D01*
X37286896Y12612772D01*
X37196030Y12880457D01*
X37188678Y12902114D01*
X37188678Y12902115D01*
X37187349Y12906029D01*
X37185525Y12909727D01*
X37185523Y12909733D01*
X37052201Y13180081D01*
X37050375Y13183784D01*
X37048081Y13187217D01*
X37048080Y13187219D01*
X36935506Y13355698D01*
X36878319Y13441285D01*
X36875605Y13444379D01*
X36875601Y13444385D01*
X36676833Y13671035D01*
X36674124Y13674124D01*
X36584016Y13753147D01*
X36444385Y13875601D01*
X36444379Y13875605D01*
X36441285Y13878319D01*
X36249096Y14006735D01*
X36203568Y14061212D01*
X36194720Y14131655D01*
X36225361Y14195699D01*
X36285763Y14233010D01*
X36319098Y14237500D01*
X39943762Y14237500D01*
X39959555Y14236506D01*
X39989286Y14232750D01*
X40010340Y14234814D01*
X40013401Y14235114D01*
X40033302Y14235485D01*
X40262093Y14221646D01*
X40277197Y14219812D01*
X40527971Y14173856D01*
X40542744Y14170215D01*
X40786159Y14094364D01*
X40800377Y14088972D01*
X41001410Y13998494D01*
X41032866Y13984337D01*
X41046338Y13977267D01*
X41061953Y13967827D01*
X41264525Y13845367D01*
X41277046Y13836724D01*
X41477738Y13679493D01*
X41489127Y13669403D01*
X41669403Y13489127D01*
X41679493Y13477738D01*
X41836724Y13277046D01*
X41845367Y13264525D01*
X41977266Y13046339D01*
X41984336Y13032868D01*
X42052931Y12880457D01*
X42088970Y12800381D01*
X42094364Y12786159D01*
X42149654Y12608727D01*
X42170215Y12542744D01*
X42173856Y12527971D01*
X42219812Y12277198D01*
X42221646Y12262094D01*
X42234814Y12044406D01*
X42234051Y12021013D01*
X42232750Y12010714D01*
X42235513Y11982536D01*
X42236899Y11968399D01*
X42237500Y11956104D01*
X42237500Y-11943762D01*
X42236506Y-11959554D01*
X42232750Y-11989286D01*
X42234189Y-12003962D01*
X42235114Y-12013401D01*
X42235485Y-12033302D01*
X42221646Y-12262093D01*
X42219812Y-12277197D01*
X42173856Y-12527971D01*
X42170215Y-12542744D01*
X42148394Y-12612772D01*
X42094366Y-12786154D01*
X42088972Y-12800377D01*
X41984337Y-13032866D01*
X41977266Y-13046339D01*
X41845367Y-13264525D01*
X41836724Y-13277046D01*
X41679493Y-13477738D01*
X41669403Y-13489127D01*
X41489127Y-13669403D01*
X41477738Y-13679493D01*
X41277046Y-13836724D01*
X41264525Y-13845367D01*
X41046339Y-13977266D01*
X41032868Y-13984336D01*
X40800377Y-14088972D01*
X40786159Y-14094364D01*
X40666488Y-14131655D01*
X40542744Y-14170215D01*
X40527971Y-14173856D01*
X40277198Y-14219812D01*
X40262094Y-14221646D01*
X40044406Y-14234814D01*
X40021013Y-14234051D01*
X40010714Y-14232750D01*
X39968399Y-14236899D01*
X39956104Y-14237500D01*
X36319098Y-14237500D01*
X36250977Y-14217498D01*
X36204484Y-14163842D01*
X36194380Y-14093568D01*
X36223874Y-14028988D01*
X36249096Y-14006735D01*
X36287300Y-13981208D01*
X36441285Y-13878319D01*
X36444379Y-13875605D01*
X36444385Y-13875601D01*
X36671035Y-13676833D01*
X36674124Y-13674124D01*
X36836363Y-13489127D01*
X36875601Y-13444385D01*
X36875605Y-13444379D01*
X36878319Y-13441285D01*
X37050375Y-13183785D01*
X37187349Y-12906029D01*
X37286896Y-12612772D01*
X37300826Y-12542744D01*
X37346510Y-12313073D01*
X37346510Y-12313070D01*
X37347314Y-12309030D01*
X37349401Y-12277198D01*
X37367299Y-12004119D01*
X37367569Y-12000000D01*
X37347314Y-11690970D01*
X37286896Y-11387228D01*
X37187349Y-11093971D01*
X37185525Y-11090273D01*
X37185523Y-11090267D01*
X37052201Y-10819919D01*
X37050375Y-10816216D01*
X37048081Y-10812783D01*
X37048080Y-10812781D01*
X37003681Y-10746333D01*
X36878319Y-10558715D01*
X36875605Y-10555621D01*
X36875601Y-10555615D01*
X36676833Y-10328965D01*
X36674124Y-10325876D01*
X36671035Y-10323167D01*
X36444385Y-10124399D01*
X36444379Y-10124395D01*
X36441285Y-10121681D01*
X36183784Y-9949625D01*
X36135156Y-9925644D01*
X35909733Y-9814477D01*
X35909725Y-9814474D01*
X35906029Y-9812651D01*
X35902114Y-9811322D01*
X35616679Y-9714430D01*
X35616676Y-9714429D01*
X35612772Y-9713104D01*
X35608733Y-9712301D01*
X35608727Y-9712299D01*
X35313073Y-9653490D01*
X35313070Y-9653490D01*
X35309030Y-9652686D01*
X35304919Y-9652417D01*
X35304915Y-9652416D01*
X35079387Y-9637634D01*
X35079378Y-9637634D01*
X35077338Y-9637500D01*
X34922662Y-9637500D01*
X34920622Y-9637634D01*
X34920613Y-9637634D01*
X34695085Y-9652416D01*
X34695081Y-9652417D01*
X34690970Y-9652686D01*
X34686930Y-9653490D01*
X34686927Y-9653490D01*
X34391273Y-9712299D01*
X34391267Y-9712301D01*
X34387228Y-9713104D01*
X34383324Y-9714429D01*
X34383321Y-9714430D01*
X34097886Y-9811322D01*
X34093971Y-9812651D01*
X34090275Y-9814474D01*
X34090267Y-9814477D01*
X33864844Y-9925644D01*
X33816216Y-9949625D01*
X33558715Y-10121681D01*
X33555621Y-10124395D01*
X33555615Y-10124399D01*
X33328965Y-10323167D01*
X33325876Y-10325876D01*
X33323167Y-10328965D01*
X33124399Y-10555615D01*
X33124395Y-10555621D01*
X33121681Y-10558715D01*
X32949625Y-10816215D01*
X32812651Y-11093971D01*
X32713104Y-11387228D01*
X32652686Y-11690970D01*
X32632431Y-12000000D01*
X32632701Y-12004119D01*
X32650600Y-12277198D01*
X32652686Y-12309030D01*
X32653490Y-12313070D01*
X32653490Y-12313073D01*
X32699175Y-12542744D01*
X32713104Y-12612772D01*
X32812651Y-12906029D01*
X32814474Y-12909725D01*
X32814477Y-12909733D01*
X32881844Y-13046339D01*
X32949625Y-13183784D01*
X32951919Y-13187217D01*
X32951920Y-13187218D01*
X33121681Y-13441285D01*
X33124395Y-13444379D01*
X33124399Y-13444385D01*
X33163637Y-13489127D01*
X33325876Y-13674124D01*
X33328965Y-13676833D01*
X33555615Y-13875601D01*
X33555621Y-13875605D01*
X33558715Y-13878319D01*
X33712700Y-13981208D01*
X33750904Y-14006735D01*
X33796432Y-14061212D01*
X33805280Y-14131655D01*
X33774639Y-14195699D01*
X33714237Y-14233010D01*
X33680902Y-14237500D01*
X-33680902Y-14237500D01*
X-33749023Y-14217498D01*
X-33795516Y-14163842D01*
X-33805620Y-14093568D01*
X-33776126Y-14028988D01*
X-33750904Y-14006735D01*
X-33712700Y-13981208D01*
X-33558715Y-13878319D01*
X-33555621Y-13875605D01*
X-33555615Y-13875601D01*
X-33328965Y-13676833D01*
X-33325876Y-13674124D01*
X-33163637Y-13489127D01*
X-33124399Y-13444385D01*
X-33124395Y-13444379D01*
X-33121681Y-13441285D01*
X-32949625Y-13183785D01*
X-32812651Y-12906029D01*
X-32713104Y-12612772D01*
X-32699174Y-12542744D01*
X-32653490Y-12313073D01*
X-32653490Y-12313070D01*
X-32652686Y-12309030D01*
X-32650599Y-12277198D01*
X-32632701Y-12004119D01*
X-32632431Y-12000000D01*
X-32652686Y-11690970D01*
X-32713104Y-11387228D01*
X-32812651Y-11093971D01*
X-32814475Y-11090273D01*
X-32814477Y-11090267D01*
X-32947799Y-10819919D01*
X-32949625Y-10816216D01*
X-32951919Y-10812783D01*
X-32951920Y-10812781D01*
X-32996319Y-10746333D01*
X-33121681Y-10558715D01*
X-33124395Y-10555621D01*
X-33124399Y-10555615D01*
X-33323167Y-10328965D01*
X-33325876Y-10325876D01*
X-33328965Y-10323167D01*
X-33555615Y-10124399D01*
X-33555621Y-10124395D01*
X-33558715Y-10121681D01*
X-33816216Y-9949625D01*
X-33864844Y-9925644D01*
X-34090267Y-9814477D01*
X-34090275Y-9814474D01*
X-34093971Y-9812651D01*
X-34097886Y-9811322D01*
X-34383321Y-9714430D01*
X-34383324Y-9714429D01*
X-34387228Y-9713104D01*
X-34391267Y-9712301D01*
X-34391273Y-9712299D01*
X-34686927Y-9653490D01*
X-34686930Y-9653490D01*
X-34690970Y-9652686D01*
X-34695081Y-9652417D01*
X-34695085Y-9652416D01*
X-34920613Y-9637634D01*
X-34920622Y-9637634D01*
X-34922662Y-9637500D01*
X-35077338Y-9637500D01*
X-35079378Y-9637634D01*
X-35079387Y-9637634D01*
X-35304915Y-9652416D01*
X-35304919Y-9652417D01*
X-35309030Y-9652686D01*
X-35313070Y-9653490D01*
X-35313073Y-9653490D01*
X-35608727Y-9712299D01*
X-35608733Y-9712301D01*
X-35612772Y-9713104D01*
X-35616676Y-9714429D01*
X-35616679Y-9714430D01*
X-35902114Y-9811322D01*
X-35906029Y-9812651D01*
X-35909725Y-9814474D01*
X-35909733Y-9814477D01*
X-36135156Y-9925644D01*
X-36183784Y-9949625D01*
X-36441285Y-10121681D01*
X-36444379Y-10124395D01*
X-36444385Y-10124399D01*
X-36671035Y-10323167D01*
X-36674124Y-10325876D01*
X-36676833Y-10328965D01*
X-36875601Y-10555615D01*
X-36875605Y-10555621D01*
X-36878319Y-10558715D01*
X-37050375Y-10816215D01*
X-37187349Y-11093971D01*
X-37286896Y-11387228D01*
X-37347314Y-11690970D01*
X-37367569Y-12000000D01*
X-37367299Y-12004119D01*
X-37349400Y-12277198D01*
X-37347314Y-12309030D01*
X-37346510Y-12313070D01*
X-37346510Y-12313073D01*
X-37300825Y-12542744D01*
X-37286896Y-12612772D01*
X-37187349Y-12906029D01*
X-37185526Y-12909725D01*
X-37185523Y-12909733D01*
X-37118156Y-13046339D01*
X-37050375Y-13183784D01*
X-37048081Y-13187217D01*
X-37048080Y-13187218D01*
X-36878319Y-13441285D01*
X-36875605Y-13444379D01*
X-36875601Y-13444385D01*
X-36836363Y-13489127D01*
X-36674124Y-13674124D01*
X-36671035Y-13676833D01*
X-36444385Y-13875601D01*
X-36444379Y-13875605D01*
X-36441285Y-13878319D01*
X-36287300Y-13981208D01*
X-36249096Y-14006735D01*
X-36203568Y-14061212D01*
X-36194720Y-14131655D01*
X-36225361Y-14195699D01*
X-36285763Y-14233010D01*
X-36319098Y-14237500D01*
X-39943762Y-14237500D01*
X-39959554Y-14236506D01*
X-39962863Y-14236088D01*
X-39989286Y-14232750D01*
X-40009346Y-14234717D01*
X-40013401Y-14235114D01*
X-40033302Y-14235485D01*
X-40262093Y-14221646D01*
X-40277197Y-14219812D01*
X-40527971Y-14173856D01*
X-40542744Y-14170215D01*
X-40666488Y-14131655D01*
X-40786159Y-14094364D01*
X-40800377Y-14088972D01*
X-41032868Y-13984336D01*
X-41046339Y-13977266D01*
X-41264525Y-13845367D01*
X-41277046Y-13836724D01*
X-41477738Y-13679493D01*
X-41489127Y-13669403D01*
X-41669403Y-13489127D01*
X-41679493Y-13477738D01*
X-41836724Y-13277046D01*
X-41845367Y-13264525D01*
X-41977266Y-13046339D01*
X-41984337Y-13032866D01*
X-42088972Y-12800377D01*
X-42094366Y-12786154D01*
X-42148393Y-12612772D01*
X-42170215Y-12542744D01*
X-42173856Y-12527971D01*
X-42219812Y-12277198D01*
X-42221646Y-12262093D01*
X-42234468Y-12050114D01*
X-42233645Y-12029307D01*
X-42233829Y-12029293D01*
X-42233526Y-12025351D01*
X-42232974Y-12021425D01*
X-42232675Y-12000000D01*
X-42236715Y-11963983D01*
X-42237500Y-11949938D01*
X-42237500Y-8470666D01*
X-40832500Y-8470666D01*
X-40832163Y-8473912D01*
X-40832163Y-8473916D01*
X-40823953Y-8553039D01*
X-40821468Y-8576990D01*
X-40819287Y-8583526D01*
X-40819287Y-8583528D01*
X-40781131Y-8697894D01*
X-40765197Y-8745654D01*
X-40671634Y-8896850D01*
X-40545799Y-9022466D01*
X-40539569Y-9026306D01*
X-40539568Y-9026307D01*
X-40521028Y-9037735D01*
X-40394440Y-9115764D01*
X-40387492Y-9118069D01*
X-40387491Y-9118069D01*
X-40232209Y-9169575D01*
X-40232207Y-9169576D01*
X-40225678Y-9171741D01*
X-40120666Y-9182500D01*
X-38419334Y-9182500D01*
X-38416088Y-9182163D01*
X-38416084Y-9182163D01*
X-38319868Y-9172180D01*
X-38319864Y-9172179D01*
X-38313010Y-9171468D01*
X-38306474Y-9169287D01*
X-38306472Y-9169287D01*
X-38174723Y-9125332D01*
X-38144346Y-9115197D01*
X-37993150Y-9021634D01*
X-37974500Y-9002952D01*
X-37872704Y-8900978D01*
X-37867534Y-8895799D01*
X-37863693Y-8889568D01*
X-37859157Y-8883824D01*
X-37856752Y-8885723D01*
X-37814289Y-8847466D01*
X-37744224Y-8836004D01*
X-37677908Y-8865234D01*
X-37655014Y-8884788D01*
X-37655010Y-8884791D01*
X-37651255Y-8887998D01*
X-37441554Y-9016503D01*
X-37436984Y-9018396D01*
X-37436980Y-9018398D01*
X-37218901Y-9108729D01*
X-37218895Y-9108731D01*
X-37214332Y-9110621D01*
X-37209532Y-9111773D01*
X-37209527Y-9111775D01*
X-37100134Y-9138038D01*
X-36975185Y-9168036D01*
X-36730000Y-9187332D01*
X-36484815Y-9168036D01*
X-36359866Y-9138038D01*
X-36250473Y-9111775D01*
X-36250468Y-9111773D01*
X-36245668Y-9110621D01*
X-36241105Y-9108731D01*
X-36241099Y-9108729D01*
X-36023020Y-9018398D01*
X-36023016Y-9018396D01*
X-36018446Y-9016503D01*
X-35808745Y-8887998D01*
X-35621729Y-8728271D01*
X-35602761Y-8706062D01*
X-34911507Y-8706062D01*
X-34902211Y-8718077D01*
X-34851006Y-8753931D01*
X-34841511Y-8759414D01*
X-34644053Y-8851490D01*
X-34633761Y-8855236D01*
X-34423312Y-8911625D01*
X-34412519Y-8913528D01*
X-34195475Y-8932517D01*
X-34184525Y-8932517D01*
X-33967481Y-8913528D01*
X-33956688Y-8911625D01*
X-33746239Y-8855236D01*
X-33735947Y-8851490D01*
X-33538489Y-8759414D01*
X-33528994Y-8753931D01*
X-33476952Y-8717491D01*
X-33468576Y-8707012D01*
X-33469075Y-8706062D01*
X-32371507Y-8706062D01*
X-32362211Y-8718077D01*
X-32311006Y-8753931D01*
X-32301511Y-8759414D01*
X-32104053Y-8851490D01*
X-32093761Y-8855236D01*
X-31883312Y-8911625D01*
X-31872519Y-8913528D01*
X-31655475Y-8932517D01*
X-31644525Y-8932517D01*
X-31427481Y-8913528D01*
X-31416688Y-8911625D01*
X-31206239Y-8855236D01*
X-31195947Y-8851490D01*
X-30998489Y-8759414D01*
X-30988994Y-8753931D01*
X-30936952Y-8717491D01*
X-30928576Y-8707012D01*
X-30935644Y-8693566D01*
X-31637188Y-7992022D01*
X-31651132Y-7984408D01*
X-31652965Y-7984539D01*
X-31659580Y-7988790D01*
X-32365077Y-8694287D01*
X-32371507Y-8706062D01*
X-33469075Y-8706062D01*
X-33475644Y-8693566D01*
X-34177188Y-7992022D01*
X-34191132Y-7984408D01*
X-34192965Y-7984539D01*
X-34199580Y-7988790D01*
X-34905077Y-8694287D01*
X-34911507Y-8706062D01*
X-35602761Y-8706062D01*
X-35462002Y-8541255D01*
X-35378055Y-8404266D01*
X-35325407Y-8356635D01*
X-35296235Y-8351527D01*
X-35263565Y-8334355D01*
X-34562022Y-7632812D01*
X-34555644Y-7621132D01*
X-33825592Y-7621132D01*
X-33825461Y-7622965D01*
X-33821210Y-7629580D01*
X-33115713Y-8335077D01*
X-33103938Y-8341507D01*
X-33091923Y-8332211D01*
X-33056069Y-8281006D01*
X-33050586Y-8271511D01*
X-33034195Y-8236359D01*
X-32987278Y-8183074D01*
X-32919001Y-8163613D01*
X-32851041Y-8184155D01*
X-32805805Y-8236359D01*
X-32789414Y-8271511D01*
X-32783931Y-8281006D01*
X-32747491Y-8333048D01*
X-32737012Y-8341424D01*
X-32723566Y-8334356D01*
X-32022022Y-7632812D01*
X-32015644Y-7621132D01*
X-31285592Y-7621132D01*
X-31285461Y-7622965D01*
X-31281210Y-7629580D01*
X-30575713Y-8335077D01*
X-30546885Y-8350819D01*
X-30509314Y-8358991D01*
X-30462265Y-8403744D01*
X-30377998Y-8541255D01*
X-30218271Y-8728271D01*
X-30031255Y-8887998D01*
X-29821554Y-9016503D01*
X-29816984Y-9018396D01*
X-29816980Y-9018398D01*
X-29598901Y-9108729D01*
X-29598895Y-9108731D01*
X-29594332Y-9110621D01*
X-29589532Y-9111773D01*
X-29589527Y-9111775D01*
X-29480134Y-9138038D01*
X-29355185Y-9168036D01*
X-29110000Y-9187332D01*
X-28864815Y-9168036D01*
X-28739866Y-9138038D01*
X-28630473Y-9111775D01*
X-28630468Y-9111773D01*
X-28625668Y-9110621D01*
X-28621105Y-9108731D01*
X-28621099Y-9108729D01*
X-28403020Y-9018398D01*
X-28403016Y-9018396D01*
X-28398446Y-9016503D01*
X-28188745Y-8887998D01*
X-28001729Y-8728271D01*
X-27998521Y-8724515D01*
X-27998516Y-8724510D01*
X-27935811Y-8651092D01*
X-27876361Y-8612282D01*
X-27805366Y-8611776D01*
X-27744189Y-8651092D01*
X-27681484Y-8724510D01*
X-27681479Y-8724515D01*
X-27678271Y-8728271D01*
X-27491255Y-8887998D01*
X-27281554Y-9016503D01*
X-27276984Y-9018396D01*
X-27276980Y-9018398D01*
X-27058901Y-9108729D01*
X-27058895Y-9108731D01*
X-27054332Y-9110621D01*
X-27049532Y-9111773D01*
X-27049527Y-9111775D01*
X-26940134Y-9138038D01*
X-26815185Y-9168036D01*
X-26570000Y-9187332D01*
X-26324815Y-9168036D01*
X-26199866Y-9138038D01*
X-26090473Y-9111775D01*
X-26090468Y-9111773D01*
X-26085668Y-9110621D01*
X-26081105Y-9108731D01*
X-26081099Y-9108729D01*
X-25863020Y-9018398D01*
X-25863016Y-9018396D01*
X-25858446Y-9016503D01*
X-25648745Y-8887998D01*
X-25461729Y-8728271D01*
X-25458521Y-8724515D01*
X-25458516Y-8724510D01*
X-25395811Y-8651092D01*
X-25336361Y-8612282D01*
X-25265366Y-8611776D01*
X-25204189Y-8651092D01*
X-25141484Y-8724510D01*
X-25141479Y-8724515D01*
X-25138271Y-8728271D01*
X-24951255Y-8887998D01*
X-24741554Y-9016503D01*
X-24736984Y-9018396D01*
X-24736980Y-9018398D01*
X-24518901Y-9108729D01*
X-24518895Y-9108731D01*
X-24514332Y-9110621D01*
X-24509532Y-9111773D01*
X-24509527Y-9111775D01*
X-24400134Y-9138038D01*
X-24275185Y-9168036D01*
X-24030000Y-9187332D01*
X-23784815Y-9168036D01*
X-23659866Y-9138038D01*
X-23550473Y-9111775D01*
X-23550468Y-9111773D01*
X-23545668Y-9110621D01*
X-23541105Y-9108731D01*
X-23541099Y-9108729D01*
X-23323020Y-9018398D01*
X-23323016Y-9018396D01*
X-23318446Y-9016503D01*
X-23108745Y-8887998D01*
X-22921729Y-8728271D01*
X-22918521Y-8724515D01*
X-22918516Y-8724510D01*
X-22855811Y-8651092D01*
X-22796361Y-8612282D01*
X-22725366Y-8611776D01*
X-22664189Y-8651092D01*
X-22601484Y-8724510D01*
X-22601479Y-8724515D01*
X-22598271Y-8728271D01*
X-22411255Y-8887998D01*
X-22201554Y-9016503D01*
X-22196984Y-9018396D01*
X-22196980Y-9018398D01*
X-21978901Y-9108729D01*
X-21978895Y-9108731D01*
X-21974332Y-9110621D01*
X-21969532Y-9111773D01*
X-21969527Y-9111775D01*
X-21860134Y-9138038D01*
X-21735185Y-9168036D01*
X-21490000Y-9187332D01*
X-21244815Y-9168036D01*
X-21119866Y-9138038D01*
X-21010473Y-9111775D01*
X-21010468Y-9111773D01*
X-21005668Y-9110621D01*
X-21001105Y-9108731D01*
X-21001099Y-9108729D01*
X-20783020Y-9018398D01*
X-20783016Y-9018396D01*
X-20778446Y-9016503D01*
X-20568745Y-8887998D01*
X-20381729Y-8728271D01*
X-20378521Y-8724515D01*
X-20378516Y-8724510D01*
X-20315811Y-8651092D01*
X-20256361Y-8612282D01*
X-20185366Y-8611776D01*
X-20124189Y-8651092D01*
X-20061484Y-8724510D01*
X-20061479Y-8724515D01*
X-20058271Y-8728271D01*
X-19871255Y-8887998D01*
X-19661554Y-9016503D01*
X-19656984Y-9018396D01*
X-19656980Y-9018398D01*
X-19438901Y-9108729D01*
X-19438895Y-9108731D01*
X-19434332Y-9110621D01*
X-19429532Y-9111773D01*
X-19429527Y-9111775D01*
X-19320134Y-9138038D01*
X-19195185Y-9168036D01*
X-18950000Y-9187332D01*
X-18704815Y-9168036D01*
X-18579866Y-9138038D01*
X-18470473Y-9111775D01*
X-18470468Y-9111773D01*
X-18465668Y-9110621D01*
X-18461105Y-9108731D01*
X-18461099Y-9108729D01*
X-18243020Y-9018398D01*
X-18243016Y-9018396D01*
X-18238446Y-9016503D01*
X-18028745Y-8887998D01*
X-17841729Y-8728271D01*
X-17838521Y-8724515D01*
X-17838516Y-8724510D01*
X-17775811Y-8651092D01*
X-17716361Y-8612282D01*
X-17645366Y-8611776D01*
X-17584189Y-8651092D01*
X-17521484Y-8724510D01*
X-17521479Y-8724515D01*
X-17518271Y-8728271D01*
X-17331255Y-8887998D01*
X-17121554Y-9016503D01*
X-17116984Y-9018396D01*
X-17116980Y-9018398D01*
X-16898901Y-9108729D01*
X-16898895Y-9108731D01*
X-16894332Y-9110621D01*
X-16889532Y-9111773D01*
X-16889527Y-9111775D01*
X-16780134Y-9138038D01*
X-16655185Y-9168036D01*
X-16410000Y-9187332D01*
X-16164815Y-9168036D01*
X-16039866Y-9138038D01*
X-15930473Y-9111775D01*
X-15930468Y-9111773D01*
X-15925668Y-9110621D01*
X-15921105Y-9108731D01*
X-15921099Y-9108729D01*
X-15703020Y-9018398D01*
X-15703016Y-9018396D01*
X-15698446Y-9016503D01*
X-15488745Y-8887998D01*
X-15301729Y-8728271D01*
X-15298521Y-8724515D01*
X-15298516Y-8724510D01*
X-15235811Y-8651092D01*
X-15176361Y-8612282D01*
X-15105366Y-8611776D01*
X-15044189Y-8651092D01*
X-14981484Y-8724510D01*
X-14981479Y-8724515D01*
X-14978271Y-8728271D01*
X-14791255Y-8887998D01*
X-14581554Y-9016503D01*
X-14576984Y-9018396D01*
X-14576980Y-9018398D01*
X-14358901Y-9108729D01*
X-14358895Y-9108731D01*
X-14354332Y-9110621D01*
X-14349532Y-9111773D01*
X-14349527Y-9111775D01*
X-14240134Y-9138038D01*
X-14115185Y-9168036D01*
X-13870000Y-9187332D01*
X-13624815Y-9168036D01*
X-13499866Y-9138038D01*
X-13390473Y-9111775D01*
X-13390468Y-9111773D01*
X-13385668Y-9110621D01*
X-13381105Y-9108731D01*
X-13381099Y-9108729D01*
X-13163020Y-9018398D01*
X-13163016Y-9018396D01*
X-13158446Y-9016503D01*
X-12948745Y-8887998D01*
X-12761729Y-8728271D01*
X-12758521Y-8724515D01*
X-12758516Y-8724510D01*
X-12695811Y-8651092D01*
X-12636361Y-8612282D01*
X-12565366Y-8611776D01*
X-12504189Y-8651092D01*
X-12441484Y-8724510D01*
X-12441479Y-8724515D01*
X-12438271Y-8728271D01*
X-12251255Y-8887998D01*
X-12041554Y-9016503D01*
X-12036984Y-9018396D01*
X-12036980Y-9018398D01*
X-11818901Y-9108729D01*
X-11818895Y-9108731D01*
X-11814332Y-9110621D01*
X-11809532Y-9111773D01*
X-11809527Y-9111775D01*
X-11700134Y-9138038D01*
X-11575185Y-9168036D01*
X-11330000Y-9187332D01*
X-11084815Y-9168036D01*
X-10866089Y-9115523D01*
X-10858749Y-9113992D01*
X-10855350Y-9113387D01*
X-10855343Y-9113385D01*
X-10851719Y-9112741D01*
X-10847067Y-9111341D01*
X-10698374Y-9066593D01*
X-10691204Y-9064664D01*
X-10629636Y-9050028D01*
X-10577916Y-9037734D01*
X-10569699Y-9036068D01*
X-10472361Y-9019705D01*
X-10463973Y-9018584D01*
X-10459325Y-9018121D01*
X-10446836Y-9017500D01*
X-9635692Y-9017500D01*
X-9632629Y-9017537D01*
X-9533720Y-9019942D01*
X-9533707Y-9019942D01*
X-9533512Y-9019947D01*
X-9533260Y-9019951D01*
X-9533221Y-9019952D01*
X-9522049Y-9020139D01*
X-9522012Y-9020139D01*
X-9521860Y-9020142D01*
X-9278811Y-9022360D01*
X-9276252Y-9022172D01*
X-9276240Y-9022172D01*
X-9217116Y-9017837D01*
X-9207903Y-9017500D01*
X-8674299Y-9017500D01*
X-8665400Y-9017815D01*
X-8605745Y-9022039D01*
X-8605742Y-9022039D01*
X-8600417Y-9022416D01*
X-8492906Y-9011780D01*
X-8491268Y-9011630D01*
X-8383685Y-9002501D01*
X-8378514Y-9001159D01*
X-8374002Y-9000388D01*
X-8369717Y-8999594D01*
X-8364405Y-8999068D01*
X-8260293Y-8970489D01*
X-8258606Y-8970038D01*
X-8159296Y-8944262D01*
X-8159295Y-8944262D01*
X-8154126Y-8942920D01*
X-8149260Y-8940728D01*
X-8145080Y-8939256D01*
X-8140846Y-8937698D01*
X-8135701Y-8936286D01*
X-8130869Y-8934028D01*
X-8130859Y-8934024D01*
X-8037893Y-8890575D01*
X-8036296Y-8889842D01*
X-7942754Y-8847704D01*
X-7942750Y-8847702D01*
X-7937889Y-8845512D01*
X-7933462Y-8842532D01*
X-7929526Y-8840341D01*
X-7925682Y-8838130D01*
X-7920844Y-8835869D01*
X-7832131Y-8774326D01*
X-7830696Y-8773345D01*
X-7745587Y-8716047D01*
X-7745585Y-8716046D01*
X-7741155Y-8713063D01*
X-7737292Y-8709378D01*
X-7733132Y-8706033D01*
X-7733034Y-8706154D01*
X-7732549Y-8705748D01*
X-7732638Y-8705637D01*
X-7729387Y-8703049D01*
X-7725979Y-8700685D01*
X-7722916Y-8697898D01*
X-7722911Y-8697894D01*
X-7708683Y-8684948D01*
X-7708670Y-8684936D01*
X-7707578Y-8683942D01*
X-7645467Y-8621831D01*
X-7643344Y-8619756D01*
X-7634979Y-8611776D01*
X-7569550Y-8549360D01*
X-7566369Y-8545085D01*
X-7566364Y-8545079D01*
X-7565023Y-8543276D01*
X-7553028Y-8529392D01*
X-6997986Y-7974350D01*
X-5265308Y-7974350D01*
X-5265177Y-7976183D01*
X-5260926Y-7982798D01*
X-5240026Y-8003698D01*
X-5235203Y-8008047D01*
X-5160573Y-8068646D01*
X-5149062Y-8076068D01*
X-5003661Y-8148722D01*
X-4989987Y-8153672D01*
X-4832188Y-8190827D01*
X-4817743Y-8192499D01*
X-4655627Y-8192358D01*
X-4641191Y-8190662D01*
X-4483454Y-8153229D01*
X-4469789Y-8148256D01*
X-4324503Y-8075344D01*
X-4313020Y-8067915D01*
X-4239470Y-8008035D01*
X-4234696Y-8003725D01*
X-4057899Y-7826927D01*
X-4050288Y-7812989D01*
X-4050420Y-7811153D01*
X-4054669Y-7804541D01*
X-4565437Y-7293773D01*
X-4579381Y-7286159D01*
X-4581214Y-7286290D01*
X-4587829Y-7290541D01*
X-5257694Y-7960406D01*
X-5265308Y-7974350D01*
X-6997986Y-7974350D01*
X-6163985Y-7140349D01*
X-6101673Y-7106323D01*
X-6074890Y-7103444D01*
X-5981569Y-7103444D01*
X-5976552Y-7102451D01*
X-5907161Y-7115641D01*
X-5855653Y-7164503D01*
X-5842016Y-7198687D01*
X-5809727Y-7334744D01*
X-5804754Y-7348409D01*
X-5731842Y-7493695D01*
X-5724413Y-7505178D01*
X-5664524Y-7578739D01*
X-5660233Y-7583492D01*
X-5642526Y-7601198D01*
X-5628585Y-7608810D01*
X-5626750Y-7608679D01*
X-5620136Y-7604428D01*
X-4938591Y-6922883D01*
X-4213841Y-6922883D01*
X-4213710Y-6924716D01*
X-4209459Y-6931331D01*
X-3698693Y-7442097D01*
X-3684749Y-7449711D01*
X-3682916Y-7449580D01*
X-3676301Y-7445329D01*
X-3496302Y-7265330D01*
X-3491953Y-7260507D01*
X-3431354Y-7185877D01*
X-3423932Y-7174366D01*
X-3351278Y-7028965D01*
X-3346328Y-7015291D01*
X-3309173Y-6857492D01*
X-3307501Y-6843047D01*
X-3307642Y-6680931D01*
X-3309338Y-6666495D01*
X-3346771Y-6508758D01*
X-3351744Y-6495093D01*
X-3424656Y-6349807D01*
X-3432085Y-6338324D01*
X-3491974Y-6264763D01*
X-3496265Y-6260010D01*
X-3513972Y-6242304D01*
X-3527913Y-6234692D01*
X-3529748Y-6234823D01*
X-3536362Y-6239074D01*
X-4206227Y-6908939D01*
X-4213841Y-6922883D01*
X-4938591Y-6922883D01*
X-3898804Y-5883096D01*
X-3891190Y-5869152D01*
X-3891321Y-5867319D01*
X-3895572Y-5860704D01*
X-3916472Y-5839804D01*
X-3921295Y-5835455D01*
X-3995925Y-5774856D01*
X-4007436Y-5767434D01*
X-4152837Y-5694780D01*
X-4166509Y-5689831D01*
X-4301108Y-5658138D01*
X-4362831Y-5623055D01*
X-4395788Y-5560172D01*
X-4397602Y-5523714D01*
X-4396556Y-5518431D01*
X-4396556Y-5425110D01*
X-4376554Y-5356989D01*
X-4359651Y-5336014D01*
X-4120961Y-5097325D01*
X-4109883Y-5087480D01*
X-4082191Y-5065648D01*
X-4079593Y-5063058D01*
X-4079588Y-5063053D01*
X-3868117Y-4852185D01*
X-3867396Y-4851472D01*
X-3682901Y-4670442D01*
X-3681243Y-4668845D01*
X-3527918Y-4523801D01*
X-3525019Y-4521143D01*
X-3403118Y-4412832D01*
X-3395956Y-4406468D01*
X-3391714Y-4402866D01*
X-3277623Y-4310222D01*
X-3272307Y-4306134D01*
X-3160885Y-4225109D01*
X-3155295Y-4221270D01*
X-3031835Y-4141277D01*
X-3026908Y-4138243D01*
X-2897664Y-4062693D01*
X-2877329Y-4050806D01*
X-2873657Y-4048741D01*
X-2871338Y-4047488D01*
X-2793111Y-4005210D01*
X-2687026Y-3947876D01*
X-2684691Y-3946646D01*
X-2580537Y-3893143D01*
X-2561508Y-3885260D01*
X-2479053Y-3858769D01*
X-2450093Y-3849465D01*
X-2447572Y-3848684D01*
X-2434584Y-3844809D01*
X-2244163Y-3788004D01*
X-2240172Y-3786886D01*
X-2072554Y-3742938D01*
X-2066955Y-3741607D01*
X-1923043Y-3710861D01*
X-1916406Y-3709628D01*
X-1829009Y-3695824D01*
X-1780312Y-3688133D01*
X-1773657Y-3687263D01*
X-1627516Y-3672102D01*
X-1621940Y-3671648D01*
X-1449569Y-3661472D01*
X-1445638Y-3661301D01*
X-1234702Y-3655447D01*
X-1232403Y-3655405D01*
X-1107478Y-3654220D01*
X-974014Y-3652953D01*
X-973181Y-3652948D01*
X-833464Y-3652749D01*
X-673098Y-3652520D01*
X-673088Y-3652520D01*
X-670586Y-3652516D01*
X-668094Y-3652313D01*
X-668083Y-3652313D01*
X-613969Y-3647914D01*
X-603761Y-3647500D01*
X620768Y-3647500D01*
X635575Y-3648373D01*
X666949Y-3652086D01*
X666955Y-3652086D01*
X670586Y-3652516D01*
X973180Y-3652948D01*
X974013Y-3652953D01*
X1107477Y-3654220D01*
X1232402Y-3655405D01*
X1234701Y-3655447D01*
X1445637Y-3661301D01*
X1449568Y-3661472D01*
X1621939Y-3671648D01*
X1627515Y-3672102D01*
X1773656Y-3687263D01*
X1780311Y-3688133D01*
X1829008Y-3695824D01*
X1916405Y-3709628D01*
X1923042Y-3710861D01*
X2066954Y-3741607D01*
X2072543Y-3742936D01*
X2196906Y-3775542D01*
X2240143Y-3786879D01*
X2244205Y-3788017D01*
X2447600Y-3848692D01*
X2450122Y-3849473D01*
X2695580Y-3928333D01*
X2722898Y-3934260D01*
X2725691Y-3934866D01*
X2740515Y-3939046D01*
X2792552Y-3957218D01*
X3049920Y-4006081D01*
X3174175Y-4010963D01*
X3307015Y-4016182D01*
X3307020Y-4016182D01*
X3311683Y-4016365D01*
X3413540Y-4005210D01*
X3567438Y-3988356D01*
X3567444Y-3988355D01*
X3572091Y-3987846D01*
X3775627Y-3934259D01*
X3783348Y-3932485D01*
X3786933Y-3931779D01*
X3800821Y-3929043D01*
X3800828Y-3929041D01*
X3804423Y-3928333D01*
X3807913Y-3927212D01*
X3807916Y-3927211D01*
X4049906Y-3849465D01*
X4052406Y-3848691D01*
X4255837Y-3788004D01*
X4259828Y-3786886D01*
X4427446Y-3742938D01*
X4433045Y-3741607D01*
X4576957Y-3710861D01*
X4583594Y-3709628D01*
X4670991Y-3695824D01*
X4719688Y-3688133D01*
X4726343Y-3687263D01*
X4872484Y-3672102D01*
X4878060Y-3671648D01*
X5050431Y-3661472D01*
X5054362Y-3661301D01*
X5265298Y-3655447D01*
X5267597Y-3655405D01*
X5392522Y-3654220D01*
X5525986Y-3652953D01*
X5526819Y-3652948D01*
X5666536Y-3652749D01*
X5826902Y-3652520D01*
X5826912Y-3652520D01*
X5829414Y-3652516D01*
X5831906Y-3652313D01*
X5831917Y-3652313D01*
X5886031Y-3647914D01*
X5896239Y-3647500D01*
X9120768Y-3647500D01*
X9135575Y-3648373D01*
X9166949Y-3652086D01*
X9166955Y-3652086D01*
X9170586Y-3652516D01*
X9473180Y-3652948D01*
X9474013Y-3652953D01*
X9607477Y-3654220D01*
X9732402Y-3655405D01*
X9734701Y-3655447D01*
X9945637Y-3661301D01*
X9949568Y-3661472D01*
X10121939Y-3671648D01*
X10127515Y-3672102D01*
X10273656Y-3687263D01*
X10280311Y-3688133D01*
X10329008Y-3695824D01*
X10416405Y-3709628D01*
X10423042Y-3710861D01*
X10566954Y-3741607D01*
X10572543Y-3742936D01*
X10696906Y-3775542D01*
X10740143Y-3786879D01*
X10744205Y-3788017D01*
X10947600Y-3848692D01*
X10950122Y-3849473D01*
X11195580Y-3928333D01*
X11222898Y-3934260D01*
X11225691Y-3934866D01*
X11240515Y-3939046D01*
X11292552Y-3957218D01*
X11549920Y-4006081D01*
X11674175Y-4010963D01*
X11807015Y-4016182D01*
X11807020Y-4016182D01*
X11811683Y-4016365D01*
X11913540Y-4005210D01*
X12067438Y-3988356D01*
X12067444Y-3988355D01*
X12072091Y-3987846D01*
X12128446Y-3973009D01*
X12320900Y-3922340D01*
X12320902Y-3922339D01*
X12325423Y-3921149D01*
X12357476Y-3907378D01*
X12561820Y-3819585D01*
X12561822Y-3819584D01*
X12566114Y-3817740D01*
X12788876Y-3679891D01*
X12988816Y-3510629D01*
X13028070Y-3465869D01*
X13158460Y-3317188D01*
X13158464Y-3317183D01*
X13161542Y-3313673D01*
X13201770Y-3251132D01*
X13300730Y-3097281D01*
X13300733Y-3097276D01*
X13303258Y-3093350D01*
X13410852Y-2854501D01*
X13481960Y-2602371D01*
X13498802Y-2469985D01*
X13514622Y-2345631D01*
X13514622Y-2345627D01*
X13515020Y-2342501D01*
X13517442Y-2250000D01*
X13517208Y-2246851D01*
X13498374Y-1993407D01*
X13498373Y-1993403D01*
X13498028Y-1988755D01*
X13440213Y-1733250D01*
X13428901Y-1704160D01*
X13346960Y-1493450D01*
X13346959Y-1493448D01*
X13345267Y-1489097D01*
X13327797Y-1458531D01*
X13217595Y-1265716D01*
X13217593Y-1265714D01*
X13215276Y-1261659D01*
X13053095Y-1055933D01*
X12862287Y-876440D01*
X12826520Y-851627D01*
X12650887Y-729785D01*
X12650884Y-729783D01*
X12647045Y-727120D01*
X12642855Y-725054D01*
X12642852Y-725052D01*
X12416283Y-613321D01*
X12416280Y-613320D01*
X12412095Y-611256D01*
X12365832Y-596447D01*
X12285328Y-570678D01*
X12162601Y-531393D01*
X12157994Y-530643D01*
X12157991Y-530642D01*
X11908654Y-490035D01*
X11908655Y-490035D01*
X11904043Y-489284D01*
X11776858Y-487619D01*
X11646777Y-485916D01*
X11646774Y-485916D01*
X11642100Y-485855D01*
X11382528Y-521181D01*
X11378042Y-522489D01*
X11378040Y-522489D01*
X11348864Y-530993D01*
X11243365Y-561743D01*
X11232471Y-564398D01*
X11195579Y-571666D01*
X11192100Y-572784D01*
X11192095Y-572785D01*
X10950093Y-650535D01*
X10947571Y-651316D01*
X10744205Y-711982D01*
X10740143Y-713120D01*
X10696906Y-724457D01*
X10572543Y-757063D01*
X10566954Y-758392D01*
X10423042Y-789138D01*
X10416405Y-790371D01*
X10329008Y-804175D01*
X10280311Y-811866D01*
X10273656Y-812736D01*
X10127515Y-827897D01*
X10121939Y-828351D01*
X9949568Y-838527D01*
X9945637Y-838698D01*
X9734701Y-844552D01*
X9732402Y-844594D01*
X9605798Y-845795D01*
X9474014Y-847046D01*
X9473178Y-847051D01*
X9332550Y-847252D01*
X9173096Y-847480D01*
X9173086Y-847480D01*
X9170584Y-847484D01*
X9168092Y-847687D01*
X9168081Y-847687D01*
X9113968Y-852086D01*
X9103760Y-852500D01*
X5879234Y-852500D01*
X5864427Y-851627D01*
X5833053Y-847914D01*
X5833047Y-847914D01*
X5829416Y-847484D01*
X5526821Y-847051D01*
X5525985Y-847046D01*
X5394201Y-845795D01*
X5267597Y-844594D01*
X5265298Y-844552D01*
X5054362Y-838698D01*
X5050431Y-838527D01*
X4878060Y-828351D01*
X4872484Y-827897D01*
X4726343Y-812736D01*
X4719688Y-811866D01*
X4670991Y-804175D01*
X4583594Y-790371D01*
X4576957Y-789138D01*
X4433045Y-758392D01*
X4427446Y-757061D01*
X4259828Y-713113D01*
X4255837Y-711995D01*
X4052377Y-651300D01*
X4049893Y-650530D01*
X3807343Y-572605D01*
X3807335Y-572603D01*
X3804419Y-571666D01*
X3760668Y-562173D01*
X3748975Y-559041D01*
X3667057Y-532819D01*
X3667053Y-532818D01*
X3662601Y-531393D01*
X3404043Y-489284D01*
X3276858Y-487619D01*
X3146777Y-485916D01*
X3146774Y-485916D01*
X3142100Y-485855D01*
X2882528Y-521181D01*
X2878042Y-522489D01*
X2878040Y-522489D01*
X2848864Y-530993D01*
X2743365Y-561743D01*
X2732471Y-564398D01*
X2695579Y-571666D01*
X2692100Y-572784D01*
X2692095Y-572785D01*
X2450093Y-650535D01*
X2447571Y-651316D01*
X2244205Y-711982D01*
X2240143Y-713120D01*
X2196906Y-724457D01*
X2072543Y-757063D01*
X2066954Y-758392D01*
X1923042Y-789138D01*
X1916405Y-790371D01*
X1829008Y-804175D01*
X1780311Y-811866D01*
X1773656Y-812736D01*
X1627515Y-827897D01*
X1621939Y-828351D01*
X1449568Y-838527D01*
X1445637Y-838698D01*
X1234701Y-844552D01*
X1232402Y-844594D01*
X1105798Y-845795D01*
X974014Y-847046D01*
X973178Y-847051D01*
X832550Y-847252D01*
X673096Y-847480D01*
X673086Y-847480D01*
X670584Y-847484D01*
X668092Y-847687D01*
X668081Y-847687D01*
X613968Y-852086D01*
X603760Y-852500D01*
X-620766Y-852500D01*
X-635573Y-851627D01*
X-666947Y-847914D01*
X-666953Y-847914D01*
X-670584Y-847484D01*
X-973179Y-847051D01*
X-974015Y-847046D01*
X-1105799Y-845795D01*
X-1232403Y-844594D01*
X-1234702Y-844552D01*
X-1445638Y-838698D01*
X-1449569Y-838527D01*
X-1621940Y-828351D01*
X-1627516Y-827897D01*
X-1773657Y-812736D01*
X-1780312Y-811866D01*
X-1829009Y-804175D01*
X-1916406Y-790371D01*
X-1923043Y-789138D01*
X-2066955Y-758392D01*
X-2072554Y-757061D01*
X-2240172Y-713113D01*
X-2244163Y-711995D01*
X-2447623Y-651300D01*
X-2450107Y-650530D01*
X-2692657Y-572605D01*
X-2692665Y-572603D01*
X-2695581Y-571666D01*
X-2739332Y-562173D01*
X-2751025Y-559041D01*
X-2832943Y-532819D01*
X-2832947Y-532818D01*
X-2837399Y-531393D01*
X-3095957Y-489284D01*
X-3223142Y-487619D01*
X-3353223Y-485916D01*
X-3353226Y-485916D01*
X-3357900Y-485855D01*
X-3617472Y-521181D01*
X-3621958Y-522489D01*
X-3621960Y-522489D01*
X-3667062Y-535635D01*
X-3868971Y-594486D01*
X-4106873Y-704160D01*
X-4141893Y-727120D01*
X-4322038Y-845228D01*
X-4322043Y-845232D01*
X-4325951Y-847794D01*
X-4521391Y-1022232D01*
X-4688902Y-1223641D01*
X-4824802Y-1447598D01*
X-4826243Y-1451033D01*
X-4827556Y-1453426D01*
X-4828795Y-1455273D01*
X-4946621Y-1684644D01*
X-4947800Y-1686881D01*
X-5048744Y-1873658D01*
X-5050813Y-1877337D01*
X-5138248Y-2026913D01*
X-5141282Y-2031840D01*
X-5221271Y-2155294D01*
X-5225110Y-2160884D01*
X-5306135Y-2272306D01*
X-5310223Y-2277622D01*
X-5399759Y-2387887D01*
X-5402857Y-2391702D01*
X-5406470Y-2395955D01*
X-5426922Y-2418974D01*
X-5521144Y-2525018D01*
X-5523801Y-2527917D01*
X-5668818Y-2681216D01*
X-5670403Y-2682860D01*
X-5719846Y-2733250D01*
X-5851427Y-2867351D01*
X-5852139Y-2868071D01*
X-6065650Y-3082194D01*
X-6067265Y-3084095D01*
X-6067270Y-3084100D01*
X-6102458Y-3125510D01*
X-6109379Y-3133015D01*
X-9159612Y-6183248D01*
X-9221924Y-6217274D01*
X-9262191Y-6219429D01*
X-9278808Y-6217640D01*
X-9282461Y-6217673D01*
X-9282468Y-6217673D01*
X-9443843Y-6219145D01*
X-9521858Y-6219857D01*
X-9522028Y-6219860D01*
X-9522040Y-6219860D01*
X-9533223Y-6220047D01*
X-9533267Y-6220048D01*
X-9533513Y-6220052D01*
X-9533707Y-6220057D01*
X-9533721Y-6220057D01*
X-9632671Y-6222463D01*
X-9635734Y-6222500D01*
X-10446825Y-6222500D01*
X-10459312Y-6221880D01*
X-10463971Y-6221416D01*
X-10472361Y-6220294D01*
X-10569693Y-6203932D01*
X-10577921Y-6202264D01*
X-10691199Y-6175336D01*
X-10698369Y-6173407D01*
X-10756607Y-6155881D01*
X-10851723Y-6127257D01*
X-10867232Y-6124119D01*
X-10871611Y-6123150D01*
X-11079993Y-6073121D01*
X-11080001Y-6073120D01*
X-11084815Y-6071964D01*
X-11330000Y-6052668D01*
X-11575185Y-6071964D01*
X-11657573Y-6091744D01*
X-11809527Y-6128225D01*
X-11809532Y-6128227D01*
X-11814332Y-6129379D01*
X-11818895Y-6131269D01*
X-11818901Y-6131271D01*
X-12036980Y-6221602D01*
X-12036984Y-6221604D01*
X-12041554Y-6223497D01*
X-12251255Y-6352002D01*
X-12438271Y-6511729D01*
X-12441479Y-6515485D01*
X-12441484Y-6515490D01*
X-12504189Y-6588908D01*
X-12563639Y-6627718D01*
X-12634634Y-6628224D01*
X-12695811Y-6588908D01*
X-12758516Y-6515490D01*
X-12758521Y-6515485D01*
X-12761729Y-6511729D01*
X-12948745Y-6352002D01*
X-13158446Y-6223497D01*
X-13163016Y-6221604D01*
X-13163020Y-6221602D01*
X-13381099Y-6131271D01*
X-13381105Y-6131269D01*
X-13385668Y-6129379D01*
X-13390468Y-6128227D01*
X-13390473Y-6128225D01*
X-13542427Y-6091744D01*
X-13624815Y-6071964D01*
X-13870000Y-6052668D01*
X-14115185Y-6071964D01*
X-14197573Y-6091744D01*
X-14349527Y-6128225D01*
X-14349532Y-6128227D01*
X-14354332Y-6129379D01*
X-14358895Y-6131269D01*
X-14358901Y-6131271D01*
X-14576980Y-6221602D01*
X-14576984Y-6221604D01*
X-14581554Y-6223497D01*
X-14791255Y-6352002D01*
X-14978271Y-6511729D01*
X-14981479Y-6515485D01*
X-14981484Y-6515490D01*
X-15044189Y-6588908D01*
X-15103639Y-6627718D01*
X-15174634Y-6628224D01*
X-15235811Y-6588908D01*
X-15298516Y-6515490D01*
X-15298521Y-6515485D01*
X-15301729Y-6511729D01*
X-15488745Y-6352002D01*
X-15698446Y-6223497D01*
X-15703016Y-6221604D01*
X-15703020Y-6221602D01*
X-15921099Y-6131271D01*
X-15921105Y-6131269D01*
X-15925668Y-6129379D01*
X-15930468Y-6128227D01*
X-15930473Y-6128225D01*
X-16082427Y-6091744D01*
X-16164815Y-6071964D01*
X-16410000Y-6052668D01*
X-16655185Y-6071964D01*
X-16737573Y-6091744D01*
X-16889527Y-6128225D01*
X-16889532Y-6128227D01*
X-16894332Y-6129379D01*
X-16898895Y-6131269D01*
X-16898901Y-6131271D01*
X-17116980Y-6221602D01*
X-17116984Y-6221604D01*
X-17121554Y-6223497D01*
X-17331255Y-6352002D01*
X-17518271Y-6511729D01*
X-17521479Y-6515485D01*
X-17521484Y-6515490D01*
X-17584189Y-6588908D01*
X-17643639Y-6627718D01*
X-17714634Y-6628224D01*
X-17775811Y-6588908D01*
X-17838516Y-6515490D01*
X-17838521Y-6515485D01*
X-17841729Y-6511729D01*
X-18028745Y-6352002D01*
X-18238446Y-6223497D01*
X-18243016Y-6221604D01*
X-18243020Y-6221602D01*
X-18461099Y-6131271D01*
X-18461105Y-6131269D01*
X-18465668Y-6129379D01*
X-18470468Y-6128227D01*
X-18470473Y-6128225D01*
X-18622427Y-6091744D01*
X-18704815Y-6071964D01*
X-18950000Y-6052668D01*
X-19195185Y-6071964D01*
X-19277573Y-6091744D01*
X-19429527Y-6128225D01*
X-19429532Y-6128227D01*
X-19434332Y-6129379D01*
X-19438895Y-6131269D01*
X-19438901Y-6131271D01*
X-19656980Y-6221602D01*
X-19656984Y-6221604D01*
X-19661554Y-6223497D01*
X-19871255Y-6352002D01*
X-20058271Y-6511729D01*
X-20061479Y-6515485D01*
X-20061484Y-6515490D01*
X-20124189Y-6588908D01*
X-20183639Y-6627718D01*
X-20254634Y-6628224D01*
X-20315811Y-6588908D01*
X-20378516Y-6515490D01*
X-20378521Y-6515485D01*
X-20381729Y-6511729D01*
X-20568745Y-6352002D01*
X-20778446Y-6223497D01*
X-20783016Y-6221604D01*
X-20783020Y-6221602D01*
X-21001099Y-6131271D01*
X-21001105Y-6131269D01*
X-21005668Y-6129379D01*
X-21010468Y-6128227D01*
X-21010473Y-6128225D01*
X-21162427Y-6091744D01*
X-21244815Y-6071964D01*
X-21490000Y-6052668D01*
X-21735185Y-6071964D01*
X-21817573Y-6091744D01*
X-21969527Y-6128225D01*
X-21969532Y-6128227D01*
X-21974332Y-6129379D01*
X-21978895Y-6131269D01*
X-21978901Y-6131271D01*
X-22196980Y-6221602D01*
X-22196984Y-6221604D01*
X-22201554Y-6223497D01*
X-22411255Y-6352002D01*
X-22598271Y-6511729D01*
X-22601479Y-6515485D01*
X-22601484Y-6515490D01*
X-22664189Y-6588908D01*
X-22723639Y-6627718D01*
X-22794634Y-6628224D01*
X-22855811Y-6588908D01*
X-22918516Y-6515490D01*
X-22918521Y-6515485D01*
X-22921729Y-6511729D01*
X-23108745Y-6352002D01*
X-23318446Y-6223497D01*
X-23323016Y-6221604D01*
X-23323020Y-6221602D01*
X-23541099Y-6131271D01*
X-23541105Y-6131269D01*
X-23545668Y-6129379D01*
X-23550468Y-6128227D01*
X-23550473Y-6128225D01*
X-23702427Y-6091744D01*
X-23784815Y-6071964D01*
X-24030000Y-6052668D01*
X-24275185Y-6071964D01*
X-24357573Y-6091744D01*
X-24509527Y-6128225D01*
X-24509532Y-6128227D01*
X-24514332Y-6129379D01*
X-24518895Y-6131269D01*
X-24518901Y-6131271D01*
X-24736980Y-6221602D01*
X-24736984Y-6221604D01*
X-24741554Y-6223497D01*
X-24951255Y-6352002D01*
X-25138271Y-6511729D01*
X-25141479Y-6515485D01*
X-25141484Y-6515490D01*
X-25204189Y-6588908D01*
X-25263639Y-6627718D01*
X-25334634Y-6628224D01*
X-25395811Y-6588908D01*
X-25458516Y-6515490D01*
X-25458521Y-6515485D01*
X-25461729Y-6511729D01*
X-25648745Y-6352002D01*
X-25858446Y-6223497D01*
X-25863016Y-6221604D01*
X-25863020Y-6221602D01*
X-26081099Y-6131271D01*
X-26081105Y-6131269D01*
X-26085668Y-6129379D01*
X-26090468Y-6128227D01*
X-26090473Y-6128225D01*
X-26242427Y-6091744D01*
X-26324815Y-6071964D01*
X-26570000Y-6052668D01*
X-26815185Y-6071964D01*
X-26897573Y-6091744D01*
X-27049527Y-6128225D01*
X-27049532Y-6128227D01*
X-27054332Y-6129379D01*
X-27058895Y-6131269D01*
X-27058901Y-6131271D01*
X-27276980Y-6221602D01*
X-27276984Y-6221604D01*
X-27281554Y-6223497D01*
X-27491255Y-6352002D01*
X-27678271Y-6511729D01*
X-27681479Y-6515485D01*
X-27681484Y-6515490D01*
X-27744189Y-6588908D01*
X-27803639Y-6627718D01*
X-27874634Y-6628224D01*
X-27935811Y-6588908D01*
X-27998516Y-6515490D01*
X-27998521Y-6515485D01*
X-28001729Y-6511729D01*
X-28188745Y-6352002D01*
X-28398446Y-6223497D01*
X-28403016Y-6221604D01*
X-28403020Y-6221602D01*
X-28621099Y-6131271D01*
X-28621105Y-6131269D01*
X-28625668Y-6129379D01*
X-28630468Y-6128227D01*
X-28630473Y-6128225D01*
X-28782427Y-6091744D01*
X-28864815Y-6071964D01*
X-29110000Y-6052668D01*
X-29355185Y-6071964D01*
X-29437573Y-6091744D01*
X-29589527Y-6128225D01*
X-29589532Y-6128227D01*
X-29594332Y-6129379D01*
X-29598895Y-6131269D01*
X-29598901Y-6131271D01*
X-29816980Y-6221602D01*
X-29816984Y-6221604D01*
X-29821554Y-6223497D01*
X-30031255Y-6352002D01*
X-30218271Y-6511729D01*
X-30377998Y-6698745D01*
X-30421255Y-6769334D01*
X-30461945Y-6835734D01*
X-30514593Y-6883365D01*
X-30543765Y-6888473D01*
X-30576435Y-6905645D01*
X-31277978Y-7607188D01*
X-31285592Y-7621132D01*
X-32015644Y-7621132D01*
X-32014408Y-7618868D01*
X-32014539Y-7617035D01*
X-32018790Y-7610420D01*
X-32724287Y-6904923D01*
X-32736062Y-6898493D01*
X-32748077Y-6907789D01*
X-32783931Y-6958994D01*
X-32789414Y-6968489D01*
X-32805805Y-7003641D01*
X-32852722Y-7056926D01*
X-32920999Y-7076387D01*
X-32988959Y-7055845D01*
X-33034195Y-7003641D01*
X-33050586Y-6968489D01*
X-33056069Y-6958994D01*
X-33092509Y-6906952D01*
X-33102988Y-6898576D01*
X-33116434Y-6905644D01*
X-33817978Y-7607188D01*
X-33825592Y-7621132D01*
X-34555644Y-7621132D01*
X-34554408Y-7618868D01*
X-34554539Y-7617035D01*
X-34558790Y-7610420D01*
X-35264287Y-6904923D01*
X-35293115Y-6889181D01*
X-35330686Y-6881009D01*
X-35377736Y-6836255D01*
X-35418745Y-6769334D01*
X-35462002Y-6698745D01*
X-35603572Y-6532988D01*
X-34911424Y-6532988D01*
X-34904356Y-6546434D01*
X-34202812Y-7247978D01*
X-34188868Y-7255592D01*
X-34187035Y-7255461D01*
X-34180420Y-7251210D01*
X-33474923Y-6545713D01*
X-33468493Y-6533938D01*
X-33469228Y-6532988D01*
X-32371424Y-6532988D01*
X-32364356Y-6546434D01*
X-31662812Y-7247978D01*
X-31648868Y-7255592D01*
X-31647035Y-7255461D01*
X-31640420Y-7251210D01*
X-30934923Y-6545713D01*
X-30928493Y-6533938D01*
X-30937789Y-6521923D01*
X-30988994Y-6486069D01*
X-30998489Y-6480586D01*
X-31195947Y-6388510D01*
X-31206239Y-6384764D01*
X-31416688Y-6328375D01*
X-31427481Y-6326472D01*
X-31644525Y-6307483D01*
X-31655475Y-6307483D01*
X-31872519Y-6326472D01*
X-31883312Y-6328375D01*
X-32093761Y-6384764D01*
X-32104053Y-6388510D01*
X-32301511Y-6480586D01*
X-32311006Y-6486069D01*
X-32363048Y-6522509D01*
X-32371424Y-6532988D01*
X-33469228Y-6532988D01*
X-33477789Y-6521923D01*
X-33528994Y-6486069D01*
X-33538489Y-6480586D01*
X-33735947Y-6388510D01*
X-33746239Y-6384764D01*
X-33956688Y-6328375D01*
X-33967481Y-6326472D01*
X-34184525Y-6307483D01*
X-34195475Y-6307483D01*
X-34412519Y-6326472D01*
X-34423312Y-6328375D01*
X-34633761Y-6384764D01*
X-34644053Y-6388510D01*
X-34841511Y-6480586D01*
X-34851006Y-6486069D01*
X-34903048Y-6522509D01*
X-34911424Y-6532988D01*
X-35603572Y-6532988D01*
X-35621729Y-6511729D01*
X-35808745Y-6352002D01*
X-36018446Y-6223497D01*
X-36023016Y-6221604D01*
X-36023020Y-6221602D01*
X-36241099Y-6131271D01*
X-36241105Y-6131269D01*
X-36245668Y-6129379D01*
X-36250468Y-6128227D01*
X-36250473Y-6128225D01*
X-36402427Y-6091744D01*
X-36484815Y-6071964D01*
X-36730000Y-6052668D01*
X-36975185Y-6071964D01*
X-37057573Y-6091744D01*
X-37209527Y-6128225D01*
X-37209532Y-6128227D01*
X-37214332Y-6129379D01*
X-37218895Y-6131269D01*
X-37218901Y-6131271D01*
X-37436980Y-6221602D01*
X-37436984Y-6221604D01*
X-37441554Y-6223497D01*
X-37651255Y-6352002D01*
X-37655010Y-6355209D01*
X-37655014Y-6355212D01*
X-37678025Y-6374866D01*
X-37742815Y-6403897D01*
X-37813015Y-6393292D01*
X-37857878Y-6353453D01*
X-37859969Y-6355110D01*
X-37864512Y-6349378D01*
X-37868366Y-6343150D01*
X-37994201Y-6217534D01*
X-38003394Y-6211867D01*
X-38098336Y-6153345D01*
X-38145560Y-6124236D01*
X-38230545Y-6096047D01*
X-38307791Y-6070425D01*
X-38307793Y-6070424D01*
X-38314322Y-6068259D01*
X-38419334Y-6057500D01*
X-40120666Y-6057500D01*
X-40123912Y-6057837D01*
X-40123916Y-6057837D01*
X-40220132Y-6067820D01*
X-40220136Y-6067821D01*
X-40226990Y-6068532D01*
X-40233526Y-6070713D01*
X-40233528Y-6070713D01*
X-40296565Y-6091744D01*
X-40395654Y-6124803D01*
X-40546850Y-6218366D01*
X-40672466Y-6344201D01*
X-40676306Y-6350431D01*
X-40676307Y-6350432D01*
X-40702726Y-6393292D01*
X-40765764Y-6495560D01*
X-40768069Y-6502508D01*
X-40768069Y-6502509D01*
X-40782638Y-6546434D01*
X-40821741Y-6664322D01*
X-40832500Y-6769334D01*
X-40832500Y-8470666D01*
X-42237500Y-8470666D01*
X-42237500Y-4482670D01*
X-41117840Y-4482670D01*
X-41112113Y-4490320D01*
X-40940958Y-4595205D01*
X-40932163Y-4599687D01*
X-40722012Y-4686734D01*
X-40712627Y-4689783D01*
X-40491446Y-4742885D01*
X-40481699Y-4744428D01*
X-40254930Y-4762275D01*
X-40245070Y-4762275D01*
X-40018301Y-4744428D01*
X-40008554Y-4742885D01*
X-39787373Y-4689783D01*
X-39777988Y-4686734D01*
X-39567837Y-4599687D01*
X-39559042Y-4595205D01*
X-39391555Y-4492568D01*
X-39382093Y-4482110D01*
X-39385876Y-4473334D01*
X-40237188Y-3622022D01*
X-40251132Y-3614408D01*
X-40252965Y-3614539D01*
X-40259580Y-3618790D01*
X-41111080Y-4470290D01*
X-41117840Y-4482670D01*
X-42237500Y-4482670D01*
X-42237500Y-3254930D01*
X-41762275Y-3254930D01*
X-41744428Y-3481699D01*
X-41742885Y-3491446D01*
X-41689783Y-3712627D01*
X-41686734Y-3722012D01*
X-41599687Y-3932163D01*
X-41595205Y-3940958D01*
X-41492568Y-4108445D01*
X-41482110Y-4117907D01*
X-41473334Y-4114124D01*
X-40622022Y-3262812D01*
X-40615644Y-3251132D01*
X-39885592Y-3251132D01*
X-39885461Y-3252965D01*
X-39881210Y-3259580D01*
X-39029710Y-4111080D01*
X-39017330Y-4117840D01*
X-39009680Y-4112113D01*
X-38904795Y-3940958D01*
X-38900313Y-3932163D01*
X-38813266Y-3722012D01*
X-38810217Y-3712627D01*
X-38757115Y-3491446D01*
X-38755572Y-3481699D01*
X-38737725Y-3254930D01*
X-38737725Y-3245070D01*
X-38740978Y-3203734D01*
X-37516836Y-3203734D01*
X-37516612Y-3208401D01*
X-37516612Y-3208406D01*
X-37511543Y-3313942D01*
X-37504268Y-3465397D01*
X-37485882Y-3557828D01*
X-37455441Y-3710864D01*
X-37453161Y-3722328D01*
X-37451582Y-3726726D01*
X-37451580Y-3726733D01*
X-37370517Y-3952512D01*
X-37364639Y-3968883D01*
X-37240645Y-4199646D01*
X-37237850Y-4203389D01*
X-37237848Y-4203392D01*
X-37086697Y-4405808D01*
X-37086692Y-4405814D01*
X-37083905Y-4409546D01*
X-37080596Y-4412826D01*
X-37080591Y-4412832D01*
X-36970014Y-4522448D01*
X-36897862Y-4593973D01*
X-36894100Y-4596731D01*
X-36894097Y-4596734D01*
X-36694773Y-4742885D01*
X-36686602Y-4748876D01*
X-36682471Y-4751050D01*
X-36682470Y-4751050D01*
X-36458901Y-4868675D01*
X-36458895Y-4868677D01*
X-36454766Y-4870850D01*
X-36450358Y-4872389D01*
X-36450352Y-4872392D01*
X-36211864Y-4955676D01*
X-36207448Y-4957218D01*
X-35950080Y-5006081D01*
X-35825825Y-5010963D01*
X-35692985Y-5016182D01*
X-35692980Y-5016182D01*
X-35688317Y-5016365D01*
X-35586460Y-5005210D01*
X-35432562Y-4988356D01*
X-35432556Y-4988355D01*
X-35427909Y-4987846D01*
X-35305719Y-4955676D01*
X-35179100Y-4922340D01*
X-35179098Y-4922339D01*
X-35174577Y-4921149D01*
X-35111435Y-4894021D01*
X-34938180Y-4819585D01*
X-34938178Y-4819584D01*
X-34933886Y-4817740D01*
X-34711124Y-4679891D01*
X-34525145Y-4522448D01*
X-34514750Y-4513648D01*
X-34514749Y-4513647D01*
X-34511184Y-4510629D01*
X-34371177Y-4350982D01*
X-34341540Y-4317188D01*
X-34341536Y-4317183D01*
X-34338458Y-4313673D01*
X-34335928Y-4309740D01*
X-34199270Y-4097281D01*
X-34199267Y-4097276D01*
X-34196742Y-4093350D01*
X-34089148Y-3854501D01*
X-34018040Y-3602371D01*
X-34000675Y-3465869D01*
X-33985378Y-3345631D01*
X-33985378Y-3345627D01*
X-33984980Y-3342501D01*
X-33984813Y-3336154D01*
X-33983621Y-3290599D01*
X-33982558Y-3250000D01*
X-33988260Y-3173276D01*
X-34001626Y-2993407D01*
X-34001627Y-2993403D01*
X-34001972Y-2988755D01*
X-34059787Y-2733250D01*
X-34064034Y-2722328D01*
X-34153040Y-2493450D01*
X-34153041Y-2493448D01*
X-34154733Y-2489097D01*
X-34165656Y-2469985D01*
X-34282405Y-2265716D01*
X-34282407Y-2265714D01*
X-34284724Y-2261659D01*
X-34446905Y-2055933D01*
X-34637713Y-1876440D01*
X-34642010Y-1873459D01*
X-34849113Y-1729785D01*
X-34849116Y-1729783D01*
X-34852955Y-1727120D01*
X-34857145Y-1725054D01*
X-34857148Y-1725052D01*
X-35083717Y-1613321D01*
X-35083720Y-1613320D01*
X-35087905Y-1611256D01*
X-35134168Y-1596447D01*
X-35188248Y-1579136D01*
X-35337399Y-1531393D01*
X-35342006Y-1530643D01*
X-35342009Y-1530642D01*
X-35591346Y-1490035D01*
X-35591345Y-1490035D01*
X-35595957Y-1489284D01*
X-35723142Y-1487619D01*
X-35853223Y-1485916D01*
X-35853226Y-1485916D01*
X-35857900Y-1485855D01*
X-36117472Y-1521181D01*
X-36121958Y-1522489D01*
X-36121960Y-1522489D01*
X-36152508Y-1531393D01*
X-36368971Y-1594486D01*
X-36606873Y-1704160D01*
X-36641893Y-1727120D01*
X-36822038Y-1845228D01*
X-36822043Y-1845232D01*
X-36825951Y-1847794D01*
X-37021391Y-2022232D01*
X-37188902Y-2223641D01*
X-37324802Y-2447598D01*
X-37326611Y-2451912D01*
X-37326612Y-2451914D01*
X-37348923Y-2505121D01*
X-37426107Y-2689182D01*
X-37427258Y-2693714D01*
X-37427259Y-2693717D01*
X-37474055Y-2877978D01*
X-37490591Y-2943087D01*
X-37491060Y-2947743D01*
X-37491060Y-2947744D01*
X-37493188Y-2968883D01*
X-37516836Y-3203734D01*
X-38740978Y-3203734D01*
X-38755572Y-3018301D01*
X-38757115Y-3008554D01*
X-38810217Y-2787373D01*
X-38813266Y-2777988D01*
X-38900313Y-2567837D01*
X-38904795Y-2559042D01*
X-39007432Y-2391555D01*
X-39017890Y-2382093D01*
X-39026666Y-2385876D01*
X-39877978Y-3237188D01*
X-39885592Y-3251132D01*
X-40615644Y-3251132D01*
X-40614408Y-3248868D01*
X-40614539Y-3247035D01*
X-40618790Y-3240420D01*
X-41470290Y-2388920D01*
X-41482670Y-2382160D01*
X-41490320Y-2387887D01*
X-41595205Y-2559042D01*
X-41599687Y-2567837D01*
X-41686734Y-2777988D01*
X-41689783Y-2787373D01*
X-41742885Y-3008554D01*
X-41744428Y-3018301D01*
X-41762275Y-3245070D01*
X-41762275Y-3254930D01*
X-42237500Y-3254930D01*
X-42237500Y-2017890D01*
X-41117907Y-2017890D01*
X-41114124Y-2026666D01*
X-40262812Y-2877978D01*
X-40248868Y-2885592D01*
X-40247035Y-2885461D01*
X-40240420Y-2881210D01*
X-39388920Y-2029710D01*
X-39382160Y-2017330D01*
X-39387887Y-2009680D01*
X-39559042Y-1904795D01*
X-39567837Y-1900313D01*
X-39777988Y-1813266D01*
X-39787373Y-1810217D01*
X-40008554Y-1757115D01*
X-40018301Y-1755572D01*
X-40245070Y-1737725D01*
X-40254930Y-1737725D01*
X-40481699Y-1755572D01*
X-40491446Y-1757115D01*
X-40712627Y-1810217D01*
X-40722012Y-1813266D01*
X-40932163Y-1900313D01*
X-40940958Y-1904795D01*
X-41108445Y-2007432D01*
X-41117907Y-2017890D01*
X-42237500Y-2017890D01*
X-42237500Y2017330D01*
X-41117840Y2017330D01*
X-41112113Y2009680D01*
X-40940958Y1904795D01*
X-40932163Y1900313D01*
X-40722012Y1813266D01*
X-40712627Y1810217D01*
X-40491446Y1757115D01*
X-40481699Y1755572D01*
X-40254930Y1737725D01*
X-40245070Y1737725D01*
X-40018301Y1755572D01*
X-40008554Y1757115D01*
X-39787373Y1810217D01*
X-39777988Y1813266D01*
X-39567837Y1900313D01*
X-39559042Y1904795D01*
X-39391555Y2007432D01*
X-39382093Y2017890D01*
X-39385876Y2026666D01*
X-40237188Y2877978D01*
X-40251132Y2885592D01*
X-40252965Y2885461D01*
X-40259580Y2881210D01*
X-41111080Y2029710D01*
X-41117840Y2017330D01*
X-42237500Y2017330D01*
X-42237500Y3245070D01*
X-41762275Y3245070D01*
X-41744428Y3018301D01*
X-41742885Y3008554D01*
X-41689783Y2787373D01*
X-41686734Y2777988D01*
X-41599687Y2567837D01*
X-41595205Y2559042D01*
X-41492568Y2391555D01*
X-41482110Y2382093D01*
X-41473334Y2385876D01*
X-40622022Y3237188D01*
X-40615644Y3248868D01*
X-39885592Y3248868D01*
X-39885461Y3247035D01*
X-39881210Y3240420D01*
X-39029710Y2388920D01*
X-39017330Y2382160D01*
X-39009680Y2387887D01*
X-38904795Y2559042D01*
X-38900313Y2567837D01*
X-38813266Y2777988D01*
X-38810217Y2787373D01*
X-38757115Y3008554D01*
X-38755572Y3018301D01*
X-38737725Y3245070D01*
X-38737725Y3254930D01*
X-38755572Y3481699D01*
X-38757115Y3491446D01*
X-38810217Y3712627D01*
X-38813266Y3722012D01*
X-38900313Y3932163D01*
X-38904795Y3940958D01*
X-39007432Y4108445D01*
X-39017890Y4117907D01*
X-39026666Y4114124D01*
X-39877978Y3262812D01*
X-39885592Y3248868D01*
X-40615644Y3248868D01*
X-40614408Y3251132D01*
X-40614539Y3252965D01*
X-40618790Y3259580D01*
X-41470290Y4111080D01*
X-41482670Y4117840D01*
X-41490320Y4112113D01*
X-41595205Y3940958D01*
X-41599687Y3932163D01*
X-41686734Y3722012D01*
X-41689783Y3712627D01*
X-41742885Y3491446D01*
X-41744428Y3481699D01*
X-41762275Y3254930D01*
X-41762275Y3245070D01*
X-42237500Y3245070D01*
X-42237500Y4482110D01*
X-41117907Y4482110D01*
X-41114124Y4473334D01*
X-40262812Y3622022D01*
X-40248868Y3614408D01*
X-40247035Y3614539D01*
X-40240420Y3618790D01*
X-39388920Y4470290D01*
X-39382160Y4482670D01*
X-39387887Y4490320D01*
X-39559042Y4595205D01*
X-39567837Y4599687D01*
X-39777988Y4686734D01*
X-39787373Y4689783D01*
X-40008554Y4742885D01*
X-40018301Y4744428D01*
X-40245070Y4762275D01*
X-40254930Y4762275D01*
X-40481699Y4744428D01*
X-40491446Y4742885D01*
X-40712627Y4689783D01*
X-40722012Y4686734D01*
X-40932163Y4599687D01*
X-40940958Y4595205D01*
X-41108445Y4492568D01*
X-41117907Y4482110D01*
X-42237500Y4482110D01*
X-42237500Y7620000D01*
X-40837332Y7620000D01*
X-40818036Y7374815D01*
X-40760621Y7135668D01*
X-40758731Y7131105D01*
X-40758729Y7131099D01*
X-40668398Y6913020D01*
X-40666503Y6908446D01*
X-40537998Y6698745D01*
X-40477767Y6628224D01*
X-40385151Y6519785D01*
X-40378271Y6511729D01*
X-40191255Y6352002D01*
X-39981554Y6223497D01*
X-39976984Y6221604D01*
X-39976980Y6221602D01*
X-39758901Y6131271D01*
X-39758895Y6131269D01*
X-39754332Y6129379D01*
X-39749532Y6128227D01*
X-39749527Y6128225D01*
X-39640134Y6101962D01*
X-39515185Y6071964D01*
X-39270000Y6052668D01*
X-39024815Y6071964D01*
X-38899866Y6101962D01*
X-38790473Y6128225D01*
X-38790468Y6128227D01*
X-38785668Y6129379D01*
X-38781105Y6131269D01*
X-38781099Y6131271D01*
X-38563020Y6221602D01*
X-38563016Y6221604D01*
X-38558446Y6223497D01*
X-38348745Y6352002D01*
X-38161729Y6511729D01*
X-38154848Y6519785D01*
X-38142760Y6533938D01*
X-37451507Y6533938D01*
X-37442211Y6521923D01*
X-37391006Y6486069D01*
X-37381511Y6480586D01*
X-37184053Y6388510D01*
X-37173761Y6384764D01*
X-36963312Y6328375D01*
X-36952519Y6326472D01*
X-36735475Y6307483D01*
X-36724525Y6307483D01*
X-36507481Y6326472D01*
X-36496688Y6328375D01*
X-36286239Y6384764D01*
X-36275947Y6388510D01*
X-36078489Y6480586D01*
X-36068994Y6486069D01*
X-36016952Y6522509D01*
X-36008576Y6532988D01*
X-36015644Y6546434D01*
X-36717188Y7247978D01*
X-36731132Y7255592D01*
X-36732965Y7255461D01*
X-36739580Y7251210D01*
X-37445077Y6545713D01*
X-37451507Y6533938D01*
X-38142760Y6533938D01*
X-38062233Y6628224D01*
X-38002002Y6698745D01*
X-37918055Y6835734D01*
X-37865407Y6883365D01*
X-37836235Y6888473D01*
X-37803565Y6905645D01*
X-37102022Y7607188D01*
X-37094408Y7621132D01*
X-37094539Y7622965D01*
X-37098790Y7629580D01*
X-37804287Y8335077D01*
X-37833115Y8350819D01*
X-37870686Y8358991D01*
X-37917736Y8403745D01*
X-37953916Y8462786D01*
X-38002002Y8541255D01*
X-38143572Y8707012D01*
X-37451424Y8707012D01*
X-37444356Y8693566D01*
X-36742812Y7992022D01*
X-36728868Y7984408D01*
X-36727035Y7984539D01*
X-36720420Y7988790D01*
X-36014923Y8694287D01*
X-36008493Y8706062D01*
X-36017789Y8718077D01*
X-36068994Y8753931D01*
X-36078489Y8759414D01*
X-36275947Y8851490D01*
X-36286239Y8855236D01*
X-36496688Y8911625D01*
X-36507481Y8913528D01*
X-36724525Y8932517D01*
X-36735475Y8932517D01*
X-36952519Y8913528D01*
X-36963312Y8911625D01*
X-37173761Y8855236D01*
X-37184053Y8851490D01*
X-37381511Y8759414D01*
X-37391006Y8753931D01*
X-37443048Y8717491D01*
X-37451424Y8707012D01*
X-38143572Y8707012D01*
X-38161729Y8728271D01*
X-38348745Y8887998D01*
X-38558446Y9016503D01*
X-38563016Y9018396D01*
X-38563020Y9018398D01*
X-38781099Y9108729D01*
X-38781105Y9108731D01*
X-38785668Y9110621D01*
X-38790468Y9111773D01*
X-38790473Y9111775D01*
X-38937895Y9147168D01*
X-39024815Y9168036D01*
X-39270000Y9187332D01*
X-39515185Y9168036D01*
X-39602105Y9147168D01*
X-39749527Y9111775D01*
X-39749532Y9111773D01*
X-39754332Y9110621D01*
X-39758895Y9108731D01*
X-39758901Y9108729D01*
X-39976980Y9018398D01*
X-39976984Y9018396D01*
X-39981554Y9016503D01*
X-40191255Y8887998D01*
X-40378271Y8728271D01*
X-40537998Y8541255D01*
X-40666503Y8331554D01*
X-40668396Y8326984D01*
X-40668398Y8326980D01*
X-40758729Y8108901D01*
X-40758731Y8108895D01*
X-40760621Y8104332D01*
X-40761773Y8099532D01*
X-40761775Y8099527D01*
X-40778526Y8029754D01*
X-40818036Y7865185D01*
X-40837332Y7620000D01*
X-42237500Y7620000D01*
X-42237500Y11937558D01*
X-42236274Y11955094D01*
X-42233525Y11974652D01*
X-42233525Y11974657D01*
X-42232974Y11978575D01*
X-42232675Y12000000D01*
X-42233137Y12004119D01*
X-42234598Y12017148D01*
X-42235153Y12038800D01*
X-42221646Y12262094D01*
X-42219812Y12277198D01*
X-42173856Y12527971D01*
X-42170215Y12542744D01*
X-42149654Y12608727D01*
X-42094364Y12786159D01*
X-42088970Y12800381D01*
X-42052930Y12880457D01*
X-41984336Y13032868D01*
X-41977266Y13046339D01*
X-41845367Y13264525D01*
X-41836724Y13277046D01*
X-41679493Y13477738D01*
X-41669403Y13489127D01*
X-41489127Y13669403D01*
X-41477738Y13679493D01*
X-41277046Y13836724D01*
X-41264525Y13845367D01*
X-41061953Y13967827D01*
X-41046338Y13977267D01*
X-41032866Y13984337D01*
X-41001410Y13998494D01*
X-40800377Y14088972D01*
X-40786159Y14094364D01*
X-40542744Y14170215D01*
X-40527971Y14173856D01*
X-40277198Y14219812D01*
X-40262094Y14221646D01*
X-40044406Y14234814D01*
X-40021013Y14234051D01*
X-40010714Y14232750D01*
X-39968398Y14236899D01*
X-39956104Y14237500D01*
X-36319098Y14237500D01*
X-36250977Y14217498D01*
G37*
%TD.AperFunction*%
%TA.AperFunction,Conductor*%
G36*
X11738602Y11768223D02*
G01*
X11775807Y11764073D01*
X11779477Y11764092D01*
X11779484Y11764092D01*
X11904300Y11764750D01*
X11937834Y11764927D01*
X11944938Y11764997D01*
X11944954Y11764997D01*
X12094102Y11767164D01*
X12098071Y11767232D01*
X12132326Y11767907D01*
X12204898Y11746636D01*
X12344227Y11653363D01*
X12527541Y11577056D01*
X12533577Y11575839D01*
X12533580Y11575838D01*
X12629189Y11556560D01*
X12722185Y11537809D01*
X12728285Y11537500D01*
X12729883Y11537500D01*
X13089080Y11537501D01*
X13446714Y11537501D01*
X13452815Y11537809D01*
X13500857Y11547496D01*
X13641420Y11575838D01*
X13641423Y11575839D01*
X13647459Y11577056D01*
X13830773Y11653363D01*
X13929909Y11719729D01*
X13997641Y11741002D01*
X14070091Y11719729D01*
X14169227Y11653363D01*
X14352541Y11577056D01*
X14358577Y11575839D01*
X14358580Y11575838D01*
X14454189Y11556560D01*
X14547185Y11537809D01*
X14553285Y11537500D01*
X14703995Y11537500D01*
X14772116Y11517498D01*
X14794441Y11499224D01*
X14819499Y11473388D01*
X14819651Y11473232D01*
X14819818Y11473060D01*
X14819847Y11473030D01*
X14917776Y11372073D01*
X14922585Y11367159D01*
X15029176Y11259224D01*
X15031129Y11257545D01*
X15075102Y11219741D01*
X15082056Y11213291D01*
X15084595Y11210752D01*
X15118621Y11148440D01*
X15121500Y11121657D01*
X15121500Y9878373D01*
X15120365Y9861501D01*
X15116418Y9832290D01*
X15111890Y9580097D01*
X15111814Y9575883D01*
X15111581Y9570170D01*
X15110254Y9549305D01*
X15099213Y9375748D01*
X15098522Y9368345D01*
X15080344Y9220765D01*
X15078973Y9212123D01*
X15077221Y9203111D01*
X15044587Y9140059D01*
X14983045Y9104660D01*
X14913869Y9107563D01*
X14787209Y9149575D01*
X14787207Y9149576D01*
X14780678Y9151741D01*
X14675666Y9162500D01*
X12774334Y9162500D01*
X12771088Y9162163D01*
X12771084Y9162163D01*
X12674868Y9152180D01*
X12674864Y9152179D01*
X12668010Y9151468D01*
X12661474Y9149287D01*
X12661472Y9149287D01*
X12564664Y9116989D01*
X12499346Y9095197D01*
X12348150Y9001634D01*
X12342977Y8996452D01*
X12334373Y8987833D01*
X12222534Y8875799D01*
X12218694Y8869569D01*
X12218693Y8869568D01*
X12205502Y8848168D01*
X12147415Y8753931D01*
X12147165Y8753526D01*
X12094394Y8706032D01*
X12063952Y8695957D01*
X12012878Y8686027D01*
X12004235Y8684656D01*
X11856656Y8666478D01*
X11849252Y8665787D01*
X11827709Y8664416D01*
X11654830Y8653419D01*
X11649139Y8653187D01*
X11392710Y8648582D01*
X11390359Y8648362D01*
X11390348Y8648361D01*
X11344362Y8644050D01*
X11332603Y8643500D01*
X5946684Y8643500D01*
X5790721Y8629169D01*
X5785159Y8627600D01*
X5785157Y8627600D01*
X5724164Y8610398D01*
X5588451Y8572123D01*
X5399963Y8479171D01*
X5231571Y8353427D01*
X5227657Y8349193D01*
X5227655Y8349191D01*
X5172208Y8289208D01*
X5088914Y8199101D01*
X5026088Y8099527D01*
X5022933Y8094527D01*
X5020485Y8090796D01*
X4798539Y7765274D01*
X4742649Y7683302D01*
X4727639Y7665187D01*
X3915857Y6853405D01*
X3853545Y6819379D01*
X3826762Y6816500D01*
X2988611Y6816500D01*
X2920490Y6836502D01*
X2873997Y6890158D01*
X2863893Y6960432D01*
X2875097Y6997186D01*
X2877662Y7002510D01*
X2877666Y7002519D01*
X2877727Y7002645D01*
X2877843Y7002889D01*
X2881910Y7011584D01*
X2976257Y7216612D01*
X2979686Y7224170D01*
X2988578Y7244057D01*
X3058245Y7399866D01*
X3058734Y7400946D01*
X3124421Y7544222D01*
X3126321Y7548184D01*
X3183168Y7661565D01*
X3186635Y7668006D01*
X3242691Y7765274D01*
X3247399Y7772814D01*
X3314304Y7872013D01*
X3319446Y7879094D01*
X3410932Y7996284D01*
X3415679Y8002009D01*
X3544412Y8148232D01*
X3548304Y8152454D01*
X3672316Y8281001D01*
X3726345Y8337005D01*
X3757345Y8374415D01*
X3765269Y8383115D01*
X4486409Y9104255D01*
X4489584Y9107322D01*
X4515227Y9131228D01*
X4515230Y9131231D01*
X4517905Y9133725D01*
X4526009Y9143267D01*
X4532951Y9150797D01*
X4778312Y9396158D01*
X4784330Y9401795D01*
X4803001Y9418169D01*
X4833019Y9444494D01*
X4887777Y9513954D01*
X4889853Y9516517D01*
X4942732Y9580097D01*
X4942734Y9580100D01*
X4946426Y9584539D01*
X4949247Y9589577D01*
X4951300Y9592564D01*
X4957533Y9601892D01*
X4959553Y9605003D01*
X4963128Y9609537D01*
X4965815Y9614644D01*
X4965822Y9614655D01*
X5004312Y9687813D01*
X5005885Y9690712D01*
X5025822Y9726313D01*
X5049114Y9767904D01*
X5050967Y9773364D01*
X5052437Y9776664D01*
X5056900Y9787053D01*
X5058293Y9790416D01*
X5060982Y9795527D01*
X5072398Y9832290D01*
X5087216Y9880013D01*
X5088215Y9883089D01*
X5116669Y9966912D01*
X5117498Y9972626D01*
X5118341Y9976138D01*
X5120833Y9987151D01*
X5121591Y9990716D01*
X5123304Y9996234D01*
X5127582Y10032377D01*
X5155453Y10097675D01*
X5163614Y10106662D01*
X5236178Y10179226D01*
X5332539Y10323167D01*
X5343208Y10339104D01*
X5343210Y10339108D01*
X5346637Y10344227D01*
X5422944Y10527541D01*
X5462191Y10722185D01*
X5462500Y10728285D01*
X5462499Y11446714D01*
X5462191Y11452815D01*
X5428865Y11618095D01*
X5435008Y11688826D01*
X5478415Y11745007D01*
X5552379Y11769000D01*
X11724634Y11769000D01*
X11738602Y11768223D01*
G37*
%TD.AperFunction*%
%TA.AperFunction,Conductor*%
G36*
X2543264Y11836498D02*
G01*
X2589757Y11782842D01*
X2599861Y11712568D01*
X2591469Y11682083D01*
X2577056Y11647459D01*
X2537809Y11452815D01*
X2537500Y11446715D01*
X2537501Y10728286D01*
X2537809Y10722185D01*
X2577056Y10527541D01*
X2578438Y10524221D01*
X2579214Y10454117D01*
X2547027Y10399180D01*
X2138191Y9990344D01*
X2125458Y9979215D01*
X2102008Y9961348D01*
X2076546Y9936784D01*
X1917452Y9783304D01*
X1913231Y9779413D01*
X1767008Y9650680D01*
X1761283Y9645933D01*
X1644093Y9554447D01*
X1637012Y9549305D01*
X1537813Y9482400D01*
X1530282Y9477698D01*
X1445189Y9428658D01*
X1433005Y9421636D01*
X1426564Y9418169D01*
X1313183Y9361322D01*
X1309221Y9359422D01*
X1165945Y9293735D01*
X1164865Y9293246D01*
X1002762Y9220765D01*
X989169Y9214687D01*
X989048Y9214632D01*
X981611Y9211259D01*
X776749Y9116989D01*
X776669Y9116952D01*
X776600Y9116920D01*
X776371Y9116813D01*
X769167Y9113450D01*
X769105Y9113421D01*
X769003Y9113373D01*
X768758Y9113257D01*
X768624Y9113192D01*
X768587Y9113175D01*
X763277Y9110621D01*
X760312Y9109195D01*
X529406Y8996396D01*
X526668Y8994692D01*
X525427Y8994005D01*
X512623Y8987833D01*
X512478Y8987773D01*
X512472Y8987770D01*
X507907Y8985879D01*
X350563Y8889459D01*
X282030Y8870921D01*
X214354Y8892377D01*
X195711Y8907719D01*
X132724Y8970597D01*
X100799Y9002466D01*
X-50560Y9095764D01*
X-57509Y9098069D01*
X-212791Y9149575D01*
X-212793Y9149576D01*
X-219322Y9151741D01*
X-324334Y9162500D01*
X-2225666Y9162500D01*
X-2228912Y9162163D01*
X-2228916Y9162163D01*
X-2325132Y9152180D01*
X-2325136Y9152179D01*
X-2331990Y9151468D01*
X-2338526Y9149287D01*
X-2338528Y9149287D01*
X-2435336Y9116989D01*
X-2500654Y9095197D01*
X-2651850Y9001634D01*
X-2657023Y8996452D01*
X-2665627Y8987833D01*
X-2777466Y8875799D01*
X-2781306Y8869569D01*
X-2781307Y8869568D01*
X-2794498Y8848168D01*
X-2852585Y8753931D01*
X-2852835Y8753526D01*
X-2905606Y8706032D01*
X-2936048Y8695957D01*
X-2987122Y8686027D01*
X-2995765Y8684656D01*
X-3143344Y8666478D01*
X-3150748Y8665787D01*
X-3172291Y8664416D01*
X-3345170Y8653419D01*
X-3350861Y8653187D01*
X-3479256Y8650881D01*
X-3547725Y8669657D01*
X-3570613Y8687766D01*
X-6524252Y11641405D01*
X-6558278Y11703717D01*
X-6553213Y11774532D01*
X-6510666Y11831368D01*
X-6444146Y11856179D01*
X-6435157Y11856500D01*
X2475143Y11856500D01*
X2543264Y11836498D01*
G37*
%TD.AperFunction*%
%TD*%
%TA.AperFunction,Conductor*%
%TO.N,/COL2*%
G36*
X-10757972Y8180145D02*
G01*
X-10601116Y8043146D01*
X-10447590Y7945695D01*
X-10447187Y7945519D01*
X-10447183Y7945517D01*
X-10301319Y7881873D01*
X-10300984Y7881727D01*
X-10158547Y7839636D01*
X-10158376Y7839598D01*
X-10158363Y7839594D01*
X-10017581Y7807828D01*
X-10017502Y7807810D01*
X-9943942Y7790677D01*
X-9875592Y7774757D01*
X-9874752Y7774528D01*
X-9729433Y7728785D01*
X-9728052Y7728252D01*
X-9576232Y7658280D01*
X-9574713Y7657438D01*
X-9413262Y7551573D01*
X-9411938Y7550563D01*
X-9246686Y7404794D01*
X-9242749Y7396751D01*
X-9246153Y7387747D01*
X-9588928Y7044972D01*
X-9597201Y7041545D01*
X-9604776Y7044328D01*
X-9748238Y7166188D01*
X-9748711Y7166590D01*
X-9751424Y7168042D01*
X-9889873Y7242143D01*
X-9889877Y7242144D01*
X-9890571Y7242516D01*
X-9992593Y7265438D01*
X-10024887Y7272694D01*
X-10024888Y7272694D01*
X-10025680Y7272872D01*
X-10042465Y7271921D01*
X-10156939Y7265438D01*
X-10156943Y7265437D01*
X-10157584Y7265401D01*
X-10289827Y7227851D01*
X-10290182Y7227695D01*
X-10290187Y7227693D01*
X-10345060Y7203553D01*
X-10425954Y7167966D01*
X-10569510Y7093493D01*
X-10723832Y7012287D01*
X-10724226Y7012088D01*
X-10892683Y6931957D01*
X-10893519Y6931599D01*
X-11072487Y6862959D01*
X-11081439Y6863196D01*
X-11085570Y6866280D01*
X-11720912Y7609371D01*
X-11723683Y7617886D01*
X-11719622Y7625867D01*
X-11717936Y7627067D01*
X-10771582Y8181428D01*
X-10762712Y8182653D01*
X-10757972Y8180145D01*
G37*
%TD.AperFunction*%
%TD*%
%TA.AperFunction,Conductor*%
%TO.N,Net-(D1-Pad2)*%
G36*
X4005867Y11333372D02*
G01*
X4007069Y11331683D01*
X4358282Y10732124D01*
X4359507Y10723253D01*
X4357249Y10718810D01*
X4279712Y10623856D01*
X4279312Y10623366D01*
X4279028Y10622805D01*
X4279026Y10622802D01*
X4234423Y10534716D01*
X4227349Y10520746D01*
X4198109Y10416855D01*
X4183201Y10311299D01*
X4183189Y10311154D01*
X4183188Y10311146D01*
X4174237Y10203755D01*
X4174214Y10203519D01*
X4162862Y10094148D01*
X4162704Y10093092D01*
X4140701Y9981543D01*
X4140240Y9979870D01*
X4099373Y9865516D01*
X4098488Y9863604D01*
X4030399Y9745636D01*
X4029184Y9743911D01*
X3932910Y9630552D01*
X3924942Y9626465D01*
X3916418Y9629208D01*
X3915719Y9629853D01*
X3393769Y10151803D01*
X3390342Y10160076D01*
X3393387Y10167949D01*
X3458722Y10239774D01*
X3458944Y10240018D01*
X3459136Y10240284D01*
X3513921Y10316296D01*
X3513925Y10316303D01*
X3514161Y10316630D01*
X3553195Y10390625D01*
X3577709Y10463100D01*
X3589369Y10535154D01*
X3589839Y10607881D01*
X3580785Y10682380D01*
X3563871Y10759747D01*
X3540763Y10841079D01*
X3515494Y10920067D01*
X3516237Y10928991D01*
X3519035Y10932525D01*
X3989371Y11334662D01*
X3997886Y11337433D01*
X4005867Y11333372D01*
G37*
%TD.AperFunction*%
%TD*%
%TA.AperFunction,Conductor*%
%TO.N,Net-(D1-Pad2)*%
G36*
X2651277Y9408840D02*
G01*
X3173840Y8886277D01*
X3177267Y8878004D01*
X3173987Y8869881D01*
X3134150Y8828587D01*
X2981792Y8670659D01*
X2822195Y8489378D01*
X2695357Y8326903D01*
X2695247Y8326740D01*
X2695242Y8326733D01*
X2638621Y8242782D01*
X2593465Y8175830D01*
X2508702Y8028752D01*
X2433253Y7878267D01*
X2359302Y7716967D01*
X2279035Y7537450D01*
X2184688Y7332422D01*
X2184572Y7332178D01*
X2071782Y7101288D01*
X2065071Y7095358D01*
X2060357Y7094759D01*
X956773Y7181023D01*
X948793Y7185083D01*
X946023Y7191772D01*
X859759Y8295357D01*
X862530Y8303872D01*
X866287Y8306782D01*
X1097193Y8419581D01*
X1097438Y8419697D01*
X1302449Y8514036D01*
X1481966Y8594303D01*
X1643266Y8668254D01*
X1647824Y8670539D01*
X1793585Y8743620D01*
X1793751Y8743703D01*
X1940829Y8828466D01*
X2026544Y8886277D01*
X2091732Y8930243D01*
X2091739Y8930248D01*
X2091902Y8930358D01*
X2254377Y9057196D01*
X2435658Y9216793D01*
X2506038Y9284690D01*
X2634881Y9408987D01*
X2643214Y9412265D01*
X2651277Y9408840D01*
G37*
%TD.AperFunction*%
%TD*%
%TA.AperFunction,Conductor*%
%TO.N,/LED2*%
G36*
X13445390Y8351862D02*
G01*
X13449147Y8348952D01*
X14168499Y7507603D01*
X14171270Y7499088D01*
X14168499Y7492397D01*
X13449147Y6651048D01*
X13441166Y6646987D01*
X13436452Y6647586D01*
X13193421Y6731099D01*
X13193166Y6731190D01*
X12981606Y6809404D01*
X12981487Y6809448D01*
X12797831Y6879614D01*
X12797792Y6879629D01*
X12631445Y6941394D01*
X12631358Y6941423D01*
X12471834Y6994404D01*
X12471820Y6994408D01*
X12471685Y6994453D01*
X12307749Y7038516D01*
X12226574Y7054298D01*
X12129067Y7073256D01*
X12129058Y7073257D01*
X12128875Y7073293D01*
X11924300Y7098492D01*
X11924115Y7098504D01*
X11924102Y7098505D01*
X11683409Y7113816D01*
X11683396Y7113817D01*
X11683263Y7113825D01*
X11683143Y7113827D01*
X11683123Y7113828D01*
X11406490Y7118794D01*
X11398280Y7122369D01*
X11395000Y7130492D01*
X11395000Y7869508D01*
X11398427Y7877781D01*
X11406490Y7881206D01*
X11683123Y7886173D01*
X11683143Y7886174D01*
X11683263Y7886176D01*
X11683396Y7886184D01*
X11683409Y7886185D01*
X11924102Y7901496D01*
X11924115Y7901497D01*
X11924300Y7901509D01*
X12128875Y7926708D01*
X12129058Y7926744D01*
X12129067Y7926745D01*
X12226574Y7945703D01*
X12307749Y7961485D01*
X12471685Y8005548D01*
X12471820Y8005593D01*
X12471834Y8005597D01*
X12631358Y8058578D01*
X12631362Y8058580D01*
X12631445Y8058607D01*
X12797792Y8120372D01*
X12981487Y8190553D01*
X12985229Y8191937D01*
X13193166Y8268811D01*
X13193421Y8268902D01*
X13436452Y8352414D01*
X13445390Y8351862D01*
G37*
%TD.AperFunction*%
%TD*%
%TA.AperFunction,Conductor*%
%TO.N,VCC*%
G36*
X-30857516Y9577192D02*
G01*
X-30335200Y9054876D01*
X-30331773Y9046603D01*
X-30335123Y9038408D01*
X-30397454Y8974898D01*
X-30466447Y8904600D01*
X-30466487Y8904556D01*
X-30466498Y8904545D01*
X-30583431Y8777366D01*
X-30583544Y8777243D01*
X-30583643Y8777122D01*
X-30583649Y8777115D01*
X-30606579Y8749069D01*
X-30679471Y8659917D01*
X-30679603Y8659723D01*
X-30679610Y8659713D01*
X-30698158Y8632357D01*
X-30755404Y8547929D01*
X-30812518Y8436585D01*
X-30851990Y8321194D01*
X-30874994Y8197061D01*
X-30875014Y8196697D01*
X-30875015Y8196692D01*
X-30882209Y8068373D01*
X-30882707Y8059494D01*
X-30876304Y7903800D01*
X-30876282Y7903601D01*
X-30857782Y7732882D01*
X-30860298Y7724287D01*
X-30863582Y7721478D01*
X-31713162Y7232986D01*
X-31722042Y7231833D01*
X-31729404Y7237789D01*
X-32211811Y8178133D01*
X-32212538Y8187058D01*
X-32209709Y8191710D01*
X-32045332Y8357438D01*
X-31902494Y8504071D01*
X-31779802Y8632357D01*
X-31669883Y8749069D01*
X-31565367Y8860977D01*
X-31458881Y8974855D01*
X-31343055Y9097474D01*
X-31210586Y9235534D01*
X-31210487Y9235577D01*
X-31210517Y9235606D01*
X-31053896Y9396023D01*
X-31053828Y9396091D01*
X-30874093Y9577161D01*
X-30865832Y9580619D01*
X-30857516Y9577192D01*
G37*
%TD.AperFunction*%
%TD*%
%TA.AperFunction,Conductor*%
%TO.N,/COL2*%
G36*
X25228677Y-1760573D02*
G01*
X25236657Y-1764633D01*
X25239427Y-1771322D01*
X25294518Y-2476099D01*
X25303870Y-2595734D01*
X25301099Y-2604249D01*
X25298829Y-2606291D01*
X25262681Y-2631115D01*
X25262667Y-2631126D01*
X25262409Y-2631303D01*
X25262167Y-2631513D01*
X25262165Y-2631514D01*
X25201857Y-2683707D01*
X25201846Y-2683717D01*
X25201771Y-2683782D01*
X25123868Y-2757668D01*
X25030087Y-2850725D01*
X24921813Y-2960717D01*
X24921791Y-2960740D01*
X24800434Y-3085409D01*
X24667345Y-3222552D01*
X24667334Y-3222564D01*
X24523900Y-3369946D01*
X24523868Y-3369978D01*
X24464434Y-3430580D01*
X24371567Y-3525271D01*
X24371499Y-3525300D01*
X24371519Y-3525319D01*
X24219850Y-3678114D01*
X24211589Y-3681572D01*
X24203273Y-3678145D01*
X23321855Y-2796727D01*
X23318428Y-2788454D01*
X23321885Y-2780150D01*
X23474679Y-2628480D01*
X23474699Y-2628501D01*
X23474728Y-2628432D01*
X23569419Y-2535565D01*
X23630021Y-2476131D01*
X23630053Y-2476099D01*
X23777435Y-2332665D01*
X23777447Y-2332654D01*
X23914590Y-2199565D01*
X24039259Y-2078208D01*
X24039282Y-2078186D01*
X24149274Y-1969912D01*
X24242331Y-1876131D01*
X24316217Y-1798228D01*
X24316282Y-1798153D01*
X24316292Y-1798142D01*
X24368489Y-1737830D01*
X24368495Y-1737823D01*
X24368696Y-1737590D01*
X24393709Y-1701170D01*
X24401217Y-1696291D01*
X24404263Y-1696130D01*
X25228677Y-1760573D01*
G37*
%TD.AperFunction*%
%TD*%
%TA.AperFunction,Conductor*%
%TO.N,/ROW0*%
G36*
X20086756Y-1031122D02*
G01*
X20968020Y-1912386D01*
X20971447Y-1920659D01*
X20967485Y-1929435D01*
X20744579Y-2125972D01*
X20743275Y-2126968D01*
X20525799Y-2270150D01*
X20524344Y-2270965D01*
X20318194Y-2367667D01*
X20316878Y-2368188D01*
X20173723Y-2415040D01*
X20119076Y-2432925D01*
X20118224Y-2433168D01*
X19925839Y-2480352D01*
X19925698Y-2480386D01*
X19862513Y-2495054D01*
X19736120Y-2524394D01*
X19735985Y-2524434D01*
X19735979Y-2524435D01*
X19547435Y-2579502D01*
X19547430Y-2579504D01*
X19547121Y-2579594D01*
X19546826Y-2579719D01*
X19546820Y-2579721D01*
X19387055Y-2647344D01*
X19356069Y-2660459D01*
X19355681Y-2660699D01*
X19160691Y-2781220D01*
X19160686Y-2781223D01*
X19160289Y-2781469D01*
X19159935Y-2781775D01*
X19159931Y-2781778D01*
X18963443Y-2951628D01*
X18954943Y-2954446D01*
X18949878Y-2952872D01*
X18657275Y-2781469D01*
X17762067Y-2257068D01*
X17756661Y-2249931D01*
X17757886Y-2241060D01*
X17759088Y-2239371D01*
X18557212Y-1305892D01*
X18565193Y-1301831D01*
X18569638Y-1302341D01*
X18743452Y-1357405D01*
X18743476Y-1357412D01*
X18743561Y-1357439D01*
X18743660Y-1357466D01*
X18743683Y-1357473D01*
X18910112Y-1403239D01*
X18910122Y-1403241D01*
X18910317Y-1403295D01*
X18910520Y-1403336D01*
X18910519Y-1403336D01*
X19065207Y-1434759D01*
X19065213Y-1434760D01*
X19065504Y-1434819D01*
X19065795Y-1434848D01*
X19065804Y-1434849D01*
X19211713Y-1449221D01*
X19212109Y-1449260D01*
X19212506Y-1449245D01*
X19212513Y-1449245D01*
X19294678Y-1446103D01*
X19353118Y-1443868D01*
X19491521Y-1415894D01*
X19491971Y-1415721D01*
X19491975Y-1415720D01*
X19629886Y-1362747D01*
X19630303Y-1362587D01*
X19772453Y-1281197D01*
X19920957Y-1168974D01*
X20070544Y-1030800D01*
X20078947Y-1027704D01*
X20086756Y-1031122D01*
G37*
%TD.AperFunction*%
%TD*%
%TA.AperFunction,Conductor*%
%TO.N,/LED1*%
G36*
X-28506129Y9602735D02*
G01*
X-27983911Y9080517D01*
X-27980484Y9072244D01*
X-27983787Y9064097D01*
X-28099142Y8945210D01*
X-28099159Y8945192D01*
X-28099246Y8945102D01*
X-28202746Y8828260D01*
X-28202861Y8828110D01*
X-28202868Y8828101D01*
X-28286394Y8718764D01*
X-28286583Y8718516D01*
X-28351080Y8612546D01*
X-28396560Y8507025D01*
X-28423346Y8398629D01*
X-28431760Y8284034D01*
X-28431726Y8283596D01*
X-28422152Y8160254D01*
X-28422151Y8160245D01*
X-28422125Y8159913D01*
X-28394764Y8022943D01*
X-28394695Y8022707D01*
X-28352122Y7877059D01*
X-28353090Y7868156D01*
X-28355747Y7864885D01*
X-28903541Y7396522D01*
X-29099371Y7229088D01*
X-29107886Y7226317D01*
X-29115867Y7230378D01*
X-29117069Y7232067D01*
X-29671224Y8178070D01*
X-29672449Y8186941D01*
X-29669590Y8192065D01*
X-29517940Y8350829D01*
X-29517927Y8350843D01*
X-29517849Y8350925D01*
X-29391553Y8497314D01*
X-29384008Y8507025D01*
X-29288542Y8629910D01*
X-29288447Y8630032D01*
X-29200180Y8754256D01*
X-29118402Y8875163D01*
X-29034856Y8997795D01*
X-29034668Y8998063D01*
X-28941061Y9127532D01*
X-28940754Y9127938D01*
X-28828675Y9269540D01*
X-28828311Y9269978D01*
X-28689349Y9428982D01*
X-28688982Y9429383D01*
X-28522845Y9602562D01*
X-28514645Y9606159D01*
X-28506129Y9602735D01*
G37*
%TD.AperFunction*%
%TD*%
%TA.AperFunction,Conductor*%
%TO.N,/LED2*%
G36*
X-26286161Y9735104D02*
G01*
X-25763919Y9212862D01*
X-25760492Y9204589D01*
X-25763444Y9196819D01*
X-25860425Y9087633D01*
X-25877536Y9068369D01*
X-25961271Y8939888D01*
X-26011787Y8816805D01*
X-26033546Y8696304D01*
X-26033534Y8695720D01*
X-26033534Y8695716D01*
X-26032643Y8653352D01*
X-26031008Y8575568D01*
X-26008634Y8451782D01*
X-25970885Y8322128D01*
X-25925121Y8192031D01*
X-25922240Y8183840D01*
X-25922223Y8183791D01*
X-25867128Y8034011D01*
X-25867059Y8033816D01*
X-25812625Y7877344D01*
X-25813143Y7868404D01*
X-25816071Y7864608D01*
X-26315326Y7437746D01*
X-26559371Y7229088D01*
X-26567886Y7226317D01*
X-26575867Y7230378D01*
X-26577069Y7232067D01*
X-27046802Y8033953D01*
X-27131417Y8178399D01*
X-27132642Y8187270D01*
X-27130115Y8192031D01*
X-26991735Y8349684D01*
X-26991730Y8349690D01*
X-26991454Y8350005D01*
X-26991226Y8350357D01*
X-26991222Y8350362D01*
X-26925268Y8452086D01*
X-26890913Y8505073D01*
X-26822690Y8653649D01*
X-26775417Y8798495D01*
X-26737721Y8942372D01*
X-26703565Y9068369D01*
X-26698343Y9087633D01*
X-26698092Y9088442D01*
X-26657384Y9204589D01*
X-26645810Y9237611D01*
X-26645278Y9238884D01*
X-26568749Y9395083D01*
X-26567941Y9396479D01*
X-26455739Y9562778D01*
X-26454786Y9564006D01*
X-26303179Y9734604D01*
X-26295122Y9738511D01*
X-26286161Y9735104D01*
G37*
%TD.AperFunction*%
%TD*%
%TA.AperFunction,Conductor*%
%TO.N,/ROW0*%
G36*
X-11072895Y-6862199D02*
G01*
X-10894481Y-6915891D01*
X-10894471Y-6915894D01*
X-10894327Y-6915937D01*
X-10894166Y-6915975D01*
X-10894167Y-6915975D01*
X-10726560Y-6955818D01*
X-10726550Y-6955820D01*
X-10726365Y-6955864D01*
X-10726170Y-6955897D01*
X-10726164Y-6955898D01*
X-10648141Y-6969014D01*
X-10569918Y-6982164D01*
X-10518052Y-6987325D01*
X-10418737Y-6997208D01*
X-10418724Y-6997209D01*
X-10418592Y-6997222D01*
X-10325950Y-7000986D01*
X-10266145Y-7003416D01*
X-10266131Y-7003416D01*
X-10265990Y-7003422D01*
X-10265845Y-7003422D01*
X-10168753Y-7003256D01*
X-10105717Y-7003148D01*
X-9931378Y-6998784D01*
X-9931373Y-6998784D01*
X-9884551Y-6997325D01*
X-9736654Y-6992718D01*
X-9736574Y-6992749D01*
X-9736575Y-6992716D01*
X-9514977Y-6987328D01*
X-9514857Y-6987325D01*
X-9406061Y-6986333D01*
X-9271807Y-6985108D01*
X-9263503Y-6988460D01*
X-9260000Y-6996808D01*
X-9260000Y-8243192D01*
X-9263427Y-8251465D01*
X-9271807Y-8254892D01*
X-9394567Y-8253772D01*
X-9514856Y-8252674D01*
X-9514977Y-8252671D01*
X-9736575Y-8247283D01*
X-9736574Y-8247249D01*
X-9736654Y-8247281D01*
X-9884551Y-8242674D01*
X-9931373Y-8241215D01*
X-9931378Y-8241215D01*
X-10105717Y-8236851D01*
X-10168753Y-8236743D01*
X-10265845Y-8236577D01*
X-10265990Y-8236577D01*
X-10266131Y-8236583D01*
X-10266145Y-8236583D01*
X-10325950Y-8239013D01*
X-10418592Y-8242777D01*
X-10418724Y-8242790D01*
X-10418737Y-8242791D01*
X-10505902Y-8251465D01*
X-10569918Y-8257835D01*
X-10648141Y-8270985D01*
X-10726164Y-8284101D01*
X-10726170Y-8284102D01*
X-10726365Y-8284135D01*
X-10726550Y-8284179D01*
X-10726560Y-8284181D01*
X-10879367Y-8320506D01*
X-10894327Y-8324062D01*
X-10894471Y-8324105D01*
X-10894481Y-8324108D01*
X-11072895Y-8377801D01*
X-11081805Y-8376903D01*
X-11085160Y-8374200D01*
X-11723499Y-7627603D01*
X-11726270Y-7619088D01*
X-11723499Y-7612397D01*
X-11085160Y-6865800D01*
X-11077179Y-6861739D01*
X-11072895Y-6862199D01*
G37*
%TD.AperFunction*%
%TD*%
%TA.AperFunction,Conductor*%
%TO.N,/COL2*%
G36*
X14638676Y-2879370D02*
G01*
X14639338Y-2880588D01*
X14994914Y-3639151D01*
X14995322Y-3648097D01*
X14989032Y-3654826D01*
X14410035Y-3909585D01*
X14396405Y-3915582D01*
X14387452Y-3915777D01*
X14380984Y-3909585D01*
X14380297Y-3902223D01*
X14617348Y-2882904D01*
X14622560Y-2875622D01*
X14631394Y-2874158D01*
X14638676Y-2879370D01*
G37*
%TD.AperFunction*%
%TD*%
%TA.AperFunction,Conductor*%
%TO.N,VCC*%
G36*
X4167372Y13397112D02*
G01*
X4286100Y13360528D01*
X4397836Y13331660D01*
X4499856Y13311385D01*
X4562764Y13302902D01*
X4596613Y13298337D01*
X4596622Y13298336D01*
X4596778Y13298315D01*
X4596930Y13298304D01*
X4596945Y13298302D01*
X4693072Y13291074D01*
X4693088Y13291073D01*
X4693224Y13291063D01*
X4745580Y13289594D01*
X4793690Y13288243D01*
X4793720Y13288243D01*
X4793813Y13288240D01*
X4793918Y13288240D01*
X4867415Y13288388D01*
X4903165Y13288460D01*
X5025900Y13290335D01*
X5166600Y13292477D01*
X5166706Y13292478D01*
X5318227Y13293426D01*
X5326521Y13290051D01*
X5330000Y13281726D01*
X5330000Y12543274D01*
X5326573Y12535001D01*
X5318227Y12531574D01*
X5166705Y12532523D01*
X5166600Y12532524D01*
X5025900Y12534666D01*
X4903165Y12536541D01*
X4866947Y12536614D01*
X4793918Y12536761D01*
X4793813Y12536761D01*
X4793720Y12536758D01*
X4793690Y12536758D01*
X4745580Y12535407D01*
X4693224Y12533938D01*
X4693088Y12533928D01*
X4693072Y12533927D01*
X4596945Y12526699D01*
X4596930Y12526697D01*
X4596778Y12526686D01*
X4596622Y12526665D01*
X4596613Y12526664D01*
X4562764Y12522099D01*
X4499856Y12513616D01*
X4397836Y12493341D01*
X4286100Y12464473D01*
X4167372Y12427888D01*
X4158457Y12428726D01*
X4155034Y12431466D01*
X4066798Y12534666D01*
X3996199Y12617238D01*
X3976788Y12639941D01*
X3743750Y12912500D01*
X4028347Y13245362D01*
X4037444Y13256001D01*
X4155034Y13393534D01*
X4163015Y13397595D01*
X4167372Y13397112D01*
G37*
%TD.AperFunction*%
%TD*%
%TA.AperFunction,Conductor*%
%TO.N,/ROW0*%
G36*
X24791352Y638158D02*
G01*
X24793620Y636118D01*
X24804544Y623341D01*
X25330999Y7603D01*
X25333770Y-912D01*
X25330999Y-7603D01*
X24797103Y-632045D01*
X24793621Y-636117D01*
X24785640Y-640178D01*
X24782592Y-640017D01*
X24739481Y-632011D01*
X24739479Y-632011D01*
X24739152Y-631950D01*
X24738830Y-631927D01*
X24738824Y-631926D01*
X24701759Y-629253D01*
X24659167Y-626181D01*
X24609999Y-624880D01*
X24551923Y-623342D01*
X24551903Y-623342D01*
X24551836Y-623340D01*
X24419721Y-622828D01*
X24265384Y-624044D01*
X24091385Y-626385D01*
X23900286Y-629253D01*
X23900269Y-629253D01*
X23694647Y-632045D01*
X23694602Y-632045D01*
X23477103Y-634160D01*
X23477032Y-634161D01*
X23261742Y-634957D01*
X23253457Y-631561D01*
X23250000Y-623257D01*
X23250000Y623257D01*
X23253427Y631530D01*
X23261742Y634957D01*
X23477032Y634162D01*
X23477103Y634161D01*
X23694602Y632046D01*
X23694647Y632046D01*
X23900269Y629254D01*
X23900286Y629254D01*
X24091385Y626386D01*
X24265384Y624045D01*
X24419721Y622829D01*
X24551836Y623341D01*
X24551903Y623343D01*
X24551923Y623343D01*
X24609999Y624881D01*
X24659167Y626182D01*
X24702947Y629340D01*
X24738824Y631927D01*
X24738830Y631928D01*
X24739152Y631951D01*
X24739477Y632011D01*
X24739482Y632012D01*
X24782592Y640017D01*
X24791352Y638158D01*
G37*
%TD.AperFunction*%
%TD*%
%TA.AperFunction,Conductor*%
%TO.N,Net-(SW1-Pad2)*%
G36*
X-34182397Y8013499D02*
G01*
X-33435800Y7375160D01*
X-33431739Y7367179D01*
X-33432199Y7362895D01*
X-33485938Y7184327D01*
X-33525865Y7016365D01*
X-33552165Y6859918D01*
X-33567223Y6708592D01*
X-33573423Y6555990D01*
X-33573149Y6395717D01*
X-33573146Y6395600D01*
X-33568786Y6221414D01*
X-33568785Y6221378D01*
X-33562719Y6026655D01*
X-33562750Y6026574D01*
X-33562717Y6026575D01*
X-33557329Y5805006D01*
X-33557326Y5804829D01*
X-33555108Y5561807D01*
X-33558460Y5553503D01*
X-33566808Y5550000D01*
X-34813192Y5550000D01*
X-34821465Y5553427D01*
X-34824892Y5561807D01*
X-34822675Y5804829D01*
X-34822672Y5805006D01*
X-34817284Y6026575D01*
X-34817250Y6026574D01*
X-34817282Y6026655D01*
X-34811216Y6221378D01*
X-34811215Y6221414D01*
X-34806855Y6395600D01*
X-34806852Y6395717D01*
X-34806578Y6555990D01*
X-34812778Y6708592D01*
X-34827836Y6859918D01*
X-34854136Y7016365D01*
X-34894063Y7184327D01*
X-34947801Y7362895D01*
X-34946903Y7371805D01*
X-34944200Y7375160D01*
X-34197603Y8013499D01*
X-34189088Y8016270D01*
X-34182397Y8013499D01*
G37*
%TD.AperFunction*%
%TD*%
%TA.AperFunction,Conductor*%
%TO.N,Net-(D2-Pad2)*%
G36*
X15370782Y13227745D02*
G01*
X15373521Y13224323D01*
X15431606Y13114499D01*
X15490202Y13015078D01*
X15490286Y13014952D01*
X15490295Y13014938D01*
X15547900Y12928758D01*
X15548004Y12928603D01*
X15607297Y12850827D01*
X15670366Y12777501D01*
X15739498Y12704379D01*
X15739562Y12704315D01*
X15816956Y12627232D01*
X15816977Y12627211D01*
X15905090Y12541750D01*
X16006122Y12443748D01*
X16006197Y12443674D01*
X16113982Y12337230D01*
X16117461Y12328978D01*
X16114034Y12320632D01*
X15591868Y11798466D01*
X15583595Y11795039D01*
X15575270Y11798518D01*
X15468752Y11906378D01*
X15468679Y11906453D01*
X15370750Y12007410D01*
X15285338Y12095472D01*
X15285289Y12095523D01*
X15208121Y12173002D01*
X15134999Y12242134D01*
X15134878Y12242238D01*
X15134867Y12242248D01*
X15061822Y12305075D01*
X15061819Y12305078D01*
X15061673Y12305203D01*
X14983897Y12364496D01*
X14983750Y12364594D01*
X14983742Y12364600D01*
X14897562Y12422205D01*
X14897548Y12422214D01*
X14897422Y12422298D01*
X14798001Y12480894D01*
X14797923Y12480935D01*
X14797911Y12480942D01*
X14688178Y12538978D01*
X14682467Y12545876D01*
X14681984Y12550233D01*
X14699740Y12777386D01*
X14730525Y13171225D01*
X14734585Y13179205D01*
X14741274Y13181975D01*
X15283025Y13224322D01*
X15362267Y13230516D01*
X15370782Y13227745D01*
G37*
%TD.AperFunction*%
%TD*%
%TA.AperFunction,Conductor*%
%TO.N,/ROW0*%
G36*
X3569659Y-1302381D02*
G01*
X3824037Y-1384106D01*
X4050724Y-1451730D01*
X4252637Y-1504670D01*
X4252754Y-1504695D01*
X4439964Y-1544692D01*
X4439975Y-1544694D01*
X4440106Y-1544722D01*
X4623459Y-1573682D01*
X4813026Y-1593348D01*
X4813139Y-1593355D01*
X4813155Y-1593356D01*
X4958759Y-1601951D01*
X5019134Y-1605515D01*
X5252113Y-1611982D01*
X5522292Y-1614545D01*
X5828318Y-1614983D01*
X5836585Y-1618422D01*
X5840000Y-1626683D01*
X5840000Y-2873317D01*
X5836573Y-2881590D01*
X5828318Y-2885017D01*
X5522292Y-2885454D01*
X5252113Y-2888017D01*
X5019134Y-2894484D01*
X4958759Y-2898048D01*
X4813155Y-2906643D01*
X4813139Y-2906644D01*
X4813026Y-2906651D01*
X4623459Y-2926317D01*
X4440106Y-2955277D01*
X4439975Y-2955305D01*
X4439964Y-2955307D01*
X4252754Y-2995304D01*
X4252637Y-2995329D01*
X4050724Y-3048269D01*
X3824037Y-3115893D01*
X3569660Y-3197619D01*
X3560737Y-3196887D01*
X3557190Y-3194083D01*
X3432497Y-3048243D01*
X2750000Y-2250000D01*
X3250000Y-1665204D01*
X3251514Y-1663434D01*
X3557190Y-1305917D01*
X3565171Y-1301856D01*
X3569659Y-1302381D01*
G37*
%TD.AperFunction*%
%TD*%
%TA.AperFunction,Conductor*%
%TO.N,/COL0*%
G36*
X-15695341Y7977377D02*
G01*
X-15692456Y7973670D01*
X-15593059Y7772646D01*
X-15592995Y7772514D01*
X-15507473Y7593945D01*
X-15432854Y7438131D01*
X-15362749Y7298473D01*
X-15362696Y7298378D01*
X-15362687Y7298360D01*
X-15325231Y7230659D01*
X-15290727Y7168291D01*
X-15210361Y7040904D01*
X-15115223Y6909632D01*
X-14998883Y6767794D01*
X-14854912Y6608710D01*
X-14854845Y6608641D01*
X-14854843Y6608639D01*
X-14684928Y6433969D01*
X-14681616Y6425650D01*
X-14685042Y6417538D01*
X-15207538Y5895042D01*
X-15215811Y5891615D01*
X-15223969Y5894928D01*
X-15398639Y6064843D01*
X-15398641Y6064845D01*
X-15398710Y6064912D01*
X-15557794Y6208883D01*
X-15699632Y6325223D01*
X-15830904Y6420361D01*
X-15958291Y6500727D01*
X-16020659Y6535231D01*
X-16088360Y6572687D01*
X-16088378Y6572696D01*
X-16088473Y6572749D01*
X-16228131Y6642854D01*
X-16383945Y6717473D01*
X-16488810Y6767696D01*
X-16562482Y6802980D01*
X-16562615Y6803044D01*
X-16763670Y6902456D01*
X-16769567Y6909195D01*
X-16770148Y6913856D01*
X-16716988Y7593945D01*
X-16693621Y7892871D01*
X-16689561Y7900851D01*
X-16682872Y7903621D01*
X-15869744Y7967181D01*
X-15703856Y7980148D01*
X-15695341Y7977377D01*
G37*
%TD.AperFunction*%
%TD*%
%TA.AperFunction,Conductor*%
%TO.N,/ROW0*%
G36*
X-2930341Y-1302381D02*
G01*
X-2675963Y-1384106D01*
X-2449276Y-1451730D01*
X-2247363Y-1504670D01*
X-2247246Y-1504695D01*
X-2060036Y-1544692D01*
X-2060025Y-1544694D01*
X-2059894Y-1544722D01*
X-1876541Y-1573682D01*
X-1686974Y-1593348D01*
X-1686861Y-1593355D01*
X-1686845Y-1593356D01*
X-1541241Y-1601951D01*
X-1480866Y-1605515D01*
X-1247887Y-1611982D01*
X-977708Y-1614545D01*
X-671682Y-1614983D01*
X-663415Y-1618422D01*
X-660000Y-1626683D01*
X-660000Y-2873317D01*
X-663427Y-2881590D01*
X-671682Y-2885017D01*
X-977708Y-2885454D01*
X-1247887Y-2888017D01*
X-1480866Y-2894484D01*
X-1541241Y-2898048D01*
X-1686845Y-2906643D01*
X-1686861Y-2906644D01*
X-1686974Y-2906651D01*
X-1876541Y-2926317D01*
X-2059894Y-2955277D01*
X-2060025Y-2955305D01*
X-2060036Y-2955307D01*
X-2247246Y-2995304D01*
X-2247363Y-2995329D01*
X-2449276Y-3048269D01*
X-2675963Y-3115893D01*
X-2768099Y-3145494D01*
X-2865586Y-3176814D01*
X-2865591Y-3176816D01*
X-2866042Y-3176961D01*
X-2866044Y-3176962D01*
X-2937751Y-3200000D01*
X-3750000Y-2250000D01*
X-3413178Y-1856056D01*
X-3207075Y-1615000D01*
X-2942810Y-1305917D01*
X-2934829Y-1301856D01*
X-2930341Y-1302381D01*
G37*
%TD.AperFunction*%
%TD*%
%TA.AperFunction,Conductor*%
%TO.N,/LED2*%
G36*
X5705035Y7711616D02*
G01*
X5708909Y7707181D01*
X5917916Y7289168D01*
X5918551Y7280237D01*
X5912683Y7273472D01*
X5909374Y7272396D01*
X5352024Y7179504D01*
X5343301Y7181524D01*
X5338560Y7189122D01*
X5340434Y7197636D01*
X5539487Y7489581D01*
X5688777Y7708540D01*
X5696269Y7713445D01*
X5705035Y7711616D01*
G37*
%TD.AperFunction*%
%TD*%
%TA.AperFunction,Conductor*%
%TO.N,Net-(SW1-Pad2)*%
G36*
X-33559775Y5200399D02*
G01*
X-33556348Y5192126D01*
X-33556417Y5190855D01*
X-33588300Y4898996D01*
X-33588978Y4896153D01*
X-33678766Y4657135D01*
X-33680118Y4654563D01*
X-33812474Y4464502D01*
X-33813931Y4462788D01*
X-33975187Y4306439D01*
X-33976134Y4305615D01*
X-34071858Y4230970D01*
X-34152406Y4168160D01*
X-34152543Y4168055D01*
X-34329360Y4034881D01*
X-34329511Y4034748D01*
X-34329518Y4034742D01*
X-34427281Y3948447D01*
X-34491881Y3891425D01*
X-34492198Y3891025D01*
X-34625246Y3723361D01*
X-34625248Y3723358D01*
X-34625720Y3722763D01*
X-34716540Y3513940D01*
X-34716645Y3513111D01*
X-34749005Y3257850D01*
X-34753445Y3250073D01*
X-34757655Y3248001D01*
X-35553304Y3040174D01*
X-36090023Y2899981D01*
X-36098893Y2901206D01*
X-36104299Y2908344D01*
X-36104643Y2910389D01*
X-36168191Y3723361D01*
X-36200310Y4134265D01*
X-36197539Y4142779D01*
X-36193354Y4145887D01*
X-36000250Y4230773D01*
X-35999345Y4231127D01*
X-35953295Y4246957D01*
X-35801074Y4299283D01*
X-35800643Y4299421D01*
X-35608610Y4356690D01*
X-35427708Y4411902D01*
X-35427696Y4411906D01*
X-35427503Y4411965D01*
X-35262009Y4474171D01*
X-35261666Y4474355D01*
X-35261660Y4474358D01*
X-35117140Y4552003D01*
X-35117136Y4552006D01*
X-35116592Y4552298D01*
X-34995718Y4655337D01*
X-34903852Y4792278D01*
X-34869198Y4898996D01*
X-34845661Y4971482D01*
X-34845661Y4971484D01*
X-34845457Y4972111D01*
X-34825942Y5193155D01*
X-34821801Y5201095D01*
X-34814287Y5203826D01*
X-33568048Y5203826D01*
X-33559775Y5200399D01*
G37*
%TD.AperFunction*%
%TD*%
%TA.AperFunction,Conductor*%
%TO.N,/ROW0*%
G36*
X2939263Y-1303113D02*
G01*
X2942810Y-1305917D01*
X3750000Y-2250000D01*
X3250000Y-2834796D01*
X3248890Y-2836094D01*
X2942810Y-3194083D01*
X2934829Y-3198144D01*
X2930341Y-3197619D01*
X2675962Y-3115893D01*
X2449275Y-3048269D01*
X2247362Y-2995329D01*
X2247245Y-2995304D01*
X2060035Y-2955307D01*
X2060024Y-2955305D01*
X2059893Y-2955277D01*
X1876540Y-2926317D01*
X1686973Y-2906651D01*
X1686860Y-2906644D01*
X1686844Y-2906643D01*
X1541240Y-2898048D01*
X1480865Y-2894484D01*
X1247886Y-2888017D01*
X977707Y-2885454D01*
X671682Y-2885017D01*
X663415Y-2881578D01*
X660000Y-2873317D01*
X660000Y-1626683D01*
X663427Y-1618410D01*
X671682Y-1614983D01*
X977707Y-1614545D01*
X1247886Y-1611982D01*
X1480865Y-1605515D01*
X1541240Y-1601951D01*
X1686844Y-1593356D01*
X1686860Y-1593355D01*
X1686973Y-1593348D01*
X1876540Y-1573682D01*
X2059893Y-1544722D01*
X2060024Y-1544694D01*
X2060035Y-1544692D01*
X2247245Y-1504695D01*
X2247362Y-1504670D01*
X2449275Y-1451730D01*
X2675962Y-1384106D01*
X2930339Y-1302381D01*
X2939263Y-1303113D01*
G37*
%TD.AperFunction*%
%TD*%
%TA.AperFunction,Conductor*%
%TO.N,VCC*%
G36*
X12852932Y13447747D02*
G01*
X13022617Y13306935D01*
X13332326Y13049926D01*
X13336504Y13042005D01*
X13334909Y13034940D01*
X13035418Y12531500D01*
X13016484Y12499673D01*
X13009309Y12494315D01*
X13004848Y12494062D01*
X12873187Y12512016D01*
X12873167Y12512018D01*
X12873104Y12512027D01*
X12873013Y12512037D01*
X12873004Y12512038D01*
X12839416Y12515698D01*
X12750781Y12525358D01*
X12750648Y12525368D01*
X12750640Y12525369D01*
X12640414Y12533868D01*
X12640413Y12533868D01*
X12640323Y12533875D01*
X12536500Y12538444D01*
X12536438Y12538445D01*
X12536435Y12538445D01*
X12520680Y12538674D01*
X12434082Y12539933D01*
X12434035Y12539933D01*
X12388687Y12539623D01*
X12327839Y12539208D01*
X12212539Y12537136D01*
X12082953Y12534583D01*
X11992330Y12533266D01*
X11933897Y12532417D01*
X11933789Y12532416D01*
X11771762Y12531562D01*
X11763471Y12534945D01*
X11760000Y12543262D01*
X11760000Y13281712D01*
X11763427Y13289985D01*
X11771788Y13293412D01*
X11913378Y13292353D01*
X11913387Y13292353D01*
X11913486Y13292351D01*
X12046501Y13290129D01*
X12163240Y13288653D01*
X12163335Y13288654D01*
X12267311Y13289748D01*
X12267326Y13289748D01*
X12267469Y13289750D01*
X12267603Y13289758D01*
X12267612Y13289758D01*
X12362875Y13295236D01*
X12362880Y13295236D01*
X12363063Y13295247D01*
X12363241Y13295270D01*
X12363252Y13295271D01*
X12453641Y13306935D01*
X12453649Y13306936D01*
X12453894Y13306968D01*
X12454137Y13307021D01*
X12454146Y13307023D01*
X12543565Y13326679D01*
X12543838Y13326739D01*
X12636767Y13356386D01*
X12658351Y13365329D01*
X12736375Y13397658D01*
X12736385Y13397663D01*
X12736555Y13397733D01*
X12736730Y13397820D01*
X12736739Y13397824D01*
X12840258Y13449221D01*
X12849192Y13449831D01*
X12852932Y13447747D01*
G37*
%TD.AperFunction*%
%TD*%
%TA.AperFunction,Conductor*%
%TO.N,/COL0*%
G36*
X-3560854Y3196857D02*
G01*
X-3557058Y3193929D01*
X-3210927Y2789097D01*
X-2756501Y2257603D01*
X-2753730Y2249088D01*
X-2756501Y2242397D01*
X-3478668Y1397755D01*
X-3557057Y1306072D01*
X-3565038Y1302011D01*
X-3569792Y1302624D01*
X-3843290Y1397758D01*
X-3843627Y1397882D01*
X-4079983Y1488521D01*
X-4080193Y1488604D01*
X-4284451Y1571492D01*
X-4468786Y1645844D01*
X-4645335Y1710850D01*
X-4645503Y1710901D01*
X-4645512Y1710904D01*
X-4725551Y1735179D01*
X-4826348Y1765749D01*
X-5024072Y1809777D01*
X-5250757Y1842170D01*
X-5250931Y1842183D01*
X-5250940Y1842184D01*
X-5518514Y1862156D01*
X-5518519Y1862156D01*
X-5518650Y1862166D01*
X-5828550Y1868757D01*
X-5836747Y1872358D01*
X-5840000Y1880453D01*
X-5840000Y2619547D01*
X-5836573Y2627820D01*
X-5828550Y2631244D01*
X-5518650Y2637835D01*
X-5518519Y2637845D01*
X-5518514Y2637845D01*
X-5250940Y2657817D01*
X-5250931Y2657818D01*
X-5250757Y2657831D01*
X-5024072Y2690224D01*
X-4826348Y2734252D01*
X-4725551Y2764822D01*
X-4645512Y2789097D01*
X-4645503Y2789100D01*
X-4645335Y2789151D01*
X-4468786Y2854157D01*
X-4284451Y2928509D01*
X-4080189Y3011399D01*
X-4079983Y3011480D01*
X-3843627Y3102119D01*
X-3843282Y3102246D01*
X-3569793Y3197376D01*
X-3560854Y3196857D01*
G37*
%TD.AperFunction*%
%TD*%
%TA.AperFunction,Conductor*%
%TO.N,Net-(D2-Pad2)*%
G36*
X16642781Y9826573D02*
G01*
X16646206Y9818510D01*
X16651175Y9541737D01*
X16666508Y9300700D01*
X16691707Y9096125D01*
X16726484Y8917251D01*
X16770547Y8753315D01*
X16823606Y8593555D01*
X16823644Y8593454D01*
X16885371Y8427208D01*
X16955552Y8243513D01*
X16955596Y8243394D01*
X17033810Y8031834D01*
X17033901Y8031579D01*
X17117414Y7788548D01*
X17116862Y7779611D01*
X17113952Y7775853D01*
X16272603Y7056501D01*
X16264088Y7053730D01*
X16257397Y7056501D01*
X15416048Y7775853D01*
X15411987Y7783834D01*
X15412586Y7788548D01*
X15496098Y8031579D01*
X15496189Y8031834D01*
X15574403Y8243394D01*
X15574447Y8243513D01*
X15644628Y8427208D01*
X15706355Y8593454D01*
X15706393Y8593555D01*
X15759452Y8753315D01*
X15803515Y8917251D01*
X15838292Y9096125D01*
X15863491Y9300700D01*
X15878824Y9541737D01*
X15883794Y9818510D01*
X15887369Y9826720D01*
X15895492Y9830000D01*
X16634508Y9830000D01*
X16642781Y9826573D01*
G37*
%TD.AperFunction*%
%TD*%
%TA.AperFunction,Conductor*%
%TO.N,/ROW0*%
G36*
X-3885841Y-1819109D02*
G01*
X-3413178Y-1856056D01*
X-2896447Y-1896447D01*
X-2799043Y-3142545D01*
X-2866040Y-3176960D01*
X-2866042Y-3176961D01*
X-2866466Y-3177179D01*
X-2866469Y-3177180D01*
X-2939351Y-3214619D01*
X-3043628Y-3268185D01*
X-3043664Y-3268205D01*
X-3043688Y-3268217D01*
X-3251664Y-3380618D01*
X-3251685Y-3380630D01*
X-3251737Y-3380658D01*
X-3431945Y-3485998D01*
X-3592826Y-3590238D01*
X-3742955Y-3699410D01*
X-3890904Y-3819548D01*
X-4045248Y-3956685D01*
X-4214562Y-4116853D01*
X-4214621Y-4116910D01*
X-4323937Y-4224172D01*
X-4407419Y-4306086D01*
X-4407469Y-4306136D01*
X-4624120Y-4522169D01*
X-4632398Y-4525584D01*
X-4640654Y-4522157D01*
X-5522157Y-3640654D01*
X-5525584Y-3632381D01*
X-5522169Y-3624120D01*
X-5488464Y-3590319D01*
X-5306087Y-3407418D01*
X-5224173Y-3323936D01*
X-5116911Y-3214620D01*
X-5116854Y-3214561D01*
X-4956686Y-3045247D01*
X-4819549Y-2890903D01*
X-4699411Y-2742954D01*
X-4590239Y-2592825D01*
X-4485999Y-2431944D01*
X-4380659Y-2251736D01*
X-4380631Y-2251684D01*
X-4380619Y-2251663D01*
X-4268218Y-2043687D01*
X-4268206Y-2043663D01*
X-4268186Y-2043627D01*
X-4268137Y-2043532D01*
X-4146102Y-1805968D01*
X-4139274Y-1800175D01*
X-4134783Y-1799650D01*
X-3885841Y-1819109D01*
G37*
%TD.AperFunction*%
%TD*%
%TA.AperFunction,Conductor*%
%TO.N,/LED1*%
G36*
X-1554610Y8351862D02*
G01*
X-1550853Y8348952D01*
X-831501Y7507603D01*
X-828730Y7499088D01*
X-831501Y7492397D01*
X-1550853Y6651048D01*
X-1558834Y6646987D01*
X-1563548Y6647586D01*
X-1806579Y6731099D01*
X-1806834Y6731190D01*
X-2018394Y6809404D01*
X-2018513Y6809448D01*
X-2202169Y6879614D01*
X-2202208Y6879629D01*
X-2368555Y6941394D01*
X-2368642Y6941423D01*
X-2528166Y6994404D01*
X-2528180Y6994408D01*
X-2528315Y6994453D01*
X-2692251Y7038516D01*
X-2773426Y7054298D01*
X-2870933Y7073256D01*
X-2870942Y7073257D01*
X-2871125Y7073293D01*
X-3075700Y7098492D01*
X-3075885Y7098504D01*
X-3075898Y7098505D01*
X-3316591Y7113816D01*
X-3316604Y7113817D01*
X-3316737Y7113825D01*
X-3316857Y7113827D01*
X-3316877Y7113828D01*
X-3593510Y7118794D01*
X-3601720Y7122369D01*
X-3605000Y7130492D01*
X-3605000Y7869508D01*
X-3601573Y7877781D01*
X-3593510Y7881206D01*
X-3316877Y7886173D01*
X-3316857Y7886174D01*
X-3316737Y7886176D01*
X-3316604Y7886184D01*
X-3316591Y7886185D01*
X-3075898Y7901496D01*
X-3075885Y7901497D01*
X-3075700Y7901509D01*
X-2871125Y7926708D01*
X-2870942Y7926744D01*
X-2870933Y7926745D01*
X-2773426Y7945703D01*
X-2692251Y7961485D01*
X-2528315Y8005548D01*
X-2528180Y8005593D01*
X-2528166Y8005597D01*
X-2368642Y8058578D01*
X-2368638Y8058580D01*
X-2368555Y8058607D01*
X-2202208Y8120372D01*
X-2018513Y8190553D01*
X-2014771Y8191937D01*
X-1806834Y8268811D01*
X-1806579Y8268902D01*
X-1563548Y8352414D01*
X-1554610Y8351862D01*
G37*
%TD.AperFunction*%
%TD*%
%TA.AperFunction,Conductor*%
%TO.N,/LED2*%
G36*
X-8684591Y10203598D02*
G01*
X-8278919Y9640165D01*
X-8276866Y9631449D01*
X-8281578Y9623834D01*
X-8290294Y9621781D01*
X-8293841Y9622964D01*
X-8767127Y9870876D01*
X-8772865Y9877750D01*
X-8773138Y9883691D01*
X-8705526Y10199213D01*
X-8700442Y10206585D01*
X-8691635Y10208202D01*
X-8684591Y10203598D01*
G37*
%TD.AperFunction*%
%TD*%
%TA.AperFunction,Conductor*%
%TO.N,/COL2*%
G36*
X11939522Y5368279D02*
G01*
X11945182Y5361339D01*
X11945364Y5355297D01*
X11895738Y5144384D01*
X11852867Y4962184D01*
X11847636Y4954916D01*
X11838037Y4953681D01*
X11236804Y5138676D01*
X11229906Y5144384D01*
X11229063Y5153299D01*
X11234772Y5160198D01*
X11236884Y5161065D01*
X11904463Y5361339D01*
X11930613Y5369184D01*
X11939522Y5368279D01*
G37*
%TD.AperFunction*%
%TD*%
%TA.AperFunction,Conductor*%
%TO.N,/ROW0*%
G36*
X11439263Y-1303113D02*
G01*
X11442810Y-1305917D01*
X12243499Y-2242397D01*
X12246270Y-2250912D01*
X12243499Y-2257603D01*
X11442810Y-3194083D01*
X11434829Y-3198144D01*
X11430341Y-3197619D01*
X11175962Y-3115893D01*
X10949275Y-3048269D01*
X10747362Y-2995329D01*
X10747245Y-2995304D01*
X10560035Y-2955307D01*
X10560024Y-2955305D01*
X10559893Y-2955277D01*
X10376540Y-2926317D01*
X10186973Y-2906651D01*
X10186860Y-2906644D01*
X10186844Y-2906643D01*
X10041240Y-2898048D01*
X9980865Y-2894484D01*
X9747886Y-2888017D01*
X9477707Y-2885454D01*
X9171682Y-2885017D01*
X9163415Y-2881578D01*
X9160000Y-2873317D01*
X9160000Y-1626683D01*
X9163427Y-1618410D01*
X9171682Y-1614983D01*
X9477707Y-1614545D01*
X9747886Y-1611982D01*
X9980865Y-1605515D01*
X10041240Y-1601951D01*
X10186844Y-1593356D01*
X10186860Y-1593355D01*
X10186973Y-1593348D01*
X10376540Y-1573682D01*
X10559893Y-1544722D01*
X10560024Y-1544694D01*
X10560035Y-1544692D01*
X10747245Y-1504695D01*
X10747362Y-1504670D01*
X10949275Y-1451730D01*
X11175962Y-1384106D01*
X11430339Y-1302381D01*
X11439263Y-1303113D01*
G37*
%TD.AperFunction*%
%TD*%
%TA.AperFunction,Conductor*%
%TO.N,/COL1*%
G36*
X9887726Y4252728D02*
G01*
X10157673Y4226021D01*
X10160294Y4225453D01*
X10381719Y4150026D01*
X10384179Y4148852D01*
X10560456Y4037715D01*
X10562172Y4036396D01*
X10708148Y3901002D01*
X10708981Y3900147D01*
X10839167Y3752000D01*
X10967604Y3603408D01*
X11108405Y3466865D01*
X11108845Y3466570D01*
X11275483Y3354809D01*
X11275487Y3354807D01*
X11276070Y3354416D01*
X11276730Y3354175D01*
X11276732Y3354174D01*
X11484429Y3278357D01*
X11484431Y3278356D01*
X11485101Y3278112D01*
X11485810Y3278037D01*
X11485813Y3278036D01*
X11741959Y3250853D01*
X11749824Y3246572D01*
X11752044Y3242175D01*
X11985180Y2349632D01*
X12100019Y1909978D01*
X12098794Y1901107D01*
X12091656Y1895701D01*
X12089613Y1895357D01*
X11533002Y1851849D01*
X10866049Y1799715D01*
X10857534Y1802486D01*
X10854267Y1807051D01*
X10748227Y2073390D01*
X10747701Y2075070D01*
X10683911Y2349632D01*
X10683703Y2350784D01*
X10649020Y2619766D01*
X10648965Y2620283D01*
X10627437Y2876638D01*
X10603064Y3112725D01*
X10603062Y3112735D01*
X10603032Y3113030D01*
X10602969Y3113334D01*
X10559808Y3321557D01*
X10559807Y3321561D01*
X10559678Y3322182D01*
X10481280Y3497074D01*
X10351743Y3630687D01*
X10350686Y3631145D01*
X10350685Y3631146D01*
X10155788Y3715648D01*
X10155789Y3715648D01*
X10154972Y3716002D01*
X10154090Y3716096D01*
X10154088Y3716097D01*
X10032757Y3729091D01*
X9885327Y3744880D01*
X9877467Y3749168D01*
X9874874Y3756513D01*
X9874874Y4241085D01*
X9878301Y4249358D01*
X9886574Y4252785D01*
X9887726Y4252728D01*
G37*
%TD.AperFunction*%
%TD*%
%TA.AperFunction,Conductor*%
%TO.N,/COL1*%
G36*
X-13155461Y7977368D02*
G01*
X-13152505Y7973513D01*
X-13114045Y7892870D01*
X-13052163Y7763115D01*
X-13051952Y7762647D01*
X-12971927Y7573967D01*
X-12971786Y7573620D01*
X-12907387Y7407143D01*
X-12850684Y7256599D01*
X-12793764Y7115805D01*
X-12728648Y6978414D01*
X-12728533Y6978216D01*
X-12728527Y6978204D01*
X-12691324Y6913976D01*
X-12647360Y6838076D01*
X-12647207Y6837859D01*
X-12647202Y6837851D01*
X-12542058Y6688635D01*
X-12541922Y6688442D01*
X-12541776Y6688267D01*
X-12421447Y6543699D01*
X-12404356Y6523165D01*
X-12404233Y6523035D01*
X-12404230Y6523032D01*
X-12234529Y6344162D01*
X-12231321Y6335801D01*
X-12234744Y6327836D01*
X-12577836Y5984744D01*
X-12586109Y5981317D01*
X-12594162Y5984529D01*
X-12773032Y6154230D01*
X-12773035Y6154233D01*
X-12773165Y6154356D01*
X-12773297Y6154466D01*
X-12773305Y6154473D01*
X-12938267Y6291776D01*
X-12938442Y6291922D01*
X-12989410Y6327836D01*
X-13087851Y6397202D01*
X-13087859Y6397207D01*
X-13088076Y6397360D01*
X-13145087Y6430383D01*
X-13228204Y6478527D01*
X-13228216Y6478533D01*
X-13228414Y6478648D01*
X-13365805Y6543764D01*
X-13506599Y6600684D01*
X-13599690Y6635747D01*
X-13657092Y6657368D01*
X-13657189Y6657405D01*
X-13823620Y6721786D01*
X-13823967Y6721927D01*
X-14012647Y6801952D01*
X-14013115Y6802163D01*
X-14087946Y6837851D01*
X-14223512Y6902505D01*
X-14229504Y6909158D01*
X-14230139Y6913976D01*
X-14153621Y7892871D01*
X-14149561Y7900851D01*
X-14142872Y7903621D01*
X-13163975Y7980139D01*
X-13155461Y7977368D01*
G37*
%TD.AperFunction*%
%TD*%
%TA.AperFunction,Conductor*%
%TO.N,VCC*%
G36*
X3925595Y13416100D02*
G01*
X3928572Y13412770D01*
X4027155Y13247361D01*
X4027157Y13247359D01*
X4252559Y12869169D01*
X3976788Y12639941D01*
X3826034Y12514630D01*
X3765800Y12464562D01*
X3757247Y12461909D01*
X3753126Y12463077D01*
X3649095Y12514630D01*
X3549020Y12556024D01*
X3455835Y12585705D01*
X3400416Y12597870D01*
X3365896Y12605448D01*
X3365893Y12605448D01*
X3365654Y12605501D01*
X3365411Y12605532D01*
X3365407Y12605533D01*
X3329711Y12610134D01*
X3274590Y12617238D01*
X3274402Y12617249D01*
X3274400Y12617249D01*
X3178901Y12622737D01*
X3178888Y12622737D01*
X3178756Y12622745D01*
X3178610Y12622747D01*
X3178596Y12622747D01*
X3074362Y12623846D01*
X3074267Y12623847D01*
X2963588Y12622453D01*
X2957236Y12622373D01*
X2823883Y12620150D01*
X2823775Y12620148D01*
X2681787Y12619088D01*
X2673489Y12622453D01*
X2670000Y12630788D01*
X2670000Y13369237D01*
X2673427Y13377510D01*
X2681763Y13380937D01*
X2844074Y13380069D01*
X2844184Y13380068D01*
X2922117Y13378916D01*
X2993495Y13377860D01*
X3123302Y13375251D01*
X3238800Y13373117D01*
X3296187Y13372696D01*
X3345179Y13372337D01*
X3345226Y13372337D01*
X3423696Y13373446D01*
X3447753Y13373786D01*
X3447758Y13373786D01*
X3447818Y13373787D01*
X3551814Y13378343D01*
X3551926Y13378352D01*
X3551932Y13378352D01*
X3662362Y13386877D01*
X3662366Y13386877D01*
X3662452Y13386884D01*
X3662521Y13386892D01*
X3662526Y13386892D01*
X3784947Y13400282D01*
X3784992Y13400288D01*
X3916933Y13418372D01*
X3925595Y13416100D01*
G37*
%TD.AperFunction*%
%TD*%
M02*
