%TF.GenerationSoftware,KiCad,Pcbnew,7.0.6*%
%TF.CreationDate,2023-10-10T18:16:10-07:00*%
%TF.ProjectId,Foot Pedal PCB,466f6f74-2050-4656-9461-6c205043422e,B*%
%TF.SameCoordinates,PX8917370PY68e7780*%
%TF.FileFunction,Legend,Top*%
%TF.FilePolarity,Positive*%
%FSLAX46Y46*%
G04 Gerber Fmt 4.6, Leading zero omitted, Abs format (unit mm)*
G04 Created by KiCad (PCBNEW 7.0.6) date 2023-10-10 18:16:10*
%MOMM*%
%LPD*%
G01*
G04 APERTURE LIST*
%ADD10C,0.300000*%
%ADD11C,0.150000*%
%ADD12C,0.250000*%
%ADD13C,0.120000*%
%ADD14R,1.600000X1.600000*%
%ADD15C,1.600000*%
%TA.AperFunction,Profile*%
%ADD16C,0.200000*%
%TD*%
G04 APERTURE END LIST*
D10*
X21928328Y-3035714D02*
X23428328Y-2678571D01*
X23428328Y-2678571D02*
X22356900Y-2392857D01*
X22356900Y-2392857D02*
X23428328Y-2107142D01*
X23428328Y-2107142D02*
X21928328Y-1750000D01*
X23428328Y821429D02*
X22714042Y321429D01*
X23428328Y-35714D02*
X21928328Y-35714D01*
X21928328Y-35714D02*
X21928328Y535715D01*
X21928328Y535715D02*
X21999757Y678572D01*
X21999757Y678572D02*
X22071185Y750001D01*
X22071185Y750001D02*
X22214042Y821429D01*
X22214042Y821429D02*
X22428328Y821429D01*
X22428328Y821429D02*
X22571185Y750001D01*
X22571185Y750001D02*
X22642614Y678572D01*
X22642614Y678572D02*
X22714042Y535715D01*
X22714042Y535715D02*
X22714042Y-35714D01*
X23428328Y2607143D02*
X21928328Y2607143D01*
X23428328Y3464286D02*
X22571185Y2821429D01*
X21928328Y3464286D02*
X22785471Y2607143D01*
D11*
X-26011905Y10545181D02*
X-26011905Y9735658D01*
X-26011905Y9735658D02*
X-25964286Y9640420D01*
X-25964286Y9640420D02*
X-25916667Y9592800D01*
X-25916667Y9592800D02*
X-25821429Y9545181D01*
X-25821429Y9545181D02*
X-25630953Y9545181D01*
X-25630953Y9545181D02*
X-25535715Y9592800D01*
X-25535715Y9592800D02*
X-25488096Y9640420D01*
X-25488096Y9640420D02*
X-25440477Y9735658D01*
X-25440477Y9735658D02*
X-25440477Y10545181D01*
X-24440477Y9545181D02*
X-25011905Y9545181D01*
X-24726191Y9545181D02*
X-24726191Y10545181D01*
X-24726191Y10545181D02*
X-24821429Y10402324D01*
X-24821429Y10402324D02*
X-24916667Y10307086D01*
X-24916667Y10307086D02*
X-25011905Y10259467D01*
D10*
X-8428574Y-13659638D02*
X-8428574Y-11659638D01*
X-8428574Y-12421542D02*
X-8238098Y-12326304D01*
X-8238098Y-12326304D02*
X-7857145Y-12326304D01*
X-7857145Y-12326304D02*
X-7666669Y-12421542D01*
X-7666669Y-12421542D02*
X-7571431Y-12516780D01*
X-7571431Y-12516780D02*
X-7476193Y-12707257D01*
X-7476193Y-12707257D02*
X-7476193Y-13278685D01*
X-7476193Y-13278685D02*
X-7571431Y-13469161D01*
X-7571431Y-13469161D02*
X-7666669Y-13564400D01*
X-7666669Y-13564400D02*
X-7857145Y-13659638D01*
X-7857145Y-13659638D02*
X-8238098Y-13659638D01*
X-8238098Y-13659638D02*
X-8428574Y-13564400D01*
X-6333336Y-13659638D02*
X-6523812Y-13564400D01*
X-6523812Y-13564400D02*
X-6619050Y-13373923D01*
X-6619050Y-13373923D02*
X-6619050Y-11659638D01*
X-4714288Y-12326304D02*
X-4714288Y-13659638D01*
X-5571431Y-12326304D02*
X-5571431Y-13373923D01*
X-5571431Y-13373923D02*
X-5476193Y-13564400D01*
X-5476193Y-13564400D02*
X-5285717Y-13659638D01*
X-5285717Y-13659638D02*
X-5000002Y-13659638D01*
X-5000002Y-13659638D02*
X-4809526Y-13564400D01*
X-4809526Y-13564400D02*
X-4714288Y-13469161D01*
X-2428573Y-12326304D02*
X-1952383Y-13659638D01*
X-1952383Y-13659638D02*
X-1476192Y-12326304D01*
X-714287Y-13659638D02*
X-714287Y-12326304D01*
X-714287Y-11659638D02*
X-809525Y-11754876D01*
X-809525Y-11754876D02*
X-714287Y-11850114D01*
X-714287Y-11850114D02*
X-619049Y-11754876D01*
X-619049Y-11754876D02*
X-714287Y-11659638D01*
X-714287Y-11659638D02*
X-714287Y-11850114D01*
X238094Y-13659638D02*
X238094Y-12326304D01*
X238094Y-12516780D02*
X333332Y-12421542D01*
X333332Y-12421542D02*
X523808Y-12326304D01*
X523808Y-12326304D02*
X809523Y-12326304D01*
X809523Y-12326304D02*
X999999Y-12421542D01*
X999999Y-12421542D02*
X1095237Y-12612019D01*
X1095237Y-12612019D02*
X1095237Y-13659638D01*
X1095237Y-12612019D02*
X1190475Y-12421542D01*
X1190475Y-12421542D02*
X1380951Y-12326304D01*
X1380951Y-12326304D02*
X1666665Y-12326304D01*
X1666665Y-12326304D02*
X1857142Y-12421542D01*
X1857142Y-12421542D02*
X1952380Y-12612019D01*
X1952380Y-12612019D02*
X1952380Y-13659638D01*
X3761904Y-13564400D02*
X3571428Y-13659638D01*
X3571428Y-13659638D02*
X3190475Y-13659638D01*
X3190475Y-13659638D02*
X2999999Y-13564400D01*
X2999999Y-13564400D02*
X2904761Y-13469161D01*
X2904761Y-13469161D02*
X2809523Y-13278685D01*
X2809523Y-13278685D02*
X2809523Y-12707257D01*
X2809523Y-12707257D02*
X2904761Y-12516780D01*
X2904761Y-12516780D02*
X2999999Y-12421542D01*
X2999999Y-12421542D02*
X3190475Y-12326304D01*
X3190475Y-12326304D02*
X3571428Y-12326304D01*
X3571428Y-12326304D02*
X3761904Y-12421542D01*
X4904761Y-13659638D02*
X4714285Y-13564400D01*
X4714285Y-13564400D02*
X4619047Y-13373923D01*
X4619047Y-13373923D02*
X4619047Y-11659638D01*
X6523809Y-12326304D02*
X6523809Y-13659638D01*
X5666666Y-12326304D02*
X5666666Y-13373923D01*
X5666666Y-13373923D02*
X5761904Y-13564400D01*
X5761904Y-13564400D02*
X5952380Y-13659638D01*
X5952380Y-13659638D02*
X6238095Y-13659638D01*
X6238095Y-13659638D02*
X6428571Y-13564400D01*
X6428571Y-13564400D02*
X6523809Y-13469161D01*
X7190476Y-12326304D02*
X7952380Y-12326304D01*
X7476190Y-11659638D02*
X7476190Y-13373923D01*
X7476190Y-13373923D02*
X7571428Y-13564400D01*
X7571428Y-13564400D02*
X7761904Y-13659638D01*
X7761904Y-13659638D02*
X7952380Y-13659638D01*
X9476190Y-13564400D02*
X9285714Y-13659638D01*
X9285714Y-13659638D02*
X8904761Y-13659638D01*
X8904761Y-13659638D02*
X8714285Y-13564400D01*
X8714285Y-13564400D02*
X8619047Y-13469161D01*
X8619047Y-13469161D02*
X8523809Y-13278685D01*
X8523809Y-13278685D02*
X8523809Y-12707257D01*
X8523809Y-12707257D02*
X8619047Y-12516780D01*
X8619047Y-12516780D02*
X8714285Y-12421542D01*
X8714285Y-12421542D02*
X8904761Y-12326304D01*
X8904761Y-12326304D02*
X9285714Y-12326304D01*
X9285714Y-12326304D02*
X9476190Y-12421542D01*
X10333333Y-13659638D02*
X10333333Y-11659638D01*
X11190476Y-13659638D02*
X11190476Y-12612019D01*
X11190476Y-12612019D02*
X11095238Y-12421542D01*
X11095238Y-12421542D02*
X10904762Y-12326304D01*
X10904762Y-12326304D02*
X10619047Y-12326304D01*
X10619047Y-12326304D02*
X10428571Y-12421542D01*
X10428571Y-12421542D02*
X10333333Y-12516780D01*
X14809524Y-13659638D02*
X14142857Y-12707257D01*
X13666667Y-13659638D02*
X13666667Y-11659638D01*
X13666667Y-11659638D02*
X14428572Y-11659638D01*
X14428572Y-11659638D02*
X14619048Y-11754876D01*
X14619048Y-11754876D02*
X14714286Y-11850114D01*
X14714286Y-11850114D02*
X14809524Y-12040590D01*
X14809524Y-12040590D02*
X14809524Y-12326304D01*
X14809524Y-12326304D02*
X14714286Y-12516780D01*
X14714286Y-12516780D02*
X14619048Y-12612019D01*
X14619048Y-12612019D02*
X14428572Y-12707257D01*
X14428572Y-12707257D02*
X13666667Y-12707257D01*
X16428572Y-13564400D02*
X16238096Y-13659638D01*
X16238096Y-13659638D02*
X15857143Y-13659638D01*
X15857143Y-13659638D02*
X15666667Y-13564400D01*
X15666667Y-13564400D02*
X15571429Y-13373923D01*
X15571429Y-13373923D02*
X15571429Y-12612019D01*
X15571429Y-12612019D02*
X15666667Y-12421542D01*
X15666667Y-12421542D02*
X15857143Y-12326304D01*
X15857143Y-12326304D02*
X16238096Y-12326304D01*
X16238096Y-12326304D02*
X16428572Y-12421542D01*
X16428572Y-12421542D02*
X16523810Y-12612019D01*
X16523810Y-12612019D02*
X16523810Y-12802495D01*
X16523810Y-12802495D02*
X15571429Y-12992971D01*
X17190477Y-12326304D02*
X17666667Y-13659638D01*
X17666667Y-13659638D02*
X18142858Y-12326304D01*
X18904763Y-13469161D02*
X19000001Y-13564400D01*
X19000001Y-13564400D02*
X18904763Y-13659638D01*
X18904763Y-13659638D02*
X18809525Y-13564400D01*
X18809525Y-13564400D02*
X18904763Y-13469161D01*
X18904763Y-13469161D02*
X18904763Y-13659638D01*
X22047621Y-12612019D02*
X22333335Y-12707257D01*
X22333335Y-12707257D02*
X22428573Y-12802495D01*
X22428573Y-12802495D02*
X22523811Y-12992971D01*
X22523811Y-12992971D02*
X22523811Y-13278685D01*
X22523811Y-13278685D02*
X22428573Y-13469161D01*
X22428573Y-13469161D02*
X22333335Y-13564400D01*
X22333335Y-13564400D02*
X22142859Y-13659638D01*
X22142859Y-13659638D02*
X21380954Y-13659638D01*
X21380954Y-13659638D02*
X21380954Y-11659638D01*
X21380954Y-11659638D02*
X22047621Y-11659638D01*
X22047621Y-11659638D02*
X22238097Y-11754876D01*
X22238097Y-11754876D02*
X22333335Y-11850114D01*
X22333335Y-11850114D02*
X22428573Y-12040590D01*
X22428573Y-12040590D02*
X22428573Y-12231066D01*
X22428573Y-12231066D02*
X22333335Y-12421542D01*
X22333335Y-12421542D02*
X22238097Y-12516780D01*
X22238097Y-12516780D02*
X22047621Y-12612019D01*
X22047621Y-12612019D02*
X21380954Y-12612019D01*
D12*
X27785716Y-145214D02*
X27385716Y-145214D01*
X27385716Y-930928D02*
X27385716Y569072D01*
X27385716Y569072D02*
X27957144Y569072D01*
X28585715Y-930928D02*
X28471430Y-859500D01*
X28471430Y-859500D02*
X28414287Y-788071D01*
X28414287Y-788071D02*
X28357144Y-645214D01*
X28357144Y-645214D02*
X28357144Y-216642D01*
X28357144Y-216642D02*
X28414287Y-73785D01*
X28414287Y-73785D02*
X28471430Y-2357D01*
X28471430Y-2357D02*
X28585715Y69072D01*
X28585715Y69072D02*
X28757144Y69072D01*
X28757144Y69072D02*
X28871430Y-2357D01*
X28871430Y-2357D02*
X28928573Y-73785D01*
X28928573Y-73785D02*
X28985715Y-216642D01*
X28985715Y-216642D02*
X28985715Y-645214D01*
X28985715Y-645214D02*
X28928573Y-788071D01*
X28928573Y-788071D02*
X28871430Y-859500D01*
X28871430Y-859500D02*
X28757144Y-930928D01*
X28757144Y-930928D02*
X28585715Y-930928D01*
X29671429Y-930928D02*
X29557144Y-859500D01*
X29557144Y-859500D02*
X29500001Y-788071D01*
X29500001Y-788071D02*
X29442858Y-645214D01*
X29442858Y-645214D02*
X29442858Y-216642D01*
X29442858Y-216642D02*
X29500001Y-73785D01*
X29500001Y-73785D02*
X29557144Y-2357D01*
X29557144Y-2357D02*
X29671429Y69072D01*
X29671429Y69072D02*
X29842858Y69072D01*
X29842858Y69072D02*
X29957144Y-2357D01*
X29957144Y-2357D02*
X30014287Y-73785D01*
X30014287Y-73785D02*
X30071429Y-216642D01*
X30071429Y-216642D02*
X30071429Y-645214D01*
X30071429Y-645214D02*
X30014287Y-788071D01*
X30014287Y-788071D02*
X29957144Y-859500D01*
X29957144Y-859500D02*
X29842858Y-930928D01*
X29842858Y-930928D02*
X29671429Y-930928D01*
X30414286Y69072D02*
X30871429Y69072D01*
X30585715Y569072D02*
X30585715Y-716642D01*
X30585715Y-716642D02*
X30642858Y-859500D01*
X30642858Y-859500D02*
X30757143Y-930928D01*
X30757143Y-930928D02*
X30871429Y-930928D01*
X32185715Y-930928D02*
X32185715Y569072D01*
X32185715Y569072D02*
X32642858Y569072D01*
X32642858Y569072D02*
X32757143Y497643D01*
X32757143Y497643D02*
X32814286Y426215D01*
X32814286Y426215D02*
X32871429Y283358D01*
X32871429Y283358D02*
X32871429Y69072D01*
X32871429Y69072D02*
X32814286Y-73785D01*
X32814286Y-73785D02*
X32757143Y-145214D01*
X32757143Y-145214D02*
X32642858Y-216642D01*
X32642858Y-216642D02*
X32185715Y-216642D01*
X33842858Y-859500D02*
X33728572Y-930928D01*
X33728572Y-930928D02*
X33500001Y-930928D01*
X33500001Y-930928D02*
X33385715Y-859500D01*
X33385715Y-859500D02*
X33328572Y-716642D01*
X33328572Y-716642D02*
X33328572Y-145214D01*
X33328572Y-145214D02*
X33385715Y-2357D01*
X33385715Y-2357D02*
X33500001Y69072D01*
X33500001Y69072D02*
X33728572Y69072D01*
X33728572Y69072D02*
X33842858Y-2357D01*
X33842858Y-2357D02*
X33900001Y-145214D01*
X33900001Y-145214D02*
X33900001Y-288071D01*
X33900001Y-288071D02*
X33328572Y-430928D01*
X34928572Y-930928D02*
X34928572Y569072D01*
X34928572Y-859500D02*
X34814286Y-930928D01*
X34814286Y-930928D02*
X34585714Y-930928D01*
X34585714Y-930928D02*
X34471429Y-859500D01*
X34471429Y-859500D02*
X34414286Y-788071D01*
X34414286Y-788071D02*
X34357143Y-645214D01*
X34357143Y-645214D02*
X34357143Y-216642D01*
X34357143Y-216642D02*
X34414286Y-73785D01*
X34414286Y-73785D02*
X34471429Y-2357D01*
X34471429Y-2357D02*
X34585714Y69072D01*
X34585714Y69072D02*
X34814286Y69072D01*
X34814286Y69072D02*
X34928572Y-2357D01*
X36014286Y-930928D02*
X36014286Y-145214D01*
X36014286Y-145214D02*
X35957143Y-2357D01*
X35957143Y-2357D02*
X35842857Y69072D01*
X35842857Y69072D02*
X35614286Y69072D01*
X35614286Y69072D02*
X35500000Y-2357D01*
X36014286Y-859500D02*
X35900000Y-930928D01*
X35900000Y-930928D02*
X35614286Y-930928D01*
X35614286Y-930928D02*
X35500000Y-859500D01*
X35500000Y-859500D02*
X35442857Y-716642D01*
X35442857Y-716642D02*
X35442857Y-573785D01*
X35442857Y-573785D02*
X35500000Y-430928D01*
X35500000Y-430928D02*
X35614286Y-359500D01*
X35614286Y-359500D02*
X35900000Y-359500D01*
X35900000Y-359500D02*
X36014286Y-288071D01*
X36757142Y-930928D02*
X36642857Y-859500D01*
X36642857Y-859500D02*
X36585714Y-716642D01*
X36585714Y-716642D02*
X36585714Y569072D01*
X38128571Y-930928D02*
X38128571Y569072D01*
X38128571Y-145214D02*
X38814285Y-145214D01*
X38814285Y-930928D02*
X38814285Y569072D01*
X39842857Y-859500D02*
X39728571Y-930928D01*
X39728571Y-930928D02*
X39500000Y-930928D01*
X39500000Y-930928D02*
X39385714Y-859500D01*
X39385714Y-859500D02*
X39328571Y-716642D01*
X39328571Y-716642D02*
X39328571Y-145214D01*
X39328571Y-145214D02*
X39385714Y-2357D01*
X39385714Y-2357D02*
X39500000Y69072D01*
X39500000Y69072D02*
X39728571Y69072D01*
X39728571Y69072D02*
X39842857Y-2357D01*
X39842857Y-2357D02*
X39900000Y-145214D01*
X39900000Y-145214D02*
X39900000Y-288071D01*
X39900000Y-288071D02*
X39328571Y-430928D01*
X40414285Y-930928D02*
X40414285Y69072D01*
X40414285Y-216642D02*
X40471428Y-73785D01*
X40471428Y-73785D02*
X40528571Y-2357D01*
X40528571Y-2357D02*
X40642856Y69072D01*
X40642856Y69072D02*
X40757142Y69072D01*
X41614285Y-859500D02*
X41499999Y-930928D01*
X41499999Y-930928D02*
X41271428Y-930928D01*
X41271428Y-930928D02*
X41157142Y-859500D01*
X41157142Y-859500D02*
X41099999Y-716642D01*
X41099999Y-716642D02*
X41099999Y-145214D01*
X41099999Y-145214D02*
X41157142Y-2357D01*
X41157142Y-2357D02*
X41271428Y69072D01*
X41271428Y69072D02*
X41499999Y69072D01*
X41499999Y69072D02*
X41614285Y-2357D01*
X41614285Y-2357D02*
X41671428Y-145214D01*
X41671428Y-145214D02*
X41671428Y-288071D01*
X41671428Y-288071D02*
X41099999Y-430928D01*
D11*
X24666666Y4605181D02*
X24666666Y3890896D01*
X24666666Y3890896D02*
X24619047Y3748039D01*
X24619047Y3748039D02*
X24523809Y3652800D01*
X24523809Y3652800D02*
X24380952Y3605181D01*
X24380952Y3605181D02*
X24285714Y3605181D01*
X25666666Y3605181D02*
X25095238Y3605181D01*
X25380952Y3605181D02*
X25380952Y4605181D01*
X25380952Y4605181D02*
X25285714Y4462324D01*
X25285714Y4462324D02*
X25190476Y4367086D01*
X25190476Y4367086D02*
X25095238Y4319467D01*
X-743095Y11005181D02*
X-743095Y12005181D01*
X-743095Y12005181D02*
X-505000Y12005181D01*
X-505000Y12005181D02*
X-362143Y11957562D01*
X-362143Y11957562D02*
X-266905Y11862324D01*
X-266905Y11862324D02*
X-219286Y11767086D01*
X-219286Y11767086D02*
X-171667Y11576610D01*
X-171667Y11576610D02*
X-171667Y11433753D01*
X-171667Y11433753D02*
X-219286Y11243277D01*
X-219286Y11243277D02*
X-266905Y11148039D01*
X-266905Y11148039D02*
X-362143Y11052800D01*
X-362143Y11052800D02*
X-505000Y11005181D01*
X-505000Y11005181D02*
X-743095Y11005181D01*
X780714Y11005181D02*
X209286Y11005181D01*
X495000Y11005181D02*
X495000Y12005181D01*
X495000Y12005181D02*
X399762Y11862324D01*
X399762Y11862324D02*
X304524Y11767086D01*
X304524Y11767086D02*
X209286Y11719467D01*
X14256905Y11005181D02*
X14256905Y12005181D01*
X14256905Y12005181D02*
X14495000Y12005181D01*
X14495000Y12005181D02*
X14637857Y11957562D01*
X14637857Y11957562D02*
X14733095Y11862324D01*
X14733095Y11862324D02*
X14780714Y11767086D01*
X14780714Y11767086D02*
X14828333Y11576610D01*
X14828333Y11576610D02*
X14828333Y11433753D01*
X14828333Y11433753D02*
X14780714Y11243277D01*
X14780714Y11243277D02*
X14733095Y11148039D01*
X14733095Y11148039D02*
X14637857Y11052800D01*
X14637857Y11052800D02*
X14495000Y11005181D01*
X14495000Y11005181D02*
X14256905Y11005181D01*
X15209286Y11909943D02*
X15256905Y11957562D01*
X15256905Y11957562D02*
X15352143Y12005181D01*
X15352143Y12005181D02*
X15590238Y12005181D01*
X15590238Y12005181D02*
X15685476Y11957562D01*
X15685476Y11957562D02*
X15733095Y11909943D01*
X15733095Y11909943D02*
X15780714Y11814705D01*
X15780714Y11814705D02*
X15780714Y11719467D01*
X15780714Y11719467D02*
X15733095Y11576610D01*
X15733095Y11576610D02*
X15161667Y11005181D01*
X15161667Y11005181D02*
X15780714Y11005181D01*
X-1333333Y-4657200D02*
X-1190476Y-4704819D01*
X-1190476Y-4704819D02*
X-952381Y-4704819D01*
X-952381Y-4704819D02*
X-857143Y-4657200D01*
X-857143Y-4657200D02*
X-809524Y-4609580D01*
X-809524Y-4609580D02*
X-761905Y-4514342D01*
X-761905Y-4514342D02*
X-761905Y-4419104D01*
X-761905Y-4419104D02*
X-809524Y-4323866D01*
X-809524Y-4323866D02*
X-857143Y-4276247D01*
X-857143Y-4276247D02*
X-952381Y-4228628D01*
X-952381Y-4228628D02*
X-1142857Y-4181009D01*
X-1142857Y-4181009D02*
X-1238095Y-4133390D01*
X-1238095Y-4133390D02*
X-1285714Y-4085771D01*
X-1285714Y-4085771D02*
X-1333333Y-3990533D01*
X-1333333Y-3990533D02*
X-1333333Y-3895295D01*
X-1333333Y-3895295D02*
X-1285714Y-3800057D01*
X-1285714Y-3800057D02*
X-1238095Y-3752438D01*
X-1238095Y-3752438D02*
X-1142857Y-3704819D01*
X-1142857Y-3704819D02*
X-904762Y-3704819D01*
X-904762Y-3704819D02*
X-761905Y-3752438D01*
X-428571Y-3704819D02*
X-190476Y-4704819D01*
X-190476Y-4704819D02*
X0Y-3990533D01*
X0Y-3990533D02*
X190476Y-4704819D01*
X190476Y-4704819D02*
X428572Y-3704819D01*
X761905Y-3800057D02*
X809524Y-3752438D01*
X809524Y-3752438D02*
X904762Y-3704819D01*
X904762Y-3704819D02*
X1142857Y-3704819D01*
X1142857Y-3704819D02*
X1238095Y-3752438D01*
X1238095Y-3752438D02*
X1285714Y-3800057D01*
X1285714Y-3800057D02*
X1333333Y-3895295D01*
X1333333Y-3895295D02*
X1333333Y-3990533D01*
X1333333Y-3990533D02*
X1285714Y-4133390D01*
X1285714Y-4133390D02*
X714286Y-4704819D01*
X714286Y-4704819D02*
X1333333Y-4704819D01*
X13916667Y-4657200D02*
X14059524Y-4704819D01*
X14059524Y-4704819D02*
X14297619Y-4704819D01*
X14297619Y-4704819D02*
X14392857Y-4657200D01*
X14392857Y-4657200D02*
X14440476Y-4609580D01*
X14440476Y-4609580D02*
X14488095Y-4514342D01*
X14488095Y-4514342D02*
X14488095Y-4419104D01*
X14488095Y-4419104D02*
X14440476Y-4323866D01*
X14440476Y-4323866D02*
X14392857Y-4276247D01*
X14392857Y-4276247D02*
X14297619Y-4228628D01*
X14297619Y-4228628D02*
X14107143Y-4181009D01*
X14107143Y-4181009D02*
X14011905Y-4133390D01*
X14011905Y-4133390D02*
X13964286Y-4085771D01*
X13964286Y-4085771D02*
X13916667Y-3990533D01*
X13916667Y-3990533D02*
X13916667Y-3895295D01*
X13916667Y-3895295D02*
X13964286Y-3800057D01*
X13964286Y-3800057D02*
X14011905Y-3752438D01*
X14011905Y-3752438D02*
X14107143Y-3704819D01*
X14107143Y-3704819D02*
X14345238Y-3704819D01*
X14345238Y-3704819D02*
X14488095Y-3752438D01*
X14821429Y-3704819D02*
X15059524Y-4704819D01*
X15059524Y-4704819D02*
X15250000Y-3990533D01*
X15250000Y-3990533D02*
X15440476Y-4704819D01*
X15440476Y-4704819D02*
X15678572Y-3704819D01*
X15964286Y-3704819D02*
X16583333Y-3704819D01*
X16583333Y-3704819D02*
X16250000Y-4085771D01*
X16250000Y-4085771D02*
X16392857Y-4085771D01*
X16392857Y-4085771D02*
X16488095Y-4133390D01*
X16488095Y-4133390D02*
X16535714Y-4181009D01*
X16535714Y-4181009D02*
X16583333Y-4276247D01*
X16583333Y-4276247D02*
X16583333Y-4514342D01*
X16583333Y-4514342D02*
X16535714Y-4609580D01*
X16535714Y-4609580D02*
X16488095Y-4657200D01*
X16488095Y-4657200D02*
X16392857Y-4704819D01*
X16392857Y-4704819D02*
X16107143Y-4704819D01*
X16107143Y-4704819D02*
X16011905Y-4657200D01*
X16011905Y-4657200D02*
X15964286Y-4609580D01*
D13*
%TO.C,J1*%
X23940000Y3060000D02*
X25000000Y3060000D01*
X23940000Y2000000D02*
X23940000Y3060000D01*
X23940000Y1000000D02*
X23940000Y-3060000D01*
X23940000Y1000000D02*
X26060000Y1000000D01*
X23940000Y-3060000D02*
X26060000Y-3060000D01*
X26060000Y1000000D02*
X26060000Y-3060000D01*
%TO.C,D1*%
X-2565000Y9045000D02*
X-2565000Y5955000D01*
X2984999Y7499538D02*
G75*
G03*
X-2564999Y9044830I-2989999J462D01*
G01*
X-2565000Y5955170D02*
G75*
G03*
X2985000Y7500462I2560000J1544830D01*
G01*
X2495000Y7500000D02*
G75*
G03*
X2495000Y7500000I-2500000J0D01*
G01*
%TO.C,D2*%
X12435000Y9045000D02*
X12435000Y5955000D01*
X17984999Y7499538D02*
G75*
G03*
X12435001Y9044830I-2989999J462D01*
G01*
X12435000Y5955170D02*
G75*
G03*
X17985000Y7500462I2560000J1544830D01*
G01*
X17495000Y7500000D02*
G75*
G03*
X17495000Y7500000I-2500000J0D01*
G01*
%TO.C,SW2*%
X-3500000Y750000D02*
X-3500000Y-750000D01*
X-2250000Y-3250000D02*
X2250000Y-3250000D01*
X2250000Y3250000D02*
X-2250000Y3250000D01*
X3500000Y-750000D02*
X3500000Y750000D01*
D11*
%TO.C,U1*%
X-43080000Y3810000D02*
X-40540000Y3810000D01*
X-43080000Y-3810000D02*
X-43080000Y3810000D01*
X-40540000Y8890000D02*
X-10060000Y8890000D01*
X-40540000Y3810000D02*
X-40540000Y8890000D01*
X-40540000Y-3810000D02*
X-43080000Y-3810000D01*
X-40540000Y-8890000D02*
X-40540000Y-3810000D01*
X-40540000Y-8890000D02*
X-10060000Y-8890000D01*
X-10060000Y8890000D02*
X-10060000Y-8890000D01*
D13*
%TO.C,SW3*%
X11500000Y750000D02*
X11500000Y-750000D01*
X12750000Y-3250000D02*
X17250000Y-3250000D01*
X17250000Y3250000D02*
X12750000Y3250000D01*
X18500000Y-750000D02*
X18500000Y750000D01*
%TD*%
D14*
%TO.C,U1*%
X-39270000Y-7620000D03*
D15*
X-36730000Y-7620000D03*
X-34190000Y-7620000D03*
X-31650000Y-7620000D03*
X-29110000Y-7620000D03*
X-26570000Y-7620000D03*
X-24030000Y-7620000D03*
X-21490000Y-7620000D03*
X-18950000Y-7620000D03*
X-16410000Y-7620000D03*
X-13870000Y-7620000D03*
X-11330000Y-7620000D03*
X-11330000Y7620000D03*
X-13870000Y7620000D03*
X-16410000Y7620000D03*
X-18950000Y7620000D03*
X-21490000Y7620000D03*
X-24030000Y7620000D03*
X-26570000Y7620000D03*
X-29110000Y7620000D03*
X-31650000Y7620000D03*
X-34190000Y7620000D03*
X-36730000Y7620000D03*
X-39270000Y7620000D03*
%TD*%
D16*
X-43000000Y12000000D02*
X-43000000Y9000000D01*
X43000000Y-9000000D02*
X43000000Y-12000000D01*
X40000000Y15000000D02*
X-40000000Y15000000D01*
X43000000Y12000000D02*
G75*
G03*
X40000000Y15000000I-3000000J0D01*
G01*
X-43000000Y-12000000D02*
G75*
G03*
X-40000000Y-15000000I3000000J0D01*
G01*
X43000000Y9000000D02*
X43000000Y-9000000D01*
X43000000Y9000000D02*
X43000000Y12000000D01*
X40000000Y-15000000D02*
X-40000000Y-15000000D01*
X-43000000Y-12000000D02*
X-43000000Y-9000000D01*
X-40000000Y15000000D02*
G75*
G03*
X-43000000Y12000000I0J-3000000D01*
G01*
X-43000000Y-9000000D02*
X-43000000Y9000000D01*
X40000000Y-15000000D02*
G75*
G03*
X43000000Y-12000000I0J3000000D01*
G01*
M02*
