%TF.GenerationSoftware,KiCad,Pcbnew,(6.0.7)*%
%TF.CreationDate,2023-03-06T12:08:33-08:00*%
%TF.ProjectId,Foot Pedal PCB,466f6f74-2050-4656-9461-6c205043422e,A1*%
%TF.SameCoordinates,PX8917370PY68e7780*%
%TF.FileFunction,Soldermask,Top*%
%TF.FilePolarity,Negative*%
%FSLAX46Y46*%
G04 Gerber Fmt 4.6, Leading zero omitted, Abs format (unit mm)*
G04 Created by KiCad (PCBNEW (6.0.7)) date 2023-03-06 12:08:33*
%MOMM*%
%LPD*%
G01*
G04 APERTURE LIST*
%TA.AperFunction,Profile*%
%ADD10C,0.200000*%
%TD*%
%ADD11R,1.600000X1.600000*%
%ADD12C,1.600000*%
%ADD13R,1.350000X1.350000*%
%ADD14O,1.350000X1.350000*%
%ADD15R,1.800000X1.800000*%
%ADD16C,1.800000*%
%ADD17C,2.000000*%
G04 APERTURE END LIST*
D10*
X29500000Y-4000000D02*
G75*
G03*
X29500000Y-4000000I-1500000J0D01*
G01*
X-43000000Y12000000D02*
X-43000000Y9000000D01*
X43000000Y-9000000D02*
X43000000Y-12000000D01*
X40000000Y15000000D02*
X-40000000Y15000000D01*
X43000000Y12000000D02*
G75*
G03*
X40000000Y15000000I-3000000J0D01*
G01*
X-43000000Y-12000000D02*
G75*
G03*
X-40000000Y-15000000I3000000J0D01*
G01*
X43000000Y9000000D02*
X43000000Y-9000000D01*
X43000000Y9000000D02*
X43000000Y12000000D01*
X40000000Y-15000000D02*
X-40000000Y-15000000D01*
X29500000Y4000000D02*
G75*
G03*
X29500000Y4000000I-1500000J0D01*
G01*
X-43000000Y-12000000D02*
X-43000000Y-9000000D01*
X37000000Y4000000D02*
G75*
G03*
X37000000Y4000000I-1500000J0D01*
G01*
X-40000000Y15000000D02*
G75*
G03*
X-43000000Y12000000I0J-3000000D01*
G01*
X36999997Y-4000000D02*
G75*
G03*
X36999997Y-4000000I-1500000J0D01*
G01*
X-43000000Y-9000000D02*
X-43000000Y9000000D01*
X40000000Y-15000000D02*
G75*
G03*
X43000000Y-12000000I0J3000000D01*
G01*
D11*
%TO.C,U1*%
X-39270000Y-7620000D03*
D12*
X-36730000Y-7620000D03*
X-34190000Y-7620000D03*
X-31650000Y-7620000D03*
X-29110000Y-7620000D03*
X-26570000Y-7620000D03*
X-24030000Y-7620000D03*
X-21490000Y-7620000D03*
X-18950000Y-7620000D03*
X-16410000Y-7620000D03*
X-13870000Y-7620000D03*
X-11330000Y-7620000D03*
X-11330000Y7620000D03*
X-13870000Y7620000D03*
X-16410000Y7620000D03*
X-18950000Y7620000D03*
X-21490000Y7620000D03*
X-24030000Y7620000D03*
X-26570000Y7620000D03*
X-29110000Y7620000D03*
X-31650000Y7620000D03*
X-34190000Y7620000D03*
X-36730000Y7620000D03*
X-39270000Y7620000D03*
%TD*%
D13*
%TO.C,J1*%
X25000000Y2000000D03*
D14*
X25000000Y0D03*
X25000000Y-2000000D03*
%TD*%
D15*
%TO.C,D1*%
X-1275000Y7500000D03*
D16*
X1265000Y7500000D03*
%TD*%
D17*
%TO.C,SW1*%
X-35750000Y-3250000D03*
X-35750000Y3250000D03*
X-40250000Y3250000D03*
X-40250000Y-3250000D03*
%TD*%
D15*
%TO.C,D2*%
X13725000Y7500000D03*
D16*
X16265000Y7500000D03*
%TD*%
D17*
%TO.C,SW2*%
X-3250000Y2250000D03*
X3250000Y2250000D03*
X-3250000Y-2250000D03*
X3250000Y-2250000D03*
%TD*%
%TO.C,SW3*%
X11750000Y2250000D03*
X18250000Y2250000D03*
X18250000Y-2250000D03*
X11750000Y-2250000D03*
%TD*%
M02*
