%TF.GenerationSoftware,KiCad,Pcbnew,(6.0.7)*%
%TF.CreationDate,2023-03-07T14:44:30-08:00*%
%TF.ProjectId,Foot Pedal PCB,466f6f74-2050-4656-9461-6c205043422e,A1*%
%TF.SameCoordinates,PX8917370PY68e7780*%
%TF.FileFunction,Soldermask,Bot*%
%TF.FilePolarity,Negative*%
%FSLAX46Y46*%
G04 Gerber Fmt 4.6, Leading zero omitted, Abs format (unit mm)*
G04 Created by KiCad (PCBNEW (6.0.7)) date 2023-03-07 14:44:30*
%MOMM*%
%LPD*%
G01*
G04 APERTURE LIST*
G04 Aperture macros list*
%AMRoundRect*
0 Rectangle with rounded corners*
0 $1 Rounding radius*
0 $2 $3 $4 $5 $6 $7 $8 $9 X,Y pos of 4 corners*
0 Add a 4 corners polygon primitive as box body*
4,1,4,$2,$3,$4,$5,$6,$7,$8,$9,$2,$3,0*
0 Add four circle primitives for the rounded corners*
1,1,$1+$1,$2,$3*
1,1,$1+$1,$4,$5*
1,1,$1+$1,$6,$7*
1,1,$1+$1,$8,$9*
0 Add four rect primitives between the rounded corners*
20,1,$1+$1,$2,$3,$4,$5,0*
20,1,$1+$1,$4,$5,$6,$7,0*
20,1,$1+$1,$6,$7,$8,$9,0*
20,1,$1+$1,$8,$9,$2,$3,0*%
G04 Aperture macros list end*
%TA.AperFunction,Profile*%
%ADD10C,0.200000*%
%TD*%
%ADD11C,3.000000*%
%ADD12C,3.200000*%
%ADD13R,1.350000X1.350000*%
%ADD14O,1.350000X1.350000*%
%ADD15R,1.800000X1.800000*%
%ADD16C,1.800000*%
%ADD17C,2.000000*%
%ADD18R,1.600000X1.600000*%
%ADD19C,1.600000*%
%ADD20RoundRect,0.250000X-0.450000X0.262500X-0.450000X-0.262500X0.450000X-0.262500X0.450000X0.262500X0*%
%ADD21RoundRect,0.250000X-0.262500X-0.450000X0.262500X-0.450000X0.262500X0.450000X-0.262500X0.450000X0*%
%ADD22RoundRect,0.250000X0.512652X0.159099X0.159099X0.512652X-0.512652X-0.159099X-0.159099X-0.512652X0*%
G04 APERTURE END LIST*
D10*
X-43000000Y12000000D02*
X-43000000Y9000000D01*
X43000000Y-9000000D02*
X43000000Y-12000000D01*
X40000000Y15000000D02*
X-40000000Y15000000D01*
X43000000Y12000000D02*
G75*
G03*
X40000000Y15000000I-3000000J0D01*
G01*
X-43000000Y-12000000D02*
G75*
G03*
X-40000000Y-15000000I3000000J0D01*
G01*
X43000000Y9000000D02*
X43000000Y-9000000D01*
X43000000Y9000000D02*
X43000000Y12000000D01*
X40000000Y-15000000D02*
X-40000000Y-15000000D01*
X-43000000Y-12000000D02*
X-43000000Y-9000000D01*
X-40000000Y15000000D02*
G75*
G03*
X-43000000Y12000000I0J-3000000D01*
G01*
X-43000000Y-9000000D02*
X-43000000Y9000000D01*
X40000000Y-15000000D02*
G75*
G03*
X43000000Y-12000000I0J3000000D01*
G01*
D11*
%TO.C,*%
X35500000Y4000000D03*
%TD*%
%TO.C,*%
X28000000Y4000000D03*
%TD*%
%TO.C,*%
X28000000Y-4000000D03*
%TD*%
%TO.C,REF\u002A\u002A*%
X35500000Y-4000000D03*
%TD*%
D12*
%TO.C,*%
X-35000000Y12000000D03*
%TD*%
%TO.C,*%
X35000000Y12000000D03*
%TD*%
%TO.C,*%
X-35000000Y-12000000D03*
%TD*%
%TO.C,REF\u002A\u002A*%
X35000000Y-12000000D03*
%TD*%
D13*
%TO.C,J1*%
X25000000Y2000000D03*
D14*
X25000000Y0D03*
X25000000Y-2000000D03*
%TD*%
D15*
%TO.C,D1*%
X-1275000Y7500000D03*
D16*
X1265000Y7500000D03*
%TD*%
D15*
%TO.C,D2*%
X13725000Y7500000D03*
D16*
X16265000Y7500000D03*
%TD*%
D17*
%TO.C,SW2*%
X-3250000Y2250000D03*
X3250000Y2250000D03*
X-3250000Y-2250000D03*
X3250000Y-2250000D03*
%TD*%
D18*
%TO.C,U1*%
X-39270000Y-7620000D03*
D19*
X-36730000Y-7620000D03*
X-34190000Y-7620000D03*
X-31650000Y-7620000D03*
X-29110000Y-7620000D03*
X-26570000Y-7620000D03*
X-24030000Y-7620000D03*
X-21490000Y-7620000D03*
X-18950000Y-7620000D03*
X-16410000Y-7620000D03*
X-13870000Y-7620000D03*
X-11330000Y-7620000D03*
X-11330000Y7620000D03*
X-13870000Y7620000D03*
X-16410000Y7620000D03*
X-18950000Y7620000D03*
X-21490000Y7620000D03*
X-24030000Y7620000D03*
X-26570000Y7620000D03*
X-29110000Y7620000D03*
X-31650000Y7620000D03*
X-34190000Y7620000D03*
X-36730000Y7620000D03*
X-39270000Y7620000D03*
%TD*%
D17*
%TO.C,SW3*%
X11750000Y2250000D03*
X18250000Y2250000D03*
X18250000Y-2250000D03*
X11750000Y-2250000D03*
%TD*%
%TO.C,SW1*%
X-40250000Y-3250000D03*
X-40250000Y3250000D03*
X-35750000Y3250000D03*
X-35750000Y-3250000D03*
%TD*%
D20*
%TO.C,R1*%
X4000000Y12912500D03*
X4000000Y11087500D03*
%TD*%
D21*
%TO.C,R2*%
X13087500Y13000000D03*
X14912500Y13000000D03*
%TD*%
D22*
%TO.C,C1*%
X-4578249Y-6921751D03*
X-5921751Y-5578249D03*
%TD*%
M02*
