%TF.GenerationSoftware,KiCad,Pcbnew,(6.0.7)*%
%TF.CreationDate,2023-03-06T12:08:33-08:00*%
%TF.ProjectId,Foot Pedal PCB,466f6f74-2050-4656-9461-6c205043422e,A1*%
%TF.SameCoordinates,PX8917370PY68e7780*%
%TF.FileFunction,Legend,Top*%
%TF.FilePolarity,Positive*%
%FSLAX46Y46*%
G04 Gerber Fmt 4.6, Leading zero omitted, Abs format (unit mm)*
G04 Created by KiCad (PCBNEW (6.0.7)) date 2023-03-06 12:08:33*
%MOMM*%
%LPD*%
G01*
G04 APERTURE LIST*
%ADD10C,0.150000*%
%ADD11C,0.250000*%
%ADD12C,0.300000*%
%TA.AperFunction,Profile*%
%ADD13C,0.200000*%
%TD*%
%ADD14C,0.120000*%
%ADD15R,1.600000X1.600000*%
%ADD16C,1.600000*%
G04 APERTURE END LIST*
D10*
X-26011905Y10547620D02*
X-26011905Y9738096D01*
X-25964286Y9642858D01*
X-25916667Y9595239D01*
X-25821429Y9547620D01*
X-25630953Y9547620D01*
X-25535715Y9595239D01*
X-25488096Y9642858D01*
X-25440477Y9738096D01*
X-25440477Y10547620D01*
X-24440477Y9547620D02*
X-25011905Y9547620D01*
X-24726191Y9547620D02*
X-24726191Y10547620D01*
X-24821429Y10404762D01*
X-24916667Y10309524D01*
X-25011905Y10261905D01*
D11*
X27785714Y-142857D02*
X27385714Y-142857D01*
X27385714Y-928571D02*
X27385714Y571429D01*
X27957142Y571429D01*
X28585714Y-928571D02*
X28471428Y-857142D01*
X28414285Y-785714D01*
X28357142Y-642857D01*
X28357142Y-214285D01*
X28414285Y-71428D01*
X28471428Y0D01*
X28585714Y71429D01*
X28757142Y71429D01*
X28871428Y0D01*
X28928571Y-71428D01*
X28985714Y-214285D01*
X28985714Y-642857D01*
X28928571Y-785714D01*
X28871428Y-857142D01*
X28757142Y-928571D01*
X28585714Y-928571D01*
X29671428Y-928571D02*
X29557142Y-857142D01*
X29500000Y-785714D01*
X29442857Y-642857D01*
X29442857Y-214285D01*
X29500000Y-71428D01*
X29557142Y0D01*
X29671428Y71429D01*
X29842857Y71429D01*
X29957142Y0D01*
X30014285Y-71428D01*
X30071428Y-214285D01*
X30071428Y-642857D01*
X30014285Y-785714D01*
X29957142Y-857142D01*
X29842857Y-928571D01*
X29671428Y-928571D01*
X30414285Y71429D02*
X30871428Y71429D01*
X30585714Y571429D02*
X30585714Y-714285D01*
X30642857Y-857142D01*
X30757142Y-928571D01*
X30871428Y-928571D01*
X32185714Y-928571D02*
X32185714Y571429D01*
X32642857Y571429D01*
X32757142Y500000D01*
X32814285Y428572D01*
X32871428Y285715D01*
X32871428Y71429D01*
X32814285Y-71428D01*
X32757142Y-142857D01*
X32642857Y-214285D01*
X32185714Y-214285D01*
X33842857Y-857142D02*
X33728571Y-928571D01*
X33500000Y-928571D01*
X33385714Y-857142D01*
X33328571Y-714285D01*
X33328571Y-142857D01*
X33385714Y0D01*
X33500000Y71429D01*
X33728571Y71429D01*
X33842857Y0D01*
X33900000Y-142857D01*
X33900000Y-285714D01*
X33328571Y-428571D01*
X34928571Y-928571D02*
X34928571Y571429D01*
X34928571Y-857142D02*
X34814285Y-928571D01*
X34585714Y-928571D01*
X34471428Y-857142D01*
X34414285Y-785714D01*
X34357142Y-642857D01*
X34357142Y-214285D01*
X34414285Y-71428D01*
X34471428Y0D01*
X34585714Y71429D01*
X34814285Y71429D01*
X34928571Y0D01*
X36014285Y-928571D02*
X36014285Y-142857D01*
X35957142Y0D01*
X35842857Y71429D01*
X35614285Y71429D01*
X35500000Y0D01*
X36014285Y-857142D02*
X35900000Y-928571D01*
X35614285Y-928571D01*
X35500000Y-857142D01*
X35442857Y-714285D01*
X35442857Y-571428D01*
X35500000Y-428571D01*
X35614285Y-357142D01*
X35900000Y-357142D01*
X36014285Y-285714D01*
X36757142Y-928571D02*
X36642857Y-857142D01*
X36585714Y-714285D01*
X36585714Y571429D01*
X38128571Y-928571D02*
X38128571Y571429D01*
X38128571Y-142857D02*
X38814285Y-142857D01*
X38814285Y-928571D02*
X38814285Y571429D01*
X39842857Y-857142D02*
X39728571Y-928571D01*
X39500000Y-928571D01*
X39385714Y-857142D01*
X39328571Y-714285D01*
X39328571Y-142857D01*
X39385714Y0D01*
X39500000Y71429D01*
X39728571Y71429D01*
X39842857Y0D01*
X39900000Y-142857D01*
X39900000Y-285714D01*
X39328571Y-428571D01*
X40414285Y-928571D02*
X40414285Y71429D01*
X40414285Y-214285D02*
X40471428Y-71428D01*
X40528571Y0D01*
X40642857Y71429D01*
X40757142Y71429D01*
X41614285Y-857142D02*
X41500000Y-928571D01*
X41271428Y-928571D01*
X41157142Y-857142D01*
X41100000Y-714285D01*
X41100000Y-142857D01*
X41157142Y0D01*
X41271428Y71429D01*
X41500000Y71429D01*
X41614285Y0D01*
X41671428Y-142857D01*
X41671428Y-285714D01*
X41100000Y-428571D01*
D12*
X21928571Y-3035714D02*
X23428571Y-2678571D01*
X22357142Y-2392857D01*
X23428571Y-2107142D01*
X21928571Y-1750000D01*
X23428571Y821429D02*
X22714285Y321429D01*
X23428571Y-35714D02*
X21928571Y-35714D01*
X21928571Y535715D01*
X22000000Y678572D01*
X22071428Y750000D01*
X22214285Y821429D01*
X22428571Y821429D01*
X22571428Y750000D01*
X22642857Y678572D01*
X22714285Y535715D01*
X22714285Y-35714D01*
X23428571Y2607143D02*
X21928571Y2607143D01*
X23428571Y3464286D02*
X22571428Y2821429D01*
X21928571Y3464286D02*
X22785714Y2607143D01*
X-9238096Y-13654761D02*
X-9238096Y-11654761D01*
X-9238096Y-12416666D02*
X-9047620Y-12321428D01*
X-8666667Y-12321428D01*
X-8476191Y-12416666D01*
X-8380953Y-12511904D01*
X-8285715Y-12702380D01*
X-8285715Y-13273809D01*
X-8380953Y-13464285D01*
X-8476191Y-13559523D01*
X-8666667Y-13654761D01*
X-9047620Y-13654761D01*
X-9238096Y-13559523D01*
X-7142858Y-13654761D02*
X-7333334Y-13559523D01*
X-7428572Y-13369047D01*
X-7428572Y-11654761D01*
X-5523810Y-12321428D02*
X-5523810Y-13654761D01*
X-6380953Y-12321428D02*
X-6380953Y-13369047D01*
X-6285715Y-13559523D01*
X-6095239Y-13654761D01*
X-5809524Y-13654761D01*
X-5619048Y-13559523D01*
X-5523810Y-13464285D01*
X-3238096Y-12321428D02*
X-2761905Y-13654761D01*
X-2285715Y-12321428D01*
X-1523810Y-13654761D02*
X-1523810Y-12321428D01*
X-1523810Y-11654761D02*
X-1619048Y-11750000D01*
X-1523810Y-11845238D01*
X-1428572Y-11750000D01*
X-1523810Y-11654761D01*
X-1523810Y-11845238D01*
X-571429Y-13654761D02*
X-571429Y-12321428D01*
X-571429Y-12511904D02*
X-476191Y-12416666D01*
X-285715Y-12321428D01*
X0Y-12321428D01*
X190476Y-12416666D01*
X285714Y-12607142D01*
X285714Y-13654761D01*
X285714Y-12607142D02*
X380952Y-12416666D01*
X571428Y-12321428D01*
X857142Y-12321428D01*
X1047619Y-12416666D01*
X1142857Y-12607142D01*
X1142857Y-13654761D01*
X2952380Y-13559523D02*
X2761904Y-13654761D01*
X2380952Y-13654761D01*
X2190476Y-13559523D01*
X2095238Y-13464285D01*
X2000000Y-13273809D01*
X2000000Y-12702380D01*
X2095238Y-12511904D01*
X2190476Y-12416666D01*
X2380952Y-12321428D01*
X2761904Y-12321428D01*
X2952380Y-12416666D01*
X4095238Y-13654761D02*
X3904761Y-13559523D01*
X3809523Y-13369047D01*
X3809523Y-11654761D01*
X5714285Y-12321428D02*
X5714285Y-13654761D01*
X4857142Y-12321428D02*
X4857142Y-13369047D01*
X4952380Y-13559523D01*
X5142857Y-13654761D01*
X5428571Y-13654761D01*
X5619047Y-13559523D01*
X5714285Y-13464285D01*
X6380952Y-12321428D02*
X7142857Y-12321428D01*
X6666666Y-11654761D02*
X6666666Y-13369047D01*
X6761904Y-13559523D01*
X6952380Y-13654761D01*
X7142857Y-13654761D01*
X8666666Y-13559523D02*
X8476190Y-13654761D01*
X8095238Y-13654761D01*
X7904761Y-13559523D01*
X7809523Y-13464285D01*
X7714285Y-13273809D01*
X7714285Y-12702380D01*
X7809523Y-12511904D01*
X7904761Y-12416666D01*
X8095238Y-12321428D01*
X8476190Y-12321428D01*
X8666666Y-12416666D01*
X9523809Y-13654761D02*
X9523809Y-11654761D01*
X10380952Y-13654761D02*
X10380952Y-12607142D01*
X10285714Y-12416666D01*
X10095238Y-12321428D01*
X9809523Y-12321428D01*
X9619047Y-12416666D01*
X9523809Y-12511904D01*
X14000000Y-13654761D02*
X13333333Y-12702380D01*
X12857142Y-13654761D02*
X12857142Y-11654761D01*
X13619047Y-11654761D01*
X13809523Y-11750000D01*
X13904761Y-11845238D01*
X14000000Y-12035714D01*
X14000000Y-12321428D01*
X13904761Y-12511904D01*
X13809523Y-12607142D01*
X13619047Y-12702380D01*
X12857142Y-12702380D01*
X15619047Y-13559523D02*
X15428571Y-13654761D01*
X15047619Y-13654761D01*
X14857142Y-13559523D01*
X14761904Y-13369047D01*
X14761904Y-12607142D01*
X14857142Y-12416666D01*
X15047619Y-12321428D01*
X15428571Y-12321428D01*
X15619047Y-12416666D01*
X15714285Y-12607142D01*
X15714285Y-12797619D01*
X14761904Y-12988095D01*
X16380952Y-12321428D02*
X16857142Y-13654761D01*
X17333333Y-12321428D01*
X18095238Y-13464285D02*
X18190476Y-13559523D01*
X18095238Y-13654761D01*
X18000000Y-13559523D01*
X18095238Y-13464285D01*
X18095238Y-13654761D01*
X20476190Y-13083333D02*
X21428571Y-13083333D01*
X20285714Y-13654761D02*
X20952380Y-11654761D01*
X21619047Y-13654761D01*
X23333333Y-13654761D02*
X22190476Y-13654761D01*
X22761904Y-13654761D02*
X22761904Y-11654761D01*
X22571428Y-11940476D01*
X22380952Y-12130952D01*
X22190476Y-12226190D01*
D13*
X29500000Y-4000000D02*
G75*
G03*
X29500000Y-4000000I-1500000J0D01*
G01*
X-43000000Y12000000D02*
X-43000000Y9000000D01*
X43000000Y-9000000D02*
X43000000Y-12000000D01*
X40000000Y15000000D02*
X-40000000Y15000000D01*
X43000000Y12000000D02*
G75*
G03*
X40000000Y15000000I-3000000J0D01*
G01*
X-43000000Y-12000000D02*
G75*
G03*
X-40000000Y-15000000I3000000J0D01*
G01*
X43000000Y9000000D02*
X43000000Y-9000000D01*
X43000000Y9000000D02*
X43000000Y12000000D01*
X40000000Y-15000000D02*
X-40000000Y-15000000D01*
X29500000Y4000000D02*
G75*
G03*
X29500000Y4000000I-1500000J0D01*
G01*
X-43000000Y-12000000D02*
X-43000000Y-9000000D01*
X37000000Y4000000D02*
G75*
G03*
X37000000Y4000000I-1500000J0D01*
G01*
X-40000000Y15000000D02*
G75*
G03*
X-43000000Y12000000I0J-3000000D01*
G01*
X36999997Y-4000000D02*
G75*
G03*
X36999997Y-4000000I-1500000J0D01*
G01*
X-43000000Y-9000000D02*
X-43000000Y9000000D01*
X40000000Y-15000000D02*
G75*
G03*
X43000000Y-12000000I0J3000000D01*
G01*
D10*
%TO.C,J1*%
X24666666Y4607620D02*
X24666666Y3893334D01*
X24619047Y3750477D01*
X24523809Y3655239D01*
X24380952Y3607620D01*
X24285714Y3607620D01*
X25666666Y3607620D02*
X25095238Y3607620D01*
X25380952Y3607620D02*
X25380952Y4607620D01*
X25285714Y4464762D01*
X25190476Y4369524D01*
X25095238Y4321905D01*
%TO.C,D1*%
X-743096Y11007620D02*
X-743096Y12007620D01*
X-505000Y12007620D01*
X-362143Y11960000D01*
X-266905Y11864762D01*
X-219286Y11769524D01*
X-171667Y11579048D01*
X-171667Y11436191D01*
X-219286Y11245715D01*
X-266905Y11150477D01*
X-362143Y11055239D01*
X-505000Y11007620D01*
X-743096Y11007620D01*
X780714Y11007620D02*
X209285Y11007620D01*
X495000Y11007620D02*
X495000Y12007620D01*
X399761Y11864762D01*
X304523Y11769524D01*
X209285Y11721905D01*
%TO.C,D2*%
X14256904Y11007620D02*
X14256904Y12007620D01*
X14495000Y12007620D01*
X14637857Y11960000D01*
X14733095Y11864762D01*
X14780714Y11769524D01*
X14828333Y11579048D01*
X14828333Y11436191D01*
X14780714Y11245715D01*
X14733095Y11150477D01*
X14637857Y11055239D01*
X14495000Y11007620D01*
X14256904Y11007620D01*
X15209285Y11912381D02*
X15256904Y11960000D01*
X15352142Y12007620D01*
X15590238Y12007620D01*
X15685476Y11960000D01*
X15733095Y11912381D01*
X15780714Y11817143D01*
X15780714Y11721905D01*
X15733095Y11579048D01*
X15161666Y11007620D01*
X15780714Y11007620D01*
%TO.C,SW2*%
X-1333334Y-4654761D02*
X-1190477Y-4702380D01*
X-952381Y-4702380D01*
X-857143Y-4654761D01*
X-809524Y-4607142D01*
X-761905Y-4511904D01*
X-761905Y-4416666D01*
X-809524Y-4321428D01*
X-857143Y-4273809D01*
X-952381Y-4226190D01*
X-1142858Y-4178571D01*
X-1238096Y-4130952D01*
X-1285715Y-4083333D01*
X-1333334Y-3988095D01*
X-1333334Y-3892857D01*
X-1285715Y-3797619D01*
X-1238096Y-3750000D01*
X-1142858Y-3702380D01*
X-904762Y-3702380D01*
X-761905Y-3750000D01*
X-428572Y-3702380D02*
X-190477Y-4702380D01*
X0Y-3988095D01*
X190476Y-4702380D01*
X428571Y-3702380D01*
X761904Y-3797619D02*
X809523Y-3750000D01*
X904761Y-3702380D01*
X1142857Y-3702380D01*
X1238095Y-3750000D01*
X1285714Y-3797619D01*
X1333333Y-3892857D01*
X1333333Y-3988095D01*
X1285714Y-4130952D01*
X714285Y-4702380D01*
X1333333Y-4702380D01*
%TO.C,SW3*%
X13916666Y-4654761D02*
X14059523Y-4702380D01*
X14297619Y-4702380D01*
X14392857Y-4654761D01*
X14440476Y-4607142D01*
X14488095Y-4511904D01*
X14488095Y-4416666D01*
X14440476Y-4321428D01*
X14392857Y-4273809D01*
X14297619Y-4226190D01*
X14107142Y-4178571D01*
X14011904Y-4130952D01*
X13964285Y-4083333D01*
X13916666Y-3988095D01*
X13916666Y-3892857D01*
X13964285Y-3797619D01*
X14011904Y-3750000D01*
X14107142Y-3702380D01*
X14345238Y-3702380D01*
X14488095Y-3750000D01*
X14821428Y-3702380D02*
X15059523Y-4702380D01*
X15250000Y-3988095D01*
X15440476Y-4702380D01*
X15678571Y-3702380D01*
X15964285Y-3702380D02*
X16583333Y-3702380D01*
X16250000Y-4083333D01*
X16392857Y-4083333D01*
X16488095Y-4130952D01*
X16535714Y-4178571D01*
X16583333Y-4273809D01*
X16583333Y-4511904D01*
X16535714Y-4607142D01*
X16488095Y-4654761D01*
X16392857Y-4702380D01*
X16107142Y-4702380D01*
X16011904Y-4654761D01*
X15964285Y-4607142D01*
%TO.C,U1*%
X-40540000Y-8890000D02*
X-40540000Y-3810000D01*
X-40540000Y8890000D02*
X-10060000Y8890000D01*
X-43080000Y-3810000D02*
X-43080000Y3810000D01*
X-40540000Y-8890000D02*
X-10060000Y-8890000D01*
X-40540000Y-3810000D02*
X-43080000Y-3810000D01*
X-40540000Y3810000D02*
X-40540000Y8890000D01*
X-10060000Y8890000D02*
X-10060000Y-8890000D01*
X-43080000Y3810000D02*
X-40540000Y3810000D01*
D14*
%TO.C,J1*%
X23940000Y2000000D02*
X23940000Y3060000D01*
X23940000Y-3060000D02*
X26060000Y-3060000D01*
X23940000Y1000000D02*
X26060000Y1000000D01*
X23940000Y3060000D02*
X25000000Y3060000D01*
X26060000Y1000000D02*
X26060000Y-3060000D01*
X23940000Y1000000D02*
X23940000Y-3060000D01*
%TO.C,D1*%
X-2565000Y9045000D02*
X-2565000Y5955000D01*
X2985000Y7499538D02*
G75*
G03*
X-2565000Y9044830I-2990000J462D01*
G01*
X-2565000Y5955170D02*
G75*
G03*
X2985000Y7500462I2560000J1544830D01*
G01*
X2495000Y7500000D02*
G75*
G03*
X2495000Y7500000I-2500000J0D01*
G01*
%TO.C,D2*%
X12435000Y9045000D02*
X12435000Y5955000D01*
X17985000Y7499538D02*
G75*
G03*
X12435000Y9044830I-2990000J462D01*
G01*
X12435000Y5955170D02*
G75*
G03*
X17985000Y7500462I2560000J1544830D01*
G01*
X17495000Y7500000D02*
G75*
G03*
X17495000Y7500000I-2500000J0D01*
G01*
%TO.C,SW2*%
X2250000Y3250000D02*
X-2250000Y3250000D01*
X3500000Y-750000D02*
X3500000Y750000D01*
X-3500000Y750000D02*
X-3500000Y-750000D01*
X-2250000Y-3250000D02*
X2250000Y-3250000D01*
%TO.C,SW3*%
X11500000Y750000D02*
X11500000Y-750000D01*
X18500000Y-750000D02*
X18500000Y750000D01*
X17250000Y3250000D02*
X12750000Y3250000D01*
X12750000Y-3250000D02*
X17250000Y-3250000D01*
%TD*%
D15*
%TO.C,U1*%
X-39270000Y-7620000D03*
D16*
X-36730000Y-7620000D03*
X-34190000Y-7620000D03*
X-31650000Y-7620000D03*
X-29110000Y-7620000D03*
X-26570000Y-7620000D03*
X-24030000Y-7620000D03*
X-21490000Y-7620000D03*
X-18950000Y-7620000D03*
X-16410000Y-7620000D03*
X-13870000Y-7620000D03*
X-11330000Y-7620000D03*
X-11330000Y7620000D03*
X-13870000Y7620000D03*
X-16410000Y7620000D03*
X-18950000Y7620000D03*
X-21490000Y7620000D03*
X-24030000Y7620000D03*
X-26570000Y7620000D03*
X-29110000Y7620000D03*
X-31650000Y7620000D03*
X-34190000Y7620000D03*
X-36730000Y7620000D03*
X-39270000Y7620000D03*
%TD*%
M02*
