%TF.GenerationSoftware,KiCad,Pcbnew,7.0.6*%
%TF.CreationDate,2023-10-10T18:16:10-07:00*%
%TF.ProjectId,Foot Pedal PCB,466f6f74-2050-4656-9461-6c205043422e,B*%
%TF.SameCoordinates,PX8917370PY68e7780*%
%TF.FileFunction,Copper,L1,Top*%
%TF.FilePolarity,Positive*%
%FSLAX46Y46*%
G04 Gerber Fmt 4.6, Leading zero omitted, Abs format (unit mm)*
G04 Created by KiCad (PCBNEW 7.0.6) date 2023-10-10 18:16:10*
%MOMM*%
%LPD*%
G01*
G04 APERTURE LIST*
%TA.AperFunction,ComponentPad*%
%ADD10R,1.350000X1.350000*%
%TD*%
%TA.AperFunction,ComponentPad*%
%ADD11O,1.350000X1.350000*%
%TD*%
%TA.AperFunction,ComponentPad*%
%ADD12R,1.800000X1.800000*%
%TD*%
%TA.AperFunction,ComponentPad*%
%ADD13C,1.800000*%
%TD*%
%TA.AperFunction,ComponentPad*%
%ADD14C,2.000000*%
%TD*%
%TA.AperFunction,ComponentPad*%
%ADD15R,1.600000X1.600000*%
%TD*%
%TA.AperFunction,ComponentPad*%
%ADD16C,1.600000*%
%TD*%
%TA.AperFunction,Profile*%
%ADD17C,0.200000*%
%TD*%
G04 APERTURE END LIST*
D10*
%TO.P,J1,1,Pin_1*%
%TO.N,unconnected-(J1-Pin_1-Pad1)*%
X25000000Y2000000D03*
D11*
%TO.P,J1,2,Pin_2*%
%TO.N,GND*%
X25000000Y0D03*
%TO.P,J1,3,Pin_3*%
%TO.N,/COL2*%
X25000000Y-2000000D03*
%TD*%
D12*
%TO.P,D1,1,K*%
%TO.N,/LED1*%
X-1275000Y7500000D03*
D13*
%TO.P,D1,2,A*%
%TO.N,Net-(D1-A)*%
X1265000Y7500000D03*
%TD*%
D12*
%TO.P,D2,1,K*%
%TO.N,/LED2*%
X13725000Y7500000D03*
D13*
%TO.P,D2,2,A*%
%TO.N,Net-(D2-A)*%
X16265000Y7500000D03*
%TD*%
D14*
%TO.P,SW2,1,1*%
%TO.N,/COL0*%
X-3250000Y2250000D03*
X3250000Y2250000D03*
%TO.P,SW2,2,2*%
%TO.N,GND*%
X-3250000Y-2250000D03*
X3250000Y-2250000D03*
%TD*%
D15*
%TO.P,U1,1,TX*%
%TO.N,unconnected-(U1-TX-Pad1)*%
X-39270000Y-7620000D03*
D16*
%TO.P,U1,2,RX*%
%TO.N,unconnected-(U1-RX-Pad2)*%
X-36730000Y-7620000D03*
%TO.P,U1,3,GND*%
%TO.N,GND*%
X-34190000Y-7620000D03*
%TO.P,U1,4,GND*%
X-31650000Y-7620000D03*
%TO.P,U1,5,SDA*%
%TO.N,unconnected-(U1-SDA-Pad5)*%
X-29110000Y-7620000D03*
%TO.P,U1,6,SCL*%
%TO.N,unconnected-(U1-SCL-Pad6)*%
X-26570000Y-7620000D03*
%TO.P,U1,7,D4*%
%TO.N,unconnected-(U1-D4-Pad7)*%
X-24030000Y-7620000D03*
%TO.P,U1,8,C6*%
%TO.N,unconnected-(U1-C6-Pad8)*%
X-21490000Y-7620000D03*
%TO.P,U1,9,D7*%
%TO.N,unconnected-(U1-D7-Pad9)*%
X-18950000Y-7620000D03*
%TO.P,U1,10,E6*%
%TO.N,unconnected-(U1-E6-Pad10)*%
X-16410000Y-7620000D03*
%TO.P,U1,11,B4*%
%TO.N,unconnected-(U1-B4-Pad11)*%
X-13870000Y-7620000D03*
%TO.P,U1,12,B5*%
%TO.N,unconnected-(U1-B5-Pad12)*%
X-11330000Y-7620000D03*
%TO.P,U1,13,B6*%
%TO.N,/COL2*%
X-11330000Y7620000D03*
%TO.P,U1,14,B2*%
%TO.N,/COL1*%
X-13870000Y7620000D03*
%TO.P,U1,15,B3*%
%TO.N,/COL0*%
X-16410000Y7620000D03*
%TO.P,U1,16,B1*%
%TO.N,unconnected-(U1-B1-Pad16)*%
X-18950000Y7620000D03*
%TO.P,U1,17,F7*%
%TO.N,unconnected-(U1-F7-Pad17)*%
X-21490000Y7620000D03*
%TO.P,U1,18,F6*%
%TO.N,unconnected-(U1-F6-Pad18)*%
X-24030000Y7620000D03*
%TO.P,U1,19,F5*%
%TO.N,/LED2*%
X-26570000Y7620000D03*
%TO.P,U1,20,F4*%
%TO.N,/LED1*%
X-29110000Y7620000D03*
%TO.P,U1,21,VCC*%
%TO.N,VCC*%
X-31650000Y7620000D03*
%TO.P,U1,22,RST*%
%TO.N,Net-(U1-RST)*%
X-34190000Y7620000D03*
%TO.P,U1,23,GND*%
%TO.N,GND*%
X-36730000Y7620000D03*
%TO.P,U1,24,RAW*%
%TO.N,unconnected-(U1-RAW-Pad24)*%
X-39270000Y7620000D03*
%TD*%
D14*
%TO.P,SW3,1,1*%
%TO.N,/COL1*%
X11750000Y2250000D03*
X18250000Y2250000D03*
%TO.P,SW3,2,2*%
%TO.N,GND*%
X11750000Y-2250000D03*
X18250000Y-2250000D03*
%TD*%
%TO.P,SW1,1,1*%
%TO.N,GND*%
X-40250000Y3250000D03*
X-40250000Y-3250000D03*
%TO.P,SW1,2,2*%
%TO.N,Net-(U1-RST)*%
X-35750000Y3250000D03*
X-35750000Y-3250000D03*
%TD*%
%TA.AperFunction,Conductor*%
%TO.N,GND*%
G36*
X40001627Y14999415D02*
G01*
X40133403Y14992509D01*
X40240917Y14986471D01*
X40316958Y14982200D01*
X40323285Y14981523D01*
X40397846Y14969715D01*
X40475647Y14957392D01*
X40638124Y14929786D01*
X40643867Y14928532D01*
X40796693Y14887582D01*
X40951694Y14842927D01*
X40956799Y14841216D01*
X41106183Y14783873D01*
X41253983Y14722652D01*
X41258441Y14720597D01*
X41341423Y14678315D01*
X41401921Y14647489D01*
X41447336Y14622390D01*
X41541458Y14570370D01*
X41545244Y14568099D01*
X41680877Y14480017D01*
X41785551Y14405747D01*
X41810723Y14387886D01*
X41813915Y14385466D01*
X41938721Y14284399D01*
X41941053Y14282415D01*
X42058703Y14177278D01*
X42061253Y14174867D01*
X42174864Y14061256D01*
X42177276Y14058705D01*
X42282413Y13941055D01*
X42284397Y13938723D01*
X42385464Y13813917D01*
X42387884Y13810725D01*
X42435374Y13743795D01*
X42480025Y13680866D01*
X42566669Y13547445D01*
X42568083Y13545269D01*
X42570379Y13541443D01*
X42596902Y13493451D01*
X42647488Y13401922D01*
X42720586Y13258462D01*
X42722658Y13253967D01*
X42783877Y13106171D01*
X42841208Y12956817D01*
X42842931Y12951678D01*
X42887579Y12796703D01*
X42928528Y12643877D01*
X42929785Y12638121D01*
X42957394Y12475631D01*
X42981522Y12323287D01*
X42982198Y12316961D01*
X42992509Y12133383D01*
X42995454Y12077184D01*
X42999414Y12001628D01*
X42999500Y11998356D01*
X42999500Y-11998355D01*
X42999414Y-12001628D01*
X42995590Y-12074603D01*
X42992509Y-12133383D01*
X42982198Y-12316959D01*
X42981522Y-12323285D01*
X42957394Y-12475630D01*
X42929785Y-12638119D01*
X42928528Y-12643875D01*
X42887579Y-12796702D01*
X42842931Y-12951676D01*
X42841208Y-12956815D01*
X42783877Y-13106170D01*
X42722658Y-13253965D01*
X42720586Y-13258459D01*
X42647488Y-13401921D01*
X42570387Y-13541427D01*
X42568083Y-13545267D01*
X42480021Y-13680872D01*
X42387884Y-13810724D01*
X42385464Y-13813915D01*
X42284397Y-13938721D01*
X42282413Y-13941053D01*
X42177276Y-14058703D01*
X42174847Y-14061272D01*
X42061272Y-14174847D01*
X42058703Y-14177276D01*
X41941053Y-14282413D01*
X41938721Y-14284397D01*
X41813915Y-14385464D01*
X41810724Y-14387884D01*
X41680874Y-14480019D01*
X41663303Y-14491429D01*
X41545267Y-14568083D01*
X41541427Y-14570387D01*
X41401921Y-14647488D01*
X41258459Y-14720586D01*
X41253965Y-14722658D01*
X41106170Y-14783877D01*
X40956815Y-14841208D01*
X40951676Y-14842931D01*
X40796702Y-14887579D01*
X40643875Y-14928528D01*
X40638119Y-14929785D01*
X40475630Y-14957394D01*
X40323285Y-14981522D01*
X40316959Y-14982198D01*
X40133383Y-14992509D01*
X40077183Y-14995454D01*
X40001627Y-14999414D01*
X39998356Y-14999500D01*
X-39998356Y-14999500D01*
X-40001628Y-14999414D01*
X-40077184Y-14995454D01*
X-40133383Y-14992509D01*
X-40316961Y-14982198D01*
X-40323287Y-14981522D01*
X-40475631Y-14957394D01*
X-40638121Y-14929785D01*
X-40643877Y-14928528D01*
X-40796703Y-14887579D01*
X-40951678Y-14842931D01*
X-40956817Y-14841208D01*
X-41106171Y-14783877D01*
X-41253967Y-14722658D01*
X-41258462Y-14720586D01*
X-41401922Y-14647488D01*
X-41493451Y-14596902D01*
X-41541443Y-14570379D01*
X-41545261Y-14568088D01*
X-41680866Y-14480025D01*
X-41743795Y-14435374D01*
X-41810725Y-14387884D01*
X-41813917Y-14385464D01*
X-41938723Y-14284397D01*
X-41941055Y-14282413D01*
X-42058705Y-14177276D01*
X-42061256Y-14174864D01*
X-42174867Y-14061253D01*
X-42177278Y-14058703D01*
X-42282415Y-13941053D01*
X-42284399Y-13938721D01*
X-42385466Y-13813915D01*
X-42387886Y-13810723D01*
X-42411972Y-13776777D01*
X-42480021Y-13680872D01*
X-42568099Y-13545244D01*
X-42570370Y-13541458D01*
X-42622390Y-13447336D01*
X-42647489Y-13401921D01*
X-42678315Y-13341423D01*
X-42720597Y-13258441D01*
X-42722652Y-13253983D01*
X-42783878Y-13106170D01*
X-42841216Y-12956799D01*
X-42842927Y-12951694D01*
X-42887586Y-12796679D01*
X-42892684Y-12777652D01*
X-42928532Y-12643867D01*
X-42929787Y-12638119D01*
X-42957395Y-12475630D01*
X-42958283Y-12470026D01*
X-42981523Y-12323285D01*
X-42982200Y-12316958D01*
X-42992510Y-12133383D01*
X-42995949Y-12067765D01*
X-36854212Y-12067765D01*
X-36824588Y-12337014D01*
X-36756072Y-12599090D01*
X-36650131Y-12848389D01*
X-36650130Y-12848390D01*
X-36509018Y-13079610D01*
X-36335745Y-13287820D01*
X-36134002Y-13468582D01*
X-35908090Y-13618044D01*
X-35662824Y-13733020D01*
X-35403431Y-13811060D01*
X-35403428Y-13811060D01*
X-35403426Y-13811061D01*
X-35135443Y-13850500D01*
X-35135439Y-13850500D01*
X-34932367Y-13850500D01*
X-34897637Y-13847957D01*
X-34729844Y-13835677D01*
X-34729840Y-13835676D01*
X-34729839Y-13835676D01*
X-34619335Y-13811060D01*
X-34465447Y-13776780D01*
X-34212442Y-13680014D01*
X-33976223Y-13547441D01*
X-33761823Y-13381888D01*
X-33573814Y-13186881D01*
X-33416201Y-12966579D01*
X-33408538Y-12951676D01*
X-33292344Y-12725675D01*
X-33292343Y-12725672D01*
X-33204882Y-12469305D01*
X-33155681Y-12202933D01*
X-33150741Y-12067765D01*
X33145788Y-12067765D01*
X33175412Y-12337014D01*
X33243928Y-12599090D01*
X33349869Y-12848389D01*
X33349870Y-12848390D01*
X33490982Y-13079610D01*
X33664255Y-13287820D01*
X33865998Y-13468582D01*
X34091910Y-13618044D01*
X34337176Y-13733020D01*
X34596569Y-13811060D01*
X34596572Y-13811060D01*
X34596574Y-13811061D01*
X34864557Y-13850500D01*
X34864561Y-13850500D01*
X35067633Y-13850500D01*
X35102363Y-13847957D01*
X35270156Y-13835677D01*
X35270160Y-13835676D01*
X35270161Y-13835676D01*
X35380665Y-13811060D01*
X35534553Y-13776780D01*
X35787558Y-13680014D01*
X36023777Y-13547441D01*
X36238177Y-13381888D01*
X36426186Y-13186881D01*
X36583799Y-12966579D01*
X36591462Y-12951676D01*
X36707656Y-12725675D01*
X36707657Y-12725672D01*
X36795118Y-12469305D01*
X36844319Y-12202933D01*
X36854212Y-11932235D01*
X36839338Y-11797058D01*
X36824587Y-11662985D01*
X36756071Y-11400909D01*
X36650130Y-11151610D01*
X36650129Y-11151609D01*
X36509018Y-10920390D01*
X36335745Y-10712180D01*
X36335741Y-10712177D01*
X36335740Y-10712175D01*
X36134012Y-10531427D01*
X36134002Y-10531418D01*
X35908090Y-10381956D01*
X35662824Y-10266980D01*
X35505392Y-10219615D01*
X35403425Y-10188938D01*
X35135442Y-10149500D01*
X35135439Y-10149500D01*
X34932369Y-10149500D01*
X34932367Y-10149500D01*
X34729839Y-10164323D01*
X34729838Y-10164323D01*
X34465456Y-10223217D01*
X34465441Y-10223222D01*
X34212441Y-10319986D01*
X33976229Y-10452555D01*
X33976225Y-10452557D01*
X33761818Y-10618116D01*
X33573815Y-10813117D01*
X33573810Y-10813123D01*
X33416203Y-11033417D01*
X33416196Y-11033427D01*
X33292343Y-11274324D01*
X33292342Y-11274327D01*
X33204883Y-11530689D01*
X33204880Y-11530702D01*
X33155681Y-11797058D01*
X33155680Y-11797069D01*
X33145788Y-12067765D01*
X-33150741Y-12067765D01*
X-33145788Y-11932235D01*
X-33160662Y-11797058D01*
X-33175413Y-11662985D01*
X-33243929Y-11400909D01*
X-33349870Y-11151610D01*
X-33349870Y-11151609D01*
X-33490982Y-10920390D01*
X-33664255Y-10712180D01*
X-33664259Y-10712177D01*
X-33664260Y-10712175D01*
X-33865988Y-10531427D01*
X-33865998Y-10531418D01*
X-34091910Y-10381956D01*
X-34337176Y-10266980D01*
X-34494608Y-10219615D01*
X-34596575Y-10188938D01*
X-34864558Y-10149500D01*
X-34864561Y-10149500D01*
X-35067631Y-10149500D01*
X-35067633Y-10149500D01*
X-35270161Y-10164323D01*
X-35270162Y-10164323D01*
X-35534544Y-10223217D01*
X-35534559Y-10223222D01*
X-35787559Y-10319986D01*
X-36023771Y-10452555D01*
X-36023775Y-10452557D01*
X-36238182Y-10618116D01*
X-36426185Y-10813117D01*
X-36426190Y-10813123D01*
X-36583797Y-11033417D01*
X-36583804Y-11033427D01*
X-36707657Y-11274324D01*
X-36707658Y-11274327D01*
X-36795117Y-11530689D01*
X-36795120Y-11530702D01*
X-36844319Y-11797058D01*
X-36844320Y-11797069D01*
X-36854212Y-12067765D01*
X-42995949Y-12067765D01*
X-42999415Y-12001627D01*
X-42999500Y-11998356D01*
X-42999500Y-8470810D01*
X-40832500Y-8470810D01*
X-40821832Y-8575239D01*
X-40821831Y-8575242D01*
X-40765766Y-8744436D01*
X-40765765Y-8744438D01*
X-40765764Y-8744440D01*
X-40677218Y-8887995D01*
X-40672189Y-8896149D01*
X-40672184Y-8896155D01*
X-40546156Y-9022183D01*
X-40546150Y-9022188D01*
X-40546149Y-9022189D01*
X-40394440Y-9115764D01*
X-40225241Y-9171831D01*
X-40120811Y-9182500D01*
X-38419190Y-9182499D01*
X-38314759Y-9171831D01*
X-38145560Y-9115764D01*
X-37993851Y-9022189D01*
X-37867811Y-8896149D01*
X-37867023Y-8894870D01*
X-37866253Y-8894177D01*
X-37863259Y-8890392D01*
X-37862613Y-8890903D01*
X-37814239Y-8847389D01*
X-37744165Y-8835982D01*
X-37679048Y-8864271D01*
X-37678028Y-8865131D01*
X-37651255Y-8887998D01*
X-37441554Y-9016503D01*
X-37214332Y-9110621D01*
X-36975185Y-9168036D01*
X-36730000Y-9187332D01*
X-36484815Y-9168036D01*
X-36245668Y-9110621D01*
X-36018446Y-9016503D01*
X-35808745Y-8887998D01*
X-35621729Y-8728271D01*
X-35462002Y-8541255D01*
X-35380867Y-8408853D01*
X-35328220Y-8361224D01*
X-35281957Y-8352744D01*
X-34716903Y-7787691D01*
X-34713116Y-7805915D01*
X-34643558Y-7940156D01*
X-34540362Y-8050652D01*
X-34411181Y-8129209D01*
X-34355579Y-8144788D01*
X-34917890Y-8707098D01*
X-34917890Y-8707100D01*
X-34846502Y-8757086D01*
X-34639074Y-8853811D01*
X-34639069Y-8853813D01*
X-34418001Y-8913048D01*
X-34418005Y-8913048D01*
X-34190000Y-8932995D01*
X-33961998Y-8913048D01*
X-33740932Y-8853813D01*
X-33740927Y-8853811D01*
X-33533503Y-8757088D01*
X-33462112Y-8707099D01*
X-33462112Y-8707097D01*
X-34022375Y-8146834D01*
X-33901542Y-8094349D01*
X-33784261Y-7998934D01*
X-33697072Y-7875415D01*
X-33665163Y-7785628D01*
X-33102903Y-8347888D01*
X-33102901Y-8347888D01*
X-33052913Y-8276498D01*
X-33034197Y-8236361D01*
X-32987281Y-8183075D01*
X-32919004Y-8163613D01*
X-32851044Y-8184153D01*
X-32805807Y-8236357D01*
X-32787087Y-8276500D01*
X-32787087Y-8276501D01*
X-32737101Y-8347888D01*
X-32176903Y-7787691D01*
X-32173116Y-7805915D01*
X-32103558Y-7940156D01*
X-32000362Y-8050652D01*
X-31871181Y-8129209D01*
X-31815579Y-8144788D01*
X-32377890Y-8707098D01*
X-32377890Y-8707100D01*
X-32306502Y-8757086D01*
X-32099074Y-8853811D01*
X-32099069Y-8853813D01*
X-31878001Y-8913048D01*
X-31878005Y-8913048D01*
X-31650000Y-8932995D01*
X-31421998Y-8913048D01*
X-31200932Y-8853813D01*
X-31200927Y-8853811D01*
X-30993503Y-8757088D01*
X-30922112Y-8707099D01*
X-30922112Y-8707097D01*
X-31482375Y-8146834D01*
X-31361542Y-8094349D01*
X-31244261Y-7998934D01*
X-31157072Y-7875415D01*
X-31125163Y-7785628D01*
X-30557616Y-8353175D01*
X-30507943Y-8363158D01*
X-30459135Y-8408853D01*
X-30380000Y-8537988D01*
X-30377997Y-8541256D01*
X-30377996Y-8541258D01*
X-30218272Y-8728271D01*
X-30031259Y-8887995D01*
X-30031255Y-8887998D01*
X-29821554Y-9016503D01*
X-29594332Y-9110621D01*
X-29355185Y-9168036D01*
X-29110000Y-9187332D01*
X-28864815Y-9168036D01*
X-28625668Y-9110621D01*
X-28398446Y-9016503D01*
X-28188745Y-8887998D01*
X-28001729Y-8728271D01*
X-27935811Y-8651090D01*
X-27876361Y-8612282D01*
X-27805366Y-8611774D01*
X-27745367Y-8649730D01*
X-27744189Y-8651091D01*
X-27678272Y-8728271D01*
X-27491259Y-8887995D01*
X-27491255Y-8887998D01*
X-27281554Y-9016503D01*
X-27054332Y-9110621D01*
X-26815185Y-9168036D01*
X-26570000Y-9187332D01*
X-26324815Y-9168036D01*
X-26085668Y-9110621D01*
X-25858446Y-9016503D01*
X-25648745Y-8887998D01*
X-25461729Y-8728271D01*
X-25395811Y-8651090D01*
X-25336361Y-8612282D01*
X-25265366Y-8611774D01*
X-25205367Y-8649730D01*
X-25204189Y-8651091D01*
X-25138272Y-8728271D01*
X-24951259Y-8887995D01*
X-24951255Y-8887998D01*
X-24741554Y-9016503D01*
X-24514332Y-9110621D01*
X-24275185Y-9168036D01*
X-24030000Y-9187332D01*
X-23784815Y-9168036D01*
X-23545668Y-9110621D01*
X-23318446Y-9016503D01*
X-23108745Y-8887998D01*
X-22921729Y-8728271D01*
X-22855811Y-8651090D01*
X-22796361Y-8612282D01*
X-22725366Y-8611774D01*
X-22665367Y-8649730D01*
X-22664189Y-8651091D01*
X-22598272Y-8728271D01*
X-22411259Y-8887995D01*
X-22411255Y-8887998D01*
X-22201554Y-9016503D01*
X-21974332Y-9110621D01*
X-21735185Y-9168036D01*
X-21490000Y-9187332D01*
X-21244815Y-9168036D01*
X-21005668Y-9110621D01*
X-20778446Y-9016503D01*
X-20568745Y-8887998D01*
X-20381729Y-8728271D01*
X-20315811Y-8651090D01*
X-20256361Y-8612282D01*
X-20185366Y-8611774D01*
X-20125367Y-8649730D01*
X-20124189Y-8651091D01*
X-20058272Y-8728271D01*
X-19871259Y-8887995D01*
X-19871255Y-8887998D01*
X-19661554Y-9016503D01*
X-19434332Y-9110621D01*
X-19195185Y-9168036D01*
X-18950000Y-9187332D01*
X-18704815Y-9168036D01*
X-18465668Y-9110621D01*
X-18238446Y-9016503D01*
X-18028745Y-8887998D01*
X-17841729Y-8728271D01*
X-17775811Y-8651090D01*
X-17716361Y-8612282D01*
X-17645366Y-8611774D01*
X-17585367Y-8649730D01*
X-17584189Y-8651091D01*
X-17518272Y-8728271D01*
X-17331259Y-8887995D01*
X-17331255Y-8887998D01*
X-17121554Y-9016503D01*
X-16894332Y-9110621D01*
X-16655185Y-9168036D01*
X-16410000Y-9187332D01*
X-16164815Y-9168036D01*
X-15925668Y-9110621D01*
X-15698446Y-9016503D01*
X-15488745Y-8887998D01*
X-15301729Y-8728271D01*
X-15235811Y-8651090D01*
X-15176361Y-8612282D01*
X-15105366Y-8611774D01*
X-15045367Y-8649730D01*
X-15044189Y-8651091D01*
X-14978272Y-8728271D01*
X-14791259Y-8887995D01*
X-14791255Y-8887998D01*
X-14581554Y-9016503D01*
X-14354332Y-9110621D01*
X-14115185Y-9168036D01*
X-13870000Y-9187332D01*
X-13624815Y-9168036D01*
X-13385668Y-9110621D01*
X-13158446Y-9016503D01*
X-12948745Y-8887998D01*
X-12761729Y-8728271D01*
X-12695811Y-8651090D01*
X-12636361Y-8612282D01*
X-12565366Y-8611774D01*
X-12505367Y-8649730D01*
X-12504189Y-8651091D01*
X-12438272Y-8728271D01*
X-12251259Y-8887995D01*
X-12251255Y-8887998D01*
X-12041554Y-9016503D01*
X-11814332Y-9110621D01*
X-11575185Y-9168036D01*
X-11330000Y-9187332D01*
X-11084815Y-9168036D01*
X-10845668Y-9110621D01*
X-10618446Y-9016503D01*
X-10408745Y-8887998D01*
X-10221729Y-8728271D01*
X-10062002Y-8541255D01*
X-9933497Y-8331554D01*
X-9839379Y-8104332D01*
X-9781964Y-7865185D01*
X-9762668Y-7620000D01*
X-9781964Y-7374815D01*
X-9839379Y-7135668D01*
X-9933497Y-6908446D01*
X-10062002Y-6698745D01*
X-10062005Y-6698741D01*
X-10221729Y-6511728D01*
X-10408742Y-6352004D01*
X-10408744Y-6352003D01*
X-10408745Y-6352002D01*
X-10618446Y-6223497D01*
X-10845668Y-6129379D01*
X-10845670Y-6129378D01*
X-10845671Y-6129378D01*
X-10974369Y-6098480D01*
X-11084815Y-6071964D01*
X-11084814Y-6071964D01*
X-11330000Y-6052668D01*
X-11575186Y-6071964D01*
X-11814330Y-6129378D01*
X-12041553Y-6223496D01*
X-12251257Y-6352003D01*
X-12251259Y-6352004D01*
X-12438269Y-6511726D01*
X-12504189Y-6588909D01*
X-12563640Y-6627718D01*
X-12634634Y-6628224D01*
X-12694633Y-6590268D01*
X-12695811Y-6588909D01*
X-12695812Y-6588908D01*
X-12761729Y-6511729D01*
X-12761731Y-6511727D01*
X-12761732Y-6511726D01*
X-12948742Y-6352004D01*
X-12948744Y-6352003D01*
X-12948745Y-6352002D01*
X-13158446Y-6223497D01*
X-13385668Y-6129379D01*
X-13385670Y-6129378D01*
X-13385671Y-6129378D01*
X-13514369Y-6098480D01*
X-13624815Y-6071964D01*
X-13624814Y-6071964D01*
X-13870000Y-6052668D01*
X-14115186Y-6071964D01*
X-14354330Y-6129378D01*
X-14581553Y-6223496D01*
X-14791257Y-6352003D01*
X-14791259Y-6352004D01*
X-14978269Y-6511726D01*
X-15044189Y-6588909D01*
X-15103640Y-6627718D01*
X-15174634Y-6628224D01*
X-15234633Y-6590268D01*
X-15235811Y-6588909D01*
X-15235812Y-6588908D01*
X-15301729Y-6511729D01*
X-15301731Y-6511727D01*
X-15301732Y-6511726D01*
X-15488742Y-6352004D01*
X-15488744Y-6352003D01*
X-15488745Y-6352002D01*
X-15698446Y-6223497D01*
X-15925668Y-6129379D01*
X-15925670Y-6129378D01*
X-15925671Y-6129378D01*
X-16054369Y-6098480D01*
X-16164815Y-6071964D01*
X-16164814Y-6071964D01*
X-16410000Y-6052668D01*
X-16655186Y-6071964D01*
X-16894330Y-6129378D01*
X-17121553Y-6223496D01*
X-17331257Y-6352003D01*
X-17331259Y-6352004D01*
X-17518269Y-6511726D01*
X-17584189Y-6588909D01*
X-17643640Y-6627718D01*
X-17714634Y-6628224D01*
X-17774633Y-6590268D01*
X-17775811Y-6588909D01*
X-17775812Y-6588908D01*
X-17841729Y-6511729D01*
X-17841731Y-6511727D01*
X-17841732Y-6511726D01*
X-18028742Y-6352004D01*
X-18028744Y-6352003D01*
X-18028745Y-6352002D01*
X-18238446Y-6223497D01*
X-18465668Y-6129379D01*
X-18465670Y-6129378D01*
X-18465671Y-6129378D01*
X-18594369Y-6098480D01*
X-18704815Y-6071964D01*
X-18704814Y-6071964D01*
X-18950000Y-6052668D01*
X-19195186Y-6071964D01*
X-19434330Y-6129378D01*
X-19661553Y-6223496D01*
X-19871257Y-6352003D01*
X-19871259Y-6352004D01*
X-20058273Y-6511729D01*
X-20124191Y-6588909D01*
X-20183642Y-6627718D01*
X-20254636Y-6628224D01*
X-20314635Y-6590267D01*
X-20315732Y-6589001D01*
X-20381729Y-6511729D01*
X-20381732Y-6511727D01*
X-20381733Y-6511725D01*
X-20568742Y-6352004D01*
X-20568744Y-6352003D01*
X-20568745Y-6352002D01*
X-20778446Y-6223497D01*
X-21005668Y-6129379D01*
X-21005670Y-6129378D01*
X-21005671Y-6129378D01*
X-21134369Y-6098480D01*
X-21244815Y-6071964D01*
X-21244814Y-6071964D01*
X-21490000Y-6052668D01*
X-21735186Y-6071964D01*
X-21974330Y-6129378D01*
X-22201553Y-6223496D01*
X-22411257Y-6352003D01*
X-22411259Y-6352004D01*
X-22598269Y-6511726D01*
X-22664189Y-6588909D01*
X-22723640Y-6627718D01*
X-22794634Y-6628224D01*
X-22854633Y-6590268D01*
X-22855811Y-6588909D01*
X-22855812Y-6588908D01*
X-22921729Y-6511729D01*
X-22921731Y-6511727D01*
X-22921732Y-6511726D01*
X-23108742Y-6352004D01*
X-23108744Y-6352003D01*
X-23108745Y-6352002D01*
X-23318446Y-6223497D01*
X-23545668Y-6129379D01*
X-23545670Y-6129378D01*
X-23545671Y-6129378D01*
X-23674369Y-6098480D01*
X-23784815Y-6071964D01*
X-23784814Y-6071964D01*
X-24030000Y-6052668D01*
X-24275186Y-6071964D01*
X-24514330Y-6129378D01*
X-24741553Y-6223496D01*
X-24951257Y-6352003D01*
X-24951259Y-6352004D01*
X-25138269Y-6511726D01*
X-25204189Y-6588909D01*
X-25263640Y-6627718D01*
X-25334634Y-6628224D01*
X-25394633Y-6590268D01*
X-25395811Y-6588909D01*
X-25395812Y-6588908D01*
X-25461729Y-6511729D01*
X-25461731Y-6511727D01*
X-25461732Y-6511726D01*
X-25648742Y-6352004D01*
X-25648744Y-6352003D01*
X-25648745Y-6352002D01*
X-25858446Y-6223497D01*
X-26085668Y-6129379D01*
X-26085670Y-6129378D01*
X-26085671Y-6129378D01*
X-26214369Y-6098480D01*
X-26324815Y-6071964D01*
X-26324814Y-6071964D01*
X-26570000Y-6052668D01*
X-26815186Y-6071964D01*
X-27054330Y-6129378D01*
X-27281553Y-6223496D01*
X-27491257Y-6352003D01*
X-27491259Y-6352004D01*
X-27678269Y-6511726D01*
X-27744189Y-6588909D01*
X-27803640Y-6627718D01*
X-27874634Y-6628224D01*
X-27934633Y-6590268D01*
X-27935811Y-6588909D01*
X-27935812Y-6588908D01*
X-28001729Y-6511729D01*
X-28001731Y-6511727D01*
X-28001732Y-6511726D01*
X-28188742Y-6352004D01*
X-28188744Y-6352003D01*
X-28188745Y-6352002D01*
X-28398446Y-6223497D01*
X-28625668Y-6129379D01*
X-28625670Y-6129378D01*
X-28625671Y-6129378D01*
X-28754369Y-6098480D01*
X-28864815Y-6071964D01*
X-28864814Y-6071964D01*
X-29110000Y-6052668D01*
X-29355186Y-6071964D01*
X-29594330Y-6129378D01*
X-29821553Y-6223496D01*
X-30031257Y-6352003D01*
X-30031259Y-6352004D01*
X-30218272Y-6511728D01*
X-30377996Y-6698741D01*
X-30378004Y-6698752D01*
X-30459133Y-6831143D01*
X-30511780Y-6878774D01*
X-30558045Y-6887254D01*
X-31123098Y-7452305D01*
X-31126884Y-7434085D01*
X-31196442Y-7299844D01*
X-31299638Y-7189348D01*
X-31428819Y-7110791D01*
X-31484423Y-7095211D01*
X-30922112Y-6532899D01*
X-30922112Y-6532898D01*
X-30993499Y-6482913D01*
X-31200927Y-6386188D01*
X-31200932Y-6386186D01*
X-31422000Y-6326951D01*
X-31421996Y-6326951D01*
X-31650000Y-6307004D01*
X-31878003Y-6326951D01*
X-32099069Y-6386186D01*
X-32099074Y-6386188D01*
X-32306500Y-6482913D01*
X-32377891Y-6532900D01*
X-31817626Y-7093165D01*
X-31938458Y-7145651D01*
X-32055739Y-7241066D01*
X-32142928Y-7364585D01*
X-32174838Y-7454371D01*
X-32737100Y-6892109D01*
X-32787088Y-6963501D01*
X-32787089Y-6963503D01*
X-32805806Y-7003642D01*
X-32852723Y-7056926D01*
X-32921000Y-7076387D01*
X-32988960Y-7055845D01*
X-33034195Y-7003641D01*
X-33052914Y-6963498D01*
X-33102900Y-6892110D01*
X-33102902Y-6892110D01*
X-33663098Y-7452306D01*
X-33666884Y-7434085D01*
X-33736442Y-7299844D01*
X-33839638Y-7189348D01*
X-33968819Y-7110791D01*
X-34024423Y-7095211D01*
X-33462112Y-6532899D01*
X-33462112Y-6532898D01*
X-33533499Y-6482913D01*
X-33740927Y-6386188D01*
X-33740932Y-6386186D01*
X-33962000Y-6326951D01*
X-33961996Y-6326951D01*
X-34190000Y-6307004D01*
X-34418003Y-6326951D01*
X-34639069Y-6386186D01*
X-34639074Y-6386188D01*
X-34846500Y-6482913D01*
X-34917891Y-6532900D01*
X-34357626Y-7093165D01*
X-34478458Y-7145651D01*
X-34595739Y-7241066D01*
X-34682928Y-7364585D01*
X-34714838Y-7454370D01*
X-35282386Y-6886823D01*
X-35332061Y-6876839D01*
X-35380868Y-6831144D01*
X-35462002Y-6698745D01*
X-35462005Y-6698741D01*
X-35621729Y-6511728D01*
X-35808742Y-6352004D01*
X-35808744Y-6352003D01*
X-35808745Y-6352002D01*
X-36018446Y-6223497D01*
X-36245668Y-6129379D01*
X-36245670Y-6129378D01*
X-36245671Y-6129378D01*
X-36374369Y-6098480D01*
X-36484815Y-6071964D01*
X-36484814Y-6071964D01*
X-36730000Y-6052668D01*
X-36975186Y-6071964D01*
X-37214330Y-6129378D01*
X-37441553Y-6223496D01*
X-37574053Y-6304692D01*
X-37651255Y-6352002D01*
X-37651257Y-6352004D01*
X-37677951Y-6374802D01*
X-37742742Y-6403831D01*
X-37812942Y-6393223D01*
X-37862890Y-6349312D01*
X-37863261Y-6349606D01*
X-37864869Y-6347573D01*
X-37866263Y-6346347D01*
X-37867023Y-6345129D01*
X-37867811Y-6343851D01*
X-37867817Y-6343844D01*
X-37993845Y-6217816D01*
X-37993851Y-6217811D01*
X-37993852Y-6217810D01*
X-38145560Y-6124236D01*
X-38145562Y-6124235D01*
X-38145564Y-6124234D01*
X-38314759Y-6068169D01*
X-38314760Y-6068168D01*
X-38419181Y-6057500D01*
X-40120811Y-6057500D01*
X-40225240Y-6068168D01*
X-40225243Y-6068169D01*
X-40394437Y-6124234D01*
X-40546150Y-6217811D01*
X-40546156Y-6217816D01*
X-40672184Y-6343844D01*
X-40672189Y-6343850D01*
X-40765766Y-6495563D01*
X-40821831Y-6664758D01*
X-40821832Y-6664759D01*
X-40832500Y-6769180D01*
X-40832500Y-8470810D01*
X-42999500Y-8470810D01*
X-42999500Y-3250000D01*
X-41762663Y-3250000D01*
X-41744040Y-3486632D01*
X-41688629Y-3717437D01*
X-41597794Y-3936733D01*
X-41483102Y-4123891D01*
X-40776903Y-3417691D01*
X-40773116Y-3435915D01*
X-40703558Y-3570156D01*
X-40600362Y-3680652D01*
X-40471181Y-3759209D01*
X-40415579Y-3774788D01*
X-41123893Y-4483101D01*
X-41123893Y-4483102D01*
X-40936739Y-4597791D01*
X-40717438Y-4688628D01*
X-40486633Y-4744039D01*
X-40250000Y-4762662D01*
X-40013368Y-4744039D01*
X-39782563Y-4688628D01*
X-39563262Y-4597791D01*
X-39376109Y-4483102D01*
X-39376108Y-4483101D01*
X-40082375Y-3776834D01*
X-39961542Y-3724349D01*
X-39844261Y-3628934D01*
X-39757072Y-3505415D01*
X-39725162Y-3415628D01*
X-39016898Y-4123892D01*
X-39016898Y-4123891D01*
X-38902209Y-3936738D01*
X-38811372Y-3717437D01*
X-38755961Y-3486632D01*
X-38737338Y-3250000D01*
X-37517442Y-3250000D01*
X-37497701Y-3513424D01*
X-37497700Y-3513428D01*
X-37438921Y-3770960D01*
X-37342412Y-4016860D01*
X-37342409Y-4016868D01*
X-37210332Y-4245632D01*
X-37210330Y-4245635D01*
X-37210329Y-4245636D01*
X-37045627Y-4452166D01*
X-36851982Y-4631842D01*
X-36851976Y-4631846D01*
X-36633724Y-4780648D01*
X-36633716Y-4780653D01*
X-36395728Y-4895261D01*
X-36395727Y-4895261D01*
X-36395719Y-4895265D01*
X-36172364Y-4964161D01*
X-36143300Y-4973127D01*
X-36143293Y-4973129D01*
X-35882081Y-5012500D01*
X-35882077Y-5012500D01*
X-35617923Y-5012500D01*
X-35617919Y-5012500D01*
X-35356707Y-4973129D01*
X-35104281Y-4895265D01*
X-34866279Y-4780650D01*
X-34648018Y-4631842D01*
X-34454373Y-4452166D01*
X-34289671Y-4245636D01*
X-34223591Y-4131182D01*
X26249500Y-4131182D01*
X26266751Y-4245632D01*
X26288604Y-4390619D01*
X26365933Y-4641314D01*
X26365938Y-4641327D01*
X26479773Y-4877706D01*
X26479777Y-4877713D01*
X26627562Y-5094472D01*
X26627567Y-5094479D01*
X26806019Y-5286805D01*
X27011143Y-5450386D01*
X27011146Y-5450388D01*
X27238352Y-5581566D01*
X27238356Y-5581567D01*
X27238357Y-5581568D01*
X27482584Y-5677420D01*
X27738370Y-5735802D01*
X27890409Y-5747195D01*
X27934503Y-5750500D01*
X27934506Y-5750500D01*
X28065497Y-5750500D01*
X28106516Y-5747425D01*
X28261630Y-5735802D01*
X28517416Y-5677420D01*
X28761643Y-5581568D01*
X28761645Y-5581566D01*
X28761647Y-5581566D01*
X28875250Y-5515976D01*
X28988857Y-5450386D01*
X29193981Y-5286805D01*
X29372433Y-5094479D01*
X29520228Y-4877704D01*
X29634063Y-4641323D01*
X29636986Y-4631846D01*
X29711395Y-4390619D01*
X29733249Y-4245632D01*
X29750500Y-4131182D01*
X33749500Y-4131182D01*
X33766751Y-4245632D01*
X33788604Y-4390619D01*
X33865933Y-4641314D01*
X33865938Y-4641327D01*
X33979773Y-4877706D01*
X33979777Y-4877713D01*
X34127562Y-5094472D01*
X34127567Y-5094479D01*
X34306019Y-5286805D01*
X34511143Y-5450386D01*
X34511146Y-5450388D01*
X34738352Y-5581566D01*
X34738356Y-5581567D01*
X34738357Y-5581568D01*
X34982584Y-5677420D01*
X35238370Y-5735802D01*
X35390408Y-5747195D01*
X35434503Y-5750500D01*
X35434506Y-5750500D01*
X35565497Y-5750500D01*
X35606516Y-5747425D01*
X35761630Y-5735802D01*
X36017416Y-5677420D01*
X36261643Y-5581568D01*
X36261645Y-5581566D01*
X36261647Y-5581566D01*
X36375249Y-5515976D01*
X36488857Y-5450386D01*
X36693981Y-5286805D01*
X36872433Y-5094479D01*
X37020228Y-4877704D01*
X37134063Y-4641323D01*
X37136986Y-4631846D01*
X37211395Y-4390619D01*
X37233249Y-4245632D01*
X37250500Y-4131182D01*
X37250500Y-3868818D01*
X37211396Y-3609385D01*
X37211395Y-3609383D01*
X37211395Y-3609380D01*
X37134066Y-3358685D01*
X37134061Y-3358672D01*
X37061285Y-3207552D01*
X37020228Y-3122296D01*
X37020226Y-3122293D01*
X37020222Y-3122286D01*
X36872437Y-2905527D01*
X36872433Y-2905521D01*
X36693981Y-2713195D01*
X36488857Y-2549614D01*
X36488852Y-2549611D01*
X36488853Y-2549611D01*
X36261647Y-2418433D01*
X36261639Y-2418430D01*
X36017419Y-2322581D01*
X36017417Y-2322580D01*
X35761632Y-2264198D01*
X35565497Y-2249500D01*
X35565494Y-2249500D01*
X35434506Y-2249500D01*
X35434503Y-2249500D01*
X35238367Y-2264198D01*
X34982582Y-2322580D01*
X34982580Y-2322581D01*
X34738360Y-2418430D01*
X34738352Y-2418433D01*
X34511146Y-2549611D01*
X34306018Y-2713195D01*
X34127566Y-2905522D01*
X34127562Y-2905527D01*
X33979777Y-3122286D01*
X33979773Y-3122293D01*
X33865938Y-3358672D01*
X33865933Y-3358685D01*
X33788604Y-3609380D01*
X33768308Y-3744039D01*
X33749500Y-3868818D01*
X33749500Y-4131182D01*
X29750500Y-4131182D01*
X29750500Y-3868818D01*
X29711396Y-3609385D01*
X29711395Y-3609383D01*
X29711395Y-3609380D01*
X29634066Y-3358685D01*
X29634061Y-3358672D01*
X29561285Y-3207552D01*
X29520228Y-3122296D01*
X29520226Y-3122293D01*
X29520222Y-3122286D01*
X29372437Y-2905527D01*
X29372433Y-2905521D01*
X29193981Y-2713195D01*
X28988857Y-2549614D01*
X28988852Y-2549611D01*
X28988853Y-2549611D01*
X28761647Y-2418433D01*
X28761639Y-2418430D01*
X28517419Y-2322581D01*
X28517417Y-2322580D01*
X28261632Y-2264198D01*
X28065497Y-2249500D01*
X28065494Y-2249500D01*
X27934506Y-2249500D01*
X27934503Y-2249500D01*
X27738367Y-2264198D01*
X27482582Y-2322580D01*
X27482580Y-2322581D01*
X27238360Y-2418430D01*
X27238352Y-2418433D01*
X27011146Y-2549611D01*
X26806018Y-2713195D01*
X26627566Y-2905522D01*
X26627562Y-2905527D01*
X26479777Y-3122286D01*
X26479773Y-3122293D01*
X26365938Y-3358672D01*
X26365933Y-3358685D01*
X26288604Y-3609380D01*
X26268308Y-3744039D01*
X26249500Y-3868818D01*
X26249500Y-4131182D01*
X-34223591Y-4131182D01*
X-34157590Y-4016864D01*
X-34061080Y-3770963D01*
X-34002299Y-3513424D01*
X-33982558Y-3250000D01*
X-34002299Y-2986576D01*
X-34061080Y-2729037D01*
X-34157590Y-2483136D01*
X-34157591Y-2483135D01*
X-34157592Y-2483131D01*
X-34289669Y-2254367D01*
X-34289671Y-2254364D01*
X-34293151Y-2250000D01*
X-4762663Y-2250000D01*
X-4744040Y-2486632D01*
X-4688629Y-2717437D01*
X-4597794Y-2936733D01*
X-4483102Y-3123891D01*
X-3776903Y-2417692D01*
X-3773116Y-2435915D01*
X-3703558Y-2570156D01*
X-3600362Y-2680652D01*
X-3471181Y-2759209D01*
X-3415579Y-2774788D01*
X-4123893Y-3483101D01*
X-4123893Y-3483102D01*
X-3936739Y-3597791D01*
X-3717438Y-3688628D01*
X-3486633Y-3744039D01*
X-3250000Y-3762662D01*
X-3013368Y-3744039D01*
X-2782563Y-3688628D01*
X-2563262Y-3597791D01*
X-2376109Y-3483102D01*
X-2376108Y-3483101D01*
X-3082375Y-2776834D01*
X-2961542Y-2724349D01*
X-2844261Y-2628934D01*
X-2757072Y-2505415D01*
X-2725163Y-2415628D01*
X-2016899Y-3123892D01*
X-2016898Y-3123891D01*
X-1902209Y-2936738D01*
X-1811372Y-2717437D01*
X-1755961Y-2486632D01*
X-1737338Y-2250000D01*
X1737337Y-2250000D01*
X1755960Y-2486632D01*
X1811371Y-2717437D01*
X1902206Y-2936733D01*
X2016897Y-3123891D01*
X2723097Y-2417691D01*
X2726884Y-2435915D01*
X2796442Y-2570156D01*
X2899638Y-2680652D01*
X3028819Y-2759209D01*
X3084421Y-2774788D01*
X2376107Y-3483101D01*
X2376107Y-3483102D01*
X2563261Y-3597791D01*
X2782562Y-3688628D01*
X3013367Y-3744039D01*
X3250000Y-3762662D01*
X3486632Y-3744039D01*
X3717437Y-3688628D01*
X3936738Y-3597791D01*
X4123891Y-3483102D01*
X4123892Y-3483101D01*
X3417625Y-2776834D01*
X3538458Y-2724349D01*
X3655739Y-2628934D01*
X3742928Y-2505415D01*
X3774837Y-2415628D01*
X4483101Y-3123892D01*
X4483102Y-3123891D01*
X4597791Y-2936738D01*
X4688628Y-2717437D01*
X4744039Y-2486632D01*
X4762662Y-2250000D01*
X10237337Y-2250000D01*
X10255960Y-2486632D01*
X10311371Y-2717437D01*
X10402206Y-2936733D01*
X10516897Y-3123891D01*
X11223097Y-2417691D01*
X11226884Y-2435915D01*
X11296442Y-2570156D01*
X11399638Y-2680652D01*
X11528819Y-2759209D01*
X11584421Y-2774788D01*
X10876107Y-3483101D01*
X10876107Y-3483102D01*
X11063261Y-3597791D01*
X11282562Y-3688628D01*
X11513367Y-3744039D01*
X11750000Y-3762662D01*
X11986632Y-3744039D01*
X12217437Y-3688628D01*
X12436738Y-3597791D01*
X12623891Y-3483102D01*
X12623892Y-3483101D01*
X11917625Y-2776834D01*
X12038458Y-2724349D01*
X12155739Y-2628934D01*
X12242928Y-2505415D01*
X12274837Y-2415628D01*
X12983101Y-3123892D01*
X12983102Y-3123891D01*
X13097791Y-2936738D01*
X13188628Y-2717437D01*
X13244039Y-2486632D01*
X13262662Y-2250000D01*
X16737337Y-2250000D01*
X16755960Y-2486632D01*
X16811371Y-2717437D01*
X16902206Y-2936733D01*
X17016897Y-3123891D01*
X17723097Y-2417691D01*
X17726884Y-2435915D01*
X17796442Y-2570156D01*
X17899638Y-2680652D01*
X18028819Y-2759209D01*
X18084421Y-2774788D01*
X17376107Y-3483101D01*
X17376107Y-3483102D01*
X17563261Y-3597791D01*
X17782562Y-3688628D01*
X18013367Y-3744039D01*
X18250000Y-3762662D01*
X18486632Y-3744039D01*
X18717437Y-3688628D01*
X18936738Y-3597791D01*
X19123891Y-3483102D01*
X19123892Y-3483101D01*
X18417625Y-2776834D01*
X18538458Y-2724349D01*
X18655739Y-2628934D01*
X18742928Y-2505415D01*
X18774837Y-2415628D01*
X19483101Y-3123892D01*
X19483102Y-3123891D01*
X19597791Y-2936738D01*
X19688628Y-2717437D01*
X19744039Y-2486632D01*
X19762662Y-2250000D01*
X19744039Y-2013367D01*
X19740830Y-2000000D01*
X23557573Y-2000000D01*
X23575149Y-2212114D01*
X23577247Y-2237423D01*
X23635726Y-2468351D01*
X23635727Y-2468352D01*
X23635728Y-2468355D01*
X23642212Y-2483136D01*
X23728849Y-2680652D01*
X23731423Y-2686519D01*
X23759203Y-2729039D01*
X23861721Y-2885957D01*
X24023065Y-3061223D01*
X24023070Y-3061228D01*
X24211060Y-3207547D01*
X24211061Y-3207548D01*
X24211067Y-3207552D01*
X24420584Y-3320936D01*
X24420585Y-3320936D01*
X24420586Y-3320937D01*
X24530505Y-3358672D01*
X24645905Y-3398289D01*
X24880885Y-3437500D01*
X24880889Y-3437500D01*
X25119111Y-3437500D01*
X25119115Y-3437500D01*
X25354095Y-3398289D01*
X25579416Y-3320936D01*
X25788933Y-3207552D01*
X25976929Y-3061228D01*
X26020989Y-3013367D01*
X26138278Y-2885957D01*
X26148007Y-2871066D01*
X26268577Y-2686519D01*
X26364272Y-2468355D01*
X26422754Y-2237416D01*
X26442427Y-2000000D01*
X26422754Y-1762584D01*
X26410809Y-1715416D01*
X26364273Y-1531648D01*
X26364272Y-1531647D01*
X26364272Y-1531645D01*
X26268577Y-1313481D01*
X26188549Y-1190989D01*
X26138278Y-1114042D01*
X25976934Y-938776D01*
X25976925Y-938768D01*
X25946796Y-915318D01*
X25905324Y-857694D01*
X25901590Y-786795D01*
X25923636Y-739953D01*
X26010116Y-625435D01*
X26107839Y-429179D01*
X26107841Y-429174D01*
X26157683Y-254000D01*
X25311686Y-254000D01*
X25327641Y-238045D01*
X25385165Y-125148D01*
X25404986Y0D01*
X25385165Y125148D01*
X25327641Y238045D01*
X25311686Y254000D01*
X26157683Y254000D01*
X26107841Y429175D01*
X26107837Y429184D01*
X26057447Y530384D01*
X26044989Y600279D01*
X26072296Y665814D01*
X26104087Y693784D01*
X26151149Y722811D01*
X26277189Y848851D01*
X26370764Y1000560D01*
X26426831Y1169759D01*
X26437500Y1274189D01*
X26437499Y2725810D01*
X26431597Y2783583D01*
X26444573Y2853381D01*
X26493225Y2905086D01*
X26562108Y2922280D01*
X26629352Y2899503D01*
X26649307Y2882090D01*
X26806019Y2713195D01*
X27011143Y2549614D01*
X27011146Y2549612D01*
X27238352Y2418434D01*
X27238356Y2418433D01*
X27238357Y2418432D01*
X27482584Y2322580D01*
X27738370Y2264198D01*
X27890409Y2252805D01*
X27934503Y2249500D01*
X27934506Y2249500D01*
X28065497Y2249500D01*
X28106516Y2252575D01*
X28261630Y2264198D01*
X28517416Y2322580D01*
X28761643Y2418432D01*
X28761645Y2418434D01*
X28761647Y2418434D01*
X28926174Y2513424D01*
X28988857Y2549614D01*
X29193981Y2713195D01*
X29372433Y2905521D01*
X29520228Y3122296D01*
X29634063Y3358677D01*
X29635382Y3362953D01*
X29711395Y3609381D01*
X29711396Y3609385D01*
X29750500Y3868818D01*
X33749500Y3868818D01*
X33762790Y3780649D01*
X33788604Y3609381D01*
X33865933Y3358686D01*
X33865938Y3358673D01*
X33979773Y3122294D01*
X33979777Y3122287D01*
X34116141Y2922280D01*
X34127567Y2905521D01*
X34306019Y2713195D01*
X34511143Y2549614D01*
X34511146Y2549612D01*
X34738352Y2418434D01*
X34738356Y2418433D01*
X34738357Y2418432D01*
X34982584Y2322580D01*
X35238370Y2264198D01*
X35390408Y2252805D01*
X35434503Y2249500D01*
X35434506Y2249500D01*
X35565497Y2249500D01*
X35606516Y2252575D01*
X35761630Y2264198D01*
X36017416Y2322580D01*
X36261643Y2418432D01*
X36261645Y2418434D01*
X36261647Y2418434D01*
X36426174Y2513424D01*
X36488857Y2549614D01*
X36693981Y2713195D01*
X36872433Y2905521D01*
X37020228Y3122296D01*
X37134063Y3358677D01*
X37135382Y3362953D01*
X37211395Y3609381D01*
X37211396Y3609385D01*
X37250500Y3868818D01*
X37250500Y4131182D01*
X37211396Y4390615D01*
X37211395Y4390617D01*
X37211395Y4390620D01*
X37134066Y4641315D01*
X37134061Y4641328D01*
X37066965Y4780654D01*
X37020228Y4877704D01*
X37020226Y4877707D01*
X37020222Y4877714D01*
X36872437Y5094473D01*
X36872433Y5094479D01*
X36693981Y5286805D01*
X36488857Y5450386D01*
X36488852Y5450389D01*
X36488853Y5450389D01*
X36261647Y5581567D01*
X36261639Y5581570D01*
X36017419Y5677419D01*
X36017417Y5677420D01*
X35761632Y5735802D01*
X35565497Y5750500D01*
X35565494Y5750500D01*
X35434506Y5750500D01*
X35434503Y5750500D01*
X35238367Y5735802D01*
X34982582Y5677420D01*
X34982580Y5677419D01*
X34738360Y5581570D01*
X34738352Y5581567D01*
X34511146Y5450389D01*
X34306018Y5286805D01*
X34127566Y5094478D01*
X34127562Y5094473D01*
X33979777Y4877714D01*
X33979773Y4877707D01*
X33865938Y4641328D01*
X33865933Y4641315D01*
X33788604Y4390620D01*
X33766879Y4246486D01*
X33749500Y4131182D01*
X33749500Y3868818D01*
X29750500Y3868818D01*
X29750500Y4131182D01*
X29711396Y4390615D01*
X29711395Y4390617D01*
X29711395Y4390620D01*
X29634066Y4641315D01*
X29634061Y4641328D01*
X29566965Y4780654D01*
X29520228Y4877704D01*
X29520226Y4877707D01*
X29520222Y4877714D01*
X29372437Y5094473D01*
X29372433Y5094479D01*
X29193981Y5286805D01*
X28988857Y5450386D01*
X28988852Y5450389D01*
X28988853Y5450389D01*
X28761647Y5581567D01*
X28761639Y5581570D01*
X28517419Y5677419D01*
X28517417Y5677420D01*
X28261632Y5735802D01*
X28065497Y5750500D01*
X28065494Y5750500D01*
X27934506Y5750500D01*
X27934503Y5750500D01*
X27738367Y5735802D01*
X27482582Y5677420D01*
X27482580Y5677419D01*
X27238360Y5581570D01*
X27238352Y5581567D01*
X27011146Y5450389D01*
X26806018Y5286805D01*
X26627566Y5094478D01*
X26627562Y5094473D01*
X26479777Y4877714D01*
X26479773Y4877707D01*
X26365938Y4641328D01*
X26365933Y4641315D01*
X26288604Y4390620D01*
X26266879Y4246486D01*
X26249500Y4131182D01*
X26249500Y3868818D01*
X26262790Y3780649D01*
X26288604Y3609381D01*
X26348945Y3413762D01*
X26349911Y3342772D01*
X26312343Y3282529D01*
X26248169Y3252161D01*
X26177764Y3261308D01*
X26157500Y3273508D01*
X26157395Y3273336D01*
X26151150Y3277188D01*
X26151149Y3277189D01*
X25999440Y3370764D01*
X25999438Y3370765D01*
X25999436Y3370766D01*
X25830241Y3426831D01*
X25830240Y3426832D01*
X25725819Y3437500D01*
X24274189Y3437500D01*
X24169760Y3426832D01*
X24169757Y3426831D01*
X24000563Y3370766D01*
X23848850Y3277189D01*
X23848844Y3277184D01*
X23722816Y3151156D01*
X23722811Y3151150D01*
X23629234Y2999437D01*
X23573169Y2830242D01*
X23573168Y2830241D01*
X23562500Y2725820D01*
X23562500Y1274190D01*
X23573168Y1169761D01*
X23573169Y1169758D01*
X23629234Y1000564D01*
X23722811Y848851D01*
X23722816Y848845D01*
X23848844Y722817D01*
X23848850Y722812D01*
X23848851Y722811D01*
X23895905Y693788D01*
X23895908Y693786D01*
X23943386Y640999D01*
X23954789Y570925D01*
X23942552Y530383D01*
X23892162Y429185D01*
X23892158Y429175D01*
X23842317Y254000D01*
X24688314Y254000D01*
X24672359Y238045D01*
X24614835Y125148D01*
X24595014Y0D01*
X24614835Y-125148D01*
X24672359Y-238045D01*
X24688314Y-254000D01*
X23842317Y-254000D01*
X23892158Y-429174D01*
X23892160Y-429179D01*
X23989885Y-625438D01*
X24076363Y-739954D01*
X24101453Y-806369D01*
X24086653Y-875806D01*
X24053206Y-915316D01*
X24023073Y-938770D01*
X24023059Y-938783D01*
X23861721Y-1114042D01*
X23731425Y-1313478D01*
X23731421Y-1313484D01*
X23635727Y-1531647D01*
X23635726Y-1531648D01*
X23577247Y-1762576D01*
X23577246Y-1762582D01*
X23577246Y-1762584D01*
X23557573Y-2000000D01*
X19740830Y-2000000D01*
X19688628Y-1782562D01*
X19597791Y-1563261D01*
X19483102Y-1376107D01*
X18776902Y-2082306D01*
X18773116Y-2064085D01*
X18703558Y-1929844D01*
X18600362Y-1819348D01*
X18471181Y-1740791D01*
X18415577Y-1725211D01*
X19123891Y-1016897D01*
X18936733Y-902206D01*
X18717437Y-811371D01*
X18486632Y-755960D01*
X18250000Y-737337D01*
X18013367Y-755960D01*
X17782562Y-811371D01*
X17563262Y-902208D01*
X17376107Y-1016896D01*
X17376107Y-1016898D01*
X18082374Y-1723165D01*
X17961542Y-1775651D01*
X17844261Y-1871066D01*
X17757072Y-1994585D01*
X17725162Y-2084371D01*
X17016898Y-1376107D01*
X17016896Y-1376107D01*
X16902208Y-1563262D01*
X16811371Y-1782562D01*
X16755960Y-2013367D01*
X16737337Y-2250000D01*
X13262662Y-2250000D01*
X13244039Y-2013367D01*
X13188628Y-1782562D01*
X13097791Y-1563261D01*
X12983102Y-1376107D01*
X12983101Y-1376107D01*
X12276902Y-2082306D01*
X12273116Y-2064085D01*
X12203558Y-1929844D01*
X12100362Y-1819348D01*
X11971181Y-1740791D01*
X11915577Y-1725211D01*
X12623891Y-1016897D01*
X12436733Y-902206D01*
X12217437Y-811371D01*
X11986632Y-755960D01*
X11750000Y-737337D01*
X11513367Y-755960D01*
X11282562Y-811371D01*
X11063262Y-902208D01*
X10876107Y-1016896D01*
X10876107Y-1016898D01*
X11582374Y-1723165D01*
X11461542Y-1775651D01*
X11344261Y-1871066D01*
X11257072Y-1994585D01*
X11225162Y-2084370D01*
X10516898Y-1376107D01*
X10516896Y-1376107D01*
X10402208Y-1563262D01*
X10311371Y-1782562D01*
X10255960Y-2013367D01*
X10237337Y-2250000D01*
X4762662Y-2250000D01*
X4744039Y-2013367D01*
X4688628Y-1782562D01*
X4597791Y-1563261D01*
X4483102Y-1376107D01*
X3776902Y-2082306D01*
X3773116Y-2064085D01*
X3703558Y-1929844D01*
X3600362Y-1819348D01*
X3471181Y-1740791D01*
X3415577Y-1725211D01*
X4123891Y-1016897D01*
X3936733Y-902206D01*
X3717437Y-811371D01*
X3486632Y-755960D01*
X3250000Y-737337D01*
X3013367Y-755960D01*
X2782562Y-811371D01*
X2563262Y-902208D01*
X2376107Y-1016896D01*
X2376107Y-1016898D01*
X3082374Y-1723165D01*
X2961542Y-1775651D01*
X2844261Y-1871066D01*
X2757072Y-1994585D01*
X2725162Y-2084371D01*
X2016898Y-1376107D01*
X2016896Y-1376107D01*
X1902208Y-1563262D01*
X1811371Y-1782562D01*
X1755960Y-2013367D01*
X1737337Y-2250000D01*
X-1737338Y-2250000D01*
X-1755961Y-2013367D01*
X-1811372Y-1782562D01*
X-1902209Y-1563261D01*
X-2016898Y-1376107D01*
X-2016899Y-1376107D01*
X-2723098Y-2082306D01*
X-2726884Y-2064085D01*
X-2796442Y-1929844D01*
X-2899638Y-1819348D01*
X-3028819Y-1740791D01*
X-3084423Y-1725211D01*
X-2376109Y-1016897D01*
X-2563267Y-902206D01*
X-2782563Y-811371D01*
X-3013368Y-755960D01*
X-3250000Y-737337D01*
X-3486633Y-755960D01*
X-3717438Y-811371D01*
X-3936738Y-902208D01*
X-4123893Y-1016896D01*
X-4123893Y-1016898D01*
X-3417626Y-1723165D01*
X-3538458Y-1775651D01*
X-3655739Y-1871066D01*
X-3742928Y-1994585D01*
X-3774839Y-2084371D01*
X-4483103Y-1376107D01*
X-4483104Y-1376107D01*
X-4597792Y-1563262D01*
X-4688629Y-1782562D01*
X-4744040Y-2013367D01*
X-4762663Y-2250000D01*
X-34293151Y-2250000D01*
X-34454373Y-2047834D01*
X-34648018Y-1868158D01*
X-34773564Y-1782562D01*
X-34866277Y-1719351D01*
X-34866285Y-1719346D01*
X-35104273Y-1604738D01*
X-35104278Y-1604736D01*
X-35104281Y-1604735D01*
X-35201424Y-1574770D01*
X-35356701Y-1526872D01*
X-35356706Y-1526871D01*
X-35356707Y-1526871D01*
X-35617919Y-1487500D01*
X-35882081Y-1487500D01*
X-36143293Y-1526871D01*
X-36143294Y-1526871D01*
X-36143300Y-1526872D01*
X-36354876Y-1592136D01*
X-36395719Y-1604735D01*
X-36395721Y-1604735D01*
X-36395728Y-1604738D01*
X-36633716Y-1719346D01*
X-36633724Y-1719351D01*
X-36851976Y-1868153D01*
X-36851981Y-1868157D01*
X-37045626Y-2047833D01*
X-37210332Y-2254367D01*
X-37342409Y-2483131D01*
X-37342412Y-2483139D01*
X-37438921Y-2729039D01*
X-37486325Y-2936733D01*
X-37497701Y-2986576D01*
X-37517442Y-3250000D01*
X-38737338Y-3250000D01*
X-38755961Y-3013367D01*
X-38811372Y-2782562D01*
X-38902209Y-2563261D01*
X-39016898Y-2376107D01*
X-39016900Y-2376107D01*
X-39723098Y-3082304D01*
X-39726884Y-3064085D01*
X-39796442Y-2929844D01*
X-39899638Y-2819348D01*
X-40028819Y-2740791D01*
X-40084422Y-2725211D01*
X-39376109Y-2016898D01*
X-39376109Y-2016897D01*
X-39563267Y-1902206D01*
X-39782563Y-1811371D01*
X-40013368Y-1755960D01*
X-40250000Y-1737337D01*
X-40486633Y-1755960D01*
X-40717438Y-1811371D01*
X-40936738Y-1902208D01*
X-41123893Y-2016896D01*
X-41123893Y-2016897D01*
X-40417625Y-2723165D01*
X-40538458Y-2775651D01*
X-40655739Y-2871066D01*
X-40742928Y-2994585D01*
X-40774839Y-3084371D01*
X-41483103Y-2376107D01*
X-41483104Y-2376107D01*
X-41597792Y-2563262D01*
X-41688629Y-2782562D01*
X-41744040Y-3013367D01*
X-41762663Y-3250000D01*
X-42999500Y-3250000D01*
X-42999500Y3250000D01*
X-41762663Y3250000D01*
X-41744040Y3013368D01*
X-41688629Y2782563D01*
X-41597794Y2563267D01*
X-41483103Y2376109D01*
X-40776903Y3082309D01*
X-40773116Y3064085D01*
X-40703558Y2929844D01*
X-40600362Y2819348D01*
X-40471181Y2740791D01*
X-40415579Y2725212D01*
X-41123893Y2016899D01*
X-41123893Y2016898D01*
X-40936739Y1902209D01*
X-40717438Y1811372D01*
X-40486633Y1755961D01*
X-40250000Y1737338D01*
X-40013368Y1755961D01*
X-39782563Y1811372D01*
X-39563262Y1902209D01*
X-39376109Y2016898D01*
X-39376108Y2016899D01*
X-40082375Y2723166D01*
X-39961542Y2775651D01*
X-39844261Y2871066D01*
X-39757072Y2994585D01*
X-39725163Y3084372D01*
X-39016899Y2376108D01*
X-39016898Y2376109D01*
X-38902209Y2563262D01*
X-38811372Y2782563D01*
X-38755961Y3013368D01*
X-38737338Y3250000D01*
X-37517442Y3250000D01*
X-37497701Y2986576D01*
X-37497700Y2986572D01*
X-37438921Y2729040D01*
X-37342412Y2483140D01*
X-37342409Y2483132D01*
X-37210332Y2254368D01*
X-37210330Y2254365D01*
X-37210329Y2254364D01*
X-37045627Y2047834D01*
X-36851982Y1868158D01*
X-36851976Y1868154D01*
X-36633724Y1719352D01*
X-36633716Y1719347D01*
X-36395728Y1604739D01*
X-36395727Y1604739D01*
X-36395719Y1604735D01*
X-36172364Y1535839D01*
X-36143300Y1526873D01*
X-36143293Y1526871D01*
X-35882081Y1487500D01*
X-35882077Y1487500D01*
X-35617923Y1487500D01*
X-35617919Y1487500D01*
X-35356707Y1526871D01*
X-35104281Y1604735D01*
X-34866279Y1719350D01*
X-34648018Y1868158D01*
X-34454373Y2047834D01*
X-34293151Y2250000D01*
X-5017442Y2250000D01*
X-4997701Y1986576D01*
X-4997700Y1986572D01*
X-4938921Y1729040D01*
X-4842412Y1483140D01*
X-4842409Y1483132D01*
X-4710332Y1254368D01*
X-4710330Y1254365D01*
X-4710329Y1254364D01*
X-4545627Y1047834D01*
X-4351982Y868158D01*
X-4351976Y868154D01*
X-4133724Y719352D01*
X-4133716Y719347D01*
X-3895728Y604739D01*
X-3895727Y604739D01*
X-3895719Y604735D01*
X-3672364Y535839D01*
X-3643300Y526873D01*
X-3643293Y526871D01*
X-3382081Y487500D01*
X-3382077Y487500D01*
X-3117923Y487500D01*
X-3117919Y487500D01*
X-2856707Y526871D01*
X-2604281Y604735D01*
X-2468280Y670230D01*
X-2366285Y719347D01*
X-2366285Y719348D01*
X-2366279Y719350D01*
X-2148018Y868158D01*
X-1954373Y1047834D01*
X-1789671Y1254364D01*
X-1657590Y1483136D01*
X-1561080Y1729037D01*
X-1502299Y1986576D01*
X-1482558Y2250000D01*
X1482558Y2250000D01*
X1502299Y1986576D01*
X1502300Y1986572D01*
X1561079Y1729040D01*
X1657588Y1483140D01*
X1657591Y1483132D01*
X1789668Y1254368D01*
X1789670Y1254365D01*
X1789671Y1254364D01*
X1954373Y1047834D01*
X2148018Y868158D01*
X2148024Y868154D01*
X2366276Y719352D01*
X2366284Y719347D01*
X2604272Y604739D01*
X2604273Y604739D01*
X2604281Y604735D01*
X2827636Y535839D01*
X2856700Y526873D01*
X2856707Y526871D01*
X3117919Y487500D01*
X3117923Y487500D01*
X3382077Y487500D01*
X3382081Y487500D01*
X3643293Y526871D01*
X3895719Y604735D01*
X4031720Y670230D01*
X4133715Y719347D01*
X4133715Y719348D01*
X4133721Y719350D01*
X4351982Y868158D01*
X4545627Y1047834D01*
X4710329Y1254364D01*
X4842410Y1483136D01*
X4938920Y1729037D01*
X4997701Y1986576D01*
X5017442Y2250000D01*
X9982558Y2250000D01*
X10002299Y1986576D01*
X10002300Y1986572D01*
X10061079Y1729040D01*
X10157588Y1483140D01*
X10157591Y1483132D01*
X10289668Y1254368D01*
X10289670Y1254365D01*
X10289671Y1254364D01*
X10454373Y1047834D01*
X10648018Y868158D01*
X10648024Y868154D01*
X10866276Y719352D01*
X10866284Y719347D01*
X11104272Y604739D01*
X11104273Y604739D01*
X11104281Y604735D01*
X11327636Y535839D01*
X11356700Y526873D01*
X11356707Y526871D01*
X11617919Y487500D01*
X11617923Y487500D01*
X11882077Y487500D01*
X11882081Y487500D01*
X12143293Y526871D01*
X12395719Y604735D01*
X12531720Y670230D01*
X12633715Y719347D01*
X12633715Y719348D01*
X12633721Y719350D01*
X12851982Y868158D01*
X13045627Y1047834D01*
X13210329Y1254364D01*
X13342410Y1483136D01*
X13438920Y1729037D01*
X13497701Y1986576D01*
X13517442Y2250000D01*
X16482558Y2250000D01*
X16502299Y1986576D01*
X16502300Y1986572D01*
X16561079Y1729040D01*
X16657588Y1483140D01*
X16657591Y1483132D01*
X16789668Y1254368D01*
X16789670Y1254365D01*
X16789671Y1254364D01*
X16954373Y1047834D01*
X17148018Y868158D01*
X17148024Y868154D01*
X17366276Y719352D01*
X17366284Y719347D01*
X17604272Y604739D01*
X17604273Y604739D01*
X17604281Y604735D01*
X17827636Y535839D01*
X17856700Y526873D01*
X17856707Y526871D01*
X18117919Y487500D01*
X18117923Y487500D01*
X18382077Y487500D01*
X18382081Y487500D01*
X18643293Y526871D01*
X18895719Y604735D01*
X19031720Y670230D01*
X19133715Y719347D01*
X19133715Y719348D01*
X19133721Y719350D01*
X19351982Y868158D01*
X19545627Y1047834D01*
X19710329Y1254364D01*
X19842410Y1483136D01*
X19938920Y1729037D01*
X19997701Y1986576D01*
X20017442Y2250000D01*
X19997701Y2513424D01*
X19938920Y2770963D01*
X19842410Y3016864D01*
X19842409Y3016865D01*
X19842408Y3016869D01*
X19710331Y3245633D01*
X19710329Y3245636D01*
X19545627Y3452166D01*
X19351982Y3631842D01*
X19226436Y3717438D01*
X19133723Y3780649D01*
X19133715Y3780654D01*
X18895727Y3895262D01*
X18895722Y3895264D01*
X18895719Y3895265D01*
X18798576Y3925230D01*
X18643299Y3973128D01*
X18643294Y3973129D01*
X18643293Y3973129D01*
X18382081Y4012500D01*
X18117919Y4012500D01*
X17856707Y3973129D01*
X17856706Y3973129D01*
X17856700Y3973128D01*
X17645124Y3907864D01*
X17604281Y3895265D01*
X17604279Y3895265D01*
X17604272Y3895262D01*
X17366284Y3780654D01*
X17366276Y3780649D01*
X17148024Y3631847D01*
X17148019Y3631843D01*
X17020394Y3513424D01*
X16954373Y3452166D01*
X16941413Y3435915D01*
X16789668Y3245633D01*
X16657591Y3016869D01*
X16657588Y3016861D01*
X16561079Y2770961D01*
X16502300Y2513429D01*
X16502299Y2513424D01*
X16482558Y2250000D01*
X13517442Y2250000D01*
X13497701Y2513424D01*
X13438920Y2770963D01*
X13342410Y3016864D01*
X13342409Y3016865D01*
X13342408Y3016869D01*
X13210331Y3245633D01*
X13210329Y3245636D01*
X13045627Y3452166D01*
X12851982Y3631842D01*
X12726436Y3717438D01*
X12633723Y3780649D01*
X12633715Y3780654D01*
X12395727Y3895262D01*
X12395722Y3895264D01*
X12395719Y3895265D01*
X12298576Y3925230D01*
X12143299Y3973128D01*
X12143294Y3973129D01*
X12143293Y3973129D01*
X11882081Y4012500D01*
X11617919Y4012500D01*
X11356707Y3973129D01*
X11356706Y3973129D01*
X11356700Y3973128D01*
X11145124Y3907864D01*
X11104281Y3895265D01*
X11104279Y3895265D01*
X11104272Y3895262D01*
X10866284Y3780654D01*
X10866276Y3780649D01*
X10648024Y3631847D01*
X10648019Y3631843D01*
X10520394Y3513424D01*
X10454373Y3452166D01*
X10441413Y3435915D01*
X10289668Y3245633D01*
X10157591Y3016869D01*
X10157588Y3016861D01*
X10061079Y2770961D01*
X10002300Y2513429D01*
X10002299Y2513424D01*
X9982558Y2250000D01*
X5017442Y2250000D01*
X4997701Y2513424D01*
X4938920Y2770963D01*
X4842410Y3016864D01*
X4842409Y3016865D01*
X4842408Y3016869D01*
X4710331Y3245633D01*
X4710329Y3245636D01*
X4545627Y3452166D01*
X4351982Y3631842D01*
X4226436Y3717438D01*
X4133723Y3780649D01*
X4133715Y3780654D01*
X3895727Y3895262D01*
X3895722Y3895264D01*
X3895719Y3895265D01*
X3798576Y3925230D01*
X3643299Y3973128D01*
X3643294Y3973129D01*
X3643293Y3973129D01*
X3382081Y4012500D01*
X3117919Y4012500D01*
X2856707Y3973129D01*
X2856706Y3973129D01*
X2856700Y3973128D01*
X2645124Y3907864D01*
X2604281Y3895265D01*
X2604279Y3895265D01*
X2604272Y3895262D01*
X2366284Y3780654D01*
X2366276Y3780649D01*
X2148024Y3631847D01*
X2148019Y3631843D01*
X2020394Y3513424D01*
X1954373Y3452166D01*
X1941413Y3435915D01*
X1789668Y3245633D01*
X1657591Y3016869D01*
X1657588Y3016861D01*
X1561079Y2770961D01*
X1502300Y2513429D01*
X1502299Y2513424D01*
X1482558Y2250000D01*
X-1482558Y2250000D01*
X-1502299Y2513424D01*
X-1561080Y2770963D01*
X-1657590Y3016864D01*
X-1657591Y3016865D01*
X-1657592Y3016869D01*
X-1789669Y3245633D01*
X-1789671Y3245636D01*
X-1954373Y3452166D01*
X-2148018Y3631842D01*
X-2273564Y3717438D01*
X-2366277Y3780649D01*
X-2366285Y3780654D01*
X-2604273Y3895262D01*
X-2604278Y3895264D01*
X-2604281Y3895265D01*
X-2701424Y3925230D01*
X-2856701Y3973128D01*
X-2856706Y3973129D01*
X-2856707Y3973129D01*
X-3117919Y4012500D01*
X-3382081Y4012500D01*
X-3643293Y3973129D01*
X-3643294Y3973129D01*
X-3643300Y3973128D01*
X-3854876Y3907864D01*
X-3895719Y3895265D01*
X-3895721Y3895265D01*
X-3895728Y3895262D01*
X-4133716Y3780654D01*
X-4133724Y3780649D01*
X-4351976Y3631847D01*
X-4351981Y3631843D01*
X-4479606Y3513424D01*
X-4545627Y3452166D01*
X-4558587Y3435915D01*
X-4710332Y3245633D01*
X-4842409Y3016869D01*
X-4842412Y3016861D01*
X-4938921Y2770961D01*
X-4997700Y2513429D01*
X-4997701Y2513424D01*
X-5017442Y2250000D01*
X-34293151Y2250000D01*
X-34289671Y2254364D01*
X-34194947Y2418432D01*
X-34157592Y2483132D01*
X-34157590Y2483136D01*
X-34061080Y2729037D01*
X-34002299Y2986576D01*
X-33982558Y3250000D01*
X-34002299Y3513424D01*
X-34061080Y3770963D01*
X-34157590Y4016864D01*
X-34157591Y4016865D01*
X-34157592Y4016869D01*
X-34289669Y4245633D01*
X-34289671Y4245636D01*
X-34454373Y4452166D01*
X-34648018Y4631842D01*
X-34812582Y4744040D01*
X-34866277Y4780649D01*
X-34866285Y4780654D01*
X-35104273Y4895262D01*
X-35104278Y4895264D01*
X-35104281Y4895265D01*
X-35201424Y4925230D01*
X-35356701Y4973128D01*
X-35356706Y4973129D01*
X-35356707Y4973129D01*
X-35617919Y5012500D01*
X-35882081Y5012500D01*
X-36143293Y4973129D01*
X-36143294Y4973129D01*
X-36143300Y4973128D01*
X-36354876Y4907864D01*
X-36395719Y4895265D01*
X-36395721Y4895265D01*
X-36395728Y4895262D01*
X-36633716Y4780654D01*
X-36633724Y4780649D01*
X-36851976Y4631847D01*
X-36851981Y4631843D01*
X-37045626Y4452167D01*
X-37210332Y4245633D01*
X-37342409Y4016869D01*
X-37342412Y4016861D01*
X-37438921Y3770961D01*
X-37497700Y3513429D01*
X-37497701Y3513424D01*
X-37517442Y3250000D01*
X-38737338Y3250000D01*
X-38755961Y3486633D01*
X-38811372Y3717438D01*
X-38902209Y3936739D01*
X-39016898Y4123893D01*
X-39016899Y4123893D01*
X-39723098Y3417695D01*
X-39726884Y3435915D01*
X-39796442Y3570156D01*
X-39899638Y3680652D01*
X-40028819Y3759209D01*
X-40084423Y3774789D01*
X-39376109Y4483103D01*
X-39563267Y4597794D01*
X-39782563Y4688629D01*
X-40013368Y4744040D01*
X-40250000Y4762663D01*
X-40486633Y4744040D01*
X-40717438Y4688629D01*
X-40936738Y4597792D01*
X-41123893Y4483104D01*
X-41123893Y4483102D01*
X-40417626Y3776835D01*
X-40538458Y3724349D01*
X-40655739Y3628934D01*
X-40742928Y3505415D01*
X-40774838Y3415629D01*
X-41483102Y4123893D01*
X-41483104Y4123893D01*
X-41597792Y3936738D01*
X-41688629Y3717438D01*
X-41744040Y3486633D01*
X-41762663Y3250000D01*
X-42999500Y3250000D01*
X-42999500Y7620000D01*
X-40837332Y7620000D01*
X-40818036Y7374815D01*
X-40760621Y7135668D01*
X-40666503Y6908446D01*
X-40565061Y6742907D01*
X-40537997Y6698744D01*
X-40537996Y6698742D01*
X-40378272Y6511729D01*
X-40191259Y6352005D01*
X-40191255Y6352002D01*
X-39981554Y6223497D01*
X-39754332Y6129379D01*
X-39515185Y6071964D01*
X-39270000Y6052668D01*
X-39024815Y6071964D01*
X-38785668Y6129379D01*
X-38558446Y6223497D01*
X-38348745Y6352002D01*
X-38161729Y6511729D01*
X-38002002Y6698745D01*
X-37920867Y6831147D01*
X-37868220Y6878776D01*
X-37821957Y6887256D01*
X-37256903Y7452309D01*
X-37253116Y7434085D01*
X-37183558Y7299844D01*
X-37080362Y7189348D01*
X-36951181Y7110791D01*
X-36895579Y7095212D01*
X-37457890Y6532902D01*
X-37457890Y6532900D01*
X-37386502Y6482914D01*
X-37179074Y6386189D01*
X-37179069Y6386187D01*
X-36958001Y6326952D01*
X-36958005Y6326952D01*
X-36730000Y6307005D01*
X-36501998Y6326952D01*
X-36280932Y6386187D01*
X-36280927Y6386189D01*
X-36073503Y6482912D01*
X-36002112Y6532901D01*
X-36002112Y6532903D01*
X-36562375Y7093166D01*
X-36441542Y7145651D01*
X-36324261Y7241066D01*
X-36237072Y7364585D01*
X-36205163Y7454372D01*
X-35637616Y6886825D01*
X-35587943Y6876842D01*
X-35539135Y6831147D01*
X-35460000Y6702012D01*
X-35457997Y6698744D01*
X-35457996Y6698742D01*
X-35298272Y6511729D01*
X-35111259Y6352005D01*
X-35111255Y6352002D01*
X-34901554Y6223497D01*
X-34674332Y6129379D01*
X-34435185Y6071964D01*
X-34190000Y6052668D01*
X-33944815Y6071964D01*
X-33705668Y6129379D01*
X-33478446Y6223497D01*
X-33268745Y6352002D01*
X-33081729Y6511729D01*
X-33015811Y6588910D01*
X-32956361Y6627718D01*
X-32885366Y6628226D01*
X-32825367Y6590270D01*
X-32824189Y6588909D01*
X-32758272Y6511729D01*
X-32571259Y6352005D01*
X-32571255Y6352002D01*
X-32361554Y6223497D01*
X-32134332Y6129379D01*
X-31895185Y6071964D01*
X-31650000Y6052668D01*
X-31404815Y6071964D01*
X-31165668Y6129379D01*
X-30938446Y6223497D01*
X-30728745Y6352002D01*
X-30541729Y6511729D01*
X-30475811Y6588910D01*
X-30416361Y6627718D01*
X-30345366Y6628226D01*
X-30285367Y6590270D01*
X-30284189Y6588909D01*
X-30218272Y6511729D01*
X-30031259Y6352005D01*
X-30031255Y6352002D01*
X-29821554Y6223497D01*
X-29594332Y6129379D01*
X-29355185Y6071964D01*
X-29110000Y6052668D01*
X-28864815Y6071964D01*
X-28625668Y6129379D01*
X-28398446Y6223497D01*
X-28188745Y6352002D01*
X-28001729Y6511729D01*
X-27935811Y6588910D01*
X-27876361Y6627718D01*
X-27805366Y6628226D01*
X-27745367Y6590270D01*
X-27744189Y6588909D01*
X-27678272Y6511729D01*
X-27491259Y6352005D01*
X-27491255Y6352002D01*
X-27281554Y6223497D01*
X-27054332Y6129379D01*
X-26815185Y6071964D01*
X-26570000Y6052668D01*
X-26324815Y6071964D01*
X-26085668Y6129379D01*
X-25858446Y6223497D01*
X-25648745Y6352002D01*
X-25461729Y6511729D01*
X-25395811Y6588910D01*
X-25336361Y6627718D01*
X-25265366Y6628226D01*
X-25205367Y6590270D01*
X-25204189Y6588909D01*
X-25138272Y6511729D01*
X-24951259Y6352005D01*
X-24951255Y6352002D01*
X-24741554Y6223497D01*
X-24514332Y6129379D01*
X-24275185Y6071964D01*
X-24030000Y6052668D01*
X-23784815Y6071964D01*
X-23545668Y6129379D01*
X-23318446Y6223497D01*
X-23108745Y6352002D01*
X-22921729Y6511729D01*
X-22855811Y6588910D01*
X-22796361Y6627718D01*
X-22725366Y6628226D01*
X-22665367Y6590270D01*
X-22664189Y6588909D01*
X-22598272Y6511729D01*
X-22411259Y6352005D01*
X-22411255Y6352002D01*
X-22201554Y6223497D01*
X-21974332Y6129379D01*
X-21735185Y6071964D01*
X-21490000Y6052668D01*
X-21244815Y6071964D01*
X-21005668Y6129379D01*
X-20778446Y6223497D01*
X-20568745Y6352002D01*
X-20381729Y6511729D01*
X-20315811Y6588910D01*
X-20256361Y6627718D01*
X-20185366Y6628226D01*
X-20125367Y6590270D01*
X-20124189Y6588909D01*
X-20058272Y6511729D01*
X-19871259Y6352005D01*
X-19871255Y6352002D01*
X-19661554Y6223497D01*
X-19434332Y6129379D01*
X-19195185Y6071964D01*
X-18950000Y6052668D01*
X-18704815Y6071964D01*
X-18465668Y6129379D01*
X-18238446Y6223497D01*
X-18028745Y6352002D01*
X-17841729Y6511729D01*
X-17775811Y6588910D01*
X-17716361Y6627718D01*
X-17645366Y6628226D01*
X-17585367Y6590270D01*
X-17584189Y6588909D01*
X-17518272Y6511729D01*
X-17331259Y6352005D01*
X-17331255Y6352002D01*
X-17121554Y6223497D01*
X-16894332Y6129379D01*
X-16655185Y6071964D01*
X-16410000Y6052668D01*
X-16164815Y6071964D01*
X-15925668Y6129379D01*
X-15698446Y6223497D01*
X-15488745Y6352002D01*
X-15301729Y6511729D01*
X-15235811Y6588910D01*
X-15176361Y6627718D01*
X-15105366Y6628226D01*
X-15045367Y6590270D01*
X-15044189Y6588909D01*
X-14978272Y6511729D01*
X-14791259Y6352005D01*
X-14791255Y6352002D01*
X-14581554Y6223497D01*
X-14354332Y6129379D01*
X-14115185Y6071964D01*
X-13870000Y6052668D01*
X-13624815Y6071964D01*
X-13385668Y6129379D01*
X-13158446Y6223497D01*
X-12948745Y6352002D01*
X-12761729Y6511729D01*
X-12695811Y6588910D01*
X-12636361Y6627718D01*
X-12565366Y6628226D01*
X-12505367Y6590270D01*
X-12504189Y6588909D01*
X-12438272Y6511729D01*
X-12251259Y6352005D01*
X-12251255Y6352002D01*
X-12041554Y6223497D01*
X-11814332Y6129379D01*
X-11575185Y6071964D01*
X-11330000Y6052668D01*
X-11084815Y6071964D01*
X-10845668Y6129379D01*
X-10618446Y6223497D01*
X-10408745Y6352002D01*
X-10221729Y6511729D01*
X-10189734Y6549190D01*
X-2937500Y6549190D01*
X-2926832Y6444761D01*
X-2926831Y6444758D01*
X-2870766Y6275564D01*
X-2777189Y6123851D01*
X-2777184Y6123845D01*
X-2651156Y5997817D01*
X-2651150Y5997812D01*
X-2651149Y5997811D01*
X-2499440Y5904236D01*
X-2330241Y5848169D01*
X-2225811Y5837500D01*
X-324190Y5837501D01*
X-219759Y5848169D01*
X-50560Y5904236D01*
X101149Y5997811D01*
X195578Y6092241D01*
X257888Y6126264D01*
X328704Y6121200D01*
X350495Y6110583D01*
X507907Y6014121D01*
X749671Y5913979D01*
X1004123Y5852890D01*
X1265000Y5832359D01*
X1525877Y5852890D01*
X1780329Y5913979D01*
X2022093Y6014121D01*
X2245215Y6150850D01*
X2444200Y6320800D01*
X2614150Y6519785D01*
X2632169Y6549190D01*
X12062500Y6549190D01*
X12073168Y6444761D01*
X12073169Y6444758D01*
X12129234Y6275564D01*
X12222811Y6123851D01*
X12222816Y6123845D01*
X12348844Y5997817D01*
X12348850Y5997812D01*
X12348851Y5997811D01*
X12500560Y5904236D01*
X12669759Y5848169D01*
X12774189Y5837500D01*
X14675810Y5837501D01*
X14780241Y5848169D01*
X14949440Y5904236D01*
X15101149Y5997811D01*
X15195578Y6092241D01*
X15257888Y6126264D01*
X15328704Y6121200D01*
X15350495Y6110583D01*
X15507907Y6014121D01*
X15749671Y5913979D01*
X16004123Y5852890D01*
X16265000Y5832359D01*
X16525877Y5852890D01*
X16780329Y5913979D01*
X17022093Y6014121D01*
X17245215Y6150850D01*
X17444200Y6320800D01*
X17614150Y6519785D01*
X17750879Y6742907D01*
X17851021Y6984671D01*
X17912110Y7239123D01*
X17932641Y7500000D01*
X17912110Y7760877D01*
X17851021Y8015329D01*
X17750879Y8257093D01*
X17614150Y8480215D01*
X17444200Y8679200D01*
X17245215Y8849150D01*
X17022093Y8985879D01*
X16987760Y9000100D01*
X16921949Y9027360D01*
X16780329Y9086021D01*
X16780327Y9086022D01*
X16780326Y9086022D01*
X16643390Y9118898D01*
X16525877Y9147110D01*
X16265000Y9167641D01*
X16264999Y9167641D01*
X16004123Y9147110D01*
X15749673Y9086022D01*
X15507908Y8985880D01*
X15429892Y8938072D01*
X15350505Y8889424D01*
X15281973Y8870886D01*
X15214296Y8892343D01*
X15195577Y8907762D01*
X15101155Y9002184D01*
X15101149Y9002189D01*
X15077941Y9016504D01*
X14949440Y9095764D01*
X14949438Y9095765D01*
X14949436Y9095766D01*
X14780241Y9151831D01*
X14780240Y9151832D01*
X14675819Y9162500D01*
X12774189Y9162500D01*
X12669760Y9151832D01*
X12669757Y9151831D01*
X12500563Y9095766D01*
X12348850Y9002189D01*
X12348844Y9002184D01*
X12222816Y8876156D01*
X12222811Y8876150D01*
X12129234Y8724437D01*
X12073169Y8555242D01*
X12073168Y8555241D01*
X12062500Y8450820D01*
X12062500Y6549190D01*
X2632169Y6549190D01*
X2750879Y6742907D01*
X2851021Y6984671D01*
X2912110Y7239123D01*
X2932641Y7500000D01*
X2912110Y7760877D01*
X2851021Y8015329D01*
X2750879Y8257093D01*
X2614150Y8480215D01*
X2444200Y8679200D01*
X2245215Y8849150D01*
X2022093Y8985879D01*
X1987760Y9000100D01*
X1921949Y9027360D01*
X1780329Y9086021D01*
X1780327Y9086022D01*
X1780326Y9086022D01*
X1643390Y9118898D01*
X1525877Y9147110D01*
X1265000Y9167641D01*
X1264999Y9167641D01*
X1004123Y9147110D01*
X749673Y9086022D01*
X507908Y8985880D01*
X429892Y8938072D01*
X350505Y8889424D01*
X281973Y8870886D01*
X214296Y8892343D01*
X195577Y8907762D01*
X101155Y9002184D01*
X101149Y9002189D01*
X77941Y9016504D01*
X-50560Y9095764D01*
X-50562Y9095765D01*
X-50564Y9095766D01*
X-219759Y9151831D01*
X-219760Y9151832D01*
X-324181Y9162500D01*
X-2225811Y9162500D01*
X-2330240Y9151832D01*
X-2330243Y9151831D01*
X-2499437Y9095766D01*
X-2651150Y9002189D01*
X-2651156Y9002184D01*
X-2777184Y8876156D01*
X-2777189Y8876150D01*
X-2870766Y8724437D01*
X-2926831Y8555242D01*
X-2926832Y8555241D01*
X-2937500Y8450820D01*
X-2937500Y6549190D01*
X-10189734Y6549190D01*
X-10062002Y6698745D01*
X-9933497Y6908446D01*
X-9839379Y7135668D01*
X-9781964Y7374815D01*
X-9762668Y7620000D01*
X-9781964Y7865185D01*
X-9839379Y8104332D01*
X-9933497Y8331554D01*
X-10062002Y8541255D01*
X-10073948Y8555242D01*
X-10221729Y8728272D01*
X-10408742Y8887996D01*
X-10408744Y8887997D01*
X-10408745Y8887998D01*
X-10618446Y9016503D01*
X-10845668Y9110621D01*
X-10845670Y9110622D01*
X-10845671Y9110622D01*
X-10997653Y9147110D01*
X-11084815Y9168036D01*
X-11084814Y9168036D01*
X-11330000Y9187332D01*
X-11575186Y9168036D01*
X-11814330Y9110622D01*
X-12041553Y9016504D01*
X-12251257Y8887997D01*
X-12251259Y8887996D01*
X-12438269Y8728274D01*
X-12504189Y8651091D01*
X-12563640Y8612282D01*
X-12634634Y8611776D01*
X-12694633Y8649732D01*
X-12695811Y8651091D01*
X-12695812Y8651092D01*
X-12761729Y8728271D01*
X-12761731Y8728273D01*
X-12761732Y8728274D01*
X-12948742Y8887996D01*
X-12948744Y8887997D01*
X-12948745Y8887998D01*
X-13158446Y9016503D01*
X-13385668Y9110621D01*
X-13385670Y9110622D01*
X-13385671Y9110622D01*
X-13537653Y9147110D01*
X-13624815Y9168036D01*
X-13624814Y9168036D01*
X-13870000Y9187332D01*
X-14115186Y9168036D01*
X-14354330Y9110622D01*
X-14581553Y9016504D01*
X-14791257Y8887997D01*
X-14791259Y8887996D01*
X-14978273Y8728271D01*
X-15044191Y8651091D01*
X-15103642Y8612282D01*
X-15174636Y8611776D01*
X-15234635Y8649733D01*
X-15235732Y8650999D01*
X-15301729Y8728271D01*
X-15301732Y8728273D01*
X-15301733Y8728275D01*
X-15488742Y8887996D01*
X-15488744Y8887997D01*
X-15488745Y8887998D01*
X-15698446Y9016503D01*
X-15925668Y9110621D01*
X-15925670Y9110622D01*
X-15925671Y9110622D01*
X-16077653Y9147110D01*
X-16164815Y9168036D01*
X-16164814Y9168036D01*
X-16410000Y9187332D01*
X-16655186Y9168036D01*
X-16894330Y9110622D01*
X-17121553Y9016504D01*
X-17331257Y8887997D01*
X-17331259Y8887996D01*
X-17518269Y8728274D01*
X-17584189Y8651091D01*
X-17643640Y8612282D01*
X-17714634Y8611776D01*
X-17774633Y8649732D01*
X-17775811Y8651091D01*
X-17775812Y8651092D01*
X-17841729Y8728271D01*
X-17841731Y8728273D01*
X-17841732Y8728274D01*
X-18028742Y8887996D01*
X-18028744Y8887997D01*
X-18028745Y8887998D01*
X-18238446Y9016503D01*
X-18465668Y9110621D01*
X-18465670Y9110622D01*
X-18465671Y9110622D01*
X-18617653Y9147110D01*
X-18704815Y9168036D01*
X-18704814Y9168036D01*
X-18950000Y9187332D01*
X-19195186Y9168036D01*
X-19434330Y9110622D01*
X-19661553Y9016504D01*
X-19871257Y8887997D01*
X-19871259Y8887996D01*
X-20058273Y8728271D01*
X-20124191Y8651091D01*
X-20183642Y8612282D01*
X-20254636Y8611776D01*
X-20314635Y8649733D01*
X-20315732Y8650999D01*
X-20381729Y8728271D01*
X-20381732Y8728273D01*
X-20381733Y8728275D01*
X-20568742Y8887996D01*
X-20568744Y8887997D01*
X-20568745Y8887998D01*
X-20778446Y9016503D01*
X-21005668Y9110621D01*
X-21005670Y9110622D01*
X-21005671Y9110622D01*
X-21157653Y9147110D01*
X-21244815Y9168036D01*
X-21244814Y9168036D01*
X-21490000Y9187332D01*
X-21735186Y9168036D01*
X-21974330Y9110622D01*
X-22201553Y9016504D01*
X-22411257Y8887997D01*
X-22411259Y8887996D01*
X-22598269Y8728274D01*
X-22664189Y8651091D01*
X-22723640Y8612282D01*
X-22794634Y8611776D01*
X-22854633Y8649732D01*
X-22855811Y8651091D01*
X-22855812Y8651092D01*
X-22921729Y8728271D01*
X-22921731Y8728273D01*
X-22921732Y8728274D01*
X-23108742Y8887996D01*
X-23108744Y8887997D01*
X-23108745Y8887998D01*
X-23318446Y9016503D01*
X-23545668Y9110621D01*
X-23545670Y9110622D01*
X-23545671Y9110622D01*
X-23697653Y9147110D01*
X-23784815Y9168036D01*
X-23784814Y9168036D01*
X-24030000Y9187332D01*
X-24275186Y9168036D01*
X-24514330Y9110622D01*
X-24741553Y9016504D01*
X-24951257Y8887997D01*
X-24951259Y8887996D01*
X-25138269Y8728274D01*
X-25204189Y8651091D01*
X-25263640Y8612282D01*
X-25334634Y8611776D01*
X-25394633Y8649732D01*
X-25395811Y8651091D01*
X-25395812Y8651092D01*
X-25461729Y8728271D01*
X-25461731Y8728273D01*
X-25461732Y8728274D01*
X-25648742Y8887996D01*
X-25648744Y8887997D01*
X-25648745Y8887998D01*
X-25858446Y9016503D01*
X-26085668Y9110621D01*
X-26085670Y9110622D01*
X-26085671Y9110622D01*
X-26237653Y9147110D01*
X-26324815Y9168036D01*
X-26324814Y9168036D01*
X-26570000Y9187332D01*
X-26815186Y9168036D01*
X-27054330Y9110622D01*
X-27281553Y9016504D01*
X-27491257Y8887997D01*
X-27491259Y8887996D01*
X-27678273Y8728271D01*
X-27744191Y8651091D01*
X-27803642Y8612282D01*
X-27874636Y8611776D01*
X-27934635Y8649733D01*
X-27935732Y8650999D01*
X-28001729Y8728271D01*
X-28001732Y8728273D01*
X-28001733Y8728275D01*
X-28188742Y8887996D01*
X-28188744Y8887997D01*
X-28188745Y8887998D01*
X-28398446Y9016503D01*
X-28625668Y9110621D01*
X-28625670Y9110622D01*
X-28625671Y9110622D01*
X-28777653Y9147110D01*
X-28864815Y9168036D01*
X-28864814Y9168036D01*
X-29110000Y9187332D01*
X-29355186Y9168036D01*
X-29594330Y9110622D01*
X-29821553Y9016504D01*
X-30031257Y8887997D01*
X-30031259Y8887996D01*
X-30218269Y8728274D01*
X-30284189Y8651091D01*
X-30343640Y8612282D01*
X-30414634Y8611776D01*
X-30474633Y8649732D01*
X-30475811Y8651091D01*
X-30475812Y8651092D01*
X-30541729Y8728271D01*
X-30541731Y8728273D01*
X-30541732Y8728274D01*
X-30728742Y8887996D01*
X-30728744Y8887997D01*
X-30728745Y8887998D01*
X-30938446Y9016503D01*
X-31165668Y9110621D01*
X-31165670Y9110622D01*
X-31165671Y9110622D01*
X-31317653Y9147110D01*
X-31404815Y9168036D01*
X-31404814Y9168036D01*
X-31650000Y9187332D01*
X-31895186Y9168036D01*
X-32134330Y9110622D01*
X-32361553Y9016504D01*
X-32571257Y8887997D01*
X-32571259Y8887996D01*
X-32758273Y8728271D01*
X-32824191Y8651091D01*
X-32883642Y8612282D01*
X-32954636Y8611776D01*
X-33014635Y8649733D01*
X-33015732Y8650999D01*
X-33081729Y8728271D01*
X-33081732Y8728273D01*
X-33081733Y8728275D01*
X-33268742Y8887996D01*
X-33268744Y8887997D01*
X-33268745Y8887998D01*
X-33478446Y9016503D01*
X-33705668Y9110621D01*
X-33705670Y9110622D01*
X-33705671Y9110622D01*
X-33857653Y9147110D01*
X-33944815Y9168036D01*
X-33944814Y9168036D01*
X-34190000Y9187332D01*
X-34435186Y9168036D01*
X-34674330Y9110622D01*
X-34901553Y9016504D01*
X-35111257Y8887997D01*
X-35111259Y8887996D01*
X-35298272Y8728272D01*
X-35457996Y8541259D01*
X-35458004Y8541248D01*
X-35539133Y8408857D01*
X-35591780Y8361226D01*
X-35638046Y8352746D01*
X-36203098Y7787694D01*
X-36206884Y7805915D01*
X-36276442Y7940156D01*
X-36379638Y8050652D01*
X-36508819Y8129209D01*
X-36564423Y8144789D01*
X-36002112Y8707101D01*
X-36002112Y8707102D01*
X-36073499Y8757087D01*
X-36280927Y8853812D01*
X-36280932Y8853814D01*
X-36502000Y8913049D01*
X-36501996Y8913049D01*
X-36730000Y8932996D01*
X-36958003Y8913049D01*
X-37179069Y8853814D01*
X-37179074Y8853812D01*
X-37386500Y8757087D01*
X-37457891Y8707100D01*
X-36897626Y8146835D01*
X-37018458Y8094349D01*
X-37135739Y7998934D01*
X-37222928Y7875415D01*
X-37254838Y7785629D01*
X-37822386Y8353177D01*
X-37872061Y8363161D01*
X-37920868Y8408856D01*
X-38002002Y8541255D01*
X-38013948Y8555242D01*
X-38161729Y8728272D01*
X-38348742Y8887996D01*
X-38348744Y8887997D01*
X-38348745Y8887998D01*
X-38558446Y9016503D01*
X-38785668Y9110621D01*
X-38785670Y9110622D01*
X-38785671Y9110622D01*
X-38937653Y9147110D01*
X-39024815Y9168036D01*
X-39024814Y9168036D01*
X-39270000Y9187332D01*
X-39515186Y9168036D01*
X-39754330Y9110622D01*
X-39981553Y9016504D01*
X-40191257Y8887997D01*
X-40191259Y8887996D01*
X-40378272Y8728272D01*
X-40537996Y8541259D01*
X-40537997Y8541257D01*
X-40666504Y8331553D01*
X-40760622Y8104330D01*
X-40790661Y7979210D01*
X-40818036Y7865185D01*
X-40837332Y7620000D01*
X-42999500Y7620000D01*
X-42999500Y11932235D01*
X-36854212Y11932235D01*
X-36824588Y11662986D01*
X-36756072Y11400910D01*
X-36650131Y11151611D01*
X-36650130Y11151610D01*
X-36509018Y10920390D01*
X-36335745Y10712180D01*
X-36134002Y10531418D01*
X-35908090Y10381956D01*
X-35662824Y10266980D01*
X-35403431Y10188940D01*
X-35403428Y10188940D01*
X-35403426Y10188939D01*
X-35135443Y10149500D01*
X-35135439Y10149500D01*
X-34932367Y10149500D01*
X-34897637Y10152043D01*
X-34729844Y10164323D01*
X-34729840Y10164324D01*
X-34729839Y10164324D01*
X-34619335Y10188940D01*
X-34465447Y10223220D01*
X-34212442Y10319986D01*
X-33976223Y10452559D01*
X-33761823Y10618112D01*
X-33573814Y10813119D01*
X-33416201Y11033421D01*
X-33292344Y11274325D01*
X-33204882Y11530695D01*
X-33155681Y11797067D01*
X-33150741Y11932235D01*
X33145788Y11932235D01*
X33175412Y11662986D01*
X33243928Y11400910D01*
X33349869Y11151611D01*
X33349870Y11151610D01*
X33490982Y10920390D01*
X33664255Y10712180D01*
X33865998Y10531418D01*
X34091910Y10381956D01*
X34337176Y10266980D01*
X34596569Y10188940D01*
X34596572Y10188940D01*
X34596574Y10188939D01*
X34864557Y10149500D01*
X34864561Y10149500D01*
X35067633Y10149500D01*
X35102363Y10152043D01*
X35270156Y10164323D01*
X35270160Y10164324D01*
X35270161Y10164324D01*
X35380665Y10188940D01*
X35534553Y10223220D01*
X35787558Y10319986D01*
X36023777Y10452559D01*
X36238177Y10618112D01*
X36426186Y10813119D01*
X36583799Y11033421D01*
X36707656Y11274325D01*
X36795118Y11530695D01*
X36844319Y11797067D01*
X36854212Y12067765D01*
X36839338Y12202942D01*
X36824587Y12337015D01*
X36756071Y12599091D01*
X36650130Y12848390D01*
X36602218Y12926896D01*
X36509018Y13079610D01*
X36335745Y13287820D01*
X36335741Y13287823D01*
X36335740Y13287825D01*
X36134012Y13468573D01*
X36134002Y13468582D01*
X35908090Y13618044D01*
X35662824Y13733020D01*
X35505392Y13780385D01*
X35403425Y13811062D01*
X35135442Y13850500D01*
X35135439Y13850500D01*
X34932369Y13850500D01*
X34932367Y13850500D01*
X34729839Y13835677D01*
X34729838Y13835677D01*
X34465456Y13776783D01*
X34465441Y13776778D01*
X34212441Y13680014D01*
X33976229Y13547445D01*
X33976225Y13547443D01*
X33761818Y13381884D01*
X33573815Y13186883D01*
X33573810Y13186877D01*
X33416203Y12966583D01*
X33416196Y12966573D01*
X33292343Y12725676D01*
X33292342Y12725673D01*
X33204883Y12469311D01*
X33204880Y12469298D01*
X33155681Y12202942D01*
X33155680Y12202931D01*
X33145788Y11932235D01*
X-33150741Y11932235D01*
X-33145788Y12067765D01*
X-33160662Y12202942D01*
X-33175413Y12337015D01*
X-33243929Y12599091D01*
X-33349870Y12848390D01*
X-33397782Y12926896D01*
X-33490982Y13079610D01*
X-33664255Y13287820D01*
X-33664259Y13287823D01*
X-33664260Y13287825D01*
X-33865988Y13468573D01*
X-33865998Y13468582D01*
X-34091910Y13618044D01*
X-34337176Y13733020D01*
X-34494608Y13780385D01*
X-34596575Y13811062D01*
X-34864558Y13850500D01*
X-34864561Y13850500D01*
X-35067631Y13850500D01*
X-35067633Y13850500D01*
X-35270161Y13835677D01*
X-35270162Y13835677D01*
X-35534544Y13776783D01*
X-35534559Y13776778D01*
X-35787559Y13680014D01*
X-36023771Y13547445D01*
X-36023775Y13547443D01*
X-36238182Y13381884D01*
X-36426185Y13186883D01*
X-36426190Y13186877D01*
X-36583797Y12966583D01*
X-36583804Y12966573D01*
X-36707657Y12725676D01*
X-36707658Y12725673D01*
X-36795117Y12469311D01*
X-36795120Y12469298D01*
X-36844319Y12202942D01*
X-36844320Y12202931D01*
X-36854212Y11932235D01*
X-42999500Y11932235D01*
X-42999500Y11998358D01*
X-42999415Y12001628D01*
X-42992510Y12133386D01*
X-42982200Y12316961D01*
X-42981523Y12323288D01*
X-42958398Y12469298D01*
X-42957389Y12475669D01*
X-42936418Y12599091D01*
X-42929785Y12638134D01*
X-42928535Y12643859D01*
X-42887575Y12796721D01*
X-42842917Y12951730D01*
X-42841221Y12956786D01*
X-42783873Y13106185D01*
X-42722644Y13254004D01*
X-42720607Y13258423D01*
X-42647489Y13401922D01*
X-42642607Y13410757D01*
X-42570356Y13541485D01*
X-42568115Y13545220D01*
X-42480008Y13680894D01*
X-42387854Y13810770D01*
X-42385489Y13813888D01*
X-42284393Y13938731D01*
X-42282415Y13941055D01*
X-42177245Y14058741D01*
X-42174902Y14061219D01*
X-42061219Y14174902D01*
X-42058741Y14177245D01*
X-41941045Y14282425D01*
X-41938723Y14284399D01*
X-41813888Y14385489D01*
X-41810770Y14387854D01*
X-41680894Y14480008D01*
X-41545220Y14568115D01*
X-41541485Y14570356D01*
X-41401922Y14647489D01*
X-41391938Y14652577D01*
X-41258423Y14720607D01*
X-41254004Y14722644D01*
X-41106185Y14783873D01*
X-40956786Y14841221D01*
X-40951730Y14842917D01*
X-40796721Y14887575D01*
X-40643859Y14928535D01*
X-40638134Y14929785D01*
X-40475716Y14957382D01*
X-40336989Y14979354D01*
X-40323287Y14981523D01*
X-40316960Y14982200D01*
X-40261820Y14985297D01*
X-40133476Y14992505D01*
X-40001628Y14999415D01*
X-39998356Y14999500D01*
X39998356Y14999500D01*
X40001627Y14999415D01*
G37*
%TD.AperFunction*%
%TD*%
D17*
X-43000000Y12000000D02*
X-43000000Y9000000D01*
X43000000Y-9000000D02*
X43000000Y-12000000D01*
X40000000Y15000000D02*
X-40000000Y15000000D01*
X43000000Y12000000D02*
G75*
G03*
X40000000Y15000000I-3000000J0D01*
G01*
X-43000000Y-12000000D02*
G75*
G03*
X-40000000Y-15000000I3000000J0D01*
G01*
X43000000Y9000000D02*
X43000000Y-9000000D01*
X43000000Y9000000D02*
X43000000Y12000000D01*
X40000000Y-15000000D02*
X-40000000Y-15000000D01*
X-43000000Y-12000000D02*
X-43000000Y-9000000D01*
X-40000000Y15000000D02*
G75*
G03*
X-43000000Y12000000I0J-3000000D01*
G01*
X-43000000Y-9000000D02*
X-43000000Y9000000D01*
X40000000Y-15000000D02*
G75*
G03*
X43000000Y-12000000I0J3000000D01*
G01*
M02*
