M48
; DRILL file {KiCad (6.0.7)} date Mon Mar  6 12:08:39 2023
; FORMAT={-:-/ absolute / inch / decimal}
; #@! TF.CreationDate,2023-03-06T12:08:39-08:00
; #@! TF.GenerationSoftware,Kicad,Pcbnew,(6.0.7)
; #@! TF.FileFunction,Plated,1,2,PTH
FMAT,2
INCH
; #@! TA.AperFunction,Plated,PTH,ComponentDrill
T1C0.0315
; #@! TA.AperFunction,Plated,PTH,ComponentDrill
T2C0.0354
; #@! TA.AperFunction,Plated,PTH,ComponentDrill
T3C0.0433
; #@! TA.AperFunction,Plated,PTH,ViaDrill
T4C0.1181
%
G90
G05
T1
X0.9843Y0.0787
X0.9843Y0.0
X0.9843Y-0.0787
T2
X-0.0502Y0.2953
X0.0498Y0.2953
X0.5404Y0.2953
X0.6404Y0.2953
T3
X-1.5846Y0.128
X-1.5846Y-0.128
X-1.5461Y0.3
X-1.5461Y-0.3
X-1.4461Y0.3
X-1.4461Y-0.3
X-1.4075Y0.128
X-1.4075Y-0.128
X-1.3461Y0.3
X-1.3461Y-0.3
X-1.2461Y0.3
X-1.2461Y-0.3
X-1.1461Y0.3
X-1.1461Y-0.3
X-1.0461Y0.3
X-1.0461Y-0.3
X-0.9461Y0.3
X-0.9461Y-0.3
X-0.8461Y0.3
X-0.8461Y-0.3
X-0.7461Y0.3
X-0.7461Y-0.3
X-0.6461Y0.3
X-0.6461Y-0.3
X-0.5461Y0.3
X-0.5461Y-0.3
X-0.4461Y0.3
X-0.4461Y-0.3
X-0.128Y0.0886
X-0.128Y-0.0886
X0.128Y0.0886
X0.128Y-0.0886
X0.4626Y0.0886
X0.4626Y-0.0886
X0.7185Y0.0886
X0.7185Y-0.0886
T4
X-1.378Y0.4724
X-1.378Y-0.4724
X1.378Y0.4724
X1.378Y-0.4724
T0
M30
