%TF.GenerationSoftware,KiCad,Pcbnew,(6.0.7)*%
%TF.CreationDate,2023-03-07T14:44:30-08:00*%
%TF.ProjectId,Foot Pedal PCB,466f6f74-2050-4656-9461-6c205043422e,A1*%
%TF.SameCoordinates,PX8917370PY68e7780*%
%TF.FileFunction,Copper,L1,Top*%
%TF.FilePolarity,Positive*%
%FSLAX46Y46*%
G04 Gerber Fmt 4.6, Leading zero omitted, Abs format (unit mm)*
G04 Created by KiCad (PCBNEW (6.0.7)) date 2023-03-07 14:44:30*
%MOMM*%
%LPD*%
G01*
G04 APERTURE LIST*
%TA.AperFunction,Profile*%
%ADD10C,0.200000*%
%TD*%
%TA.AperFunction,ComponentPad*%
%ADD11R,1.350000X1.350000*%
%TD*%
%TA.AperFunction,ComponentPad*%
%ADD12O,1.350000X1.350000*%
%TD*%
%TA.AperFunction,ComponentPad*%
%ADD13R,1.800000X1.800000*%
%TD*%
%TA.AperFunction,ComponentPad*%
%ADD14C,1.800000*%
%TD*%
%TA.AperFunction,ComponentPad*%
%ADD15C,2.000000*%
%TD*%
%TA.AperFunction,ComponentPad*%
%ADD16R,1.600000X1.600000*%
%TD*%
%TA.AperFunction,ComponentPad*%
%ADD17C,1.600000*%
%TD*%
G04 APERTURE END LIST*
D10*
X-43000000Y12000000D02*
X-43000000Y9000000D01*
X43000000Y-9000000D02*
X43000000Y-12000000D01*
X40000000Y15000000D02*
X-40000000Y15000000D01*
X43000000Y12000000D02*
G75*
G03*
X40000000Y15000000I-3000000J0D01*
G01*
X-43000000Y-12000000D02*
G75*
G03*
X-40000000Y-15000000I3000000J0D01*
G01*
X43000000Y9000000D02*
X43000000Y-9000000D01*
X43000000Y9000000D02*
X43000000Y12000000D01*
X40000000Y-15000000D02*
X-40000000Y-15000000D01*
X-43000000Y-12000000D02*
X-43000000Y-9000000D01*
X-40000000Y15000000D02*
G75*
G03*
X-43000000Y12000000I0J-3000000D01*
G01*
X-43000000Y-9000000D02*
X-43000000Y9000000D01*
X40000000Y-15000000D02*
G75*
G03*
X43000000Y-12000000I0J3000000D01*
G01*
D11*
%TO.P,J1,1,Pin_1*%
%TO.N,unconnected-(J1-Pad1)*%
X25000000Y2000000D03*
D12*
%TO.P,J1,2,Pin_2*%
%TO.N,/ROW0*%
X25000000Y0D03*
%TO.P,J1,3,Pin_3*%
%TO.N,/COL2*%
X25000000Y-2000000D03*
%TD*%
D13*
%TO.P,D1,1,K*%
%TO.N,/LED1*%
X-1275000Y7500000D03*
D14*
%TO.P,D1,2,A*%
%TO.N,Net-(D1-Pad2)*%
X1265000Y7500000D03*
%TD*%
D13*
%TO.P,D2,1,K*%
%TO.N,/LED2*%
X13725000Y7500000D03*
D14*
%TO.P,D2,2,A*%
%TO.N,Net-(D2-Pad2)*%
X16265000Y7500000D03*
%TD*%
D15*
%TO.P,SW2,1,1*%
%TO.N,/COL0*%
X-3250000Y2250000D03*
X3250000Y2250000D03*
%TO.P,SW2,2,2*%
%TO.N,/ROW0*%
X-3250000Y-2250000D03*
X3250000Y-2250000D03*
%TD*%
D16*
%TO.P,U1,1,TX*%
%TO.N,unconnected-(U1-Pad1)*%
X-39270000Y-7620000D03*
D17*
%TO.P,U1,2,RX*%
%TO.N,unconnected-(U1-Pad2)*%
X-36730000Y-7620000D03*
%TO.P,U1,3,GND*%
%TO.N,GND*%
X-34190000Y-7620000D03*
%TO.P,U1,4,GND*%
X-31650000Y-7620000D03*
%TO.P,U1,5,SDA*%
%TO.N,unconnected-(U1-Pad5)*%
X-29110000Y-7620000D03*
%TO.P,U1,6,SCL*%
%TO.N,unconnected-(U1-Pad6)*%
X-26570000Y-7620000D03*
%TO.P,U1,7,D4*%
%TO.N,unconnected-(U1-Pad7)*%
X-24030000Y-7620000D03*
%TO.P,U1,8,C6*%
%TO.N,unconnected-(U1-Pad8)*%
X-21490000Y-7620000D03*
%TO.P,U1,9,D7*%
%TO.N,unconnected-(U1-Pad9)*%
X-18950000Y-7620000D03*
%TO.P,U1,10,E6*%
%TO.N,unconnected-(U1-Pad10)*%
X-16410000Y-7620000D03*
%TO.P,U1,11,B4*%
%TO.N,unconnected-(U1-Pad11)*%
X-13870000Y-7620000D03*
%TO.P,U1,12,B5*%
%TO.N,/ROW0*%
X-11330000Y-7620000D03*
%TO.P,U1,13,B6*%
%TO.N,/COL2*%
X-11330000Y7620000D03*
%TO.P,U1,14,B2*%
%TO.N,/COL1*%
X-13870000Y7620000D03*
%TO.P,U1,15,B3*%
%TO.N,/COL0*%
X-16410000Y7620000D03*
%TO.P,U1,16,B1*%
%TO.N,unconnected-(U1-Pad16)*%
X-18950000Y7620000D03*
%TO.P,U1,17,F7*%
%TO.N,unconnected-(U1-Pad17)*%
X-21490000Y7620000D03*
%TO.P,U1,18,F6*%
%TO.N,unconnected-(U1-Pad18)*%
X-24030000Y7620000D03*
%TO.P,U1,19,F5*%
%TO.N,/LED2*%
X-26570000Y7620000D03*
%TO.P,U1,20,F4*%
%TO.N,/LED1*%
X-29110000Y7620000D03*
%TO.P,U1,21,VCC*%
%TO.N,VCC*%
X-31650000Y7620000D03*
%TO.P,U1,22,RST*%
%TO.N,Net-(SW1-Pad2)*%
X-34190000Y7620000D03*
%TO.P,U1,23,GND*%
%TO.N,GND*%
X-36730000Y7620000D03*
%TO.P,U1,24,RAW*%
%TO.N,unconnected-(U1-Pad24)*%
X-39270000Y7620000D03*
%TD*%
D15*
%TO.P,SW3,1,1*%
%TO.N,/COL1*%
X11750000Y2250000D03*
X18250000Y2250000D03*
%TO.P,SW3,2,2*%
%TO.N,/ROW0*%
X18250000Y-2250000D03*
X11750000Y-2250000D03*
%TD*%
%TO.P,SW1,1,1*%
%TO.N,GND*%
X-40250000Y-3250000D03*
X-40250000Y3250000D03*
%TO.P,SW1,2,2*%
%TO.N,Net-(SW1-Pad2)*%
X-35750000Y3250000D03*
X-35750000Y-3250000D03*
%TD*%
%TA.AperFunction,Conductor*%
%TO.N,GND*%
G36*
X-36250977Y14217498D02*
G01*
X-36204484Y14163842D01*
X-36194380Y14093568D01*
X-36223874Y14028988D01*
X-36249096Y14006735D01*
X-36441285Y13878319D01*
X-36444379Y13875605D01*
X-36444385Y13875601D01*
X-36668002Y13679493D01*
X-36674124Y13674124D01*
X-36676833Y13671035D01*
X-36875601Y13444385D01*
X-36875605Y13444379D01*
X-36878319Y13441285D01*
X-37050375Y13183785D01*
X-37187349Y12906029D01*
X-37286896Y12612772D01*
X-37287699Y12608733D01*
X-37287701Y12608727D01*
X-37302273Y12535469D01*
X-37347314Y12309030D01*
X-37347583Y12304919D01*
X-37347584Y12304915D01*
X-37364658Y12044406D01*
X-37367569Y12000000D01*
X-37347314Y11690970D01*
X-37286896Y11387228D01*
X-37187349Y11093971D01*
X-37185526Y11090275D01*
X-37185523Y11090267D01*
X-37074356Y10864844D01*
X-37050375Y10816216D01*
X-37048081Y10812783D01*
X-37048080Y10812782D01*
X-36878319Y10558715D01*
X-36875605Y10555621D01*
X-36875601Y10555615D01*
X-36676833Y10328965D01*
X-36674124Y10325876D01*
X-36671035Y10323167D01*
X-36444385Y10124399D01*
X-36444379Y10124395D01*
X-36441285Y10121681D01*
X-36183784Y9949625D01*
X-36180081Y9947799D01*
X-35909733Y9814477D01*
X-35909725Y9814474D01*
X-35906029Y9812651D01*
X-35902115Y9811322D01*
X-35902114Y9811322D01*
X-35616679Y9714430D01*
X-35616676Y9714429D01*
X-35612772Y9713104D01*
X-35608733Y9712301D01*
X-35608727Y9712299D01*
X-35313073Y9653490D01*
X-35313070Y9653490D01*
X-35309030Y9652686D01*
X-35304919Y9652417D01*
X-35304915Y9652416D01*
X-35079387Y9637634D01*
X-35079378Y9637634D01*
X-35077338Y9637500D01*
X-34922662Y9637500D01*
X-34920622Y9637634D01*
X-34920613Y9637634D01*
X-34695085Y9652416D01*
X-34695081Y9652417D01*
X-34690970Y9652686D01*
X-34686930Y9653490D01*
X-34686927Y9653490D01*
X-34391273Y9712299D01*
X-34391267Y9712301D01*
X-34387228Y9713104D01*
X-34383324Y9714429D01*
X-34383321Y9714430D01*
X-34097886Y9811322D01*
X-34097885Y9811322D01*
X-34093971Y9812651D01*
X-34090275Y9814474D01*
X-34090267Y9814477D01*
X-33819919Y9947799D01*
X-33816216Y9949625D01*
X-33558715Y10121681D01*
X-33555621Y10124395D01*
X-33555615Y10124399D01*
X-33328965Y10323167D01*
X-33325876Y10325876D01*
X-33323167Y10328965D01*
X-33124399Y10555615D01*
X-33124395Y10555621D01*
X-33121681Y10558715D01*
X-32949625Y10816215D01*
X-32812651Y11093971D01*
X-32713104Y11387228D01*
X-32652686Y11690970D01*
X-32632431Y12000000D01*
X-32635342Y12044406D01*
X-32652416Y12304915D01*
X-32652417Y12304919D01*
X-32652686Y12309030D01*
X-32697727Y12535469D01*
X-32712299Y12608727D01*
X-32712301Y12608733D01*
X-32713104Y12612772D01*
X-32812651Y12906029D01*
X-32814475Y12909727D01*
X-32814477Y12909733D01*
X-32947799Y13180081D01*
X-32949625Y13183784D01*
X-32951919Y13187217D01*
X-32951920Y13187219D01*
X-33011940Y13277046D01*
X-33121681Y13441285D01*
X-33124395Y13444379D01*
X-33124399Y13444385D01*
X-33323167Y13671035D01*
X-33325876Y13674124D01*
X-33331998Y13679493D01*
X-33555615Y13875601D01*
X-33555621Y13875605D01*
X-33558715Y13878319D01*
X-33750904Y14006735D01*
X-33796432Y14061212D01*
X-33805280Y14131655D01*
X-33774639Y14195699D01*
X-33714237Y14233010D01*
X-33680902Y14237500D01*
X33680902Y14237500D01*
X33749023Y14217498D01*
X33795516Y14163842D01*
X33805620Y14093568D01*
X33776126Y14028988D01*
X33750904Y14006735D01*
X33558715Y13878319D01*
X33555621Y13875605D01*
X33555615Y13875601D01*
X33331998Y13679493D01*
X33325876Y13674124D01*
X33323167Y13671035D01*
X33124399Y13444385D01*
X33124395Y13444379D01*
X33121681Y13441285D01*
X32949625Y13183785D01*
X32812651Y12906029D01*
X32713104Y12612772D01*
X32712301Y12608733D01*
X32712299Y12608727D01*
X32697727Y12535469D01*
X32652686Y12309030D01*
X32652417Y12304919D01*
X32652416Y12304915D01*
X32635342Y12044406D01*
X32632431Y12000000D01*
X32652686Y11690970D01*
X32713104Y11387228D01*
X32812651Y11093971D01*
X32814474Y11090275D01*
X32814477Y11090267D01*
X32925644Y10864844D01*
X32949625Y10816216D01*
X32951919Y10812783D01*
X32951920Y10812782D01*
X33121681Y10558715D01*
X33124395Y10555621D01*
X33124399Y10555615D01*
X33323167Y10328965D01*
X33325876Y10325876D01*
X33328965Y10323167D01*
X33555615Y10124399D01*
X33555621Y10124395D01*
X33558715Y10121681D01*
X33816216Y9949625D01*
X33819919Y9947799D01*
X34090267Y9814477D01*
X34090275Y9814474D01*
X34093971Y9812651D01*
X34097885Y9811322D01*
X34097886Y9811322D01*
X34383321Y9714430D01*
X34383324Y9714429D01*
X34387228Y9713104D01*
X34391267Y9712301D01*
X34391273Y9712299D01*
X34686927Y9653490D01*
X34686930Y9653490D01*
X34690970Y9652686D01*
X34695081Y9652417D01*
X34695085Y9652416D01*
X34920613Y9637634D01*
X34920622Y9637634D01*
X34922662Y9637500D01*
X35077338Y9637500D01*
X35079378Y9637634D01*
X35079387Y9637634D01*
X35304915Y9652416D01*
X35304919Y9652417D01*
X35309030Y9652686D01*
X35313070Y9653490D01*
X35313073Y9653490D01*
X35608727Y9712299D01*
X35608733Y9712301D01*
X35612772Y9713104D01*
X35616676Y9714429D01*
X35616679Y9714430D01*
X35902114Y9811322D01*
X35902115Y9811322D01*
X35906029Y9812651D01*
X35909725Y9814474D01*
X35909733Y9814477D01*
X36180081Y9947799D01*
X36183784Y9949625D01*
X36441285Y10121681D01*
X36444379Y10124395D01*
X36444385Y10124399D01*
X36671035Y10323167D01*
X36674124Y10325876D01*
X36676833Y10328965D01*
X36875601Y10555615D01*
X36875605Y10555621D01*
X36878319Y10558715D01*
X37050375Y10816215D01*
X37187349Y11093971D01*
X37286896Y11387228D01*
X37347314Y11690970D01*
X37367569Y12000000D01*
X37364658Y12044406D01*
X37347584Y12304915D01*
X37347583Y12304919D01*
X37347314Y12309030D01*
X37302273Y12535469D01*
X37287701Y12608727D01*
X37287699Y12608733D01*
X37286896Y12612772D01*
X37187349Y12906029D01*
X37185525Y12909727D01*
X37185523Y12909733D01*
X37052201Y13180081D01*
X37050375Y13183784D01*
X37048081Y13187217D01*
X37048080Y13187219D01*
X36988060Y13277046D01*
X36878319Y13441285D01*
X36875605Y13444379D01*
X36875601Y13444385D01*
X36676833Y13671035D01*
X36674124Y13674124D01*
X36668002Y13679493D01*
X36444385Y13875601D01*
X36444379Y13875605D01*
X36441285Y13878319D01*
X36249096Y14006735D01*
X36203568Y14061212D01*
X36194720Y14131655D01*
X36225361Y14195699D01*
X36285763Y14233010D01*
X36319098Y14237500D01*
X39943762Y14237500D01*
X39959555Y14236506D01*
X39989286Y14232750D01*
X40010340Y14234814D01*
X40013401Y14235114D01*
X40033302Y14235485D01*
X40262093Y14221646D01*
X40277197Y14219812D01*
X40527971Y14173856D01*
X40542744Y14170215D01*
X40786159Y14094364D01*
X40800377Y14088972D01*
X41032866Y13984337D01*
X41046339Y13977266D01*
X41264525Y13845367D01*
X41277046Y13836724D01*
X41477738Y13679493D01*
X41489127Y13669403D01*
X41669403Y13489127D01*
X41679493Y13477738D01*
X41836724Y13277046D01*
X41845367Y13264525D01*
X41977266Y13046339D01*
X41984336Y13032868D01*
X42043184Y12902114D01*
X42088970Y12800381D01*
X42094364Y12786159D01*
X42149654Y12608727D01*
X42170215Y12542744D01*
X42173856Y12527971D01*
X42219812Y12277198D01*
X42221646Y12262094D01*
X42234814Y12044406D01*
X42234051Y12021013D01*
X42232750Y12010714D01*
X42235513Y11982536D01*
X42236899Y11968399D01*
X42237500Y11956104D01*
X42237500Y-11943762D01*
X42236506Y-11959554D01*
X42232750Y-11989286D01*
X42234189Y-12003962D01*
X42235114Y-12013401D01*
X42235485Y-12033302D01*
X42221646Y-12262093D01*
X42219812Y-12277197D01*
X42173856Y-12527971D01*
X42170215Y-12542744D01*
X42148394Y-12612772D01*
X42094366Y-12786154D01*
X42088972Y-12800377D01*
X41984337Y-13032866D01*
X41977266Y-13046339D01*
X41845367Y-13264525D01*
X41836724Y-13277046D01*
X41679493Y-13477738D01*
X41669403Y-13489127D01*
X41489127Y-13669403D01*
X41477738Y-13679493D01*
X41277046Y-13836724D01*
X41264525Y-13845367D01*
X41046339Y-13977266D01*
X41032868Y-13984336D01*
X40800377Y-14088972D01*
X40786159Y-14094364D01*
X40666488Y-14131655D01*
X40542744Y-14170215D01*
X40527971Y-14173856D01*
X40277198Y-14219812D01*
X40262094Y-14221646D01*
X40044406Y-14234814D01*
X40021013Y-14234051D01*
X40010714Y-14232750D01*
X39968399Y-14236899D01*
X39956104Y-14237500D01*
X36319098Y-14237500D01*
X36250977Y-14217498D01*
X36204484Y-14163842D01*
X36194380Y-14093568D01*
X36223874Y-14028988D01*
X36249096Y-14006735D01*
X36287300Y-13981208D01*
X36441285Y-13878319D01*
X36444379Y-13875605D01*
X36444385Y-13875601D01*
X36671035Y-13676833D01*
X36674124Y-13674124D01*
X36836363Y-13489127D01*
X36875601Y-13444385D01*
X36875605Y-13444379D01*
X36878319Y-13441285D01*
X37050375Y-13183785D01*
X37187349Y-12906029D01*
X37286896Y-12612772D01*
X37300826Y-12542744D01*
X37346510Y-12313073D01*
X37346510Y-12313070D01*
X37347314Y-12309030D01*
X37349401Y-12277198D01*
X37367299Y-12004119D01*
X37367569Y-12000000D01*
X37347314Y-11690970D01*
X37286896Y-11387228D01*
X37187349Y-11093971D01*
X37185525Y-11090273D01*
X37185523Y-11090267D01*
X37052201Y-10819919D01*
X37050375Y-10816216D01*
X37048081Y-10812783D01*
X37048080Y-10812781D01*
X37003681Y-10746333D01*
X36878319Y-10558715D01*
X36875605Y-10555621D01*
X36875601Y-10555615D01*
X36676833Y-10328965D01*
X36674124Y-10325876D01*
X36671035Y-10323167D01*
X36444385Y-10124399D01*
X36444379Y-10124395D01*
X36441285Y-10121681D01*
X36183784Y-9949625D01*
X36135156Y-9925644D01*
X35909733Y-9814477D01*
X35909725Y-9814474D01*
X35906029Y-9812651D01*
X35902114Y-9811322D01*
X35616679Y-9714430D01*
X35616676Y-9714429D01*
X35612772Y-9713104D01*
X35608733Y-9712301D01*
X35608727Y-9712299D01*
X35313073Y-9653490D01*
X35313070Y-9653490D01*
X35309030Y-9652686D01*
X35304919Y-9652417D01*
X35304915Y-9652416D01*
X35079387Y-9637634D01*
X35079378Y-9637634D01*
X35077338Y-9637500D01*
X34922662Y-9637500D01*
X34920622Y-9637634D01*
X34920613Y-9637634D01*
X34695085Y-9652416D01*
X34695081Y-9652417D01*
X34690970Y-9652686D01*
X34686930Y-9653490D01*
X34686927Y-9653490D01*
X34391273Y-9712299D01*
X34391267Y-9712301D01*
X34387228Y-9713104D01*
X34383324Y-9714429D01*
X34383321Y-9714430D01*
X34097886Y-9811322D01*
X34093971Y-9812651D01*
X34090275Y-9814474D01*
X34090267Y-9814477D01*
X33864844Y-9925644D01*
X33816216Y-9949625D01*
X33558715Y-10121681D01*
X33555621Y-10124395D01*
X33555615Y-10124399D01*
X33328965Y-10323167D01*
X33325876Y-10325876D01*
X33323167Y-10328965D01*
X33124399Y-10555615D01*
X33124395Y-10555621D01*
X33121681Y-10558715D01*
X32949625Y-10816215D01*
X32812651Y-11093971D01*
X32713104Y-11387228D01*
X32652686Y-11690970D01*
X32632431Y-12000000D01*
X32632701Y-12004119D01*
X32650600Y-12277198D01*
X32652686Y-12309030D01*
X32653490Y-12313070D01*
X32653490Y-12313073D01*
X32699175Y-12542744D01*
X32713104Y-12612772D01*
X32812651Y-12906029D01*
X32814474Y-12909725D01*
X32814477Y-12909733D01*
X32881844Y-13046339D01*
X32949625Y-13183784D01*
X32951919Y-13187217D01*
X32951920Y-13187218D01*
X33121681Y-13441285D01*
X33124395Y-13444379D01*
X33124399Y-13444385D01*
X33163637Y-13489127D01*
X33325876Y-13674124D01*
X33328965Y-13676833D01*
X33555615Y-13875601D01*
X33555621Y-13875605D01*
X33558715Y-13878319D01*
X33712700Y-13981208D01*
X33750904Y-14006735D01*
X33796432Y-14061212D01*
X33805280Y-14131655D01*
X33774639Y-14195699D01*
X33714237Y-14233010D01*
X33680902Y-14237500D01*
X-33680902Y-14237500D01*
X-33749023Y-14217498D01*
X-33795516Y-14163842D01*
X-33805620Y-14093568D01*
X-33776126Y-14028988D01*
X-33750904Y-14006735D01*
X-33712700Y-13981208D01*
X-33558715Y-13878319D01*
X-33555621Y-13875605D01*
X-33555615Y-13875601D01*
X-33328965Y-13676833D01*
X-33325876Y-13674124D01*
X-33163637Y-13489127D01*
X-33124399Y-13444385D01*
X-33124395Y-13444379D01*
X-33121681Y-13441285D01*
X-32949625Y-13183785D01*
X-32812651Y-12906029D01*
X-32713104Y-12612772D01*
X-32699174Y-12542744D01*
X-32653490Y-12313073D01*
X-32653490Y-12313070D01*
X-32652686Y-12309030D01*
X-32650599Y-12277198D01*
X-32632701Y-12004119D01*
X-32632431Y-12000000D01*
X-32652686Y-11690970D01*
X-32713104Y-11387228D01*
X-32812651Y-11093971D01*
X-32814475Y-11090273D01*
X-32814477Y-11090267D01*
X-32947799Y-10819919D01*
X-32949625Y-10816216D01*
X-32951919Y-10812783D01*
X-32951920Y-10812781D01*
X-32996319Y-10746333D01*
X-33121681Y-10558715D01*
X-33124395Y-10555621D01*
X-33124399Y-10555615D01*
X-33323167Y-10328965D01*
X-33325876Y-10325876D01*
X-33328965Y-10323167D01*
X-33555615Y-10124399D01*
X-33555621Y-10124395D01*
X-33558715Y-10121681D01*
X-33816216Y-9949625D01*
X-33864844Y-9925644D01*
X-34090267Y-9814477D01*
X-34090275Y-9814474D01*
X-34093971Y-9812651D01*
X-34097886Y-9811322D01*
X-34383321Y-9714430D01*
X-34383324Y-9714429D01*
X-34387228Y-9713104D01*
X-34391267Y-9712301D01*
X-34391273Y-9712299D01*
X-34686927Y-9653490D01*
X-34686930Y-9653490D01*
X-34690970Y-9652686D01*
X-34695081Y-9652417D01*
X-34695085Y-9652416D01*
X-34920613Y-9637634D01*
X-34920622Y-9637634D01*
X-34922662Y-9637500D01*
X-35077338Y-9637500D01*
X-35079378Y-9637634D01*
X-35079387Y-9637634D01*
X-35304915Y-9652416D01*
X-35304919Y-9652417D01*
X-35309030Y-9652686D01*
X-35313070Y-9653490D01*
X-35313073Y-9653490D01*
X-35608727Y-9712299D01*
X-35608733Y-9712301D01*
X-35612772Y-9713104D01*
X-35616676Y-9714429D01*
X-35616679Y-9714430D01*
X-35902114Y-9811322D01*
X-35906029Y-9812651D01*
X-35909725Y-9814474D01*
X-35909733Y-9814477D01*
X-36135156Y-9925644D01*
X-36183784Y-9949625D01*
X-36441285Y-10121681D01*
X-36444379Y-10124395D01*
X-36444385Y-10124399D01*
X-36671035Y-10323167D01*
X-36674124Y-10325876D01*
X-36676833Y-10328965D01*
X-36875601Y-10555615D01*
X-36875605Y-10555621D01*
X-36878319Y-10558715D01*
X-37050375Y-10816215D01*
X-37187349Y-11093971D01*
X-37286896Y-11387228D01*
X-37347314Y-11690970D01*
X-37367569Y-12000000D01*
X-37367299Y-12004119D01*
X-37349400Y-12277198D01*
X-37347314Y-12309030D01*
X-37346510Y-12313070D01*
X-37346510Y-12313073D01*
X-37300825Y-12542744D01*
X-37286896Y-12612772D01*
X-37187349Y-12906029D01*
X-37185526Y-12909725D01*
X-37185523Y-12909733D01*
X-37118156Y-13046339D01*
X-37050375Y-13183784D01*
X-37048081Y-13187217D01*
X-37048080Y-13187218D01*
X-36878319Y-13441285D01*
X-36875605Y-13444379D01*
X-36875601Y-13444385D01*
X-36836363Y-13489127D01*
X-36674124Y-13674124D01*
X-36671035Y-13676833D01*
X-36444385Y-13875601D01*
X-36444379Y-13875605D01*
X-36441285Y-13878319D01*
X-36287300Y-13981208D01*
X-36249096Y-14006735D01*
X-36203568Y-14061212D01*
X-36194720Y-14131655D01*
X-36225361Y-14195699D01*
X-36285763Y-14233010D01*
X-36319098Y-14237500D01*
X-39943762Y-14237500D01*
X-39959554Y-14236506D01*
X-39962863Y-14236088D01*
X-39989286Y-14232750D01*
X-40009346Y-14234717D01*
X-40013401Y-14235114D01*
X-40033302Y-14235485D01*
X-40262093Y-14221646D01*
X-40277197Y-14219812D01*
X-40527971Y-14173856D01*
X-40542744Y-14170215D01*
X-40666488Y-14131655D01*
X-40786159Y-14094364D01*
X-40800377Y-14088972D01*
X-41032868Y-13984336D01*
X-41046339Y-13977266D01*
X-41264525Y-13845367D01*
X-41277046Y-13836724D01*
X-41477738Y-13679493D01*
X-41489127Y-13669403D01*
X-41669403Y-13489127D01*
X-41679493Y-13477738D01*
X-41836724Y-13277046D01*
X-41845367Y-13264525D01*
X-41977266Y-13046339D01*
X-41984337Y-13032866D01*
X-42088972Y-12800377D01*
X-42094366Y-12786154D01*
X-42148393Y-12612772D01*
X-42170215Y-12542744D01*
X-42173856Y-12527971D01*
X-42219812Y-12277198D01*
X-42221646Y-12262093D01*
X-42234468Y-12050114D01*
X-42233645Y-12029307D01*
X-42233829Y-12029293D01*
X-42233526Y-12025351D01*
X-42232974Y-12021425D01*
X-42232675Y-12000000D01*
X-42236715Y-11963983D01*
X-42237500Y-11949938D01*
X-42237500Y-8470666D01*
X-40832500Y-8470666D01*
X-40821468Y-8576990D01*
X-40819287Y-8583526D01*
X-40819287Y-8583528D01*
X-40778406Y-8706062D01*
X-40765197Y-8745654D01*
X-40671634Y-8896850D01*
X-40545799Y-9022466D01*
X-40394440Y-9115764D01*
X-40387492Y-9118069D01*
X-40387491Y-9118069D01*
X-40232209Y-9169575D01*
X-40232207Y-9169576D01*
X-40225678Y-9171741D01*
X-40120666Y-9182500D01*
X-38419334Y-9182500D01*
X-38416088Y-9182163D01*
X-38416084Y-9182163D01*
X-38319868Y-9172180D01*
X-38319864Y-9172179D01*
X-38313010Y-9171468D01*
X-38306474Y-9169287D01*
X-38306472Y-9169287D01*
X-38174723Y-9125332D01*
X-38144346Y-9115197D01*
X-37993150Y-9021634D01*
X-37867534Y-8895799D01*
X-37863693Y-8889568D01*
X-37859157Y-8883824D01*
X-37856752Y-8885723D01*
X-37814289Y-8847466D01*
X-37744224Y-8836004D01*
X-37677908Y-8865234D01*
X-37655014Y-8884788D01*
X-37655010Y-8884791D01*
X-37651255Y-8887998D01*
X-37441554Y-9016503D01*
X-37436984Y-9018396D01*
X-37436980Y-9018398D01*
X-37218901Y-9108729D01*
X-37218895Y-9108731D01*
X-37214332Y-9110621D01*
X-37209532Y-9111773D01*
X-37209527Y-9111775D01*
X-37100134Y-9138038D01*
X-36975185Y-9168036D01*
X-36730000Y-9187332D01*
X-36484815Y-9168036D01*
X-36359866Y-9138038D01*
X-36250473Y-9111775D01*
X-36250468Y-9111773D01*
X-36245668Y-9110621D01*
X-36241105Y-9108731D01*
X-36241099Y-9108729D01*
X-36023020Y-9018398D01*
X-36023016Y-9018396D01*
X-36018446Y-9016503D01*
X-35808745Y-8887998D01*
X-35621729Y-8728271D01*
X-35602761Y-8706062D01*
X-34911507Y-8706062D01*
X-34902211Y-8718077D01*
X-34851006Y-8753931D01*
X-34841511Y-8759414D01*
X-34644053Y-8851490D01*
X-34633761Y-8855236D01*
X-34423312Y-8911625D01*
X-34412519Y-8913528D01*
X-34195475Y-8932517D01*
X-34184525Y-8932517D01*
X-33967481Y-8913528D01*
X-33956688Y-8911625D01*
X-33746239Y-8855236D01*
X-33735947Y-8851490D01*
X-33538489Y-8759414D01*
X-33528994Y-8753931D01*
X-33476952Y-8717491D01*
X-33468576Y-8707012D01*
X-33469075Y-8706062D01*
X-32371507Y-8706062D01*
X-32362211Y-8718077D01*
X-32311006Y-8753931D01*
X-32301511Y-8759414D01*
X-32104053Y-8851490D01*
X-32093761Y-8855236D01*
X-31883312Y-8911625D01*
X-31872519Y-8913528D01*
X-31655475Y-8932517D01*
X-31644525Y-8932517D01*
X-31427481Y-8913528D01*
X-31416688Y-8911625D01*
X-31206239Y-8855236D01*
X-31195947Y-8851490D01*
X-30998489Y-8759414D01*
X-30988994Y-8753931D01*
X-30936952Y-8717491D01*
X-30928576Y-8707012D01*
X-30935644Y-8693566D01*
X-31637188Y-7992022D01*
X-31651132Y-7984408D01*
X-31652965Y-7984539D01*
X-31659580Y-7988790D01*
X-32365077Y-8694287D01*
X-32371507Y-8706062D01*
X-33469075Y-8706062D01*
X-33475644Y-8693566D01*
X-34177188Y-7992022D01*
X-34191132Y-7984408D01*
X-34192965Y-7984539D01*
X-34199580Y-7988790D01*
X-34905077Y-8694287D01*
X-34911507Y-8706062D01*
X-35602761Y-8706062D01*
X-35462002Y-8541255D01*
X-35378055Y-8404266D01*
X-35325407Y-8356635D01*
X-35296235Y-8351527D01*
X-35263565Y-8334355D01*
X-34562022Y-7632812D01*
X-34555644Y-7621132D01*
X-33825592Y-7621132D01*
X-33825461Y-7622965D01*
X-33821210Y-7629580D01*
X-33115713Y-8335077D01*
X-33103938Y-8341507D01*
X-33091923Y-8332211D01*
X-33056069Y-8281006D01*
X-33050586Y-8271511D01*
X-33034195Y-8236359D01*
X-32987278Y-8183074D01*
X-32919001Y-8163613D01*
X-32851041Y-8184155D01*
X-32805805Y-8236359D01*
X-32789414Y-8271511D01*
X-32783931Y-8281006D01*
X-32747491Y-8333048D01*
X-32737012Y-8341424D01*
X-32723566Y-8334356D01*
X-32022022Y-7632812D01*
X-32015644Y-7621132D01*
X-31285592Y-7621132D01*
X-31285461Y-7622965D01*
X-31281210Y-7629580D01*
X-30575713Y-8335077D01*
X-30546885Y-8350819D01*
X-30509314Y-8358991D01*
X-30462265Y-8403744D01*
X-30377998Y-8541255D01*
X-30218271Y-8728271D01*
X-30031255Y-8887998D01*
X-29821554Y-9016503D01*
X-29816984Y-9018396D01*
X-29816980Y-9018398D01*
X-29598901Y-9108729D01*
X-29598895Y-9108731D01*
X-29594332Y-9110621D01*
X-29589532Y-9111773D01*
X-29589527Y-9111775D01*
X-29480134Y-9138038D01*
X-29355185Y-9168036D01*
X-29110000Y-9187332D01*
X-28864815Y-9168036D01*
X-28739866Y-9138038D01*
X-28630473Y-9111775D01*
X-28630468Y-9111773D01*
X-28625668Y-9110621D01*
X-28621105Y-9108731D01*
X-28621099Y-9108729D01*
X-28403020Y-9018398D01*
X-28403016Y-9018396D01*
X-28398446Y-9016503D01*
X-28188745Y-8887998D01*
X-28001729Y-8728271D01*
X-27998521Y-8724515D01*
X-27998516Y-8724510D01*
X-27935811Y-8651092D01*
X-27876361Y-8612282D01*
X-27805366Y-8611776D01*
X-27744189Y-8651092D01*
X-27681484Y-8724510D01*
X-27681479Y-8724515D01*
X-27678271Y-8728271D01*
X-27491255Y-8887998D01*
X-27281554Y-9016503D01*
X-27276984Y-9018396D01*
X-27276980Y-9018398D01*
X-27058901Y-9108729D01*
X-27058895Y-9108731D01*
X-27054332Y-9110621D01*
X-27049532Y-9111773D01*
X-27049527Y-9111775D01*
X-26940134Y-9138038D01*
X-26815185Y-9168036D01*
X-26570000Y-9187332D01*
X-26324815Y-9168036D01*
X-26199866Y-9138038D01*
X-26090473Y-9111775D01*
X-26090468Y-9111773D01*
X-26085668Y-9110621D01*
X-26081105Y-9108731D01*
X-26081099Y-9108729D01*
X-25863020Y-9018398D01*
X-25863016Y-9018396D01*
X-25858446Y-9016503D01*
X-25648745Y-8887998D01*
X-25461729Y-8728271D01*
X-25458521Y-8724515D01*
X-25458516Y-8724510D01*
X-25395811Y-8651092D01*
X-25336361Y-8612282D01*
X-25265366Y-8611776D01*
X-25204189Y-8651092D01*
X-25141484Y-8724510D01*
X-25141479Y-8724515D01*
X-25138271Y-8728271D01*
X-24951255Y-8887998D01*
X-24741554Y-9016503D01*
X-24736984Y-9018396D01*
X-24736980Y-9018398D01*
X-24518901Y-9108729D01*
X-24518895Y-9108731D01*
X-24514332Y-9110621D01*
X-24509532Y-9111773D01*
X-24509527Y-9111775D01*
X-24400134Y-9138038D01*
X-24275185Y-9168036D01*
X-24030000Y-9187332D01*
X-23784815Y-9168036D01*
X-23659866Y-9138038D01*
X-23550473Y-9111775D01*
X-23550468Y-9111773D01*
X-23545668Y-9110621D01*
X-23541105Y-9108731D01*
X-23541099Y-9108729D01*
X-23323020Y-9018398D01*
X-23323016Y-9018396D01*
X-23318446Y-9016503D01*
X-23108745Y-8887998D01*
X-22921729Y-8728271D01*
X-22918521Y-8724515D01*
X-22918516Y-8724510D01*
X-22855811Y-8651092D01*
X-22796361Y-8612282D01*
X-22725366Y-8611776D01*
X-22664189Y-8651092D01*
X-22601484Y-8724510D01*
X-22601479Y-8724515D01*
X-22598271Y-8728271D01*
X-22411255Y-8887998D01*
X-22201554Y-9016503D01*
X-22196984Y-9018396D01*
X-22196980Y-9018398D01*
X-21978901Y-9108729D01*
X-21978895Y-9108731D01*
X-21974332Y-9110621D01*
X-21969532Y-9111773D01*
X-21969527Y-9111775D01*
X-21860134Y-9138038D01*
X-21735185Y-9168036D01*
X-21490000Y-9187332D01*
X-21244815Y-9168036D01*
X-21119866Y-9138038D01*
X-21010473Y-9111775D01*
X-21010468Y-9111773D01*
X-21005668Y-9110621D01*
X-21001105Y-9108731D01*
X-21001099Y-9108729D01*
X-20783020Y-9018398D01*
X-20783016Y-9018396D01*
X-20778446Y-9016503D01*
X-20568745Y-8887998D01*
X-20381729Y-8728271D01*
X-20378521Y-8724515D01*
X-20378516Y-8724510D01*
X-20315811Y-8651092D01*
X-20256361Y-8612282D01*
X-20185366Y-8611776D01*
X-20124189Y-8651092D01*
X-20061484Y-8724510D01*
X-20061479Y-8724515D01*
X-20058271Y-8728271D01*
X-19871255Y-8887998D01*
X-19661554Y-9016503D01*
X-19656984Y-9018396D01*
X-19656980Y-9018398D01*
X-19438901Y-9108729D01*
X-19438895Y-9108731D01*
X-19434332Y-9110621D01*
X-19429532Y-9111773D01*
X-19429527Y-9111775D01*
X-19320134Y-9138038D01*
X-19195185Y-9168036D01*
X-18950000Y-9187332D01*
X-18704815Y-9168036D01*
X-18579866Y-9138038D01*
X-18470473Y-9111775D01*
X-18470468Y-9111773D01*
X-18465668Y-9110621D01*
X-18461105Y-9108731D01*
X-18461099Y-9108729D01*
X-18243020Y-9018398D01*
X-18243016Y-9018396D01*
X-18238446Y-9016503D01*
X-18028745Y-8887998D01*
X-17841729Y-8728271D01*
X-17838521Y-8724515D01*
X-17838516Y-8724510D01*
X-17775811Y-8651092D01*
X-17716361Y-8612282D01*
X-17645366Y-8611776D01*
X-17584189Y-8651092D01*
X-17521484Y-8724510D01*
X-17521479Y-8724515D01*
X-17518271Y-8728271D01*
X-17331255Y-8887998D01*
X-17121554Y-9016503D01*
X-17116984Y-9018396D01*
X-17116980Y-9018398D01*
X-16898901Y-9108729D01*
X-16898895Y-9108731D01*
X-16894332Y-9110621D01*
X-16889532Y-9111773D01*
X-16889527Y-9111775D01*
X-16780134Y-9138038D01*
X-16655185Y-9168036D01*
X-16410000Y-9187332D01*
X-16164815Y-9168036D01*
X-16039866Y-9138038D01*
X-15930473Y-9111775D01*
X-15930468Y-9111773D01*
X-15925668Y-9110621D01*
X-15921105Y-9108731D01*
X-15921099Y-9108729D01*
X-15703020Y-9018398D01*
X-15703016Y-9018396D01*
X-15698446Y-9016503D01*
X-15488745Y-8887998D01*
X-15301729Y-8728271D01*
X-15298521Y-8724515D01*
X-15298516Y-8724510D01*
X-15235811Y-8651092D01*
X-15176361Y-8612282D01*
X-15105366Y-8611776D01*
X-15044189Y-8651092D01*
X-14981484Y-8724510D01*
X-14981479Y-8724515D01*
X-14978271Y-8728271D01*
X-14791255Y-8887998D01*
X-14581554Y-9016503D01*
X-14576984Y-9018396D01*
X-14576980Y-9018398D01*
X-14358901Y-9108729D01*
X-14358895Y-9108731D01*
X-14354332Y-9110621D01*
X-14349532Y-9111773D01*
X-14349527Y-9111775D01*
X-14240134Y-9138038D01*
X-14115185Y-9168036D01*
X-13870000Y-9187332D01*
X-13624815Y-9168036D01*
X-13499866Y-9138038D01*
X-13390473Y-9111775D01*
X-13390468Y-9111773D01*
X-13385668Y-9110621D01*
X-13381105Y-9108731D01*
X-13381099Y-9108729D01*
X-13163020Y-9018398D01*
X-13163016Y-9018396D01*
X-13158446Y-9016503D01*
X-12948745Y-8887998D01*
X-12761729Y-8728271D01*
X-12758521Y-8724515D01*
X-12758516Y-8724510D01*
X-12695811Y-8651092D01*
X-12636361Y-8612282D01*
X-12565366Y-8611776D01*
X-12504189Y-8651092D01*
X-12441484Y-8724510D01*
X-12441479Y-8724515D01*
X-12438271Y-8728271D01*
X-12251255Y-8887998D01*
X-12041554Y-9016503D01*
X-12036984Y-9018396D01*
X-12036980Y-9018398D01*
X-11818901Y-9108729D01*
X-11818895Y-9108731D01*
X-11814332Y-9110621D01*
X-11809532Y-9111773D01*
X-11809527Y-9111775D01*
X-11700134Y-9138038D01*
X-11575185Y-9168036D01*
X-11330000Y-9187332D01*
X-11084815Y-9168036D01*
X-10959866Y-9138038D01*
X-10850473Y-9111775D01*
X-10850468Y-9111773D01*
X-10845668Y-9110621D01*
X-10841105Y-9108731D01*
X-10841099Y-9108729D01*
X-10623020Y-9018398D01*
X-10623016Y-9018396D01*
X-10618446Y-9016503D01*
X-10408745Y-8887998D01*
X-10221729Y-8728271D01*
X-10062002Y-8541255D01*
X-9933497Y-8331554D01*
X-9894066Y-8236359D01*
X-9841271Y-8108901D01*
X-9841269Y-8108895D01*
X-9839379Y-8104332D01*
X-9781964Y-7865185D01*
X-9762668Y-7620000D01*
X-9781964Y-7374815D01*
X-9839379Y-7135668D01*
X-9841269Y-7131105D01*
X-9841271Y-7131099D01*
X-9931602Y-6913020D01*
X-9931604Y-6913016D01*
X-9933497Y-6908446D01*
X-10062002Y-6698745D01*
X-10221729Y-6511729D01*
X-10408745Y-6352002D01*
X-10618446Y-6223497D01*
X-10623016Y-6221604D01*
X-10623020Y-6221602D01*
X-10841099Y-6131271D01*
X-10841105Y-6131269D01*
X-10845668Y-6129379D01*
X-10850468Y-6128227D01*
X-10850473Y-6128225D01*
X-11002427Y-6091744D01*
X-11084815Y-6071964D01*
X-11330000Y-6052668D01*
X-11575185Y-6071964D01*
X-11657573Y-6091744D01*
X-11809527Y-6128225D01*
X-11809532Y-6128227D01*
X-11814332Y-6129379D01*
X-11818895Y-6131269D01*
X-11818901Y-6131271D01*
X-12036980Y-6221602D01*
X-12036984Y-6221604D01*
X-12041554Y-6223497D01*
X-12251255Y-6352002D01*
X-12438271Y-6511729D01*
X-12441479Y-6515485D01*
X-12441484Y-6515490D01*
X-12504189Y-6588908D01*
X-12563639Y-6627718D01*
X-12634634Y-6628224D01*
X-12695811Y-6588908D01*
X-12758516Y-6515490D01*
X-12758521Y-6515485D01*
X-12761729Y-6511729D01*
X-12948745Y-6352002D01*
X-13158446Y-6223497D01*
X-13163016Y-6221604D01*
X-13163020Y-6221602D01*
X-13381099Y-6131271D01*
X-13381105Y-6131269D01*
X-13385668Y-6129379D01*
X-13390468Y-6128227D01*
X-13390473Y-6128225D01*
X-13542427Y-6091744D01*
X-13624815Y-6071964D01*
X-13870000Y-6052668D01*
X-14115185Y-6071964D01*
X-14197573Y-6091744D01*
X-14349527Y-6128225D01*
X-14349532Y-6128227D01*
X-14354332Y-6129379D01*
X-14358895Y-6131269D01*
X-14358901Y-6131271D01*
X-14576980Y-6221602D01*
X-14576984Y-6221604D01*
X-14581554Y-6223497D01*
X-14791255Y-6352002D01*
X-14978271Y-6511729D01*
X-14981479Y-6515485D01*
X-14981484Y-6515490D01*
X-15044189Y-6588908D01*
X-15103639Y-6627718D01*
X-15174634Y-6628224D01*
X-15235811Y-6588908D01*
X-15298516Y-6515490D01*
X-15298521Y-6515485D01*
X-15301729Y-6511729D01*
X-15488745Y-6352002D01*
X-15698446Y-6223497D01*
X-15703016Y-6221604D01*
X-15703020Y-6221602D01*
X-15921099Y-6131271D01*
X-15921105Y-6131269D01*
X-15925668Y-6129379D01*
X-15930468Y-6128227D01*
X-15930473Y-6128225D01*
X-16082427Y-6091744D01*
X-16164815Y-6071964D01*
X-16410000Y-6052668D01*
X-16655185Y-6071964D01*
X-16737573Y-6091744D01*
X-16889527Y-6128225D01*
X-16889532Y-6128227D01*
X-16894332Y-6129379D01*
X-16898895Y-6131269D01*
X-16898901Y-6131271D01*
X-17116980Y-6221602D01*
X-17116984Y-6221604D01*
X-17121554Y-6223497D01*
X-17331255Y-6352002D01*
X-17518271Y-6511729D01*
X-17521479Y-6515485D01*
X-17521484Y-6515490D01*
X-17584189Y-6588908D01*
X-17643639Y-6627718D01*
X-17714634Y-6628224D01*
X-17775811Y-6588908D01*
X-17838516Y-6515490D01*
X-17838521Y-6515485D01*
X-17841729Y-6511729D01*
X-18028745Y-6352002D01*
X-18238446Y-6223497D01*
X-18243016Y-6221604D01*
X-18243020Y-6221602D01*
X-18461099Y-6131271D01*
X-18461105Y-6131269D01*
X-18465668Y-6129379D01*
X-18470468Y-6128227D01*
X-18470473Y-6128225D01*
X-18622427Y-6091744D01*
X-18704815Y-6071964D01*
X-18950000Y-6052668D01*
X-19195185Y-6071964D01*
X-19277573Y-6091744D01*
X-19429527Y-6128225D01*
X-19429532Y-6128227D01*
X-19434332Y-6129379D01*
X-19438895Y-6131269D01*
X-19438901Y-6131271D01*
X-19656980Y-6221602D01*
X-19656984Y-6221604D01*
X-19661554Y-6223497D01*
X-19871255Y-6352002D01*
X-20058271Y-6511729D01*
X-20061479Y-6515485D01*
X-20061484Y-6515490D01*
X-20124189Y-6588908D01*
X-20183639Y-6627718D01*
X-20254634Y-6628224D01*
X-20315811Y-6588908D01*
X-20378516Y-6515490D01*
X-20378521Y-6515485D01*
X-20381729Y-6511729D01*
X-20568745Y-6352002D01*
X-20778446Y-6223497D01*
X-20783016Y-6221604D01*
X-20783020Y-6221602D01*
X-21001099Y-6131271D01*
X-21001105Y-6131269D01*
X-21005668Y-6129379D01*
X-21010468Y-6128227D01*
X-21010473Y-6128225D01*
X-21162427Y-6091744D01*
X-21244815Y-6071964D01*
X-21490000Y-6052668D01*
X-21735185Y-6071964D01*
X-21817573Y-6091744D01*
X-21969527Y-6128225D01*
X-21969532Y-6128227D01*
X-21974332Y-6129379D01*
X-21978895Y-6131269D01*
X-21978901Y-6131271D01*
X-22196980Y-6221602D01*
X-22196984Y-6221604D01*
X-22201554Y-6223497D01*
X-22411255Y-6352002D01*
X-22598271Y-6511729D01*
X-22601479Y-6515485D01*
X-22601484Y-6515490D01*
X-22664189Y-6588908D01*
X-22723639Y-6627718D01*
X-22794634Y-6628224D01*
X-22855811Y-6588908D01*
X-22918516Y-6515490D01*
X-22918521Y-6515485D01*
X-22921729Y-6511729D01*
X-23108745Y-6352002D01*
X-23318446Y-6223497D01*
X-23323016Y-6221604D01*
X-23323020Y-6221602D01*
X-23541099Y-6131271D01*
X-23541105Y-6131269D01*
X-23545668Y-6129379D01*
X-23550468Y-6128227D01*
X-23550473Y-6128225D01*
X-23702427Y-6091744D01*
X-23784815Y-6071964D01*
X-24030000Y-6052668D01*
X-24275185Y-6071964D01*
X-24357573Y-6091744D01*
X-24509527Y-6128225D01*
X-24509532Y-6128227D01*
X-24514332Y-6129379D01*
X-24518895Y-6131269D01*
X-24518901Y-6131271D01*
X-24736980Y-6221602D01*
X-24736984Y-6221604D01*
X-24741554Y-6223497D01*
X-24951255Y-6352002D01*
X-25138271Y-6511729D01*
X-25141479Y-6515485D01*
X-25141484Y-6515490D01*
X-25204189Y-6588908D01*
X-25263639Y-6627718D01*
X-25334634Y-6628224D01*
X-25395811Y-6588908D01*
X-25458516Y-6515490D01*
X-25458521Y-6515485D01*
X-25461729Y-6511729D01*
X-25648745Y-6352002D01*
X-25858446Y-6223497D01*
X-25863016Y-6221604D01*
X-25863020Y-6221602D01*
X-26081099Y-6131271D01*
X-26081105Y-6131269D01*
X-26085668Y-6129379D01*
X-26090468Y-6128227D01*
X-26090473Y-6128225D01*
X-26242427Y-6091744D01*
X-26324815Y-6071964D01*
X-26570000Y-6052668D01*
X-26815185Y-6071964D01*
X-26897573Y-6091744D01*
X-27049527Y-6128225D01*
X-27049532Y-6128227D01*
X-27054332Y-6129379D01*
X-27058895Y-6131269D01*
X-27058901Y-6131271D01*
X-27276980Y-6221602D01*
X-27276984Y-6221604D01*
X-27281554Y-6223497D01*
X-27491255Y-6352002D01*
X-27678271Y-6511729D01*
X-27681479Y-6515485D01*
X-27681484Y-6515490D01*
X-27744189Y-6588908D01*
X-27803639Y-6627718D01*
X-27874634Y-6628224D01*
X-27935811Y-6588908D01*
X-27998516Y-6515490D01*
X-27998521Y-6515485D01*
X-28001729Y-6511729D01*
X-28188745Y-6352002D01*
X-28398446Y-6223497D01*
X-28403016Y-6221604D01*
X-28403020Y-6221602D01*
X-28621099Y-6131271D01*
X-28621105Y-6131269D01*
X-28625668Y-6129379D01*
X-28630468Y-6128227D01*
X-28630473Y-6128225D01*
X-28782427Y-6091744D01*
X-28864815Y-6071964D01*
X-29110000Y-6052668D01*
X-29355185Y-6071964D01*
X-29437573Y-6091744D01*
X-29589527Y-6128225D01*
X-29589532Y-6128227D01*
X-29594332Y-6129379D01*
X-29598895Y-6131269D01*
X-29598901Y-6131271D01*
X-29816980Y-6221602D01*
X-29816984Y-6221604D01*
X-29821554Y-6223497D01*
X-30031255Y-6352002D01*
X-30218271Y-6511729D01*
X-30377998Y-6698745D01*
X-30421255Y-6769334D01*
X-30461945Y-6835734D01*
X-30514593Y-6883365D01*
X-30543765Y-6888473D01*
X-30576435Y-6905645D01*
X-31277978Y-7607188D01*
X-31285592Y-7621132D01*
X-32015644Y-7621132D01*
X-32014408Y-7618868D01*
X-32014539Y-7617035D01*
X-32018790Y-7610420D01*
X-32724287Y-6904923D01*
X-32736062Y-6898493D01*
X-32748077Y-6907789D01*
X-32783931Y-6958994D01*
X-32789414Y-6968489D01*
X-32805805Y-7003641D01*
X-32852722Y-7056926D01*
X-32920999Y-7076387D01*
X-32988959Y-7055845D01*
X-33034195Y-7003641D01*
X-33050586Y-6968489D01*
X-33056069Y-6958994D01*
X-33092509Y-6906952D01*
X-33102988Y-6898576D01*
X-33116434Y-6905644D01*
X-33817978Y-7607188D01*
X-33825592Y-7621132D01*
X-34555644Y-7621132D01*
X-34554408Y-7618868D01*
X-34554539Y-7617035D01*
X-34558790Y-7610420D01*
X-35264287Y-6904923D01*
X-35293115Y-6889181D01*
X-35330686Y-6881009D01*
X-35377736Y-6836255D01*
X-35418745Y-6769334D01*
X-35462002Y-6698745D01*
X-35603572Y-6532988D01*
X-34911424Y-6532988D01*
X-34904356Y-6546434D01*
X-34202812Y-7247978D01*
X-34188868Y-7255592D01*
X-34187035Y-7255461D01*
X-34180420Y-7251210D01*
X-33474923Y-6545713D01*
X-33468493Y-6533938D01*
X-33469228Y-6532988D01*
X-32371424Y-6532988D01*
X-32364356Y-6546434D01*
X-31662812Y-7247978D01*
X-31648868Y-7255592D01*
X-31647035Y-7255461D01*
X-31640420Y-7251210D01*
X-30934923Y-6545713D01*
X-30928493Y-6533938D01*
X-30937789Y-6521923D01*
X-30988994Y-6486069D01*
X-30998489Y-6480586D01*
X-31195947Y-6388510D01*
X-31206239Y-6384764D01*
X-31416688Y-6328375D01*
X-31427481Y-6326472D01*
X-31644525Y-6307483D01*
X-31655475Y-6307483D01*
X-31872519Y-6326472D01*
X-31883312Y-6328375D01*
X-32093761Y-6384764D01*
X-32104053Y-6388510D01*
X-32301511Y-6480586D01*
X-32311006Y-6486069D01*
X-32363048Y-6522509D01*
X-32371424Y-6532988D01*
X-33469228Y-6532988D01*
X-33477789Y-6521923D01*
X-33528994Y-6486069D01*
X-33538489Y-6480586D01*
X-33735947Y-6388510D01*
X-33746239Y-6384764D01*
X-33956688Y-6328375D01*
X-33967481Y-6326472D01*
X-34184525Y-6307483D01*
X-34195475Y-6307483D01*
X-34412519Y-6326472D01*
X-34423312Y-6328375D01*
X-34633761Y-6384764D01*
X-34644053Y-6388510D01*
X-34841511Y-6480586D01*
X-34851006Y-6486069D01*
X-34903048Y-6522509D01*
X-34911424Y-6532988D01*
X-35603572Y-6532988D01*
X-35621729Y-6511729D01*
X-35808745Y-6352002D01*
X-36018446Y-6223497D01*
X-36023016Y-6221604D01*
X-36023020Y-6221602D01*
X-36241099Y-6131271D01*
X-36241105Y-6131269D01*
X-36245668Y-6129379D01*
X-36250468Y-6128227D01*
X-36250473Y-6128225D01*
X-36402427Y-6091744D01*
X-36484815Y-6071964D01*
X-36730000Y-6052668D01*
X-36975185Y-6071964D01*
X-37057573Y-6091744D01*
X-37209527Y-6128225D01*
X-37209532Y-6128227D01*
X-37214332Y-6129379D01*
X-37218895Y-6131269D01*
X-37218901Y-6131271D01*
X-37436980Y-6221602D01*
X-37436984Y-6221604D01*
X-37441554Y-6223497D01*
X-37651255Y-6352002D01*
X-37655010Y-6355209D01*
X-37655014Y-6355212D01*
X-37678025Y-6374866D01*
X-37742815Y-6403897D01*
X-37813015Y-6393292D01*
X-37857878Y-6353453D01*
X-37859969Y-6355110D01*
X-37864512Y-6349378D01*
X-37868366Y-6343150D01*
X-37994201Y-6217534D01*
X-38003394Y-6211867D01*
X-38050779Y-6182659D01*
X-38145560Y-6124236D01*
X-38243518Y-6091744D01*
X-38307791Y-6070425D01*
X-38307793Y-6070424D01*
X-38314322Y-6068259D01*
X-38419334Y-6057500D01*
X-40120666Y-6057500D01*
X-40123912Y-6057837D01*
X-40123916Y-6057837D01*
X-40220132Y-6067820D01*
X-40220136Y-6067821D01*
X-40226990Y-6068532D01*
X-40233526Y-6070713D01*
X-40233528Y-6070713D01*
X-40296565Y-6091744D01*
X-40395654Y-6124803D01*
X-40546850Y-6218366D01*
X-40672466Y-6344201D01*
X-40676306Y-6350431D01*
X-40676307Y-6350432D01*
X-40679253Y-6355212D01*
X-40765764Y-6495560D01*
X-40768069Y-6502508D01*
X-40768069Y-6502509D01*
X-40782638Y-6546434D01*
X-40821741Y-6664322D01*
X-40832500Y-6769334D01*
X-40832500Y-8470666D01*
X-42237500Y-8470666D01*
X-42237500Y-4482670D01*
X-41117840Y-4482670D01*
X-41112113Y-4490320D01*
X-40940958Y-4595205D01*
X-40932163Y-4599687D01*
X-40722012Y-4686734D01*
X-40712627Y-4689783D01*
X-40491446Y-4742885D01*
X-40481699Y-4744428D01*
X-40254930Y-4762275D01*
X-40245070Y-4762275D01*
X-40018301Y-4744428D01*
X-40008554Y-4742885D01*
X-39787373Y-4689783D01*
X-39777988Y-4686734D01*
X-39567837Y-4599687D01*
X-39559042Y-4595205D01*
X-39391555Y-4492568D01*
X-39382093Y-4482110D01*
X-39385876Y-4473334D01*
X-40237188Y-3622022D01*
X-40251132Y-3614408D01*
X-40252965Y-3614539D01*
X-40259580Y-3618790D01*
X-41111080Y-4470290D01*
X-41117840Y-4482670D01*
X-42237500Y-4482670D01*
X-42237500Y-3254930D01*
X-41762275Y-3254930D01*
X-41744428Y-3481699D01*
X-41742885Y-3491446D01*
X-41689783Y-3712627D01*
X-41686734Y-3722012D01*
X-41599687Y-3932163D01*
X-41595205Y-3940958D01*
X-41492568Y-4108445D01*
X-41482110Y-4117907D01*
X-41473334Y-4114124D01*
X-40622022Y-3262812D01*
X-40615644Y-3251132D01*
X-39885592Y-3251132D01*
X-39885461Y-3252965D01*
X-39881210Y-3259580D01*
X-39029710Y-4111080D01*
X-39017330Y-4117840D01*
X-39009680Y-4112113D01*
X-38904795Y-3940958D01*
X-38900313Y-3932163D01*
X-38813266Y-3722012D01*
X-38810217Y-3712627D01*
X-38757115Y-3491446D01*
X-38755572Y-3481699D01*
X-38737725Y-3254930D01*
X-38737725Y-3245070D01*
X-38740978Y-3203734D01*
X-37516836Y-3203734D01*
X-37516612Y-3208401D01*
X-37516612Y-3208406D01*
X-37511387Y-3317188D01*
X-37504268Y-3465397D01*
X-37494670Y-3513648D01*
X-37461113Y-3682349D01*
X-37453161Y-3722328D01*
X-37451582Y-3726726D01*
X-37451580Y-3726733D01*
X-37370517Y-3952512D01*
X-37364639Y-3968883D01*
X-37240645Y-4199646D01*
X-37237850Y-4203389D01*
X-37237848Y-4203392D01*
X-37086697Y-4405808D01*
X-37086692Y-4405814D01*
X-37083905Y-4409546D01*
X-37080596Y-4412826D01*
X-37080591Y-4412832D01*
X-36978891Y-4513648D01*
X-36897862Y-4593973D01*
X-36894100Y-4596731D01*
X-36894097Y-4596734D01*
X-36694773Y-4742885D01*
X-36686602Y-4748876D01*
X-36682471Y-4751050D01*
X-36682470Y-4751050D01*
X-36458901Y-4868675D01*
X-36458895Y-4868677D01*
X-36454766Y-4870850D01*
X-36450358Y-4872389D01*
X-36450352Y-4872392D01*
X-36211864Y-4955676D01*
X-36207448Y-4957218D01*
X-35950080Y-5006081D01*
X-35825825Y-5010963D01*
X-35692985Y-5016182D01*
X-35692980Y-5016182D01*
X-35688317Y-5016365D01*
X-35586460Y-5005210D01*
X-35432562Y-4988356D01*
X-35432556Y-4988355D01*
X-35427909Y-4987846D01*
X-35305719Y-4955676D01*
X-35179100Y-4922340D01*
X-35179098Y-4922339D01*
X-35174577Y-4921149D01*
X-34982271Y-4838528D01*
X-34938180Y-4819585D01*
X-34938178Y-4819584D01*
X-34933886Y-4817740D01*
X-34711124Y-4679891D01*
X-34511184Y-4510629D01*
X-34371177Y-4350982D01*
X-34341540Y-4317188D01*
X-34341536Y-4317183D01*
X-34338458Y-4313673D01*
X-34335928Y-4309740D01*
X-34199270Y-4097281D01*
X-34199267Y-4097276D01*
X-34196742Y-4093350D01*
X-34089148Y-3854501D01*
X-34018040Y-3602371D01*
X-34001198Y-3469985D01*
X-33985378Y-3345631D01*
X-33985378Y-3345627D01*
X-33984980Y-3342501D01*
X-33982558Y-3250000D01*
X-33987889Y-3178267D01*
X-34001626Y-2993407D01*
X-34001627Y-2993403D01*
X-34001972Y-2988755D01*
X-34059787Y-2733250D01*
X-34064034Y-2722328D01*
X-34153040Y-2493450D01*
X-34153041Y-2493448D01*
X-34154733Y-2489097D01*
X-34165656Y-2469985D01*
X-34282405Y-2265716D01*
X-34282407Y-2265714D01*
X-34284724Y-2261659D01*
X-34330388Y-2203734D01*
X-5016836Y-2203734D01*
X-5016612Y-2208401D01*
X-5016612Y-2208406D01*
X-5016251Y-2215921D01*
X-5004268Y-2465397D01*
X-4978715Y-2593862D01*
X-4960612Y-2684867D01*
X-4953161Y-2722328D01*
X-4951582Y-2726726D01*
X-4951580Y-2726733D01*
X-4875530Y-2938550D01*
X-4864639Y-2968883D01*
X-4740645Y-3199646D01*
X-4737850Y-3203389D01*
X-4737848Y-3203392D01*
X-4586697Y-3405808D01*
X-4586692Y-3405814D01*
X-4583905Y-3409546D01*
X-4580596Y-3412826D01*
X-4580591Y-3412832D01*
X-4478891Y-3513648D01*
X-4397862Y-3593973D01*
X-4394100Y-3596731D01*
X-4394097Y-3596734D01*
X-4277333Y-3682349D01*
X-4186602Y-3748876D01*
X-4182471Y-3751050D01*
X-4182470Y-3751050D01*
X-3958901Y-3868675D01*
X-3958895Y-3868677D01*
X-3954766Y-3870850D01*
X-3950358Y-3872389D01*
X-3950352Y-3872392D01*
X-3720924Y-3952512D01*
X-3707448Y-3957218D01*
X-3450080Y-4006081D01*
X-3325825Y-4010963D01*
X-3192985Y-4016182D01*
X-3192980Y-4016182D01*
X-3188317Y-4016365D01*
X-3086460Y-4005210D01*
X-2932562Y-3988356D01*
X-2932556Y-3988355D01*
X-2927909Y-3987846D01*
X-2871554Y-3973009D01*
X-2679100Y-3922340D01*
X-2679098Y-3922339D01*
X-2674577Y-3921149D01*
X-2552440Y-3868675D01*
X-2438180Y-3819585D01*
X-2438178Y-3819584D01*
X-2433886Y-3817740D01*
X-2211124Y-3679891D01*
X-2011184Y-3510629D01*
X-1975540Y-3469985D01*
X-1841540Y-3317188D01*
X-1841536Y-3317183D01*
X-1838458Y-3313673D01*
X-1835928Y-3309740D01*
X-1699270Y-3097281D01*
X-1699267Y-3097276D01*
X-1696742Y-3093350D01*
X-1589148Y-2854501D01*
X-1518040Y-2602371D01*
X-1501198Y-2469985D01*
X-1485378Y-2345631D01*
X-1485378Y-2345627D01*
X-1484980Y-2342501D01*
X-1482558Y-2250000D01*
X-1484784Y-2220044D01*
X-1485996Y-2203734D01*
X1483164Y-2203734D01*
X1483388Y-2208401D01*
X1483388Y-2208406D01*
X1483749Y-2215921D01*
X1495732Y-2465397D01*
X1521285Y-2593862D01*
X1539388Y-2684867D01*
X1546839Y-2722328D01*
X1548418Y-2726726D01*
X1548420Y-2726733D01*
X1624470Y-2938550D01*
X1635361Y-2968883D01*
X1759355Y-3199646D01*
X1762150Y-3203389D01*
X1762152Y-3203392D01*
X1913303Y-3405808D01*
X1913308Y-3405814D01*
X1916095Y-3409546D01*
X1919404Y-3412826D01*
X1919409Y-3412832D01*
X2021109Y-3513648D01*
X2102138Y-3593973D01*
X2105900Y-3596731D01*
X2105903Y-3596734D01*
X2222667Y-3682349D01*
X2313398Y-3748876D01*
X2317529Y-3751050D01*
X2317530Y-3751050D01*
X2541099Y-3868675D01*
X2541105Y-3868677D01*
X2545234Y-3870850D01*
X2549642Y-3872389D01*
X2549648Y-3872392D01*
X2779076Y-3952512D01*
X2792552Y-3957218D01*
X3049920Y-4006081D01*
X3174175Y-4010963D01*
X3307015Y-4016182D01*
X3307020Y-4016182D01*
X3311683Y-4016365D01*
X3413540Y-4005210D01*
X3567438Y-3988356D01*
X3567444Y-3988355D01*
X3572091Y-3987846D01*
X3628446Y-3973009D01*
X3820900Y-3922340D01*
X3820902Y-3922339D01*
X3825423Y-3921149D01*
X3947560Y-3868675D01*
X4061820Y-3819585D01*
X4061822Y-3819584D01*
X4066114Y-3817740D01*
X4288876Y-3679891D01*
X4488816Y-3510629D01*
X4524460Y-3469985D01*
X4658460Y-3317188D01*
X4658464Y-3317183D01*
X4661542Y-3313673D01*
X4664072Y-3309740D01*
X4800730Y-3097281D01*
X4800733Y-3097276D01*
X4803258Y-3093350D01*
X4910852Y-2854501D01*
X4981960Y-2602371D01*
X4998802Y-2469985D01*
X5014622Y-2345631D01*
X5014622Y-2345627D01*
X5015020Y-2342501D01*
X5017442Y-2250000D01*
X5015216Y-2220044D01*
X5014004Y-2203734D01*
X9983164Y-2203734D01*
X9983388Y-2208401D01*
X9983388Y-2208406D01*
X9983749Y-2215921D01*
X9995732Y-2465397D01*
X10021285Y-2593862D01*
X10039388Y-2684867D01*
X10046839Y-2722328D01*
X10048418Y-2726726D01*
X10048420Y-2726733D01*
X10124470Y-2938550D01*
X10135361Y-2968883D01*
X10259355Y-3199646D01*
X10262150Y-3203389D01*
X10262152Y-3203392D01*
X10413303Y-3405808D01*
X10413308Y-3405814D01*
X10416095Y-3409546D01*
X10419404Y-3412826D01*
X10419409Y-3412832D01*
X10521109Y-3513648D01*
X10602138Y-3593973D01*
X10605900Y-3596731D01*
X10605903Y-3596734D01*
X10722667Y-3682349D01*
X10813398Y-3748876D01*
X10817529Y-3751050D01*
X10817530Y-3751050D01*
X11041099Y-3868675D01*
X11041105Y-3868677D01*
X11045234Y-3870850D01*
X11049642Y-3872389D01*
X11049648Y-3872392D01*
X11279076Y-3952512D01*
X11292552Y-3957218D01*
X11549920Y-4006081D01*
X11674175Y-4010963D01*
X11807015Y-4016182D01*
X11807020Y-4016182D01*
X11811683Y-4016365D01*
X11913540Y-4005210D01*
X12067438Y-3988356D01*
X12067444Y-3988355D01*
X12072091Y-3987846D01*
X12128446Y-3973009D01*
X12320900Y-3922340D01*
X12320902Y-3922339D01*
X12325423Y-3921149D01*
X12447560Y-3868675D01*
X12561820Y-3819585D01*
X12561822Y-3819584D01*
X12566114Y-3817740D01*
X12788876Y-3679891D01*
X12988816Y-3510629D01*
X13024460Y-3469985D01*
X13158460Y-3317188D01*
X13158464Y-3317183D01*
X13161542Y-3313673D01*
X13164072Y-3309740D01*
X13300730Y-3097281D01*
X13300733Y-3097276D01*
X13303258Y-3093350D01*
X13410852Y-2854501D01*
X13481960Y-2602371D01*
X13498802Y-2469985D01*
X13514622Y-2345631D01*
X13514622Y-2345627D01*
X13515020Y-2342501D01*
X13517442Y-2250000D01*
X13515216Y-2220044D01*
X13514004Y-2203734D01*
X16483164Y-2203734D01*
X16483388Y-2208401D01*
X16483388Y-2208406D01*
X16483749Y-2215921D01*
X16495732Y-2465397D01*
X16521285Y-2593862D01*
X16539388Y-2684867D01*
X16546839Y-2722328D01*
X16548418Y-2726726D01*
X16548420Y-2726733D01*
X16624470Y-2938550D01*
X16635361Y-2968883D01*
X16759355Y-3199646D01*
X16762150Y-3203389D01*
X16762152Y-3203392D01*
X16913303Y-3405808D01*
X16913308Y-3405814D01*
X16916095Y-3409546D01*
X16919404Y-3412826D01*
X16919409Y-3412832D01*
X17021109Y-3513648D01*
X17102138Y-3593973D01*
X17105900Y-3596731D01*
X17105903Y-3596734D01*
X17222667Y-3682349D01*
X17313398Y-3748876D01*
X17317529Y-3751050D01*
X17317530Y-3751050D01*
X17541099Y-3868675D01*
X17541105Y-3868677D01*
X17545234Y-3870850D01*
X17549642Y-3872389D01*
X17549648Y-3872392D01*
X17779076Y-3952512D01*
X17792552Y-3957218D01*
X18049920Y-4006081D01*
X18174175Y-4010963D01*
X18307015Y-4016182D01*
X18307020Y-4016182D01*
X18311683Y-4016365D01*
X18413540Y-4005210D01*
X18567438Y-3988356D01*
X18567444Y-3988355D01*
X18572091Y-3987846D01*
X18628446Y-3973009D01*
X18820900Y-3922340D01*
X18820902Y-3922339D01*
X18825423Y-3921149D01*
X18947560Y-3868675D01*
X19061820Y-3819585D01*
X19061822Y-3819584D01*
X19066114Y-3817740D01*
X19288876Y-3679891D01*
X19488816Y-3510629D01*
X19524460Y-3469985D01*
X19658460Y-3317188D01*
X19658464Y-3317183D01*
X19661542Y-3313673D01*
X19664072Y-3309740D01*
X19800730Y-3097281D01*
X19800733Y-3097276D01*
X19803258Y-3093350D01*
X19910852Y-2854501D01*
X19981960Y-2602371D01*
X19998802Y-2469985D01*
X20014622Y-2345631D01*
X20014622Y-2345627D01*
X20015020Y-2342501D01*
X20017442Y-2250000D01*
X20015216Y-2220044D01*
X19998374Y-1993407D01*
X19998373Y-1993403D01*
X19998028Y-1988755D01*
X19992598Y-1964758D01*
X23558004Y-1964758D01*
X23558301Y-1969910D01*
X23558301Y-1969914D01*
X23561749Y-2029710D01*
X23571611Y-2200747D01*
X23572746Y-2205784D01*
X23572747Y-2205790D01*
X23620264Y-2416640D01*
X23623578Y-2431345D01*
X23625522Y-2436131D01*
X23625523Y-2436136D01*
X23710566Y-2645571D01*
X23712510Y-2650358D01*
X23836019Y-2851906D01*
X23990787Y-3030575D01*
X24172658Y-3181567D01*
X24177110Y-3184169D01*
X24177115Y-3184172D01*
X24372290Y-3298223D01*
X24376748Y-3300828D01*
X24597576Y-3385154D01*
X24602642Y-3386185D01*
X24602643Y-3386185D01*
X24699095Y-3405808D01*
X24829211Y-3432280D01*
X24962359Y-3437162D01*
X25060269Y-3440753D01*
X25060273Y-3440753D01*
X25065433Y-3440942D01*
X25070553Y-3440286D01*
X25070555Y-3440286D01*
X25294770Y-3411564D01*
X25294773Y-3411563D01*
X25299897Y-3410907D01*
X25316893Y-3405808D01*
X25521353Y-3344467D01*
X25521358Y-3344465D01*
X25526308Y-3342980D01*
X25626234Y-3294027D01*
X25696206Y-3282021D01*
X25761563Y-3309751D01*
X25801553Y-3368414D01*
X25801628Y-3443281D01*
X25802081Y-3443394D01*
X25801630Y-3445205D01*
X25801630Y-3445702D01*
X25799792Y-3451427D01*
X25796453Y-3469985D01*
X25751050Y-3722328D01*
X25746568Y-3747237D01*
X25746379Y-3751404D01*
X25746378Y-3751411D01*
X25734346Y-4016365D01*
X25732933Y-4047488D01*
X25733296Y-4051636D01*
X25733296Y-4051640D01*
X25738587Y-4112113D01*
X25759129Y-4346905D01*
X25760039Y-4350977D01*
X25760040Y-4350982D01*
X25796400Y-4513648D01*
X25824694Y-4640227D01*
X25826138Y-4644150D01*
X25826138Y-4644152D01*
X25840192Y-4682349D01*
X25928477Y-4922301D01*
X26068655Y-5188172D01*
X26242764Y-5433167D01*
X26447746Y-5652983D01*
X26679999Y-5843758D01*
X26683556Y-5845964D01*
X26683561Y-5845967D01*
X26829639Y-5936539D01*
X26935443Y-6002140D01*
X27209591Y-6125347D01*
X27229463Y-6131271D01*
X27493626Y-6210022D01*
X27493628Y-6210023D01*
X27497625Y-6211214D01*
X27501745Y-6211867D01*
X27501747Y-6211867D01*
X27791004Y-6257681D01*
X27791010Y-6257682D01*
X27794485Y-6258232D01*
X27819546Y-6259370D01*
X27887058Y-6262436D01*
X27887079Y-6262436D01*
X27888478Y-6262500D01*
X28076243Y-6262500D01*
X28078335Y-6262361D01*
X28078337Y-6262361D01*
X28295729Y-6247922D01*
X28299900Y-6247645D01*
X28303994Y-6246820D01*
X28303998Y-6246819D01*
X28477339Y-6211867D01*
X28594531Y-6188237D01*
X28878716Y-6090384D01*
X28882449Y-6088515D01*
X28882453Y-6088513D01*
X29143720Y-5957680D01*
X29143722Y-5957679D01*
X29147464Y-5955805D01*
X29309086Y-5845967D01*
X29392593Y-5789216D01*
X29392596Y-5789214D01*
X29396052Y-5786865D01*
X29620113Y-5586531D01*
X29622831Y-5583360D01*
X29812990Y-5361498D01*
X29812993Y-5361494D01*
X29815710Y-5358324D01*
X29817984Y-5354822D01*
X29817988Y-5354817D01*
X29977128Y-5109763D01*
X29977131Y-5109758D01*
X29979407Y-5106253D01*
X30108328Y-4834746D01*
X30113788Y-4817740D01*
X30198928Y-4552561D01*
X30198929Y-4552555D01*
X30200208Y-4548573D01*
X30235760Y-4350982D01*
X30252693Y-4256872D01*
X30252694Y-4256867D01*
X30253432Y-4252763D01*
X30255845Y-4199646D01*
X30262754Y-4047488D01*
X33232933Y-4047488D01*
X33233296Y-4051636D01*
X33233296Y-4051640D01*
X33238587Y-4112113D01*
X33259129Y-4346905D01*
X33260039Y-4350977D01*
X33260040Y-4350982D01*
X33296400Y-4513648D01*
X33324694Y-4640227D01*
X33326138Y-4644150D01*
X33326138Y-4644152D01*
X33340192Y-4682349D01*
X33428477Y-4922301D01*
X33568655Y-5188172D01*
X33742764Y-5433167D01*
X33947746Y-5652983D01*
X34179999Y-5843758D01*
X34183556Y-5845964D01*
X34183561Y-5845967D01*
X34329639Y-5936539D01*
X34435443Y-6002140D01*
X34709591Y-6125347D01*
X34729463Y-6131271D01*
X34993626Y-6210022D01*
X34993628Y-6210023D01*
X34997625Y-6211214D01*
X35001745Y-6211867D01*
X35001747Y-6211867D01*
X35291004Y-6257681D01*
X35291010Y-6257682D01*
X35294485Y-6258232D01*
X35319546Y-6259370D01*
X35387058Y-6262436D01*
X35387079Y-6262436D01*
X35388478Y-6262500D01*
X35576243Y-6262500D01*
X35578335Y-6262361D01*
X35578337Y-6262361D01*
X35795729Y-6247922D01*
X35799900Y-6247645D01*
X35803994Y-6246820D01*
X35803998Y-6246819D01*
X35977339Y-6211867D01*
X36094531Y-6188237D01*
X36378716Y-6090384D01*
X36382449Y-6088515D01*
X36382453Y-6088513D01*
X36643720Y-5957680D01*
X36643722Y-5957679D01*
X36647464Y-5955805D01*
X36809086Y-5845967D01*
X36892593Y-5789216D01*
X36892596Y-5789214D01*
X36896052Y-5786865D01*
X37120113Y-5586531D01*
X37122831Y-5583360D01*
X37312990Y-5361498D01*
X37312993Y-5361494D01*
X37315710Y-5358324D01*
X37317984Y-5354822D01*
X37317988Y-5354817D01*
X37477128Y-5109763D01*
X37477131Y-5109758D01*
X37479407Y-5106253D01*
X37608328Y-4834746D01*
X37613788Y-4817740D01*
X37698928Y-4552561D01*
X37698929Y-4552555D01*
X37700208Y-4548573D01*
X37735760Y-4350982D01*
X37752693Y-4256872D01*
X37752694Y-4256867D01*
X37753432Y-4252763D01*
X37755845Y-4199646D01*
X37766878Y-3956682D01*
X37766878Y-3956676D01*
X37767067Y-3952512D01*
X37759923Y-3870850D01*
X37741235Y-3657257D01*
X37740871Y-3653095D01*
X37733926Y-3622022D01*
X37676218Y-3363852D01*
X37676217Y-3363849D01*
X37675306Y-3359773D01*
X37669675Y-3344467D01*
X37634501Y-3248868D01*
X37571523Y-3077699D01*
X37431345Y-2811828D01*
X37257236Y-2566833D01*
X37111625Y-2410684D01*
X37055104Y-2350073D01*
X37055102Y-2350071D01*
X37052254Y-2347017D01*
X36820001Y-2156242D01*
X36816444Y-2154036D01*
X36816439Y-2154033D01*
X36639288Y-2044195D01*
X36564557Y-1997860D01*
X36290409Y-1874653D01*
X36079450Y-1811763D01*
X36006374Y-1789978D01*
X36006372Y-1789977D01*
X36002375Y-1788786D01*
X35998255Y-1788133D01*
X35998253Y-1788133D01*
X35708996Y-1742319D01*
X35708990Y-1742318D01*
X35705515Y-1741768D01*
X35680454Y-1740630D01*
X35612942Y-1737564D01*
X35612921Y-1737564D01*
X35611522Y-1737500D01*
X35423757Y-1737500D01*
X35421665Y-1737639D01*
X35421663Y-1737639D01*
X35266366Y-1747954D01*
X35200100Y-1752355D01*
X35196006Y-1753180D01*
X35196002Y-1753181D01*
X35114698Y-1769575D01*
X34905469Y-1811763D01*
X34621284Y-1909616D01*
X34617551Y-1911485D01*
X34617547Y-1911487D01*
X34381462Y-2029710D01*
X34352536Y-2044195D01*
X34248582Y-2114842D01*
X34110907Y-2208406D01*
X34103948Y-2213135D01*
X33879887Y-2413469D01*
X33877170Y-2416639D01*
X33877169Y-2416640D01*
X33721948Y-2597740D01*
X33684290Y-2641676D01*
X33682016Y-2645178D01*
X33682012Y-2645183D01*
X33522872Y-2890237D01*
X33520593Y-2893747D01*
X33391672Y-3165254D01*
X33390393Y-3169237D01*
X33390392Y-3169240D01*
X33301790Y-3445205D01*
X33299792Y-3451427D01*
X33296453Y-3469985D01*
X33251050Y-3722328D01*
X33246568Y-3747237D01*
X33246379Y-3751404D01*
X33246378Y-3751411D01*
X33234346Y-4016365D01*
X33232933Y-4047488D01*
X30262754Y-4047488D01*
X30266878Y-3956682D01*
X30266878Y-3956676D01*
X30267067Y-3952512D01*
X30259923Y-3870850D01*
X30241235Y-3657257D01*
X30240871Y-3653095D01*
X30233926Y-3622022D01*
X30176218Y-3363852D01*
X30176217Y-3363849D01*
X30175306Y-3359773D01*
X30169675Y-3344467D01*
X30134501Y-3248868D01*
X30071523Y-3077699D01*
X29931345Y-2811828D01*
X29757236Y-2566833D01*
X29611625Y-2410684D01*
X29555104Y-2350073D01*
X29555102Y-2350071D01*
X29552254Y-2347017D01*
X29320001Y-2156242D01*
X29316444Y-2154036D01*
X29316439Y-2154033D01*
X29139288Y-2044195D01*
X29064557Y-1997860D01*
X28790409Y-1874653D01*
X28579450Y-1811763D01*
X28506374Y-1789978D01*
X28506372Y-1789977D01*
X28502375Y-1788786D01*
X28498255Y-1788133D01*
X28498253Y-1788133D01*
X28208996Y-1742319D01*
X28208990Y-1742318D01*
X28205515Y-1741768D01*
X28180454Y-1740630D01*
X28112942Y-1737564D01*
X28112921Y-1737564D01*
X28111522Y-1737500D01*
X27923757Y-1737500D01*
X27921665Y-1737639D01*
X27921663Y-1737639D01*
X27766366Y-1747954D01*
X27700100Y-1752355D01*
X27696006Y-1753180D01*
X27696002Y-1753181D01*
X27614698Y-1769575D01*
X27405469Y-1811763D01*
X27121284Y-1909616D01*
X27117551Y-1911485D01*
X27117547Y-1911487D01*
X26881462Y-2029710D01*
X26852536Y-2044195D01*
X26765468Y-2103366D01*
X26636455Y-2191043D01*
X26568871Y-2212789D01*
X26500259Y-2194545D01*
X26452402Y-2142102D01*
X26440013Y-2077058D01*
X26440268Y-2073782D01*
X26440705Y-2070462D01*
X26440787Y-2067110D01*
X26442345Y-2003365D01*
X26442345Y-2003361D01*
X26442427Y-2000000D01*
X26423058Y-1764414D01*
X26365472Y-1535155D01*
X26271216Y-1318380D01*
X26142820Y-1119910D01*
X26139346Y-1116092D01*
X26139339Y-1116083D01*
X26112410Y-1086489D01*
X26081358Y-1022643D01*
X26089752Y-952145D01*
X26103280Y-928163D01*
X26233383Y-747105D01*
X26236401Y-742905D01*
X26242886Y-729785D01*
X26338841Y-535635D01*
X26338842Y-535633D01*
X26341135Y-530993D01*
X26409851Y-304821D01*
X26440705Y-70462D01*
X26442427Y0D01*
X26423058Y235586D01*
X26365472Y464845D01*
X26294701Y627608D01*
X26273276Y676883D01*
X26273274Y676886D01*
X26271216Y681620D01*
X26262947Y694402D01*
X26242740Y762462D01*
X26262536Y830643D01*
X26269855Y840932D01*
X26272292Y844018D01*
X26277466Y849201D01*
X26370764Y1000560D01*
X26426741Y1169322D01*
X26437500Y1274334D01*
X26437500Y2088878D01*
X26457502Y2156999D01*
X26511158Y2203492D01*
X26581432Y2213596D01*
X26643474Y2186244D01*
X26679999Y2156242D01*
X26683556Y2154036D01*
X26683561Y2154033D01*
X26780075Y2094192D01*
X26935443Y1997860D01*
X27209591Y1874653D01*
X27382431Y1823127D01*
X27493626Y1789978D01*
X27493628Y1789977D01*
X27497625Y1788786D01*
X27501745Y1788133D01*
X27501747Y1788133D01*
X27791004Y1742319D01*
X27791010Y1742318D01*
X27794485Y1741768D01*
X27819546Y1740630D01*
X27887058Y1737564D01*
X27887079Y1737564D01*
X27888478Y1737500D01*
X28076243Y1737500D01*
X28078335Y1737639D01*
X28078337Y1737639D01*
X28295729Y1752078D01*
X28299900Y1752355D01*
X28303994Y1753180D01*
X28303998Y1753181D01*
X28477339Y1788133D01*
X28594531Y1811763D01*
X28878716Y1909616D01*
X28882449Y1911485D01*
X28882453Y1911487D01*
X29143720Y2042320D01*
X29143722Y2042321D01*
X29147464Y2044195D01*
X29309086Y2154033D01*
X29392593Y2210784D01*
X29392596Y2210786D01*
X29396052Y2213135D01*
X29620113Y2413469D01*
X29703917Y2511245D01*
X29812990Y2638502D01*
X29812993Y2638506D01*
X29815710Y2641676D01*
X29817984Y2645178D01*
X29817988Y2645183D01*
X29977128Y2890237D01*
X29977131Y2890242D01*
X29979407Y2893747D01*
X30108328Y3165254D01*
X30130491Y3234284D01*
X30198928Y3447439D01*
X30198929Y3447445D01*
X30200208Y3451427D01*
X30230321Y3618790D01*
X30252693Y3743128D01*
X30252694Y3743133D01*
X30253432Y3747237D01*
X30254112Y3762193D01*
X30262754Y3952512D01*
X33232933Y3952512D01*
X33233296Y3948364D01*
X33233296Y3948360D01*
X33238512Y3888744D01*
X33259129Y3653095D01*
X33260039Y3649023D01*
X33260040Y3649018D01*
X33303286Y3455546D01*
X33324694Y3359773D01*
X33428477Y3077699D01*
X33430424Y3074006D01*
X33430425Y3074004D01*
X33469738Y2999440D01*
X33568655Y2811828D01*
X33742764Y2566833D01*
X33745613Y2563778D01*
X33914975Y2382160D01*
X33947746Y2347017D01*
X34179999Y2156242D01*
X34183556Y2154036D01*
X34183561Y2154033D01*
X34280075Y2094192D01*
X34435443Y1997860D01*
X34709591Y1874653D01*
X34882431Y1823127D01*
X34993626Y1789978D01*
X34993628Y1789977D01*
X34997625Y1788786D01*
X35001745Y1788133D01*
X35001747Y1788133D01*
X35291004Y1742319D01*
X35291010Y1742318D01*
X35294485Y1741768D01*
X35319546Y1740630D01*
X35387058Y1737564D01*
X35387079Y1737564D01*
X35388478Y1737500D01*
X35576243Y1737500D01*
X35578335Y1737639D01*
X35578337Y1737639D01*
X35795729Y1752078D01*
X35799900Y1752355D01*
X35803994Y1753180D01*
X35803998Y1753181D01*
X35977339Y1788133D01*
X36094531Y1811763D01*
X36378716Y1909616D01*
X36382449Y1911485D01*
X36382453Y1911487D01*
X36643720Y2042320D01*
X36643722Y2042321D01*
X36647464Y2044195D01*
X36809086Y2154033D01*
X36892593Y2210784D01*
X36892596Y2210786D01*
X36896052Y2213135D01*
X37120113Y2413469D01*
X37203917Y2511245D01*
X37312990Y2638502D01*
X37312993Y2638506D01*
X37315710Y2641676D01*
X37317984Y2645178D01*
X37317988Y2645183D01*
X37477128Y2890237D01*
X37477131Y2890242D01*
X37479407Y2893747D01*
X37608328Y3165254D01*
X37630491Y3234284D01*
X37698928Y3447439D01*
X37698929Y3447445D01*
X37700208Y3451427D01*
X37730321Y3618790D01*
X37752693Y3743128D01*
X37752694Y3743133D01*
X37753432Y3747237D01*
X37754112Y3762193D01*
X37766878Y4043318D01*
X37766878Y4043324D01*
X37767067Y4047488D01*
X37761504Y4111080D01*
X37741235Y4342743D01*
X37740871Y4346905D01*
X37713292Y4470290D01*
X37676218Y4636148D01*
X37676217Y4636151D01*
X37675306Y4640227D01*
X37672046Y4649089D01*
X37637535Y4742885D01*
X37571523Y4922301D01*
X37541725Y4978819D01*
X37433292Y5184479D01*
X37431345Y5188172D01*
X37257236Y5433167D01*
X37052254Y5652983D01*
X36820001Y5843758D01*
X36816444Y5845964D01*
X36816439Y5845967D01*
X36639288Y5955805D01*
X36564557Y6002140D01*
X36290409Y6125347D01*
X36079450Y6188237D01*
X36006374Y6210022D01*
X36006372Y6210023D01*
X36002375Y6211214D01*
X35998255Y6211867D01*
X35998253Y6211867D01*
X35708996Y6257681D01*
X35708990Y6257682D01*
X35705515Y6258232D01*
X35680454Y6259370D01*
X35612942Y6262436D01*
X35612921Y6262436D01*
X35611522Y6262500D01*
X35423757Y6262500D01*
X35421665Y6262361D01*
X35421663Y6262361D01*
X35266366Y6252046D01*
X35200100Y6247645D01*
X35196006Y6246820D01*
X35196002Y6246819D01*
X35093164Y6226083D01*
X34905469Y6188237D01*
X34621284Y6090384D01*
X34617551Y6088515D01*
X34617547Y6088513D01*
X34356280Y5957680D01*
X34352536Y5955805D01*
X34349071Y5953450D01*
X34187664Y5843758D01*
X34103948Y5786865D01*
X33879887Y5586531D01*
X33877170Y5583361D01*
X33877169Y5583360D01*
X33745515Y5429756D01*
X33684290Y5358324D01*
X33682016Y5354822D01*
X33682012Y5354817D01*
X33522872Y5109763D01*
X33520593Y5106253D01*
X33391672Y4834746D01*
X33390393Y4830763D01*
X33390392Y4830760D01*
X33323868Y4623560D01*
X33299792Y4548573D01*
X33299051Y4544454D01*
X33250814Y4276359D01*
X33246568Y4252763D01*
X33246379Y4248596D01*
X33246378Y4248589D01*
X33234068Y3977511D01*
X33232933Y3952512D01*
X30262754Y3952512D01*
X30266878Y4043318D01*
X30266878Y4043324D01*
X30267067Y4047488D01*
X30261504Y4111080D01*
X30241235Y4342743D01*
X30240871Y4346905D01*
X30213292Y4470290D01*
X30176218Y4636148D01*
X30176217Y4636151D01*
X30175306Y4640227D01*
X30172046Y4649089D01*
X30137535Y4742885D01*
X30071523Y4922301D01*
X30041725Y4978819D01*
X29933292Y5184479D01*
X29931345Y5188172D01*
X29757236Y5433167D01*
X29552254Y5652983D01*
X29320001Y5843758D01*
X29316444Y5845964D01*
X29316439Y5845967D01*
X29139288Y5955805D01*
X29064557Y6002140D01*
X28790409Y6125347D01*
X28579450Y6188237D01*
X28506374Y6210022D01*
X28506372Y6210023D01*
X28502375Y6211214D01*
X28498255Y6211867D01*
X28498253Y6211867D01*
X28208996Y6257681D01*
X28208990Y6257682D01*
X28205515Y6258232D01*
X28180454Y6259370D01*
X28112942Y6262436D01*
X28112921Y6262436D01*
X28111522Y6262500D01*
X27923757Y6262500D01*
X27921665Y6262361D01*
X27921663Y6262361D01*
X27766366Y6252046D01*
X27700100Y6247645D01*
X27696006Y6246820D01*
X27696002Y6246819D01*
X27593164Y6226083D01*
X27405469Y6188237D01*
X27121284Y6090384D01*
X27117551Y6088515D01*
X27117547Y6088513D01*
X26856280Y5957680D01*
X26852536Y5955805D01*
X26849071Y5953450D01*
X26687664Y5843758D01*
X26603948Y5786865D01*
X26379887Y5586531D01*
X26377170Y5583361D01*
X26377169Y5583360D01*
X26245515Y5429756D01*
X26184290Y5358324D01*
X26182016Y5354822D01*
X26182012Y5354817D01*
X26022872Y5109763D01*
X26020593Y5106253D01*
X25891672Y4834746D01*
X25890393Y4830763D01*
X25890392Y4830760D01*
X25823868Y4623560D01*
X25799792Y4548573D01*
X25799051Y4544454D01*
X25750814Y4276359D01*
X25746568Y4252763D01*
X25746379Y4248596D01*
X25746378Y4248589D01*
X25734068Y3977511D01*
X25732933Y3952512D01*
X25733296Y3948364D01*
X25733296Y3948360D01*
X25738512Y3888744D01*
X25759129Y3653095D01*
X25760039Y3649023D01*
X25760040Y3649018D01*
X25773012Y3590986D01*
X25768351Y3520143D01*
X25726130Y3463065D01*
X25659752Y3437874D01*
X25650046Y3437500D01*
X24274334Y3437500D01*
X24271088Y3437163D01*
X24271084Y3437163D01*
X24174868Y3427180D01*
X24174864Y3427179D01*
X24168010Y3426468D01*
X24161474Y3424287D01*
X24161472Y3424287D01*
X24029723Y3380332D01*
X23999346Y3370197D01*
X23848150Y3276634D01*
X23722534Y3150799D01*
X23629236Y2999440D01*
X23626931Y2992492D01*
X23626931Y2992491D01*
X23591474Y2885592D01*
X23573259Y2830678D01*
X23562500Y2725666D01*
X23562500Y1274334D01*
X23562837Y1271088D01*
X23562837Y1271084D01*
X23572686Y1176167D01*
X23573532Y1168010D01*
X23629803Y999346D01*
X23723366Y848150D01*
X23728548Y842977D01*
X23729400Y841902D01*
X23756036Y776092D01*
X23744941Y710588D01*
X23646292Y498067D01*
X23583122Y270284D01*
X23558004Y35242D01*
X23558301Y30090D01*
X23558301Y30086D01*
X23560036Y0D01*
X23571611Y-200747D01*
X23572746Y-205784D01*
X23572747Y-205790D01*
X23595065Y-304821D01*
X23623578Y-431345D01*
X23625522Y-436131D01*
X23625523Y-436136D01*
X23690619Y-596447D01*
X23712510Y-650358D01*
X23836019Y-851906D01*
X23890606Y-914922D01*
X23920087Y-979506D01*
X23909972Y-1049779D01*
X23886460Y-1084470D01*
X23879024Y-1092251D01*
X23745817Y-1287525D01*
X23646292Y-1501933D01*
X23583122Y-1729716D01*
X23558004Y-1964758D01*
X19992598Y-1964758D01*
X19940213Y-1733250D01*
X19928901Y-1704160D01*
X19846960Y-1493450D01*
X19846959Y-1493448D01*
X19845267Y-1489097D01*
X19824015Y-1451914D01*
X19717595Y-1265716D01*
X19717593Y-1265714D01*
X19715276Y-1261659D01*
X19553095Y-1055933D01*
X19362287Y-876440D01*
X19358440Y-873771D01*
X19150887Y-729785D01*
X19150884Y-729783D01*
X19147045Y-727120D01*
X19142855Y-725054D01*
X19142852Y-725052D01*
X18916283Y-613321D01*
X18916280Y-613320D01*
X18912095Y-611256D01*
X18865832Y-596447D01*
X18811752Y-579136D01*
X18662601Y-531393D01*
X18657994Y-530643D01*
X18657991Y-530642D01*
X18408654Y-490035D01*
X18408655Y-490035D01*
X18404043Y-489284D01*
X18276858Y-487619D01*
X18146777Y-485916D01*
X18146774Y-485916D01*
X18142100Y-485855D01*
X17882528Y-521181D01*
X17878042Y-522489D01*
X17878040Y-522489D01*
X17848864Y-530993D01*
X17631029Y-594486D01*
X17393127Y-704160D01*
X17358107Y-727120D01*
X17177962Y-845228D01*
X17177957Y-845232D01*
X17174049Y-847794D01*
X16978609Y-1022232D01*
X16811098Y-1223641D01*
X16675198Y-1447598D01*
X16673389Y-1451912D01*
X16673388Y-1451914D01*
X16640060Y-1531393D01*
X16573893Y-1689182D01*
X16572742Y-1693714D01*
X16572741Y-1693717D01*
X16517910Y-1909616D01*
X16509409Y-1943087D01*
X16483164Y-2203734D01*
X13514004Y-2203734D01*
X13498374Y-1993407D01*
X13498373Y-1993403D01*
X13498028Y-1988755D01*
X13440213Y-1733250D01*
X13428901Y-1704160D01*
X13346960Y-1493450D01*
X13346959Y-1493448D01*
X13345267Y-1489097D01*
X13324015Y-1451914D01*
X13217595Y-1265716D01*
X13217593Y-1265714D01*
X13215276Y-1261659D01*
X13053095Y-1055933D01*
X12862287Y-876440D01*
X12858440Y-873771D01*
X12650887Y-729785D01*
X12650884Y-729783D01*
X12647045Y-727120D01*
X12642855Y-725054D01*
X12642852Y-725052D01*
X12416283Y-613321D01*
X12416280Y-613320D01*
X12412095Y-611256D01*
X12365832Y-596447D01*
X12311752Y-579136D01*
X12162601Y-531393D01*
X12157994Y-530643D01*
X12157991Y-530642D01*
X11908654Y-490035D01*
X11908655Y-490035D01*
X11904043Y-489284D01*
X11776858Y-487619D01*
X11646777Y-485916D01*
X11646774Y-485916D01*
X11642100Y-485855D01*
X11382528Y-521181D01*
X11378042Y-522489D01*
X11378040Y-522489D01*
X11348864Y-530993D01*
X11131029Y-594486D01*
X10893127Y-704160D01*
X10858107Y-727120D01*
X10677962Y-845228D01*
X10677957Y-845232D01*
X10674049Y-847794D01*
X10478609Y-1022232D01*
X10311098Y-1223641D01*
X10175198Y-1447598D01*
X10173389Y-1451912D01*
X10173388Y-1451914D01*
X10140060Y-1531393D01*
X10073893Y-1689182D01*
X10072742Y-1693714D01*
X10072741Y-1693717D01*
X10017910Y-1909616D01*
X10009409Y-1943087D01*
X9983164Y-2203734D01*
X5014004Y-2203734D01*
X4998374Y-1993407D01*
X4998373Y-1993403D01*
X4998028Y-1988755D01*
X4940213Y-1733250D01*
X4928901Y-1704160D01*
X4846960Y-1493450D01*
X4846959Y-1493448D01*
X4845267Y-1489097D01*
X4824015Y-1451914D01*
X4717595Y-1265716D01*
X4717593Y-1265714D01*
X4715276Y-1261659D01*
X4553095Y-1055933D01*
X4362287Y-876440D01*
X4358440Y-873771D01*
X4150887Y-729785D01*
X4150884Y-729783D01*
X4147045Y-727120D01*
X4142855Y-725054D01*
X4142852Y-725052D01*
X3916283Y-613321D01*
X3916280Y-613320D01*
X3912095Y-611256D01*
X3865832Y-596447D01*
X3811752Y-579136D01*
X3662601Y-531393D01*
X3657994Y-530643D01*
X3657991Y-530642D01*
X3408654Y-490035D01*
X3408655Y-490035D01*
X3404043Y-489284D01*
X3276858Y-487619D01*
X3146777Y-485916D01*
X3146774Y-485916D01*
X3142100Y-485855D01*
X2882528Y-521181D01*
X2878042Y-522489D01*
X2878040Y-522489D01*
X2848864Y-530993D01*
X2631029Y-594486D01*
X2393127Y-704160D01*
X2358107Y-727120D01*
X2177962Y-845228D01*
X2177957Y-845232D01*
X2174049Y-847794D01*
X1978609Y-1022232D01*
X1811098Y-1223641D01*
X1675198Y-1447598D01*
X1673389Y-1451912D01*
X1673388Y-1451914D01*
X1640060Y-1531393D01*
X1573893Y-1689182D01*
X1572742Y-1693714D01*
X1572741Y-1693717D01*
X1517910Y-1909616D01*
X1509409Y-1943087D01*
X1483164Y-2203734D01*
X-1485996Y-2203734D01*
X-1501626Y-1993407D01*
X-1501627Y-1993403D01*
X-1501972Y-1988755D01*
X-1559787Y-1733250D01*
X-1571099Y-1704160D01*
X-1653040Y-1493450D01*
X-1653041Y-1493448D01*
X-1654733Y-1489097D01*
X-1675985Y-1451914D01*
X-1782405Y-1265716D01*
X-1782407Y-1265714D01*
X-1784724Y-1261659D01*
X-1946905Y-1055933D01*
X-2137713Y-876440D01*
X-2141560Y-873771D01*
X-2349113Y-729785D01*
X-2349116Y-729783D01*
X-2352955Y-727120D01*
X-2357145Y-725054D01*
X-2357148Y-725052D01*
X-2583717Y-613321D01*
X-2583720Y-613320D01*
X-2587905Y-611256D01*
X-2634168Y-596447D01*
X-2688248Y-579136D01*
X-2837399Y-531393D01*
X-2842006Y-530643D01*
X-2842009Y-530642D01*
X-3091346Y-490035D01*
X-3091345Y-490035D01*
X-3095957Y-489284D01*
X-3223142Y-487619D01*
X-3353223Y-485916D01*
X-3353226Y-485916D01*
X-3357900Y-485855D01*
X-3617472Y-521181D01*
X-3621958Y-522489D01*
X-3621960Y-522489D01*
X-3651136Y-530993D01*
X-3868971Y-594486D01*
X-4106873Y-704160D01*
X-4141893Y-727120D01*
X-4322038Y-845228D01*
X-4322043Y-845232D01*
X-4325951Y-847794D01*
X-4521391Y-1022232D01*
X-4688902Y-1223641D01*
X-4824802Y-1447598D01*
X-4826611Y-1451912D01*
X-4826612Y-1451914D01*
X-4859940Y-1531393D01*
X-4926107Y-1689182D01*
X-4927258Y-1693714D01*
X-4927259Y-1693717D01*
X-4982090Y-1909616D01*
X-4990591Y-1943087D01*
X-5016836Y-2203734D01*
X-34330388Y-2203734D01*
X-34446905Y-2055933D01*
X-34637713Y-1876440D01*
X-34642010Y-1873459D01*
X-34849113Y-1729785D01*
X-34849116Y-1729783D01*
X-34852955Y-1727120D01*
X-34857145Y-1725054D01*
X-34857148Y-1725052D01*
X-35083717Y-1613321D01*
X-35083720Y-1613320D01*
X-35087905Y-1611256D01*
X-35134168Y-1596447D01*
X-35309989Y-1540167D01*
X-35337399Y-1531393D01*
X-35342006Y-1530643D01*
X-35342009Y-1530642D01*
X-35591346Y-1490035D01*
X-35591345Y-1490035D01*
X-35595957Y-1489284D01*
X-35723142Y-1487619D01*
X-35853223Y-1485916D01*
X-35853226Y-1485916D01*
X-35857900Y-1485855D01*
X-36117472Y-1521181D01*
X-36121958Y-1522489D01*
X-36121960Y-1522489D01*
X-36152508Y-1531393D01*
X-36368971Y-1594486D01*
X-36606873Y-1704160D01*
X-36641893Y-1727120D01*
X-36822038Y-1845228D01*
X-36822043Y-1845232D01*
X-36825951Y-1847794D01*
X-37021391Y-2022232D01*
X-37188902Y-2223641D01*
X-37324802Y-2447598D01*
X-37326611Y-2451912D01*
X-37326612Y-2451914D01*
X-37411673Y-2654762D01*
X-37426107Y-2689182D01*
X-37427258Y-2693714D01*
X-37427259Y-2693717D01*
X-37474055Y-2877978D01*
X-37490591Y-2943087D01*
X-37491060Y-2947743D01*
X-37491060Y-2947744D01*
X-37493188Y-2968883D01*
X-37516836Y-3203734D01*
X-38740978Y-3203734D01*
X-38755572Y-3018301D01*
X-38757115Y-3008554D01*
X-38810217Y-2787373D01*
X-38813266Y-2777988D01*
X-38900313Y-2567837D01*
X-38904795Y-2559042D01*
X-39007432Y-2391555D01*
X-39017890Y-2382093D01*
X-39026666Y-2385876D01*
X-39877978Y-3237188D01*
X-39885592Y-3251132D01*
X-40615644Y-3251132D01*
X-40614408Y-3248868D01*
X-40614539Y-3247035D01*
X-40618790Y-3240420D01*
X-41470290Y-2388920D01*
X-41482670Y-2382160D01*
X-41490320Y-2387887D01*
X-41595205Y-2559042D01*
X-41599687Y-2567837D01*
X-41686734Y-2777988D01*
X-41689783Y-2787373D01*
X-41742885Y-3008554D01*
X-41744428Y-3018301D01*
X-41762275Y-3245070D01*
X-41762275Y-3254930D01*
X-42237500Y-3254930D01*
X-42237500Y-2017890D01*
X-41117907Y-2017890D01*
X-41114124Y-2026666D01*
X-40262812Y-2877978D01*
X-40248868Y-2885592D01*
X-40247035Y-2885461D01*
X-40240420Y-2881210D01*
X-39388920Y-2029710D01*
X-39382160Y-2017330D01*
X-39387887Y-2009680D01*
X-39559042Y-1904795D01*
X-39567837Y-1900313D01*
X-39777988Y-1813266D01*
X-39787373Y-1810217D01*
X-40008554Y-1757115D01*
X-40018301Y-1755572D01*
X-40245070Y-1737725D01*
X-40254930Y-1737725D01*
X-40481699Y-1755572D01*
X-40491446Y-1757115D01*
X-40712627Y-1810217D01*
X-40722012Y-1813266D01*
X-40932163Y-1900313D01*
X-40940958Y-1904795D01*
X-41108445Y-2007432D01*
X-41117907Y-2017890D01*
X-42237500Y-2017890D01*
X-42237500Y2017330D01*
X-41117840Y2017330D01*
X-41112113Y2009680D01*
X-40940958Y1904795D01*
X-40932163Y1900313D01*
X-40722012Y1813266D01*
X-40712627Y1810217D01*
X-40491446Y1757115D01*
X-40481699Y1755572D01*
X-40254930Y1737725D01*
X-40245070Y1737725D01*
X-40018301Y1755572D01*
X-40008554Y1757115D01*
X-39787373Y1810217D01*
X-39777988Y1813266D01*
X-39567837Y1900313D01*
X-39559042Y1904795D01*
X-39391555Y2007432D01*
X-39382093Y2017890D01*
X-39385876Y2026666D01*
X-40237188Y2877978D01*
X-40251132Y2885592D01*
X-40252965Y2885461D01*
X-40259580Y2881210D01*
X-41111080Y2029710D01*
X-41117840Y2017330D01*
X-42237500Y2017330D01*
X-42237500Y3245070D01*
X-41762275Y3245070D01*
X-41744428Y3018301D01*
X-41742885Y3008554D01*
X-41689783Y2787373D01*
X-41686734Y2777988D01*
X-41599687Y2567837D01*
X-41595205Y2559042D01*
X-41492568Y2391555D01*
X-41482110Y2382093D01*
X-41473334Y2385876D01*
X-40622022Y3237188D01*
X-40615644Y3248868D01*
X-39885592Y3248868D01*
X-39885461Y3247035D01*
X-39881210Y3240420D01*
X-39029710Y2388920D01*
X-39017330Y2382160D01*
X-39009680Y2387887D01*
X-38904795Y2559042D01*
X-38900313Y2567837D01*
X-38813266Y2777988D01*
X-38810217Y2787373D01*
X-38757115Y3008554D01*
X-38755572Y3018301D01*
X-38737725Y3245070D01*
X-38737725Y3254930D01*
X-38740978Y3296266D01*
X-37516836Y3296266D01*
X-37516612Y3291599D01*
X-37516612Y3291594D01*
X-37513859Y3234284D01*
X-37504268Y3034603D01*
X-37495891Y2992491D01*
X-37460612Y2815133D01*
X-37453161Y2777672D01*
X-37451582Y2773274D01*
X-37451580Y2773267D01*
X-37375530Y2561450D01*
X-37364639Y2531117D01*
X-37240645Y2300354D01*
X-37237850Y2296611D01*
X-37237848Y2296608D01*
X-37086697Y2094192D01*
X-37086692Y2094186D01*
X-37083905Y2090454D01*
X-37080596Y2087174D01*
X-37080591Y2087168D01*
X-36901179Y1909315D01*
X-36897862Y1906027D01*
X-36894100Y1903269D01*
X-36894097Y1903266D01*
X-36739592Y1789978D01*
X-36686602Y1751124D01*
X-36682471Y1748950D01*
X-36682470Y1748950D01*
X-36458901Y1631325D01*
X-36458895Y1631323D01*
X-36454766Y1629150D01*
X-36450358Y1627611D01*
X-36450352Y1627608D01*
X-36211864Y1544324D01*
X-36207448Y1542782D01*
X-35950080Y1493919D01*
X-35825825Y1489037D01*
X-35692985Y1483818D01*
X-35692980Y1483818D01*
X-35688317Y1483635D01*
X-35586460Y1494790D01*
X-35432562Y1511644D01*
X-35432556Y1511645D01*
X-35427909Y1512154D01*
X-35371554Y1526991D01*
X-35179100Y1577660D01*
X-35179098Y1577661D01*
X-35174577Y1578851D01*
X-35052440Y1631325D01*
X-34938180Y1680415D01*
X-34938178Y1680416D01*
X-34933886Y1682260D01*
X-34711124Y1820109D01*
X-34511184Y1989371D01*
X-34475540Y2030015D01*
X-34341540Y2182812D01*
X-34341536Y2182817D01*
X-34338458Y2186327D01*
X-34322727Y2210784D01*
X-34267743Y2296266D01*
X-5016836Y2296266D01*
X-5016612Y2291599D01*
X-5016612Y2291594D01*
X-5011387Y2182812D01*
X-5004268Y2034603D01*
X-4994670Y1986352D01*
X-4960213Y1813126D01*
X-4953161Y1777672D01*
X-4951582Y1773274D01*
X-4951580Y1773267D01*
X-4899283Y1627608D01*
X-4864639Y1531117D01*
X-4740645Y1300354D01*
X-4737850Y1296611D01*
X-4737848Y1296608D01*
X-4586697Y1094192D01*
X-4586692Y1094186D01*
X-4583905Y1090454D01*
X-4580596Y1087174D01*
X-4580591Y1087168D01*
X-4478891Y986352D01*
X-4397862Y906027D01*
X-4394100Y903269D01*
X-4394097Y903266D01*
X-4277333Y817651D01*
X-4186602Y751124D01*
X-4182471Y748950D01*
X-4182470Y748950D01*
X-3958901Y631325D01*
X-3958895Y631323D01*
X-3954766Y629150D01*
X-3950358Y627611D01*
X-3950352Y627608D01*
X-3711864Y544324D01*
X-3707448Y542782D01*
X-3450080Y493919D01*
X-3325825Y489037D01*
X-3192985Y483818D01*
X-3192980Y483818D01*
X-3188317Y483635D01*
X-3086460Y494790D01*
X-2932562Y511644D01*
X-2932556Y511645D01*
X-2927909Y512154D01*
X-2805719Y544324D01*
X-2679100Y577660D01*
X-2679098Y577661D01*
X-2674577Y578851D01*
X-2433886Y682260D01*
X-2211124Y820109D01*
X-2011184Y989371D01*
X-1860255Y1161472D01*
X-1841540Y1182812D01*
X-1841536Y1182817D01*
X-1838458Y1186327D01*
X-1835928Y1190260D01*
X-1699270Y1402719D01*
X-1699267Y1402724D01*
X-1696742Y1406650D01*
X-1589148Y1645499D01*
X-1518040Y1897629D01*
X-1501198Y2030015D01*
X-1485378Y2154369D01*
X-1485378Y2154373D01*
X-1484980Y2157499D01*
X-1482558Y2250000D01*
X-1485996Y2296266D01*
X1483164Y2296266D01*
X1483388Y2291599D01*
X1483388Y2291594D01*
X1488613Y2182812D01*
X1495732Y2034603D01*
X1505330Y1986352D01*
X1539787Y1813126D01*
X1546839Y1777672D01*
X1548418Y1773274D01*
X1548420Y1773267D01*
X1600717Y1627608D01*
X1635361Y1531117D01*
X1759355Y1300354D01*
X1762150Y1296611D01*
X1762152Y1296608D01*
X1913303Y1094192D01*
X1913308Y1094186D01*
X1916095Y1090454D01*
X1919404Y1087174D01*
X1919409Y1087168D01*
X2021109Y986352D01*
X2102138Y906027D01*
X2105900Y903269D01*
X2105903Y903266D01*
X2222667Y817651D01*
X2313398Y751124D01*
X2317529Y748950D01*
X2317530Y748950D01*
X2541099Y631325D01*
X2541105Y631323D01*
X2545234Y629150D01*
X2549642Y627611D01*
X2549648Y627608D01*
X2788136Y544324D01*
X2792552Y542782D01*
X3049920Y493919D01*
X3174175Y489037D01*
X3307015Y483818D01*
X3307020Y483818D01*
X3311683Y483635D01*
X3413540Y494790D01*
X3567438Y511644D01*
X3567444Y511645D01*
X3572091Y512154D01*
X3694281Y544324D01*
X3820900Y577660D01*
X3820902Y577661D01*
X3825423Y578851D01*
X4066114Y682260D01*
X4288876Y820109D01*
X4488816Y989371D01*
X4639745Y1161472D01*
X4658460Y1182812D01*
X4658464Y1182817D01*
X4661542Y1186327D01*
X4664072Y1190260D01*
X4800730Y1402719D01*
X4800733Y1402724D01*
X4803258Y1406650D01*
X4910852Y1645499D01*
X4981960Y1897629D01*
X4998802Y2030015D01*
X5014622Y2154369D01*
X5014622Y2154373D01*
X5015020Y2157499D01*
X5017442Y2250000D01*
X5014004Y2296266D01*
X9983164Y2296266D01*
X9983388Y2291599D01*
X9983388Y2291594D01*
X9988613Y2182812D01*
X9995732Y2034603D01*
X10005330Y1986352D01*
X10039787Y1813126D01*
X10046839Y1777672D01*
X10048418Y1773274D01*
X10048420Y1773267D01*
X10100717Y1627608D01*
X10135361Y1531117D01*
X10259355Y1300354D01*
X10262150Y1296611D01*
X10262152Y1296608D01*
X10413303Y1094192D01*
X10413308Y1094186D01*
X10416095Y1090454D01*
X10419404Y1087174D01*
X10419409Y1087168D01*
X10521109Y986352D01*
X10602138Y906027D01*
X10605900Y903269D01*
X10605903Y903266D01*
X10722667Y817651D01*
X10813398Y751124D01*
X10817529Y748950D01*
X10817530Y748950D01*
X11041099Y631325D01*
X11041105Y631323D01*
X11045234Y629150D01*
X11049642Y627611D01*
X11049648Y627608D01*
X11288136Y544324D01*
X11292552Y542782D01*
X11549920Y493919D01*
X11674175Y489037D01*
X11807015Y483818D01*
X11807020Y483818D01*
X11811683Y483635D01*
X11913540Y494790D01*
X12067438Y511644D01*
X12067444Y511645D01*
X12072091Y512154D01*
X12194281Y544324D01*
X12320900Y577660D01*
X12320902Y577661D01*
X12325423Y578851D01*
X12566114Y682260D01*
X12788876Y820109D01*
X12988816Y989371D01*
X13139745Y1161472D01*
X13158460Y1182812D01*
X13158464Y1182817D01*
X13161542Y1186327D01*
X13164072Y1190260D01*
X13300730Y1402719D01*
X13300733Y1402724D01*
X13303258Y1406650D01*
X13410852Y1645499D01*
X13481960Y1897629D01*
X13498802Y2030015D01*
X13514622Y2154369D01*
X13514622Y2154373D01*
X13515020Y2157499D01*
X13517442Y2250000D01*
X13514004Y2296266D01*
X16483164Y2296266D01*
X16483388Y2291599D01*
X16483388Y2291594D01*
X16488613Y2182812D01*
X16495732Y2034603D01*
X16505330Y1986352D01*
X16539787Y1813126D01*
X16546839Y1777672D01*
X16548418Y1773274D01*
X16548420Y1773267D01*
X16600717Y1627608D01*
X16635361Y1531117D01*
X16759355Y1300354D01*
X16762150Y1296611D01*
X16762152Y1296608D01*
X16913303Y1094192D01*
X16913308Y1094186D01*
X16916095Y1090454D01*
X16919404Y1087174D01*
X16919409Y1087168D01*
X17021109Y986352D01*
X17102138Y906027D01*
X17105900Y903269D01*
X17105903Y903266D01*
X17222667Y817651D01*
X17313398Y751124D01*
X17317529Y748950D01*
X17317530Y748950D01*
X17541099Y631325D01*
X17541105Y631323D01*
X17545234Y629150D01*
X17549642Y627611D01*
X17549648Y627608D01*
X17788136Y544324D01*
X17792552Y542782D01*
X18049920Y493919D01*
X18174175Y489037D01*
X18307015Y483818D01*
X18307020Y483818D01*
X18311683Y483635D01*
X18413540Y494790D01*
X18567438Y511644D01*
X18567444Y511645D01*
X18572091Y512154D01*
X18694281Y544324D01*
X18820900Y577660D01*
X18820902Y577661D01*
X18825423Y578851D01*
X19066114Y682260D01*
X19288876Y820109D01*
X19488816Y989371D01*
X19639745Y1161472D01*
X19658460Y1182812D01*
X19658464Y1182817D01*
X19661542Y1186327D01*
X19664072Y1190260D01*
X19800730Y1402719D01*
X19800733Y1402724D01*
X19803258Y1406650D01*
X19910852Y1645499D01*
X19981960Y1897629D01*
X19998802Y2030015D01*
X20014622Y2154369D01*
X20014622Y2154373D01*
X20015020Y2157499D01*
X20017442Y2250000D01*
X20007195Y2387887D01*
X19998374Y2506593D01*
X19998373Y2506597D01*
X19998028Y2511245D01*
X19940213Y2766750D01*
X19935843Y2777988D01*
X19846960Y3006550D01*
X19846959Y3006552D01*
X19845267Y3010903D01*
X19834344Y3030015D01*
X19717595Y3234284D01*
X19717593Y3234286D01*
X19715276Y3238341D01*
X19553095Y3444067D01*
X19362287Y3623560D01*
X19325590Y3649018D01*
X19150887Y3770215D01*
X19150884Y3770217D01*
X19147045Y3772880D01*
X19142855Y3774946D01*
X19142852Y3774948D01*
X18916283Y3886679D01*
X18916280Y3886680D01*
X18912095Y3888744D01*
X18865832Y3903553D01*
X18712882Y3952512D01*
X18662601Y3968607D01*
X18657994Y3969357D01*
X18657991Y3969358D01*
X18408654Y4009965D01*
X18408655Y4009965D01*
X18404043Y4010716D01*
X18276858Y4012381D01*
X18146777Y4014084D01*
X18146774Y4014084D01*
X18142100Y4014145D01*
X17882528Y3978819D01*
X17878042Y3977511D01*
X17878040Y3977511D01*
X17847492Y3968607D01*
X17631029Y3905514D01*
X17393127Y3795840D01*
X17358107Y3772880D01*
X17177962Y3654772D01*
X17177957Y3654768D01*
X17174049Y3652206D01*
X16978609Y3477768D01*
X16811098Y3276359D01*
X16675198Y3052402D01*
X16673389Y3048088D01*
X16673388Y3048086D01*
X16579351Y2823833D01*
X16573893Y2810818D01*
X16572742Y2806286D01*
X16572741Y2806283D01*
X16512795Y2570244D01*
X16509409Y2556913D01*
X16508940Y2552257D01*
X16508940Y2552256D01*
X16506812Y2531117D01*
X16483164Y2296266D01*
X13514004Y2296266D01*
X13507195Y2387887D01*
X13498374Y2506593D01*
X13498373Y2506597D01*
X13498028Y2511245D01*
X13440213Y2766750D01*
X13435843Y2777988D01*
X13346960Y3006550D01*
X13346959Y3006552D01*
X13345267Y3010903D01*
X13334344Y3030015D01*
X13217595Y3234284D01*
X13217593Y3234286D01*
X13215276Y3238341D01*
X13053095Y3444067D01*
X12862287Y3623560D01*
X12825590Y3649018D01*
X12650887Y3770215D01*
X12650884Y3770217D01*
X12647045Y3772880D01*
X12642855Y3774946D01*
X12642852Y3774948D01*
X12416283Y3886679D01*
X12416280Y3886680D01*
X12412095Y3888744D01*
X12365832Y3903553D01*
X12212882Y3952512D01*
X12162601Y3968607D01*
X12157994Y3969357D01*
X12157991Y3969358D01*
X11908654Y4009965D01*
X11908655Y4009965D01*
X11904043Y4010716D01*
X11776858Y4012381D01*
X11646777Y4014084D01*
X11646774Y4014084D01*
X11642100Y4014145D01*
X11382528Y3978819D01*
X11378042Y3977511D01*
X11378040Y3977511D01*
X11347492Y3968607D01*
X11131029Y3905514D01*
X10893127Y3795840D01*
X10858107Y3772880D01*
X10677962Y3654772D01*
X10677957Y3654768D01*
X10674049Y3652206D01*
X10478609Y3477768D01*
X10311098Y3276359D01*
X10175198Y3052402D01*
X10173389Y3048088D01*
X10173388Y3048086D01*
X10079351Y2823833D01*
X10073893Y2810818D01*
X10072742Y2806286D01*
X10072741Y2806283D01*
X10012795Y2570244D01*
X10009409Y2556913D01*
X10008940Y2552257D01*
X10008940Y2552256D01*
X10006812Y2531117D01*
X9983164Y2296266D01*
X5014004Y2296266D01*
X5007195Y2387887D01*
X4998374Y2506593D01*
X4998373Y2506597D01*
X4998028Y2511245D01*
X4940213Y2766750D01*
X4935843Y2777988D01*
X4846960Y3006550D01*
X4846959Y3006552D01*
X4845267Y3010903D01*
X4834344Y3030015D01*
X4717595Y3234284D01*
X4717593Y3234286D01*
X4715276Y3238341D01*
X4553095Y3444067D01*
X4362287Y3623560D01*
X4325590Y3649018D01*
X4150887Y3770215D01*
X4150884Y3770217D01*
X4147045Y3772880D01*
X4142855Y3774946D01*
X4142852Y3774948D01*
X3916283Y3886679D01*
X3916280Y3886680D01*
X3912095Y3888744D01*
X3865832Y3903553D01*
X3712882Y3952512D01*
X3662601Y3968607D01*
X3657994Y3969357D01*
X3657991Y3969358D01*
X3408654Y4009965D01*
X3408655Y4009965D01*
X3404043Y4010716D01*
X3276858Y4012381D01*
X3146777Y4014084D01*
X3146774Y4014084D01*
X3142100Y4014145D01*
X2882528Y3978819D01*
X2878042Y3977511D01*
X2878040Y3977511D01*
X2847492Y3968607D01*
X2631029Y3905514D01*
X2393127Y3795840D01*
X2358107Y3772880D01*
X2177962Y3654772D01*
X2177957Y3654768D01*
X2174049Y3652206D01*
X1978609Y3477768D01*
X1811098Y3276359D01*
X1675198Y3052402D01*
X1673389Y3048088D01*
X1673388Y3048086D01*
X1579351Y2823833D01*
X1573893Y2810818D01*
X1572742Y2806286D01*
X1572741Y2806283D01*
X1512795Y2570244D01*
X1509409Y2556913D01*
X1508940Y2552257D01*
X1508940Y2552256D01*
X1506812Y2531117D01*
X1483164Y2296266D01*
X-1485996Y2296266D01*
X-1492805Y2387887D01*
X-1501626Y2506593D01*
X-1501627Y2506597D01*
X-1501972Y2511245D01*
X-1559787Y2766750D01*
X-1564157Y2777988D01*
X-1653040Y3006550D01*
X-1653041Y3006552D01*
X-1654733Y3010903D01*
X-1665656Y3030015D01*
X-1782405Y3234284D01*
X-1782407Y3234286D01*
X-1784724Y3238341D01*
X-1946905Y3444067D01*
X-2137713Y3623560D01*
X-2174410Y3649018D01*
X-2349113Y3770215D01*
X-2349116Y3770217D01*
X-2352955Y3772880D01*
X-2357145Y3774946D01*
X-2357148Y3774948D01*
X-2583717Y3886679D01*
X-2583720Y3886680D01*
X-2587905Y3888744D01*
X-2634168Y3903553D01*
X-2787118Y3952512D01*
X-2837399Y3968607D01*
X-2842006Y3969357D01*
X-2842009Y3969358D01*
X-3091346Y4009965D01*
X-3091345Y4009965D01*
X-3095957Y4010716D01*
X-3223142Y4012381D01*
X-3353223Y4014084D01*
X-3353226Y4014084D01*
X-3357900Y4014145D01*
X-3617472Y3978819D01*
X-3621958Y3977511D01*
X-3621960Y3977511D01*
X-3652508Y3968607D01*
X-3868971Y3905514D01*
X-4106873Y3795840D01*
X-4141893Y3772880D01*
X-4322038Y3654772D01*
X-4322043Y3654768D01*
X-4325951Y3652206D01*
X-4521391Y3477768D01*
X-4688902Y3276359D01*
X-4824802Y3052402D01*
X-4826611Y3048088D01*
X-4826612Y3048086D01*
X-4920649Y2823833D01*
X-4926107Y2810818D01*
X-4927258Y2806286D01*
X-4927259Y2806283D01*
X-4987205Y2570244D01*
X-4990591Y2556913D01*
X-4991060Y2552257D01*
X-4991060Y2552256D01*
X-4993188Y2531117D01*
X-5016836Y2296266D01*
X-34267743Y2296266D01*
X-34199270Y2402719D01*
X-34199267Y2402724D01*
X-34196742Y2406650D01*
X-34089148Y2645499D01*
X-34018040Y2897629D01*
X-34001198Y3030015D01*
X-33985378Y3154369D01*
X-33985378Y3154373D01*
X-33984980Y3157499D01*
X-33984672Y3169240D01*
X-33983621Y3209401D01*
X-33982558Y3250000D01*
X-33990424Y3355848D01*
X-34001626Y3506593D01*
X-34001627Y3506597D01*
X-34001972Y3511245D01*
X-34059787Y3766750D01*
X-34071099Y3795840D01*
X-34153040Y4006550D01*
X-34153041Y4006552D01*
X-34154733Y4010903D01*
X-34157051Y4014959D01*
X-34282405Y4234284D01*
X-34282407Y4234286D01*
X-34284724Y4238341D01*
X-34446905Y4444067D01*
X-34637713Y4623560D01*
X-34667396Y4644152D01*
X-34849113Y4770215D01*
X-34849116Y4770217D01*
X-34852955Y4772880D01*
X-34857145Y4774946D01*
X-34857148Y4774948D01*
X-35083717Y4886679D01*
X-35083720Y4886680D01*
X-35087905Y4888744D01*
X-35134168Y4903553D01*
X-35204281Y4925996D01*
X-35337399Y4968607D01*
X-35342006Y4969357D01*
X-35342009Y4969358D01*
X-35591346Y5009965D01*
X-35591345Y5009965D01*
X-35595957Y5010716D01*
X-35723142Y5012381D01*
X-35853223Y5014084D01*
X-35853226Y5014084D01*
X-35857900Y5014145D01*
X-36117472Y4978819D01*
X-36121958Y4977511D01*
X-36121960Y4977511D01*
X-36152508Y4968607D01*
X-36368971Y4905514D01*
X-36606873Y4795840D01*
X-36641893Y4772880D01*
X-36822038Y4654772D01*
X-36822043Y4654768D01*
X-36825951Y4652206D01*
X-37021391Y4477768D01*
X-37188902Y4276359D01*
X-37324802Y4052402D01*
X-37326611Y4048088D01*
X-37326612Y4048086D01*
X-37359940Y3968607D01*
X-37426107Y3810818D01*
X-37427258Y3806286D01*
X-37427259Y3806283D01*
X-37474055Y3622022D01*
X-37490591Y3556913D01*
X-37516836Y3296266D01*
X-38740978Y3296266D01*
X-38755572Y3481699D01*
X-38757115Y3491446D01*
X-38810217Y3712627D01*
X-38813266Y3722012D01*
X-38900313Y3932163D01*
X-38904795Y3940958D01*
X-39007432Y4108445D01*
X-39017890Y4117907D01*
X-39026666Y4114124D01*
X-39877978Y3262812D01*
X-39885592Y3248868D01*
X-40615644Y3248868D01*
X-40614408Y3251132D01*
X-40614539Y3252965D01*
X-40618790Y3259580D01*
X-41470290Y4111080D01*
X-41482670Y4117840D01*
X-41490320Y4112113D01*
X-41595205Y3940958D01*
X-41599687Y3932163D01*
X-41686734Y3722012D01*
X-41689783Y3712627D01*
X-41742885Y3491446D01*
X-41744428Y3481699D01*
X-41762275Y3254930D01*
X-41762275Y3245070D01*
X-42237500Y3245070D01*
X-42237500Y4482110D01*
X-41117907Y4482110D01*
X-41114124Y4473334D01*
X-40262812Y3622022D01*
X-40248868Y3614408D01*
X-40247035Y3614539D01*
X-40240420Y3618790D01*
X-39388920Y4470290D01*
X-39382160Y4482670D01*
X-39387887Y4490320D01*
X-39559042Y4595205D01*
X-39567837Y4599687D01*
X-39777988Y4686734D01*
X-39787373Y4689783D01*
X-40008554Y4742885D01*
X-40018301Y4744428D01*
X-40245070Y4762275D01*
X-40254930Y4762275D01*
X-40481699Y4744428D01*
X-40491446Y4742885D01*
X-40712627Y4689783D01*
X-40722012Y4686734D01*
X-40932163Y4599687D01*
X-40940958Y4595205D01*
X-41108445Y4492568D01*
X-41117907Y4482110D01*
X-42237500Y4482110D01*
X-42237500Y7620000D01*
X-40837332Y7620000D01*
X-40818036Y7374815D01*
X-40760621Y7135668D01*
X-40758731Y7131105D01*
X-40758729Y7131099D01*
X-40668398Y6913020D01*
X-40666503Y6908446D01*
X-40537998Y6698745D01*
X-40477767Y6628224D01*
X-40385151Y6519785D01*
X-40378271Y6511729D01*
X-40191255Y6352002D01*
X-39981554Y6223497D01*
X-39976984Y6221604D01*
X-39976980Y6221602D01*
X-39758901Y6131271D01*
X-39758895Y6131269D01*
X-39754332Y6129379D01*
X-39749532Y6128227D01*
X-39749527Y6128225D01*
X-39640134Y6101962D01*
X-39515185Y6071964D01*
X-39270000Y6052668D01*
X-39024815Y6071964D01*
X-38899866Y6101962D01*
X-38790473Y6128225D01*
X-38790468Y6128227D01*
X-38785668Y6129379D01*
X-38781105Y6131269D01*
X-38781099Y6131271D01*
X-38563020Y6221602D01*
X-38563016Y6221604D01*
X-38558446Y6223497D01*
X-38348745Y6352002D01*
X-38161729Y6511729D01*
X-38154848Y6519785D01*
X-38142760Y6533938D01*
X-37451507Y6533938D01*
X-37442211Y6521923D01*
X-37391006Y6486069D01*
X-37381511Y6480586D01*
X-37184053Y6388510D01*
X-37173761Y6384764D01*
X-36963312Y6328375D01*
X-36952519Y6326472D01*
X-36735475Y6307483D01*
X-36724525Y6307483D01*
X-36507481Y6326472D01*
X-36496688Y6328375D01*
X-36286239Y6384764D01*
X-36275947Y6388510D01*
X-36078489Y6480586D01*
X-36068994Y6486069D01*
X-36016952Y6522509D01*
X-36008576Y6532988D01*
X-36015644Y6546434D01*
X-36717188Y7247978D01*
X-36731132Y7255592D01*
X-36732965Y7255461D01*
X-36739580Y7251210D01*
X-37445077Y6545713D01*
X-37451507Y6533938D01*
X-38142760Y6533938D01*
X-38062233Y6628224D01*
X-38002002Y6698745D01*
X-37918055Y6835734D01*
X-37865407Y6883365D01*
X-37836235Y6888473D01*
X-37803565Y6905645D01*
X-37102022Y7607188D01*
X-37095644Y7618868D01*
X-36365592Y7618868D01*
X-36365461Y7617035D01*
X-36361210Y7610420D01*
X-35655713Y6904923D01*
X-35626885Y6889181D01*
X-35589314Y6881009D01*
X-35542265Y6836256D01*
X-35457998Y6698745D01*
X-35397767Y6628224D01*
X-35305151Y6519785D01*
X-35298271Y6511729D01*
X-35111255Y6352002D01*
X-34901554Y6223497D01*
X-34896984Y6221604D01*
X-34896980Y6221602D01*
X-34678901Y6131271D01*
X-34678895Y6131269D01*
X-34674332Y6129379D01*
X-34669532Y6128227D01*
X-34669527Y6128225D01*
X-34560134Y6101962D01*
X-34435185Y6071964D01*
X-34190000Y6052668D01*
X-33944815Y6071964D01*
X-33819866Y6101962D01*
X-33710473Y6128225D01*
X-33710468Y6128227D01*
X-33705668Y6129379D01*
X-33701105Y6131269D01*
X-33701099Y6131271D01*
X-33483020Y6221602D01*
X-33483016Y6221604D01*
X-33478446Y6223497D01*
X-33268745Y6352002D01*
X-33081729Y6511729D01*
X-33078521Y6515485D01*
X-33078516Y6515490D01*
X-33015811Y6588908D01*
X-32956361Y6627718D01*
X-32885366Y6628224D01*
X-32824189Y6588908D01*
X-32761484Y6515490D01*
X-32761479Y6515485D01*
X-32758271Y6511729D01*
X-32571255Y6352002D01*
X-32361554Y6223497D01*
X-32356984Y6221604D01*
X-32356980Y6221602D01*
X-32138901Y6131271D01*
X-32138895Y6131269D01*
X-32134332Y6129379D01*
X-32129532Y6128227D01*
X-32129527Y6128225D01*
X-32020134Y6101962D01*
X-31895185Y6071964D01*
X-31650000Y6052668D01*
X-31404815Y6071964D01*
X-31279866Y6101962D01*
X-31170473Y6128225D01*
X-31170468Y6128227D01*
X-31165668Y6129379D01*
X-31161105Y6131269D01*
X-31161099Y6131271D01*
X-30943020Y6221602D01*
X-30943016Y6221604D01*
X-30938446Y6223497D01*
X-30728745Y6352002D01*
X-30541729Y6511729D01*
X-30538521Y6515485D01*
X-30538516Y6515490D01*
X-30475811Y6588908D01*
X-30416361Y6627718D01*
X-30345366Y6628224D01*
X-30284189Y6588908D01*
X-30221484Y6515490D01*
X-30221479Y6515485D01*
X-30218271Y6511729D01*
X-30031255Y6352002D01*
X-29821554Y6223497D01*
X-29816984Y6221604D01*
X-29816980Y6221602D01*
X-29598901Y6131271D01*
X-29598895Y6131269D01*
X-29594332Y6129379D01*
X-29589532Y6128227D01*
X-29589527Y6128225D01*
X-29480134Y6101962D01*
X-29355185Y6071964D01*
X-29110000Y6052668D01*
X-28864815Y6071964D01*
X-28739866Y6101962D01*
X-28630473Y6128225D01*
X-28630468Y6128227D01*
X-28625668Y6129379D01*
X-28621105Y6131269D01*
X-28621099Y6131271D01*
X-28403020Y6221602D01*
X-28403016Y6221604D01*
X-28398446Y6223497D01*
X-28188745Y6352002D01*
X-28001729Y6511729D01*
X-27998521Y6515485D01*
X-27998516Y6515490D01*
X-27935811Y6588908D01*
X-27876361Y6627718D01*
X-27805366Y6628224D01*
X-27744189Y6588908D01*
X-27681484Y6515490D01*
X-27681479Y6515485D01*
X-27678271Y6511729D01*
X-27491255Y6352002D01*
X-27281554Y6223497D01*
X-27276984Y6221604D01*
X-27276980Y6221602D01*
X-27058901Y6131271D01*
X-27058895Y6131269D01*
X-27054332Y6129379D01*
X-27049532Y6128227D01*
X-27049527Y6128225D01*
X-26940134Y6101962D01*
X-26815185Y6071964D01*
X-26570000Y6052668D01*
X-26324815Y6071964D01*
X-26199866Y6101962D01*
X-26090473Y6128225D01*
X-26090468Y6128227D01*
X-26085668Y6129379D01*
X-26081105Y6131269D01*
X-26081099Y6131271D01*
X-25863020Y6221602D01*
X-25863016Y6221604D01*
X-25858446Y6223497D01*
X-25648745Y6352002D01*
X-25461729Y6511729D01*
X-25458521Y6515485D01*
X-25458516Y6515490D01*
X-25395811Y6588908D01*
X-25336361Y6627718D01*
X-25265366Y6628224D01*
X-25204189Y6588908D01*
X-25141484Y6515490D01*
X-25141479Y6515485D01*
X-25138271Y6511729D01*
X-24951255Y6352002D01*
X-24741554Y6223497D01*
X-24736984Y6221604D01*
X-24736980Y6221602D01*
X-24518901Y6131271D01*
X-24518895Y6131269D01*
X-24514332Y6129379D01*
X-24509532Y6128227D01*
X-24509527Y6128225D01*
X-24400134Y6101962D01*
X-24275185Y6071964D01*
X-24030000Y6052668D01*
X-23784815Y6071964D01*
X-23659866Y6101962D01*
X-23550473Y6128225D01*
X-23550468Y6128227D01*
X-23545668Y6129379D01*
X-23541105Y6131269D01*
X-23541099Y6131271D01*
X-23323020Y6221602D01*
X-23323016Y6221604D01*
X-23318446Y6223497D01*
X-23108745Y6352002D01*
X-22921729Y6511729D01*
X-22918521Y6515485D01*
X-22918516Y6515490D01*
X-22855811Y6588908D01*
X-22796361Y6627718D01*
X-22725366Y6628224D01*
X-22664189Y6588908D01*
X-22601484Y6515490D01*
X-22601479Y6515485D01*
X-22598271Y6511729D01*
X-22411255Y6352002D01*
X-22201554Y6223497D01*
X-22196984Y6221604D01*
X-22196980Y6221602D01*
X-21978901Y6131271D01*
X-21978895Y6131269D01*
X-21974332Y6129379D01*
X-21969532Y6128227D01*
X-21969527Y6128225D01*
X-21860134Y6101962D01*
X-21735185Y6071964D01*
X-21490000Y6052668D01*
X-21244815Y6071964D01*
X-21119866Y6101962D01*
X-21010473Y6128225D01*
X-21010468Y6128227D01*
X-21005668Y6129379D01*
X-21001105Y6131269D01*
X-21001099Y6131271D01*
X-20783020Y6221602D01*
X-20783016Y6221604D01*
X-20778446Y6223497D01*
X-20568745Y6352002D01*
X-20381729Y6511729D01*
X-20378521Y6515485D01*
X-20378516Y6515490D01*
X-20315811Y6588908D01*
X-20256361Y6627718D01*
X-20185366Y6628224D01*
X-20124189Y6588908D01*
X-20061484Y6515490D01*
X-20061479Y6515485D01*
X-20058271Y6511729D01*
X-19871255Y6352002D01*
X-19661554Y6223497D01*
X-19656984Y6221604D01*
X-19656980Y6221602D01*
X-19438901Y6131271D01*
X-19438895Y6131269D01*
X-19434332Y6129379D01*
X-19429532Y6128227D01*
X-19429527Y6128225D01*
X-19320134Y6101962D01*
X-19195185Y6071964D01*
X-18950000Y6052668D01*
X-18704815Y6071964D01*
X-18579866Y6101962D01*
X-18470473Y6128225D01*
X-18470468Y6128227D01*
X-18465668Y6129379D01*
X-18461105Y6131269D01*
X-18461099Y6131271D01*
X-18243020Y6221602D01*
X-18243016Y6221604D01*
X-18238446Y6223497D01*
X-18028745Y6352002D01*
X-17841729Y6511729D01*
X-17838521Y6515485D01*
X-17838516Y6515490D01*
X-17775811Y6588908D01*
X-17716361Y6627718D01*
X-17645366Y6628224D01*
X-17584189Y6588908D01*
X-17521484Y6515490D01*
X-17521479Y6515485D01*
X-17518271Y6511729D01*
X-17331255Y6352002D01*
X-17121554Y6223497D01*
X-17116984Y6221604D01*
X-17116980Y6221602D01*
X-16898901Y6131271D01*
X-16898895Y6131269D01*
X-16894332Y6129379D01*
X-16889532Y6128227D01*
X-16889527Y6128225D01*
X-16780134Y6101962D01*
X-16655185Y6071964D01*
X-16410000Y6052668D01*
X-16164815Y6071964D01*
X-16039866Y6101962D01*
X-15930473Y6128225D01*
X-15930468Y6128227D01*
X-15925668Y6129379D01*
X-15921105Y6131269D01*
X-15921099Y6131271D01*
X-15703020Y6221602D01*
X-15703016Y6221604D01*
X-15698446Y6223497D01*
X-15488745Y6352002D01*
X-15301729Y6511729D01*
X-15298521Y6515485D01*
X-15298516Y6515490D01*
X-15235811Y6588908D01*
X-15176361Y6627718D01*
X-15105366Y6628224D01*
X-15044189Y6588908D01*
X-14981484Y6515490D01*
X-14981479Y6515485D01*
X-14978271Y6511729D01*
X-14791255Y6352002D01*
X-14581554Y6223497D01*
X-14576984Y6221604D01*
X-14576980Y6221602D01*
X-14358901Y6131271D01*
X-14358895Y6131269D01*
X-14354332Y6129379D01*
X-14349532Y6128227D01*
X-14349527Y6128225D01*
X-14240134Y6101962D01*
X-14115185Y6071964D01*
X-13870000Y6052668D01*
X-13624815Y6071964D01*
X-13499866Y6101962D01*
X-13390473Y6128225D01*
X-13390468Y6128227D01*
X-13385668Y6129379D01*
X-13381105Y6131269D01*
X-13381099Y6131271D01*
X-13163020Y6221602D01*
X-13163016Y6221604D01*
X-13158446Y6223497D01*
X-12948745Y6352002D01*
X-12761729Y6511729D01*
X-12758521Y6515485D01*
X-12758516Y6515490D01*
X-12695811Y6588908D01*
X-12636361Y6627718D01*
X-12565366Y6628224D01*
X-12504189Y6588908D01*
X-12441484Y6515490D01*
X-12441479Y6515485D01*
X-12438271Y6511729D01*
X-12251255Y6352002D01*
X-12041554Y6223497D01*
X-12036984Y6221604D01*
X-12036980Y6221602D01*
X-11818901Y6131271D01*
X-11818895Y6131269D01*
X-11814332Y6129379D01*
X-11809532Y6128227D01*
X-11809527Y6128225D01*
X-11700134Y6101962D01*
X-11575185Y6071964D01*
X-11330000Y6052668D01*
X-11084815Y6071964D01*
X-10959866Y6101962D01*
X-10850473Y6128225D01*
X-10850468Y6128227D01*
X-10845668Y6129379D01*
X-10841105Y6131269D01*
X-10841099Y6131271D01*
X-10623020Y6221602D01*
X-10623016Y6221604D01*
X-10618446Y6223497D01*
X-10408745Y6352002D01*
X-10221729Y6511729D01*
X-10214848Y6519785D01*
X-10189611Y6549334D01*
X-2937500Y6549334D01*
X-2937163Y6546088D01*
X-2937163Y6546084D01*
X-2933265Y6508521D01*
X-2926468Y6443010D01*
X-2924287Y6436474D01*
X-2924287Y6436472D01*
X-2896105Y6352002D01*
X-2870197Y6274346D01*
X-2866341Y6268115D01*
X-2781659Y6131271D01*
X-2776634Y6123150D01*
X-2650799Y5997534D01*
X-2499440Y5904236D01*
X-2492492Y5901931D01*
X-2492491Y5901931D01*
X-2337209Y5850425D01*
X-2337207Y5850424D01*
X-2330678Y5848259D01*
X-2225666Y5837500D01*
X-324334Y5837500D01*
X-321088Y5837837D01*
X-321084Y5837837D01*
X-224868Y5847820D01*
X-224864Y5847821D01*
X-218010Y5848532D01*
X-211474Y5850713D01*
X-211472Y5850713D01*
X-79723Y5894668D01*
X-49346Y5904803D01*
X101850Y5998366D01*
X120159Y6016707D01*
X195488Y6092167D01*
X257771Y6126246D01*
X328591Y6121243D01*
X350496Y6110582D01*
X445004Y6052668D01*
X507907Y6014121D01*
X512477Y6012228D01*
X512481Y6012226D01*
X745098Y5915873D01*
X749671Y5913979D01*
X839034Y5892525D01*
X999310Y5854045D01*
X999316Y5854044D01*
X1004123Y5852890D01*
X1265000Y5832359D01*
X1525877Y5852890D01*
X1530684Y5854044D01*
X1530690Y5854045D01*
X1690966Y5892525D01*
X1780329Y5913979D01*
X1784902Y5915873D01*
X2017519Y6012226D01*
X2017523Y6012228D01*
X2022093Y6014121D01*
X2245215Y6150850D01*
X2444200Y6320800D01*
X2614150Y6519785D01*
X2632258Y6549334D01*
X12062500Y6549334D01*
X12062837Y6546088D01*
X12062837Y6546084D01*
X12066735Y6508521D01*
X12073532Y6443010D01*
X12075713Y6436474D01*
X12075713Y6436472D01*
X12103895Y6352002D01*
X12129803Y6274346D01*
X12133659Y6268115D01*
X12218341Y6131271D01*
X12223366Y6123150D01*
X12349201Y5997534D01*
X12500560Y5904236D01*
X12507508Y5901931D01*
X12507509Y5901931D01*
X12662791Y5850425D01*
X12662793Y5850424D01*
X12669322Y5848259D01*
X12774334Y5837500D01*
X14675666Y5837500D01*
X14678912Y5837837D01*
X14678916Y5837837D01*
X14775132Y5847820D01*
X14775136Y5847821D01*
X14781990Y5848532D01*
X14788526Y5850713D01*
X14788528Y5850713D01*
X14920277Y5894668D01*
X14950654Y5904803D01*
X15101850Y5998366D01*
X15120159Y6016707D01*
X15195488Y6092167D01*
X15257771Y6126246D01*
X15328591Y6121243D01*
X15350496Y6110582D01*
X15445004Y6052668D01*
X15507907Y6014121D01*
X15512477Y6012228D01*
X15512481Y6012226D01*
X15745098Y5915873D01*
X15749671Y5913979D01*
X15839034Y5892525D01*
X15999310Y5854045D01*
X15999316Y5854044D01*
X16004123Y5852890D01*
X16265000Y5832359D01*
X16525877Y5852890D01*
X16530684Y5854044D01*
X16530690Y5854045D01*
X16690966Y5892525D01*
X16780329Y5913979D01*
X16784902Y5915873D01*
X17017519Y6012226D01*
X17017523Y6012228D01*
X17022093Y6014121D01*
X17245215Y6150850D01*
X17444200Y6320800D01*
X17614150Y6519785D01*
X17750879Y6742907D01*
X17789330Y6835734D01*
X17849127Y6980098D01*
X17849128Y6980100D01*
X17851021Y6984671D01*
X17886176Y7131099D01*
X17910955Y7234310D01*
X17910956Y7234316D01*
X17912110Y7239123D01*
X17932641Y7500000D01*
X17912110Y7760877D01*
X17910956Y7765684D01*
X17910955Y7765690D01*
X17872475Y7925966D01*
X17851021Y8015329D01*
X17750879Y8257093D01*
X17614150Y8480215D01*
X17444200Y8679200D01*
X17245215Y8849150D01*
X17022093Y8985879D01*
X17017523Y8987772D01*
X17017519Y8987774D01*
X16784902Y9084127D01*
X16784900Y9084128D01*
X16780329Y9086021D01*
X16685744Y9108729D01*
X16530690Y9145955D01*
X16530684Y9145956D01*
X16525877Y9147110D01*
X16265000Y9167641D01*
X16004123Y9147110D01*
X15999316Y9145956D01*
X15999310Y9145955D01*
X15844256Y9108729D01*
X15749671Y9086021D01*
X15745100Y9084128D01*
X15745098Y9084127D01*
X15512481Y8987774D01*
X15512477Y8987772D01*
X15507907Y8985879D01*
X15350563Y8889459D01*
X15282030Y8870921D01*
X15214354Y8892377D01*
X15195711Y8907719D01*
X15105977Y8997297D01*
X15100799Y9002466D01*
X14949440Y9095764D01*
X14910353Y9108729D01*
X14787209Y9149575D01*
X14787207Y9149576D01*
X14780678Y9151741D01*
X14675666Y9162500D01*
X12774334Y9162500D01*
X12771088Y9162163D01*
X12771084Y9162163D01*
X12674868Y9152180D01*
X12674864Y9152179D01*
X12668010Y9151468D01*
X12661474Y9149287D01*
X12661472Y9149287D01*
X12549036Y9111775D01*
X12499346Y9095197D01*
X12348150Y9001634D01*
X12222534Y8875799D01*
X12218694Y8869569D01*
X12218693Y8869568D01*
X12204128Y8845939D01*
X12129236Y8724440D01*
X12073259Y8555678D01*
X12062500Y8450666D01*
X12062500Y6549334D01*
X2632258Y6549334D01*
X2750879Y6742907D01*
X2789330Y6835734D01*
X2849127Y6980098D01*
X2849128Y6980100D01*
X2851021Y6984671D01*
X2886176Y7131099D01*
X2910955Y7234310D01*
X2910956Y7234316D01*
X2912110Y7239123D01*
X2932641Y7500000D01*
X2912110Y7760877D01*
X2910956Y7765684D01*
X2910955Y7765690D01*
X2872475Y7925966D01*
X2851021Y8015329D01*
X2750879Y8257093D01*
X2614150Y8480215D01*
X2444200Y8679200D01*
X2245215Y8849150D01*
X2022093Y8985879D01*
X2017523Y8987772D01*
X2017519Y8987774D01*
X1784902Y9084127D01*
X1784900Y9084128D01*
X1780329Y9086021D01*
X1685744Y9108729D01*
X1530690Y9145955D01*
X1530684Y9145956D01*
X1525877Y9147110D01*
X1265000Y9167641D01*
X1004123Y9147110D01*
X999316Y9145956D01*
X999310Y9145955D01*
X844256Y9108729D01*
X749671Y9086021D01*
X745100Y9084128D01*
X745098Y9084127D01*
X512481Y8987774D01*
X512477Y8987772D01*
X507907Y8985879D01*
X350563Y8889459D01*
X282030Y8870921D01*
X214354Y8892377D01*
X195711Y8907719D01*
X105977Y8997297D01*
X100799Y9002466D01*
X-50560Y9095764D01*
X-89647Y9108729D01*
X-212791Y9149575D01*
X-212793Y9149576D01*
X-219322Y9151741D01*
X-324334Y9162500D01*
X-2225666Y9162500D01*
X-2228912Y9162163D01*
X-2228916Y9162163D01*
X-2325132Y9152180D01*
X-2325136Y9152179D01*
X-2331990Y9151468D01*
X-2338526Y9149287D01*
X-2338528Y9149287D01*
X-2450964Y9111775D01*
X-2500654Y9095197D01*
X-2651850Y9001634D01*
X-2777466Y8875799D01*
X-2781306Y8869569D01*
X-2781307Y8869568D01*
X-2795872Y8845939D01*
X-2870764Y8724440D01*
X-2926741Y8555678D01*
X-2937500Y8450666D01*
X-2937500Y6549334D01*
X-10189611Y6549334D01*
X-10122233Y6628224D01*
X-10062002Y6698745D01*
X-9933497Y6908446D01*
X-9931602Y6913020D01*
X-9841271Y7131099D01*
X-9841269Y7131105D01*
X-9839379Y7135668D01*
X-9781964Y7374815D01*
X-9762668Y7620000D01*
X-9781964Y7865185D01*
X-9839379Y8104332D01*
X-9841269Y8108895D01*
X-9841271Y8108901D01*
X-9931602Y8326980D01*
X-9931604Y8326984D01*
X-9933497Y8331554D01*
X-10062002Y8541255D01*
X-10221729Y8728271D01*
X-10408745Y8887998D01*
X-10618446Y9016503D01*
X-10623016Y9018396D01*
X-10623020Y9018398D01*
X-10841099Y9108729D01*
X-10841105Y9108731D01*
X-10845668Y9110621D01*
X-10850468Y9111773D01*
X-10850473Y9111775D01*
X-10959866Y9138038D01*
X-11084815Y9168036D01*
X-11330000Y9187332D01*
X-11575185Y9168036D01*
X-11700134Y9138038D01*
X-11809527Y9111775D01*
X-11809532Y9111773D01*
X-11814332Y9110621D01*
X-11818895Y9108731D01*
X-11818901Y9108729D01*
X-12036980Y9018398D01*
X-12036984Y9018396D01*
X-12041554Y9016503D01*
X-12251255Y8887998D01*
X-12438271Y8728271D01*
X-12441479Y8724515D01*
X-12441484Y8724510D01*
X-12504189Y8651092D01*
X-12563639Y8612282D01*
X-12634634Y8611776D01*
X-12695811Y8651092D01*
X-12758516Y8724510D01*
X-12758521Y8724515D01*
X-12761729Y8728271D01*
X-12948745Y8887998D01*
X-13158446Y9016503D01*
X-13163016Y9018396D01*
X-13163020Y9018398D01*
X-13381099Y9108729D01*
X-13381105Y9108731D01*
X-13385668Y9110621D01*
X-13390468Y9111773D01*
X-13390473Y9111775D01*
X-13499866Y9138038D01*
X-13624815Y9168036D01*
X-13870000Y9187332D01*
X-14115185Y9168036D01*
X-14240134Y9138038D01*
X-14349527Y9111775D01*
X-14349532Y9111773D01*
X-14354332Y9110621D01*
X-14358895Y9108731D01*
X-14358901Y9108729D01*
X-14576980Y9018398D01*
X-14576984Y9018396D01*
X-14581554Y9016503D01*
X-14791255Y8887998D01*
X-14978271Y8728271D01*
X-14981479Y8724515D01*
X-14981484Y8724510D01*
X-15044189Y8651092D01*
X-15103639Y8612282D01*
X-15174634Y8611776D01*
X-15235811Y8651092D01*
X-15298516Y8724510D01*
X-15298521Y8724515D01*
X-15301729Y8728271D01*
X-15488745Y8887998D01*
X-15698446Y9016503D01*
X-15703016Y9018396D01*
X-15703020Y9018398D01*
X-15921099Y9108729D01*
X-15921105Y9108731D01*
X-15925668Y9110621D01*
X-15930468Y9111773D01*
X-15930473Y9111775D01*
X-16039866Y9138038D01*
X-16164815Y9168036D01*
X-16410000Y9187332D01*
X-16655185Y9168036D01*
X-16780134Y9138038D01*
X-16889527Y9111775D01*
X-16889532Y9111773D01*
X-16894332Y9110621D01*
X-16898895Y9108731D01*
X-16898901Y9108729D01*
X-17116980Y9018398D01*
X-17116984Y9018396D01*
X-17121554Y9016503D01*
X-17331255Y8887998D01*
X-17518271Y8728271D01*
X-17521479Y8724515D01*
X-17521484Y8724510D01*
X-17584189Y8651092D01*
X-17643639Y8612282D01*
X-17714634Y8611776D01*
X-17775811Y8651092D01*
X-17838516Y8724510D01*
X-17838521Y8724515D01*
X-17841729Y8728271D01*
X-18028745Y8887998D01*
X-18238446Y9016503D01*
X-18243016Y9018396D01*
X-18243020Y9018398D01*
X-18461099Y9108729D01*
X-18461105Y9108731D01*
X-18465668Y9110621D01*
X-18470468Y9111773D01*
X-18470473Y9111775D01*
X-18579866Y9138038D01*
X-18704815Y9168036D01*
X-18950000Y9187332D01*
X-19195185Y9168036D01*
X-19320134Y9138038D01*
X-19429527Y9111775D01*
X-19429532Y9111773D01*
X-19434332Y9110621D01*
X-19438895Y9108731D01*
X-19438901Y9108729D01*
X-19656980Y9018398D01*
X-19656984Y9018396D01*
X-19661554Y9016503D01*
X-19871255Y8887998D01*
X-20058271Y8728271D01*
X-20061479Y8724515D01*
X-20061484Y8724510D01*
X-20124189Y8651092D01*
X-20183639Y8612282D01*
X-20254634Y8611776D01*
X-20315811Y8651092D01*
X-20378516Y8724510D01*
X-20378521Y8724515D01*
X-20381729Y8728271D01*
X-20568745Y8887998D01*
X-20778446Y9016503D01*
X-20783016Y9018396D01*
X-20783020Y9018398D01*
X-21001099Y9108729D01*
X-21001105Y9108731D01*
X-21005668Y9110621D01*
X-21010468Y9111773D01*
X-21010473Y9111775D01*
X-21119866Y9138038D01*
X-21244815Y9168036D01*
X-21490000Y9187332D01*
X-21735185Y9168036D01*
X-21860134Y9138038D01*
X-21969527Y9111775D01*
X-21969532Y9111773D01*
X-21974332Y9110621D01*
X-21978895Y9108731D01*
X-21978901Y9108729D01*
X-22196980Y9018398D01*
X-22196984Y9018396D01*
X-22201554Y9016503D01*
X-22411255Y8887998D01*
X-22598271Y8728271D01*
X-22601479Y8724515D01*
X-22601484Y8724510D01*
X-22664189Y8651092D01*
X-22723639Y8612282D01*
X-22794634Y8611776D01*
X-22855811Y8651092D01*
X-22918516Y8724510D01*
X-22918521Y8724515D01*
X-22921729Y8728271D01*
X-23108745Y8887998D01*
X-23318446Y9016503D01*
X-23323016Y9018396D01*
X-23323020Y9018398D01*
X-23541099Y9108729D01*
X-23541105Y9108731D01*
X-23545668Y9110621D01*
X-23550468Y9111773D01*
X-23550473Y9111775D01*
X-23659866Y9138038D01*
X-23784815Y9168036D01*
X-24030000Y9187332D01*
X-24275185Y9168036D01*
X-24400134Y9138038D01*
X-24509527Y9111775D01*
X-24509532Y9111773D01*
X-24514332Y9110621D01*
X-24518895Y9108731D01*
X-24518901Y9108729D01*
X-24736980Y9018398D01*
X-24736984Y9018396D01*
X-24741554Y9016503D01*
X-24951255Y8887998D01*
X-25138271Y8728271D01*
X-25141479Y8724515D01*
X-25141484Y8724510D01*
X-25204189Y8651092D01*
X-25263639Y8612282D01*
X-25334634Y8611776D01*
X-25395811Y8651092D01*
X-25458516Y8724510D01*
X-25458521Y8724515D01*
X-25461729Y8728271D01*
X-25648745Y8887998D01*
X-25858446Y9016503D01*
X-25863016Y9018396D01*
X-25863020Y9018398D01*
X-26081099Y9108729D01*
X-26081105Y9108731D01*
X-26085668Y9110621D01*
X-26090468Y9111773D01*
X-26090473Y9111775D01*
X-26199866Y9138038D01*
X-26324815Y9168036D01*
X-26570000Y9187332D01*
X-26815185Y9168036D01*
X-26940134Y9138038D01*
X-27049527Y9111775D01*
X-27049532Y9111773D01*
X-27054332Y9110621D01*
X-27058895Y9108731D01*
X-27058901Y9108729D01*
X-27276980Y9018398D01*
X-27276984Y9018396D01*
X-27281554Y9016503D01*
X-27491255Y8887998D01*
X-27678271Y8728271D01*
X-27681479Y8724515D01*
X-27681484Y8724510D01*
X-27744189Y8651092D01*
X-27803639Y8612282D01*
X-27874634Y8611776D01*
X-27935811Y8651092D01*
X-27998516Y8724510D01*
X-27998521Y8724515D01*
X-28001729Y8728271D01*
X-28188745Y8887998D01*
X-28398446Y9016503D01*
X-28403016Y9018396D01*
X-28403020Y9018398D01*
X-28621099Y9108729D01*
X-28621105Y9108731D01*
X-28625668Y9110621D01*
X-28630468Y9111773D01*
X-28630473Y9111775D01*
X-28739866Y9138038D01*
X-28864815Y9168036D01*
X-29110000Y9187332D01*
X-29355185Y9168036D01*
X-29480134Y9138038D01*
X-29589527Y9111775D01*
X-29589532Y9111773D01*
X-29594332Y9110621D01*
X-29598895Y9108731D01*
X-29598901Y9108729D01*
X-29816980Y9018398D01*
X-29816984Y9018396D01*
X-29821554Y9016503D01*
X-30031255Y8887998D01*
X-30218271Y8728271D01*
X-30221479Y8724515D01*
X-30221484Y8724510D01*
X-30284189Y8651092D01*
X-30343639Y8612282D01*
X-30414634Y8611776D01*
X-30475811Y8651092D01*
X-30538516Y8724510D01*
X-30538521Y8724515D01*
X-30541729Y8728271D01*
X-30728745Y8887998D01*
X-30938446Y9016503D01*
X-30943016Y9018396D01*
X-30943020Y9018398D01*
X-31161099Y9108729D01*
X-31161105Y9108731D01*
X-31165668Y9110621D01*
X-31170468Y9111773D01*
X-31170473Y9111775D01*
X-31279866Y9138038D01*
X-31404815Y9168036D01*
X-31650000Y9187332D01*
X-31895185Y9168036D01*
X-32020134Y9138038D01*
X-32129527Y9111775D01*
X-32129532Y9111773D01*
X-32134332Y9110621D01*
X-32138895Y9108731D01*
X-32138901Y9108729D01*
X-32356980Y9018398D01*
X-32356984Y9018396D01*
X-32361554Y9016503D01*
X-32571255Y8887998D01*
X-32758271Y8728271D01*
X-32761479Y8724515D01*
X-32761484Y8724510D01*
X-32824189Y8651092D01*
X-32883639Y8612282D01*
X-32954634Y8611776D01*
X-33015811Y8651092D01*
X-33078516Y8724510D01*
X-33078521Y8724515D01*
X-33081729Y8728271D01*
X-33268745Y8887998D01*
X-33478446Y9016503D01*
X-33483016Y9018396D01*
X-33483020Y9018398D01*
X-33701099Y9108729D01*
X-33701105Y9108731D01*
X-33705668Y9110621D01*
X-33710468Y9111773D01*
X-33710473Y9111775D01*
X-33819866Y9138038D01*
X-33944815Y9168036D01*
X-34190000Y9187332D01*
X-34435185Y9168036D01*
X-34560134Y9138038D01*
X-34669527Y9111775D01*
X-34669532Y9111773D01*
X-34674332Y9110621D01*
X-34678895Y9108731D01*
X-34678901Y9108729D01*
X-34896980Y9018398D01*
X-34896984Y9018396D01*
X-34901554Y9016503D01*
X-35111255Y8887998D01*
X-35298271Y8728271D01*
X-35457998Y8541255D01*
X-35460580Y8537041D01*
X-35541945Y8404266D01*
X-35594593Y8356635D01*
X-35623765Y8351527D01*
X-35656435Y8334355D01*
X-36357978Y7632812D01*
X-36365592Y7618868D01*
X-37095644Y7618868D01*
X-37094408Y7621132D01*
X-37094539Y7622965D01*
X-37098790Y7629580D01*
X-37804287Y8335077D01*
X-37833115Y8350819D01*
X-37870686Y8358991D01*
X-37917736Y8403745D01*
X-37946489Y8450666D01*
X-38002002Y8541255D01*
X-38143572Y8707012D01*
X-37451424Y8707012D01*
X-37444356Y8693566D01*
X-36742812Y7992022D01*
X-36728868Y7984408D01*
X-36727035Y7984539D01*
X-36720420Y7988790D01*
X-36014923Y8694287D01*
X-36008493Y8706062D01*
X-36017789Y8718077D01*
X-36068994Y8753931D01*
X-36078489Y8759414D01*
X-36275947Y8851490D01*
X-36286239Y8855236D01*
X-36496688Y8911625D01*
X-36507481Y8913528D01*
X-36724525Y8932517D01*
X-36735475Y8932517D01*
X-36952519Y8913528D01*
X-36963312Y8911625D01*
X-37173761Y8855236D01*
X-37184053Y8851490D01*
X-37381511Y8759414D01*
X-37391006Y8753931D01*
X-37443048Y8717491D01*
X-37451424Y8707012D01*
X-38143572Y8707012D01*
X-38161729Y8728271D01*
X-38348745Y8887998D01*
X-38558446Y9016503D01*
X-38563016Y9018396D01*
X-38563020Y9018398D01*
X-38781099Y9108729D01*
X-38781105Y9108731D01*
X-38785668Y9110621D01*
X-38790468Y9111773D01*
X-38790473Y9111775D01*
X-38899866Y9138038D01*
X-39024815Y9168036D01*
X-39270000Y9187332D01*
X-39515185Y9168036D01*
X-39640134Y9138038D01*
X-39749527Y9111775D01*
X-39749532Y9111773D01*
X-39754332Y9110621D01*
X-39758895Y9108731D01*
X-39758901Y9108729D01*
X-39976980Y9018398D01*
X-39976984Y9018396D01*
X-39981554Y9016503D01*
X-40191255Y8887998D01*
X-40378271Y8728271D01*
X-40537998Y8541255D01*
X-40666503Y8331554D01*
X-40668396Y8326984D01*
X-40668398Y8326980D01*
X-40758729Y8108901D01*
X-40758731Y8108895D01*
X-40760621Y8104332D01*
X-40818036Y7865185D01*
X-40837332Y7620000D01*
X-42237500Y7620000D01*
X-42237500Y11937558D01*
X-42236274Y11955094D01*
X-42233525Y11974652D01*
X-42233525Y11974657D01*
X-42232974Y11978575D01*
X-42232675Y12000000D01*
X-42233137Y12004119D01*
X-42234598Y12017148D01*
X-42235153Y12038800D01*
X-42221646Y12262094D01*
X-42219812Y12277198D01*
X-42173856Y12527971D01*
X-42170215Y12542744D01*
X-42149654Y12608727D01*
X-42094364Y12786159D01*
X-42088970Y12800381D01*
X-42043183Y12902114D01*
X-41984336Y13032868D01*
X-41977266Y13046339D01*
X-41845367Y13264525D01*
X-41836724Y13277046D01*
X-41679493Y13477738D01*
X-41669403Y13489127D01*
X-41489127Y13669403D01*
X-41477738Y13679493D01*
X-41277046Y13836724D01*
X-41264525Y13845367D01*
X-41046339Y13977266D01*
X-41032866Y13984337D01*
X-40800377Y14088972D01*
X-40786159Y14094364D01*
X-40542744Y14170215D01*
X-40527971Y14173856D01*
X-40277198Y14219812D01*
X-40262094Y14221646D01*
X-40044406Y14234814D01*
X-40021013Y14234051D01*
X-40010714Y14232750D01*
X-39968398Y14236899D01*
X-39956104Y14237500D01*
X-36319098Y14237500D01*
X-36250977Y14217498D01*
G37*
%TD.AperFunction*%
%TD*%
M02*
