%TF.GenerationSoftware,KiCad,Pcbnew,(6.0.7)*%
%TF.CreationDate,2023-03-06T12:08:33-08:00*%
%TF.ProjectId,Foot Pedal PCB,466f6f74-2050-4656-9461-6c205043422e,A1*%
%TF.SameCoordinates,PX8917370PY68e7780*%
%TF.FileFunction,Copper,L1,Top*%
%TF.FilePolarity,Positive*%
%FSLAX46Y46*%
G04 Gerber Fmt 4.6, Leading zero omitted, Abs format (unit mm)*
G04 Created by KiCad (PCBNEW (6.0.7)) date 2023-03-06 12:08:33*
%MOMM*%
%LPD*%
G01*
G04 APERTURE LIST*
%TA.AperFunction,Profile*%
%ADD10C,0.200000*%
%TD*%
%TA.AperFunction,ComponentPad*%
%ADD11R,1.600000X1.600000*%
%TD*%
%TA.AperFunction,ComponentPad*%
%ADD12C,1.600000*%
%TD*%
%TA.AperFunction,ComponentPad*%
%ADD13R,1.350000X1.350000*%
%TD*%
%TA.AperFunction,ComponentPad*%
%ADD14O,1.350000X1.350000*%
%TD*%
%TA.AperFunction,ComponentPad*%
%ADD15R,1.800000X1.800000*%
%TD*%
%TA.AperFunction,ComponentPad*%
%ADD16C,1.800000*%
%TD*%
%TA.AperFunction,ComponentPad*%
%ADD17C,2.000000*%
%TD*%
%TA.AperFunction,ViaPad*%
%ADD18C,4.000000*%
%TD*%
G04 APERTURE END LIST*
D10*
X29500000Y-4000000D02*
G75*
G03*
X29500000Y-4000000I-1500000J0D01*
G01*
X-43000000Y12000000D02*
X-43000000Y9000000D01*
X43000000Y-9000000D02*
X43000000Y-12000000D01*
X40000000Y15000000D02*
X-40000000Y15000000D01*
X43000000Y12000000D02*
G75*
G03*
X40000000Y15000000I-3000000J0D01*
G01*
X-43000000Y-12000000D02*
G75*
G03*
X-40000000Y-15000000I3000000J0D01*
G01*
X43000000Y9000000D02*
X43000000Y-9000000D01*
X43000000Y9000000D02*
X43000000Y12000000D01*
X40000000Y-15000000D02*
X-40000000Y-15000000D01*
X29500000Y4000000D02*
G75*
G03*
X29500000Y4000000I-1500000J0D01*
G01*
X-43000000Y-12000000D02*
X-43000000Y-9000000D01*
X37000000Y4000000D02*
G75*
G03*
X37000000Y4000000I-1500000J0D01*
G01*
X-40000000Y15000000D02*
G75*
G03*
X-43000000Y12000000I0J-3000000D01*
G01*
X36999997Y-4000000D02*
G75*
G03*
X36999997Y-4000000I-1500000J0D01*
G01*
X-43000000Y-9000000D02*
X-43000000Y9000000D01*
X40000000Y-15000000D02*
G75*
G03*
X43000000Y-12000000I0J3000000D01*
G01*
D11*
%TO.P,U1,1,TX*%
%TO.N,unconnected-(U1-Pad1)*%
X-39270000Y-7620000D03*
D12*
%TO.P,U1,2,RX*%
%TO.N,unconnected-(U1-Pad2)*%
X-36730000Y-7620000D03*
%TO.P,U1,3,GND*%
%TO.N,GND*%
X-34190000Y-7620000D03*
%TO.P,U1,4,GND*%
X-31650000Y-7620000D03*
%TO.P,U1,5,SDA*%
%TO.N,unconnected-(U1-Pad5)*%
X-29110000Y-7620000D03*
%TO.P,U1,6,SCL*%
%TO.N,unconnected-(U1-Pad6)*%
X-26570000Y-7620000D03*
%TO.P,U1,7,D4*%
%TO.N,unconnected-(U1-Pad7)*%
X-24030000Y-7620000D03*
%TO.P,U1,8,C6*%
%TO.N,unconnected-(U1-Pad8)*%
X-21490000Y-7620000D03*
%TO.P,U1,9,D7*%
%TO.N,unconnected-(U1-Pad9)*%
X-18950000Y-7620000D03*
%TO.P,U1,10,E6*%
%TO.N,unconnected-(U1-Pad10)*%
X-16410000Y-7620000D03*
%TO.P,U1,11,B4*%
%TO.N,unconnected-(U1-Pad11)*%
X-13870000Y-7620000D03*
%TO.P,U1,12,B5*%
%TO.N,Net-(C1-Pad2)*%
X-11330000Y-7620000D03*
%TO.P,U1,13,B6*%
%TO.N,Net-(J1-Pad3)*%
X-11330000Y7620000D03*
%TO.P,U1,14,B2*%
%TO.N,Net-(SW3-Pad1)*%
X-13870000Y7620000D03*
%TO.P,U1,15,B3*%
%TO.N,Net-(SW2-Pad1)*%
X-16410000Y7620000D03*
%TO.P,U1,16,B1*%
%TO.N,unconnected-(U1-Pad16)*%
X-18950000Y7620000D03*
%TO.P,U1,17,F7*%
%TO.N,unconnected-(U1-Pad17)*%
X-21490000Y7620000D03*
%TO.P,U1,18,F6*%
%TO.N,unconnected-(U1-Pad18)*%
X-24030000Y7620000D03*
%TO.P,U1,19,F5*%
%TO.N,Net-(D2-Pad1)*%
X-26570000Y7620000D03*
%TO.P,U1,20,F4*%
%TO.N,Net-(D1-Pad1)*%
X-29110000Y7620000D03*
%TO.P,U1,21,VCC*%
%TO.N,Net-(R1-Pad1)*%
X-31650000Y7620000D03*
%TO.P,U1,22,RST*%
%TO.N,Net-(SW1-Pad2)*%
X-34190000Y7620000D03*
%TO.P,U1,23,GND*%
%TO.N,GND*%
X-36730000Y7620000D03*
%TO.P,U1,24,RAW*%
%TO.N,unconnected-(U1-Pad24)*%
X-39270000Y7620000D03*
%TD*%
D13*
%TO.P,J1,1,Pin_1*%
%TO.N,unconnected-(J1-Pad1)*%
X25000000Y2000000D03*
D14*
%TO.P,J1,2,Pin_2*%
%TO.N,Net-(C1-Pad2)*%
X25000000Y0D03*
%TO.P,J1,3,Pin_3*%
%TO.N,Net-(J1-Pad3)*%
X25000000Y-2000000D03*
%TD*%
D15*
%TO.P,D1,1,K*%
%TO.N,Net-(D1-Pad1)*%
X-1275000Y7500000D03*
D16*
%TO.P,D1,2,A*%
%TO.N,Net-(D1-Pad2)*%
X1265000Y7500000D03*
%TD*%
D17*
%TO.P,SW1,2,2*%
%TO.N,Net-(SW1-Pad2)*%
X-35750000Y-3250000D03*
X-35750000Y3250000D03*
%TO.P,SW1,1,1*%
%TO.N,GND*%
X-40250000Y3250000D03*
X-40250000Y-3250000D03*
%TD*%
D15*
%TO.P,D2,1,K*%
%TO.N,Net-(D2-Pad1)*%
X13725000Y7500000D03*
D16*
%TO.P,D2,2,A*%
%TO.N,Net-(D2-Pad2)*%
X16265000Y7500000D03*
%TD*%
D17*
%TO.P,SW2,1,1*%
%TO.N,Net-(SW2-Pad1)*%
X-3250000Y2250000D03*
X3250000Y2250000D03*
%TO.P,SW2,2,2*%
%TO.N,Net-(C1-Pad2)*%
X-3250000Y-2250000D03*
X3250000Y-2250000D03*
%TD*%
%TO.P,SW3,1,1*%
%TO.N,Net-(SW3-Pad1)*%
X11750000Y2250000D03*
X18250000Y2250000D03*
%TO.P,SW3,2,2*%
%TO.N,Net-(C1-Pad2)*%
X18250000Y-2250000D03*
X11750000Y-2250000D03*
%TD*%
D18*
%TO.N,*%
X-35000000Y-12000000D03*
X35000000Y12000000D03*
X-35000000Y12000000D03*
X35000000Y-12000000D03*
%TD*%
%TA.AperFunction,Conductor*%
%TO.N,GND*%
G36*
X-36904417Y14217498D02*
G01*
X-36857924Y14163842D01*
X-36847820Y14093568D01*
X-36877314Y14028988D01*
X-36884139Y14021713D01*
X-37056690Y13851852D01*
X-37073933Y13830213D01*
X-37261904Y13594324D01*
X-37261910Y13594315D01*
X-37264269Y13591355D01*
X-37439050Y13307807D01*
X-37440639Y13304360D01*
X-37537841Y13093513D01*
X-37578501Y13005316D01*
X-37680601Y12688261D01*
X-37681320Y12684545D01*
X-37681322Y12684537D01*
X-37743153Y12364957D01*
X-37743154Y12364948D01*
X-37743872Y12361238D01*
X-37744139Y12357462D01*
X-37744140Y12357457D01*
X-37750353Y12269701D01*
X-37767397Y12028981D01*
X-37750836Y11696305D01*
X-37750195Y11692574D01*
X-37750194Y11692566D01*
X-37735376Y11606332D01*
X-37694427Y11368028D01*
X-37693339Y11364389D01*
X-37693338Y11364386D01*
X-37669209Y11283706D01*
X-37598989Y11048905D01*
X-37465904Y10743559D01*
X-37463981Y10740287D01*
X-37463979Y10740284D01*
X-37389876Y10614231D01*
X-37297100Y10456413D01*
X-37294799Y10453398D01*
X-37097321Y10194639D01*
X-37097316Y10194633D01*
X-37095021Y10191626D01*
X-36862595Y9953035D01*
X-36603189Y9744094D01*
X-36320560Y9567831D01*
X-36018803Y9426798D01*
X-35702288Y9323039D01*
X-35375599Y9258057D01*
X-35371826Y9257770D01*
X-35371819Y9257769D01*
X-35047248Y9233079D01*
X-35047243Y9233079D01*
X-35043471Y9232792D01*
X-34997421Y9234843D01*
X-34928478Y9217892D01*
X-34879644Y9166358D01*
X-34866423Y9096603D01*
X-34893014Y9030774D01*
X-34925980Y9001535D01*
X-34951528Y8985879D01*
X-35111255Y8887998D01*
X-35298271Y8728271D01*
X-35457998Y8541255D01*
X-35460580Y8537041D01*
X-35541945Y8404266D01*
X-35594593Y8356635D01*
X-35623765Y8351527D01*
X-35656435Y8334355D01*
X-36357978Y7632812D01*
X-36365592Y7618868D01*
X-36365461Y7617035D01*
X-36361210Y7610420D01*
X-35655713Y6904923D01*
X-35626885Y6889181D01*
X-35589314Y6881009D01*
X-35542265Y6836256D01*
X-35457998Y6698745D01*
X-35397767Y6628224D01*
X-35305151Y6519785D01*
X-35298271Y6511729D01*
X-35111255Y6352002D01*
X-34901554Y6223497D01*
X-34896984Y6221604D01*
X-34896980Y6221602D01*
X-34678901Y6131271D01*
X-34678895Y6131269D01*
X-34674332Y6129379D01*
X-34669532Y6128227D01*
X-34669527Y6128225D01*
X-34560134Y6101962D01*
X-34435185Y6071964D01*
X-34190000Y6052668D01*
X-33944815Y6071964D01*
X-33819866Y6101962D01*
X-33710473Y6128225D01*
X-33710468Y6128227D01*
X-33705668Y6129379D01*
X-33701105Y6131269D01*
X-33701099Y6131271D01*
X-33483020Y6221602D01*
X-33483016Y6221604D01*
X-33478446Y6223497D01*
X-33268745Y6352002D01*
X-33081729Y6511729D01*
X-33078521Y6515485D01*
X-33078516Y6515490D01*
X-33015811Y6588908D01*
X-32956361Y6627718D01*
X-32885366Y6628224D01*
X-32824189Y6588908D01*
X-32761484Y6515490D01*
X-32761479Y6515485D01*
X-32758271Y6511729D01*
X-32571255Y6352002D01*
X-32361554Y6223497D01*
X-32356984Y6221604D01*
X-32356980Y6221602D01*
X-32138901Y6131271D01*
X-32138895Y6131269D01*
X-32134332Y6129379D01*
X-32129532Y6128227D01*
X-32129527Y6128225D01*
X-32020134Y6101962D01*
X-31895185Y6071964D01*
X-31650000Y6052668D01*
X-31404815Y6071964D01*
X-31279866Y6101962D01*
X-31170473Y6128225D01*
X-31170468Y6128227D01*
X-31165668Y6129379D01*
X-31161105Y6131269D01*
X-31161099Y6131271D01*
X-30943020Y6221602D01*
X-30943016Y6221604D01*
X-30938446Y6223497D01*
X-30728745Y6352002D01*
X-30541729Y6511729D01*
X-30538521Y6515485D01*
X-30538516Y6515490D01*
X-30475811Y6588908D01*
X-30416361Y6627718D01*
X-30345366Y6628224D01*
X-30284189Y6588908D01*
X-30221484Y6515490D01*
X-30221479Y6515485D01*
X-30218271Y6511729D01*
X-30031255Y6352002D01*
X-29821554Y6223497D01*
X-29816984Y6221604D01*
X-29816980Y6221602D01*
X-29598901Y6131271D01*
X-29598895Y6131269D01*
X-29594332Y6129379D01*
X-29589532Y6128227D01*
X-29589527Y6128225D01*
X-29480134Y6101962D01*
X-29355185Y6071964D01*
X-29110000Y6052668D01*
X-28864815Y6071964D01*
X-28739866Y6101962D01*
X-28630473Y6128225D01*
X-28630468Y6128227D01*
X-28625668Y6129379D01*
X-28621105Y6131269D01*
X-28621099Y6131271D01*
X-28403020Y6221602D01*
X-28403016Y6221604D01*
X-28398446Y6223497D01*
X-28188745Y6352002D01*
X-28001729Y6511729D01*
X-27998521Y6515485D01*
X-27998516Y6515490D01*
X-27935811Y6588908D01*
X-27876361Y6627718D01*
X-27805366Y6628224D01*
X-27744189Y6588908D01*
X-27681484Y6515490D01*
X-27681479Y6515485D01*
X-27678271Y6511729D01*
X-27491255Y6352002D01*
X-27281554Y6223497D01*
X-27276984Y6221604D01*
X-27276980Y6221602D01*
X-27058901Y6131271D01*
X-27058895Y6131269D01*
X-27054332Y6129379D01*
X-27049532Y6128227D01*
X-27049527Y6128225D01*
X-26940134Y6101962D01*
X-26815185Y6071964D01*
X-26570000Y6052668D01*
X-26324815Y6071964D01*
X-26199866Y6101962D01*
X-26090473Y6128225D01*
X-26090468Y6128227D01*
X-26085668Y6129379D01*
X-26081105Y6131269D01*
X-26081099Y6131271D01*
X-25863020Y6221602D01*
X-25863016Y6221604D01*
X-25858446Y6223497D01*
X-25648745Y6352002D01*
X-25461729Y6511729D01*
X-25458521Y6515485D01*
X-25458516Y6515490D01*
X-25395811Y6588908D01*
X-25336361Y6627718D01*
X-25265366Y6628224D01*
X-25204189Y6588908D01*
X-25141484Y6515490D01*
X-25141479Y6515485D01*
X-25138271Y6511729D01*
X-24951255Y6352002D01*
X-24741554Y6223497D01*
X-24736984Y6221604D01*
X-24736980Y6221602D01*
X-24518901Y6131271D01*
X-24518895Y6131269D01*
X-24514332Y6129379D01*
X-24509532Y6128227D01*
X-24509527Y6128225D01*
X-24400134Y6101962D01*
X-24275185Y6071964D01*
X-24030000Y6052668D01*
X-23784815Y6071964D01*
X-23659866Y6101962D01*
X-23550473Y6128225D01*
X-23550468Y6128227D01*
X-23545668Y6129379D01*
X-23541105Y6131269D01*
X-23541099Y6131271D01*
X-23323020Y6221602D01*
X-23323016Y6221604D01*
X-23318446Y6223497D01*
X-23108745Y6352002D01*
X-22921729Y6511729D01*
X-22918521Y6515485D01*
X-22918516Y6515490D01*
X-22855811Y6588908D01*
X-22796361Y6627718D01*
X-22725366Y6628224D01*
X-22664189Y6588908D01*
X-22601484Y6515490D01*
X-22601479Y6515485D01*
X-22598271Y6511729D01*
X-22411255Y6352002D01*
X-22201554Y6223497D01*
X-22196984Y6221604D01*
X-22196980Y6221602D01*
X-21978901Y6131271D01*
X-21978895Y6131269D01*
X-21974332Y6129379D01*
X-21969532Y6128227D01*
X-21969527Y6128225D01*
X-21860134Y6101962D01*
X-21735185Y6071964D01*
X-21490000Y6052668D01*
X-21244815Y6071964D01*
X-21119866Y6101962D01*
X-21010473Y6128225D01*
X-21010468Y6128227D01*
X-21005668Y6129379D01*
X-21001105Y6131269D01*
X-21001099Y6131271D01*
X-20783020Y6221602D01*
X-20783016Y6221604D01*
X-20778446Y6223497D01*
X-20568745Y6352002D01*
X-20381729Y6511729D01*
X-20378521Y6515485D01*
X-20378516Y6515490D01*
X-20315811Y6588908D01*
X-20256361Y6627718D01*
X-20185366Y6628224D01*
X-20124189Y6588908D01*
X-20061484Y6515490D01*
X-20061479Y6515485D01*
X-20058271Y6511729D01*
X-19871255Y6352002D01*
X-19661554Y6223497D01*
X-19656984Y6221604D01*
X-19656980Y6221602D01*
X-19438901Y6131271D01*
X-19438895Y6131269D01*
X-19434332Y6129379D01*
X-19429532Y6128227D01*
X-19429527Y6128225D01*
X-19320134Y6101962D01*
X-19195185Y6071964D01*
X-18950000Y6052668D01*
X-18704815Y6071964D01*
X-18579866Y6101962D01*
X-18470473Y6128225D01*
X-18470468Y6128227D01*
X-18465668Y6129379D01*
X-18461105Y6131269D01*
X-18461099Y6131271D01*
X-18243020Y6221602D01*
X-18243016Y6221604D01*
X-18238446Y6223497D01*
X-18028745Y6352002D01*
X-17841729Y6511729D01*
X-17838521Y6515485D01*
X-17838516Y6515490D01*
X-17775811Y6588908D01*
X-17716361Y6627718D01*
X-17645366Y6628224D01*
X-17584189Y6588908D01*
X-17521484Y6515490D01*
X-17521479Y6515485D01*
X-17518271Y6511729D01*
X-17331255Y6352002D01*
X-17121554Y6223497D01*
X-17116984Y6221604D01*
X-17116980Y6221602D01*
X-16898901Y6131271D01*
X-16898895Y6131269D01*
X-16894332Y6129379D01*
X-16889532Y6128227D01*
X-16889527Y6128225D01*
X-16780134Y6101962D01*
X-16655185Y6071964D01*
X-16410000Y6052668D01*
X-16164815Y6071964D01*
X-16039866Y6101962D01*
X-15930473Y6128225D01*
X-15930468Y6128227D01*
X-15925668Y6129379D01*
X-15921105Y6131269D01*
X-15921099Y6131271D01*
X-15703020Y6221602D01*
X-15703016Y6221604D01*
X-15698446Y6223497D01*
X-15488745Y6352002D01*
X-15301729Y6511729D01*
X-15298521Y6515485D01*
X-15298516Y6515490D01*
X-15235811Y6588908D01*
X-15176361Y6627718D01*
X-15105366Y6628224D01*
X-15044189Y6588908D01*
X-14981484Y6515490D01*
X-14981479Y6515485D01*
X-14978271Y6511729D01*
X-14791255Y6352002D01*
X-14581554Y6223497D01*
X-14576984Y6221604D01*
X-14576980Y6221602D01*
X-14358901Y6131271D01*
X-14358895Y6131269D01*
X-14354332Y6129379D01*
X-14349532Y6128227D01*
X-14349527Y6128225D01*
X-14240134Y6101962D01*
X-14115185Y6071964D01*
X-13870000Y6052668D01*
X-13624815Y6071964D01*
X-13499866Y6101962D01*
X-13390473Y6128225D01*
X-13390468Y6128227D01*
X-13385668Y6129379D01*
X-13381105Y6131269D01*
X-13381099Y6131271D01*
X-13163020Y6221602D01*
X-13163016Y6221604D01*
X-13158446Y6223497D01*
X-12948745Y6352002D01*
X-12761729Y6511729D01*
X-12758521Y6515485D01*
X-12758516Y6515490D01*
X-12695811Y6588908D01*
X-12636361Y6627718D01*
X-12565366Y6628224D01*
X-12504189Y6588908D01*
X-12441484Y6515490D01*
X-12441479Y6515485D01*
X-12438271Y6511729D01*
X-12251255Y6352002D01*
X-12041554Y6223497D01*
X-12036984Y6221604D01*
X-12036980Y6221602D01*
X-11818901Y6131271D01*
X-11818895Y6131269D01*
X-11814332Y6129379D01*
X-11809532Y6128227D01*
X-11809527Y6128225D01*
X-11700134Y6101962D01*
X-11575185Y6071964D01*
X-11330000Y6052668D01*
X-11084815Y6071964D01*
X-10959866Y6101962D01*
X-10850473Y6128225D01*
X-10850468Y6128227D01*
X-10845668Y6129379D01*
X-10841105Y6131269D01*
X-10841099Y6131271D01*
X-10623020Y6221602D01*
X-10623016Y6221604D01*
X-10618446Y6223497D01*
X-10408745Y6352002D01*
X-10221729Y6511729D01*
X-10214848Y6519785D01*
X-10189611Y6549334D01*
X-2937500Y6549334D01*
X-2937163Y6546088D01*
X-2937163Y6546084D01*
X-2933265Y6508521D01*
X-2926468Y6443010D01*
X-2924287Y6436474D01*
X-2924287Y6436472D01*
X-2896105Y6352002D01*
X-2870197Y6274346D01*
X-2866341Y6268115D01*
X-2781659Y6131271D01*
X-2776634Y6123150D01*
X-2650799Y5997534D01*
X-2499440Y5904236D01*
X-2492492Y5901931D01*
X-2492491Y5901931D01*
X-2337209Y5850425D01*
X-2337207Y5850424D01*
X-2330678Y5848259D01*
X-2225666Y5837500D01*
X-324334Y5837500D01*
X-321088Y5837837D01*
X-321084Y5837837D01*
X-224868Y5847820D01*
X-224864Y5847821D01*
X-218010Y5848532D01*
X-211474Y5850713D01*
X-211472Y5850713D01*
X-79723Y5894668D01*
X-49346Y5904803D01*
X101850Y5998366D01*
X120159Y6016707D01*
X195488Y6092167D01*
X257771Y6126246D01*
X328591Y6121243D01*
X350496Y6110582D01*
X445004Y6052668D01*
X507907Y6014121D01*
X512477Y6012228D01*
X512481Y6012226D01*
X745098Y5915873D01*
X749671Y5913979D01*
X839034Y5892525D01*
X999310Y5854045D01*
X999316Y5854044D01*
X1004123Y5852890D01*
X1265000Y5832359D01*
X1525877Y5852890D01*
X1530684Y5854044D01*
X1530690Y5854045D01*
X1690966Y5892525D01*
X1780329Y5913979D01*
X1784902Y5915873D01*
X2017519Y6012226D01*
X2017523Y6012228D01*
X2022093Y6014121D01*
X2245215Y6150850D01*
X2444200Y6320800D01*
X2614150Y6519785D01*
X2632258Y6549334D01*
X12062500Y6549334D01*
X12062837Y6546088D01*
X12062837Y6546084D01*
X12066735Y6508521D01*
X12073532Y6443010D01*
X12075713Y6436474D01*
X12075713Y6436472D01*
X12103895Y6352002D01*
X12129803Y6274346D01*
X12133659Y6268115D01*
X12218341Y6131271D01*
X12223366Y6123150D01*
X12349201Y5997534D01*
X12500560Y5904236D01*
X12507508Y5901931D01*
X12507509Y5901931D01*
X12662791Y5850425D01*
X12662793Y5850424D01*
X12669322Y5848259D01*
X12774334Y5837500D01*
X14675666Y5837500D01*
X14678912Y5837837D01*
X14678916Y5837837D01*
X14775132Y5847820D01*
X14775136Y5847821D01*
X14781990Y5848532D01*
X14788526Y5850713D01*
X14788528Y5850713D01*
X14920277Y5894668D01*
X14950654Y5904803D01*
X15101850Y5998366D01*
X15120159Y6016707D01*
X15195488Y6092167D01*
X15257771Y6126246D01*
X15328591Y6121243D01*
X15350496Y6110582D01*
X15445004Y6052668D01*
X15507907Y6014121D01*
X15512477Y6012228D01*
X15512481Y6012226D01*
X15745098Y5915873D01*
X15749671Y5913979D01*
X15839034Y5892525D01*
X15999310Y5854045D01*
X15999316Y5854044D01*
X16004123Y5852890D01*
X16265000Y5832359D01*
X16525877Y5852890D01*
X16530684Y5854044D01*
X16530690Y5854045D01*
X16690966Y5892525D01*
X16780329Y5913979D01*
X16784902Y5915873D01*
X17017519Y6012226D01*
X17017523Y6012228D01*
X17022093Y6014121D01*
X17245215Y6150850D01*
X17444200Y6320800D01*
X17614150Y6519785D01*
X17750879Y6742907D01*
X17789330Y6835734D01*
X17849127Y6980098D01*
X17849128Y6980100D01*
X17851021Y6984671D01*
X17886176Y7131099D01*
X17910955Y7234310D01*
X17910956Y7234316D01*
X17912110Y7239123D01*
X17932641Y7500000D01*
X17912110Y7760877D01*
X17910956Y7765684D01*
X17910955Y7765690D01*
X17872475Y7925966D01*
X17851021Y8015329D01*
X17750879Y8257093D01*
X17614150Y8480215D01*
X17444200Y8679200D01*
X17245215Y8849150D01*
X17022093Y8985879D01*
X17017523Y8987772D01*
X17017519Y8987774D01*
X16784902Y9084127D01*
X16784900Y9084128D01*
X16780329Y9086021D01*
X16685744Y9108729D01*
X16530690Y9145955D01*
X16530684Y9145956D01*
X16525877Y9147110D01*
X16265000Y9167641D01*
X16004123Y9147110D01*
X15999316Y9145956D01*
X15999310Y9145955D01*
X15844256Y9108729D01*
X15749671Y9086021D01*
X15745100Y9084128D01*
X15745098Y9084127D01*
X15512481Y8987774D01*
X15512477Y8987772D01*
X15507907Y8985879D01*
X15350563Y8889459D01*
X15282030Y8870921D01*
X15214354Y8892377D01*
X15195711Y8907719D01*
X15105977Y8997297D01*
X15100799Y9002466D01*
X14949440Y9095764D01*
X14910353Y9108729D01*
X14787209Y9149575D01*
X14787207Y9149576D01*
X14780678Y9151741D01*
X14675666Y9162500D01*
X12774334Y9162500D01*
X12771088Y9162163D01*
X12771084Y9162163D01*
X12674868Y9152180D01*
X12674864Y9152179D01*
X12668010Y9151468D01*
X12661474Y9149287D01*
X12661472Y9149287D01*
X12549036Y9111775D01*
X12499346Y9095197D01*
X12348150Y9001634D01*
X12222534Y8875799D01*
X12218694Y8869569D01*
X12218693Y8869568D01*
X12204128Y8845939D01*
X12129236Y8724440D01*
X12073259Y8555678D01*
X12062500Y8450666D01*
X12062500Y6549334D01*
X2632258Y6549334D01*
X2750879Y6742907D01*
X2789330Y6835734D01*
X2849127Y6980098D01*
X2849128Y6980100D01*
X2851021Y6984671D01*
X2886176Y7131099D01*
X2910955Y7234310D01*
X2910956Y7234316D01*
X2912110Y7239123D01*
X2932641Y7500000D01*
X2912110Y7760877D01*
X2910956Y7765684D01*
X2910955Y7765690D01*
X2872475Y7925966D01*
X2851021Y8015329D01*
X2750879Y8257093D01*
X2614150Y8480215D01*
X2444200Y8679200D01*
X2245215Y8849150D01*
X2022093Y8985879D01*
X2017523Y8987772D01*
X2017519Y8987774D01*
X1784902Y9084127D01*
X1784900Y9084128D01*
X1780329Y9086021D01*
X1685744Y9108729D01*
X1530690Y9145955D01*
X1530684Y9145956D01*
X1525877Y9147110D01*
X1265000Y9167641D01*
X1004123Y9147110D01*
X999316Y9145956D01*
X999310Y9145955D01*
X844256Y9108729D01*
X749671Y9086021D01*
X745100Y9084128D01*
X745098Y9084127D01*
X512481Y8987774D01*
X512477Y8987772D01*
X507907Y8985879D01*
X350563Y8889459D01*
X282030Y8870921D01*
X214354Y8892377D01*
X195711Y8907719D01*
X105977Y8997297D01*
X100799Y9002466D01*
X-50560Y9095764D01*
X-89647Y9108729D01*
X-212791Y9149575D01*
X-212793Y9149576D01*
X-219322Y9151741D01*
X-324334Y9162500D01*
X-2225666Y9162500D01*
X-2228912Y9162163D01*
X-2228916Y9162163D01*
X-2325132Y9152180D01*
X-2325136Y9152179D01*
X-2331990Y9151468D01*
X-2338526Y9149287D01*
X-2338528Y9149287D01*
X-2450964Y9111775D01*
X-2500654Y9095197D01*
X-2651850Y9001634D01*
X-2777466Y8875799D01*
X-2781306Y8869569D01*
X-2781307Y8869568D01*
X-2795872Y8845939D01*
X-2870764Y8724440D01*
X-2926741Y8555678D01*
X-2937500Y8450666D01*
X-2937500Y6549334D01*
X-10189611Y6549334D01*
X-10122233Y6628224D01*
X-10062002Y6698745D01*
X-9933497Y6908446D01*
X-9931602Y6913020D01*
X-9841271Y7131099D01*
X-9841269Y7131105D01*
X-9839379Y7135668D01*
X-9781964Y7374815D01*
X-9762668Y7620000D01*
X-9781964Y7865185D01*
X-9839379Y8104332D01*
X-9841269Y8108895D01*
X-9841271Y8108901D01*
X-9931602Y8326980D01*
X-9931604Y8326984D01*
X-9933497Y8331554D01*
X-10062002Y8541255D01*
X-10221729Y8728271D01*
X-10408745Y8887998D01*
X-10618446Y9016503D01*
X-10623016Y9018396D01*
X-10623020Y9018398D01*
X-10841099Y9108729D01*
X-10841105Y9108731D01*
X-10845668Y9110621D01*
X-10850468Y9111773D01*
X-10850473Y9111775D01*
X-10959866Y9138038D01*
X-11084815Y9168036D01*
X-11330000Y9187332D01*
X-11575185Y9168036D01*
X-11700134Y9138038D01*
X-11809527Y9111775D01*
X-11809532Y9111773D01*
X-11814332Y9110621D01*
X-11818895Y9108731D01*
X-11818901Y9108729D01*
X-12036980Y9018398D01*
X-12036984Y9018396D01*
X-12041554Y9016503D01*
X-12251255Y8887998D01*
X-12438271Y8728271D01*
X-12441479Y8724515D01*
X-12441484Y8724510D01*
X-12504189Y8651092D01*
X-12563639Y8612282D01*
X-12634634Y8611776D01*
X-12695811Y8651092D01*
X-12758516Y8724510D01*
X-12758521Y8724515D01*
X-12761729Y8728271D01*
X-12948745Y8887998D01*
X-13158446Y9016503D01*
X-13163016Y9018396D01*
X-13163020Y9018398D01*
X-13381099Y9108729D01*
X-13381105Y9108731D01*
X-13385668Y9110621D01*
X-13390468Y9111773D01*
X-13390473Y9111775D01*
X-13499866Y9138038D01*
X-13624815Y9168036D01*
X-13870000Y9187332D01*
X-14115185Y9168036D01*
X-14240134Y9138038D01*
X-14349527Y9111775D01*
X-14349532Y9111773D01*
X-14354332Y9110621D01*
X-14358895Y9108731D01*
X-14358901Y9108729D01*
X-14576980Y9018398D01*
X-14576984Y9018396D01*
X-14581554Y9016503D01*
X-14791255Y8887998D01*
X-14978271Y8728271D01*
X-14981479Y8724515D01*
X-14981484Y8724510D01*
X-15044189Y8651092D01*
X-15103639Y8612282D01*
X-15174634Y8611776D01*
X-15235811Y8651092D01*
X-15298516Y8724510D01*
X-15298521Y8724515D01*
X-15301729Y8728271D01*
X-15488745Y8887998D01*
X-15698446Y9016503D01*
X-15703016Y9018396D01*
X-15703020Y9018398D01*
X-15921099Y9108729D01*
X-15921105Y9108731D01*
X-15925668Y9110621D01*
X-15930468Y9111773D01*
X-15930473Y9111775D01*
X-16039866Y9138038D01*
X-16164815Y9168036D01*
X-16410000Y9187332D01*
X-16655185Y9168036D01*
X-16780134Y9138038D01*
X-16889527Y9111775D01*
X-16889532Y9111773D01*
X-16894332Y9110621D01*
X-16898895Y9108731D01*
X-16898901Y9108729D01*
X-17116980Y9018398D01*
X-17116984Y9018396D01*
X-17121554Y9016503D01*
X-17331255Y8887998D01*
X-17518271Y8728271D01*
X-17521479Y8724515D01*
X-17521484Y8724510D01*
X-17584189Y8651092D01*
X-17643639Y8612282D01*
X-17714634Y8611776D01*
X-17775811Y8651092D01*
X-17838516Y8724510D01*
X-17838521Y8724515D01*
X-17841729Y8728271D01*
X-18028745Y8887998D01*
X-18238446Y9016503D01*
X-18243016Y9018396D01*
X-18243020Y9018398D01*
X-18461099Y9108729D01*
X-18461105Y9108731D01*
X-18465668Y9110621D01*
X-18470468Y9111773D01*
X-18470473Y9111775D01*
X-18579866Y9138038D01*
X-18704815Y9168036D01*
X-18950000Y9187332D01*
X-19195185Y9168036D01*
X-19320134Y9138038D01*
X-19429527Y9111775D01*
X-19429532Y9111773D01*
X-19434332Y9110621D01*
X-19438895Y9108731D01*
X-19438901Y9108729D01*
X-19656980Y9018398D01*
X-19656984Y9018396D01*
X-19661554Y9016503D01*
X-19871255Y8887998D01*
X-20058271Y8728271D01*
X-20061479Y8724515D01*
X-20061484Y8724510D01*
X-20124189Y8651092D01*
X-20183639Y8612282D01*
X-20254634Y8611776D01*
X-20315811Y8651092D01*
X-20378516Y8724510D01*
X-20378521Y8724515D01*
X-20381729Y8728271D01*
X-20568745Y8887998D01*
X-20778446Y9016503D01*
X-20783016Y9018396D01*
X-20783020Y9018398D01*
X-21001099Y9108729D01*
X-21001105Y9108731D01*
X-21005668Y9110621D01*
X-21010468Y9111773D01*
X-21010473Y9111775D01*
X-21119866Y9138038D01*
X-21244815Y9168036D01*
X-21490000Y9187332D01*
X-21735185Y9168036D01*
X-21860134Y9138038D01*
X-21969527Y9111775D01*
X-21969532Y9111773D01*
X-21974332Y9110621D01*
X-21978895Y9108731D01*
X-21978901Y9108729D01*
X-22196980Y9018398D01*
X-22196984Y9018396D01*
X-22201554Y9016503D01*
X-22411255Y8887998D01*
X-22598271Y8728271D01*
X-22601479Y8724515D01*
X-22601484Y8724510D01*
X-22664189Y8651092D01*
X-22723639Y8612282D01*
X-22794634Y8611776D01*
X-22855811Y8651092D01*
X-22918516Y8724510D01*
X-22918521Y8724515D01*
X-22921729Y8728271D01*
X-23108745Y8887998D01*
X-23318446Y9016503D01*
X-23323016Y9018396D01*
X-23323020Y9018398D01*
X-23541099Y9108729D01*
X-23541105Y9108731D01*
X-23545668Y9110621D01*
X-23550468Y9111773D01*
X-23550473Y9111775D01*
X-23659866Y9138038D01*
X-23784815Y9168036D01*
X-24030000Y9187332D01*
X-24275185Y9168036D01*
X-24400134Y9138038D01*
X-24509527Y9111775D01*
X-24509532Y9111773D01*
X-24514332Y9110621D01*
X-24518895Y9108731D01*
X-24518901Y9108729D01*
X-24736980Y9018398D01*
X-24736984Y9018396D01*
X-24741554Y9016503D01*
X-24951255Y8887998D01*
X-25138271Y8728271D01*
X-25141479Y8724515D01*
X-25141484Y8724510D01*
X-25204189Y8651092D01*
X-25263639Y8612282D01*
X-25334634Y8611776D01*
X-25395811Y8651092D01*
X-25458516Y8724510D01*
X-25458521Y8724515D01*
X-25461729Y8728271D01*
X-25648745Y8887998D01*
X-25858446Y9016503D01*
X-25863016Y9018396D01*
X-25863020Y9018398D01*
X-26081099Y9108729D01*
X-26081105Y9108731D01*
X-26085668Y9110621D01*
X-26090468Y9111773D01*
X-26090473Y9111775D01*
X-26199866Y9138038D01*
X-26324815Y9168036D01*
X-26570000Y9187332D01*
X-26815185Y9168036D01*
X-26940134Y9138038D01*
X-27049527Y9111775D01*
X-27049532Y9111773D01*
X-27054332Y9110621D01*
X-27058895Y9108731D01*
X-27058901Y9108729D01*
X-27276980Y9018398D01*
X-27276984Y9018396D01*
X-27281554Y9016503D01*
X-27491255Y8887998D01*
X-27678271Y8728271D01*
X-27681479Y8724515D01*
X-27681484Y8724510D01*
X-27744189Y8651092D01*
X-27803639Y8612282D01*
X-27874634Y8611776D01*
X-27935811Y8651092D01*
X-27998516Y8724510D01*
X-27998521Y8724515D01*
X-28001729Y8728271D01*
X-28188745Y8887998D01*
X-28398446Y9016503D01*
X-28403016Y9018396D01*
X-28403020Y9018398D01*
X-28621099Y9108729D01*
X-28621105Y9108731D01*
X-28625668Y9110621D01*
X-28630468Y9111773D01*
X-28630473Y9111775D01*
X-28739866Y9138038D01*
X-28864815Y9168036D01*
X-29110000Y9187332D01*
X-29355185Y9168036D01*
X-29480134Y9138038D01*
X-29589527Y9111775D01*
X-29589532Y9111773D01*
X-29594332Y9110621D01*
X-29598895Y9108731D01*
X-29598901Y9108729D01*
X-29816980Y9018398D01*
X-29816984Y9018396D01*
X-29821554Y9016503D01*
X-30031255Y8887998D01*
X-30218271Y8728271D01*
X-30221479Y8724515D01*
X-30221484Y8724510D01*
X-30284189Y8651092D01*
X-30343639Y8612282D01*
X-30414634Y8611776D01*
X-30475811Y8651092D01*
X-30538516Y8724510D01*
X-30538521Y8724515D01*
X-30541729Y8728271D01*
X-30728745Y8887998D01*
X-30938446Y9016503D01*
X-30943016Y9018396D01*
X-30943020Y9018398D01*
X-31161099Y9108729D01*
X-31161105Y9108731D01*
X-31165668Y9110621D01*
X-31170468Y9111773D01*
X-31170473Y9111775D01*
X-31279866Y9138038D01*
X-31404815Y9168036D01*
X-31650000Y9187332D01*
X-31895185Y9168036D01*
X-32020134Y9138038D01*
X-32129527Y9111775D01*
X-32129532Y9111773D01*
X-32134332Y9110621D01*
X-32138895Y9108731D01*
X-32138901Y9108729D01*
X-32356980Y9018398D01*
X-32356984Y9018396D01*
X-32361554Y9016503D01*
X-32571255Y8887998D01*
X-32758271Y8728271D01*
X-32761479Y8724515D01*
X-32761484Y8724510D01*
X-32824189Y8651092D01*
X-32883639Y8612282D01*
X-32954634Y8611776D01*
X-33015811Y8651092D01*
X-33078516Y8724510D01*
X-33078521Y8724515D01*
X-33081729Y8728271D01*
X-33268745Y8887998D01*
X-33478446Y9016503D01*
X-33483016Y9018396D01*
X-33483020Y9018398D01*
X-33701099Y9108729D01*
X-33701105Y9108731D01*
X-33705668Y9110621D01*
X-33710468Y9111773D01*
X-33710473Y9111775D01*
X-33819866Y9138038D01*
X-33944815Y9168036D01*
X-33984358Y9171148D01*
X-34050699Y9196433D01*
X-34092839Y9253571D01*
X-34097398Y9324421D01*
X-34062929Y9386489D01*
X-34024210Y9412528D01*
X-33759977Y9526052D01*
X-33756488Y9527551D01*
X-33753210Y9529455D01*
X-33753204Y9529458D01*
X-33585402Y9626926D01*
X-33468462Y9694850D01*
X-33465436Y9697134D01*
X-33465429Y9697139D01*
X-33205648Y9893254D01*
X-33202621Y9895539D01*
X-32962815Y10126713D01*
X-32752519Y10385021D01*
X-32750509Y10388207D01*
X-32750503Y10388215D01*
X-32576800Y10663518D01*
X-32576799Y10663521D01*
X-32574778Y10666723D01*
X-32432168Y10967738D01*
X-32405088Y11048905D01*
X-32327950Y11280119D01*
X-32326753Y11283706D01*
X-32260061Y11610049D01*
X-32233058Y11942041D01*
X-32232451Y12000000D01*
X-32232688Y12003942D01*
X-32252267Y12328707D01*
X-32252267Y12328711D01*
X-32252495Y12332485D01*
X-32312338Y12660153D01*
X-32411113Y12978259D01*
X-32547388Y13282194D01*
X-32719190Y13567557D01*
X-32721517Y13570541D01*
X-32721522Y13570548D01*
X-32921700Y13827225D01*
X-32921706Y13827232D01*
X-32924031Y13830213D01*
X-32948206Y13854515D01*
X-33115450Y14022638D01*
X-33149311Y14085040D01*
X-33144061Y14155842D01*
X-33101365Y14212566D01*
X-33034780Y14237202D01*
X-33026121Y14237500D01*
X33027462Y14237500D01*
X33095583Y14217498D01*
X33142076Y14163842D01*
X33152180Y14093568D01*
X33122686Y14028988D01*
X33115861Y14021713D01*
X32943310Y13851852D01*
X32926067Y13830213D01*
X32738096Y13594324D01*
X32738090Y13594315D01*
X32735731Y13591355D01*
X32560950Y13307807D01*
X32559361Y13304360D01*
X32462159Y13093513D01*
X32421499Y13005316D01*
X32319399Y12688261D01*
X32318680Y12684545D01*
X32318678Y12684537D01*
X32256847Y12364957D01*
X32256846Y12364948D01*
X32256128Y12361238D01*
X32255861Y12357462D01*
X32255860Y12357457D01*
X32249647Y12269701D01*
X32232603Y12028981D01*
X32249164Y11696305D01*
X32249805Y11692574D01*
X32249806Y11692566D01*
X32264624Y11606332D01*
X32305573Y11368028D01*
X32306661Y11364389D01*
X32306662Y11364386D01*
X32330791Y11283706D01*
X32401011Y11048905D01*
X32534096Y10743559D01*
X32536019Y10740287D01*
X32536021Y10740284D01*
X32610124Y10614231D01*
X32702900Y10456413D01*
X32705201Y10453398D01*
X32902679Y10194639D01*
X32902684Y10194633D01*
X32904979Y10191626D01*
X33137405Y9953035D01*
X33396811Y9744094D01*
X33679440Y9567831D01*
X33981197Y9426798D01*
X34297712Y9323039D01*
X34624401Y9258057D01*
X34628174Y9257770D01*
X34628181Y9257769D01*
X34952752Y9233079D01*
X34952757Y9233079D01*
X34956529Y9232792D01*
X35289288Y9247612D01*
X35293026Y9248234D01*
X35293034Y9248235D01*
X35453162Y9274888D01*
X35617856Y9302301D01*
X35937474Y9396066D01*
X36243512Y9527551D01*
X36246790Y9529455D01*
X36246796Y9529458D01*
X36414598Y9626926D01*
X36531538Y9694850D01*
X36534564Y9697134D01*
X36534571Y9697139D01*
X36794352Y9893254D01*
X36797379Y9895539D01*
X37037185Y10126713D01*
X37247481Y10385021D01*
X37249491Y10388207D01*
X37249497Y10388215D01*
X37423200Y10663518D01*
X37423201Y10663521D01*
X37425222Y10666723D01*
X37567832Y10967738D01*
X37594912Y11048905D01*
X37672050Y11280119D01*
X37673247Y11283706D01*
X37739939Y11610049D01*
X37766942Y11942041D01*
X37767549Y12000000D01*
X37767312Y12003942D01*
X37747733Y12328707D01*
X37747733Y12328711D01*
X37747505Y12332485D01*
X37687662Y12660153D01*
X37588887Y12978259D01*
X37452612Y13282194D01*
X37280810Y13567557D01*
X37278483Y13570541D01*
X37278478Y13570548D01*
X37078300Y13827225D01*
X37078294Y13827232D01*
X37075969Y13830213D01*
X37051794Y13854515D01*
X36884550Y14022638D01*
X36850689Y14085040D01*
X36855939Y14155842D01*
X36898635Y14212566D01*
X36965220Y14237202D01*
X36973879Y14237500D01*
X39943762Y14237500D01*
X39959555Y14236506D01*
X39989286Y14232750D01*
X40010340Y14234814D01*
X40013401Y14235114D01*
X40033302Y14235485D01*
X40262093Y14221646D01*
X40277197Y14219812D01*
X40527971Y14173856D01*
X40542744Y14170215D01*
X40786159Y14094364D01*
X40800377Y14088972D01*
X40949833Y14021707D01*
X41032866Y13984337D01*
X41046339Y13977266D01*
X41264525Y13845367D01*
X41277046Y13836724D01*
X41477738Y13679493D01*
X41489127Y13669403D01*
X41669403Y13489127D01*
X41679493Y13477738D01*
X41836724Y13277046D01*
X41845367Y13264525D01*
X41977266Y13046339D01*
X41984336Y13032868D01*
X42008914Y12978259D01*
X42088970Y12800381D01*
X42094364Y12786159D01*
X42133629Y12660153D01*
X42170215Y12542744D01*
X42173856Y12527971D01*
X42219812Y12277198D01*
X42221646Y12262094D01*
X42234814Y12044406D01*
X42234051Y12021013D01*
X42232750Y12010714D01*
X42234189Y11996039D01*
X42236899Y11968399D01*
X42237500Y11956104D01*
X42237500Y-11943762D01*
X42236506Y-11959554D01*
X42232750Y-11989286D01*
X42234018Y-12002221D01*
X42235114Y-12013401D01*
X42235485Y-12033302D01*
X42221646Y-12262093D01*
X42219812Y-12277197D01*
X42173856Y-12527971D01*
X42170215Y-12542744D01*
X42094366Y-12786154D01*
X42088970Y-12800381D01*
X41984337Y-13032866D01*
X41977266Y-13046339D01*
X41845367Y-13264525D01*
X41836724Y-13277046D01*
X41679493Y-13477738D01*
X41669403Y-13489127D01*
X41489127Y-13669403D01*
X41477738Y-13679493D01*
X41277046Y-13836724D01*
X41264525Y-13845367D01*
X41046339Y-13977266D01*
X41032868Y-13984336D01*
X40800377Y-14088972D01*
X40786159Y-14094364D01*
X40584915Y-14157074D01*
X40542744Y-14170215D01*
X40527971Y-14173856D01*
X40277198Y-14219812D01*
X40262094Y-14221646D01*
X40044406Y-14234814D01*
X40021013Y-14234051D01*
X40010714Y-14232750D01*
X39968399Y-14236899D01*
X39956104Y-14237500D01*
X36971625Y-14237500D01*
X36903504Y-14217498D01*
X36857011Y-14163842D01*
X36846907Y-14093568D01*
X36876401Y-14028988D01*
X36884177Y-14020787D01*
X36929323Y-13977266D01*
X37037185Y-13873287D01*
X37247481Y-13614979D01*
X37249491Y-13611793D01*
X37249497Y-13611785D01*
X37423200Y-13336482D01*
X37423201Y-13336479D01*
X37425222Y-13333277D01*
X37567832Y-13032262D01*
X37594912Y-12951095D01*
X37672050Y-12719881D01*
X37673247Y-12716294D01*
X37739939Y-12389951D01*
X37766942Y-12057959D01*
X37767549Y-12000000D01*
X37766482Y-11982292D01*
X37747733Y-11671293D01*
X37747733Y-11671289D01*
X37747505Y-11667515D01*
X37687662Y-11339847D01*
X37588887Y-11021741D01*
X37452612Y-10717806D01*
X37280810Y-10432443D01*
X37278483Y-10429459D01*
X37278478Y-10429452D01*
X37078300Y-10172775D01*
X37078294Y-10172768D01*
X37075969Y-10169787D01*
X36841058Y-9933642D01*
X36579478Y-9727429D01*
X36295019Y-9554135D01*
X35991801Y-9416270D01*
X35964257Y-9407559D01*
X35677834Y-9316976D01*
X35677831Y-9316975D01*
X35674216Y-9315832D01*
X35643336Y-9310025D01*
X35350589Y-9254974D01*
X35350587Y-9254974D01*
X35346866Y-9254274D01*
X35014491Y-9232489D01*
X35010711Y-9232697D01*
X35010710Y-9232697D01*
X34915394Y-9237943D01*
X34681906Y-9250792D01*
X34353929Y-9308919D01*
X34350304Y-9310024D01*
X34350299Y-9310025D01*
X34117965Y-9380835D01*
X34035310Y-9406026D01*
X33730665Y-9540708D01*
X33727411Y-9542644D01*
X33727405Y-9542647D01*
X33447666Y-9709075D01*
X33444407Y-9711014D01*
X33180682Y-9914476D01*
X32943310Y-10148148D01*
X32926067Y-10169787D01*
X32738096Y-10405676D01*
X32738090Y-10405685D01*
X32735731Y-10408645D01*
X32560950Y-10692193D01*
X32421499Y-10994684D01*
X32319399Y-11311739D01*
X32318680Y-11315455D01*
X32318678Y-11315463D01*
X32256847Y-11635043D01*
X32256846Y-11635052D01*
X32256128Y-11638762D01*
X32255861Y-11642538D01*
X32255860Y-11642543D01*
X32233101Y-11963983D01*
X32232603Y-11971019D01*
X32236820Y-12055720D01*
X32247472Y-12269701D01*
X32249164Y-12303695D01*
X32249805Y-12307426D01*
X32249806Y-12307434D01*
X32304929Y-12628226D01*
X32305573Y-12631972D01*
X32306661Y-12635611D01*
X32306662Y-12635614D01*
X32353859Y-12793428D01*
X32401011Y-12951095D01*
X32534096Y-13256441D01*
X32536019Y-13259713D01*
X32536021Y-13259716D01*
X32610124Y-13385769D01*
X32702900Y-13543587D01*
X32705201Y-13546602D01*
X32902679Y-13805361D01*
X32902684Y-13805367D01*
X32904979Y-13808374D01*
X32937177Y-13841426D01*
X33114622Y-14023578D01*
X33147829Y-14086331D01*
X33141837Y-14157074D01*
X33098550Y-14213348D01*
X33031711Y-14237286D01*
X33024368Y-14237500D01*
X-33028375Y-14237500D01*
X-33096496Y-14217498D01*
X-33142989Y-14163842D01*
X-33153093Y-14093568D01*
X-33123599Y-14028988D01*
X-33115823Y-14020787D01*
X-33070677Y-13977266D01*
X-32962815Y-13873287D01*
X-32752519Y-13614979D01*
X-32750509Y-13611793D01*
X-32750503Y-13611785D01*
X-32576800Y-13336482D01*
X-32576799Y-13336479D01*
X-32574778Y-13333277D01*
X-32432168Y-13032262D01*
X-32405088Y-12951095D01*
X-32327950Y-12719881D01*
X-32326753Y-12716294D01*
X-32260061Y-12389951D01*
X-32233058Y-12057959D01*
X-32232451Y-12000000D01*
X-32233518Y-11982292D01*
X-32252267Y-11671293D01*
X-32252267Y-11671289D01*
X-32252495Y-11667515D01*
X-32312338Y-11339847D01*
X-32411113Y-11021741D01*
X-32547388Y-10717806D01*
X-32719190Y-10432443D01*
X-32721517Y-10429459D01*
X-32721522Y-10429452D01*
X-32921700Y-10172775D01*
X-32921706Y-10172768D01*
X-32924031Y-10169787D01*
X-33158942Y-9933642D01*
X-33420522Y-9727429D01*
X-33704981Y-9554135D01*
X-34008199Y-9416270D01*
X-34035743Y-9407559D01*
X-34322166Y-9316976D01*
X-34322169Y-9316975D01*
X-34325784Y-9315832D01*
X-34356664Y-9310025D01*
X-34649411Y-9254974D01*
X-34649413Y-9254974D01*
X-34653134Y-9254274D01*
X-34985509Y-9232489D01*
X-34989289Y-9232697D01*
X-34989290Y-9232697D01*
X-35084606Y-9237943D01*
X-35318094Y-9250792D01*
X-35646071Y-9308919D01*
X-35649696Y-9310024D01*
X-35649701Y-9310025D01*
X-35882035Y-9380835D01*
X-35964690Y-9406026D01*
X-36269335Y-9540708D01*
X-36272589Y-9542644D01*
X-36272595Y-9542647D01*
X-36552334Y-9709075D01*
X-36555593Y-9711014D01*
X-36819318Y-9914476D01*
X-37056690Y-10148148D01*
X-37073933Y-10169787D01*
X-37261904Y-10405676D01*
X-37261910Y-10405685D01*
X-37264269Y-10408645D01*
X-37439050Y-10692193D01*
X-37578501Y-10994684D01*
X-37680601Y-11311739D01*
X-37681320Y-11315455D01*
X-37681322Y-11315463D01*
X-37743153Y-11635043D01*
X-37743154Y-11635052D01*
X-37743872Y-11638762D01*
X-37744139Y-11642538D01*
X-37744140Y-11642543D01*
X-37766899Y-11963983D01*
X-37767397Y-11971019D01*
X-37763180Y-12055720D01*
X-37752528Y-12269701D01*
X-37750836Y-12303695D01*
X-37750195Y-12307426D01*
X-37750194Y-12307434D01*
X-37695071Y-12628226D01*
X-37694427Y-12631972D01*
X-37693339Y-12635611D01*
X-37693338Y-12635614D01*
X-37646141Y-12793428D01*
X-37598989Y-12951095D01*
X-37465904Y-13256441D01*
X-37463981Y-13259713D01*
X-37463979Y-13259716D01*
X-37389876Y-13385769D01*
X-37297100Y-13543587D01*
X-37294799Y-13546602D01*
X-37097321Y-13805361D01*
X-37097316Y-13805367D01*
X-37095021Y-13808374D01*
X-37062823Y-13841426D01*
X-36885378Y-14023578D01*
X-36852171Y-14086331D01*
X-36858163Y-14157074D01*
X-36901450Y-14213348D01*
X-36968289Y-14237286D01*
X-36975632Y-14237500D01*
X-39943762Y-14237500D01*
X-39959554Y-14236506D01*
X-39962863Y-14236088D01*
X-39989286Y-14232750D01*
X-40009346Y-14234717D01*
X-40013401Y-14235114D01*
X-40033302Y-14235485D01*
X-40262093Y-14221646D01*
X-40277197Y-14219812D01*
X-40527971Y-14173856D01*
X-40542744Y-14170215D01*
X-40584915Y-14157074D01*
X-40786159Y-14094364D01*
X-40800377Y-14088972D01*
X-41032868Y-13984336D01*
X-41046339Y-13977266D01*
X-41264525Y-13845367D01*
X-41277046Y-13836724D01*
X-41477738Y-13679493D01*
X-41489127Y-13669403D01*
X-41669403Y-13489127D01*
X-41679493Y-13477738D01*
X-41836724Y-13277046D01*
X-41845367Y-13264525D01*
X-41977266Y-13046339D01*
X-41984337Y-13032866D01*
X-42088970Y-12800381D01*
X-42094366Y-12786154D01*
X-42170215Y-12542744D01*
X-42173856Y-12527971D01*
X-42219812Y-12277198D01*
X-42221646Y-12262093D01*
X-42234468Y-12050114D01*
X-42233645Y-12029307D01*
X-42233829Y-12029293D01*
X-42233526Y-12025351D01*
X-42232974Y-12021425D01*
X-42232675Y-12000000D01*
X-42236715Y-11963983D01*
X-42237500Y-11949938D01*
X-42237500Y-8470666D01*
X-40832500Y-8470666D01*
X-40821468Y-8576990D01*
X-40819287Y-8583526D01*
X-40819287Y-8583528D01*
X-40778406Y-8706062D01*
X-40765197Y-8745654D01*
X-40671634Y-8896850D01*
X-40545799Y-9022466D01*
X-40394440Y-9115764D01*
X-40387492Y-9118069D01*
X-40387491Y-9118069D01*
X-40232209Y-9169575D01*
X-40232207Y-9169576D01*
X-40225678Y-9171741D01*
X-40120666Y-9182500D01*
X-38419334Y-9182500D01*
X-38416088Y-9182163D01*
X-38416084Y-9182163D01*
X-38319868Y-9172180D01*
X-38319864Y-9172179D01*
X-38313010Y-9171468D01*
X-38306474Y-9169287D01*
X-38306472Y-9169287D01*
X-38174723Y-9125332D01*
X-38144346Y-9115197D01*
X-37993150Y-9021634D01*
X-37867534Y-8895799D01*
X-37863693Y-8889568D01*
X-37859157Y-8883824D01*
X-37856752Y-8885723D01*
X-37814289Y-8847466D01*
X-37744224Y-8836004D01*
X-37677908Y-8865234D01*
X-37655014Y-8884788D01*
X-37655010Y-8884791D01*
X-37651255Y-8887998D01*
X-37441554Y-9016503D01*
X-37436984Y-9018396D01*
X-37436980Y-9018398D01*
X-37218901Y-9108729D01*
X-37218895Y-9108731D01*
X-37214332Y-9110621D01*
X-37209532Y-9111773D01*
X-37209527Y-9111775D01*
X-37100134Y-9138038D01*
X-36975185Y-9168036D01*
X-36730000Y-9187332D01*
X-36484815Y-9168036D01*
X-36359866Y-9138038D01*
X-36250473Y-9111775D01*
X-36250468Y-9111773D01*
X-36245668Y-9110621D01*
X-36241105Y-9108731D01*
X-36241099Y-9108729D01*
X-36023020Y-9018398D01*
X-36023016Y-9018396D01*
X-36018446Y-9016503D01*
X-35808745Y-8887998D01*
X-35621729Y-8728271D01*
X-35602761Y-8706062D01*
X-34911507Y-8706062D01*
X-34902211Y-8718077D01*
X-34851006Y-8753931D01*
X-34841511Y-8759414D01*
X-34644053Y-8851490D01*
X-34633761Y-8855236D01*
X-34423312Y-8911625D01*
X-34412519Y-8913528D01*
X-34195475Y-8932517D01*
X-34184525Y-8932517D01*
X-33967481Y-8913528D01*
X-33956688Y-8911625D01*
X-33746239Y-8855236D01*
X-33735947Y-8851490D01*
X-33538489Y-8759414D01*
X-33528994Y-8753931D01*
X-33476952Y-8717491D01*
X-33468576Y-8707012D01*
X-33469075Y-8706062D01*
X-32371507Y-8706062D01*
X-32362211Y-8718077D01*
X-32311006Y-8753931D01*
X-32301511Y-8759414D01*
X-32104053Y-8851490D01*
X-32093761Y-8855236D01*
X-31883312Y-8911625D01*
X-31872519Y-8913528D01*
X-31655475Y-8932517D01*
X-31644525Y-8932517D01*
X-31427481Y-8913528D01*
X-31416688Y-8911625D01*
X-31206239Y-8855236D01*
X-31195947Y-8851490D01*
X-30998489Y-8759414D01*
X-30988994Y-8753931D01*
X-30936952Y-8717491D01*
X-30928576Y-8707012D01*
X-30935644Y-8693566D01*
X-31637188Y-7992022D01*
X-31651132Y-7984408D01*
X-31652965Y-7984539D01*
X-31659580Y-7988790D01*
X-32365077Y-8694287D01*
X-32371507Y-8706062D01*
X-33469075Y-8706062D01*
X-33475644Y-8693566D01*
X-34177188Y-7992022D01*
X-34191132Y-7984408D01*
X-34192965Y-7984539D01*
X-34199580Y-7988790D01*
X-34905077Y-8694287D01*
X-34911507Y-8706062D01*
X-35602761Y-8706062D01*
X-35462002Y-8541255D01*
X-35378055Y-8404266D01*
X-35325407Y-8356635D01*
X-35296235Y-8351527D01*
X-35263565Y-8334355D01*
X-34562022Y-7632812D01*
X-34555644Y-7621132D01*
X-33825592Y-7621132D01*
X-33825461Y-7622965D01*
X-33821210Y-7629580D01*
X-33115713Y-8335077D01*
X-33103938Y-8341507D01*
X-33091923Y-8332211D01*
X-33056069Y-8281006D01*
X-33050586Y-8271511D01*
X-33034195Y-8236359D01*
X-32987278Y-8183074D01*
X-32919001Y-8163613D01*
X-32851041Y-8184155D01*
X-32805805Y-8236359D01*
X-32789414Y-8271511D01*
X-32783931Y-8281006D01*
X-32747491Y-8333048D01*
X-32737012Y-8341424D01*
X-32723566Y-8334356D01*
X-32022022Y-7632812D01*
X-32015644Y-7621132D01*
X-31285592Y-7621132D01*
X-31285461Y-7622965D01*
X-31281210Y-7629580D01*
X-30575713Y-8335077D01*
X-30546885Y-8350819D01*
X-30509314Y-8358991D01*
X-30462265Y-8403744D01*
X-30377998Y-8541255D01*
X-30218271Y-8728271D01*
X-30031255Y-8887998D01*
X-29821554Y-9016503D01*
X-29816984Y-9018396D01*
X-29816980Y-9018398D01*
X-29598901Y-9108729D01*
X-29598895Y-9108731D01*
X-29594332Y-9110621D01*
X-29589532Y-9111773D01*
X-29589527Y-9111775D01*
X-29480134Y-9138038D01*
X-29355185Y-9168036D01*
X-29110000Y-9187332D01*
X-28864815Y-9168036D01*
X-28739866Y-9138038D01*
X-28630473Y-9111775D01*
X-28630468Y-9111773D01*
X-28625668Y-9110621D01*
X-28621105Y-9108731D01*
X-28621099Y-9108729D01*
X-28403020Y-9018398D01*
X-28403016Y-9018396D01*
X-28398446Y-9016503D01*
X-28188745Y-8887998D01*
X-28001729Y-8728271D01*
X-27998521Y-8724515D01*
X-27998516Y-8724510D01*
X-27935811Y-8651092D01*
X-27876361Y-8612282D01*
X-27805366Y-8611776D01*
X-27744189Y-8651092D01*
X-27681484Y-8724510D01*
X-27681479Y-8724515D01*
X-27678271Y-8728271D01*
X-27491255Y-8887998D01*
X-27281554Y-9016503D01*
X-27276984Y-9018396D01*
X-27276980Y-9018398D01*
X-27058901Y-9108729D01*
X-27058895Y-9108731D01*
X-27054332Y-9110621D01*
X-27049532Y-9111773D01*
X-27049527Y-9111775D01*
X-26940134Y-9138038D01*
X-26815185Y-9168036D01*
X-26570000Y-9187332D01*
X-26324815Y-9168036D01*
X-26199866Y-9138038D01*
X-26090473Y-9111775D01*
X-26090468Y-9111773D01*
X-26085668Y-9110621D01*
X-26081105Y-9108731D01*
X-26081099Y-9108729D01*
X-25863020Y-9018398D01*
X-25863016Y-9018396D01*
X-25858446Y-9016503D01*
X-25648745Y-8887998D01*
X-25461729Y-8728271D01*
X-25458521Y-8724515D01*
X-25458516Y-8724510D01*
X-25395811Y-8651092D01*
X-25336361Y-8612282D01*
X-25265366Y-8611776D01*
X-25204189Y-8651092D01*
X-25141484Y-8724510D01*
X-25141479Y-8724515D01*
X-25138271Y-8728271D01*
X-24951255Y-8887998D01*
X-24741554Y-9016503D01*
X-24736984Y-9018396D01*
X-24736980Y-9018398D01*
X-24518901Y-9108729D01*
X-24518895Y-9108731D01*
X-24514332Y-9110621D01*
X-24509532Y-9111773D01*
X-24509527Y-9111775D01*
X-24400134Y-9138038D01*
X-24275185Y-9168036D01*
X-24030000Y-9187332D01*
X-23784815Y-9168036D01*
X-23659866Y-9138038D01*
X-23550473Y-9111775D01*
X-23550468Y-9111773D01*
X-23545668Y-9110621D01*
X-23541105Y-9108731D01*
X-23541099Y-9108729D01*
X-23323020Y-9018398D01*
X-23323016Y-9018396D01*
X-23318446Y-9016503D01*
X-23108745Y-8887998D01*
X-22921729Y-8728271D01*
X-22918521Y-8724515D01*
X-22918516Y-8724510D01*
X-22855811Y-8651092D01*
X-22796361Y-8612282D01*
X-22725366Y-8611776D01*
X-22664189Y-8651092D01*
X-22601484Y-8724510D01*
X-22601479Y-8724515D01*
X-22598271Y-8728271D01*
X-22411255Y-8887998D01*
X-22201554Y-9016503D01*
X-22196984Y-9018396D01*
X-22196980Y-9018398D01*
X-21978901Y-9108729D01*
X-21978895Y-9108731D01*
X-21974332Y-9110621D01*
X-21969532Y-9111773D01*
X-21969527Y-9111775D01*
X-21860134Y-9138038D01*
X-21735185Y-9168036D01*
X-21490000Y-9187332D01*
X-21244815Y-9168036D01*
X-21119866Y-9138038D01*
X-21010473Y-9111775D01*
X-21010468Y-9111773D01*
X-21005668Y-9110621D01*
X-21001105Y-9108731D01*
X-21001099Y-9108729D01*
X-20783020Y-9018398D01*
X-20783016Y-9018396D01*
X-20778446Y-9016503D01*
X-20568745Y-8887998D01*
X-20381729Y-8728271D01*
X-20378521Y-8724515D01*
X-20378516Y-8724510D01*
X-20315811Y-8651092D01*
X-20256361Y-8612282D01*
X-20185366Y-8611776D01*
X-20124189Y-8651092D01*
X-20061484Y-8724510D01*
X-20061479Y-8724515D01*
X-20058271Y-8728271D01*
X-19871255Y-8887998D01*
X-19661554Y-9016503D01*
X-19656984Y-9018396D01*
X-19656980Y-9018398D01*
X-19438901Y-9108729D01*
X-19438895Y-9108731D01*
X-19434332Y-9110621D01*
X-19429532Y-9111773D01*
X-19429527Y-9111775D01*
X-19320134Y-9138038D01*
X-19195185Y-9168036D01*
X-18950000Y-9187332D01*
X-18704815Y-9168036D01*
X-18579866Y-9138038D01*
X-18470473Y-9111775D01*
X-18470468Y-9111773D01*
X-18465668Y-9110621D01*
X-18461105Y-9108731D01*
X-18461099Y-9108729D01*
X-18243020Y-9018398D01*
X-18243016Y-9018396D01*
X-18238446Y-9016503D01*
X-18028745Y-8887998D01*
X-17841729Y-8728271D01*
X-17838521Y-8724515D01*
X-17838516Y-8724510D01*
X-17775811Y-8651092D01*
X-17716361Y-8612282D01*
X-17645366Y-8611776D01*
X-17584189Y-8651092D01*
X-17521484Y-8724510D01*
X-17521479Y-8724515D01*
X-17518271Y-8728271D01*
X-17331255Y-8887998D01*
X-17121554Y-9016503D01*
X-17116984Y-9018396D01*
X-17116980Y-9018398D01*
X-16898901Y-9108729D01*
X-16898895Y-9108731D01*
X-16894332Y-9110621D01*
X-16889532Y-9111773D01*
X-16889527Y-9111775D01*
X-16780134Y-9138038D01*
X-16655185Y-9168036D01*
X-16410000Y-9187332D01*
X-16164815Y-9168036D01*
X-16039866Y-9138038D01*
X-15930473Y-9111775D01*
X-15930468Y-9111773D01*
X-15925668Y-9110621D01*
X-15921105Y-9108731D01*
X-15921099Y-9108729D01*
X-15703020Y-9018398D01*
X-15703016Y-9018396D01*
X-15698446Y-9016503D01*
X-15488745Y-8887998D01*
X-15301729Y-8728271D01*
X-15298521Y-8724515D01*
X-15298516Y-8724510D01*
X-15235811Y-8651092D01*
X-15176361Y-8612282D01*
X-15105366Y-8611776D01*
X-15044189Y-8651092D01*
X-14981484Y-8724510D01*
X-14981479Y-8724515D01*
X-14978271Y-8728271D01*
X-14791255Y-8887998D01*
X-14581554Y-9016503D01*
X-14576984Y-9018396D01*
X-14576980Y-9018398D01*
X-14358901Y-9108729D01*
X-14358895Y-9108731D01*
X-14354332Y-9110621D01*
X-14349532Y-9111773D01*
X-14349527Y-9111775D01*
X-14240134Y-9138038D01*
X-14115185Y-9168036D01*
X-13870000Y-9187332D01*
X-13624815Y-9168036D01*
X-13499866Y-9138038D01*
X-13390473Y-9111775D01*
X-13390468Y-9111773D01*
X-13385668Y-9110621D01*
X-13381105Y-9108731D01*
X-13381099Y-9108729D01*
X-13163020Y-9018398D01*
X-13163016Y-9018396D01*
X-13158446Y-9016503D01*
X-12948745Y-8887998D01*
X-12761729Y-8728271D01*
X-12758521Y-8724515D01*
X-12758516Y-8724510D01*
X-12695811Y-8651092D01*
X-12636361Y-8612282D01*
X-12565366Y-8611776D01*
X-12504189Y-8651092D01*
X-12441484Y-8724510D01*
X-12441479Y-8724515D01*
X-12438271Y-8728271D01*
X-12251255Y-8887998D01*
X-12041554Y-9016503D01*
X-12036984Y-9018396D01*
X-12036980Y-9018398D01*
X-11818901Y-9108729D01*
X-11818895Y-9108731D01*
X-11814332Y-9110621D01*
X-11809532Y-9111773D01*
X-11809527Y-9111775D01*
X-11700134Y-9138038D01*
X-11575185Y-9168036D01*
X-11330000Y-9187332D01*
X-11084815Y-9168036D01*
X-10959866Y-9138038D01*
X-10850473Y-9111775D01*
X-10850468Y-9111773D01*
X-10845668Y-9110621D01*
X-10841105Y-9108731D01*
X-10841099Y-9108729D01*
X-10623020Y-9018398D01*
X-10623016Y-9018396D01*
X-10618446Y-9016503D01*
X-10408745Y-8887998D01*
X-10221729Y-8728271D01*
X-10062002Y-8541255D01*
X-9933497Y-8331554D01*
X-9894066Y-8236359D01*
X-9841271Y-8108901D01*
X-9841269Y-8108895D01*
X-9839379Y-8104332D01*
X-9781964Y-7865185D01*
X-9762668Y-7620000D01*
X-9781964Y-7374815D01*
X-9839379Y-7135668D01*
X-9841269Y-7131105D01*
X-9841271Y-7131099D01*
X-9931602Y-6913020D01*
X-9931604Y-6913016D01*
X-9933497Y-6908446D01*
X-10062002Y-6698745D01*
X-10221729Y-6511729D01*
X-10408745Y-6352002D01*
X-10618446Y-6223497D01*
X-10623016Y-6221604D01*
X-10623020Y-6221602D01*
X-10841099Y-6131271D01*
X-10841105Y-6131269D01*
X-10845668Y-6129379D01*
X-10850468Y-6128227D01*
X-10850473Y-6128225D01*
X-10989852Y-6094763D01*
X-11084815Y-6071964D01*
X-11330000Y-6052668D01*
X-11575185Y-6071964D01*
X-11670148Y-6094763D01*
X-11809527Y-6128225D01*
X-11809532Y-6128227D01*
X-11814332Y-6129379D01*
X-11818895Y-6131269D01*
X-11818901Y-6131271D01*
X-12036980Y-6221602D01*
X-12036984Y-6221604D01*
X-12041554Y-6223497D01*
X-12251255Y-6352002D01*
X-12438271Y-6511729D01*
X-12441479Y-6515485D01*
X-12441484Y-6515490D01*
X-12504189Y-6588908D01*
X-12563639Y-6627718D01*
X-12634634Y-6628224D01*
X-12695811Y-6588908D01*
X-12758516Y-6515490D01*
X-12758521Y-6515485D01*
X-12761729Y-6511729D01*
X-12948745Y-6352002D01*
X-13158446Y-6223497D01*
X-13163016Y-6221604D01*
X-13163020Y-6221602D01*
X-13381099Y-6131271D01*
X-13381105Y-6131269D01*
X-13385668Y-6129379D01*
X-13390468Y-6128227D01*
X-13390473Y-6128225D01*
X-13529852Y-6094763D01*
X-13624815Y-6071964D01*
X-13870000Y-6052668D01*
X-14115185Y-6071964D01*
X-14210148Y-6094763D01*
X-14349527Y-6128225D01*
X-14349532Y-6128227D01*
X-14354332Y-6129379D01*
X-14358895Y-6131269D01*
X-14358901Y-6131271D01*
X-14576980Y-6221602D01*
X-14576984Y-6221604D01*
X-14581554Y-6223497D01*
X-14791255Y-6352002D01*
X-14978271Y-6511729D01*
X-14981479Y-6515485D01*
X-14981484Y-6515490D01*
X-15044189Y-6588908D01*
X-15103639Y-6627718D01*
X-15174634Y-6628224D01*
X-15235811Y-6588908D01*
X-15298516Y-6515490D01*
X-15298521Y-6515485D01*
X-15301729Y-6511729D01*
X-15488745Y-6352002D01*
X-15698446Y-6223497D01*
X-15703016Y-6221604D01*
X-15703020Y-6221602D01*
X-15921099Y-6131271D01*
X-15921105Y-6131269D01*
X-15925668Y-6129379D01*
X-15930468Y-6128227D01*
X-15930473Y-6128225D01*
X-16069852Y-6094763D01*
X-16164815Y-6071964D01*
X-16410000Y-6052668D01*
X-16655185Y-6071964D01*
X-16750148Y-6094763D01*
X-16889527Y-6128225D01*
X-16889532Y-6128227D01*
X-16894332Y-6129379D01*
X-16898895Y-6131269D01*
X-16898901Y-6131271D01*
X-17116980Y-6221602D01*
X-17116984Y-6221604D01*
X-17121554Y-6223497D01*
X-17331255Y-6352002D01*
X-17518271Y-6511729D01*
X-17521479Y-6515485D01*
X-17521484Y-6515490D01*
X-17584189Y-6588908D01*
X-17643639Y-6627718D01*
X-17714634Y-6628224D01*
X-17775811Y-6588908D01*
X-17838516Y-6515490D01*
X-17838521Y-6515485D01*
X-17841729Y-6511729D01*
X-18028745Y-6352002D01*
X-18238446Y-6223497D01*
X-18243016Y-6221604D01*
X-18243020Y-6221602D01*
X-18461099Y-6131271D01*
X-18461105Y-6131269D01*
X-18465668Y-6129379D01*
X-18470468Y-6128227D01*
X-18470473Y-6128225D01*
X-18609852Y-6094763D01*
X-18704815Y-6071964D01*
X-18950000Y-6052668D01*
X-19195185Y-6071964D01*
X-19290148Y-6094763D01*
X-19429527Y-6128225D01*
X-19429532Y-6128227D01*
X-19434332Y-6129379D01*
X-19438895Y-6131269D01*
X-19438901Y-6131271D01*
X-19656980Y-6221602D01*
X-19656984Y-6221604D01*
X-19661554Y-6223497D01*
X-19871255Y-6352002D01*
X-20058271Y-6511729D01*
X-20061479Y-6515485D01*
X-20061484Y-6515490D01*
X-20124189Y-6588908D01*
X-20183639Y-6627718D01*
X-20254634Y-6628224D01*
X-20315811Y-6588908D01*
X-20378516Y-6515490D01*
X-20378521Y-6515485D01*
X-20381729Y-6511729D01*
X-20568745Y-6352002D01*
X-20778446Y-6223497D01*
X-20783016Y-6221604D01*
X-20783020Y-6221602D01*
X-21001099Y-6131271D01*
X-21001105Y-6131269D01*
X-21005668Y-6129379D01*
X-21010468Y-6128227D01*
X-21010473Y-6128225D01*
X-21149852Y-6094763D01*
X-21244815Y-6071964D01*
X-21490000Y-6052668D01*
X-21735185Y-6071964D01*
X-21830148Y-6094763D01*
X-21969527Y-6128225D01*
X-21969532Y-6128227D01*
X-21974332Y-6129379D01*
X-21978895Y-6131269D01*
X-21978901Y-6131271D01*
X-22196980Y-6221602D01*
X-22196984Y-6221604D01*
X-22201554Y-6223497D01*
X-22411255Y-6352002D01*
X-22598271Y-6511729D01*
X-22601479Y-6515485D01*
X-22601484Y-6515490D01*
X-22664189Y-6588908D01*
X-22723639Y-6627718D01*
X-22794634Y-6628224D01*
X-22855811Y-6588908D01*
X-22918516Y-6515490D01*
X-22918521Y-6515485D01*
X-22921729Y-6511729D01*
X-23108745Y-6352002D01*
X-23318446Y-6223497D01*
X-23323016Y-6221604D01*
X-23323020Y-6221602D01*
X-23541099Y-6131271D01*
X-23541105Y-6131269D01*
X-23545668Y-6129379D01*
X-23550468Y-6128227D01*
X-23550473Y-6128225D01*
X-23689852Y-6094763D01*
X-23784815Y-6071964D01*
X-24030000Y-6052668D01*
X-24275185Y-6071964D01*
X-24370148Y-6094763D01*
X-24509527Y-6128225D01*
X-24509532Y-6128227D01*
X-24514332Y-6129379D01*
X-24518895Y-6131269D01*
X-24518901Y-6131271D01*
X-24736980Y-6221602D01*
X-24736984Y-6221604D01*
X-24741554Y-6223497D01*
X-24951255Y-6352002D01*
X-25138271Y-6511729D01*
X-25141479Y-6515485D01*
X-25141484Y-6515490D01*
X-25204189Y-6588908D01*
X-25263639Y-6627718D01*
X-25334634Y-6628224D01*
X-25395811Y-6588908D01*
X-25458516Y-6515490D01*
X-25458521Y-6515485D01*
X-25461729Y-6511729D01*
X-25648745Y-6352002D01*
X-25858446Y-6223497D01*
X-25863016Y-6221604D01*
X-25863020Y-6221602D01*
X-26081099Y-6131271D01*
X-26081105Y-6131269D01*
X-26085668Y-6129379D01*
X-26090468Y-6128227D01*
X-26090473Y-6128225D01*
X-26229852Y-6094763D01*
X-26324815Y-6071964D01*
X-26570000Y-6052668D01*
X-26815185Y-6071964D01*
X-26910148Y-6094763D01*
X-27049527Y-6128225D01*
X-27049532Y-6128227D01*
X-27054332Y-6129379D01*
X-27058895Y-6131269D01*
X-27058901Y-6131271D01*
X-27276980Y-6221602D01*
X-27276984Y-6221604D01*
X-27281554Y-6223497D01*
X-27491255Y-6352002D01*
X-27678271Y-6511729D01*
X-27681479Y-6515485D01*
X-27681484Y-6515490D01*
X-27744189Y-6588908D01*
X-27803639Y-6627718D01*
X-27874634Y-6628224D01*
X-27935811Y-6588908D01*
X-27998516Y-6515490D01*
X-27998521Y-6515485D01*
X-28001729Y-6511729D01*
X-28188745Y-6352002D01*
X-28398446Y-6223497D01*
X-28403016Y-6221604D01*
X-28403020Y-6221602D01*
X-28621099Y-6131271D01*
X-28621105Y-6131269D01*
X-28625668Y-6129379D01*
X-28630468Y-6128227D01*
X-28630473Y-6128225D01*
X-28769852Y-6094763D01*
X-28864815Y-6071964D01*
X-29110000Y-6052668D01*
X-29355185Y-6071964D01*
X-29450148Y-6094763D01*
X-29589527Y-6128225D01*
X-29589532Y-6128227D01*
X-29594332Y-6129379D01*
X-29598895Y-6131269D01*
X-29598901Y-6131271D01*
X-29816980Y-6221602D01*
X-29816984Y-6221604D01*
X-29821554Y-6223497D01*
X-30031255Y-6352002D01*
X-30218271Y-6511729D01*
X-30377998Y-6698745D01*
X-30421255Y-6769334D01*
X-30461945Y-6835734D01*
X-30514593Y-6883365D01*
X-30543765Y-6888473D01*
X-30576435Y-6905645D01*
X-31277978Y-7607188D01*
X-31285592Y-7621132D01*
X-32015644Y-7621132D01*
X-32014408Y-7618868D01*
X-32014539Y-7617035D01*
X-32018790Y-7610420D01*
X-32724287Y-6904923D01*
X-32736062Y-6898493D01*
X-32748077Y-6907789D01*
X-32783931Y-6958994D01*
X-32789414Y-6968489D01*
X-32805805Y-7003641D01*
X-32852722Y-7056926D01*
X-32920999Y-7076387D01*
X-32988959Y-7055845D01*
X-33034195Y-7003641D01*
X-33050586Y-6968489D01*
X-33056069Y-6958994D01*
X-33092509Y-6906952D01*
X-33102988Y-6898576D01*
X-33116434Y-6905644D01*
X-33817978Y-7607188D01*
X-33825592Y-7621132D01*
X-34555644Y-7621132D01*
X-34554408Y-7618868D01*
X-34554539Y-7617035D01*
X-34558790Y-7610420D01*
X-35264287Y-6904923D01*
X-35293115Y-6889181D01*
X-35330686Y-6881009D01*
X-35377736Y-6836255D01*
X-35418745Y-6769334D01*
X-35462002Y-6698745D01*
X-35603572Y-6532988D01*
X-34911424Y-6532988D01*
X-34904356Y-6546434D01*
X-34202812Y-7247978D01*
X-34188868Y-7255592D01*
X-34187035Y-7255461D01*
X-34180420Y-7251210D01*
X-33474923Y-6545713D01*
X-33468493Y-6533938D01*
X-33469228Y-6532988D01*
X-32371424Y-6532988D01*
X-32364356Y-6546434D01*
X-31662812Y-7247978D01*
X-31648868Y-7255592D01*
X-31647035Y-7255461D01*
X-31640420Y-7251210D01*
X-30934923Y-6545713D01*
X-30928493Y-6533938D01*
X-30937789Y-6521923D01*
X-30988994Y-6486069D01*
X-30998489Y-6480586D01*
X-31195947Y-6388510D01*
X-31206239Y-6384764D01*
X-31416688Y-6328375D01*
X-31427481Y-6326472D01*
X-31644525Y-6307483D01*
X-31655475Y-6307483D01*
X-31872519Y-6326472D01*
X-31883312Y-6328375D01*
X-32093761Y-6384764D01*
X-32104053Y-6388510D01*
X-32301511Y-6480586D01*
X-32311006Y-6486069D01*
X-32363048Y-6522509D01*
X-32371424Y-6532988D01*
X-33469228Y-6532988D01*
X-33477789Y-6521923D01*
X-33528994Y-6486069D01*
X-33538489Y-6480586D01*
X-33735947Y-6388510D01*
X-33746239Y-6384764D01*
X-33956688Y-6328375D01*
X-33967481Y-6326472D01*
X-34184525Y-6307483D01*
X-34195475Y-6307483D01*
X-34412519Y-6326472D01*
X-34423312Y-6328375D01*
X-34633761Y-6384764D01*
X-34644053Y-6388510D01*
X-34841511Y-6480586D01*
X-34851006Y-6486069D01*
X-34903048Y-6522509D01*
X-34911424Y-6532988D01*
X-35603572Y-6532988D01*
X-35621729Y-6511729D01*
X-35808745Y-6352002D01*
X-36018446Y-6223497D01*
X-36023016Y-6221604D01*
X-36023020Y-6221602D01*
X-36241099Y-6131271D01*
X-36241105Y-6131269D01*
X-36245668Y-6129379D01*
X-36250468Y-6128227D01*
X-36250473Y-6128225D01*
X-36389852Y-6094763D01*
X-36484815Y-6071964D01*
X-36730000Y-6052668D01*
X-36975185Y-6071964D01*
X-37070148Y-6094763D01*
X-37209527Y-6128225D01*
X-37209532Y-6128227D01*
X-37214332Y-6129379D01*
X-37218895Y-6131269D01*
X-37218901Y-6131271D01*
X-37436980Y-6221602D01*
X-37436984Y-6221604D01*
X-37441554Y-6223497D01*
X-37651255Y-6352002D01*
X-37655010Y-6355209D01*
X-37655014Y-6355212D01*
X-37678025Y-6374866D01*
X-37742815Y-6403897D01*
X-37813015Y-6393292D01*
X-37857878Y-6353453D01*
X-37859969Y-6355110D01*
X-37864512Y-6349378D01*
X-37868366Y-6343150D01*
X-37994201Y-6217534D01*
X-38038712Y-6190097D01*
X-38050779Y-6182659D01*
X-38145560Y-6124236D01*
X-38152509Y-6121931D01*
X-38307791Y-6070425D01*
X-38307793Y-6070424D01*
X-38314322Y-6068259D01*
X-38419334Y-6057500D01*
X-40120666Y-6057500D01*
X-40123912Y-6057837D01*
X-40123916Y-6057837D01*
X-40220132Y-6067820D01*
X-40220136Y-6067821D01*
X-40226990Y-6068532D01*
X-40233526Y-6070713D01*
X-40233528Y-6070713D01*
X-40305614Y-6094763D01*
X-40395654Y-6124803D01*
X-40546850Y-6218366D01*
X-40672466Y-6344201D01*
X-40676306Y-6350431D01*
X-40676307Y-6350432D01*
X-40679253Y-6355212D01*
X-40765764Y-6495560D01*
X-40768069Y-6502508D01*
X-40768069Y-6502509D01*
X-40782638Y-6546434D01*
X-40821741Y-6664322D01*
X-40832500Y-6769334D01*
X-40832500Y-8470666D01*
X-42237500Y-8470666D01*
X-42237500Y-4482670D01*
X-41117840Y-4482670D01*
X-41112113Y-4490320D01*
X-40940958Y-4595205D01*
X-40932163Y-4599687D01*
X-40722012Y-4686734D01*
X-40712627Y-4689783D01*
X-40491446Y-4742885D01*
X-40481699Y-4744428D01*
X-40254930Y-4762275D01*
X-40245070Y-4762275D01*
X-40018301Y-4744428D01*
X-40008554Y-4742885D01*
X-39787373Y-4689783D01*
X-39777988Y-4686734D01*
X-39567837Y-4599687D01*
X-39559042Y-4595205D01*
X-39391555Y-4492568D01*
X-39382093Y-4482110D01*
X-39385876Y-4473334D01*
X-40237188Y-3622022D01*
X-40251132Y-3614408D01*
X-40252965Y-3614539D01*
X-40259580Y-3618790D01*
X-41111080Y-4470290D01*
X-41117840Y-4482670D01*
X-42237500Y-4482670D01*
X-42237500Y-3254930D01*
X-41762275Y-3254930D01*
X-41744428Y-3481699D01*
X-41742885Y-3491446D01*
X-41689783Y-3712627D01*
X-41686734Y-3722012D01*
X-41599687Y-3932163D01*
X-41595205Y-3940958D01*
X-41492568Y-4108445D01*
X-41482110Y-4117907D01*
X-41473334Y-4114124D01*
X-40622022Y-3262812D01*
X-40615644Y-3251132D01*
X-39885592Y-3251132D01*
X-39885461Y-3252965D01*
X-39881210Y-3259580D01*
X-39029710Y-4111080D01*
X-39017330Y-4117840D01*
X-39009680Y-4112113D01*
X-38904795Y-3940958D01*
X-38900313Y-3932163D01*
X-38813266Y-3722012D01*
X-38810217Y-3712627D01*
X-38757115Y-3491446D01*
X-38755572Y-3481699D01*
X-38737725Y-3254930D01*
X-38737725Y-3245070D01*
X-38740978Y-3203734D01*
X-37516836Y-3203734D01*
X-37516612Y-3208401D01*
X-37516612Y-3208406D01*
X-37511387Y-3317188D01*
X-37504268Y-3465397D01*
X-37494670Y-3513648D01*
X-37461113Y-3682349D01*
X-37453161Y-3722328D01*
X-37451582Y-3726726D01*
X-37451580Y-3726733D01*
X-37399283Y-3872392D01*
X-37364639Y-3968883D01*
X-37240645Y-4199646D01*
X-37237850Y-4203389D01*
X-37237848Y-4203392D01*
X-37086697Y-4405808D01*
X-37086692Y-4405814D01*
X-37083905Y-4409546D01*
X-37080596Y-4412826D01*
X-37080591Y-4412832D01*
X-36909142Y-4582791D01*
X-36897862Y-4593973D01*
X-36894100Y-4596731D01*
X-36894097Y-4596734D01*
X-36731994Y-4715593D01*
X-36686602Y-4748876D01*
X-36682471Y-4751050D01*
X-36682470Y-4751050D01*
X-36458901Y-4868675D01*
X-36458895Y-4868677D01*
X-36454766Y-4870850D01*
X-36450358Y-4872389D01*
X-36450352Y-4872392D01*
X-36211864Y-4955676D01*
X-36207448Y-4957218D01*
X-35950080Y-5006081D01*
X-35825825Y-5010963D01*
X-35692985Y-5016182D01*
X-35692980Y-5016182D01*
X-35688317Y-5016365D01*
X-35586460Y-5005210D01*
X-35432562Y-4988356D01*
X-35432556Y-4988355D01*
X-35427909Y-4987846D01*
X-35305719Y-4955676D01*
X-35179100Y-4922340D01*
X-35179098Y-4922339D01*
X-35174577Y-4921149D01*
X-35061092Y-4872392D01*
X-34938180Y-4819585D01*
X-34938178Y-4819584D01*
X-34933886Y-4817740D01*
X-34711124Y-4679891D01*
X-34511184Y-4510629D01*
X-34419258Y-4405808D01*
X-34341540Y-4317188D01*
X-34341536Y-4317183D01*
X-34338458Y-4313673D01*
X-34329658Y-4299992D01*
X-34199270Y-4097281D01*
X-34199267Y-4097276D01*
X-34196742Y-4093350D01*
X-34089148Y-3854501D01*
X-34018040Y-3602371D01*
X-34001198Y-3469985D01*
X-33985378Y-3345631D01*
X-33985378Y-3345627D01*
X-33984980Y-3342501D01*
X-33984839Y-3337139D01*
X-33983336Y-3279704D01*
X-33982558Y-3250000D01*
X-33998864Y-3030575D01*
X-34001626Y-2993407D01*
X-34001627Y-2993403D01*
X-34001972Y-2988755D01*
X-34059787Y-2733250D01*
X-34064034Y-2722328D01*
X-34153040Y-2493450D01*
X-34153041Y-2493448D01*
X-34154733Y-2489097D01*
X-34165656Y-2469985D01*
X-34282405Y-2265716D01*
X-34282407Y-2265714D01*
X-34284724Y-2261659D01*
X-34330388Y-2203734D01*
X-5016836Y-2203734D01*
X-5004268Y-2465397D01*
X-4998688Y-2493450D01*
X-4960612Y-2684867D01*
X-4953161Y-2722328D01*
X-4951582Y-2726726D01*
X-4951580Y-2726733D01*
X-4875530Y-2938550D01*
X-4864639Y-2968883D01*
X-4740645Y-3199646D01*
X-4737850Y-3203389D01*
X-4737848Y-3203392D01*
X-4586697Y-3405808D01*
X-4586692Y-3405814D01*
X-4583905Y-3409546D01*
X-4580596Y-3412826D01*
X-4580591Y-3412832D01*
X-4401179Y-3590685D01*
X-4397862Y-3593973D01*
X-4394100Y-3596731D01*
X-4394097Y-3596734D01*
X-4242123Y-3708166D01*
X-4186602Y-3748876D01*
X-4182471Y-3751050D01*
X-4182470Y-3751050D01*
X-3958901Y-3868675D01*
X-3958895Y-3868677D01*
X-3954766Y-3870850D01*
X-3950358Y-3872389D01*
X-3950352Y-3872392D01*
X-3711864Y-3955676D01*
X-3707448Y-3957218D01*
X-3450080Y-4006081D01*
X-3325825Y-4010963D01*
X-3192985Y-4016182D01*
X-3192980Y-4016182D01*
X-3188317Y-4016365D01*
X-3076498Y-4004119D01*
X-2932562Y-3988356D01*
X-2932556Y-3988355D01*
X-2927909Y-3987846D01*
X-2871554Y-3973009D01*
X-2679100Y-3922340D01*
X-2679098Y-3922339D01*
X-2674577Y-3921149D01*
X-2552440Y-3868675D01*
X-2438180Y-3819585D01*
X-2438178Y-3819584D01*
X-2433886Y-3817740D01*
X-2211124Y-3679891D01*
X-2011184Y-3510629D01*
X-1975540Y-3469985D01*
X-1841540Y-3317188D01*
X-1841536Y-3317183D01*
X-1838458Y-3313673D01*
X-1835928Y-3309740D01*
X-1699270Y-3097281D01*
X-1699267Y-3097276D01*
X-1696742Y-3093350D01*
X-1589148Y-2854501D01*
X-1518040Y-2602371D01*
X-1501198Y-2469985D01*
X-1485378Y-2345631D01*
X-1485378Y-2345627D01*
X-1484980Y-2342501D01*
X-1482558Y-2250000D01*
X-1485843Y-2205790D01*
X-1485996Y-2203734D01*
X1483164Y-2203734D01*
X1495732Y-2465397D01*
X1501312Y-2493450D01*
X1539388Y-2684867D01*
X1546839Y-2722328D01*
X1548418Y-2726726D01*
X1548420Y-2726733D01*
X1624470Y-2938550D01*
X1635361Y-2968883D01*
X1759355Y-3199646D01*
X1762150Y-3203389D01*
X1762152Y-3203392D01*
X1913303Y-3405808D01*
X1913308Y-3405814D01*
X1916095Y-3409546D01*
X1919404Y-3412826D01*
X1919409Y-3412832D01*
X2098821Y-3590685D01*
X2102138Y-3593973D01*
X2105900Y-3596731D01*
X2105903Y-3596734D01*
X2257877Y-3708166D01*
X2313398Y-3748876D01*
X2317529Y-3751050D01*
X2317530Y-3751050D01*
X2541099Y-3868675D01*
X2541105Y-3868677D01*
X2545234Y-3870850D01*
X2549642Y-3872389D01*
X2549648Y-3872392D01*
X2788136Y-3955676D01*
X2792552Y-3957218D01*
X3049920Y-4006081D01*
X3174175Y-4010963D01*
X3307015Y-4016182D01*
X3307020Y-4016182D01*
X3311683Y-4016365D01*
X3423502Y-4004119D01*
X3567438Y-3988356D01*
X3567444Y-3988355D01*
X3572091Y-3987846D01*
X3628446Y-3973009D01*
X3820900Y-3922340D01*
X3820902Y-3922339D01*
X3825423Y-3921149D01*
X3947560Y-3868675D01*
X4061820Y-3819585D01*
X4061822Y-3819584D01*
X4066114Y-3817740D01*
X4288876Y-3679891D01*
X4488816Y-3510629D01*
X4524460Y-3469985D01*
X4658460Y-3317188D01*
X4658464Y-3317183D01*
X4661542Y-3313673D01*
X4664072Y-3309740D01*
X4800730Y-3097281D01*
X4800733Y-3097276D01*
X4803258Y-3093350D01*
X4910852Y-2854501D01*
X4981960Y-2602371D01*
X4998802Y-2469985D01*
X5014622Y-2345631D01*
X5014622Y-2345627D01*
X5015020Y-2342501D01*
X5017442Y-2250000D01*
X5014157Y-2205790D01*
X5014004Y-2203734D01*
X9983164Y-2203734D01*
X9995732Y-2465397D01*
X10001312Y-2493450D01*
X10039388Y-2684867D01*
X10046839Y-2722328D01*
X10048418Y-2726726D01*
X10048420Y-2726733D01*
X10124470Y-2938550D01*
X10135361Y-2968883D01*
X10259355Y-3199646D01*
X10262150Y-3203389D01*
X10262152Y-3203392D01*
X10413303Y-3405808D01*
X10413308Y-3405814D01*
X10416095Y-3409546D01*
X10419404Y-3412826D01*
X10419409Y-3412832D01*
X10598821Y-3590685D01*
X10602138Y-3593973D01*
X10605900Y-3596731D01*
X10605903Y-3596734D01*
X10757877Y-3708166D01*
X10813398Y-3748876D01*
X10817529Y-3751050D01*
X10817530Y-3751050D01*
X11041099Y-3868675D01*
X11041105Y-3868677D01*
X11045234Y-3870850D01*
X11049642Y-3872389D01*
X11049648Y-3872392D01*
X11288136Y-3955676D01*
X11292552Y-3957218D01*
X11549920Y-4006081D01*
X11674175Y-4010963D01*
X11807015Y-4016182D01*
X11807020Y-4016182D01*
X11811683Y-4016365D01*
X11923502Y-4004119D01*
X12067438Y-3988356D01*
X12067444Y-3988355D01*
X12072091Y-3987846D01*
X12128446Y-3973009D01*
X12320900Y-3922340D01*
X12320902Y-3922339D01*
X12325423Y-3921149D01*
X12447560Y-3868675D01*
X12561820Y-3819585D01*
X12561822Y-3819584D01*
X12566114Y-3817740D01*
X12788876Y-3679891D01*
X12988816Y-3510629D01*
X13024460Y-3469985D01*
X13158460Y-3317188D01*
X13158464Y-3317183D01*
X13161542Y-3313673D01*
X13164072Y-3309740D01*
X13300730Y-3097281D01*
X13300733Y-3097276D01*
X13303258Y-3093350D01*
X13410852Y-2854501D01*
X13481960Y-2602371D01*
X13498802Y-2469985D01*
X13514622Y-2345631D01*
X13514622Y-2345627D01*
X13515020Y-2342501D01*
X13517442Y-2250000D01*
X13514157Y-2205790D01*
X13514004Y-2203734D01*
X16483164Y-2203734D01*
X16495732Y-2465397D01*
X16501312Y-2493450D01*
X16539388Y-2684867D01*
X16546839Y-2722328D01*
X16548418Y-2726726D01*
X16548420Y-2726733D01*
X16624470Y-2938550D01*
X16635361Y-2968883D01*
X16759355Y-3199646D01*
X16762150Y-3203389D01*
X16762152Y-3203392D01*
X16913303Y-3405808D01*
X16913308Y-3405814D01*
X16916095Y-3409546D01*
X16919404Y-3412826D01*
X16919409Y-3412832D01*
X17098821Y-3590685D01*
X17102138Y-3593973D01*
X17105900Y-3596731D01*
X17105903Y-3596734D01*
X17257877Y-3708166D01*
X17313398Y-3748876D01*
X17317529Y-3751050D01*
X17317530Y-3751050D01*
X17541099Y-3868675D01*
X17541105Y-3868677D01*
X17545234Y-3870850D01*
X17549642Y-3872389D01*
X17549648Y-3872392D01*
X17788136Y-3955676D01*
X17792552Y-3957218D01*
X18049920Y-4006081D01*
X18174175Y-4010963D01*
X18307015Y-4016182D01*
X18307020Y-4016182D01*
X18311683Y-4016365D01*
X18423502Y-4004119D01*
X18567438Y-3988356D01*
X18567444Y-3988355D01*
X18572091Y-3987846D01*
X18628446Y-3973009D01*
X18820900Y-3922340D01*
X18820902Y-3922339D01*
X18825423Y-3921149D01*
X18947560Y-3868675D01*
X19061820Y-3819585D01*
X19061822Y-3819584D01*
X19066114Y-3817740D01*
X19288876Y-3679891D01*
X19488816Y-3510629D01*
X19524460Y-3469985D01*
X19658460Y-3317188D01*
X19658464Y-3317183D01*
X19661542Y-3313673D01*
X19664072Y-3309740D01*
X19800730Y-3097281D01*
X19800733Y-3097276D01*
X19803258Y-3093350D01*
X19910852Y-2854501D01*
X19981960Y-2602371D01*
X19998802Y-2469985D01*
X20014622Y-2345631D01*
X20014622Y-2345627D01*
X20015020Y-2342501D01*
X20017442Y-2250000D01*
X20014157Y-2205790D01*
X19998374Y-1993407D01*
X19998373Y-1993403D01*
X19998028Y-1988755D01*
X19992598Y-1964758D01*
X23558004Y-1964758D01*
X23558301Y-1969910D01*
X23558301Y-1969914D01*
X23561749Y-2029710D01*
X23571611Y-2200747D01*
X23572746Y-2205784D01*
X23572747Y-2205790D01*
X23615779Y-2396738D01*
X23623578Y-2431345D01*
X23625522Y-2436131D01*
X23625523Y-2436136D01*
X23691144Y-2597740D01*
X23712510Y-2650358D01*
X23836019Y-2851906D01*
X23990787Y-3030575D01*
X24172658Y-3181567D01*
X24177110Y-3184169D01*
X24177115Y-3184172D01*
X24344504Y-3281986D01*
X24376748Y-3300828D01*
X24597576Y-3385154D01*
X24602642Y-3386185D01*
X24602643Y-3386185D01*
X24699095Y-3405808D01*
X24829211Y-3432280D01*
X24962359Y-3437162D01*
X25060269Y-3440753D01*
X25060273Y-3440753D01*
X25065433Y-3440942D01*
X25070553Y-3440286D01*
X25070555Y-3440286D01*
X25294770Y-3411564D01*
X25294773Y-3411563D01*
X25299897Y-3410907D01*
X25304847Y-3409422D01*
X25521353Y-3344467D01*
X25521358Y-3344465D01*
X25526308Y-3342980D01*
X25627297Y-3293506D01*
X25697271Y-3281499D01*
X25762628Y-3309229D01*
X25802618Y-3367892D01*
X25806308Y-3431238D01*
X25756849Y-3679891D01*
X25752043Y-3704051D01*
X25751774Y-3708162D01*
X25751773Y-3708166D01*
X25742477Y-3849991D01*
X25733320Y-3989703D01*
X25732645Y-4000000D01*
X25733044Y-4006081D01*
X25744667Y-4183409D01*
X25752043Y-4295949D01*
X25752847Y-4299989D01*
X25752847Y-4299992D01*
X25760230Y-4337110D01*
X25809903Y-4586835D01*
X25811228Y-4590738D01*
X25811229Y-4590742D01*
X25855934Y-4722437D01*
X25905237Y-4867679D01*
X26036413Y-5133677D01*
X26201186Y-5380278D01*
X26203900Y-5383372D01*
X26203904Y-5383378D01*
X26394029Y-5600173D01*
X26396738Y-5603262D01*
X26399827Y-5605971D01*
X26616622Y-5796096D01*
X26616628Y-5796100D01*
X26619722Y-5798814D01*
X26623148Y-5801103D01*
X26623153Y-5801107D01*
X26808292Y-5924812D01*
X26866322Y-5963587D01*
X26870021Y-5965411D01*
X26870026Y-5965414D01*
X27006484Y-6032707D01*
X27132321Y-6094763D01*
X27136226Y-6096089D01*
X27136227Y-6096089D01*
X27409258Y-6188771D01*
X27409262Y-6188772D01*
X27413165Y-6190097D01*
X27606981Y-6228649D01*
X27700008Y-6247153D01*
X27700011Y-6247153D01*
X27704051Y-6247957D01*
X27708162Y-6248226D01*
X27708166Y-6248227D01*
X27995881Y-6267085D01*
X28000000Y-6267355D01*
X28004119Y-6267085D01*
X28291834Y-6248227D01*
X28291838Y-6248226D01*
X28295949Y-6247957D01*
X28299989Y-6247153D01*
X28299992Y-6247153D01*
X28393019Y-6228649D01*
X28586835Y-6190097D01*
X28590738Y-6188772D01*
X28590742Y-6188771D01*
X28863773Y-6096089D01*
X28863774Y-6096089D01*
X28867679Y-6094763D01*
X28993516Y-6032707D01*
X29129974Y-5965414D01*
X29129979Y-5965411D01*
X29133678Y-5963587D01*
X29191708Y-5924812D01*
X29376847Y-5801107D01*
X29376852Y-5801103D01*
X29380278Y-5798814D01*
X29383372Y-5796100D01*
X29383378Y-5796096D01*
X29600173Y-5605971D01*
X29603262Y-5603262D01*
X29605971Y-5600173D01*
X29796096Y-5383378D01*
X29796100Y-5383372D01*
X29798814Y-5380278D01*
X29963587Y-5133677D01*
X30094763Y-4867679D01*
X30144066Y-4722437D01*
X30188771Y-4590742D01*
X30188772Y-4590738D01*
X30190097Y-4586835D01*
X30239770Y-4337110D01*
X30247153Y-4299992D01*
X30247153Y-4299989D01*
X30247957Y-4295949D01*
X30255334Y-4183409D01*
X30266956Y-4006081D01*
X30267355Y-4000000D01*
X33232642Y-4000000D01*
X33233041Y-4006081D01*
X33244664Y-4183409D01*
X33252040Y-4295949D01*
X33252844Y-4299989D01*
X33252844Y-4299992D01*
X33260227Y-4337110D01*
X33309900Y-4586835D01*
X33311225Y-4590738D01*
X33311226Y-4590742D01*
X33355931Y-4722437D01*
X33405234Y-4867679D01*
X33536410Y-5133677D01*
X33701183Y-5380278D01*
X33703897Y-5383372D01*
X33703901Y-5383378D01*
X33894026Y-5600173D01*
X33896735Y-5603262D01*
X33899824Y-5605971D01*
X34116619Y-5796096D01*
X34116625Y-5796100D01*
X34119719Y-5798814D01*
X34123145Y-5801103D01*
X34123150Y-5801107D01*
X34308289Y-5924812D01*
X34366319Y-5963587D01*
X34370018Y-5965411D01*
X34370023Y-5965414D01*
X34506481Y-6032707D01*
X34632318Y-6094763D01*
X34636223Y-6096089D01*
X34636224Y-6096089D01*
X34909255Y-6188771D01*
X34909259Y-6188772D01*
X34913162Y-6190097D01*
X35106978Y-6228649D01*
X35200005Y-6247153D01*
X35200008Y-6247153D01*
X35204048Y-6247957D01*
X35208159Y-6248226D01*
X35208163Y-6248227D01*
X35495878Y-6267085D01*
X35499997Y-6267355D01*
X35504116Y-6267085D01*
X35791831Y-6248227D01*
X35791835Y-6248226D01*
X35795946Y-6247957D01*
X35799986Y-6247153D01*
X35799989Y-6247153D01*
X35893016Y-6228649D01*
X36086832Y-6190097D01*
X36090735Y-6188772D01*
X36090739Y-6188771D01*
X36363770Y-6096089D01*
X36363771Y-6096089D01*
X36367676Y-6094763D01*
X36493513Y-6032707D01*
X36629971Y-5965414D01*
X36629976Y-5965411D01*
X36633675Y-5963587D01*
X36691705Y-5924812D01*
X36876844Y-5801107D01*
X36876849Y-5801103D01*
X36880275Y-5798814D01*
X36883369Y-5796100D01*
X36883375Y-5796096D01*
X37100170Y-5605971D01*
X37103259Y-5603262D01*
X37105968Y-5600173D01*
X37296093Y-5383378D01*
X37296097Y-5383372D01*
X37298811Y-5380278D01*
X37463584Y-5133677D01*
X37594760Y-4867679D01*
X37644063Y-4722437D01*
X37688768Y-4590742D01*
X37688769Y-4590738D01*
X37690094Y-4586835D01*
X37739767Y-4337110D01*
X37747150Y-4299992D01*
X37747150Y-4299989D01*
X37747954Y-4295949D01*
X37755331Y-4183409D01*
X37766953Y-4006081D01*
X37767352Y-4000000D01*
X37757520Y-3849991D01*
X37748224Y-3708166D01*
X37748223Y-3708162D01*
X37747954Y-3704051D01*
X37690094Y-3413165D01*
X37680936Y-3386185D01*
X37596086Y-3136227D01*
X37596086Y-3136226D01*
X37594760Y-3132321D01*
X37511987Y-2964474D01*
X37465411Y-2870027D01*
X37465408Y-2870022D01*
X37463584Y-2866323D01*
X37298811Y-2619722D01*
X37296097Y-2616628D01*
X37296093Y-2616622D01*
X37105968Y-2399827D01*
X37103259Y-2396738D01*
X36998448Y-2304821D01*
X36883375Y-2203904D01*
X36883369Y-2203900D01*
X36880275Y-2201186D01*
X36876845Y-2198894D01*
X36876844Y-2198893D01*
X36662889Y-2055933D01*
X36633675Y-2036413D01*
X36629976Y-2034589D01*
X36629971Y-2034586D01*
X36435228Y-1938550D01*
X36367676Y-1905237D01*
X36363770Y-1903911D01*
X36090739Y-1811229D01*
X36090735Y-1811228D01*
X36086832Y-1809903D01*
X35832908Y-1759395D01*
X35799989Y-1752847D01*
X35799986Y-1752847D01*
X35795946Y-1752043D01*
X35791835Y-1751774D01*
X35791831Y-1751773D01*
X35504116Y-1732915D01*
X35499997Y-1732645D01*
X35495878Y-1732915D01*
X35208163Y-1751773D01*
X35208159Y-1751774D01*
X35204048Y-1752043D01*
X35200008Y-1752847D01*
X35200005Y-1752847D01*
X35167086Y-1759395D01*
X34913162Y-1809903D01*
X34909259Y-1811228D01*
X34909255Y-1811229D01*
X34636224Y-1903911D01*
X34632318Y-1905237D01*
X34564766Y-1938550D01*
X34370024Y-2034586D01*
X34370019Y-2034589D01*
X34366320Y-2036413D01*
X34119719Y-2201186D01*
X34116625Y-2203900D01*
X34116619Y-2203904D01*
X34001546Y-2304821D01*
X33896735Y-2396738D01*
X33894026Y-2399827D01*
X33703901Y-2616622D01*
X33703897Y-2616628D01*
X33701183Y-2619722D01*
X33536410Y-2866323D01*
X33534586Y-2870022D01*
X33534583Y-2870027D01*
X33488007Y-2964474D01*
X33405234Y-3132321D01*
X33403908Y-3136226D01*
X33403908Y-3136227D01*
X33319059Y-3386185D01*
X33309900Y-3413165D01*
X33252040Y-3704051D01*
X33251771Y-3708162D01*
X33251770Y-3708166D01*
X33242474Y-3849991D01*
X33233317Y-3989703D01*
X33232642Y-4000000D01*
X30267355Y-4000000D01*
X30257523Y-3849991D01*
X30248227Y-3708166D01*
X30248226Y-3708162D01*
X30247957Y-3704051D01*
X30190097Y-3413165D01*
X30180939Y-3386185D01*
X30096089Y-3136227D01*
X30096089Y-3136226D01*
X30094763Y-3132321D01*
X30011990Y-2964474D01*
X29965414Y-2870027D01*
X29965411Y-2870022D01*
X29963587Y-2866323D01*
X29798814Y-2619722D01*
X29796100Y-2616628D01*
X29796096Y-2616622D01*
X29605971Y-2399827D01*
X29603262Y-2396738D01*
X29498451Y-2304821D01*
X29383378Y-2203904D01*
X29383372Y-2203900D01*
X29380278Y-2201186D01*
X29376848Y-2198894D01*
X29376847Y-2198893D01*
X29162892Y-2055933D01*
X29133678Y-2036413D01*
X29129979Y-2034589D01*
X29129974Y-2034586D01*
X28935231Y-1938550D01*
X28867679Y-1905237D01*
X28863773Y-1903911D01*
X28590742Y-1811229D01*
X28590738Y-1811228D01*
X28586835Y-1809903D01*
X28332911Y-1759395D01*
X28299992Y-1752847D01*
X28299989Y-1752847D01*
X28295949Y-1752043D01*
X28291838Y-1751774D01*
X28291834Y-1751773D01*
X28004119Y-1732915D01*
X28000000Y-1732645D01*
X27995881Y-1732915D01*
X27708166Y-1751773D01*
X27708162Y-1751774D01*
X27704051Y-1752043D01*
X27700011Y-1752847D01*
X27700008Y-1752847D01*
X27667089Y-1759395D01*
X27413165Y-1809903D01*
X27409262Y-1811228D01*
X27409258Y-1811229D01*
X27136227Y-1903911D01*
X27132321Y-1905237D01*
X27064769Y-1938550D01*
X26870027Y-2034586D01*
X26870022Y-2034589D01*
X26866323Y-2036413D01*
X26711128Y-2140111D01*
X26635721Y-2190496D01*
X26567968Y-2211711D01*
X26499501Y-2192928D01*
X26452058Y-2140111D01*
X26440098Y-2075962D01*
X26440267Y-2073790D01*
X26440705Y-2070462D01*
X26441990Y-2017890D01*
X26442345Y-2003365D01*
X26442345Y-2003361D01*
X26442427Y-2000000D01*
X26423058Y-1764414D01*
X26365472Y-1535155D01*
X26271216Y-1318380D01*
X26142820Y-1119910D01*
X26139346Y-1116092D01*
X26139339Y-1116083D01*
X26112410Y-1086489D01*
X26081358Y-1022643D01*
X26089752Y-952145D01*
X26103280Y-928163D01*
X26233383Y-747105D01*
X26236401Y-742905D01*
X26242886Y-729785D01*
X26338841Y-535635D01*
X26338842Y-535633D01*
X26341135Y-530993D01*
X26409851Y-304821D01*
X26440705Y-70462D01*
X26442427Y0D01*
X26423058Y235586D01*
X26365472Y464845D01*
X26294701Y627608D01*
X26273276Y676883D01*
X26273274Y676886D01*
X26271216Y681620D01*
X26262947Y694402D01*
X26242740Y762462D01*
X26262536Y830643D01*
X26269855Y840932D01*
X26272292Y844018D01*
X26277466Y849201D01*
X26370764Y1000560D01*
X26426741Y1169322D01*
X26437500Y1274334D01*
X26437500Y2087213D01*
X26457502Y2155334D01*
X26511158Y2201827D01*
X26581432Y2211931D01*
X26633502Y2191978D01*
X26779850Y2094192D01*
X26866322Y2036413D01*
X26870021Y2034589D01*
X26870026Y2034586D01*
X26954594Y1992882D01*
X27132321Y1905237D01*
X27136226Y1903911D01*
X27136227Y1903911D01*
X27409258Y1811229D01*
X27409262Y1811228D01*
X27413165Y1809903D01*
X27597349Y1773267D01*
X27700008Y1752847D01*
X27700011Y1752847D01*
X27704051Y1752043D01*
X27708162Y1751774D01*
X27708166Y1751773D01*
X27995881Y1732915D01*
X28000000Y1732645D01*
X28004119Y1732915D01*
X28291834Y1751773D01*
X28291838Y1751774D01*
X28295949Y1752043D01*
X28299989Y1752847D01*
X28299992Y1752847D01*
X28402651Y1773267D01*
X28586835Y1809903D01*
X28590738Y1811228D01*
X28590742Y1811229D01*
X28863773Y1903911D01*
X28863774Y1903911D01*
X28867679Y1905237D01*
X29045406Y1992882D01*
X29129974Y2034586D01*
X29129979Y2034589D01*
X29133678Y2036413D01*
X29220150Y2094192D01*
X29376847Y2198893D01*
X29376852Y2198897D01*
X29380278Y2201186D01*
X29383372Y2203900D01*
X29383378Y2203904D01*
X29600173Y2394029D01*
X29603262Y2396738D01*
X29615691Y2410911D01*
X29796096Y2616622D01*
X29796100Y2616628D01*
X29798814Y2619722D01*
X29963587Y2866323D01*
X29970929Y2881210D01*
X30092939Y3128623D01*
X30094763Y3132321D01*
X30098920Y3144568D01*
X30188771Y3409258D01*
X30188772Y3409262D01*
X30190097Y3413165D01*
X30231947Y3623560D01*
X30247153Y3700008D01*
X30247153Y3700011D01*
X30247957Y3704051D01*
X30249135Y3722012D01*
X30267085Y3995881D01*
X30267355Y4000000D01*
X33232645Y4000000D01*
X33232915Y3995881D01*
X33250866Y3722012D01*
X33252043Y3704051D01*
X33252847Y3700011D01*
X33252847Y3700008D01*
X33268053Y3623560D01*
X33309903Y3413165D01*
X33311228Y3409262D01*
X33311229Y3409258D01*
X33401080Y3144568D01*
X33405237Y3132321D01*
X33407061Y3128623D01*
X33529072Y2881210D01*
X33536413Y2866323D01*
X33701186Y2619722D01*
X33703900Y2616628D01*
X33703904Y2616622D01*
X33884309Y2410911D01*
X33896738Y2396738D01*
X33899827Y2394029D01*
X34116622Y2203904D01*
X34116628Y2203900D01*
X34119722Y2201186D01*
X34123148Y2198897D01*
X34123153Y2198893D01*
X34279850Y2094192D01*
X34366322Y2036413D01*
X34370021Y2034589D01*
X34370026Y2034586D01*
X34454594Y1992882D01*
X34632321Y1905237D01*
X34636226Y1903911D01*
X34636227Y1903911D01*
X34909258Y1811229D01*
X34909262Y1811228D01*
X34913165Y1809903D01*
X35097349Y1773267D01*
X35200008Y1752847D01*
X35200011Y1752847D01*
X35204051Y1752043D01*
X35208162Y1751774D01*
X35208166Y1751773D01*
X35495881Y1732915D01*
X35500000Y1732645D01*
X35504119Y1732915D01*
X35791834Y1751773D01*
X35791838Y1751774D01*
X35795949Y1752043D01*
X35799989Y1752847D01*
X35799992Y1752847D01*
X35902651Y1773267D01*
X36086835Y1809903D01*
X36090738Y1811228D01*
X36090742Y1811229D01*
X36363773Y1903911D01*
X36363774Y1903911D01*
X36367679Y1905237D01*
X36545406Y1992882D01*
X36629974Y2034586D01*
X36629979Y2034589D01*
X36633678Y2036413D01*
X36720150Y2094192D01*
X36876847Y2198893D01*
X36876852Y2198897D01*
X36880278Y2201186D01*
X36883372Y2203900D01*
X36883378Y2203904D01*
X37100173Y2394029D01*
X37103262Y2396738D01*
X37115691Y2410911D01*
X37296096Y2616622D01*
X37296100Y2616628D01*
X37298814Y2619722D01*
X37463587Y2866323D01*
X37470929Y2881210D01*
X37592939Y3128623D01*
X37594763Y3132321D01*
X37598920Y3144568D01*
X37688771Y3409258D01*
X37688772Y3409262D01*
X37690097Y3413165D01*
X37731947Y3623560D01*
X37747153Y3700008D01*
X37747153Y3700011D01*
X37747957Y3704051D01*
X37749135Y3722012D01*
X37767085Y3995881D01*
X37767355Y4000000D01*
X37759627Y4117907D01*
X37748227Y4291834D01*
X37748226Y4291838D01*
X37747957Y4295949D01*
X37690097Y4586835D01*
X37685735Y4599687D01*
X37596089Y4863773D01*
X37596089Y4863774D01*
X37594763Y4867679D01*
X37463587Y5133677D01*
X37298814Y5380278D01*
X37296100Y5383372D01*
X37296096Y5383378D01*
X37105971Y5600173D01*
X37103262Y5603262D01*
X37100173Y5605971D01*
X36883378Y5796096D01*
X36883372Y5796100D01*
X36880278Y5798814D01*
X36876848Y5801106D01*
X36876847Y5801107D01*
X36637111Y5961293D01*
X36633678Y5963587D01*
X36629979Y5965411D01*
X36629974Y5965414D01*
X36453039Y6052668D01*
X36367679Y6094763D01*
X36280958Y6124201D01*
X36090742Y6188771D01*
X36090738Y6188772D01*
X36086835Y6190097D01*
X35893019Y6228649D01*
X35799992Y6247153D01*
X35799989Y6247153D01*
X35795949Y6247957D01*
X35791838Y6248226D01*
X35791834Y6248227D01*
X35504119Y6267085D01*
X35500000Y6267355D01*
X35495881Y6267085D01*
X35208166Y6248227D01*
X35208162Y6248226D01*
X35204051Y6247957D01*
X35200011Y6247153D01*
X35200008Y6247153D01*
X35106981Y6228649D01*
X34913165Y6190097D01*
X34909262Y6188772D01*
X34909258Y6188771D01*
X34719042Y6124201D01*
X34632321Y6094763D01*
X34585303Y6071576D01*
X34370027Y5965414D01*
X34370022Y5965411D01*
X34366323Y5963587D01*
X34119722Y5798814D01*
X34116628Y5796100D01*
X34116622Y5796096D01*
X33899827Y5605971D01*
X33896738Y5603262D01*
X33894029Y5600173D01*
X33703904Y5383378D01*
X33703900Y5383372D01*
X33701186Y5380278D01*
X33536413Y5133677D01*
X33405237Y4867679D01*
X33403911Y4863774D01*
X33403911Y4863773D01*
X33314266Y4599687D01*
X33309903Y4586835D01*
X33252043Y4295949D01*
X33251774Y4291838D01*
X33251773Y4291834D01*
X33239926Y4111080D01*
X33233320Y4010297D01*
X33232645Y4000000D01*
X30267355Y4000000D01*
X30259627Y4117907D01*
X30248227Y4291834D01*
X30248226Y4291838D01*
X30247957Y4295949D01*
X30190097Y4586835D01*
X30185735Y4599687D01*
X30096089Y4863773D01*
X30096089Y4863774D01*
X30094763Y4867679D01*
X29963587Y5133677D01*
X29798814Y5380278D01*
X29796100Y5383372D01*
X29796096Y5383378D01*
X29605971Y5600173D01*
X29603262Y5603262D01*
X29600173Y5605971D01*
X29383378Y5796096D01*
X29383372Y5796100D01*
X29380278Y5798814D01*
X29376848Y5801106D01*
X29376847Y5801107D01*
X29137111Y5961293D01*
X29133678Y5963587D01*
X29129979Y5965411D01*
X29129974Y5965414D01*
X28953039Y6052668D01*
X28867679Y6094763D01*
X28780958Y6124201D01*
X28590742Y6188771D01*
X28590738Y6188772D01*
X28586835Y6190097D01*
X28393019Y6228649D01*
X28299992Y6247153D01*
X28299989Y6247153D01*
X28295949Y6247957D01*
X28291838Y6248226D01*
X28291834Y6248227D01*
X28004119Y6267085D01*
X28000000Y6267355D01*
X27995881Y6267085D01*
X27708166Y6248227D01*
X27708162Y6248226D01*
X27704051Y6247957D01*
X27700011Y6247153D01*
X27700008Y6247153D01*
X27606981Y6228649D01*
X27413165Y6190097D01*
X27409262Y6188772D01*
X27409258Y6188771D01*
X27219042Y6124201D01*
X27132321Y6094763D01*
X27085303Y6071576D01*
X26870027Y5965414D01*
X26870022Y5965411D01*
X26866323Y5963587D01*
X26619722Y5798814D01*
X26616628Y5796100D01*
X26616622Y5796096D01*
X26399827Y5605971D01*
X26396738Y5603262D01*
X26394029Y5600173D01*
X26203904Y5383378D01*
X26203900Y5383372D01*
X26201186Y5380278D01*
X26036413Y5133677D01*
X25905237Y4867679D01*
X25903911Y4863774D01*
X25903911Y4863773D01*
X25814266Y4599687D01*
X25809903Y4586835D01*
X25752043Y4295949D01*
X25751774Y4291838D01*
X25751773Y4291834D01*
X25739926Y4111080D01*
X25733320Y4010297D01*
X25732645Y4000000D01*
X25732915Y3995881D01*
X25750866Y3722012D01*
X25752043Y3704051D01*
X25752848Y3700005D01*
X25775110Y3588080D01*
X25768782Y3517367D01*
X25725227Y3461300D01*
X25651531Y3437500D01*
X24274334Y3437500D01*
X24271088Y3437163D01*
X24271084Y3437163D01*
X24174868Y3427180D01*
X24174864Y3427179D01*
X24168010Y3426468D01*
X24161474Y3424287D01*
X24161472Y3424287D01*
X24029723Y3380332D01*
X23999346Y3370197D01*
X23848150Y3276634D01*
X23722534Y3150799D01*
X23629236Y2999440D01*
X23626931Y2992492D01*
X23626931Y2992491D01*
X23591474Y2885592D01*
X23573259Y2830678D01*
X23562500Y2725666D01*
X23562500Y1274334D01*
X23562837Y1271088D01*
X23562837Y1271084D01*
X23572686Y1176167D01*
X23573532Y1168010D01*
X23629803Y999346D01*
X23723366Y848150D01*
X23728548Y842977D01*
X23729400Y841902D01*
X23756036Y776092D01*
X23744941Y710588D01*
X23646292Y498067D01*
X23583122Y270284D01*
X23558004Y35242D01*
X23558301Y30090D01*
X23558301Y30086D01*
X23560036Y0D01*
X23571611Y-200747D01*
X23572746Y-205784D01*
X23572747Y-205790D01*
X23595065Y-304821D01*
X23623578Y-431345D01*
X23625522Y-436131D01*
X23625523Y-436136D01*
X23690619Y-596447D01*
X23712510Y-650358D01*
X23836019Y-851906D01*
X23890606Y-914922D01*
X23920087Y-979506D01*
X23909972Y-1049779D01*
X23886460Y-1084470D01*
X23879024Y-1092251D01*
X23745817Y-1287525D01*
X23646292Y-1501933D01*
X23583122Y-1729716D01*
X23558004Y-1964758D01*
X19992598Y-1964758D01*
X19940213Y-1733250D01*
X19928901Y-1704160D01*
X19846960Y-1493450D01*
X19846959Y-1493448D01*
X19845267Y-1489097D01*
X19824015Y-1451914D01*
X19717595Y-1265716D01*
X19717593Y-1265714D01*
X19715276Y-1261659D01*
X19553095Y-1055933D01*
X19362287Y-876440D01*
X19358440Y-873771D01*
X19150887Y-729785D01*
X19150884Y-729783D01*
X19147045Y-727120D01*
X19142855Y-725054D01*
X19142852Y-725052D01*
X18916283Y-613321D01*
X18916280Y-613320D01*
X18912095Y-611256D01*
X18865832Y-596447D01*
X18811752Y-579136D01*
X18662601Y-531393D01*
X18657994Y-530643D01*
X18657991Y-530642D01*
X18408654Y-490035D01*
X18408655Y-490035D01*
X18404043Y-489284D01*
X18276858Y-487619D01*
X18146777Y-485916D01*
X18146774Y-485916D01*
X18142100Y-485855D01*
X17882528Y-521181D01*
X17878042Y-522489D01*
X17878040Y-522489D01*
X17848864Y-530993D01*
X17631029Y-594486D01*
X17393127Y-704160D01*
X17358107Y-727120D01*
X17177962Y-845228D01*
X17177957Y-845232D01*
X17174049Y-847794D01*
X16978609Y-1022232D01*
X16811098Y-1223641D01*
X16675198Y-1447598D01*
X16673389Y-1451912D01*
X16673388Y-1451914D01*
X16640060Y-1531393D01*
X16573893Y-1689182D01*
X16572742Y-1693714D01*
X16572741Y-1693717D01*
X16519022Y-1905237D01*
X16509409Y-1943087D01*
X16483164Y-2203734D01*
X13514004Y-2203734D01*
X13498374Y-1993407D01*
X13498373Y-1993403D01*
X13498028Y-1988755D01*
X13440213Y-1733250D01*
X13428901Y-1704160D01*
X13346960Y-1493450D01*
X13346959Y-1493448D01*
X13345267Y-1489097D01*
X13324015Y-1451914D01*
X13217595Y-1265716D01*
X13217593Y-1265714D01*
X13215276Y-1261659D01*
X13053095Y-1055933D01*
X12862287Y-876440D01*
X12858440Y-873771D01*
X12650887Y-729785D01*
X12650884Y-729783D01*
X12647045Y-727120D01*
X12642855Y-725054D01*
X12642852Y-725052D01*
X12416283Y-613321D01*
X12416280Y-613320D01*
X12412095Y-611256D01*
X12365832Y-596447D01*
X12311752Y-579136D01*
X12162601Y-531393D01*
X12157994Y-530643D01*
X12157991Y-530642D01*
X11908654Y-490035D01*
X11908655Y-490035D01*
X11904043Y-489284D01*
X11776858Y-487619D01*
X11646777Y-485916D01*
X11646774Y-485916D01*
X11642100Y-485855D01*
X11382528Y-521181D01*
X11378042Y-522489D01*
X11378040Y-522489D01*
X11348864Y-530993D01*
X11131029Y-594486D01*
X10893127Y-704160D01*
X10858107Y-727120D01*
X10677962Y-845228D01*
X10677957Y-845232D01*
X10674049Y-847794D01*
X10478609Y-1022232D01*
X10311098Y-1223641D01*
X10175198Y-1447598D01*
X10173389Y-1451912D01*
X10173388Y-1451914D01*
X10140060Y-1531393D01*
X10073893Y-1689182D01*
X10072742Y-1693714D01*
X10072741Y-1693717D01*
X10019022Y-1905237D01*
X10009409Y-1943087D01*
X9983164Y-2203734D01*
X5014004Y-2203734D01*
X4998374Y-1993407D01*
X4998373Y-1993403D01*
X4998028Y-1988755D01*
X4940213Y-1733250D01*
X4928901Y-1704160D01*
X4846960Y-1493450D01*
X4846959Y-1493448D01*
X4845267Y-1489097D01*
X4824015Y-1451914D01*
X4717595Y-1265716D01*
X4717593Y-1265714D01*
X4715276Y-1261659D01*
X4553095Y-1055933D01*
X4362287Y-876440D01*
X4358440Y-873771D01*
X4150887Y-729785D01*
X4150884Y-729783D01*
X4147045Y-727120D01*
X4142855Y-725054D01*
X4142852Y-725052D01*
X3916283Y-613321D01*
X3916280Y-613320D01*
X3912095Y-611256D01*
X3865832Y-596447D01*
X3811752Y-579136D01*
X3662601Y-531393D01*
X3657994Y-530643D01*
X3657991Y-530642D01*
X3408654Y-490035D01*
X3408655Y-490035D01*
X3404043Y-489284D01*
X3276858Y-487619D01*
X3146777Y-485916D01*
X3146774Y-485916D01*
X3142100Y-485855D01*
X2882528Y-521181D01*
X2878042Y-522489D01*
X2878040Y-522489D01*
X2848864Y-530993D01*
X2631029Y-594486D01*
X2393127Y-704160D01*
X2358107Y-727120D01*
X2177962Y-845228D01*
X2177957Y-845232D01*
X2174049Y-847794D01*
X1978609Y-1022232D01*
X1811098Y-1223641D01*
X1675198Y-1447598D01*
X1673389Y-1451912D01*
X1673388Y-1451914D01*
X1640060Y-1531393D01*
X1573893Y-1689182D01*
X1572742Y-1693714D01*
X1572741Y-1693717D01*
X1519022Y-1905237D01*
X1509409Y-1943087D01*
X1483164Y-2203734D01*
X-1485996Y-2203734D01*
X-1501626Y-1993407D01*
X-1501627Y-1993403D01*
X-1501972Y-1988755D01*
X-1559787Y-1733250D01*
X-1571099Y-1704160D01*
X-1653040Y-1493450D01*
X-1653041Y-1493448D01*
X-1654733Y-1489097D01*
X-1675985Y-1451914D01*
X-1782405Y-1265716D01*
X-1782407Y-1265714D01*
X-1784724Y-1261659D01*
X-1946905Y-1055933D01*
X-2137713Y-876440D01*
X-2141560Y-873771D01*
X-2349113Y-729785D01*
X-2349116Y-729783D01*
X-2352955Y-727120D01*
X-2357145Y-725054D01*
X-2357148Y-725052D01*
X-2583717Y-613321D01*
X-2583720Y-613320D01*
X-2587905Y-611256D01*
X-2634168Y-596447D01*
X-2688248Y-579136D01*
X-2837399Y-531393D01*
X-2842006Y-530643D01*
X-2842009Y-530642D01*
X-3091346Y-490035D01*
X-3091345Y-490035D01*
X-3095957Y-489284D01*
X-3223142Y-487619D01*
X-3353223Y-485916D01*
X-3353226Y-485916D01*
X-3357900Y-485855D01*
X-3617472Y-521181D01*
X-3621958Y-522489D01*
X-3621960Y-522489D01*
X-3651136Y-530993D01*
X-3868971Y-594486D01*
X-4106873Y-704160D01*
X-4141893Y-727120D01*
X-4322038Y-845228D01*
X-4322043Y-845232D01*
X-4325951Y-847794D01*
X-4521391Y-1022232D01*
X-4688902Y-1223641D01*
X-4824802Y-1447598D01*
X-4826611Y-1451912D01*
X-4826612Y-1451914D01*
X-4859940Y-1531393D01*
X-4926107Y-1689182D01*
X-4927258Y-1693714D01*
X-4927259Y-1693717D01*
X-4980978Y-1905237D01*
X-4990591Y-1943087D01*
X-5016836Y-2203734D01*
X-34330388Y-2203734D01*
X-34446905Y-2055933D01*
X-34637713Y-1876440D01*
X-34641560Y-1873771D01*
X-34849113Y-1729785D01*
X-34849116Y-1729783D01*
X-34852955Y-1727120D01*
X-34857145Y-1725054D01*
X-34857148Y-1725052D01*
X-35083717Y-1613321D01*
X-35083720Y-1613320D01*
X-35087905Y-1611256D01*
X-35134168Y-1596447D01*
X-35309989Y-1540167D01*
X-35337399Y-1531393D01*
X-35342006Y-1530643D01*
X-35342009Y-1530642D01*
X-35591346Y-1490035D01*
X-35591345Y-1490035D01*
X-35595957Y-1489284D01*
X-35723142Y-1487619D01*
X-35853223Y-1485916D01*
X-35853226Y-1485916D01*
X-35857900Y-1485855D01*
X-36117472Y-1521181D01*
X-36121958Y-1522489D01*
X-36121960Y-1522489D01*
X-36152508Y-1531393D01*
X-36368971Y-1594486D01*
X-36606873Y-1704160D01*
X-36641893Y-1727120D01*
X-36822038Y-1845228D01*
X-36822043Y-1845232D01*
X-36825951Y-1847794D01*
X-37021391Y-2022232D01*
X-37188902Y-2223641D01*
X-37324802Y-2447598D01*
X-37326611Y-2451912D01*
X-37326612Y-2451914D01*
X-37411673Y-2654762D01*
X-37426107Y-2689182D01*
X-37427258Y-2693714D01*
X-37427259Y-2693717D01*
X-37474055Y-2877978D01*
X-37490591Y-2943087D01*
X-37491060Y-2947743D01*
X-37491060Y-2947744D01*
X-37493188Y-2968883D01*
X-37516836Y-3203734D01*
X-38740978Y-3203734D01*
X-38755572Y-3018301D01*
X-38757115Y-3008554D01*
X-38810217Y-2787373D01*
X-38813266Y-2777988D01*
X-38900313Y-2567837D01*
X-38904795Y-2559042D01*
X-39007432Y-2391555D01*
X-39017890Y-2382093D01*
X-39026666Y-2385876D01*
X-39877978Y-3237188D01*
X-39885592Y-3251132D01*
X-40615644Y-3251132D01*
X-40614408Y-3248868D01*
X-40614539Y-3247035D01*
X-40618790Y-3240420D01*
X-41470290Y-2388920D01*
X-41482670Y-2382160D01*
X-41490320Y-2387887D01*
X-41595205Y-2559042D01*
X-41599687Y-2567837D01*
X-41686734Y-2777988D01*
X-41689783Y-2787373D01*
X-41742885Y-3008554D01*
X-41744428Y-3018301D01*
X-41762275Y-3245070D01*
X-41762275Y-3254930D01*
X-42237500Y-3254930D01*
X-42237500Y-2017890D01*
X-41117907Y-2017890D01*
X-41114124Y-2026666D01*
X-40262812Y-2877978D01*
X-40248868Y-2885592D01*
X-40247035Y-2885461D01*
X-40240420Y-2881210D01*
X-39388920Y-2029710D01*
X-39382160Y-2017330D01*
X-39387887Y-2009680D01*
X-39559042Y-1904795D01*
X-39567837Y-1900313D01*
X-39777988Y-1813266D01*
X-39787373Y-1810217D01*
X-40008554Y-1757115D01*
X-40018301Y-1755572D01*
X-40245070Y-1737725D01*
X-40254930Y-1737725D01*
X-40481699Y-1755572D01*
X-40491446Y-1757115D01*
X-40712627Y-1810217D01*
X-40722012Y-1813266D01*
X-40932163Y-1900313D01*
X-40940958Y-1904795D01*
X-41108445Y-2007432D01*
X-41117907Y-2017890D01*
X-42237500Y-2017890D01*
X-42237500Y2017330D01*
X-41117840Y2017330D01*
X-41112113Y2009680D01*
X-40940958Y1904795D01*
X-40932163Y1900313D01*
X-40722012Y1813266D01*
X-40712627Y1810217D01*
X-40491446Y1757115D01*
X-40481699Y1755572D01*
X-40254930Y1737725D01*
X-40245070Y1737725D01*
X-40018301Y1755572D01*
X-40008554Y1757115D01*
X-39787373Y1810217D01*
X-39777988Y1813266D01*
X-39567837Y1900313D01*
X-39559042Y1904795D01*
X-39391555Y2007432D01*
X-39382093Y2017890D01*
X-39385876Y2026666D01*
X-40237188Y2877978D01*
X-40251132Y2885592D01*
X-40252965Y2885461D01*
X-40259580Y2881210D01*
X-41111080Y2029710D01*
X-41117840Y2017330D01*
X-42237500Y2017330D01*
X-42237500Y3245070D01*
X-41762275Y3245070D01*
X-41744428Y3018301D01*
X-41742885Y3008554D01*
X-41689783Y2787373D01*
X-41686734Y2777988D01*
X-41599687Y2567837D01*
X-41595205Y2559042D01*
X-41492568Y2391555D01*
X-41482110Y2382093D01*
X-41473334Y2385876D01*
X-40622022Y3237188D01*
X-40615644Y3248868D01*
X-39885592Y3248868D01*
X-39885461Y3247035D01*
X-39881210Y3240420D01*
X-39029710Y2388920D01*
X-39017330Y2382160D01*
X-39009680Y2387887D01*
X-38904795Y2559042D01*
X-38900313Y2567837D01*
X-38813266Y2777988D01*
X-38810217Y2787373D01*
X-38757115Y3008554D01*
X-38755572Y3018301D01*
X-38737725Y3245070D01*
X-38737725Y3254930D01*
X-38740978Y3296266D01*
X-37516836Y3296266D01*
X-37516612Y3291599D01*
X-37516612Y3291594D01*
X-37513859Y3234284D01*
X-37504268Y3034603D01*
X-37495891Y2992491D01*
X-37460612Y2815133D01*
X-37453161Y2777672D01*
X-37451582Y2773274D01*
X-37451580Y2773267D01*
X-37377823Y2567837D01*
X-37364639Y2531117D01*
X-37240645Y2300354D01*
X-37237850Y2296611D01*
X-37237848Y2296608D01*
X-37086697Y2094192D01*
X-37086692Y2094186D01*
X-37083905Y2090454D01*
X-37080596Y2087174D01*
X-37080591Y2087168D01*
X-36978891Y1986352D01*
X-36897862Y1906027D01*
X-36894100Y1903269D01*
X-36894097Y1903266D01*
X-36766766Y1809903D01*
X-36686602Y1751124D01*
X-36682471Y1748950D01*
X-36682470Y1748950D01*
X-36458901Y1631325D01*
X-36458895Y1631323D01*
X-36454766Y1629150D01*
X-36450358Y1627611D01*
X-36450352Y1627608D01*
X-36211864Y1544324D01*
X-36207448Y1542782D01*
X-35950080Y1493919D01*
X-35825825Y1489037D01*
X-35692985Y1483818D01*
X-35692980Y1483818D01*
X-35688317Y1483635D01*
X-35586460Y1494790D01*
X-35432562Y1511644D01*
X-35432556Y1511645D01*
X-35427909Y1512154D01*
X-35371554Y1526991D01*
X-35179100Y1577660D01*
X-35179098Y1577661D01*
X-35174577Y1578851D01*
X-35052440Y1631325D01*
X-34938180Y1680415D01*
X-34938178Y1680416D01*
X-34933886Y1682260D01*
X-34711124Y1820109D01*
X-34511184Y1989371D01*
X-34471531Y2034586D01*
X-34341540Y2182812D01*
X-34341536Y2182817D01*
X-34338458Y2186327D01*
X-34267743Y2296266D01*
X-5016836Y2296266D01*
X-5016612Y2291599D01*
X-5016612Y2291594D01*
X-5011387Y2182812D01*
X-5004268Y2034603D01*
X-4994670Y1986352D01*
X-4959412Y1809099D01*
X-4953161Y1777672D01*
X-4951582Y1773274D01*
X-4951580Y1773267D01*
X-4899283Y1627608D01*
X-4864639Y1531117D01*
X-4740645Y1300354D01*
X-4737850Y1296611D01*
X-4737848Y1296608D01*
X-4586697Y1094192D01*
X-4586692Y1094186D01*
X-4583905Y1090454D01*
X-4580596Y1087174D01*
X-4580591Y1087168D01*
X-4478891Y986352D01*
X-4397862Y906027D01*
X-4394100Y903269D01*
X-4394097Y903266D01*
X-4277333Y817651D01*
X-4186602Y751124D01*
X-4182471Y748950D01*
X-4182470Y748950D01*
X-3958901Y631325D01*
X-3958895Y631323D01*
X-3954766Y629150D01*
X-3950358Y627611D01*
X-3950352Y627608D01*
X-3711864Y544324D01*
X-3707448Y542782D01*
X-3450080Y493919D01*
X-3325825Y489037D01*
X-3192985Y483818D01*
X-3192980Y483818D01*
X-3188317Y483635D01*
X-3086460Y494790D01*
X-2932562Y511644D01*
X-2932556Y511645D01*
X-2927909Y512154D01*
X-2805719Y544324D01*
X-2679100Y577660D01*
X-2679098Y577661D01*
X-2674577Y578851D01*
X-2433886Y682260D01*
X-2211124Y820109D01*
X-2011184Y989371D01*
X-1860255Y1161472D01*
X-1841540Y1182812D01*
X-1841536Y1182817D01*
X-1838458Y1186327D01*
X-1835928Y1190260D01*
X-1699270Y1402719D01*
X-1699267Y1402724D01*
X-1696742Y1406650D01*
X-1589148Y1645499D01*
X-1518040Y1897629D01*
X-1500617Y2034586D01*
X-1485378Y2154369D01*
X-1485378Y2154373D01*
X-1484980Y2157499D01*
X-1482558Y2250000D01*
X-1485996Y2296266D01*
X1483164Y2296266D01*
X1483388Y2291599D01*
X1483388Y2291594D01*
X1488613Y2182812D01*
X1495732Y2034603D01*
X1505330Y1986352D01*
X1540588Y1809099D01*
X1546839Y1777672D01*
X1548418Y1773274D01*
X1548420Y1773267D01*
X1600717Y1627608D01*
X1635361Y1531117D01*
X1759355Y1300354D01*
X1762150Y1296611D01*
X1762152Y1296608D01*
X1913303Y1094192D01*
X1913308Y1094186D01*
X1916095Y1090454D01*
X1919404Y1087174D01*
X1919409Y1087168D01*
X2021109Y986352D01*
X2102138Y906027D01*
X2105900Y903269D01*
X2105903Y903266D01*
X2222667Y817651D01*
X2313398Y751124D01*
X2317529Y748950D01*
X2317530Y748950D01*
X2541099Y631325D01*
X2541105Y631323D01*
X2545234Y629150D01*
X2549642Y627611D01*
X2549648Y627608D01*
X2788136Y544324D01*
X2792552Y542782D01*
X3049920Y493919D01*
X3174175Y489037D01*
X3307015Y483818D01*
X3307020Y483818D01*
X3311683Y483635D01*
X3413540Y494790D01*
X3567438Y511644D01*
X3567444Y511645D01*
X3572091Y512154D01*
X3694281Y544324D01*
X3820900Y577660D01*
X3820902Y577661D01*
X3825423Y578851D01*
X4066114Y682260D01*
X4288876Y820109D01*
X4488816Y989371D01*
X4639745Y1161472D01*
X4658460Y1182812D01*
X4658464Y1182817D01*
X4661542Y1186327D01*
X4664072Y1190260D01*
X4800730Y1402719D01*
X4800733Y1402724D01*
X4803258Y1406650D01*
X4910852Y1645499D01*
X4981960Y1897629D01*
X4999383Y2034586D01*
X5014622Y2154369D01*
X5014622Y2154373D01*
X5015020Y2157499D01*
X5017442Y2250000D01*
X5014004Y2296266D01*
X9983164Y2296266D01*
X9983388Y2291599D01*
X9983388Y2291594D01*
X9988613Y2182812D01*
X9995732Y2034603D01*
X10005330Y1986352D01*
X10040588Y1809099D01*
X10046839Y1777672D01*
X10048418Y1773274D01*
X10048420Y1773267D01*
X10100717Y1627608D01*
X10135361Y1531117D01*
X10259355Y1300354D01*
X10262150Y1296611D01*
X10262152Y1296608D01*
X10413303Y1094192D01*
X10413308Y1094186D01*
X10416095Y1090454D01*
X10419404Y1087174D01*
X10419409Y1087168D01*
X10521109Y986352D01*
X10602138Y906027D01*
X10605900Y903269D01*
X10605903Y903266D01*
X10722667Y817651D01*
X10813398Y751124D01*
X10817529Y748950D01*
X10817530Y748950D01*
X11041099Y631325D01*
X11041105Y631323D01*
X11045234Y629150D01*
X11049642Y627611D01*
X11049648Y627608D01*
X11288136Y544324D01*
X11292552Y542782D01*
X11549920Y493919D01*
X11674175Y489037D01*
X11807015Y483818D01*
X11807020Y483818D01*
X11811683Y483635D01*
X11913540Y494790D01*
X12067438Y511644D01*
X12067444Y511645D01*
X12072091Y512154D01*
X12194281Y544324D01*
X12320900Y577660D01*
X12320902Y577661D01*
X12325423Y578851D01*
X12566114Y682260D01*
X12788876Y820109D01*
X12988816Y989371D01*
X13139745Y1161472D01*
X13158460Y1182812D01*
X13158464Y1182817D01*
X13161542Y1186327D01*
X13164072Y1190260D01*
X13300730Y1402719D01*
X13300733Y1402724D01*
X13303258Y1406650D01*
X13410852Y1645499D01*
X13481960Y1897629D01*
X13499383Y2034586D01*
X13514622Y2154369D01*
X13514622Y2154373D01*
X13515020Y2157499D01*
X13517442Y2250000D01*
X13514004Y2296266D01*
X16483164Y2296266D01*
X16483388Y2291599D01*
X16483388Y2291594D01*
X16488613Y2182812D01*
X16495732Y2034603D01*
X16505330Y1986352D01*
X16540588Y1809099D01*
X16546839Y1777672D01*
X16548418Y1773274D01*
X16548420Y1773267D01*
X16600717Y1627608D01*
X16635361Y1531117D01*
X16759355Y1300354D01*
X16762150Y1296611D01*
X16762152Y1296608D01*
X16913303Y1094192D01*
X16913308Y1094186D01*
X16916095Y1090454D01*
X16919404Y1087174D01*
X16919409Y1087168D01*
X17021109Y986352D01*
X17102138Y906027D01*
X17105900Y903269D01*
X17105903Y903266D01*
X17222667Y817651D01*
X17313398Y751124D01*
X17317529Y748950D01*
X17317530Y748950D01*
X17541099Y631325D01*
X17541105Y631323D01*
X17545234Y629150D01*
X17549642Y627611D01*
X17549648Y627608D01*
X17788136Y544324D01*
X17792552Y542782D01*
X18049920Y493919D01*
X18174175Y489037D01*
X18307015Y483818D01*
X18307020Y483818D01*
X18311683Y483635D01*
X18413540Y494790D01*
X18567438Y511644D01*
X18567444Y511645D01*
X18572091Y512154D01*
X18694281Y544324D01*
X18820900Y577660D01*
X18820902Y577661D01*
X18825423Y578851D01*
X19066114Y682260D01*
X19288876Y820109D01*
X19488816Y989371D01*
X19639745Y1161472D01*
X19658460Y1182812D01*
X19658464Y1182817D01*
X19661542Y1186327D01*
X19664072Y1190260D01*
X19800730Y1402719D01*
X19800733Y1402724D01*
X19803258Y1406650D01*
X19910852Y1645499D01*
X19981960Y1897629D01*
X19999383Y2034586D01*
X20014622Y2154369D01*
X20014622Y2154373D01*
X20015020Y2157499D01*
X20017442Y2250000D01*
X20007195Y2387887D01*
X19998374Y2506593D01*
X19998373Y2506597D01*
X19998028Y2511245D01*
X19940213Y2766750D01*
X19935843Y2777988D01*
X19846960Y3006550D01*
X19846959Y3006552D01*
X19845267Y3010903D01*
X19834344Y3030015D01*
X19717595Y3234284D01*
X19717593Y3234286D01*
X19715276Y3238341D01*
X19553095Y3444067D01*
X19362287Y3623560D01*
X19358440Y3626229D01*
X19150887Y3770215D01*
X19150884Y3770217D01*
X19147045Y3772880D01*
X19142855Y3774946D01*
X19142852Y3774948D01*
X18916283Y3886679D01*
X18916280Y3886680D01*
X18912095Y3888744D01*
X18865832Y3903553D01*
X18748977Y3940958D01*
X18662601Y3968607D01*
X18657994Y3969357D01*
X18657991Y3969358D01*
X18408654Y4009965D01*
X18408655Y4009965D01*
X18404043Y4010716D01*
X18276858Y4012381D01*
X18146777Y4014084D01*
X18146774Y4014084D01*
X18142100Y4014145D01*
X17882528Y3978819D01*
X17878042Y3977511D01*
X17878040Y3977511D01*
X17847492Y3968607D01*
X17631029Y3905514D01*
X17393127Y3795840D01*
X17358107Y3772880D01*
X17177962Y3654772D01*
X17177957Y3654768D01*
X17174049Y3652206D01*
X16978609Y3477768D01*
X16811098Y3276359D01*
X16675198Y3052402D01*
X16673389Y3048088D01*
X16673388Y3048086D01*
X16579351Y2823833D01*
X16573893Y2810818D01*
X16572742Y2806286D01*
X16572741Y2806283D01*
X16525361Y2619722D01*
X16509409Y2556913D01*
X16508940Y2552257D01*
X16508940Y2552256D01*
X16506812Y2531117D01*
X16483164Y2296266D01*
X13514004Y2296266D01*
X13507195Y2387887D01*
X13498374Y2506593D01*
X13498373Y2506597D01*
X13498028Y2511245D01*
X13440213Y2766750D01*
X13435843Y2777988D01*
X13346960Y3006550D01*
X13346959Y3006552D01*
X13345267Y3010903D01*
X13334344Y3030015D01*
X13217595Y3234284D01*
X13217593Y3234286D01*
X13215276Y3238341D01*
X13053095Y3444067D01*
X12862287Y3623560D01*
X12858440Y3626229D01*
X12650887Y3770215D01*
X12650884Y3770217D01*
X12647045Y3772880D01*
X12642855Y3774946D01*
X12642852Y3774948D01*
X12416283Y3886679D01*
X12416280Y3886680D01*
X12412095Y3888744D01*
X12365832Y3903553D01*
X12248977Y3940958D01*
X12162601Y3968607D01*
X12157994Y3969357D01*
X12157991Y3969358D01*
X11908654Y4009965D01*
X11908655Y4009965D01*
X11904043Y4010716D01*
X11776858Y4012381D01*
X11646777Y4014084D01*
X11646774Y4014084D01*
X11642100Y4014145D01*
X11382528Y3978819D01*
X11378042Y3977511D01*
X11378040Y3977511D01*
X11347492Y3968607D01*
X11131029Y3905514D01*
X10893127Y3795840D01*
X10858107Y3772880D01*
X10677962Y3654772D01*
X10677957Y3654768D01*
X10674049Y3652206D01*
X10478609Y3477768D01*
X10311098Y3276359D01*
X10175198Y3052402D01*
X10173389Y3048088D01*
X10173388Y3048086D01*
X10079351Y2823833D01*
X10073893Y2810818D01*
X10072742Y2806286D01*
X10072741Y2806283D01*
X10025361Y2619722D01*
X10009409Y2556913D01*
X10008940Y2552257D01*
X10008940Y2552256D01*
X10006812Y2531117D01*
X9983164Y2296266D01*
X5014004Y2296266D01*
X5007195Y2387887D01*
X4998374Y2506593D01*
X4998373Y2506597D01*
X4998028Y2511245D01*
X4940213Y2766750D01*
X4935843Y2777988D01*
X4846960Y3006550D01*
X4846959Y3006552D01*
X4845267Y3010903D01*
X4834344Y3030015D01*
X4717595Y3234284D01*
X4717593Y3234286D01*
X4715276Y3238341D01*
X4553095Y3444067D01*
X4362287Y3623560D01*
X4358440Y3626229D01*
X4150887Y3770215D01*
X4150884Y3770217D01*
X4147045Y3772880D01*
X4142855Y3774946D01*
X4142852Y3774948D01*
X3916283Y3886679D01*
X3916280Y3886680D01*
X3912095Y3888744D01*
X3865832Y3903553D01*
X3748977Y3940958D01*
X3662601Y3968607D01*
X3657994Y3969357D01*
X3657991Y3969358D01*
X3408654Y4009965D01*
X3408655Y4009965D01*
X3404043Y4010716D01*
X3276858Y4012381D01*
X3146777Y4014084D01*
X3146774Y4014084D01*
X3142100Y4014145D01*
X2882528Y3978819D01*
X2878042Y3977511D01*
X2878040Y3977511D01*
X2847492Y3968607D01*
X2631029Y3905514D01*
X2393127Y3795840D01*
X2358107Y3772880D01*
X2177962Y3654772D01*
X2177957Y3654768D01*
X2174049Y3652206D01*
X1978609Y3477768D01*
X1811098Y3276359D01*
X1675198Y3052402D01*
X1673389Y3048088D01*
X1673388Y3048086D01*
X1579351Y2823833D01*
X1573893Y2810818D01*
X1572742Y2806286D01*
X1572741Y2806283D01*
X1525361Y2619722D01*
X1509409Y2556913D01*
X1508940Y2552257D01*
X1508940Y2552256D01*
X1506812Y2531117D01*
X1483164Y2296266D01*
X-1485996Y2296266D01*
X-1492805Y2387887D01*
X-1501626Y2506593D01*
X-1501627Y2506597D01*
X-1501972Y2511245D01*
X-1559787Y2766750D01*
X-1564157Y2777988D01*
X-1653040Y3006550D01*
X-1653041Y3006552D01*
X-1654733Y3010903D01*
X-1665656Y3030015D01*
X-1782405Y3234284D01*
X-1782407Y3234286D01*
X-1784724Y3238341D01*
X-1946905Y3444067D01*
X-2137713Y3623560D01*
X-2141560Y3626229D01*
X-2349113Y3770215D01*
X-2349116Y3770217D01*
X-2352955Y3772880D01*
X-2357145Y3774946D01*
X-2357148Y3774948D01*
X-2583717Y3886679D01*
X-2583720Y3886680D01*
X-2587905Y3888744D01*
X-2634168Y3903553D01*
X-2751023Y3940958D01*
X-2837399Y3968607D01*
X-2842006Y3969357D01*
X-2842009Y3969358D01*
X-3091346Y4009965D01*
X-3091345Y4009965D01*
X-3095957Y4010716D01*
X-3223142Y4012381D01*
X-3353223Y4014084D01*
X-3353226Y4014084D01*
X-3357900Y4014145D01*
X-3617472Y3978819D01*
X-3621958Y3977511D01*
X-3621960Y3977511D01*
X-3652508Y3968607D01*
X-3868971Y3905514D01*
X-4106873Y3795840D01*
X-4141893Y3772880D01*
X-4322038Y3654772D01*
X-4322043Y3654768D01*
X-4325951Y3652206D01*
X-4521391Y3477768D01*
X-4688902Y3276359D01*
X-4824802Y3052402D01*
X-4826611Y3048088D01*
X-4826612Y3048086D01*
X-4920649Y2823833D01*
X-4926107Y2810818D01*
X-4927258Y2806286D01*
X-4927259Y2806283D01*
X-4974639Y2619722D01*
X-4990591Y2556913D01*
X-4991060Y2552257D01*
X-4991060Y2552256D01*
X-4993188Y2531117D01*
X-5016836Y2296266D01*
X-34267743Y2296266D01*
X-34267523Y2296608D01*
X-34199270Y2402719D01*
X-34199267Y2402724D01*
X-34196742Y2406650D01*
X-34089148Y2645499D01*
X-34018040Y2897629D01*
X-34001198Y3030015D01*
X-33985378Y3154369D01*
X-33985378Y3154373D01*
X-33984980Y3157499D01*
X-33982558Y3250000D01*
X-33991490Y3370197D01*
X-34001626Y3506593D01*
X-34001627Y3506597D01*
X-34001972Y3511245D01*
X-34059787Y3766750D01*
X-34071099Y3795840D01*
X-34153040Y4006550D01*
X-34153041Y4006552D01*
X-34154733Y4010903D01*
X-34175985Y4048086D01*
X-34282405Y4234284D01*
X-34282407Y4234286D01*
X-34284724Y4238341D01*
X-34446905Y4444067D01*
X-34637713Y4623560D01*
X-34641560Y4626229D01*
X-34849113Y4770215D01*
X-34849116Y4770217D01*
X-34852955Y4772880D01*
X-34857145Y4774946D01*
X-34857148Y4774948D01*
X-35083717Y4886679D01*
X-35083720Y4886680D01*
X-35087905Y4888744D01*
X-35134168Y4903553D01*
X-35188248Y4920864D01*
X-35337399Y4968607D01*
X-35342006Y4969357D01*
X-35342009Y4969358D01*
X-35591346Y5009965D01*
X-35591345Y5009965D01*
X-35595957Y5010716D01*
X-35723142Y5012381D01*
X-35853223Y5014084D01*
X-35853226Y5014084D01*
X-35857900Y5014145D01*
X-36117472Y4978819D01*
X-36121958Y4977511D01*
X-36121960Y4977511D01*
X-36152508Y4968607D01*
X-36368971Y4905514D01*
X-36606873Y4795840D01*
X-36641893Y4772880D01*
X-36822038Y4654772D01*
X-36822043Y4654768D01*
X-36825951Y4652206D01*
X-37021391Y4477768D01*
X-37188902Y4276359D01*
X-37324802Y4052402D01*
X-37326611Y4048088D01*
X-37326612Y4048086D01*
X-37423686Y3816591D01*
X-37426107Y3810818D01*
X-37427258Y3806286D01*
X-37427259Y3806283D01*
X-37474055Y3622022D01*
X-37490591Y3556913D01*
X-37516836Y3296266D01*
X-38740978Y3296266D01*
X-38755572Y3481699D01*
X-38757115Y3491446D01*
X-38810217Y3712627D01*
X-38813266Y3722012D01*
X-38900313Y3932163D01*
X-38904795Y3940958D01*
X-39007432Y4108445D01*
X-39017890Y4117907D01*
X-39026666Y4114124D01*
X-39877978Y3262812D01*
X-39885592Y3248868D01*
X-40615644Y3248868D01*
X-40614408Y3251132D01*
X-40614539Y3252965D01*
X-40618790Y3259580D01*
X-41470290Y4111080D01*
X-41482670Y4117840D01*
X-41490320Y4112113D01*
X-41595205Y3940958D01*
X-41599687Y3932163D01*
X-41686734Y3722012D01*
X-41689783Y3712627D01*
X-41742885Y3491446D01*
X-41744428Y3481699D01*
X-41762275Y3254930D01*
X-41762275Y3245070D01*
X-42237500Y3245070D01*
X-42237500Y4482110D01*
X-41117907Y4482110D01*
X-41114124Y4473334D01*
X-40262812Y3622022D01*
X-40248868Y3614408D01*
X-40247035Y3614539D01*
X-40240420Y3618790D01*
X-39388920Y4470290D01*
X-39382160Y4482670D01*
X-39387887Y4490320D01*
X-39559042Y4595205D01*
X-39567837Y4599687D01*
X-39777988Y4686734D01*
X-39787373Y4689783D01*
X-40008554Y4742885D01*
X-40018301Y4744428D01*
X-40245070Y4762275D01*
X-40254930Y4762275D01*
X-40481699Y4744428D01*
X-40491446Y4742885D01*
X-40712627Y4689783D01*
X-40722012Y4686734D01*
X-40932163Y4599687D01*
X-40940958Y4595205D01*
X-41108445Y4492568D01*
X-41117907Y4482110D01*
X-42237500Y4482110D01*
X-42237500Y7620000D01*
X-40837332Y7620000D01*
X-40818036Y7374815D01*
X-40760621Y7135668D01*
X-40758731Y7131105D01*
X-40758729Y7131099D01*
X-40668398Y6913020D01*
X-40666503Y6908446D01*
X-40537998Y6698745D01*
X-40477767Y6628224D01*
X-40385151Y6519785D01*
X-40378271Y6511729D01*
X-40191255Y6352002D01*
X-39981554Y6223497D01*
X-39976984Y6221604D01*
X-39976980Y6221602D01*
X-39758901Y6131271D01*
X-39758895Y6131269D01*
X-39754332Y6129379D01*
X-39749532Y6128227D01*
X-39749527Y6128225D01*
X-39640134Y6101962D01*
X-39515185Y6071964D01*
X-39270000Y6052668D01*
X-39024815Y6071964D01*
X-38899866Y6101962D01*
X-38790473Y6128225D01*
X-38790468Y6128227D01*
X-38785668Y6129379D01*
X-38781105Y6131269D01*
X-38781099Y6131271D01*
X-38563020Y6221602D01*
X-38563016Y6221604D01*
X-38558446Y6223497D01*
X-38348745Y6352002D01*
X-38161729Y6511729D01*
X-38154848Y6519785D01*
X-38142760Y6533938D01*
X-37451507Y6533938D01*
X-37442211Y6521923D01*
X-37391006Y6486069D01*
X-37381511Y6480586D01*
X-37184053Y6388510D01*
X-37173761Y6384764D01*
X-36963312Y6328375D01*
X-36952519Y6326472D01*
X-36735475Y6307483D01*
X-36724525Y6307483D01*
X-36507481Y6326472D01*
X-36496688Y6328375D01*
X-36286239Y6384764D01*
X-36275947Y6388510D01*
X-36078489Y6480586D01*
X-36068994Y6486069D01*
X-36016952Y6522509D01*
X-36008576Y6532988D01*
X-36015644Y6546434D01*
X-36717188Y7247978D01*
X-36731132Y7255592D01*
X-36732965Y7255461D01*
X-36739580Y7251210D01*
X-37445077Y6545713D01*
X-37451507Y6533938D01*
X-38142760Y6533938D01*
X-38062233Y6628224D01*
X-38002002Y6698745D01*
X-37918055Y6835734D01*
X-37865407Y6883365D01*
X-37836235Y6888473D01*
X-37803565Y6905645D01*
X-37102022Y7607188D01*
X-37094408Y7621132D01*
X-37094539Y7622965D01*
X-37098790Y7629580D01*
X-37804287Y8335077D01*
X-37833115Y8350819D01*
X-37870686Y8358991D01*
X-37917736Y8403745D01*
X-37946489Y8450666D01*
X-38002002Y8541255D01*
X-38143572Y8707012D01*
X-37451424Y8707012D01*
X-37444356Y8693566D01*
X-36742812Y7992022D01*
X-36728868Y7984408D01*
X-36727035Y7984539D01*
X-36720420Y7988790D01*
X-36014923Y8694287D01*
X-36008493Y8706062D01*
X-36017789Y8718077D01*
X-36068994Y8753931D01*
X-36078489Y8759414D01*
X-36275947Y8851490D01*
X-36286239Y8855236D01*
X-36496688Y8911625D01*
X-36507481Y8913528D01*
X-36724525Y8932517D01*
X-36735475Y8932517D01*
X-36952519Y8913528D01*
X-36963312Y8911625D01*
X-37173761Y8855236D01*
X-37184053Y8851490D01*
X-37381511Y8759414D01*
X-37391006Y8753931D01*
X-37443048Y8717491D01*
X-37451424Y8707012D01*
X-38143572Y8707012D01*
X-38161729Y8728271D01*
X-38348745Y8887998D01*
X-38558446Y9016503D01*
X-38563016Y9018396D01*
X-38563020Y9018398D01*
X-38781099Y9108729D01*
X-38781105Y9108731D01*
X-38785668Y9110621D01*
X-38790468Y9111773D01*
X-38790473Y9111775D01*
X-38899866Y9138038D01*
X-39024815Y9168036D01*
X-39270000Y9187332D01*
X-39515185Y9168036D01*
X-39640134Y9138038D01*
X-39749527Y9111775D01*
X-39749532Y9111773D01*
X-39754332Y9110621D01*
X-39758895Y9108731D01*
X-39758901Y9108729D01*
X-39976980Y9018398D01*
X-39976984Y9018396D01*
X-39981554Y9016503D01*
X-40191255Y8887998D01*
X-40378271Y8728271D01*
X-40537998Y8541255D01*
X-40666503Y8331554D01*
X-40668396Y8326984D01*
X-40668398Y8326980D01*
X-40758729Y8108901D01*
X-40758731Y8108895D01*
X-40760621Y8104332D01*
X-40818036Y7865185D01*
X-40837332Y7620000D01*
X-42237500Y7620000D01*
X-42237500Y11937558D01*
X-42236274Y11955094D01*
X-42233525Y11974652D01*
X-42233525Y11974657D01*
X-42232974Y11978575D01*
X-42232675Y12000000D01*
X-42233117Y12003942D01*
X-42234598Y12017148D01*
X-42235153Y12038800D01*
X-42221646Y12262094D01*
X-42219812Y12277198D01*
X-42173856Y12527971D01*
X-42170215Y12542744D01*
X-42133629Y12660153D01*
X-42094364Y12786159D01*
X-42088970Y12800381D01*
X-42008913Y12978259D01*
X-41984336Y13032868D01*
X-41977266Y13046339D01*
X-41845367Y13264525D01*
X-41836724Y13277046D01*
X-41679493Y13477738D01*
X-41669403Y13489127D01*
X-41489127Y13669403D01*
X-41477738Y13679493D01*
X-41277046Y13836724D01*
X-41264525Y13845367D01*
X-41046339Y13977266D01*
X-41032866Y13984337D01*
X-40949833Y14021707D01*
X-40800377Y14088972D01*
X-40786159Y14094364D01*
X-40542744Y14170215D01*
X-40527971Y14173856D01*
X-40277198Y14219812D01*
X-40262094Y14221646D01*
X-40044406Y14234814D01*
X-40021013Y14234051D01*
X-40010714Y14232750D01*
X-39968398Y14236899D01*
X-39956104Y14237500D01*
X-36972538Y14237500D01*
X-36904417Y14217498D01*
G37*
%TD.AperFunction*%
%TD*%
M02*
