%TF.GenerationSoftware,KiCad,Pcbnew,(6.0.7)*%
%TF.CreationDate,2023-03-07T14:44:30-08:00*%
%TF.ProjectId,Foot Pedal PCB,466f6f74-2050-4656-9461-6c205043422e,A1*%
%TF.SameCoordinates,PX8917370PY68e7780*%
%TF.FileFunction,Legend,Bot*%
%TF.FilePolarity,Positive*%
%FSLAX46Y46*%
G04 Gerber Fmt 4.6, Leading zero omitted, Abs format (unit mm)*
G04 Created by KiCad (PCBNEW (6.0.7)) date 2023-03-07 14:44:30*
%MOMM*%
%LPD*%
G01*
G04 APERTURE LIST*
%ADD10C,0.150000*%
%TA.AperFunction,Profile*%
%ADD11C,0.200000*%
%TD*%
%ADD12C,0.300000*%
%ADD13C,0.120000*%
G04 APERTURE END LIST*
D10*
X33750000Y-2250000D02*
X37250000Y-2250000D01*
X37250000Y-2250000D02*
X37250000Y-6250000D01*
X37250000Y-6250000D02*
X33750000Y-6250000D01*
X33750000Y-6250000D02*
X33750000Y-2250000D01*
X26250000Y2250000D02*
X29750000Y2250000D01*
X29750000Y2250000D02*
X29750000Y6250000D01*
X29750000Y6250000D02*
X26250000Y6250000D01*
X26250000Y6250000D02*
X26250000Y2250000D01*
D11*
X-43000000Y12000000D02*
X-43000000Y9000000D01*
X43000000Y-9000000D02*
X43000000Y-12000000D01*
X40000000Y15000000D02*
X-40000000Y15000000D01*
X43000000Y12000000D02*
G75*
G03*
X40000000Y15000000I-3000000J0D01*
G01*
X-43000000Y-12000000D02*
G75*
G03*
X-40000000Y-15000000I3000000J0D01*
G01*
X43000000Y9000000D02*
X43000000Y-9000000D01*
X43000000Y9000000D02*
X43000000Y12000000D01*
X40000000Y-15000000D02*
X-40000000Y-15000000D01*
X-43000000Y-12000000D02*
X-43000000Y-9000000D01*
X-40000000Y15000000D02*
G75*
G03*
X-43000000Y12000000I0J-3000000D01*
G01*
X-43000000Y-9000000D02*
X-43000000Y9000000D01*
X40000000Y-15000000D02*
G75*
G03*
X43000000Y-12000000I0J3000000D01*
G01*
D10*
X36678571Y2028929D02*
X35678571Y2028929D01*
X36678571Y528929D01*
X35678571Y528929D01*
X35107142Y528929D02*
X35107142Y1528929D01*
X35107142Y2028929D02*
X35178571Y1957500D01*
X35107142Y1886072D01*
X35035714Y1957500D01*
X35107142Y2028929D01*
X35107142Y1886072D01*
X34392857Y1528929D02*
X34392857Y28929D01*
X34392857Y1457500D02*
X34250000Y1528929D01*
X33964285Y1528929D01*
X33821428Y1457500D01*
X33750000Y1386072D01*
X33678571Y1243215D01*
X33678571Y814643D01*
X33750000Y671786D01*
X33821428Y600358D01*
X33964285Y528929D01*
X34250000Y528929D01*
X34392857Y600358D01*
X32107142Y2028929D02*
X31250000Y2028929D01*
X31678571Y528929D02*
X31678571Y2028929D01*
X30750000Y528929D02*
X30750000Y1528929D01*
X30750000Y2028929D02*
X30821428Y1957500D01*
X30750000Y1886072D01*
X30678571Y1957500D01*
X30750000Y2028929D01*
X30750000Y1886072D01*
X29464285Y600358D02*
X29607142Y528929D01*
X29892857Y528929D01*
X30035714Y600358D01*
X30107142Y743215D01*
X30107142Y1314643D01*
X30035714Y1457500D01*
X29892857Y1528929D01*
X29607142Y1528929D01*
X29464285Y1457500D01*
X29392857Y1314643D01*
X29392857Y1171786D01*
X30107142Y1028929D01*
X39142857Y-1886071D02*
X39142857Y-386071D01*
X39142857Y-1100357D02*
X38285714Y-1100357D01*
X38285714Y-1886071D02*
X38285714Y-386071D01*
X37000000Y-1814642D02*
X37142857Y-1886071D01*
X37428571Y-1886071D01*
X37571428Y-1814642D01*
X37642857Y-1671785D01*
X37642857Y-1100357D01*
X37571428Y-957500D01*
X37428571Y-886071D01*
X37142857Y-886071D01*
X37000000Y-957500D01*
X36928571Y-1100357D01*
X36928571Y-1243214D01*
X37642857Y-1386071D01*
X35642857Y-1886071D02*
X35642857Y-1100357D01*
X35714285Y-957500D01*
X35857142Y-886071D01*
X36142857Y-886071D01*
X36285714Y-957500D01*
X35642857Y-1814642D02*
X35785714Y-1886071D01*
X36142857Y-1886071D01*
X36285714Y-1814642D01*
X36357142Y-1671785D01*
X36357142Y-1528928D01*
X36285714Y-1386071D01*
X36142857Y-1314642D01*
X35785714Y-1314642D01*
X35642857Y-1243214D01*
X34285714Y-1886071D02*
X34285714Y-386071D01*
X34285714Y-1814642D02*
X34428571Y-1886071D01*
X34714285Y-1886071D01*
X34857142Y-1814642D01*
X34928571Y-1743214D01*
X35000000Y-1600357D01*
X35000000Y-1171785D01*
X34928571Y-1028928D01*
X34857142Y-957500D01*
X34714285Y-886071D01*
X34428571Y-886071D01*
X34285714Y-957500D01*
X33642857Y-1814642D02*
X33500000Y-1886071D01*
X33214285Y-1886071D01*
X33071428Y-1814642D01*
X33000000Y-1671785D01*
X33000000Y-1600357D01*
X33071428Y-1457500D01*
X33214285Y-1386071D01*
X33428571Y-1386071D01*
X33571428Y-1314642D01*
X33642857Y-1171785D01*
X33642857Y-1100357D01*
X33571428Y-957500D01*
X33428571Y-886071D01*
X33214285Y-886071D01*
X33071428Y-957500D01*
X31214285Y-1886071D02*
X31214285Y-386071D01*
X31214285Y-1100357D02*
X30357142Y-1100357D01*
X30357142Y-1886071D02*
X30357142Y-386071D01*
X29071428Y-1814642D02*
X29214285Y-1886071D01*
X29500000Y-1886071D01*
X29642857Y-1814642D01*
X29714285Y-1671785D01*
X29714285Y-1100357D01*
X29642857Y-957500D01*
X29500000Y-886071D01*
X29214285Y-886071D01*
X29071428Y-957500D01*
X29000000Y-1100357D01*
X29000000Y-1243214D01*
X29714285Y-1386071D01*
X28357142Y-1886071D02*
X28357142Y-886071D01*
X28357142Y-1171785D02*
X28285714Y-1028928D01*
X28214285Y-957500D01*
X28071428Y-886071D01*
X27928571Y-886071D01*
X26857142Y-1814642D02*
X27000000Y-1886071D01*
X27285714Y-1886071D01*
X27428571Y-1814642D01*
X27500000Y-1671785D01*
X27500000Y-1100357D01*
X27428571Y-957500D01*
X27285714Y-886071D01*
X27000000Y-886071D01*
X26857142Y-957500D01*
X26785714Y-1100357D01*
X26785714Y-1243214D01*
X27500000Y-1386071D01*
D12*
X-31071429Y2107143D02*
X-31785715Y2607143D01*
X-31071429Y2964286D02*
X-32571429Y2964286D01*
X-32571429Y2392858D01*
X-32500000Y2250000D01*
X-32428572Y2178572D01*
X-32285715Y2107143D01*
X-32071429Y2107143D01*
X-31928572Y2178572D01*
X-31857143Y2250000D01*
X-31785715Y2392858D01*
X-31785715Y2964286D01*
X-31142858Y892858D02*
X-31071429Y1035715D01*
X-31071429Y1321429D01*
X-31142858Y1464286D01*
X-31285715Y1535715D01*
X-31857143Y1535715D01*
X-32000000Y1464286D01*
X-32071429Y1321429D01*
X-32071429Y1035715D01*
X-32000000Y892858D01*
X-31857143Y821429D01*
X-31714286Y821429D01*
X-31571429Y1535715D01*
X-31142858Y250000D02*
X-31071429Y107143D01*
X-31071429Y-178571D01*
X-31142858Y-321428D01*
X-31285715Y-392857D01*
X-31357143Y-392857D01*
X-31500000Y-321428D01*
X-31571429Y-178571D01*
X-31571429Y35715D01*
X-31642858Y178572D01*
X-31785715Y250000D01*
X-31857143Y250000D01*
X-32000000Y178572D01*
X-32071429Y35715D01*
X-32071429Y-178571D01*
X-32000000Y-321428D01*
X-31142858Y-1607142D02*
X-31071429Y-1464285D01*
X-31071429Y-1178571D01*
X-31142858Y-1035714D01*
X-31285715Y-964285D01*
X-31857143Y-964285D01*
X-32000000Y-1035714D01*
X-32071429Y-1178571D01*
X-32071429Y-1464285D01*
X-32000000Y-1607142D01*
X-31857143Y-1678571D01*
X-31714286Y-1678571D01*
X-31571429Y-964285D01*
X-32071429Y-2107142D02*
X-32071429Y-2678571D01*
X-32571429Y-2321428D02*
X-31285715Y-2321428D01*
X-31142858Y-2392857D01*
X-31071429Y-2535714D01*
X-31071429Y-2678571D01*
D10*
%TO.C,SW1*%
X-33345239Y1083334D02*
X-33297620Y940477D01*
X-33297620Y702381D01*
X-33345239Y607143D01*
X-33392858Y559524D01*
X-33488096Y511905D01*
X-33583334Y511905D01*
X-33678572Y559524D01*
X-33726191Y607143D01*
X-33773810Y702381D01*
X-33821429Y892858D01*
X-33869048Y988096D01*
X-33916667Y1035715D01*
X-34011905Y1083334D01*
X-34107143Y1083334D01*
X-34202381Y1035715D01*
X-34250000Y988096D01*
X-34297620Y892858D01*
X-34297620Y654762D01*
X-34250000Y511905D01*
X-34297620Y178572D02*
X-33297620Y-59523D01*
X-34011905Y-250000D01*
X-33297620Y-440476D01*
X-34297620Y-678571D01*
X-33297620Y-1583333D02*
X-33297620Y-1011904D01*
X-33297620Y-1297619D02*
X-34297620Y-1297619D01*
X-34154762Y-1202380D01*
X-34059524Y-1107142D01*
X-34011905Y-1011904D01*
%TO.C,R1*%
X2802380Y12166667D02*
X2326190Y12500000D01*
X2802380Y12738096D02*
X1802380Y12738096D01*
X1802380Y12357143D01*
X1850000Y12261905D01*
X1897619Y12214286D01*
X1992857Y12166667D01*
X2135714Y12166667D01*
X2230952Y12214286D01*
X2278571Y12261905D01*
X2326190Y12357143D01*
X2326190Y12738096D01*
X2802380Y11214286D02*
X2802380Y11785715D01*
X2802380Y11500000D02*
X1802380Y11500000D01*
X1945238Y11595239D01*
X2040476Y11690477D01*
X2088095Y11785715D01*
%TO.C,R2*%
X14166666Y10897620D02*
X14500000Y11373810D01*
X14738095Y10897620D02*
X14738095Y11897620D01*
X14357142Y11897620D01*
X14261904Y11850000D01*
X14214285Y11802381D01*
X14166666Y11707143D01*
X14166666Y11564286D01*
X14214285Y11469048D01*
X14261904Y11421429D01*
X14357142Y11373810D01*
X14738095Y11373810D01*
X13785714Y11802381D02*
X13738095Y11850000D01*
X13642857Y11897620D01*
X13404761Y11897620D01*
X13309523Y11850000D01*
X13261904Y11802381D01*
X13214285Y11707143D01*
X13214285Y11611905D01*
X13261904Y11469048D01*
X13833333Y10897620D01*
X13214285Y10897620D01*
%TO.C,C1*%
X-3927374Y-4691671D02*
X-3927374Y-4624328D01*
X-3994718Y-4489641D01*
X-4062061Y-4422297D01*
X-4196749Y-4354954D01*
X-4331436Y-4354954D01*
X-4432451Y-4388625D01*
X-4600810Y-4489641D01*
X-4701825Y-4590656D01*
X-4802840Y-4759015D01*
X-4836512Y-4860030D01*
X-4836512Y-4994717D01*
X-4769168Y-5129404D01*
X-4701825Y-5196748D01*
X-4567138Y-5264091D01*
X-4499794Y-5264091D01*
X-3186596Y-5297763D02*
X-3590657Y-4893702D01*
X-3388626Y-5095732D02*
X-4095733Y-5802839D01*
X-4062061Y-5634480D01*
X-4062061Y-5499793D01*
X-4095733Y-5398778D01*
D13*
%TO.C,SW1*%
X-37250000Y-3500000D02*
X-38750000Y-3500000D01*
X-38750000Y3500000D02*
X-37250000Y3500000D01*
X-34750000Y2250000D02*
X-34750000Y-2250000D01*
X-41250000Y-2250000D02*
X-41250000Y2250000D01*
%TO.C,R1*%
X3265000Y12227064D02*
X3265000Y11772936D01*
X4735000Y12227064D02*
X4735000Y11772936D01*
%TO.C,R2*%
X13772936Y12265000D02*
X14227064Y12265000D01*
X13772936Y13735000D02*
X14227064Y13735000D01*
%TO.C,C1*%
X-4545543Y-5915010D02*
X-4915010Y-5545543D01*
X-5584990Y-6954457D02*
X-5954457Y-6584990D01*
%TD*%
M02*
