<?xml version="1.0" standalone="no"?>
 <!DOCTYPE svg PUBLIC "-//W3C//DTD SVG 1.1//EN" 
 "http://www.w3.org/Graphics/SVG/1.1/DTD/svg11.dtd"> 
<svg
  xmlns:svg="http://www.w3.org/2000/svg"
  xmlns="http://www.w3.org/2000/svg"
  xmlns:xlink="http://www.w3.org/1999/xlink"
  version="1.1"
  width="297.0022mm" height="210.0072mm" viewBox="0.0000 0.0000 297.0022 210.0072">
<title>SVG Image created as Foot Pedal PCB-NPTH-drl_map.svg date 2023/10/10 18:27:53 </title>
  <desc>Image generated by PCBNEW </desc>
<g style="fill:#000000; fill-opacity:1.0000;stroke:#000000; stroke-opacity:1.0000;
stroke-linecap:round; stroke-linejoin:round;"
 transform="translate(0 0) scale(1 1)">
</g>
<g style="fill:#000000; fill-opacity:0.0; 
stroke:#000000; stroke-width:0.0000; stroke-opacity:1; 
stroke-linecap:round; stroke-linejoin:round;">
</g>
<g style="fill:#000000; fill-opacity:0.0; 
stroke:#000000; stroke-width:0.6000; stroke-opacity:1; 
stroke-linecap:round; stroke-linejoin:round;">
<path d="M19.5011 27.0022
L19.5011 36.0022
" />
<path d="M277.5011 90.0022
L277.5011 99.0022
" />
<path d="M268.5011 18.0022
L28.5011 18.0022
" />
<path d="M277.5011 27.0022 A9.0000 9.0000 0.0 0 0 268.5011 18.0022" />
<path d="M19.5011 99.0022 A9.0000 9.0000 0.0 0 0 28.5011 108.0022" />
<path d="M277.5011 36.0022
L277.5011 90.0022
" />
<path d="M277.5011 36.0022
L277.5011 27.0022
" />
<path d="M268.5011 108.0022
L28.5011 108.0022
" />
<path d="M19.5011 99.0022
L19.5011 90.0022
" />
<path d="M28.5011 18.0022 A9.0000 9.0000 0.0 0 0 19.5011 27.0022" />
<path d="M19.5011 90.0022
L19.5011 36.0022
" />
<path d="M268.5011 108.0022 A9.0000 9.0000 0.0 0 0 277.5011 99.0022" />
</g>
<g style="fill:#000000; fill-opacity:0.0; 
stroke:#000000; stroke-width:0.9000; stroke-opacity:1; 
stroke-linecap:round; stroke-linejoin:round;">
<path d="M228.0011 46.5022
L237.0011 55.5022
" />
<path d="M237.0011 46.5022
L228.0011 55.5022
" />
<path d="M228.0011 70.5022
L237.0011 79.5022
" />
<path d="M237.0011 70.5022
L228.0011 79.5022
" />
<path d="M250.5011 46.5022
L259.5011 55.5022
" />
<path d="M259.5011 46.5022
L250.5011 55.5022
" />
<path d="M250.5011 70.5022
L259.5011 79.5022
" />
<path d="M259.5011 70.5022
L250.5011 79.5022
" />
</g>
<g style="fill:#000000; fill-opacity:0.0; 
stroke:#000000; stroke-width:0.9600; stroke-opacity:1; 
stroke-linecap:round; stroke-linejoin:round;">
<circle cx="43.5011" cy="27.0022" r="4.8000" /> 
<circle cx="43.5011" cy="99.0022" r="4.8000" /> 
<circle cx="253.5011" cy="27.0022" r="4.8000" /> 
<circle cx="253.5011" cy="99.0022" r="4.8000" /> 
</g>
<g style="fill:#000000; fill-opacity:0.0; 
stroke:#000000; stroke-width:0.6000; stroke-opacity:1; 
stroke-linecap:round; stroke-linejoin:round;">
</g>
<g style="fill:#000000; fill-opacity:0.0; 
stroke:#000000; stroke-width:0.2000; stroke-opacity:1; 
stroke-linecap:round; stroke-linejoin:round;">
<text x="21.2011" y="111.5022"
textLength="14.8667" font-size="2.6667" lengthAdjust="spacingAndGlyphs"
text-anchor="start" opacity="0">Drill Map:</text>
<g class="stroked-text"><desc>Drill Map:</desc>
<path d="M21.8089 111.4170
L21.8089 109.4170
" />
<path d="M21.8089 109.4170
L22.2851 109.4170
" />
<path d="M22.2851 109.4170
L22.5708 109.5122
" />
<path d="M22.5708 109.5122
L22.7612 109.7027
" />
<path d="M22.7612 109.7027
L22.8565 109.8932
" />
<path d="M22.8565 109.8932
L22.9517 110.2741
" />
<path d="M22.9517 110.2741
L22.9517 110.5599
" />
<path d="M22.9517 110.5599
L22.8565 110.9408
" />
<path d="M22.8565 110.9408
L22.7612 111.1313
" />
<path d="M22.7612 111.1313
L22.5708 111.3218
" />
<path d="M22.5708 111.3218
L22.2851 111.4170
" />
<path d="M22.2851 111.4170
L21.8089 111.4170
" />
<path d="M23.8089 111.4170
L23.8089 110.0837
" />
<path d="M23.8089 110.4646
L23.9041 110.2741
" />
<path d="M23.9041 110.2741
L23.9993 110.1789
" />
<path d="M23.9993 110.1789
L24.1898 110.0837
" />
<path d="M24.1898 110.0837
L24.3803 110.0837
" />
<path d="M25.0470 111.4170
L25.0470 110.0837
" />
<path d="M25.0470 109.4170
L24.9517 109.5122
" />
<path d="M24.9517 109.5122
L25.0470 109.6075
" />
<path d="M25.0470 109.6075
L25.1422 109.5122
" />
<path d="M25.1422 109.5122
L25.0470 109.4170
" />
<path d="M25.0470 109.4170
L25.0470 109.6075
" />
<path d="M26.2851 111.4170
L26.0946 111.3218
" />
<path d="M26.0946 111.3218
L25.9993 111.1313
" />
<path d="M25.9993 111.1313
L25.9993 109.4170
" />
<path d="M27.3327 111.4170
L27.1422 111.3218
" />
<path d="M27.1422 111.3218
L27.0470 111.1313
" />
<path d="M27.0470 111.1313
L27.0470 109.4170
" />
<path d="M29.6184 111.4170
L29.6184 109.4170
" />
<path d="M29.6184 109.4170
L30.2851 110.8456
" />
<path d="M30.2851 110.8456
L30.9517 109.4170
" />
<path d="M30.9517 109.4170
L30.9517 111.4170
" />
<path d="M32.7613 111.4170
L32.7613 110.3694
" />
<path d="M32.7613 110.3694
L32.6660 110.1789
" />
<path d="M32.6660 110.1789
L32.4755 110.0837
" />
<path d="M32.4755 110.0837
L32.0946 110.0837
" />
<path d="M32.0946 110.0837
L31.9041 110.1789
" />
<path d="M32.7613 111.3218
L32.5708 111.4170
" />
<path d="M32.5708 111.4170
L32.0946 111.4170
" />
<path d="M32.0946 111.4170
L31.9041 111.3218
" />
<path d="M31.9041 111.3218
L31.8089 111.1313
" />
<path d="M31.8089 111.1313
L31.8089 110.9408
" />
<path d="M31.8089 110.9408
L31.9041 110.7503
" />
<path d="M31.9041 110.7503
L32.0946 110.6551
" />
<path d="M32.0946 110.6551
L32.5708 110.6551
" />
<path d="M32.5708 110.6551
L32.7613 110.5599
" />
<path d="M33.7136 110.0837
L33.7136 112.0837
" />
<path d="M33.7136 110.1789
L33.9041 110.0837
" />
<path d="M33.9041 110.0837
L34.2851 110.0837
" />
<path d="M34.2851 110.0837
L34.4755 110.1789
" />
<path d="M34.4755 110.1789
L34.5708 110.2741
" />
<path d="M34.5708 110.2741
L34.6660 110.4646
" />
<path d="M34.6660 110.4646
L34.6660 111.0360
" />
<path d="M34.6660 111.0360
L34.5708 111.2265
" />
<path d="M34.5708 111.2265
L34.4755 111.3218
" />
<path d="M34.4755 111.3218
L34.2851 111.4170
" />
<path d="M34.2851 111.4170
L33.9041 111.4170
" />
<path d="M33.9041 111.4170
L33.7136 111.3218
" />
<path d="M35.5232 111.2265
L35.6184 111.3218
" />
<path d="M35.6184 111.3218
L35.5232 111.4170
" />
<path d="M35.5232 111.4170
L35.4279 111.3218
" />
<path d="M35.4279 111.3218
L35.5232 111.2265
" />
<path d="M35.5232 111.2265
L35.5232 111.4170
" />
<path d="M35.5232 110.1789
L35.6184 110.2741
" />
<path d="M35.6184 110.2741
L35.5232 110.3694
" />
<path d="M35.5232 110.3694
L35.4279 110.2741
" />
<path d="M35.4279 110.2741
L35.5232 110.1789
" />
<path d="M35.5232 110.1789
L35.5232 110.3694
" />
</g></g>
<g style="fill:#000000; fill-opacity:0.0; 
stroke:#000000; stroke-width:0.2000; stroke-opacity:1; 
stroke-linecap:round; stroke-linejoin:round;">
<path d="M17.2011 113.7022
L19.2011 115.7022
" />
<path d="M19.2011 113.7022
L17.2011 115.7022
" />
</g>
<g style="fill:#000000; fill-opacity:0.0; 
stroke:#000000; stroke-width:0.6000; stroke-opacity:1; 
stroke-linecap:round; stroke-linejoin:round;">
</g>
<g style="fill:#000000; fill-opacity:0.0; 
stroke:#000000; stroke-width:0.2000; stroke-opacity:1; 
stroke-linecap:round; stroke-linejoin:round;">
<text x="21.2011" y="115.7022"
textLength="66.6762" font-size="2.6667" lengthAdjust="spacingAndGlyphs"
text-anchor="start" opacity="0">3.000mm / 0.1181" (4 holes) (not plated)</text>
<g class="stroked-text"><desc>3.000mm / 0.1181" (4 holes) (not plated)</desc>
<path d="M21.6184 113.6170
L22.8565 113.6170
" />
<path d="M22.8565 113.6170
L22.1898 114.3789
" />
<path d="M22.1898 114.3789
L22.4755 114.3789
" />
<path d="M22.4755 114.3789
L22.6660 114.4741
" />
<path d="M22.6660 114.4741
L22.7612 114.5694
" />
<path d="M22.7612 114.5694
L22.8565 114.7599
" />
<path d="M22.8565 114.7599
L22.8565 115.2360
" />
<path d="M22.8565 115.2360
L22.7612 115.4265
" />
<path d="M22.7612 115.4265
L22.6660 115.5218
" />
<path d="M22.6660 115.5218
L22.4755 115.6170
" />
<path d="M22.4755 115.6170
L21.9041 115.6170
" />
<path d="M21.9041 115.6170
L21.7136 115.5218
" />
<path d="M21.7136 115.5218
L21.6184 115.4265
" />
<path d="M23.7136 115.4265
L23.8089 115.5218
" />
<path d="M23.8089 115.5218
L23.7136 115.6170
" />
<path d="M23.7136 115.6170
L23.6184 115.5218
" />
<path d="M23.6184 115.5218
L23.7136 115.4265
" />
<path d="M23.7136 115.4265
L23.7136 115.6170
" />
<path d="M25.0470 113.6170
L25.2374 113.6170
" />
<path d="M25.2374 113.6170
L25.4279 113.7122
" />
<path d="M25.4279 113.7122
L25.5232 113.8075
" />
<path d="M25.5232 113.8075
L25.6184 113.9980
" />
<path d="M25.6184 113.9980
L25.7136 114.3789
" />
<path d="M25.7136 114.3789
L25.7136 114.8551
" />
<path d="M25.7136 114.8551
L25.6184 115.2360
" />
<path d="M25.6184 115.2360
L25.5232 115.4265
" />
<path d="M25.5232 115.4265
L25.4279 115.5218
" />
<path d="M25.4279 115.5218
L25.2374 115.6170
" />
<path d="M25.2374 115.6170
L25.0470 115.6170
" />
<path d="M25.0470 115.6170
L24.8565 115.5218
" />
<path d="M24.8565 115.5218
L24.7613 115.4265
" />
<path d="M24.7613 115.4265
L24.6660 115.2360
" />
<path d="M24.6660 115.2360
L24.5708 114.8551
" />
<path d="M24.5708 114.8551
L24.5708 114.3789
" />
<path d="M24.5708 114.3789
L24.6660 113.9980
" />
<path d="M24.6660 113.9980
L24.7613 113.8075
" />
<path d="M24.7613 113.8075
L24.8565 113.7122
" />
<path d="M24.8565 113.7122
L25.0470 113.6170
" />
<path d="M26.9517 113.6170
L27.1422 113.6170
" />
<path d="M27.1422 113.6170
L27.3327 113.7122
" />
<path d="M27.3327 113.7122
L27.4279 113.8075
" />
<path d="M27.4279 113.8075
L27.5232 113.9980
" />
<path d="M27.5232 113.9980
L27.6184 114.3789
" />
<path d="M27.6184 114.3789
L27.6184 114.8551
" />
<path d="M27.6184 114.8551
L27.5232 115.2360
" />
<path d="M27.5232 115.2360
L27.4279 115.4265
" />
<path d="M27.4279 115.4265
L27.3327 115.5218
" />
<path d="M27.3327 115.5218
L27.1422 115.6170
" />
<path d="M27.1422 115.6170
L26.9517 115.6170
" />
<path d="M26.9517 115.6170
L26.7613 115.5218
" />
<path d="M26.7613 115.5218
L26.6660 115.4265
" />
<path d="M26.6660 115.4265
L26.5708 115.2360
" />
<path d="M26.5708 115.2360
L26.4755 114.8551
" />
<path d="M26.4755 114.8551
L26.4755 114.3789
" />
<path d="M26.4755 114.3789
L26.5708 113.9980
" />
<path d="M26.5708 113.9980
L26.6660 113.8075
" />
<path d="M26.6660 113.8075
L26.7613 113.7122
" />
<path d="M26.7613 113.7122
L26.9517 113.6170
" />
<path d="M28.8565 113.6170
L29.0470 113.6170
" />
<path d="M29.0470 113.6170
L29.2374 113.7122
" />
<path d="M29.2374 113.7122
L29.3327 113.8075
" />
<path d="M29.3327 113.8075
L29.4279 113.9980
" />
<path d="M29.4279 113.9980
L29.5232 114.3789
" />
<path d="M29.5232 114.3789
L29.5232 114.8551
" />
<path d="M29.5232 114.8551
L29.4279 115.2360
" />
<path d="M29.4279 115.2360
L29.3327 115.4265
" />
<path d="M29.3327 115.4265
L29.2374 115.5218
" />
<path d="M29.2374 115.5218
L29.0470 115.6170
" />
<path d="M29.0470 115.6170
L28.8565 115.6170
" />
<path d="M28.8565 115.6170
L28.6660 115.5218
" />
<path d="M28.6660 115.5218
L28.5708 115.4265
" />
<path d="M28.5708 115.4265
L28.4755 115.2360
" />
<path d="M28.4755 115.2360
L28.3803 114.8551
" />
<path d="M28.3803 114.8551
L28.3803 114.3789
" />
<path d="M28.3803 114.3789
L28.4755 113.9980
" />
<path d="M28.4755 113.9980
L28.5708 113.8075
" />
<path d="M28.5708 113.8075
L28.6660 113.7122
" />
<path d="M28.6660 113.7122
L28.8565 113.6170
" />
<path d="M30.3803 115.6170
L30.3803 114.2837
" />
<path d="M30.3803 114.4741
L30.4755 114.3789
" />
<path d="M30.4755 114.3789
L30.6660 114.2837
" />
<path d="M30.6660 114.2837
L30.9517 114.2837
" />
<path d="M30.9517 114.2837
L31.1422 114.3789
" />
<path d="M31.1422 114.3789
L31.2374 114.5694
" />
<path d="M31.2374 114.5694
L31.2374 115.6170
" />
<path d="M31.2374 114.5694
L31.3327 114.3789
" />
<path d="M31.3327 114.3789
L31.5232 114.2837
" />
<path d="M31.5232 114.2837
L31.8089 114.2837
" />
<path d="M31.8089 114.2837
L31.9993 114.3789
" />
<path d="M31.9993 114.3789
L32.0946 114.5694
" />
<path d="M32.0946 114.5694
L32.0946 115.6170
" />
<path d="M33.0470 115.6170
L33.0470 114.2837
" />
<path d="M33.0470 114.4741
L33.1422 114.3789
" />
<path d="M33.1422 114.3789
L33.3327 114.2837
" />
<path d="M33.3327 114.2837
L33.6184 114.2837
" />
<path d="M33.6184 114.2837
L33.8089 114.3789
" />
<path d="M33.8089 114.3789
L33.9041 114.5694
" />
<path d="M33.9041 114.5694
L33.9041 115.6170
" />
<path d="M33.9041 114.5694
L33.9993 114.3789
" />
<path d="M33.9993 114.3789
L34.1898 114.2837
" />
<path d="M34.1898 114.2837
L34.4755 114.2837
" />
<path d="M34.4755 114.2837
L34.6660 114.3789
" />
<path d="M34.6660 114.3789
L34.7613 114.5694
" />
<path d="M34.7613 114.5694
L34.7613 115.6170
" />
<path d="M38.6660 113.5218
L36.9517 116.0932
" />
<path d="M41.2374 113.6170
L41.4279 113.6170
" />
<path d="M41.4279 113.6170
L41.6184 113.7122
" />
<path d="M41.6184 113.7122
L41.7136 113.8075
" />
<path d="M41.7136 113.8075
L41.8089 113.9980
" />
<path d="M41.8089 113.9980
L41.9041 114.3789
" />
<path d="M41.9041 114.3789
L41.9041 114.8551
" />
<path d="M41.9041 114.8551
L41.8089 115.2360
" />
<path d="M41.8089 115.2360
L41.7136 115.4265
" />
<path d="M41.7136 115.4265
L41.6184 115.5218
" />
<path d="M41.6184 115.5218
L41.4279 115.6170
" />
<path d="M41.4279 115.6170
L41.2374 115.6170
" />
<path d="M41.2374 115.6170
L41.0470 115.5218
" />
<path d="M41.0470 115.5218
L40.9517 115.4265
" />
<path d="M40.9517 115.4265
L40.8565 115.2360
" />
<path d="M40.8565 115.2360
L40.7613 114.8551
" />
<path d="M40.7613 114.8551
L40.7613 114.3789
" />
<path d="M40.7613 114.3789
L40.8565 113.9980
" />
<path d="M40.8565 113.9980
L40.9517 113.8075
" />
<path d="M40.9517 113.8075
L41.0470 113.7122
" />
<path d="M41.0470 113.7122
L41.2374 113.6170
" />
<path d="M42.7613 115.4265
L42.8565 115.5218
" />
<path d="M42.8565 115.5218
L42.7613 115.6170
" />
<path d="M42.7613 115.6170
L42.6660 115.5218
" />
<path d="M42.6660 115.5218
L42.7613 115.4265
" />
<path d="M42.7613 115.4265
L42.7613 115.6170
" />
<path d="M44.7613 115.6170
L43.6184 115.6170
" />
<path d="M44.1898 115.6170
L44.1898 113.6170
" />
<path d="M44.1898 113.6170
L43.9994 113.9027
" />
<path d="M43.9994 113.9027
L43.8089 114.0932
" />
<path d="M43.8089 114.0932
L43.6184 114.1884
" />
<path d="M46.6660 115.6170
L45.5232 115.6170
" />
<path d="M46.0946 115.6170
L46.0946 113.6170
" />
<path d="M46.0946 113.6170
L45.9041 113.9027
" />
<path d="M45.9041 113.9027
L45.7136 114.0932
" />
<path d="M45.7136 114.0932
L45.5232 114.1884
" />
<path d="M47.8089 114.4741
L47.6184 114.3789
" />
<path d="M47.6184 114.3789
L47.5232 114.2837
" />
<path d="M47.5232 114.2837
L47.4279 114.0932
" />
<path d="M47.4279 114.0932
L47.4279 113.9980
" />
<path d="M47.4279 113.9980
L47.5232 113.8075
" />
<path d="M47.5232 113.8075
L47.6184 113.7122
" />
<path d="M47.6184 113.7122
L47.8089 113.6170
" />
<path d="M47.8089 113.6170
L48.1898 113.6170
" />
<path d="M48.1898 113.6170
L48.3803 113.7122
" />
<path d="M48.3803 113.7122
L48.4755 113.8075
" />
<path d="M48.4755 113.8075
L48.5708 113.9980
" />
<path d="M48.5708 113.9980
L48.5708 114.0932
" />
<path d="M48.5708 114.0932
L48.4755 114.2837
" />
<path d="M48.4755 114.2837
L48.3803 114.3789
" />
<path d="M48.3803 114.3789
L48.1898 114.4741
" />
<path d="M48.1898 114.4741
L47.8089 114.4741
" />
<path d="M47.8089 114.4741
L47.6184 114.5694
" />
<path d="M47.6184 114.5694
L47.5232 114.6646
" />
<path d="M47.5232 114.6646
L47.4279 114.8551
" />
<path d="M47.4279 114.8551
L47.4279 115.2360
" />
<path d="M47.4279 115.2360
L47.5232 115.4265
" />
<path d="M47.5232 115.4265
L47.6184 115.5218
" />
<path d="M47.6184 115.5218
L47.8089 115.6170
" />
<path d="M47.8089 115.6170
L48.1898 115.6170
" />
<path d="M48.1898 115.6170
L48.3803 115.5218
" />
<path d="M48.3803 115.5218
L48.4755 115.4265
" />
<path d="M48.4755 115.4265
L48.5708 115.2360
" />
<path d="M48.5708 115.2360
L48.5708 114.8551
" />
<path d="M48.5708 114.8551
L48.4755 114.6646
" />
<path d="M48.4755 114.6646
L48.3803 114.5694
" />
<path d="M48.3803 114.5694
L48.1898 114.4741
" />
<path d="M50.4755 115.6170
L49.3327 115.6170
" />
<path d="M49.9041 115.6170
L49.9041 113.6170
" />
<path d="M49.9041 113.6170
L49.7136 113.9027
" />
<path d="M49.7136 113.9027
L49.5232 114.0932
" />
<path d="M49.5232 114.0932
L49.3327 114.1884
" />
<path d="M51.2375 113.6170
L51.2375 113.9980
" />
<path d="M51.9994 113.6170
L51.9994 113.9980
" />
<path d="M54.9517 116.3789
L54.8565 116.2837
" />
<path d="M54.8565 116.2837
L54.6660 115.9980
" />
<path d="M54.6660 115.9980
L54.5708 115.8075
" />
<path d="M54.5708 115.8075
L54.4756 115.5218
" />
<path d="M54.4756 115.5218
L54.3803 115.0456
" />
<path d="M54.3803 115.0456
L54.3803 114.6646
" />
<path d="M54.3803 114.6646
L54.4756 114.1884
" />
<path d="M54.4756 114.1884
L54.5708 113.9027
" />
<path d="M54.5708 113.9027
L54.6660 113.7122
" />
<path d="M54.6660 113.7122
L54.8565 113.4265
" />
<path d="M54.8565 113.4265
L54.9517 113.3313
" />
<path d="M56.5708 114.2837
L56.5708 115.6170
" />
<path d="M56.0946 113.5218
L55.6184 114.9503
" />
<path d="M55.6184 114.9503
L56.8565 114.9503
" />
<path d="M59.1422 115.6170
L59.1422 113.6170
" />
<path d="M59.9994 115.6170
L59.9994 114.5694
" />
<path d="M59.9994 114.5694
L59.9041 114.3789
" />
<path d="M59.9041 114.3789
L59.7136 114.2837
" />
<path d="M59.7136 114.2837
L59.4279 114.2837
" />
<path d="M59.4279 114.2837
L59.2375 114.3789
" />
<path d="M59.2375 114.3789
L59.1422 114.4741
" />
<path d="M61.2375 115.6170
L61.0470 115.5218
" />
<path d="M61.0470 115.5218
L60.9517 115.4265
" />
<path d="M60.9517 115.4265
L60.8565 115.2360
" />
<path d="M60.8565 115.2360
L60.8565 114.6646
" />
<path d="M60.8565 114.6646
L60.9517 114.4741
" />
<path d="M60.9517 114.4741
L61.0470 114.3789
" />
<path d="M61.0470 114.3789
L61.2375 114.2837
" />
<path d="M61.2375 114.2837
L61.5232 114.2837
" />
<path d="M61.5232 114.2837
L61.7137 114.3789
" />
<path d="M61.7137 114.3789
L61.8089 114.4741
" />
<path d="M61.8089 114.4741
L61.9041 114.6646
" />
<path d="M61.9041 114.6646
L61.9041 115.2360
" />
<path d="M61.9041 115.2360
L61.8089 115.4265
" />
<path d="M61.8089 115.4265
L61.7137 115.5218
" />
<path d="M61.7137 115.5218
L61.5232 115.6170
" />
<path d="M61.5232 115.6170
L61.2375 115.6170
" />
<path d="M63.0470 115.6170
L62.8565 115.5218
" />
<path d="M62.8565 115.5218
L62.7613 115.3313
" />
<path d="M62.7613 115.3313
L62.7613 113.6170
" />
<path d="M64.5708 115.5218
L64.3803 115.6170
" />
<path d="M64.3803 115.6170
L63.9994 115.6170
" />
<path d="M63.9994 115.6170
L63.8089 115.5218
" />
<path d="M63.8089 115.5218
L63.7137 115.3313
" />
<path d="M63.7137 115.3313
L63.7137 114.5694
" />
<path d="M63.7137 114.5694
L63.8089 114.3789
" />
<path d="M63.8089 114.3789
L63.9994 114.2837
" />
<path d="M63.9994 114.2837
L64.3803 114.2837
" />
<path d="M64.3803 114.2837
L64.5708 114.3789
" />
<path d="M64.5708 114.3789
L64.6660 114.5694
" />
<path d="M64.6660 114.5694
L64.6660 114.7599
" />
<path d="M64.6660 114.7599
L63.7137 114.9503
" />
<path d="M65.4279 115.5218
L65.6184 115.6170
" />
<path d="M65.6184 115.6170
L65.9994 115.6170
" />
<path d="M65.9994 115.6170
L66.1898 115.5218
" />
<path d="M66.1898 115.5218
L66.2851 115.3313
" />
<path d="M66.2851 115.3313
L66.2851 115.2360
" />
<path d="M66.2851 115.2360
L66.1898 115.0456
" />
<path d="M66.1898 115.0456
L65.9994 114.9503
" />
<path d="M65.9994 114.9503
L65.7137 114.9503
" />
<path d="M65.7137 114.9503
L65.5232 114.8551
" />
<path d="M65.5232 114.8551
L65.4279 114.6646
" />
<path d="M65.4279 114.6646
L65.4279 114.5694
" />
<path d="M65.4279 114.5694
L65.5232 114.3789
" />
<path d="M65.5232 114.3789
L65.7137 114.2837
" />
<path d="M65.7137 114.2837
L65.9994 114.2837
" />
<path d="M65.9994 114.2837
L66.1898 114.3789
" />
<path d="M66.9518 116.3789
L67.0470 116.2837
" />
<path d="M67.0470 116.2837
L67.2375 115.9980
" />
<path d="M67.2375 115.9980
L67.3327 115.8075
" />
<path d="M67.3327 115.8075
L67.4279 115.5218
" />
<path d="M67.4279 115.5218
L67.5232 115.0456
" />
<path d="M67.5232 115.0456
L67.5232 114.6646
" />
<path d="M67.5232 114.6646
L67.4279 114.1884
" />
<path d="M67.4279 114.1884
L67.3327 113.9027
" />
<path d="M67.3327 113.9027
L67.2375 113.7122
" />
<path d="M67.2375 113.7122
L67.0470 113.4265
" />
<path d="M67.0470 113.4265
L66.9518 113.3313
" />
<path d="M70.5708 116.3789
L70.4756 116.2837
" />
<path d="M70.4756 116.2837
L70.2851 115.9980
" />
<path d="M70.2851 115.9980
L70.1899 115.8075
" />
<path d="M70.1899 115.8075
L70.0946 115.5218
" />
<path d="M70.0946 115.5218
L69.9994 115.0456
" />
<path d="M69.9994 115.0456
L69.9994 114.6646
" />
<path d="M69.9994 114.6646
L70.0946 114.1884
" />
<path d="M70.0946 114.1884
L70.1899 113.9027
" />
<path d="M70.1899 113.9027
L70.2851 113.7122
" />
<path d="M70.2851 113.7122
L70.4756 113.4265
" />
<path d="M70.4756 113.4265
L70.5708 113.3313
" />
<path d="M71.3327 114.2837
L71.3327 115.6170
" />
<path d="M71.3327 114.4741
L71.4279 114.3789
" />
<path d="M71.4279 114.3789
L71.6184 114.2837
" />
<path d="M71.6184 114.2837
L71.9041 114.2837
" />
<path d="M71.9041 114.2837
L72.0946 114.3789
" />
<path d="M72.0946 114.3789
L72.1899 114.5694
" />
<path d="M72.1899 114.5694
L72.1899 115.6170
" />
<path d="M73.4279 115.6170
L73.2375 115.5218
" />
<path d="M73.2375 115.5218
L73.1422 115.4265
" />
<path d="M73.1422 115.4265
L73.0470 115.2360
" />
<path d="M73.0470 115.2360
L73.0470 114.6646
" />
<path d="M73.0470 114.6646
L73.1422 114.4741
" />
<path d="M73.1422 114.4741
L73.2375 114.3789
" />
<path d="M73.2375 114.3789
L73.4279 114.2837
" />
<path d="M73.4279 114.2837
L73.7137 114.2837
" />
<path d="M73.7137 114.2837
L73.9041 114.3789
" />
<path d="M73.9041 114.3789
L73.9994 114.4741
" />
<path d="M73.9994 114.4741
L74.0946 114.6646
" />
<path d="M74.0946 114.6646
L74.0946 115.2360
" />
<path d="M74.0946 115.2360
L73.9994 115.4265
" />
<path d="M73.9994 115.4265
L73.9041 115.5218
" />
<path d="M73.9041 115.5218
L73.7137 115.6170
" />
<path d="M73.7137 115.6170
L73.4279 115.6170
" />
<path d="M74.6660 114.2837
L75.4279 114.2837
" />
<path d="M74.9518 113.6170
L74.9518 115.3313
" />
<path d="M74.9518 115.3313
L75.0470 115.5218
" />
<path d="M75.0470 115.5218
L75.2375 115.6170
" />
<path d="M75.2375 115.6170
L75.4279 115.6170
" />
<path d="M77.6184 114.2837
L77.6184 116.2837
" />
<path d="M77.6184 114.3789
L77.8089 114.2837
" />
<path d="M77.8089 114.2837
L78.1899 114.2837
" />
<path d="M78.1899 114.2837
L78.3803 114.3789
" />
<path d="M78.3803 114.3789
L78.4756 114.4741
" />
<path d="M78.4756 114.4741
L78.5708 114.6646
" />
<path d="M78.5708 114.6646
L78.5708 115.2360
" />
<path d="M78.5708 115.2360
L78.4756 115.4265
" />
<path d="M78.4756 115.4265
L78.3803 115.5218
" />
<path d="M78.3803 115.5218
L78.1899 115.6170
" />
<path d="M78.1899 115.6170
L77.8089 115.6170
" />
<path d="M77.8089 115.6170
L77.6184 115.5218
" />
<path d="M79.7137 115.6170
L79.5232 115.5218
" />
<path d="M79.5232 115.5218
L79.4280 115.3313
" />
<path d="M79.4280 115.3313
L79.4280 113.6170
" />
<path d="M81.3327 115.6170
L81.3327 114.5694
" />
<path d="M81.3327 114.5694
L81.2375 114.3789
" />
<path d="M81.2375 114.3789
L81.0470 114.2837
" />
<path d="M81.0470 114.2837
L80.6661 114.2837
" />
<path d="M80.6661 114.2837
L80.4756 114.3789
" />
<path d="M81.3327 115.5218
L81.1422 115.6170
" />
<path d="M81.1422 115.6170
L80.6661 115.6170
" />
<path d="M80.6661 115.6170
L80.4756 115.5218
" />
<path d="M80.4756 115.5218
L80.3803 115.3313
" />
<path d="M80.3803 115.3313
L80.3803 115.1408
" />
<path d="M80.3803 115.1408
L80.4756 114.9503
" />
<path d="M80.4756 114.9503
L80.6661 114.8551
" />
<path d="M80.6661 114.8551
L81.1422 114.8551
" />
<path d="M81.1422 114.8551
L81.3327 114.7599
" />
<path d="M81.9994 114.2837
L82.7613 114.2837
" />
<path d="M82.2851 113.6170
L82.2851 115.3313
" />
<path d="M82.2851 115.3313
L82.3803 115.5218
" />
<path d="M82.3803 115.5218
L82.5708 115.6170
" />
<path d="M82.5708 115.6170
L82.7613 115.6170
" />
<path d="M84.1899 115.5218
L83.9994 115.6170
" />
<path d="M83.9994 115.6170
L83.6184 115.6170
" />
<path d="M83.6184 115.6170
L83.4280 115.5218
" />
<path d="M83.4280 115.5218
L83.3327 115.3313
" />
<path d="M83.3327 115.3313
L83.3327 114.5694
" />
<path d="M83.3327 114.5694
L83.4280 114.3789
" />
<path d="M83.4280 114.3789
L83.6184 114.2837
" />
<path d="M83.6184 114.2837
L83.9994 114.2837
" />
<path d="M83.9994 114.2837
L84.1899 114.3789
" />
<path d="M84.1899 114.3789
L84.2851 114.5694
" />
<path d="M84.2851 114.5694
L84.2851 114.7599
" />
<path d="M84.2851 114.7599
L83.3327 114.9503
" />
<path d="M85.9994 115.6170
L85.9994 113.6170
" />
<path d="M85.9994 115.5218
L85.8089 115.6170
" />
<path d="M85.8089 115.6170
L85.4280 115.6170
" />
<path d="M85.4280 115.6170
L85.2375 115.5218
" />
<path d="M85.2375 115.5218
L85.1422 115.4265
" />
<path d="M85.1422 115.4265
L85.0470 115.2360
" />
<path d="M85.0470 115.2360
L85.0470 114.6646
" />
<path d="M85.0470 114.6646
L85.1422 114.4741
" />
<path d="M85.1422 114.4741
L85.2375 114.3789
" />
<path d="M85.2375 114.3789
L85.4280 114.2837
" />
<path d="M85.4280 114.2837
L85.8089 114.2837
" />
<path d="M85.8089 114.2837
L85.9994 114.3789
" />
<path d="M86.7613 116.3789
L86.8565 116.2837
" />
<path d="M86.8565 116.2837
L87.0470 115.9980
" />
<path d="M87.0470 115.9980
L87.1422 115.8075
" />
<path d="M87.1422 115.8075
L87.2375 115.5218
" />
<path d="M87.2375 115.5218
L87.3327 115.0456
" />
<path d="M87.3327 115.0456
L87.3327 114.6646
" />
<path d="M87.3327 114.6646
L87.2375 114.1884
" />
<path d="M87.2375 114.1884
L87.1422 113.9027
" />
<path d="M87.1422 113.9027
L87.0470 113.7122
" />
<path d="M87.0470 113.7122
L86.8565 113.4265
" />
<path d="M86.8565 113.4265
L86.7613 113.3313
" />
</g></g>
<g style="fill:#000000; fill-opacity:0.0; 
stroke:#000000; stroke-width:0.2000; stroke-opacity:1; 
stroke-linecap:round; stroke-linejoin:round;">
<circle cx="18.2011" cy="117.9022" r="1.0000" /> 
</g>
<g style="fill:#000000; fill-opacity:0.0; 
stroke:#000000; stroke-width:0.6000; stroke-opacity:1; 
stroke-linecap:round; stroke-linejoin:round;">
</g>
<g style="fill:#000000; fill-opacity:0.0; 
stroke:#000000; stroke-width:0.2000; stroke-opacity:1; 
stroke-linecap:round; stroke-linejoin:round;">
<text x="21.2011" y="118.9022"
textLength="66.6762" font-size="2.6667" lengthAdjust="spacingAndGlyphs"
text-anchor="start" opacity="0">3.200mm / 0.1260" (4 holes) (not plated)</text>
<g class="stroked-text"><desc>3.200mm / 0.1260" (4 holes) (not plated)</desc>
<path d="M21.6184 116.8170
L22.8565 116.8170
" />
<path d="M22.8565 116.8170
L22.1898 117.5789
" />
<path d="M22.1898 117.5789
L22.4755 117.5789
" />
<path d="M22.4755 117.5789
L22.6660 117.6741
" />
<path d="M22.6660 117.6741
L22.7612 117.7694
" />
<path d="M22.7612 117.7694
L22.8565 117.9599
" />
<path d="M22.8565 117.9599
L22.8565 118.4360
" />
<path d="M22.8565 118.4360
L22.7612 118.6265
" />
<path d="M22.7612 118.6265
L22.6660 118.7218
" />
<path d="M22.6660 118.7218
L22.4755 118.8170
" />
<path d="M22.4755 118.8170
L21.9041 118.8170
" />
<path d="M21.9041 118.8170
L21.7136 118.7218
" />
<path d="M21.7136 118.7218
L21.6184 118.6265
" />
<path d="M23.7136 118.6265
L23.8089 118.7218
" />
<path d="M23.8089 118.7218
L23.7136 118.8170
" />
<path d="M23.7136 118.8170
L23.6184 118.7218
" />
<path d="M23.6184 118.7218
L23.7136 118.6265
" />
<path d="M23.7136 118.6265
L23.7136 118.8170
" />
<path d="M24.5708 117.0075
L24.6660 116.9122
" />
<path d="M24.6660 116.9122
L24.8565 116.8170
" />
<path d="M24.8565 116.8170
L25.3327 116.8170
" />
<path d="M25.3327 116.8170
L25.5232 116.9122
" />
<path d="M25.5232 116.9122
L25.6184 117.0075
" />
<path d="M25.6184 117.0075
L25.7136 117.1980
" />
<path d="M25.7136 117.1980
L25.7136 117.3884
" />
<path d="M25.7136 117.3884
L25.6184 117.6741
" />
<path d="M25.6184 117.6741
L24.4755 118.8170
" />
<path d="M24.4755 118.8170
L25.7136 118.8170
" />
<path d="M26.9517 116.8170
L27.1422 116.8170
" />
<path d="M27.1422 116.8170
L27.3327 116.9122
" />
<path d="M27.3327 116.9122
L27.4279 117.0075
" />
<path d="M27.4279 117.0075
L27.5232 117.1980
" />
<path d="M27.5232 117.1980
L27.6184 117.5789
" />
<path d="M27.6184 117.5789
L27.6184 118.0551
" />
<path d="M27.6184 118.0551
L27.5232 118.4360
" />
<path d="M27.5232 118.4360
L27.4279 118.6265
" />
<path d="M27.4279 118.6265
L27.3327 118.7218
" />
<path d="M27.3327 118.7218
L27.1422 118.8170
" />
<path d="M27.1422 118.8170
L26.9517 118.8170
" />
<path d="M26.9517 118.8170
L26.7613 118.7218
" />
<path d="M26.7613 118.7218
L26.6660 118.6265
" />
<path d="M26.6660 118.6265
L26.5708 118.4360
" />
<path d="M26.5708 118.4360
L26.4755 118.0551
" />
<path d="M26.4755 118.0551
L26.4755 117.5789
" />
<path d="M26.4755 117.5789
L26.5708 117.1980
" />
<path d="M26.5708 117.1980
L26.6660 117.0075
" />
<path d="M26.6660 117.0075
L26.7613 116.9122
" />
<path d="M26.7613 116.9122
L26.9517 116.8170
" />
<path d="M28.8565 116.8170
L29.0470 116.8170
" />
<path d="M29.0470 116.8170
L29.2374 116.9122
" />
<path d="M29.2374 116.9122
L29.3327 117.0075
" />
<path d="M29.3327 117.0075
L29.4279 117.1980
" />
<path d="M29.4279 117.1980
L29.5232 117.5789
" />
<path d="M29.5232 117.5789
L29.5232 118.0551
" />
<path d="M29.5232 118.0551
L29.4279 118.4360
" />
<path d="M29.4279 118.4360
L29.3327 118.6265
" />
<path d="M29.3327 118.6265
L29.2374 118.7218
" />
<path d="M29.2374 118.7218
L29.0470 118.8170
" />
<path d="M29.0470 118.8170
L28.8565 118.8170
" />
<path d="M28.8565 118.8170
L28.6660 118.7218
" />
<path d="M28.6660 118.7218
L28.5708 118.6265
" />
<path d="M28.5708 118.6265
L28.4755 118.4360
" />
<path d="M28.4755 118.4360
L28.3803 118.0551
" />
<path d="M28.3803 118.0551
L28.3803 117.5789
" />
<path d="M28.3803 117.5789
L28.4755 117.1980
" />
<path d="M28.4755 117.1980
L28.5708 117.0075
" />
<path d="M28.5708 117.0075
L28.6660 116.9122
" />
<path d="M28.6660 116.9122
L28.8565 116.8170
" />
<path d="M30.3803 118.8170
L30.3803 117.4837
" />
<path d="M30.3803 117.6741
L30.4755 117.5789
" />
<path d="M30.4755 117.5789
L30.6660 117.4837
" />
<path d="M30.6660 117.4837
L30.9517 117.4837
" />
<path d="M30.9517 117.4837
L31.1422 117.5789
" />
<path d="M31.1422 117.5789
L31.2374 117.7694
" />
<path d="M31.2374 117.7694
L31.2374 118.8170
" />
<path d="M31.2374 117.7694
L31.3327 117.5789
" />
<path d="M31.3327 117.5789
L31.5232 117.4837
" />
<path d="M31.5232 117.4837
L31.8089 117.4837
" />
<path d="M31.8089 117.4837
L31.9993 117.5789
" />
<path d="M31.9993 117.5789
L32.0946 117.7694
" />
<path d="M32.0946 117.7694
L32.0946 118.8170
" />
<path d="M33.0470 118.8170
L33.0470 117.4837
" />
<path d="M33.0470 117.6741
L33.1422 117.5789
" />
<path d="M33.1422 117.5789
L33.3327 117.4837
" />
<path d="M33.3327 117.4837
L33.6184 117.4837
" />
<path d="M33.6184 117.4837
L33.8089 117.5789
" />
<path d="M33.8089 117.5789
L33.9041 117.7694
" />
<path d="M33.9041 117.7694
L33.9041 118.8170
" />
<path d="M33.9041 117.7694
L33.9993 117.5789
" />
<path d="M33.9993 117.5789
L34.1898 117.4837
" />
<path d="M34.1898 117.4837
L34.4755 117.4837
" />
<path d="M34.4755 117.4837
L34.6660 117.5789
" />
<path d="M34.6660 117.5789
L34.7613 117.7694
" />
<path d="M34.7613 117.7694
L34.7613 118.8170
" />
<path d="M38.6660 116.7218
L36.9517 119.2932
" />
<path d="M41.2374 116.8170
L41.4279 116.8170
" />
<path d="M41.4279 116.8170
L41.6184 116.9122
" />
<path d="M41.6184 116.9122
L41.7136 117.0075
" />
<path d="M41.7136 117.0075
L41.8089 117.1980
" />
<path d="M41.8089 117.1980
L41.9041 117.5789
" />
<path d="M41.9041 117.5789
L41.9041 118.0551
" />
<path d="M41.9041 118.0551
L41.8089 118.4360
" />
<path d="M41.8089 118.4360
L41.7136 118.6265
" />
<path d="M41.7136 118.6265
L41.6184 118.7218
" />
<path d="M41.6184 118.7218
L41.4279 118.8170
" />
<path d="M41.4279 118.8170
L41.2374 118.8170
" />
<path d="M41.2374 118.8170
L41.0470 118.7218
" />
<path d="M41.0470 118.7218
L40.9517 118.6265
" />
<path d="M40.9517 118.6265
L40.8565 118.4360
" />
<path d="M40.8565 118.4360
L40.7613 118.0551
" />
<path d="M40.7613 118.0551
L40.7613 117.5789
" />
<path d="M40.7613 117.5789
L40.8565 117.1980
" />
<path d="M40.8565 117.1980
L40.9517 117.0075
" />
<path d="M40.9517 117.0075
L41.0470 116.9122
" />
<path d="M41.0470 116.9122
L41.2374 116.8170
" />
<path d="M42.7613 118.6265
L42.8565 118.7218
" />
<path d="M42.8565 118.7218
L42.7613 118.8170
" />
<path d="M42.7613 118.8170
L42.6660 118.7218
" />
<path d="M42.6660 118.7218
L42.7613 118.6265
" />
<path d="M42.7613 118.6265
L42.7613 118.8170
" />
<path d="M44.7613 118.8170
L43.6184 118.8170
" />
<path d="M44.1898 118.8170
L44.1898 116.8170
" />
<path d="M44.1898 116.8170
L43.9994 117.1027
" />
<path d="M43.9994 117.1027
L43.8089 117.2932
" />
<path d="M43.8089 117.2932
L43.6184 117.3884
" />
<path d="M45.5232 117.0075
L45.6184 116.9122
" />
<path d="M45.6184 116.9122
L45.8089 116.8170
" />
<path d="M45.8089 116.8170
L46.2851 116.8170
" />
<path d="M46.2851 116.8170
L46.4755 116.9122
" />
<path d="M46.4755 116.9122
L46.5708 117.0075
" />
<path d="M46.5708 117.0075
L46.6660 117.1980
" />
<path d="M46.6660 117.1980
L46.6660 117.3884
" />
<path d="M46.6660 117.3884
L46.5708 117.6741
" />
<path d="M46.5708 117.6741
L45.4279 118.8170
" />
<path d="M45.4279 118.8170
L46.6660 118.8170
" />
<path d="M48.3803 116.8170
L47.9994 116.8170
" />
<path d="M47.9994 116.8170
L47.8089 116.9122
" />
<path d="M47.8089 116.9122
L47.7136 117.0075
" />
<path d="M47.7136 117.0075
L47.5232 117.2932
" />
<path d="M47.5232 117.2932
L47.4279 117.6741
" />
<path d="M47.4279 117.6741
L47.4279 118.4360
" />
<path d="M47.4279 118.4360
L47.5232 118.6265
" />
<path d="M47.5232 118.6265
L47.6184 118.7218
" />
<path d="M47.6184 118.7218
L47.8089 118.8170
" />
<path d="M47.8089 118.8170
L48.1898 118.8170
" />
<path d="M48.1898 118.8170
L48.3803 118.7218
" />
<path d="M48.3803 118.7218
L48.4755 118.6265
" />
<path d="M48.4755 118.6265
L48.5708 118.4360
" />
<path d="M48.5708 118.4360
L48.5708 117.9599
" />
<path d="M48.5708 117.9599
L48.4755 117.7694
" />
<path d="M48.4755 117.7694
L48.3803 117.6741
" />
<path d="M48.3803 117.6741
L48.1898 117.5789
" />
<path d="M48.1898 117.5789
L47.8089 117.5789
" />
<path d="M47.8089 117.5789
L47.6184 117.6741
" />
<path d="M47.6184 117.6741
L47.5232 117.7694
" />
<path d="M47.5232 117.7694
L47.4279 117.9599
" />
<path d="M49.8089 116.8170
L49.9994 116.8170
" />
<path d="M49.9994 116.8170
L50.1898 116.9122
" />
<path d="M50.1898 116.9122
L50.2851 117.0075
" />
<path d="M50.2851 117.0075
L50.3803 117.1980
" />
<path d="M50.3803 117.1980
L50.4755 117.5789
" />
<path d="M50.4755 117.5789
L50.4755 118.0551
" />
<path d="M50.4755 118.0551
L50.3803 118.4360
" />
<path d="M50.3803 118.4360
L50.2851 118.6265
" />
<path d="M50.2851 118.6265
L50.1898 118.7218
" />
<path d="M50.1898 118.7218
L49.9994 118.8170
" />
<path d="M49.9994 118.8170
L49.8089 118.8170
" />
<path d="M49.8089 118.8170
L49.6184 118.7218
" />
<path d="M49.6184 118.7218
L49.5232 118.6265
" />
<path d="M49.5232 118.6265
L49.4279 118.4360
" />
<path d="M49.4279 118.4360
L49.3327 118.0551
" />
<path d="M49.3327 118.0551
L49.3327 117.5789
" />
<path d="M49.3327 117.5789
L49.4279 117.1980
" />
<path d="M49.4279 117.1980
L49.5232 117.0075
" />
<path d="M49.5232 117.0075
L49.6184 116.9122
" />
<path d="M49.6184 116.9122
L49.8089 116.8170
" />
<path d="M51.2375 116.8170
L51.2375 117.1980
" />
<path d="M51.9994 116.8170
L51.9994 117.1980
" />
<path d="M54.9517 119.5789
L54.8565 119.4837
" />
<path d="M54.8565 119.4837
L54.6660 119.1980
" />
<path d="M54.6660 119.1980
L54.5708 119.0075
" />
<path d="M54.5708 119.0075
L54.4756 118.7218
" />
<path d="M54.4756 118.7218
L54.3803 118.2456
" />
<path d="M54.3803 118.2456
L54.3803 117.8646
" />
<path d="M54.3803 117.8646
L54.4756 117.3884
" />
<path d="M54.4756 117.3884
L54.5708 117.1027
" />
<path d="M54.5708 117.1027
L54.6660 116.9122
" />
<path d="M54.6660 116.9122
L54.8565 116.6265
" />
<path d="M54.8565 116.6265
L54.9517 116.5313
" />
<path d="M56.5708 117.4837
L56.5708 118.8170
" />
<path d="M56.0946 116.7218
L55.6184 118.1503
" />
<path d="M55.6184 118.1503
L56.8565 118.1503
" />
<path d="M59.1422 118.8170
L59.1422 116.8170
" />
<path d="M59.9994 118.8170
L59.9994 117.7694
" />
<path d="M59.9994 117.7694
L59.9041 117.5789
" />
<path d="M59.9041 117.5789
L59.7136 117.4837
" />
<path d="M59.7136 117.4837
L59.4279 117.4837
" />
<path d="M59.4279 117.4837
L59.2375 117.5789
" />
<path d="M59.2375 117.5789
L59.1422 117.6741
" />
<path d="M61.2375 118.8170
L61.0470 118.7218
" />
<path d="M61.0470 118.7218
L60.9517 118.6265
" />
<path d="M60.9517 118.6265
L60.8565 118.4360
" />
<path d="M60.8565 118.4360
L60.8565 117.8646
" />
<path d="M60.8565 117.8646
L60.9517 117.6741
" />
<path d="M60.9517 117.6741
L61.0470 117.5789
" />
<path d="M61.0470 117.5789
L61.2375 117.4837
" />
<path d="M61.2375 117.4837
L61.5232 117.4837
" />
<path d="M61.5232 117.4837
L61.7137 117.5789
" />
<path d="M61.7137 117.5789
L61.8089 117.6741
" />
<path d="M61.8089 117.6741
L61.9041 117.8646
" />
<path d="M61.9041 117.8646
L61.9041 118.4360
" />
<path d="M61.9041 118.4360
L61.8089 118.6265
" />
<path d="M61.8089 118.6265
L61.7137 118.7218
" />
<path d="M61.7137 118.7218
L61.5232 118.8170
" />
<path d="M61.5232 118.8170
L61.2375 118.8170
" />
<path d="M63.0470 118.8170
L62.8565 118.7218
" />
<path d="M62.8565 118.7218
L62.7613 118.5313
" />
<path d="M62.7613 118.5313
L62.7613 116.8170
" />
<path d="M64.5708 118.7218
L64.3803 118.8170
" />
<path d="M64.3803 118.8170
L63.9994 118.8170
" />
<path d="M63.9994 118.8170
L63.8089 118.7218
" />
<path d="M63.8089 118.7218
L63.7137 118.5313
" />
<path d="M63.7137 118.5313
L63.7137 117.7694
" />
<path d="M63.7137 117.7694
L63.8089 117.5789
" />
<path d="M63.8089 117.5789
L63.9994 117.4837
" />
<path d="M63.9994 117.4837
L64.3803 117.4837
" />
<path d="M64.3803 117.4837
L64.5708 117.5789
" />
<path d="M64.5708 117.5789
L64.6660 117.7694
" />
<path d="M64.6660 117.7694
L64.6660 117.9599
" />
<path d="M64.6660 117.9599
L63.7137 118.1503
" />
<path d="M65.4279 118.7218
L65.6184 118.8170
" />
<path d="M65.6184 118.8170
L65.9994 118.8170
" />
<path d="M65.9994 118.8170
L66.1898 118.7218
" />
<path d="M66.1898 118.7218
L66.2851 118.5313
" />
<path d="M66.2851 118.5313
L66.2851 118.4360
" />
<path d="M66.2851 118.4360
L66.1898 118.2456
" />
<path d="M66.1898 118.2456
L65.9994 118.1503
" />
<path d="M65.9994 118.1503
L65.7137 118.1503
" />
<path d="M65.7137 118.1503
L65.5232 118.0551
" />
<path d="M65.5232 118.0551
L65.4279 117.8646
" />
<path d="M65.4279 117.8646
L65.4279 117.7694
" />
<path d="M65.4279 117.7694
L65.5232 117.5789
" />
<path d="M65.5232 117.5789
L65.7137 117.4837
" />
<path d="M65.7137 117.4837
L65.9994 117.4837
" />
<path d="M65.9994 117.4837
L66.1898 117.5789
" />
<path d="M66.9518 119.5789
L67.0470 119.4837
" />
<path d="M67.0470 119.4837
L67.2375 119.1980
" />
<path d="M67.2375 119.1980
L67.3327 119.0075
" />
<path d="M67.3327 119.0075
L67.4279 118.7218
" />
<path d="M67.4279 118.7218
L67.5232 118.2456
" />
<path d="M67.5232 118.2456
L67.5232 117.8646
" />
<path d="M67.5232 117.8646
L67.4279 117.3884
" />
<path d="M67.4279 117.3884
L67.3327 117.1027
" />
<path d="M67.3327 117.1027
L67.2375 116.9122
" />
<path d="M67.2375 116.9122
L67.0470 116.6265
" />
<path d="M67.0470 116.6265
L66.9518 116.5313
" />
<path d="M70.5708 119.5789
L70.4756 119.4837
" />
<path d="M70.4756 119.4837
L70.2851 119.1980
" />
<path d="M70.2851 119.1980
L70.1899 119.0075
" />
<path d="M70.1899 119.0075
L70.0946 118.7218
" />
<path d="M70.0946 118.7218
L69.9994 118.2456
" />
<path d="M69.9994 118.2456
L69.9994 117.8646
" />
<path d="M69.9994 117.8646
L70.0946 117.3884
" />
<path d="M70.0946 117.3884
L70.1899 117.1027
" />
<path d="M70.1899 117.1027
L70.2851 116.9122
" />
<path d="M70.2851 116.9122
L70.4756 116.6265
" />
<path d="M70.4756 116.6265
L70.5708 116.5313
" />
<path d="M71.3327 117.4837
L71.3327 118.8170
" />
<path d="M71.3327 117.6741
L71.4279 117.5789
" />
<path d="M71.4279 117.5789
L71.6184 117.4837
" />
<path d="M71.6184 117.4837
L71.9041 117.4837
" />
<path d="M71.9041 117.4837
L72.0946 117.5789
" />
<path d="M72.0946 117.5789
L72.1899 117.7694
" />
<path d="M72.1899 117.7694
L72.1899 118.8170
" />
<path d="M73.4279 118.8170
L73.2375 118.7218
" />
<path d="M73.2375 118.7218
L73.1422 118.6265
" />
<path d="M73.1422 118.6265
L73.0470 118.4360
" />
<path d="M73.0470 118.4360
L73.0470 117.8646
" />
<path d="M73.0470 117.8646
L73.1422 117.6741
" />
<path d="M73.1422 117.6741
L73.2375 117.5789
" />
<path d="M73.2375 117.5789
L73.4279 117.4837
" />
<path d="M73.4279 117.4837
L73.7137 117.4837
" />
<path d="M73.7137 117.4837
L73.9041 117.5789
" />
<path d="M73.9041 117.5789
L73.9994 117.6741
" />
<path d="M73.9994 117.6741
L74.0946 117.8646
" />
<path d="M74.0946 117.8646
L74.0946 118.4360
" />
<path d="M74.0946 118.4360
L73.9994 118.6265
" />
<path d="M73.9994 118.6265
L73.9041 118.7218
" />
<path d="M73.9041 118.7218
L73.7137 118.8170
" />
<path d="M73.7137 118.8170
L73.4279 118.8170
" />
<path d="M74.6660 117.4837
L75.4279 117.4837
" />
<path d="M74.9518 116.8170
L74.9518 118.5313
" />
<path d="M74.9518 118.5313
L75.0470 118.7218
" />
<path d="M75.0470 118.7218
L75.2375 118.8170
" />
<path d="M75.2375 118.8170
L75.4279 118.8170
" />
<path d="M77.6184 117.4837
L77.6184 119.4837
" />
<path d="M77.6184 117.5789
L77.8089 117.4837
" />
<path d="M77.8089 117.4837
L78.1899 117.4837
" />
<path d="M78.1899 117.4837
L78.3803 117.5789
" />
<path d="M78.3803 117.5789
L78.4756 117.6741
" />
<path d="M78.4756 117.6741
L78.5708 117.8646
" />
<path d="M78.5708 117.8646
L78.5708 118.4360
" />
<path d="M78.5708 118.4360
L78.4756 118.6265
" />
<path d="M78.4756 118.6265
L78.3803 118.7218
" />
<path d="M78.3803 118.7218
L78.1899 118.8170
" />
<path d="M78.1899 118.8170
L77.8089 118.8170
" />
<path d="M77.8089 118.8170
L77.6184 118.7218
" />
<path d="M79.7137 118.8170
L79.5232 118.7218
" />
<path d="M79.5232 118.7218
L79.4280 118.5313
" />
<path d="M79.4280 118.5313
L79.4280 116.8170
" />
<path d="M81.3327 118.8170
L81.3327 117.7694
" />
<path d="M81.3327 117.7694
L81.2375 117.5789
" />
<path d="M81.2375 117.5789
L81.0470 117.4837
" />
<path d="M81.0470 117.4837
L80.6661 117.4837
" />
<path d="M80.6661 117.4837
L80.4756 117.5789
" />
<path d="M81.3327 118.7218
L81.1422 118.8170
" />
<path d="M81.1422 118.8170
L80.6661 118.8170
" />
<path d="M80.6661 118.8170
L80.4756 118.7218
" />
<path d="M80.4756 118.7218
L80.3803 118.5313
" />
<path d="M80.3803 118.5313
L80.3803 118.3408
" />
<path d="M80.3803 118.3408
L80.4756 118.1503
" />
<path d="M80.4756 118.1503
L80.6661 118.0551
" />
<path d="M80.6661 118.0551
L81.1422 118.0551
" />
<path d="M81.1422 118.0551
L81.3327 117.9599
" />
<path d="M81.9994 117.4837
L82.7613 117.4837
" />
<path d="M82.2851 116.8170
L82.2851 118.5313
" />
<path d="M82.2851 118.5313
L82.3803 118.7218
" />
<path d="M82.3803 118.7218
L82.5708 118.8170
" />
<path d="M82.5708 118.8170
L82.7613 118.8170
" />
<path d="M84.1899 118.7218
L83.9994 118.8170
" />
<path d="M83.9994 118.8170
L83.6184 118.8170
" />
<path d="M83.6184 118.8170
L83.4280 118.7218
" />
<path d="M83.4280 118.7218
L83.3327 118.5313
" />
<path d="M83.3327 118.5313
L83.3327 117.7694
" />
<path d="M83.3327 117.7694
L83.4280 117.5789
" />
<path d="M83.4280 117.5789
L83.6184 117.4837
" />
<path d="M83.6184 117.4837
L83.9994 117.4837
" />
<path d="M83.9994 117.4837
L84.1899 117.5789
" />
<path d="M84.1899 117.5789
L84.2851 117.7694
" />
<path d="M84.2851 117.7694
L84.2851 117.9599
" />
<path d="M84.2851 117.9599
L83.3327 118.1503
" />
<path d="M85.9994 118.8170
L85.9994 116.8170
" />
<path d="M85.9994 118.7218
L85.8089 118.8170
" />
<path d="M85.8089 118.8170
L85.4280 118.8170
" />
<path d="M85.4280 118.8170
L85.2375 118.7218
" />
<path d="M85.2375 118.7218
L85.1422 118.6265
" />
<path d="M85.1422 118.6265
L85.0470 118.4360
" />
<path d="M85.0470 118.4360
L85.0470 117.8646
" />
<path d="M85.0470 117.8646
L85.1422 117.6741
" />
<path d="M85.1422 117.6741
L85.2375 117.5789
" />
<path d="M85.2375 117.5789
L85.4280 117.4837
" />
<path d="M85.4280 117.4837
L85.8089 117.4837
" />
<path d="M85.8089 117.4837
L85.9994 117.5789
" />
<path d="M86.7613 119.5789
L86.8565 119.4837
" />
<path d="M86.8565 119.4837
L87.0470 119.1980
" />
<path d="M87.0470 119.1980
L87.1422 119.0075
" />
<path d="M87.1422 119.0075
L87.2375 118.7218
" />
<path d="M87.2375 118.7218
L87.3327 118.2456
" />
<path d="M87.3327 118.2456
L87.3327 117.8646
" />
<path d="M87.3327 117.8646
L87.2375 117.3884
" />
<path d="M87.2375 117.3884
L87.1422 117.1027
" />
<path d="M87.1422 117.1027
L87.0470 116.9122
" />
<path d="M87.0470 116.9122
L86.8565 116.6265
" />
<path d="M86.8565 116.6265
L86.7613 116.5313
" />
</g></g> 
</svg>
