<?xml version="1.0" standalone="no"?>
 <!DOCTYPE svg PUBLIC "-//W3C//DTD SVG 1.1//EN" 
 "http://www.w3.org/Graphics/SVG/1.1/DTD/svg11.dtd"> 
<svg
  xmlns:svg="http://www.w3.org/2000/svg"
  xmlns="http://www.w3.org/2000/svg"
  xmlns:xlink="http://www.w3.org/1999/xlink"
  version="1.1"
  width="297.0022mm" height="210.0072mm" viewBox="0.0000 0.0000 297.0022 210.0072">
<title>SVG Image created as Foot Pedal PCB-PTH-drl_map.svg date 2023/10/10 18:27:53 </title>
  <desc>Image generated by PCBNEW </desc>
<g style="fill:#000000; fill-opacity:1.0000;stroke:#000000; stroke-opacity:1.0000;
stroke-linecap:round; stroke-linejoin:round;"
 transform="translate(0 0) scale(1 1)">
</g>
<g style="fill:#000000; fill-opacity:0.0; 
stroke:#000000; stroke-width:0.0000; stroke-opacity:1; 
stroke-linecap:round; stroke-linejoin:round;">
</g>
<g style="fill:#000000; fill-opacity:0.0; 
stroke:#000000; stroke-width:0.6000; stroke-opacity:1; 
stroke-linecap:round; stroke-linejoin:round;">
<path d="M19.5011 27.0022
L19.5011 36.0022
" />
<path d="M277.5011 90.0022
L277.5011 99.0022
" />
<path d="M268.5011 18.0022
L28.5011 18.0022
" />
<path d="M277.5011 27.0022 A9.0000 9.0000 0.0 0 0 268.5011 18.0022" />
<path d="M19.5011 99.0022 A9.0000 9.0000 0.0 0 0 28.5011 108.0022" />
<path d="M277.5011 36.0022
L277.5011 90.0022
" />
<path d="M277.5011 36.0022
L277.5011 27.0022
" />
<path d="M268.5011 108.0022
L28.5011 108.0022
" />
<path d="M19.5011 99.0022
L19.5011 90.0022
" />
<path d="M28.5011 18.0022 A9.0000 9.0000 0.0 0 0 19.5011 27.0022" />
<path d="M19.5011 90.0022
L19.5011 36.0022
" />
<path d="M268.5011 108.0022 A9.0000 9.0000 0.0 0 0 277.5011 99.0022" />
</g>
<g style="fill:#000000; fill-opacity:0.0; 
stroke:#000000; stroke-width:0.2400; stroke-opacity:1; 
stroke-linecap:round; stroke-linejoin:round;">
<path d="M222.3011 55.8022
L224.7011 58.2022
" />
<path d="M224.7011 55.8022
L222.3011 58.2022
" />
<path d="M222.3011 61.8022
L224.7011 64.2022
" />
<path d="M224.7011 61.8022
L222.3011 64.2022
" />
<path d="M222.3011 67.8022
L224.7011 70.2022
" />
<path d="M224.7011 67.8022
L222.3011 70.2022
" />
</g>
<g style="fill:#000000; fill-opacity:0.0; 
stroke:#000000; stroke-width:0.2700; stroke-opacity:1; 
stroke-linecap:round; stroke-linejoin:round;">
<circle cx="144.6761" cy="40.5022" r="1.3500" /> 
<circle cx="152.2961" cy="40.5022" r="1.3500" /> 
<circle cx="189.6761" cy="40.5022" r="1.3500" /> 
<circle cx="197.2961" cy="40.5022" r="1.3500" /> 
</g>
<g style="fill:#000000; fill-opacity:0.0; 
stroke:#000000; stroke-width:0.3300; stroke-opacity:1; 
stroke-linecap:round; stroke-linejoin:round;">
<path d="M27.7511 51.6022
L27.7511 54.9022
" />
<path d="M26.1011 53.2522
L29.4011 53.2522
" />
<path d="M27.7511 71.1022
L27.7511 74.4022
" />
<path d="M26.1011 72.7522
L29.4011 72.7522
" />
<path d="M30.6911 38.4922
L30.6911 41.7922
" />
<path d="M29.0411 40.1422
L32.3411 40.1422
" />
<path d="M30.6911 84.2122
L30.6911 87.5122
" />
<path d="M29.0411 85.8622
L32.3411 85.8622
" />
<path d="M38.3111 38.4922
L38.3111 41.7922
" />
<path d="M36.6611 40.1422
L39.9611 40.1422
" />
<path d="M38.3111 84.2122
L38.3111 87.5122
" />
<path d="M36.6611 85.8622
L39.9611 85.8622
" />
<path d="M41.2511 51.6022
L41.2511 54.9022
" />
<path d="M39.6011 53.2522
L42.9011 53.2522
" />
<path d="M41.2511 71.1022
L41.2511 74.4022
" />
<path d="M39.6011 72.7522
L42.9011 72.7522
" />
<path d="M45.9311 38.4922
L45.9311 41.7922
" />
<path d="M44.2811 40.1422
L47.5811 40.1422
" />
<path d="M45.9311 84.2122
L45.9311 87.5122
" />
<path d="M44.2811 85.8622
L47.5811 85.8622
" />
<path d="M53.5511 38.4922
L53.5511 41.7922
" />
<path d="M51.9011 40.1422
L55.2011 40.1422
" />
<path d="M53.5511 84.2122
L53.5511 87.5122
" />
<path d="M51.9011 85.8622
L55.2011 85.8622
" />
<path d="M61.1711 38.4922
L61.1711 41.7922
" />
<path d="M59.5211 40.1422
L62.8211 40.1422
" />
<path d="M61.1711 84.2122
L61.1711 87.5122
" />
<path d="M59.5211 85.8622
L62.8211 85.8622
" />
<path d="M68.7911 38.4922
L68.7911 41.7922
" />
<path d="M67.1411 40.1422
L70.4411 40.1422
" />
<path d="M68.7911 84.2122
L68.7911 87.5122
" />
<path d="M67.1411 85.8622
L70.4411 85.8622
" />
<path d="M76.4111 38.4922
L76.4111 41.7922
" />
<path d="M74.7611 40.1422
L78.0611 40.1422
" />
<path d="M76.4111 84.2122
L76.4111 87.5122
" />
<path d="M74.7611 85.8622
L78.0611 85.8622
" />
<path d="M84.0311 38.4922
L84.0311 41.7922
" />
<path d="M82.3811 40.1422
L85.6811 40.1422
" />
<path d="M84.0311 84.2122
L84.0311 87.5122
" />
<path d="M82.3811 85.8622
L85.6811 85.8622
" />
<path d="M91.6511 38.4922
L91.6511 41.7922
" />
<path d="M90.0011 40.1422
L93.3011 40.1422
" />
<path d="M91.6511 84.2122
L91.6511 87.5122
" />
<path d="M90.0011 85.8622
L93.3011 85.8622
" />
<path d="M99.2711 38.4922
L99.2711 41.7922
" />
<path d="M97.6211 40.1422
L100.9211 40.1422
" />
<path d="M99.2711 84.2122
L99.2711 87.5122
" />
<path d="M97.6211 85.8622
L100.9211 85.8622
" />
<path d="M106.8911 38.4922
L106.8911 41.7922
" />
<path d="M105.2411 40.1422
L108.5411 40.1422
" />
<path d="M106.8911 84.2122
L106.8911 87.5122
" />
<path d="M105.2411 85.8622
L108.5411 85.8622
" />
<path d="M114.5111 38.4922
L114.5111 41.7922
" />
<path d="M112.8611 40.1422
L116.1611 40.1422
" />
<path d="M114.5111 84.2122
L114.5111 87.5122
" />
<path d="M112.8611 85.8622
L116.1611 85.8622
" />
<path d="M138.7511 54.6022
L138.7511 57.9022
" />
<path d="M137.1011 56.2522
L140.4011 56.2522
" />
<path d="M138.7511 68.1022
L138.7511 71.4022
" />
<path d="M137.1011 69.7522
L140.4011 69.7522
" />
<path d="M158.2511 54.6022
L158.2511 57.9022
" />
<path d="M156.6011 56.2522
L159.9011 56.2522
" />
<path d="M158.2511 68.1022
L158.2511 71.4022
" />
<path d="M156.6011 69.7522
L159.9011 69.7522
" />
<path d="M183.7511 54.6022
L183.7511 57.9022
" />
<path d="M182.1011 56.2522
L185.4011 56.2522
" />
<path d="M183.7511 68.1022
L183.7511 71.4022
" />
<path d="M182.1011 69.7522
L185.4011 69.7522
" />
<path d="M203.2511 54.6022
L203.2511 57.9022
" />
<path d="M201.6011 56.2522
L204.9011 56.2522
" />
<path d="M203.2511 68.1022
L203.2511 71.4022
" />
<path d="M201.6011 69.7522
L204.9011 69.7522
" />
</g>
<g style="fill:#000000; fill-opacity:0.0; 
stroke:#000000; stroke-width:0.6000; stroke-opacity:1; 
stroke-linecap:round; stroke-linejoin:round;">
</g>
<g style="fill:#000000; fill-opacity:0.0; 
stroke:#000000; stroke-width:0.2000; stroke-opacity:1; 
stroke-linecap:round; stroke-linejoin:round;">
<text x="21.2011" y="111.5022"
textLength="14.8667" font-size="2.6667" lengthAdjust="spacingAndGlyphs"
text-anchor="start" opacity="0">Drill Map:</text>
<g class="stroked-text"><desc>Drill Map:</desc>
<path d="M21.8089 111.4170
L21.8089 109.4170
" />
<path d="M21.8089 109.4170
L22.2851 109.4170
" />
<path d="M22.2851 109.4170
L22.5708 109.5122
" />
<path d="M22.5708 109.5122
L22.7612 109.7027
" />
<path d="M22.7612 109.7027
L22.8565 109.8932
" />
<path d="M22.8565 109.8932
L22.9517 110.2741
" />
<path d="M22.9517 110.2741
L22.9517 110.5599
" />
<path d="M22.9517 110.5599
L22.8565 110.9408
" />
<path d="M22.8565 110.9408
L22.7612 111.1313
" />
<path d="M22.7612 111.1313
L22.5708 111.3218
" />
<path d="M22.5708 111.3218
L22.2851 111.4170
" />
<path d="M22.2851 111.4170
L21.8089 111.4170
" />
<path d="M23.8089 111.4170
L23.8089 110.0837
" />
<path d="M23.8089 110.4646
L23.9041 110.2741
" />
<path d="M23.9041 110.2741
L23.9993 110.1789
" />
<path d="M23.9993 110.1789
L24.1898 110.0837
" />
<path d="M24.1898 110.0837
L24.3803 110.0837
" />
<path d="M25.0470 111.4170
L25.0470 110.0837
" />
<path d="M25.0470 109.4170
L24.9517 109.5122
" />
<path d="M24.9517 109.5122
L25.0470 109.6075
" />
<path d="M25.0470 109.6075
L25.1422 109.5122
" />
<path d="M25.1422 109.5122
L25.0470 109.4170
" />
<path d="M25.0470 109.4170
L25.0470 109.6075
" />
<path d="M26.2851 111.4170
L26.0946 111.3218
" />
<path d="M26.0946 111.3218
L25.9993 111.1313
" />
<path d="M25.9993 111.1313
L25.9993 109.4170
" />
<path d="M27.3327 111.4170
L27.1422 111.3218
" />
<path d="M27.1422 111.3218
L27.0470 111.1313
" />
<path d="M27.0470 111.1313
L27.0470 109.4170
" />
<path d="M29.6184 111.4170
L29.6184 109.4170
" />
<path d="M29.6184 109.4170
L30.2851 110.8456
" />
<path d="M30.2851 110.8456
L30.9517 109.4170
" />
<path d="M30.9517 109.4170
L30.9517 111.4170
" />
<path d="M32.7613 111.4170
L32.7613 110.3694
" />
<path d="M32.7613 110.3694
L32.6660 110.1789
" />
<path d="M32.6660 110.1789
L32.4755 110.0837
" />
<path d="M32.4755 110.0837
L32.0946 110.0837
" />
<path d="M32.0946 110.0837
L31.9041 110.1789
" />
<path d="M32.7613 111.3218
L32.5708 111.4170
" />
<path d="M32.5708 111.4170
L32.0946 111.4170
" />
<path d="M32.0946 111.4170
L31.9041 111.3218
" />
<path d="M31.9041 111.3218
L31.8089 111.1313
" />
<path d="M31.8089 111.1313
L31.8089 110.9408
" />
<path d="M31.8089 110.9408
L31.9041 110.7503
" />
<path d="M31.9041 110.7503
L32.0946 110.6551
" />
<path d="M32.0946 110.6551
L32.5708 110.6551
" />
<path d="M32.5708 110.6551
L32.7613 110.5599
" />
<path d="M33.7136 110.0837
L33.7136 112.0837
" />
<path d="M33.7136 110.1789
L33.9041 110.0837
" />
<path d="M33.9041 110.0837
L34.2851 110.0837
" />
<path d="M34.2851 110.0837
L34.4755 110.1789
" />
<path d="M34.4755 110.1789
L34.5708 110.2741
" />
<path d="M34.5708 110.2741
L34.6660 110.4646
" />
<path d="M34.6660 110.4646
L34.6660 111.0360
" />
<path d="M34.6660 111.0360
L34.5708 111.2265
" />
<path d="M34.5708 111.2265
L34.4755 111.3218
" />
<path d="M34.4755 111.3218
L34.2851 111.4170
" />
<path d="M34.2851 111.4170
L33.9041 111.4170
" />
<path d="M33.9041 111.4170
L33.7136 111.3218
" />
<path d="M35.5232 111.2265
L35.6184 111.3218
" />
<path d="M35.6184 111.3218
L35.5232 111.4170
" />
<path d="M35.5232 111.4170
L35.4279 111.3218
" />
<path d="M35.4279 111.3218
L35.5232 111.2265
" />
<path d="M35.5232 111.2265
L35.5232 111.4170
" />
<path d="M35.5232 110.1789
L35.6184 110.2741
" />
<path d="M35.6184 110.2741
L35.5232 110.3694
" />
<path d="M35.5232 110.3694
L35.4279 110.2741
" />
<path d="M35.4279 110.2741
L35.5232 110.1789
" />
<path d="M35.5232 110.1789
L35.5232 110.3694
" />
</g></g>
<g style="fill:#000000; fill-opacity:0.0; 
stroke:#000000; stroke-width:0.2000; stroke-opacity:1; 
stroke-linecap:round; stroke-linejoin:round;">
<path d="M17.2011 113.7022
L19.2011 115.7022
" />
<path d="M19.2011 113.7022
L17.2011 115.7022
" />
</g>
<g style="fill:#000000; fill-opacity:0.0; 
stroke:#000000; stroke-width:0.6000; stroke-opacity:1; 
stroke-linecap:round; stroke-linejoin:round;">
</g>
<g style="fill:#000000; fill-opacity:0.0; 
stroke:#000000; stroke-width:0.2000; stroke-opacity:1; 
stroke-linecap:round; stroke-linejoin:round;">
<text x="21.2011" y="115.7022"
textLength="46.8667" font-size="2.6667" lengthAdjust="spacingAndGlyphs"
text-anchor="start" opacity="0">0.800mm / 0.0315" (3 holes)</text>
<g class="stroked-text"><desc>0.800mm / 0.0315" (3 holes)</desc>
<path d="M22.1898 113.6170
L22.3803 113.6170
" />
<path d="M22.3803 113.6170
L22.5708 113.7122
" />
<path d="M22.5708 113.7122
L22.6660 113.8075
" />
<path d="M22.6660 113.8075
L22.7612 113.9980
" />
<path d="M22.7612 113.9980
L22.8565 114.3789
" />
<path d="M22.8565 114.3789
L22.8565 114.8551
" />
<path d="M22.8565 114.8551
L22.7612 115.2360
" />
<path d="M22.7612 115.2360
L22.6660 115.4265
" />
<path d="M22.6660 115.4265
L22.5708 115.5218
" />
<path d="M22.5708 115.5218
L22.3803 115.6170
" />
<path d="M22.3803 115.6170
L22.1898 115.6170
" />
<path d="M22.1898 115.6170
L21.9993 115.5218
" />
<path d="M21.9993 115.5218
L21.9041 115.4265
" />
<path d="M21.9041 115.4265
L21.8089 115.2360
" />
<path d="M21.8089 115.2360
L21.7136 114.8551
" />
<path d="M21.7136 114.8551
L21.7136 114.3789
" />
<path d="M21.7136 114.3789
L21.8089 113.9980
" />
<path d="M21.8089 113.9980
L21.9041 113.8075
" />
<path d="M21.9041 113.8075
L21.9993 113.7122
" />
<path d="M21.9993 113.7122
L22.1898 113.6170
" />
<path d="M23.7136 115.4265
L23.8089 115.5218
" />
<path d="M23.8089 115.5218
L23.7136 115.6170
" />
<path d="M23.7136 115.6170
L23.6184 115.5218
" />
<path d="M23.6184 115.5218
L23.7136 115.4265
" />
<path d="M23.7136 115.4265
L23.7136 115.6170
" />
<path d="M24.9517 114.4741
L24.7613 114.3789
" />
<path d="M24.7613 114.3789
L24.6660 114.2837
" />
<path d="M24.6660 114.2837
L24.5708 114.0932
" />
<path d="M24.5708 114.0932
L24.5708 113.9980
" />
<path d="M24.5708 113.9980
L24.6660 113.8075
" />
<path d="M24.6660 113.8075
L24.7613 113.7122
" />
<path d="M24.7613 113.7122
L24.9517 113.6170
" />
<path d="M24.9517 113.6170
L25.3327 113.6170
" />
<path d="M25.3327 113.6170
L25.5232 113.7122
" />
<path d="M25.5232 113.7122
L25.6184 113.8075
" />
<path d="M25.6184 113.8075
L25.7136 113.9980
" />
<path d="M25.7136 113.9980
L25.7136 114.0932
" />
<path d="M25.7136 114.0932
L25.6184 114.2837
" />
<path d="M25.6184 114.2837
L25.5232 114.3789
" />
<path d="M25.5232 114.3789
L25.3327 114.4741
" />
<path d="M25.3327 114.4741
L24.9517 114.4741
" />
<path d="M24.9517 114.4741
L24.7613 114.5694
" />
<path d="M24.7613 114.5694
L24.6660 114.6646
" />
<path d="M24.6660 114.6646
L24.5708 114.8551
" />
<path d="M24.5708 114.8551
L24.5708 115.2360
" />
<path d="M24.5708 115.2360
L24.6660 115.4265
" />
<path d="M24.6660 115.4265
L24.7613 115.5218
" />
<path d="M24.7613 115.5218
L24.9517 115.6170
" />
<path d="M24.9517 115.6170
L25.3327 115.6170
" />
<path d="M25.3327 115.6170
L25.5232 115.5218
" />
<path d="M25.5232 115.5218
L25.6184 115.4265
" />
<path d="M25.6184 115.4265
L25.7136 115.2360
" />
<path d="M25.7136 115.2360
L25.7136 114.8551
" />
<path d="M25.7136 114.8551
L25.6184 114.6646
" />
<path d="M25.6184 114.6646
L25.5232 114.5694
" />
<path d="M25.5232 114.5694
L25.3327 114.4741
" />
<path d="M26.9517 113.6170
L27.1422 113.6170
" />
<path d="M27.1422 113.6170
L27.3327 113.7122
" />
<path d="M27.3327 113.7122
L27.4279 113.8075
" />
<path d="M27.4279 113.8075
L27.5232 113.9980
" />
<path d="M27.5232 113.9980
L27.6184 114.3789
" />
<path d="M27.6184 114.3789
L27.6184 114.8551
" />
<path d="M27.6184 114.8551
L27.5232 115.2360
" />
<path d="M27.5232 115.2360
L27.4279 115.4265
" />
<path d="M27.4279 115.4265
L27.3327 115.5218
" />
<path d="M27.3327 115.5218
L27.1422 115.6170
" />
<path d="M27.1422 115.6170
L26.9517 115.6170
" />
<path d="M26.9517 115.6170
L26.7613 115.5218
" />
<path d="M26.7613 115.5218
L26.6660 115.4265
" />
<path d="M26.6660 115.4265
L26.5708 115.2360
" />
<path d="M26.5708 115.2360
L26.4755 114.8551
" />
<path d="M26.4755 114.8551
L26.4755 114.3789
" />
<path d="M26.4755 114.3789
L26.5708 113.9980
" />
<path d="M26.5708 113.9980
L26.6660 113.8075
" />
<path d="M26.6660 113.8075
L26.7613 113.7122
" />
<path d="M26.7613 113.7122
L26.9517 113.6170
" />
<path d="M28.8565 113.6170
L29.0470 113.6170
" />
<path d="M29.0470 113.6170
L29.2374 113.7122
" />
<path d="M29.2374 113.7122
L29.3327 113.8075
" />
<path d="M29.3327 113.8075
L29.4279 113.9980
" />
<path d="M29.4279 113.9980
L29.5232 114.3789
" />
<path d="M29.5232 114.3789
L29.5232 114.8551
" />
<path d="M29.5232 114.8551
L29.4279 115.2360
" />
<path d="M29.4279 115.2360
L29.3327 115.4265
" />
<path d="M29.3327 115.4265
L29.2374 115.5218
" />
<path d="M29.2374 115.5218
L29.0470 115.6170
" />
<path d="M29.0470 115.6170
L28.8565 115.6170
" />
<path d="M28.8565 115.6170
L28.6660 115.5218
" />
<path d="M28.6660 115.5218
L28.5708 115.4265
" />
<path d="M28.5708 115.4265
L28.4755 115.2360
" />
<path d="M28.4755 115.2360
L28.3803 114.8551
" />
<path d="M28.3803 114.8551
L28.3803 114.3789
" />
<path d="M28.3803 114.3789
L28.4755 113.9980
" />
<path d="M28.4755 113.9980
L28.5708 113.8075
" />
<path d="M28.5708 113.8075
L28.6660 113.7122
" />
<path d="M28.6660 113.7122
L28.8565 113.6170
" />
<path d="M30.3803 115.6170
L30.3803 114.2837
" />
<path d="M30.3803 114.4741
L30.4755 114.3789
" />
<path d="M30.4755 114.3789
L30.6660 114.2837
" />
<path d="M30.6660 114.2837
L30.9517 114.2837
" />
<path d="M30.9517 114.2837
L31.1422 114.3789
" />
<path d="M31.1422 114.3789
L31.2374 114.5694
" />
<path d="M31.2374 114.5694
L31.2374 115.6170
" />
<path d="M31.2374 114.5694
L31.3327 114.3789
" />
<path d="M31.3327 114.3789
L31.5232 114.2837
" />
<path d="M31.5232 114.2837
L31.8089 114.2837
" />
<path d="M31.8089 114.2837
L31.9993 114.3789
" />
<path d="M31.9993 114.3789
L32.0946 114.5694
" />
<path d="M32.0946 114.5694
L32.0946 115.6170
" />
<path d="M33.0470 115.6170
L33.0470 114.2837
" />
<path d="M33.0470 114.4741
L33.1422 114.3789
" />
<path d="M33.1422 114.3789
L33.3327 114.2837
" />
<path d="M33.3327 114.2837
L33.6184 114.2837
" />
<path d="M33.6184 114.2837
L33.8089 114.3789
" />
<path d="M33.8089 114.3789
L33.9041 114.5694
" />
<path d="M33.9041 114.5694
L33.9041 115.6170
" />
<path d="M33.9041 114.5694
L33.9993 114.3789
" />
<path d="M33.9993 114.3789
L34.1898 114.2837
" />
<path d="M34.1898 114.2837
L34.4755 114.2837
" />
<path d="M34.4755 114.2837
L34.6660 114.3789
" />
<path d="M34.6660 114.3789
L34.7613 114.5694
" />
<path d="M34.7613 114.5694
L34.7613 115.6170
" />
<path d="M38.6660 113.5218
L36.9517 116.0932
" />
<path d="M41.2374 113.6170
L41.4279 113.6170
" />
<path d="M41.4279 113.6170
L41.6184 113.7122
" />
<path d="M41.6184 113.7122
L41.7136 113.8075
" />
<path d="M41.7136 113.8075
L41.8089 113.9980
" />
<path d="M41.8089 113.9980
L41.9041 114.3789
" />
<path d="M41.9041 114.3789
L41.9041 114.8551
" />
<path d="M41.9041 114.8551
L41.8089 115.2360
" />
<path d="M41.8089 115.2360
L41.7136 115.4265
" />
<path d="M41.7136 115.4265
L41.6184 115.5218
" />
<path d="M41.6184 115.5218
L41.4279 115.6170
" />
<path d="M41.4279 115.6170
L41.2374 115.6170
" />
<path d="M41.2374 115.6170
L41.0470 115.5218
" />
<path d="M41.0470 115.5218
L40.9517 115.4265
" />
<path d="M40.9517 115.4265
L40.8565 115.2360
" />
<path d="M40.8565 115.2360
L40.7613 114.8551
" />
<path d="M40.7613 114.8551
L40.7613 114.3789
" />
<path d="M40.7613 114.3789
L40.8565 113.9980
" />
<path d="M40.8565 113.9980
L40.9517 113.8075
" />
<path d="M40.9517 113.8075
L41.0470 113.7122
" />
<path d="M41.0470 113.7122
L41.2374 113.6170
" />
<path d="M42.7613 115.4265
L42.8565 115.5218
" />
<path d="M42.8565 115.5218
L42.7613 115.6170
" />
<path d="M42.7613 115.6170
L42.6660 115.5218
" />
<path d="M42.6660 115.5218
L42.7613 115.4265
" />
<path d="M42.7613 115.4265
L42.7613 115.6170
" />
<path d="M44.0946 113.6170
L44.2851 113.6170
" />
<path d="M44.2851 113.6170
L44.4755 113.7122
" />
<path d="M44.4755 113.7122
L44.5708 113.8075
" />
<path d="M44.5708 113.8075
L44.6660 113.9980
" />
<path d="M44.6660 113.9980
L44.7613 114.3789
" />
<path d="M44.7613 114.3789
L44.7613 114.8551
" />
<path d="M44.7613 114.8551
L44.6660 115.2360
" />
<path d="M44.6660 115.2360
L44.5708 115.4265
" />
<path d="M44.5708 115.4265
L44.4755 115.5218
" />
<path d="M44.4755 115.5218
L44.2851 115.6170
" />
<path d="M44.2851 115.6170
L44.0946 115.6170
" />
<path d="M44.0946 115.6170
L43.9041 115.5218
" />
<path d="M43.9041 115.5218
L43.8089 115.4265
" />
<path d="M43.8089 115.4265
L43.7136 115.2360
" />
<path d="M43.7136 115.2360
L43.6184 114.8551
" />
<path d="M43.6184 114.8551
L43.6184 114.3789
" />
<path d="M43.6184 114.3789
L43.7136 113.9980
" />
<path d="M43.7136 113.9980
L43.8089 113.8075
" />
<path d="M43.8089 113.8075
L43.9041 113.7122
" />
<path d="M43.9041 113.7122
L44.0946 113.6170
" />
<path d="M45.4279 113.6170
L46.6660 113.6170
" />
<path d="M46.6660 113.6170
L45.9994 114.3789
" />
<path d="M45.9994 114.3789
L46.2851 114.3789
" />
<path d="M46.2851 114.3789
L46.4755 114.4741
" />
<path d="M46.4755 114.4741
L46.5708 114.5694
" />
<path d="M46.5708 114.5694
L46.6660 114.7599
" />
<path d="M46.6660 114.7599
L46.6660 115.2360
" />
<path d="M46.6660 115.2360
L46.5708 115.4265
" />
<path d="M46.5708 115.4265
L46.4755 115.5218
" />
<path d="M46.4755 115.5218
L46.2851 115.6170
" />
<path d="M46.2851 115.6170
L45.7136 115.6170
" />
<path d="M45.7136 115.6170
L45.5232 115.5218
" />
<path d="M45.5232 115.5218
L45.4279 115.4265
" />
<path d="M48.5708 115.6170
L47.4279 115.6170
" />
<path d="M47.9994 115.6170
L47.9994 113.6170
" />
<path d="M47.9994 113.6170
L47.8089 113.9027
" />
<path d="M47.8089 113.9027
L47.6184 114.0932
" />
<path d="M47.6184 114.0932
L47.4279 114.1884
" />
<path d="M50.3803 113.6170
L49.4279 113.6170
" />
<path d="M49.4279 113.6170
L49.3327 114.5694
" />
<path d="M49.3327 114.5694
L49.4279 114.4741
" />
<path d="M49.4279 114.4741
L49.6184 114.3789
" />
<path d="M49.6184 114.3789
L50.0946 114.3789
" />
<path d="M50.0946 114.3789
L50.2851 114.4741
" />
<path d="M50.2851 114.4741
L50.3803 114.5694
" />
<path d="M50.3803 114.5694
L50.4755 114.7599
" />
<path d="M50.4755 114.7599
L50.4755 115.2360
" />
<path d="M50.4755 115.2360
L50.3803 115.4265
" />
<path d="M50.3803 115.4265
L50.2851 115.5218
" />
<path d="M50.2851 115.5218
L50.0946 115.6170
" />
<path d="M50.0946 115.6170
L49.6184 115.6170
" />
<path d="M49.6184 115.6170
L49.4279 115.5218
" />
<path d="M49.4279 115.5218
L49.3327 115.4265
" />
<path d="M51.2375 113.6170
L51.2375 113.9980
" />
<path d="M51.9994 113.6170
L51.9994 113.9980
" />
<path d="M54.9517 116.3789
L54.8565 116.2837
" />
<path d="M54.8565 116.2837
L54.6660 115.9980
" />
<path d="M54.6660 115.9980
L54.5708 115.8075
" />
<path d="M54.5708 115.8075
L54.4756 115.5218
" />
<path d="M54.4756 115.5218
L54.3803 115.0456
" />
<path d="M54.3803 115.0456
L54.3803 114.6646
" />
<path d="M54.3803 114.6646
L54.4756 114.1884
" />
<path d="M54.4756 114.1884
L54.5708 113.9027
" />
<path d="M54.5708 113.9027
L54.6660 113.7122
" />
<path d="M54.6660 113.7122
L54.8565 113.4265
" />
<path d="M54.8565 113.4265
L54.9517 113.3313
" />
<path d="M55.5232 113.6170
L56.7613 113.6170
" />
<path d="M56.7613 113.6170
L56.0946 114.3789
" />
<path d="M56.0946 114.3789
L56.3803 114.3789
" />
<path d="M56.3803 114.3789
L56.5708 114.4741
" />
<path d="M56.5708 114.4741
L56.6660 114.5694
" />
<path d="M56.6660 114.5694
L56.7613 114.7599
" />
<path d="M56.7613 114.7599
L56.7613 115.2360
" />
<path d="M56.7613 115.2360
L56.6660 115.4265
" />
<path d="M56.6660 115.4265
L56.5708 115.5218
" />
<path d="M56.5708 115.5218
L56.3803 115.6170
" />
<path d="M56.3803 115.6170
L55.8089 115.6170
" />
<path d="M55.8089 115.6170
L55.6184 115.5218
" />
<path d="M55.6184 115.5218
L55.5232 115.4265
" />
<path d="M59.1422 115.6170
L59.1422 113.6170
" />
<path d="M59.9994 115.6170
L59.9994 114.5694
" />
<path d="M59.9994 114.5694
L59.9041 114.3789
" />
<path d="M59.9041 114.3789
L59.7136 114.2837
" />
<path d="M59.7136 114.2837
L59.4279 114.2837
" />
<path d="M59.4279 114.2837
L59.2375 114.3789
" />
<path d="M59.2375 114.3789
L59.1422 114.4741
" />
<path d="M61.2375 115.6170
L61.0470 115.5218
" />
<path d="M61.0470 115.5218
L60.9517 115.4265
" />
<path d="M60.9517 115.4265
L60.8565 115.2360
" />
<path d="M60.8565 115.2360
L60.8565 114.6646
" />
<path d="M60.8565 114.6646
L60.9517 114.4741
" />
<path d="M60.9517 114.4741
L61.0470 114.3789
" />
<path d="M61.0470 114.3789
L61.2375 114.2837
" />
<path d="M61.2375 114.2837
L61.5232 114.2837
" />
<path d="M61.5232 114.2837
L61.7137 114.3789
" />
<path d="M61.7137 114.3789
L61.8089 114.4741
" />
<path d="M61.8089 114.4741
L61.9041 114.6646
" />
<path d="M61.9041 114.6646
L61.9041 115.2360
" />
<path d="M61.9041 115.2360
L61.8089 115.4265
" />
<path d="M61.8089 115.4265
L61.7137 115.5218
" />
<path d="M61.7137 115.5218
L61.5232 115.6170
" />
<path d="M61.5232 115.6170
L61.2375 115.6170
" />
<path d="M63.0470 115.6170
L62.8565 115.5218
" />
<path d="M62.8565 115.5218
L62.7613 115.3313
" />
<path d="M62.7613 115.3313
L62.7613 113.6170
" />
<path d="M64.5708 115.5218
L64.3803 115.6170
" />
<path d="M64.3803 115.6170
L63.9994 115.6170
" />
<path d="M63.9994 115.6170
L63.8089 115.5218
" />
<path d="M63.8089 115.5218
L63.7137 115.3313
" />
<path d="M63.7137 115.3313
L63.7137 114.5694
" />
<path d="M63.7137 114.5694
L63.8089 114.3789
" />
<path d="M63.8089 114.3789
L63.9994 114.2837
" />
<path d="M63.9994 114.2837
L64.3803 114.2837
" />
<path d="M64.3803 114.2837
L64.5708 114.3789
" />
<path d="M64.5708 114.3789
L64.6660 114.5694
" />
<path d="M64.6660 114.5694
L64.6660 114.7599
" />
<path d="M64.6660 114.7599
L63.7137 114.9503
" />
<path d="M65.4279 115.5218
L65.6184 115.6170
" />
<path d="M65.6184 115.6170
L65.9994 115.6170
" />
<path d="M65.9994 115.6170
L66.1898 115.5218
" />
<path d="M66.1898 115.5218
L66.2851 115.3313
" />
<path d="M66.2851 115.3313
L66.2851 115.2360
" />
<path d="M66.2851 115.2360
L66.1898 115.0456
" />
<path d="M66.1898 115.0456
L65.9994 114.9503
" />
<path d="M65.9994 114.9503
L65.7137 114.9503
" />
<path d="M65.7137 114.9503
L65.5232 114.8551
" />
<path d="M65.5232 114.8551
L65.4279 114.6646
" />
<path d="M65.4279 114.6646
L65.4279 114.5694
" />
<path d="M65.4279 114.5694
L65.5232 114.3789
" />
<path d="M65.5232 114.3789
L65.7137 114.2837
" />
<path d="M65.7137 114.2837
L65.9994 114.2837
" />
<path d="M65.9994 114.2837
L66.1898 114.3789
" />
<path d="M66.9518 116.3789
L67.0470 116.2837
" />
<path d="M67.0470 116.2837
L67.2375 115.9980
" />
<path d="M67.2375 115.9980
L67.3327 115.8075
" />
<path d="M67.3327 115.8075
L67.4279 115.5218
" />
<path d="M67.4279 115.5218
L67.5232 115.0456
" />
<path d="M67.5232 115.0456
L67.5232 114.6646
" />
<path d="M67.5232 114.6646
L67.4279 114.1884
" />
<path d="M67.4279 114.1884
L67.3327 113.9027
" />
<path d="M67.3327 113.9027
L67.2375 113.7122
" />
<path d="M67.2375 113.7122
L67.0470 113.4265
" />
<path d="M67.0470 113.4265
L66.9518 113.3313
" />
</g></g>
<g style="fill:#000000; fill-opacity:0.0; 
stroke:#000000; stroke-width:0.2000; stroke-opacity:1; 
stroke-linecap:round; stroke-linejoin:round;">
<circle cx="18.2011" cy="117.9022" r="1.0000" /> 
</g>
<g style="fill:#000000; fill-opacity:0.0; 
stroke:#000000; stroke-width:0.6000; stroke-opacity:1; 
stroke-linecap:round; stroke-linejoin:round;">
</g>
<g style="fill:#000000; fill-opacity:0.0; 
stroke:#000000; stroke-width:0.2000; stroke-opacity:1; 
stroke-linecap:round; stroke-linejoin:round;">
<text x="21.2011" y="118.9022"
textLength="46.8667" font-size="2.6667" lengthAdjust="spacingAndGlyphs"
text-anchor="start" opacity="0">0.900mm / 0.0354" (4 holes)</text>
<g class="stroked-text"><desc>0.900mm / 0.0354" (4 holes)</desc>
<path d="M22.1898 116.8170
L22.3803 116.8170
" />
<path d="M22.3803 116.8170
L22.5708 116.9122
" />
<path d="M22.5708 116.9122
L22.6660 117.0075
" />
<path d="M22.6660 117.0075
L22.7612 117.1980
" />
<path d="M22.7612 117.1980
L22.8565 117.5789
" />
<path d="M22.8565 117.5789
L22.8565 118.0551
" />
<path d="M22.8565 118.0551
L22.7612 118.4360
" />
<path d="M22.7612 118.4360
L22.6660 118.6265
" />
<path d="M22.6660 118.6265
L22.5708 118.7218
" />
<path d="M22.5708 118.7218
L22.3803 118.8170
" />
<path d="M22.3803 118.8170
L22.1898 118.8170
" />
<path d="M22.1898 118.8170
L21.9993 118.7218
" />
<path d="M21.9993 118.7218
L21.9041 118.6265
" />
<path d="M21.9041 118.6265
L21.8089 118.4360
" />
<path d="M21.8089 118.4360
L21.7136 118.0551
" />
<path d="M21.7136 118.0551
L21.7136 117.5789
" />
<path d="M21.7136 117.5789
L21.8089 117.1980
" />
<path d="M21.8089 117.1980
L21.9041 117.0075
" />
<path d="M21.9041 117.0075
L21.9993 116.9122
" />
<path d="M21.9993 116.9122
L22.1898 116.8170
" />
<path d="M23.7136 118.6265
L23.8089 118.7218
" />
<path d="M23.8089 118.7218
L23.7136 118.8170
" />
<path d="M23.7136 118.8170
L23.6184 118.7218
" />
<path d="M23.6184 118.7218
L23.7136 118.6265
" />
<path d="M23.7136 118.6265
L23.7136 118.8170
" />
<path d="M24.7613 118.8170
L25.1422 118.8170
" />
<path d="M25.1422 118.8170
L25.3327 118.7218
" />
<path d="M25.3327 118.7218
L25.4279 118.6265
" />
<path d="M25.4279 118.6265
L25.6184 118.3408
" />
<path d="M25.6184 118.3408
L25.7136 117.9599
" />
<path d="M25.7136 117.9599
L25.7136 117.1980
" />
<path d="M25.7136 117.1980
L25.6184 117.0075
" />
<path d="M25.6184 117.0075
L25.5232 116.9122
" />
<path d="M25.5232 116.9122
L25.3327 116.8170
" />
<path d="M25.3327 116.8170
L24.9517 116.8170
" />
<path d="M24.9517 116.8170
L24.7613 116.9122
" />
<path d="M24.7613 116.9122
L24.6660 117.0075
" />
<path d="M24.6660 117.0075
L24.5708 117.1980
" />
<path d="M24.5708 117.1980
L24.5708 117.6741
" />
<path d="M24.5708 117.6741
L24.6660 117.8646
" />
<path d="M24.6660 117.8646
L24.7613 117.9599
" />
<path d="M24.7613 117.9599
L24.9517 118.0551
" />
<path d="M24.9517 118.0551
L25.3327 118.0551
" />
<path d="M25.3327 118.0551
L25.5232 117.9599
" />
<path d="M25.5232 117.9599
L25.6184 117.8646
" />
<path d="M25.6184 117.8646
L25.7136 117.6741
" />
<path d="M26.9517 116.8170
L27.1422 116.8170
" />
<path d="M27.1422 116.8170
L27.3327 116.9122
" />
<path d="M27.3327 116.9122
L27.4279 117.0075
" />
<path d="M27.4279 117.0075
L27.5232 117.1980
" />
<path d="M27.5232 117.1980
L27.6184 117.5789
" />
<path d="M27.6184 117.5789
L27.6184 118.0551
" />
<path d="M27.6184 118.0551
L27.5232 118.4360
" />
<path d="M27.5232 118.4360
L27.4279 118.6265
" />
<path d="M27.4279 118.6265
L27.3327 118.7218
" />
<path d="M27.3327 118.7218
L27.1422 118.8170
" />
<path d="M27.1422 118.8170
L26.9517 118.8170
" />
<path d="M26.9517 118.8170
L26.7613 118.7218
" />
<path d="M26.7613 118.7218
L26.6660 118.6265
" />
<path d="M26.6660 118.6265
L26.5708 118.4360
" />
<path d="M26.5708 118.4360
L26.4755 118.0551
" />
<path d="M26.4755 118.0551
L26.4755 117.5789
" />
<path d="M26.4755 117.5789
L26.5708 117.1980
" />
<path d="M26.5708 117.1980
L26.6660 117.0075
" />
<path d="M26.6660 117.0075
L26.7613 116.9122
" />
<path d="M26.7613 116.9122
L26.9517 116.8170
" />
<path d="M28.8565 116.8170
L29.0470 116.8170
" />
<path d="M29.0470 116.8170
L29.2374 116.9122
" />
<path d="M29.2374 116.9122
L29.3327 117.0075
" />
<path d="M29.3327 117.0075
L29.4279 117.1980
" />
<path d="M29.4279 117.1980
L29.5232 117.5789
" />
<path d="M29.5232 117.5789
L29.5232 118.0551
" />
<path d="M29.5232 118.0551
L29.4279 118.4360
" />
<path d="M29.4279 118.4360
L29.3327 118.6265
" />
<path d="M29.3327 118.6265
L29.2374 118.7218
" />
<path d="M29.2374 118.7218
L29.0470 118.8170
" />
<path d="M29.0470 118.8170
L28.8565 118.8170
" />
<path d="M28.8565 118.8170
L28.6660 118.7218
" />
<path d="M28.6660 118.7218
L28.5708 118.6265
" />
<path d="M28.5708 118.6265
L28.4755 118.4360
" />
<path d="M28.4755 118.4360
L28.3803 118.0551
" />
<path d="M28.3803 118.0551
L28.3803 117.5789
" />
<path d="M28.3803 117.5789
L28.4755 117.1980
" />
<path d="M28.4755 117.1980
L28.5708 117.0075
" />
<path d="M28.5708 117.0075
L28.6660 116.9122
" />
<path d="M28.6660 116.9122
L28.8565 116.8170
" />
<path d="M30.3803 118.8170
L30.3803 117.4837
" />
<path d="M30.3803 117.6741
L30.4755 117.5789
" />
<path d="M30.4755 117.5789
L30.6660 117.4837
" />
<path d="M30.6660 117.4837
L30.9517 117.4837
" />
<path d="M30.9517 117.4837
L31.1422 117.5789
" />
<path d="M31.1422 117.5789
L31.2374 117.7694
" />
<path d="M31.2374 117.7694
L31.2374 118.8170
" />
<path d="M31.2374 117.7694
L31.3327 117.5789
" />
<path d="M31.3327 117.5789
L31.5232 117.4837
" />
<path d="M31.5232 117.4837
L31.8089 117.4837
" />
<path d="M31.8089 117.4837
L31.9993 117.5789
" />
<path d="M31.9993 117.5789
L32.0946 117.7694
" />
<path d="M32.0946 117.7694
L32.0946 118.8170
" />
<path d="M33.0470 118.8170
L33.0470 117.4837
" />
<path d="M33.0470 117.6741
L33.1422 117.5789
" />
<path d="M33.1422 117.5789
L33.3327 117.4837
" />
<path d="M33.3327 117.4837
L33.6184 117.4837
" />
<path d="M33.6184 117.4837
L33.8089 117.5789
" />
<path d="M33.8089 117.5789
L33.9041 117.7694
" />
<path d="M33.9041 117.7694
L33.9041 118.8170
" />
<path d="M33.9041 117.7694
L33.9993 117.5789
" />
<path d="M33.9993 117.5789
L34.1898 117.4837
" />
<path d="M34.1898 117.4837
L34.4755 117.4837
" />
<path d="M34.4755 117.4837
L34.6660 117.5789
" />
<path d="M34.6660 117.5789
L34.7613 117.7694
" />
<path d="M34.7613 117.7694
L34.7613 118.8170
" />
<path d="M38.6660 116.7218
L36.9517 119.2932
" />
<path d="M41.2374 116.8170
L41.4279 116.8170
" />
<path d="M41.4279 116.8170
L41.6184 116.9122
" />
<path d="M41.6184 116.9122
L41.7136 117.0075
" />
<path d="M41.7136 117.0075
L41.8089 117.1980
" />
<path d="M41.8089 117.1980
L41.9041 117.5789
" />
<path d="M41.9041 117.5789
L41.9041 118.0551
" />
<path d="M41.9041 118.0551
L41.8089 118.4360
" />
<path d="M41.8089 118.4360
L41.7136 118.6265
" />
<path d="M41.7136 118.6265
L41.6184 118.7218
" />
<path d="M41.6184 118.7218
L41.4279 118.8170
" />
<path d="M41.4279 118.8170
L41.2374 118.8170
" />
<path d="M41.2374 118.8170
L41.0470 118.7218
" />
<path d="M41.0470 118.7218
L40.9517 118.6265
" />
<path d="M40.9517 118.6265
L40.8565 118.4360
" />
<path d="M40.8565 118.4360
L40.7613 118.0551
" />
<path d="M40.7613 118.0551
L40.7613 117.5789
" />
<path d="M40.7613 117.5789
L40.8565 117.1980
" />
<path d="M40.8565 117.1980
L40.9517 117.0075
" />
<path d="M40.9517 117.0075
L41.0470 116.9122
" />
<path d="M41.0470 116.9122
L41.2374 116.8170
" />
<path d="M42.7613 118.6265
L42.8565 118.7218
" />
<path d="M42.8565 118.7218
L42.7613 118.8170
" />
<path d="M42.7613 118.8170
L42.6660 118.7218
" />
<path d="M42.6660 118.7218
L42.7613 118.6265
" />
<path d="M42.7613 118.6265
L42.7613 118.8170
" />
<path d="M44.0946 116.8170
L44.2851 116.8170
" />
<path d="M44.2851 116.8170
L44.4755 116.9122
" />
<path d="M44.4755 116.9122
L44.5708 117.0075
" />
<path d="M44.5708 117.0075
L44.6660 117.1980
" />
<path d="M44.6660 117.1980
L44.7613 117.5789
" />
<path d="M44.7613 117.5789
L44.7613 118.0551
" />
<path d="M44.7613 118.0551
L44.6660 118.4360
" />
<path d="M44.6660 118.4360
L44.5708 118.6265
" />
<path d="M44.5708 118.6265
L44.4755 118.7218
" />
<path d="M44.4755 118.7218
L44.2851 118.8170
" />
<path d="M44.2851 118.8170
L44.0946 118.8170
" />
<path d="M44.0946 118.8170
L43.9041 118.7218
" />
<path d="M43.9041 118.7218
L43.8089 118.6265
" />
<path d="M43.8089 118.6265
L43.7136 118.4360
" />
<path d="M43.7136 118.4360
L43.6184 118.0551
" />
<path d="M43.6184 118.0551
L43.6184 117.5789
" />
<path d="M43.6184 117.5789
L43.7136 117.1980
" />
<path d="M43.7136 117.1980
L43.8089 117.0075
" />
<path d="M43.8089 117.0075
L43.9041 116.9122
" />
<path d="M43.9041 116.9122
L44.0946 116.8170
" />
<path d="M45.4279 116.8170
L46.6660 116.8170
" />
<path d="M46.6660 116.8170
L45.9994 117.5789
" />
<path d="M45.9994 117.5789
L46.2851 117.5789
" />
<path d="M46.2851 117.5789
L46.4755 117.6741
" />
<path d="M46.4755 117.6741
L46.5708 117.7694
" />
<path d="M46.5708 117.7694
L46.6660 117.9599
" />
<path d="M46.6660 117.9599
L46.6660 118.4360
" />
<path d="M46.6660 118.4360
L46.5708 118.6265
" />
<path d="M46.5708 118.6265
L46.4755 118.7218
" />
<path d="M46.4755 118.7218
L46.2851 118.8170
" />
<path d="M46.2851 118.8170
L45.7136 118.8170
" />
<path d="M45.7136 118.8170
L45.5232 118.7218
" />
<path d="M45.5232 118.7218
L45.4279 118.6265
" />
<path d="M48.4755 116.8170
L47.5232 116.8170
" />
<path d="M47.5232 116.8170
L47.4279 117.7694
" />
<path d="M47.4279 117.7694
L47.5232 117.6741
" />
<path d="M47.5232 117.6741
L47.7136 117.5789
" />
<path d="M47.7136 117.5789
L48.1898 117.5789
" />
<path d="M48.1898 117.5789
L48.3803 117.6741
" />
<path d="M48.3803 117.6741
L48.4755 117.7694
" />
<path d="M48.4755 117.7694
L48.5708 117.9599
" />
<path d="M48.5708 117.9599
L48.5708 118.4360
" />
<path d="M48.5708 118.4360
L48.4755 118.6265
" />
<path d="M48.4755 118.6265
L48.3803 118.7218
" />
<path d="M48.3803 118.7218
L48.1898 118.8170
" />
<path d="M48.1898 118.8170
L47.7136 118.8170
" />
<path d="M47.7136 118.8170
L47.5232 118.7218
" />
<path d="M47.5232 118.7218
L47.4279 118.6265
" />
<path d="M50.2851 117.4837
L50.2851 118.8170
" />
<path d="M49.8089 116.7218
L49.3327 118.1503
" />
<path d="M49.3327 118.1503
L50.5708 118.1503
" />
<path d="M51.2375 116.8170
L51.2375 117.1980
" />
<path d="M51.9994 116.8170
L51.9994 117.1980
" />
<path d="M54.9517 119.5789
L54.8565 119.4837
" />
<path d="M54.8565 119.4837
L54.6660 119.1980
" />
<path d="M54.6660 119.1980
L54.5708 119.0075
" />
<path d="M54.5708 119.0075
L54.4756 118.7218
" />
<path d="M54.4756 118.7218
L54.3803 118.2456
" />
<path d="M54.3803 118.2456
L54.3803 117.8646
" />
<path d="M54.3803 117.8646
L54.4756 117.3884
" />
<path d="M54.4756 117.3884
L54.5708 117.1027
" />
<path d="M54.5708 117.1027
L54.6660 116.9122
" />
<path d="M54.6660 116.9122
L54.8565 116.6265
" />
<path d="M54.8565 116.6265
L54.9517 116.5313
" />
<path d="M56.5708 117.4837
L56.5708 118.8170
" />
<path d="M56.0946 116.7218
L55.6184 118.1503
" />
<path d="M55.6184 118.1503
L56.8565 118.1503
" />
<path d="M59.1422 118.8170
L59.1422 116.8170
" />
<path d="M59.9994 118.8170
L59.9994 117.7694
" />
<path d="M59.9994 117.7694
L59.9041 117.5789
" />
<path d="M59.9041 117.5789
L59.7136 117.4837
" />
<path d="M59.7136 117.4837
L59.4279 117.4837
" />
<path d="M59.4279 117.4837
L59.2375 117.5789
" />
<path d="M59.2375 117.5789
L59.1422 117.6741
" />
<path d="M61.2375 118.8170
L61.0470 118.7218
" />
<path d="M61.0470 118.7218
L60.9517 118.6265
" />
<path d="M60.9517 118.6265
L60.8565 118.4360
" />
<path d="M60.8565 118.4360
L60.8565 117.8646
" />
<path d="M60.8565 117.8646
L60.9517 117.6741
" />
<path d="M60.9517 117.6741
L61.0470 117.5789
" />
<path d="M61.0470 117.5789
L61.2375 117.4837
" />
<path d="M61.2375 117.4837
L61.5232 117.4837
" />
<path d="M61.5232 117.4837
L61.7137 117.5789
" />
<path d="M61.7137 117.5789
L61.8089 117.6741
" />
<path d="M61.8089 117.6741
L61.9041 117.8646
" />
<path d="M61.9041 117.8646
L61.9041 118.4360
" />
<path d="M61.9041 118.4360
L61.8089 118.6265
" />
<path d="M61.8089 118.6265
L61.7137 118.7218
" />
<path d="M61.7137 118.7218
L61.5232 118.8170
" />
<path d="M61.5232 118.8170
L61.2375 118.8170
" />
<path d="M63.0470 118.8170
L62.8565 118.7218
" />
<path d="M62.8565 118.7218
L62.7613 118.5313
" />
<path d="M62.7613 118.5313
L62.7613 116.8170
" />
<path d="M64.5708 118.7218
L64.3803 118.8170
" />
<path d="M64.3803 118.8170
L63.9994 118.8170
" />
<path d="M63.9994 118.8170
L63.8089 118.7218
" />
<path d="M63.8089 118.7218
L63.7137 118.5313
" />
<path d="M63.7137 118.5313
L63.7137 117.7694
" />
<path d="M63.7137 117.7694
L63.8089 117.5789
" />
<path d="M63.8089 117.5789
L63.9994 117.4837
" />
<path d="M63.9994 117.4837
L64.3803 117.4837
" />
<path d="M64.3803 117.4837
L64.5708 117.5789
" />
<path d="M64.5708 117.5789
L64.6660 117.7694
" />
<path d="M64.6660 117.7694
L64.6660 117.9599
" />
<path d="M64.6660 117.9599
L63.7137 118.1503
" />
<path d="M65.4279 118.7218
L65.6184 118.8170
" />
<path d="M65.6184 118.8170
L65.9994 118.8170
" />
<path d="M65.9994 118.8170
L66.1898 118.7218
" />
<path d="M66.1898 118.7218
L66.2851 118.5313
" />
<path d="M66.2851 118.5313
L66.2851 118.4360
" />
<path d="M66.2851 118.4360
L66.1898 118.2456
" />
<path d="M66.1898 118.2456
L65.9994 118.1503
" />
<path d="M65.9994 118.1503
L65.7137 118.1503
" />
<path d="M65.7137 118.1503
L65.5232 118.0551
" />
<path d="M65.5232 118.0551
L65.4279 117.8646
" />
<path d="M65.4279 117.8646
L65.4279 117.7694
" />
<path d="M65.4279 117.7694
L65.5232 117.5789
" />
<path d="M65.5232 117.5789
L65.7137 117.4837
" />
<path d="M65.7137 117.4837
L65.9994 117.4837
" />
<path d="M65.9994 117.4837
L66.1898 117.5789
" />
<path d="M66.9518 119.5789
L67.0470 119.4837
" />
<path d="M67.0470 119.4837
L67.2375 119.1980
" />
<path d="M67.2375 119.1980
L67.3327 119.0075
" />
<path d="M67.3327 119.0075
L67.4279 118.7218
" />
<path d="M67.4279 118.7218
L67.5232 118.2456
" />
<path d="M67.5232 118.2456
L67.5232 117.8646
" />
<path d="M67.5232 117.8646
L67.4279 117.3884
" />
<path d="M67.4279 117.3884
L67.3327 117.1027
" />
<path d="M67.3327 117.1027
L67.2375 116.9122
" />
<path d="M67.2375 116.9122
L67.0470 116.6265
" />
<path d="M67.0470 116.6265
L66.9518 116.5313
" />
</g></g>
<g style="fill:#000000; fill-opacity:0.0; 
stroke:#000000; stroke-width:0.2000; stroke-opacity:1; 
stroke-linecap:round; stroke-linejoin:round;">
<path d="M18.2011 120.1022
L18.2011 122.1022
" />
<path d="M17.2011 121.1022
L19.2011 121.1022
" />
</g>
<g style="fill:#000000; fill-opacity:0.0; 
stroke:#000000; stroke-width:0.6000; stroke-opacity:1; 
stroke-linecap:round; stroke-linejoin:round;">
</g>
<g style="fill:#000000; fill-opacity:0.0; 
stroke:#000000; stroke-width:0.2000; stroke-opacity:1; 
stroke-linecap:round; stroke-linejoin:round;">
<text x="21.2011" y="122.1022"
textLength="48.7715" font-size="2.6667" lengthAdjust="spacingAndGlyphs"
text-anchor="start" opacity="0">1.100mm / 0.0433" (36 holes)</text>
<g class="stroked-text"><desc>1.100mm / 0.0433" (36 holes)</desc>
<path d="M22.8565 122.0170
L21.7136 122.0170
" />
<path d="M22.2851 122.0170
L22.2851 120.0170
" />
<path d="M22.2851 120.0170
L22.0946 120.3027
" />
<path d="M22.0946 120.3027
L21.9041 120.4932
" />
<path d="M21.9041 120.4932
L21.7136 120.5884
" />
<path d="M23.7136 121.8265
L23.8089 121.9218
" />
<path d="M23.8089 121.9218
L23.7136 122.0170
" />
<path d="M23.7136 122.0170
L23.6184 121.9218
" />
<path d="M23.6184 121.9218
L23.7136 121.8265
" />
<path d="M23.7136 121.8265
L23.7136 122.0170
" />
<path d="M25.7136 122.0170
L24.5708 122.0170
" />
<path d="M25.1422 122.0170
L25.1422 120.0170
" />
<path d="M25.1422 120.0170
L24.9517 120.3027
" />
<path d="M24.9517 120.3027
L24.7613 120.4932
" />
<path d="M24.7613 120.4932
L24.5708 120.5884
" />
<path d="M26.9517 120.0170
L27.1422 120.0170
" />
<path d="M27.1422 120.0170
L27.3327 120.1122
" />
<path d="M27.3327 120.1122
L27.4279 120.2075
" />
<path d="M27.4279 120.2075
L27.5232 120.3980
" />
<path d="M27.5232 120.3980
L27.6184 120.7789
" />
<path d="M27.6184 120.7789
L27.6184 121.2551
" />
<path d="M27.6184 121.2551
L27.5232 121.6360
" />
<path d="M27.5232 121.6360
L27.4279 121.8265
" />
<path d="M27.4279 121.8265
L27.3327 121.9218
" />
<path d="M27.3327 121.9218
L27.1422 122.0170
" />
<path d="M27.1422 122.0170
L26.9517 122.0170
" />
<path d="M26.9517 122.0170
L26.7613 121.9218
" />
<path d="M26.7613 121.9218
L26.6660 121.8265
" />
<path d="M26.6660 121.8265
L26.5708 121.6360
" />
<path d="M26.5708 121.6360
L26.4755 121.2551
" />
<path d="M26.4755 121.2551
L26.4755 120.7789
" />
<path d="M26.4755 120.7789
L26.5708 120.3980
" />
<path d="M26.5708 120.3980
L26.6660 120.2075
" />
<path d="M26.6660 120.2075
L26.7613 120.1122
" />
<path d="M26.7613 120.1122
L26.9517 120.0170
" />
<path d="M28.8565 120.0170
L29.0470 120.0170
" />
<path d="M29.0470 120.0170
L29.2374 120.1122
" />
<path d="M29.2374 120.1122
L29.3327 120.2075
" />
<path d="M29.3327 120.2075
L29.4279 120.3980
" />
<path d="M29.4279 120.3980
L29.5232 120.7789
" />
<path d="M29.5232 120.7789
L29.5232 121.2551
" />
<path d="M29.5232 121.2551
L29.4279 121.6360
" />
<path d="M29.4279 121.6360
L29.3327 121.8265
" />
<path d="M29.3327 121.8265
L29.2374 121.9218
" />
<path d="M29.2374 121.9218
L29.0470 122.0170
" />
<path d="M29.0470 122.0170
L28.8565 122.0170
" />
<path d="M28.8565 122.0170
L28.6660 121.9218
" />
<path d="M28.6660 121.9218
L28.5708 121.8265
" />
<path d="M28.5708 121.8265
L28.4755 121.6360
" />
<path d="M28.4755 121.6360
L28.3803 121.2551
" />
<path d="M28.3803 121.2551
L28.3803 120.7789
" />
<path d="M28.3803 120.7789
L28.4755 120.3980
" />
<path d="M28.4755 120.3980
L28.5708 120.2075
" />
<path d="M28.5708 120.2075
L28.6660 120.1122
" />
<path d="M28.6660 120.1122
L28.8565 120.0170
" />
<path d="M30.3803 122.0170
L30.3803 120.6837
" />
<path d="M30.3803 120.8741
L30.4755 120.7789
" />
<path d="M30.4755 120.7789
L30.6660 120.6837
" />
<path d="M30.6660 120.6837
L30.9517 120.6837
" />
<path d="M30.9517 120.6837
L31.1422 120.7789
" />
<path d="M31.1422 120.7789
L31.2374 120.9694
" />
<path d="M31.2374 120.9694
L31.2374 122.0170
" />
<path d="M31.2374 120.9694
L31.3327 120.7789
" />
<path d="M31.3327 120.7789
L31.5232 120.6837
" />
<path d="M31.5232 120.6837
L31.8089 120.6837
" />
<path d="M31.8089 120.6837
L31.9993 120.7789
" />
<path d="M31.9993 120.7789
L32.0946 120.9694
" />
<path d="M32.0946 120.9694
L32.0946 122.0170
" />
<path d="M33.0470 122.0170
L33.0470 120.6837
" />
<path d="M33.0470 120.8741
L33.1422 120.7789
" />
<path d="M33.1422 120.7789
L33.3327 120.6837
" />
<path d="M33.3327 120.6837
L33.6184 120.6837
" />
<path d="M33.6184 120.6837
L33.8089 120.7789
" />
<path d="M33.8089 120.7789
L33.9041 120.9694
" />
<path d="M33.9041 120.9694
L33.9041 122.0170
" />
<path d="M33.9041 120.9694
L33.9993 120.7789
" />
<path d="M33.9993 120.7789
L34.1898 120.6837
" />
<path d="M34.1898 120.6837
L34.4755 120.6837
" />
<path d="M34.4755 120.6837
L34.6660 120.7789
" />
<path d="M34.6660 120.7789
L34.7613 120.9694
" />
<path d="M34.7613 120.9694
L34.7613 122.0170
" />
<path d="M38.6660 119.9218
L36.9517 122.4932
" />
<path d="M41.2374 120.0170
L41.4279 120.0170
" />
<path d="M41.4279 120.0170
L41.6184 120.1122
" />
<path d="M41.6184 120.1122
L41.7136 120.2075
" />
<path d="M41.7136 120.2075
L41.8089 120.3980
" />
<path d="M41.8089 120.3980
L41.9041 120.7789
" />
<path d="M41.9041 120.7789
L41.9041 121.2551
" />
<path d="M41.9041 121.2551
L41.8089 121.6360
" />
<path d="M41.8089 121.6360
L41.7136 121.8265
" />
<path d="M41.7136 121.8265
L41.6184 121.9218
" />
<path d="M41.6184 121.9218
L41.4279 122.0170
" />
<path d="M41.4279 122.0170
L41.2374 122.0170
" />
<path d="M41.2374 122.0170
L41.0470 121.9218
" />
<path d="M41.0470 121.9218
L40.9517 121.8265
" />
<path d="M40.9517 121.8265
L40.8565 121.6360
" />
<path d="M40.8565 121.6360
L40.7613 121.2551
" />
<path d="M40.7613 121.2551
L40.7613 120.7789
" />
<path d="M40.7613 120.7789
L40.8565 120.3980
" />
<path d="M40.8565 120.3980
L40.9517 120.2075
" />
<path d="M40.9517 120.2075
L41.0470 120.1122
" />
<path d="M41.0470 120.1122
L41.2374 120.0170
" />
<path d="M42.7613 121.8265
L42.8565 121.9218
" />
<path d="M42.8565 121.9218
L42.7613 122.0170
" />
<path d="M42.7613 122.0170
L42.6660 121.9218
" />
<path d="M42.6660 121.9218
L42.7613 121.8265
" />
<path d="M42.7613 121.8265
L42.7613 122.0170
" />
<path d="M44.0946 120.0170
L44.2851 120.0170
" />
<path d="M44.2851 120.0170
L44.4755 120.1122
" />
<path d="M44.4755 120.1122
L44.5708 120.2075
" />
<path d="M44.5708 120.2075
L44.6660 120.3980
" />
<path d="M44.6660 120.3980
L44.7613 120.7789
" />
<path d="M44.7613 120.7789
L44.7613 121.2551
" />
<path d="M44.7613 121.2551
L44.6660 121.6360
" />
<path d="M44.6660 121.6360
L44.5708 121.8265
" />
<path d="M44.5708 121.8265
L44.4755 121.9218
" />
<path d="M44.4755 121.9218
L44.2851 122.0170
" />
<path d="M44.2851 122.0170
L44.0946 122.0170
" />
<path d="M44.0946 122.0170
L43.9041 121.9218
" />
<path d="M43.9041 121.9218
L43.8089 121.8265
" />
<path d="M43.8089 121.8265
L43.7136 121.6360
" />
<path d="M43.7136 121.6360
L43.6184 121.2551
" />
<path d="M43.6184 121.2551
L43.6184 120.7789
" />
<path d="M43.6184 120.7789
L43.7136 120.3980
" />
<path d="M43.7136 120.3980
L43.8089 120.2075
" />
<path d="M43.8089 120.2075
L43.9041 120.1122
" />
<path d="M43.9041 120.1122
L44.0946 120.0170
" />
<path d="M46.4755 120.6837
L46.4755 122.0170
" />
<path d="M45.9994 119.9218
L45.5232 121.3503
" />
<path d="M45.5232 121.3503
L46.7613 121.3503
" />
<path d="M47.3327 120.0170
L48.5708 120.0170
" />
<path d="M48.5708 120.0170
L47.9041 120.7789
" />
<path d="M47.9041 120.7789
L48.1898 120.7789
" />
<path d="M48.1898 120.7789
L48.3803 120.8741
" />
<path d="M48.3803 120.8741
L48.4755 120.9694
" />
<path d="M48.4755 120.9694
L48.5708 121.1599
" />
<path d="M48.5708 121.1599
L48.5708 121.6360
" />
<path d="M48.5708 121.6360
L48.4755 121.8265
" />
<path d="M48.4755 121.8265
L48.3803 121.9218
" />
<path d="M48.3803 121.9218
L48.1898 122.0170
" />
<path d="M48.1898 122.0170
L47.6184 122.0170
" />
<path d="M47.6184 122.0170
L47.4279 121.9218
" />
<path d="M47.4279 121.9218
L47.3327 121.8265
" />
<path d="M49.2375 120.0170
L50.4755 120.0170
" />
<path d="M50.4755 120.0170
L49.8089 120.7789
" />
<path d="M49.8089 120.7789
L50.0946 120.7789
" />
<path d="M50.0946 120.7789
L50.2851 120.8741
" />
<path d="M50.2851 120.8741
L50.3803 120.9694
" />
<path d="M50.3803 120.9694
L50.4755 121.1599
" />
<path d="M50.4755 121.1599
L50.4755 121.6360
" />
<path d="M50.4755 121.6360
L50.3803 121.8265
" />
<path d="M50.3803 121.8265
L50.2851 121.9218
" />
<path d="M50.2851 121.9218
L50.0946 122.0170
" />
<path d="M50.0946 122.0170
L49.5232 122.0170
" />
<path d="M49.5232 122.0170
L49.3327 121.9218
" />
<path d="M49.3327 121.9218
L49.2375 121.8265
" />
<path d="M51.2375 120.0170
L51.2375 120.3980
" />
<path d="M51.9994 120.0170
L51.9994 120.3980
" />
<path d="M54.9517 122.7789
L54.8565 122.6837
" />
<path d="M54.8565 122.6837
L54.6660 122.3980
" />
<path d="M54.6660 122.3980
L54.5708 122.2075
" />
<path d="M54.5708 122.2075
L54.4756 121.9218
" />
<path d="M54.4756 121.9218
L54.3803 121.4456
" />
<path d="M54.3803 121.4456
L54.3803 121.0646
" />
<path d="M54.3803 121.0646
L54.4756 120.5884
" />
<path d="M54.4756 120.5884
L54.5708 120.3027
" />
<path d="M54.5708 120.3027
L54.6660 120.1122
" />
<path d="M54.6660 120.1122
L54.8565 119.8265
" />
<path d="M54.8565 119.8265
L54.9517 119.7313
" />
<path d="M55.5232 120.0170
L56.7613 120.0170
" />
<path d="M56.7613 120.0170
L56.0946 120.7789
" />
<path d="M56.0946 120.7789
L56.3803 120.7789
" />
<path d="M56.3803 120.7789
L56.5708 120.8741
" />
<path d="M56.5708 120.8741
L56.6660 120.9694
" />
<path d="M56.6660 120.9694
L56.7613 121.1599
" />
<path d="M56.7613 121.1599
L56.7613 121.6360
" />
<path d="M56.7613 121.6360
L56.6660 121.8265
" />
<path d="M56.6660 121.8265
L56.5708 121.9218
" />
<path d="M56.5708 121.9218
L56.3803 122.0170
" />
<path d="M56.3803 122.0170
L55.8089 122.0170
" />
<path d="M55.8089 122.0170
L55.6184 121.9218
" />
<path d="M55.6184 121.9218
L55.5232 121.8265
" />
<path d="M58.4756 120.0170
L58.0946 120.0170
" />
<path d="M58.0946 120.0170
L57.9041 120.1122
" />
<path d="M57.9041 120.1122
L57.8089 120.2075
" />
<path d="M57.8089 120.2075
L57.6184 120.4932
" />
<path d="M57.6184 120.4932
L57.5232 120.8741
" />
<path d="M57.5232 120.8741
L57.5232 121.6360
" />
<path d="M57.5232 121.6360
L57.6184 121.8265
" />
<path d="M57.6184 121.8265
L57.7136 121.9218
" />
<path d="M57.7136 121.9218
L57.9041 122.0170
" />
<path d="M57.9041 122.0170
L58.2851 122.0170
" />
<path d="M58.2851 122.0170
L58.4756 121.9218
" />
<path d="M58.4756 121.9218
L58.5708 121.8265
" />
<path d="M58.5708 121.8265
L58.6660 121.6360
" />
<path d="M58.6660 121.6360
L58.6660 121.1599
" />
<path d="M58.6660 121.1599
L58.5708 120.9694
" />
<path d="M58.5708 120.9694
L58.4756 120.8741
" />
<path d="M58.4756 120.8741
L58.2851 120.7789
" />
<path d="M58.2851 120.7789
L57.9041 120.7789
" />
<path d="M57.9041 120.7789
L57.7136 120.8741
" />
<path d="M57.7136 120.8741
L57.6184 120.9694
" />
<path d="M57.6184 120.9694
L57.5232 121.1599
" />
<path d="M61.0470 122.0170
L61.0470 120.0170
" />
<path d="M61.9041 122.0170
L61.9041 120.9694
" />
<path d="M61.9041 120.9694
L61.8089 120.7789
" />
<path d="M61.8089 120.7789
L61.6184 120.6837
" />
<path d="M61.6184 120.6837
L61.3327 120.6837
" />
<path d="M61.3327 120.6837
L61.1422 120.7789
" />
<path d="M61.1422 120.7789
L61.0470 120.8741
" />
<path d="M63.1422 122.0170
L62.9517 121.9218
" />
<path d="M62.9517 121.9218
L62.8565 121.8265
" />
<path d="M62.8565 121.8265
L62.7613 121.6360
" />
<path d="M62.7613 121.6360
L62.7613 121.0646
" />
<path d="M62.7613 121.0646
L62.8565 120.8741
" />
<path d="M62.8565 120.8741
L62.9517 120.7789
" />
<path d="M62.9517 120.7789
L63.1422 120.6837
" />
<path d="M63.1422 120.6837
L63.4279 120.6837
" />
<path d="M63.4279 120.6837
L63.6184 120.7789
" />
<path d="M63.6184 120.7789
L63.7137 120.8741
" />
<path d="M63.7137 120.8741
L63.8089 121.0646
" />
<path d="M63.8089 121.0646
L63.8089 121.6360
" />
<path d="M63.8089 121.6360
L63.7137 121.8265
" />
<path d="M63.7137 121.8265
L63.6184 121.9218
" />
<path d="M63.6184 121.9218
L63.4279 122.0170
" />
<path d="M63.4279 122.0170
L63.1422 122.0170
" />
<path d="M64.9517 122.0170
L64.7613 121.9218
" />
<path d="M64.7613 121.9218
L64.6660 121.7313
" />
<path d="M64.6660 121.7313
L64.6660 120.0170
" />
<path d="M66.4756 121.9218
L66.2851 122.0170
" />
<path d="M66.2851 122.0170
L65.9041 122.0170
" />
<path d="M65.9041 122.0170
L65.7137 121.9218
" />
<path d="M65.7137 121.9218
L65.6184 121.7313
" />
<path d="M65.6184 121.7313
L65.6184 120.9694
" />
<path d="M65.6184 120.9694
L65.7137 120.7789
" />
<path d="M65.7137 120.7789
L65.9041 120.6837
" />
<path d="M65.9041 120.6837
L66.2851 120.6837
" />
<path d="M66.2851 120.6837
L66.4756 120.7789
" />
<path d="M66.4756 120.7789
L66.5708 120.9694
" />
<path d="M66.5708 120.9694
L66.5708 121.1599
" />
<path d="M66.5708 121.1599
L65.6184 121.3503
" />
<path d="M67.3327 121.9218
L67.5232 122.0170
" />
<path d="M67.5232 122.0170
L67.9041 122.0170
" />
<path d="M67.9041 122.0170
L68.0946 121.9218
" />
<path d="M68.0946 121.9218
L68.1898 121.7313
" />
<path d="M68.1898 121.7313
L68.1898 121.6360
" />
<path d="M68.1898 121.6360
L68.0946 121.4456
" />
<path d="M68.0946 121.4456
L67.9041 121.3503
" />
<path d="M67.9041 121.3503
L67.6184 121.3503
" />
<path d="M67.6184 121.3503
L67.4279 121.2551
" />
<path d="M67.4279 121.2551
L67.3327 121.0646
" />
<path d="M67.3327 121.0646
L67.3327 120.9694
" />
<path d="M67.3327 120.9694
L67.4279 120.7789
" />
<path d="M67.4279 120.7789
L67.6184 120.6837
" />
<path d="M67.6184 120.6837
L67.9041 120.6837
" />
<path d="M67.9041 120.6837
L68.0946 120.7789
" />
<path d="M68.8565 122.7789
L68.9518 122.6837
" />
<path d="M68.9518 122.6837
L69.1422 122.3980
" />
<path d="M69.1422 122.3980
L69.2375 122.2075
" />
<path d="M69.2375 122.2075
L69.3327 121.9218
" />
<path d="M69.3327 121.9218
L69.4279 121.4456
" />
<path d="M69.4279 121.4456
L69.4279 121.0646
" />
<path d="M69.4279 121.0646
L69.3327 120.5884
" />
<path d="M69.3327 120.5884
L69.2375 120.3027
" />
<path d="M69.2375 120.3027
L69.1422 120.1122
" />
<path d="M69.1422 120.1122
L68.9518 119.8265
" />
<path d="M68.9518 119.8265
L68.8565 119.7313
" />
</g></g> 
</svg>
